G75*
%MOIN*%
%OFA0B0*%
%FSLAX25Y25*%
%IPPOS*%
%LPD*%
%AMOC8*
5,1,8,0,0,1.08239X$1,22.5*
%
%ADD10C,0.00800*%
%ADD11C,0.00700*%
%ADD12C,0.00300*%
D10*
X0004945Y0005400D02*
X0006346Y0005400D01*
X0007046Y0006101D01*
X0007046Y0009604D01*
X0008848Y0008202D02*
X0010249Y0009604D01*
X0011650Y0008202D01*
X0011650Y0005400D01*
X0013452Y0005400D02*
X0013452Y0009604D01*
X0015554Y0009604D01*
X0016254Y0008903D01*
X0016254Y0007502D01*
X0015554Y0006801D01*
X0013452Y0006801D01*
X0014853Y0006801D02*
X0016254Y0005400D01*
X0019457Y0005400D02*
X0019457Y0009604D01*
X0018056Y0009604D02*
X0020858Y0009604D01*
X0020858Y0011900D02*
X0018056Y0011900D01*
X0019457Y0011900D02*
X0019457Y0016104D01*
X0018056Y0014702D01*
X0016254Y0016104D02*
X0014853Y0016104D01*
X0015554Y0016104D02*
X0015554Y0012601D01*
X0014853Y0011900D01*
X0014153Y0011900D01*
X0013452Y0012601D01*
X0008848Y0008202D02*
X0008848Y0005400D01*
X0008848Y0007502D02*
X0011650Y0007502D01*
X0004945Y0005400D02*
X0004244Y0006101D01*
X0004244Y0009604D01*
X0024000Y0005240D02*
X0024000Y0015240D01*
X0034000Y0015240D01*
X0034000Y0012740D01*
X0036500Y0015240D01*
X0041500Y0015240D01*
X0044000Y0012740D01*
X0046500Y0015240D01*
X0051500Y0015240D01*
X0054000Y0012740D01*
X0056500Y0015240D01*
X0061500Y0015240D01*
X0064000Y0012740D01*
X0064000Y0007740D01*
X0061500Y0005240D01*
X0056500Y0005240D01*
X0054000Y0007740D01*
X0054000Y0012740D01*
X0054000Y0007740D02*
X0051500Y0005240D01*
X0046500Y0005240D01*
X0044000Y0007740D01*
X0044000Y0012740D01*
X0044000Y0007740D02*
X0041500Y0005240D01*
X0036500Y0005240D01*
X0034000Y0007740D01*
X0034000Y0005240D01*
X0024000Y0005240D01*
X0034000Y0007740D02*
X0034000Y0012740D01*
X0030399Y0018140D02*
X0027597Y0018140D01*
X0026896Y0018841D01*
X0026896Y0020242D01*
X0027597Y0020943D01*
X0028998Y0020943D02*
X0028998Y0019541D01*
X0030399Y0018140D02*
X0031100Y0018841D01*
X0031100Y0020242D01*
X0030399Y0020943D01*
X0028998Y0020943D01*
X0026896Y0022744D02*
X0031100Y0025546D01*
X0026896Y0025546D01*
X0026896Y0027348D02*
X0026896Y0029450D01*
X0027597Y0030150D01*
X0030399Y0030150D01*
X0031100Y0029450D01*
X0031100Y0027348D01*
X0026896Y0027348D01*
X0026896Y0022744D02*
X0031100Y0022744D01*
X0036896Y0023640D02*
X0036896Y0026443D01*
X0036896Y0025041D02*
X0041100Y0025041D01*
X0041100Y0028244D02*
X0036896Y0031046D01*
X0036896Y0028244D02*
X0041100Y0031046D01*
X0046896Y0031046D02*
X0051100Y0028244D01*
X0051100Y0026443D02*
X0049699Y0025041D01*
X0049699Y0025742D02*
X0049699Y0023640D01*
X0051100Y0023640D02*
X0046896Y0023640D01*
X0046896Y0025742D01*
X0047597Y0026443D01*
X0048998Y0026443D01*
X0049699Y0025742D01*
X0046896Y0028244D02*
X0051100Y0031046D01*
X0056896Y0030150D02*
X0059699Y0030150D01*
X0061100Y0028749D01*
X0059699Y0027348D01*
X0056896Y0027348D01*
X0056896Y0025546D02*
X0056896Y0022744D01*
X0058998Y0022744D01*
X0058298Y0024145D01*
X0058298Y0024846D01*
X0058998Y0025546D01*
X0060399Y0025546D01*
X0061100Y0024846D01*
X0061100Y0023445D01*
X0060399Y0022744D01*
X0058998Y0020943D02*
X0058998Y0018140D01*
X0057597Y0019541D02*
X0060399Y0019541D01*
X0050500Y0020000D02*
X0049000Y0021500D01*
X0047500Y0020000D01*
X0049000Y0021500D02*
X0049000Y0018000D01*
X0040500Y0019500D02*
X0039000Y0018000D01*
X0037500Y0019500D01*
X0039000Y0018000D02*
X0039000Y0021500D01*
X0024000Y0035870D02*
X0019000Y0035870D01*
X0016500Y0038370D01*
X0016500Y0035870D01*
X0006500Y0035870D01*
X0006500Y0045870D01*
X0016500Y0045870D01*
X0016500Y0043370D01*
X0019000Y0045870D01*
X0024000Y0045870D01*
X0026500Y0043370D01*
X0026500Y0038370D01*
X0024000Y0035870D01*
X0016500Y0038370D02*
X0016500Y0043370D01*
X0013987Y0048569D02*
X0011185Y0048569D01*
X0007982Y0049270D02*
X0007982Y0053474D01*
X0006581Y0053474D02*
X0009383Y0053474D01*
X0015789Y0053474D02*
X0015789Y0049270D01*
X0018591Y0049270D01*
X0020393Y0049270D02*
X0020393Y0053474D01*
X0023195Y0049270D01*
X0023195Y0053474D01*
X0018591Y0053474D02*
X0015789Y0053474D01*
X0015789Y0051372D02*
X0017190Y0051372D01*
X0030500Y0052740D02*
X0030500Y0057740D01*
X0037500Y0057740D02*
X0037500Y0052740D01*
X0040500Y0052740D02*
X0040500Y0057740D01*
X0047500Y0057740D02*
X0047500Y0052740D01*
X0050500Y0052740D02*
X0050500Y0057740D01*
X0057500Y0057740D02*
X0057500Y0052740D01*
X0060500Y0052740D02*
X0060500Y0057740D01*
X0067500Y0057740D02*
X0067500Y0052740D01*
X0070500Y0052740D02*
X0070500Y0057740D01*
X0077500Y0057740D02*
X0077500Y0052740D01*
X0080500Y0052740D02*
X0080500Y0057740D01*
X0087500Y0057740D02*
X0087500Y0052740D01*
X0090500Y0052740D02*
X0090500Y0057740D01*
X0097500Y0057740D02*
X0097500Y0052740D01*
X0096100Y0068160D02*
X0091896Y0068160D01*
X0091896Y0070262D01*
X0092597Y0070962D01*
X0093998Y0070962D01*
X0094699Y0070262D01*
X0094699Y0068160D01*
X0094699Y0069561D02*
X0096100Y0070962D01*
X0095399Y0072764D02*
X0096100Y0073464D01*
X0096100Y0074866D01*
X0095399Y0075566D01*
X0092597Y0075566D01*
X0091896Y0074866D01*
X0091896Y0073464D01*
X0092597Y0072764D01*
X0093298Y0072764D01*
X0093998Y0073464D01*
X0093998Y0075566D01*
X0086100Y0074866D02*
X0086100Y0073464D01*
X0085399Y0072764D01*
X0084699Y0072764D01*
X0083998Y0073464D01*
X0083998Y0074866D01*
X0084699Y0075566D01*
X0085399Y0075566D01*
X0086100Y0074866D01*
X0083998Y0074866D02*
X0083298Y0075566D01*
X0082597Y0075566D01*
X0081896Y0074866D01*
X0081896Y0073464D01*
X0082597Y0072764D01*
X0083298Y0072764D01*
X0083998Y0073464D01*
X0083998Y0070962D02*
X0082597Y0070962D01*
X0081896Y0070262D01*
X0081896Y0068160D01*
X0086100Y0068160D01*
X0084699Y0068160D02*
X0084699Y0070262D01*
X0083998Y0070962D01*
X0084699Y0069561D02*
X0086100Y0070962D01*
X0076100Y0070962D02*
X0074699Y0069561D01*
X0074699Y0070262D02*
X0074699Y0068160D01*
X0076100Y0068160D02*
X0071896Y0068160D01*
X0071896Y0070262D01*
X0072597Y0070962D01*
X0073998Y0070962D01*
X0074699Y0070262D01*
X0075399Y0072764D02*
X0076100Y0073464D01*
X0076100Y0074866D01*
X0075399Y0075566D01*
X0073998Y0075566D01*
X0073298Y0074866D01*
X0073298Y0074165D01*
X0073998Y0072764D01*
X0071896Y0072764D01*
X0071896Y0075566D01*
X0066100Y0074866D02*
X0066100Y0073464D01*
X0065399Y0072764D01*
X0063998Y0074165D02*
X0063998Y0074866D01*
X0064699Y0075566D01*
X0065399Y0075566D01*
X0066100Y0074866D01*
X0063998Y0074866D02*
X0063298Y0075566D01*
X0062597Y0075566D01*
X0061896Y0074866D01*
X0061896Y0073464D01*
X0062597Y0072764D01*
X0062597Y0070962D02*
X0063998Y0070962D01*
X0064699Y0070262D01*
X0064699Y0068160D01*
X0066100Y0068160D02*
X0061896Y0068160D01*
X0061896Y0070262D01*
X0062597Y0070962D01*
X0064699Y0069561D02*
X0066100Y0070962D01*
X0056100Y0070962D02*
X0054699Y0069561D01*
X0054699Y0070262D02*
X0054699Y0068160D01*
X0056100Y0068160D02*
X0051896Y0068160D01*
X0051896Y0070262D01*
X0052597Y0070962D01*
X0053998Y0070962D01*
X0054699Y0070262D01*
X0056100Y0072764D02*
X0056100Y0075566D01*
X0056100Y0074165D02*
X0051896Y0074165D01*
X0053298Y0072764D01*
X0046100Y0072764D02*
X0043298Y0075566D01*
X0042597Y0075566D01*
X0041896Y0074866D01*
X0041896Y0073464D01*
X0042597Y0072764D01*
X0046100Y0072764D02*
X0046100Y0075566D01*
X0046100Y0070962D02*
X0044699Y0069561D01*
X0044699Y0070262D02*
X0044699Y0068160D01*
X0046100Y0068160D02*
X0041896Y0068160D01*
X0041896Y0070262D01*
X0042597Y0070962D01*
X0043998Y0070962D01*
X0044699Y0070262D01*
X0036100Y0070962D02*
X0034699Y0069561D01*
X0034699Y0070262D02*
X0034699Y0068160D01*
X0036100Y0068160D02*
X0031896Y0068160D01*
X0031896Y0070262D01*
X0032597Y0070962D01*
X0033998Y0070962D01*
X0034699Y0070262D01*
X0033998Y0072764D02*
X0033998Y0075566D01*
X0031896Y0074866D02*
X0033998Y0072764D01*
X0036100Y0074866D02*
X0031896Y0074866D01*
X0078998Y0034754D02*
X0078998Y0031952D01*
X0077597Y0030150D02*
X0076896Y0029450D01*
X0076896Y0027348D01*
X0081100Y0027348D01*
X0081100Y0029450D01*
X0080399Y0030150D01*
X0077597Y0030150D01*
X0077597Y0025546D02*
X0076896Y0024846D01*
X0076896Y0023445D01*
X0077597Y0022744D01*
X0080399Y0022744D01*
X0081100Y0023445D01*
X0081100Y0024846D01*
X0080399Y0025546D01*
X0086896Y0024846D02*
X0086896Y0023445D01*
X0087597Y0022744D01*
X0090399Y0022744D01*
X0091100Y0023445D01*
X0091100Y0024846D01*
X0090399Y0025546D01*
X0091100Y0027348D02*
X0091100Y0029450D01*
X0090399Y0030150D01*
X0087597Y0030150D01*
X0086896Y0029450D01*
X0086896Y0027348D01*
X0091100Y0027348D01*
X0087597Y0025546D02*
X0086896Y0024846D01*
X0087597Y0020943D02*
X0086896Y0020242D01*
X0086896Y0018841D01*
X0087597Y0018140D01*
X0090399Y0018140D01*
X0091100Y0018841D01*
X0091100Y0020242D01*
X0090399Y0020943D01*
X0096896Y0020242D02*
X0096896Y0018841D01*
X0097597Y0018140D01*
X0100399Y0018140D01*
X0101100Y0018841D01*
X0101100Y0020242D01*
X0100399Y0020943D01*
X0098998Y0020943D01*
X0098998Y0019541D01*
X0097597Y0020943D02*
X0096896Y0020242D01*
X0096896Y0022744D02*
X0101100Y0025546D01*
X0096896Y0025546D01*
X0096896Y0027348D02*
X0096896Y0029450D01*
X0097597Y0030150D01*
X0100399Y0030150D01*
X0101100Y0029450D01*
X0101100Y0027348D01*
X0096896Y0027348D01*
X0096896Y0022744D02*
X0101100Y0022744D01*
X0108541Y0016104D02*
X0109943Y0016104D01*
X0109242Y0016104D02*
X0109242Y0012601D01*
X0108541Y0011900D01*
X0107841Y0011900D01*
X0107140Y0012601D01*
X0104000Y0015240D02*
X0104000Y0005240D01*
X0094000Y0005240D01*
X0094000Y0007740D01*
X0091500Y0005240D01*
X0086500Y0005240D01*
X0084000Y0007740D01*
X0081500Y0005240D01*
X0076500Y0005240D01*
X0074000Y0007740D01*
X0074000Y0012740D01*
X0076500Y0015240D01*
X0081500Y0015240D01*
X0084000Y0012740D01*
X0084000Y0007740D01*
X0084000Y0012740D02*
X0086500Y0015240D01*
X0091500Y0015240D01*
X0094000Y0012740D01*
X0094000Y0015240D01*
X0104000Y0015240D01*
X0111744Y0015403D02*
X0112445Y0016104D01*
X0113846Y0016104D01*
X0114546Y0015403D01*
X0114546Y0014702D01*
X0111744Y0011900D01*
X0114546Y0011900D01*
X0113846Y0009604D02*
X0111744Y0009604D01*
X0111744Y0005400D01*
X0113846Y0005400D01*
X0114546Y0006101D01*
X0114546Y0006801D01*
X0113846Y0007502D01*
X0111744Y0007502D01*
X0113846Y0007502D02*
X0114546Y0008202D01*
X0114546Y0008903D01*
X0113846Y0009604D01*
X0116348Y0009604D02*
X0118450Y0009604D01*
X0119150Y0008903D01*
X0119150Y0006101D01*
X0118450Y0005400D01*
X0116348Y0005400D01*
X0116348Y0009604D01*
X0109943Y0008903D02*
X0109943Y0006101D01*
X0109242Y0005400D01*
X0107841Y0005400D01*
X0107140Y0006101D01*
X0107140Y0008903D01*
X0107841Y0009604D01*
X0109242Y0009604D01*
X0109943Y0008903D01*
X0094000Y0007740D02*
X0094000Y0012740D01*
X0081100Y0018841D02*
X0081100Y0020242D01*
X0080399Y0020943D01*
X0081100Y0018841D02*
X0080399Y0018140D01*
X0077597Y0018140D01*
X0076896Y0018841D01*
X0076896Y0020242D01*
X0077597Y0020943D01*
X0088998Y0031952D02*
X0088998Y0034754D01*
X0087597Y0033353D02*
X0090399Y0033353D01*
X0013987Y0031973D02*
X0013987Y0031272D01*
X0013287Y0030572D01*
X0013987Y0029871D01*
X0013987Y0029171D01*
X0013287Y0028470D01*
X0011886Y0028470D01*
X0011185Y0029171D01*
X0012586Y0030572D02*
X0013287Y0030572D01*
X0013987Y0031973D02*
X0013287Y0032674D01*
X0011886Y0032674D01*
X0011185Y0031973D01*
X0009383Y0032674D02*
X0007982Y0032674D01*
X0008683Y0032674D02*
X0008683Y0029171D01*
X0007982Y0028470D01*
X0007282Y0028470D01*
X0006581Y0029171D01*
D11*
X0105194Y0040650D02*
X0105734Y0040110D01*
X0107894Y0040110D01*
X0108433Y0040650D01*
X0108433Y0041730D01*
X0107894Y0042270D01*
X0107894Y0043735D02*
X0105734Y0043735D01*
X0105194Y0044275D01*
X0105194Y0045355D01*
X0105734Y0045895D01*
X0105194Y0047360D02*
X0105194Y0048980D01*
X0105734Y0049520D01*
X0107894Y0049520D01*
X0108433Y0048980D01*
X0108433Y0047360D01*
X0105194Y0047360D01*
X0107894Y0045895D02*
X0108433Y0045355D01*
X0108433Y0044275D01*
X0107894Y0043735D01*
X0105734Y0042270D02*
X0105194Y0041730D01*
X0105194Y0040650D01*
X0111099Y0041190D02*
X0114339Y0041190D01*
X0117005Y0041730D02*
X0117005Y0040110D01*
X0120244Y0040110D01*
X0120244Y0041730D01*
X0119705Y0042270D01*
X0117545Y0042270D01*
X0117005Y0041730D01*
X0117005Y0043735D02*
X0120244Y0043735D01*
X0120244Y0045895D01*
X0119165Y0047360D02*
X0120244Y0048440D01*
X0119165Y0049520D01*
X0117005Y0049520D01*
X0114339Y0049520D02*
X0112179Y0049520D01*
X0111099Y0048440D01*
X0112179Y0047360D01*
X0114339Y0047360D01*
X0114339Y0045895D02*
X0113259Y0044815D01*
X0113259Y0045355D02*
X0113259Y0043735D01*
X0114339Y0043735D02*
X0111099Y0043735D01*
X0111099Y0045355D01*
X0111639Y0045895D01*
X0112719Y0045895D01*
X0113259Y0045355D01*
X0112719Y0047360D02*
X0112719Y0049520D01*
X0111099Y0050985D02*
X0114339Y0053145D01*
X0111099Y0053145D01*
X0111639Y0054610D02*
X0112179Y0054610D01*
X0112719Y0055150D01*
X0112719Y0056230D01*
X0113259Y0056770D01*
X0113799Y0056770D01*
X0114339Y0056230D01*
X0114339Y0055150D01*
X0113799Y0054610D01*
X0111639Y0054610D02*
X0111099Y0055150D01*
X0111099Y0056230D01*
X0111639Y0056770D01*
X0111639Y0058236D02*
X0113799Y0058236D01*
X0114339Y0058775D01*
X0114339Y0059855D01*
X0113799Y0060395D01*
X0114339Y0061861D02*
X0111099Y0061861D01*
X0111099Y0064020D01*
X0112719Y0062941D02*
X0112719Y0061861D01*
X0114339Y0061861D02*
X0114339Y0064020D01*
X0114339Y0065486D02*
X0114339Y0066566D01*
X0114339Y0066026D02*
X0111099Y0066026D01*
X0111099Y0065486D02*
X0111099Y0066566D01*
X0111099Y0067903D02*
X0113259Y0067903D01*
X0114339Y0068982D01*
X0113259Y0070062D01*
X0111099Y0070062D01*
X0111099Y0071528D02*
X0114339Y0071528D01*
X0114339Y0073688D01*
X0114339Y0075153D02*
X0111099Y0075153D01*
X0111099Y0076773D01*
X0111639Y0077313D01*
X0112719Y0077313D01*
X0113259Y0076773D01*
X0113259Y0075153D01*
X0113259Y0076233D02*
X0114339Y0077313D01*
X0111099Y0073688D02*
X0111099Y0071528D01*
X0112719Y0071528D02*
X0112719Y0072608D01*
X0117005Y0070731D02*
X0117005Y0069111D01*
X0120244Y0069111D01*
X0120244Y0070731D01*
X0119705Y0071271D01*
X0117545Y0071271D01*
X0117005Y0070731D01*
X0117545Y0067646D02*
X0118625Y0067646D01*
X0119165Y0067106D01*
X0119165Y0065486D01*
X0120244Y0065486D02*
X0117005Y0065486D01*
X0117005Y0067106D01*
X0117545Y0067646D01*
X0119165Y0066566D02*
X0120244Y0067646D01*
X0122910Y0065293D02*
X0123450Y0065833D01*
X0125610Y0065833D01*
X0126150Y0065293D01*
X0126150Y0063673D01*
X0122910Y0063673D01*
X0122910Y0065293D01*
X0120244Y0064020D02*
X0118085Y0064020D01*
X0117005Y0062941D01*
X0118085Y0061861D01*
X0120244Y0061861D01*
X0118625Y0061861D02*
X0118625Y0064020D01*
X0119705Y0060395D02*
X0117545Y0060395D01*
X0117005Y0059855D01*
X0117005Y0058775D01*
X0117545Y0058236D01*
X0119705Y0058236D01*
X0120244Y0058775D01*
X0120244Y0059855D01*
X0119705Y0060395D01*
X0122910Y0060048D02*
X0126150Y0060048D01*
X0126150Y0062208D01*
X0120244Y0056230D02*
X0119705Y0056770D01*
X0119165Y0056770D01*
X0118625Y0056230D01*
X0118625Y0054610D01*
X0120244Y0054610D02*
X0117005Y0054610D01*
X0117005Y0056230D01*
X0117545Y0056770D01*
X0118085Y0056770D01*
X0118625Y0056230D01*
X0120244Y0056230D02*
X0120244Y0054610D01*
X0122910Y0053878D02*
X0126150Y0053878D01*
X0126150Y0052798D02*
X0126150Y0054958D01*
X0123990Y0052798D02*
X0122910Y0053878D01*
X0123450Y0051333D02*
X0125610Y0049173D01*
X0126150Y0049713D01*
X0126150Y0050793D01*
X0125610Y0051333D01*
X0123450Y0051333D01*
X0122910Y0050793D01*
X0122910Y0049713D01*
X0123450Y0049173D01*
X0125610Y0049173D01*
X0125610Y0047900D02*
X0126150Y0047900D01*
X0126150Y0047360D01*
X0125610Y0047360D01*
X0125610Y0047900D01*
X0126150Y0045895D02*
X0126150Y0043735D01*
X0126150Y0044815D02*
X0122910Y0044815D01*
X0123990Y0043735D01*
X0125070Y0042270D02*
X0122910Y0042270D01*
X0125070Y0042270D02*
X0126150Y0041190D01*
X0125070Y0040110D01*
X0122910Y0040110D01*
X0118625Y0043735D02*
X0118625Y0044815D01*
X0117005Y0045895D02*
X0117005Y0043735D01*
X0117005Y0047360D02*
X0119165Y0047360D01*
X0114339Y0050985D02*
X0111099Y0050985D01*
X0106814Y0050985D02*
X0106814Y0053145D01*
X0106814Y0054610D02*
X0106814Y0056230D01*
X0107354Y0056770D01*
X0107894Y0056770D01*
X0108433Y0056230D01*
X0108433Y0054610D01*
X0105194Y0054610D01*
X0105194Y0056230D01*
X0105734Y0056770D01*
X0106274Y0056770D01*
X0106814Y0056230D01*
X0107894Y0058236D02*
X0105194Y0058236D01*
X0105194Y0060395D02*
X0107894Y0060395D01*
X0108433Y0059855D01*
X0108433Y0058775D01*
X0107894Y0058236D01*
X0111099Y0058775D02*
X0111099Y0059855D01*
X0111639Y0060395D01*
X0111099Y0058775D02*
X0111639Y0058236D01*
X0107894Y0061861D02*
X0108433Y0062401D01*
X0108433Y0063481D01*
X0107894Y0064020D01*
X0107354Y0064020D01*
X0106814Y0063481D01*
X0106814Y0062401D01*
X0106274Y0061861D01*
X0105734Y0061861D01*
X0105194Y0062401D01*
X0105194Y0063481D01*
X0105734Y0064020D01*
X0111099Y0042270D02*
X0111099Y0040110D01*
D12*
X0114800Y0038029D02*
X0114478Y0034853D01*
X0113411Y0034512D01*
X0112414Y0033998D01*
X0109940Y0036016D01*
X0108244Y0034320D01*
X0110261Y0031846D01*
X0109748Y0030849D01*
X0109407Y0029782D01*
X0106231Y0029459D01*
X0106231Y0027060D01*
X0109407Y0026738D01*
X0109748Y0025670D01*
X0110261Y0024674D01*
X0108244Y0022200D01*
X0109940Y0020504D01*
X0112414Y0022521D01*
X0113411Y0022008D01*
X0114478Y0021667D01*
X0114800Y0018491D01*
X0117200Y0018491D01*
X0117522Y0021667D01*
X0118589Y0022008D01*
X0119586Y0022521D01*
X0122060Y0020504D01*
X0123756Y0022200D01*
X0121739Y0024674D01*
X0122252Y0025670D01*
X0118842Y0027083D01*
X0118558Y0026551D01*
X0118175Y0026085D01*
X0117709Y0025702D01*
X0117177Y0025418D01*
X0116600Y0025243D01*
X0116000Y0025184D01*
X0115372Y0025249D01*
X0114770Y0025441D01*
X0114220Y0025751D01*
X0113745Y0026168D01*
X0113365Y0026672D01*
X0113097Y0027244D01*
X0112950Y0027858D01*
X0112933Y0028490D01*
X0113044Y0029111D01*
X0113280Y0029697D01*
X0113631Y0030222D01*
X0114082Y0030665D01*
X0114614Y0031006D01*
X0115204Y0031231D01*
X0115827Y0031331D01*
X0116458Y0031301D01*
X0117070Y0031144D01*
X0117636Y0030864D01*
X0118134Y0030475D01*
X0118541Y0029993D01*
X0118842Y0029437D01*
X0122252Y0030850D01*
X0121739Y0031846D01*
X0123756Y0034320D01*
X0122060Y0036016D01*
X0119586Y0033998D01*
X0118589Y0034512D01*
X0117522Y0034853D01*
X0117200Y0038029D01*
X0114800Y0038029D01*
X0114789Y0037918D02*
X0117211Y0037918D01*
X0117241Y0037620D02*
X0114759Y0037620D01*
X0114729Y0037321D02*
X0117271Y0037321D01*
X0117302Y0037023D02*
X0114698Y0037023D01*
X0114668Y0036724D02*
X0117332Y0036724D01*
X0117362Y0036426D02*
X0114638Y0036426D01*
X0114607Y0036127D02*
X0117393Y0036127D01*
X0117423Y0035829D02*
X0114577Y0035829D01*
X0114547Y0035530D02*
X0117453Y0035530D01*
X0117484Y0035232D02*
X0114516Y0035232D01*
X0114486Y0034933D02*
X0117514Y0034933D01*
X0118204Y0034635D02*
X0113796Y0034635D01*
X0113070Y0034336D02*
X0118930Y0034336D01*
X0119509Y0034038D02*
X0112491Y0034038D01*
X0112366Y0034038D02*
X0108474Y0034038D01*
X0108261Y0034336D02*
X0112000Y0034336D01*
X0111634Y0034635D02*
X0108559Y0034635D01*
X0108858Y0034933D02*
X0111268Y0034933D01*
X0110902Y0035232D02*
X0109156Y0035232D01*
X0109455Y0035530D02*
X0110536Y0035530D01*
X0110169Y0035829D02*
X0109753Y0035829D01*
X0108717Y0033739D02*
X0123283Y0033739D01*
X0123526Y0034038D02*
X0119634Y0034038D01*
X0120000Y0034336D02*
X0123739Y0034336D01*
X0123441Y0034635D02*
X0120366Y0034635D01*
X0120732Y0034933D02*
X0123142Y0034933D01*
X0122844Y0035232D02*
X0121098Y0035232D01*
X0121464Y0035530D02*
X0122545Y0035530D01*
X0122247Y0035829D02*
X0121831Y0035829D01*
X0123039Y0033441D02*
X0108961Y0033441D01*
X0109204Y0033142D02*
X0122796Y0033142D01*
X0122552Y0032844D02*
X0109448Y0032844D01*
X0109691Y0032545D02*
X0122309Y0032545D01*
X0122066Y0032247D02*
X0109934Y0032247D01*
X0110178Y0031948D02*
X0121822Y0031948D01*
X0121840Y0031650D02*
X0110160Y0031650D01*
X0110007Y0031351D02*
X0121993Y0031351D01*
X0122147Y0031053D02*
X0117254Y0031053D01*
X0117777Y0030754D02*
X0122021Y0030754D01*
X0121301Y0030456D02*
X0118150Y0030456D01*
X0118402Y0030157D02*
X0120580Y0030157D01*
X0119859Y0029859D02*
X0118614Y0029859D01*
X0118775Y0029560D02*
X0119139Y0029560D01*
X0114737Y0031053D02*
X0109853Y0031053D01*
X0109718Y0030754D02*
X0114222Y0030754D01*
X0113869Y0030456D02*
X0109622Y0030456D01*
X0109527Y0030157D02*
X0113588Y0030157D01*
X0113388Y0029859D02*
X0109431Y0029859D01*
X0107222Y0029560D02*
X0113225Y0029560D01*
X0113105Y0029262D02*
X0106231Y0029262D01*
X0106231Y0028963D02*
X0113018Y0028963D01*
X0112964Y0028665D02*
X0106231Y0028665D01*
X0106231Y0028366D02*
X0112936Y0028366D01*
X0112945Y0028068D02*
X0106231Y0028068D01*
X0106231Y0027769D02*
X0112972Y0027769D01*
X0113043Y0027470D02*
X0106231Y0027470D01*
X0106231Y0027172D02*
X0113130Y0027172D01*
X0113271Y0026873D02*
X0108070Y0026873D01*
X0109459Y0026575D02*
X0113439Y0026575D01*
X0113663Y0026276D02*
X0109554Y0026276D01*
X0109650Y0025978D02*
X0113962Y0025978D01*
X0114347Y0025679D02*
X0109745Y0025679D01*
X0109897Y0025381D02*
X0114957Y0025381D01*
X0117055Y0025381D02*
X0122103Y0025381D01*
X0122229Y0025679D02*
X0117666Y0025679D01*
X0118045Y0025978D02*
X0121509Y0025978D01*
X0120788Y0026276D02*
X0118332Y0026276D01*
X0118570Y0026575D02*
X0120067Y0026575D01*
X0119347Y0026873D02*
X0118730Y0026873D01*
X0121949Y0025082D02*
X0110051Y0025082D01*
X0110205Y0024784D02*
X0121795Y0024784D01*
X0121892Y0024485D02*
X0110108Y0024485D01*
X0109864Y0024187D02*
X0122136Y0024187D01*
X0122379Y0023888D02*
X0109621Y0023888D01*
X0109377Y0023590D02*
X0122623Y0023590D01*
X0122866Y0023291D02*
X0109134Y0023291D01*
X0108891Y0022993D02*
X0123109Y0022993D01*
X0123353Y0022694D02*
X0108647Y0022694D01*
X0108404Y0022396D02*
X0112260Y0022396D01*
X0112658Y0022396D02*
X0119342Y0022396D01*
X0119740Y0022396D02*
X0123596Y0022396D01*
X0123653Y0022097D02*
X0120106Y0022097D01*
X0120472Y0021799D02*
X0123355Y0021799D01*
X0123056Y0021500D02*
X0120838Y0021500D01*
X0121204Y0021202D02*
X0122758Y0021202D01*
X0122459Y0020903D02*
X0121570Y0020903D01*
X0121936Y0020605D02*
X0122161Y0020605D01*
X0118763Y0022097D02*
X0113237Y0022097D01*
X0114065Y0021799D02*
X0117935Y0021799D01*
X0117505Y0021500D02*
X0114495Y0021500D01*
X0114525Y0021202D02*
X0117475Y0021202D01*
X0117445Y0020903D02*
X0114555Y0020903D01*
X0114586Y0020605D02*
X0117414Y0020605D01*
X0117384Y0020306D02*
X0114616Y0020306D01*
X0114646Y0020008D02*
X0117354Y0020008D01*
X0117323Y0019709D02*
X0114677Y0019709D01*
X0114707Y0019411D02*
X0117293Y0019411D01*
X0117263Y0019112D02*
X0114737Y0019112D01*
X0114768Y0018814D02*
X0117232Y0018814D01*
X0117202Y0018515D02*
X0114798Y0018515D01*
X0110796Y0021202D02*
X0109242Y0021202D01*
X0108944Y0021500D02*
X0111162Y0021500D01*
X0111528Y0021799D02*
X0108645Y0021799D01*
X0108347Y0022097D02*
X0111894Y0022097D01*
X0110430Y0020903D02*
X0109541Y0020903D01*
X0109839Y0020605D02*
X0110064Y0020605D01*
M02*
