G75*
%MOIN*%
%OFA0B0*%
%FSLAX25Y25*%
%IPPOS*%
%LPD*%
%AMOC8*
5,1,8,0,0,1.08239X$1,22.5*
%
%ADD10C,0.00800*%
D10*
X0007902Y0004101D02*
X0008602Y0003400D01*
X0010003Y0003400D01*
X0010704Y0004101D01*
X0012505Y0004101D02*
X0013206Y0003400D01*
X0014607Y0003400D01*
X0015308Y0004101D01*
X0015308Y0006903D01*
X0014607Y0007604D01*
X0013206Y0007604D01*
X0012505Y0006903D01*
X0010704Y0006903D02*
X0010003Y0007604D01*
X0008602Y0007604D01*
X0007902Y0006903D01*
X0007902Y0006202D01*
X0008602Y0005502D01*
X0007902Y0004801D01*
X0007902Y0004101D01*
X0008602Y0005502D02*
X0009303Y0005502D01*
X0008000Y0018000D02*
X0008000Y0023000D01*
X0015000Y0023000D02*
X0015000Y0018000D01*
X0032902Y0022341D02*
X0033602Y0021640D01*
X0035003Y0021640D01*
X0035704Y0022341D01*
X0032902Y0025143D01*
X0032902Y0022341D01*
X0035704Y0022341D02*
X0035704Y0025143D01*
X0035003Y0025844D01*
X0033602Y0025844D01*
X0032902Y0025143D01*
X0037505Y0021640D02*
X0040308Y0021640D01*
X0038907Y0021640D02*
X0038907Y0025844D01*
X0040308Y0024443D01*
X0042109Y0025143D02*
X0042109Y0023742D01*
X0042810Y0023041D01*
X0044912Y0023041D01*
X0043511Y0023041D02*
X0042109Y0021640D01*
X0044912Y0021640D02*
X0044912Y0025844D01*
X0042810Y0025844D01*
X0042109Y0025143D01*
X0041500Y0029240D02*
X0036500Y0029240D01*
X0036500Y0036240D02*
X0041500Y0036240D01*
X0049000Y0047490D02*
X0029000Y0047490D01*
X0029000Y0062990D01*
X0049000Y0062990D01*
X0049000Y0057990D01*
X0048896Y0057988D01*
X0048792Y0057982D01*
X0048688Y0057972D01*
X0048585Y0057959D01*
X0048483Y0057941D01*
X0048381Y0057919D01*
X0048280Y0057894D01*
X0048180Y0057865D01*
X0048081Y0057832D01*
X0047984Y0057795D01*
X0047888Y0057755D01*
X0047793Y0057711D01*
X0047701Y0057664D01*
X0047610Y0057613D01*
X0047521Y0057559D01*
X0047435Y0057501D01*
X0047350Y0057440D01*
X0047268Y0057376D01*
X0047188Y0057309D01*
X0047111Y0057239D01*
X0047037Y0057166D01*
X0046966Y0057090D01*
X0046897Y0057012D01*
X0046832Y0056931D01*
X0046769Y0056848D01*
X0046710Y0056762D01*
X0046654Y0056675D01*
X0046601Y0056585D01*
X0046552Y0056493D01*
X0046506Y0056400D01*
X0046464Y0056304D01*
X0046426Y0056208D01*
X0046391Y0056110D01*
X0046360Y0056010D01*
X0046333Y0055910D01*
X0046309Y0055808D01*
X0046290Y0055706D01*
X0046274Y0055603D01*
X0046262Y0055500D01*
X0046254Y0055396D01*
X0046250Y0055292D01*
X0046250Y0055188D01*
X0046254Y0055084D01*
X0046262Y0054980D01*
X0046274Y0054877D01*
X0046290Y0054774D01*
X0046309Y0054672D01*
X0046333Y0054570D01*
X0046360Y0054470D01*
X0046391Y0054370D01*
X0046426Y0054272D01*
X0046464Y0054176D01*
X0046506Y0054080D01*
X0046552Y0053987D01*
X0046601Y0053895D01*
X0046654Y0053805D01*
X0046710Y0053718D01*
X0046769Y0053632D01*
X0046832Y0053549D01*
X0046897Y0053468D01*
X0046966Y0053390D01*
X0047037Y0053314D01*
X0047111Y0053241D01*
X0047188Y0053171D01*
X0047268Y0053104D01*
X0047350Y0053040D01*
X0047435Y0052979D01*
X0047521Y0052921D01*
X0047610Y0052867D01*
X0047701Y0052816D01*
X0047793Y0052769D01*
X0047888Y0052725D01*
X0047984Y0052685D01*
X0048081Y0052648D01*
X0048180Y0052615D01*
X0048280Y0052586D01*
X0048381Y0052561D01*
X0048483Y0052539D01*
X0048585Y0052521D01*
X0048688Y0052508D01*
X0048792Y0052498D01*
X0048896Y0052492D01*
X0049000Y0052490D01*
X0049000Y0047490D01*
X0043086Y0050740D02*
X0043088Y0050815D01*
X0043094Y0050889D01*
X0043104Y0050963D01*
X0043117Y0051036D01*
X0043135Y0051109D01*
X0043156Y0051180D01*
X0043181Y0051251D01*
X0043210Y0051320D01*
X0043243Y0051387D01*
X0043279Y0051452D01*
X0043318Y0051516D01*
X0043360Y0051577D01*
X0043406Y0051636D01*
X0043455Y0051693D01*
X0043507Y0051746D01*
X0043561Y0051797D01*
X0043618Y0051846D01*
X0043678Y0051890D01*
X0043740Y0051932D01*
X0043804Y0051971D01*
X0043870Y0052006D01*
X0043937Y0052037D01*
X0044007Y0052065D01*
X0044077Y0052089D01*
X0044149Y0052110D01*
X0044222Y0052126D01*
X0044295Y0052139D01*
X0044370Y0052148D01*
X0044444Y0052153D01*
X0044519Y0052154D01*
X0044593Y0052151D01*
X0044668Y0052144D01*
X0044741Y0052133D01*
X0044815Y0052119D01*
X0044887Y0052100D01*
X0044958Y0052078D01*
X0045028Y0052052D01*
X0045097Y0052022D01*
X0045163Y0051989D01*
X0045228Y0051952D01*
X0045291Y0051912D01*
X0045352Y0051868D01*
X0045410Y0051822D01*
X0045466Y0051772D01*
X0045519Y0051720D01*
X0045570Y0051665D01*
X0045617Y0051607D01*
X0045661Y0051547D01*
X0045702Y0051484D01*
X0045740Y0051420D01*
X0045774Y0051354D01*
X0045805Y0051285D01*
X0045832Y0051216D01*
X0045855Y0051145D01*
X0045874Y0051073D01*
X0045890Y0051000D01*
X0045902Y0050926D01*
X0045910Y0050852D01*
X0045914Y0050777D01*
X0045914Y0050703D01*
X0045910Y0050628D01*
X0045902Y0050554D01*
X0045890Y0050480D01*
X0045874Y0050407D01*
X0045855Y0050335D01*
X0045832Y0050264D01*
X0045805Y0050195D01*
X0045774Y0050126D01*
X0045740Y0050060D01*
X0045702Y0049996D01*
X0045661Y0049933D01*
X0045617Y0049873D01*
X0045570Y0049815D01*
X0045519Y0049760D01*
X0045466Y0049708D01*
X0045410Y0049658D01*
X0045352Y0049612D01*
X0045291Y0049568D01*
X0045228Y0049528D01*
X0045163Y0049491D01*
X0045097Y0049458D01*
X0045028Y0049428D01*
X0044958Y0049402D01*
X0044887Y0049380D01*
X0044815Y0049361D01*
X0044741Y0049347D01*
X0044668Y0049336D01*
X0044593Y0049329D01*
X0044519Y0049326D01*
X0044444Y0049327D01*
X0044370Y0049332D01*
X0044295Y0049341D01*
X0044222Y0049354D01*
X0044149Y0049370D01*
X0044077Y0049391D01*
X0044007Y0049415D01*
X0043937Y0049443D01*
X0043870Y0049474D01*
X0043804Y0049509D01*
X0043740Y0049548D01*
X0043678Y0049590D01*
X0043618Y0049634D01*
X0043561Y0049683D01*
X0043507Y0049734D01*
X0043455Y0049787D01*
X0043406Y0049844D01*
X0043360Y0049903D01*
X0043318Y0049964D01*
X0043279Y0050028D01*
X0043243Y0050093D01*
X0043210Y0050160D01*
X0043181Y0050229D01*
X0043156Y0050300D01*
X0043135Y0050371D01*
X0043117Y0050444D01*
X0043104Y0050517D01*
X0043094Y0050591D01*
X0043088Y0050665D01*
X0043086Y0050740D01*
X0053000Y0052740D02*
X0053000Y0057740D01*
X0060000Y0057740D02*
X0060000Y0052740D01*
X0071900Y0052341D02*
X0072601Y0051640D01*
X0076104Y0051640D01*
X0076104Y0054443D02*
X0072601Y0054443D01*
X0071900Y0053742D01*
X0071900Y0052341D01*
X0071900Y0056244D02*
X0071900Y0059046D01*
X0071900Y0057645D02*
X0076104Y0057645D01*
X0074702Y0056244D01*
X0079000Y0062990D02*
X0079000Y0047490D01*
X0099000Y0047490D01*
X0099000Y0052490D01*
X0098896Y0052492D01*
X0098792Y0052498D01*
X0098688Y0052508D01*
X0098585Y0052521D01*
X0098483Y0052539D01*
X0098381Y0052561D01*
X0098280Y0052586D01*
X0098180Y0052615D01*
X0098081Y0052648D01*
X0097984Y0052685D01*
X0097888Y0052725D01*
X0097793Y0052769D01*
X0097701Y0052816D01*
X0097610Y0052867D01*
X0097521Y0052921D01*
X0097435Y0052979D01*
X0097350Y0053040D01*
X0097268Y0053104D01*
X0097188Y0053171D01*
X0097111Y0053241D01*
X0097037Y0053314D01*
X0096966Y0053390D01*
X0096897Y0053468D01*
X0096832Y0053549D01*
X0096769Y0053632D01*
X0096710Y0053718D01*
X0096654Y0053805D01*
X0096601Y0053895D01*
X0096552Y0053987D01*
X0096506Y0054080D01*
X0096464Y0054176D01*
X0096426Y0054272D01*
X0096391Y0054370D01*
X0096360Y0054470D01*
X0096333Y0054570D01*
X0096309Y0054672D01*
X0096290Y0054774D01*
X0096274Y0054877D01*
X0096262Y0054980D01*
X0096254Y0055084D01*
X0096250Y0055188D01*
X0096250Y0055292D01*
X0096254Y0055396D01*
X0096262Y0055500D01*
X0096274Y0055603D01*
X0096290Y0055706D01*
X0096309Y0055808D01*
X0096333Y0055910D01*
X0096360Y0056010D01*
X0096391Y0056110D01*
X0096426Y0056208D01*
X0096464Y0056304D01*
X0096506Y0056400D01*
X0096552Y0056493D01*
X0096601Y0056585D01*
X0096654Y0056675D01*
X0096710Y0056762D01*
X0096769Y0056848D01*
X0096832Y0056931D01*
X0096897Y0057012D01*
X0096966Y0057090D01*
X0097037Y0057166D01*
X0097111Y0057239D01*
X0097188Y0057309D01*
X0097268Y0057376D01*
X0097350Y0057440D01*
X0097435Y0057501D01*
X0097521Y0057559D01*
X0097610Y0057613D01*
X0097701Y0057664D01*
X0097793Y0057711D01*
X0097888Y0057755D01*
X0097984Y0057795D01*
X0098081Y0057832D01*
X0098180Y0057865D01*
X0098280Y0057894D01*
X0098381Y0057919D01*
X0098483Y0057941D01*
X0098585Y0057959D01*
X0098688Y0057972D01*
X0098792Y0057982D01*
X0098896Y0057988D01*
X0099000Y0057990D01*
X0099000Y0062990D01*
X0079000Y0062990D01*
X0060100Y0068841D02*
X0059399Y0068140D01*
X0057998Y0068140D01*
X0057298Y0068841D01*
X0055496Y0068140D02*
X0052694Y0068140D01*
X0054095Y0068140D02*
X0054095Y0072344D01*
X0055496Y0070943D01*
X0057298Y0071643D02*
X0057998Y0072344D01*
X0059399Y0072344D01*
X0060100Y0071643D01*
X0060100Y0068841D01*
X0026104Y0058346D02*
X0026104Y0056945D01*
X0025403Y0056244D01*
X0026104Y0054443D02*
X0022601Y0054443D01*
X0021900Y0053742D01*
X0021900Y0052341D01*
X0022601Y0051640D01*
X0026104Y0051640D01*
X0021900Y0056244D02*
X0024702Y0059046D01*
X0025403Y0059046D01*
X0026104Y0058346D01*
X0021900Y0059046D02*
X0021900Y0056244D01*
X0015000Y0059000D02*
X0015000Y0064000D01*
X0008000Y0064000D02*
X0008000Y0059000D01*
X0007694Y0074400D02*
X0010496Y0074400D01*
X0007694Y0077202D01*
X0007694Y0077903D01*
X0008394Y0078604D01*
X0009795Y0078604D01*
X0010496Y0077903D01*
X0012298Y0077903D02*
X0012998Y0078604D01*
X0014399Y0078604D01*
X0015100Y0077903D01*
X0015100Y0075101D01*
X0014399Y0074400D01*
X0012998Y0074400D01*
X0012298Y0075101D01*
X0068194Y0034863D02*
X0068194Y0034163D01*
X0070996Y0031360D01*
X0070996Y0030660D01*
X0072798Y0030660D02*
X0074199Y0032061D01*
X0073498Y0032061D02*
X0075600Y0032061D01*
X0073498Y0032061D02*
X0072798Y0032762D01*
X0072798Y0034163D01*
X0073498Y0034863D01*
X0075600Y0034863D01*
X0075600Y0030660D01*
X0070996Y0034863D02*
X0068194Y0034863D01*
X0068194Y0025363D02*
X0069595Y0024663D01*
X0070996Y0023262D01*
X0068894Y0023262D01*
X0068194Y0022561D01*
X0068194Y0021860D01*
X0068894Y0021160D01*
X0070295Y0021160D01*
X0070996Y0021860D01*
X0070996Y0023262D01*
X0072798Y0023262D02*
X0073498Y0022561D01*
X0075600Y0022561D01*
X0074199Y0022561D02*
X0072798Y0021160D01*
X0075600Y0021160D02*
X0075600Y0025363D01*
X0073498Y0025363D01*
X0072798Y0024663D01*
X0072798Y0023262D01*
X0086500Y0026240D02*
X0091500Y0026240D01*
X0091500Y0029240D02*
X0086500Y0029240D01*
X0086500Y0036240D02*
X0091500Y0036240D01*
X0109400Y0037066D02*
X0109400Y0034264D01*
X0112202Y0037066D01*
X0112903Y0037066D01*
X0113604Y0036366D01*
X0113604Y0034964D01*
X0112903Y0034264D01*
X0112903Y0032462D02*
X0110101Y0032462D01*
X0109400Y0031762D01*
X0109400Y0029660D01*
X0113604Y0029660D01*
X0113604Y0031762D01*
X0112903Y0032462D01*
X0119400Y0031742D02*
X0119400Y0029640D01*
X0123604Y0029640D01*
X0123604Y0031742D01*
X0122903Y0032443D01*
X0120101Y0032443D01*
X0119400Y0031742D01*
X0119400Y0034244D02*
X0119400Y0037046D01*
X0119400Y0035645D02*
X0123604Y0035645D01*
X0122202Y0034244D01*
X0125000Y0019240D02*
X0125000Y0014240D01*
X0123362Y0015559D02*
X0119638Y0015559D01*
X0121500Y0017921D01*
X0123362Y0015559D01*
X0123456Y0017921D02*
X0121500Y0017921D01*
X0119544Y0017921D01*
X0118000Y0019240D02*
X0118000Y0014240D01*
X0115000Y0014260D02*
X0115000Y0019260D01*
X0113456Y0017941D02*
X0111500Y0017941D01*
X0109638Y0015579D01*
X0113362Y0015579D01*
X0111500Y0017941D01*
X0109544Y0017941D01*
X0108000Y0019260D02*
X0108000Y0014260D01*
X0091500Y0019240D02*
X0086500Y0019240D01*
X0093086Y0050740D02*
X0093088Y0050815D01*
X0093094Y0050889D01*
X0093104Y0050963D01*
X0093117Y0051036D01*
X0093135Y0051109D01*
X0093156Y0051180D01*
X0093181Y0051251D01*
X0093210Y0051320D01*
X0093243Y0051387D01*
X0093279Y0051452D01*
X0093318Y0051516D01*
X0093360Y0051577D01*
X0093406Y0051636D01*
X0093455Y0051693D01*
X0093507Y0051746D01*
X0093561Y0051797D01*
X0093618Y0051846D01*
X0093678Y0051890D01*
X0093740Y0051932D01*
X0093804Y0051971D01*
X0093870Y0052006D01*
X0093937Y0052037D01*
X0094007Y0052065D01*
X0094077Y0052089D01*
X0094149Y0052110D01*
X0094222Y0052126D01*
X0094295Y0052139D01*
X0094370Y0052148D01*
X0094444Y0052153D01*
X0094519Y0052154D01*
X0094593Y0052151D01*
X0094668Y0052144D01*
X0094741Y0052133D01*
X0094815Y0052119D01*
X0094887Y0052100D01*
X0094958Y0052078D01*
X0095028Y0052052D01*
X0095097Y0052022D01*
X0095163Y0051989D01*
X0095228Y0051952D01*
X0095291Y0051912D01*
X0095352Y0051868D01*
X0095410Y0051822D01*
X0095466Y0051772D01*
X0095519Y0051720D01*
X0095570Y0051665D01*
X0095617Y0051607D01*
X0095661Y0051547D01*
X0095702Y0051484D01*
X0095740Y0051420D01*
X0095774Y0051354D01*
X0095805Y0051285D01*
X0095832Y0051216D01*
X0095855Y0051145D01*
X0095874Y0051073D01*
X0095890Y0051000D01*
X0095902Y0050926D01*
X0095910Y0050852D01*
X0095914Y0050777D01*
X0095914Y0050703D01*
X0095910Y0050628D01*
X0095902Y0050554D01*
X0095890Y0050480D01*
X0095874Y0050407D01*
X0095855Y0050335D01*
X0095832Y0050264D01*
X0095805Y0050195D01*
X0095774Y0050126D01*
X0095740Y0050060D01*
X0095702Y0049996D01*
X0095661Y0049933D01*
X0095617Y0049873D01*
X0095570Y0049815D01*
X0095519Y0049760D01*
X0095466Y0049708D01*
X0095410Y0049658D01*
X0095352Y0049612D01*
X0095291Y0049568D01*
X0095228Y0049528D01*
X0095163Y0049491D01*
X0095097Y0049458D01*
X0095028Y0049428D01*
X0094958Y0049402D01*
X0094887Y0049380D01*
X0094815Y0049361D01*
X0094741Y0049347D01*
X0094668Y0049336D01*
X0094593Y0049329D01*
X0094519Y0049326D01*
X0094444Y0049327D01*
X0094370Y0049332D01*
X0094295Y0049341D01*
X0094222Y0049354D01*
X0094149Y0049370D01*
X0094077Y0049391D01*
X0094007Y0049415D01*
X0093937Y0049443D01*
X0093870Y0049474D01*
X0093804Y0049509D01*
X0093740Y0049548D01*
X0093678Y0049590D01*
X0093618Y0049634D01*
X0093561Y0049683D01*
X0093507Y0049734D01*
X0093455Y0049787D01*
X0093406Y0049844D01*
X0093360Y0049903D01*
X0093318Y0049964D01*
X0093279Y0050028D01*
X0093243Y0050093D01*
X0093210Y0050160D01*
X0093181Y0050229D01*
X0093156Y0050300D01*
X0093135Y0050371D01*
X0093117Y0050444D01*
X0093104Y0050517D01*
X0093094Y0050591D01*
X0093088Y0050665D01*
X0093086Y0050740D01*
X0103400Y0052640D02*
X0105700Y0052640D01*
X0103400Y0052640D02*
X0103400Y0055540D01*
X0108500Y0057840D02*
X0109500Y0057840D01*
X0114600Y0055540D02*
X0114600Y0052640D01*
X0112300Y0052640D01*
X0112600Y0065640D02*
X0112600Y0069844D01*
X0109798Y0065640D01*
X0109798Y0069844D01*
X0107996Y0068443D02*
X0106595Y0069844D01*
X0106595Y0065640D01*
X0107996Y0065640D02*
X0105194Y0065640D01*
M02*
