<svg version="1.1" xmlns="http://www.w3.org/2000/svg" xmlns:xlink="http://www.w3.org/1999/xlink" stroke-linecap="round" stroke-linejoin="round" stroke-width="0" fill-rule="evenodd" clip-rule="evenodd" id="khKsiHHkkhVFdp_VWcmw_top" viewBox="15 15 1299.21 787.4" width="1.29921in" height="0.7874in" class="w-100 h-100"><defs><style>.khKsiHHkkhVFdp_VWcmw_fr4 {color: #666666;}
.khKsiHHkkhVFdp_VWcmw_cu {color: #cccccc;}
.khKsiHHkkhVFdp_VWcmw_cf {color: #cc9933;}
.khKsiHHkkhVFdp_VWcmw_sm {color: #004200; opacity: 0.75;}
.khKsiHHkkhVFdp_VWcmw_ss {color: #ffffff;}
.khKsiHHkkhVFdp_VWcmw_sp {color: #999999;}
.khKsiHHkkhVFdp_VWcmw_out {color: #000000;}</style><rect x="-37.4" y="-37.4" width="74.8" height="74.8" id="SHAL-iIGYXSaeDlh7D92_pad-11"/><circle cx="0" cy="0" r="37.4" id="SHAL-iIGYXSaeDlh7D92_pad-12"/><circle cx="0" cy="0" r="18.7" id="SHAL-iIGYXSaeDlh7D92_pad-13"/><rect x="-41.4" y="-41.4" width="82.8" height="82.8" id="ttHKlOkeNwj4DTi3H7Nr_pad-11"/><circle cx="0" cy="0" r="41.4" id="ttHKlOkeNwj4DTi3H7Nr_pad-12"/><circle cx="0" cy="0" r="9.85" id="JKAA8iZZJaeVO-AB6rZY_pad-1"/><circle cx="0" cy="0" r="19.7" id="JKAA8iZZJaeVO-AB6rZY_pad-2"/><g id="khKsiHHkkhVFdp_VWcmw_top_silkscreen"><path d="M 49.45 54 63.46 54 70.46 61.01 70.46 96.04 M 88.48 82.02 102.49 96.04 116.5 82.02 116.5 54 M 134.52 54 134.52 96.04 155.54 96.04 162.54 89.03 162.54 75.02 155.54 68.01 134.52 68.01 M 148.53 68.01 162.54 54 M 194.57 54 194.57 96.04 M 180.56 96.04 208.58 96.04 M 208.58 119 180.56 119 M 194.57 119 194.57 161.04 180.56 147.02 M 162.54 161.04 148.53 161.04 M 155.54 161.04 155.54 126.01 148.53 119 141.53 119 134.52 126.01 M 88.48 82.02 88.48 54 M 88.48 75.02 116.5 75.02 M 49.45 54 42.44 61.01 42.44 96.04 M 240 52.4 240 152.4 340 152.4 340 127.4 365 152.4 415 152.4 440 127.4 465 152.4 515 152.4 540 127.4 565 152.4 615 152.4 640 127.4 640 77.4 615 52.4 565 52.4 540 77.4 540 127.4 M 540 77.4 515 52.4 465 52.4 440 77.4 440 127.4 M 440 77.4 415 52.4 365 52.4 340 77.4 340 52.4 240 52.4 M 340 77.4 340 127.4 M 303.99 181.4 275.97 181.4 268.96 188.41 268.96 202.42 275.97 209.43 M 289.98 209.43 289.98 195.41 M 303.99 181.4 311 188.41 311 202.42 303.99 209.43 289.98 209.43 M 268.96 227.44 311 255.46 268.96 255.46 M 268.96 273.48 268.96 294.5 275.97 301.5 303.99 301.5 311 294.5 311 273.48 268.96 273.48 M 240 293.7 190 293.7 165 318.7 140 293.7 90 293.7 65 318.7 65 368.7 90 393.7 140 393.7 165 368.7 190 393.7 240 393.7 265 368.7 265 318.7 240 293.7 M 165 318.7 165 368.7 M 140 423.7 90 423.7 65 448.7 65 498.7 90 523.7 140 523.7 165 498.7 190 523.7 240 523.7 265 498.7 265 448.7 240 423.7 190 423.7 165 448.7 140 423.7 M 165 448.7 165 498.7 M 131.06 547.7 131.06 589.74 110.04 568.72 138.06 568.72 M 92.02 589.74 78.01 589.74 M 85.02 589.74 85.02 554.71 78.01 547.7 71.01 547.7 64 554.71 M 289 429.74 317.02 429.74 M 303.01 429.74 303.01 387.7 M 335.04 387.7 356.06 387.7 363.06 394.71 363.06 401.71 356.06 408.72 335.04 408.72 M 356.06 408.72 363.06 415.72 363.06 422.73 356.06 429.74 335.04 429.74 335.04 387.7 M 381.08 387.7 409.1 387.7 M 427.12 387.7 427.12 429.74 455.14 387.7 455.14 429.74 M 409.1 429.74 381.08 429.74 381.08 387.7 M 381.08 408.72 395.09 408.72 M 411 310.46 368.96 282.44 M 368.96 264.43 368.96 236.4 M 368.96 250.41 411 250.41 M 411 282.44 368.96 310.46 M 468.96 310.46 511 282.44 M 511 264.43 496.99 250.41 M 496.99 257.42 496.99 236.4 M 511 236.4 468.96 236.4 468.96 257.42 475.97 264.43 489.98 264.43 496.99 257.42 M 468.96 282.44 511 310.46 M 568.96 301.5 596.99 301.5 611 287.49 596.99 273.48 568.96 273.48 M 568.96 255.46 568.96 227.44 589.98 227.44 582.98 241.45 582.98 248.46 589.98 255.46 603.99 255.46 611 248.46 611 234.45 603.99 227.44 M 589.98 209.43 589.98 181.4 M 575.97 195.41 603.99 195.41 M 505 200 490 215 475 200 M 490 215 490 180 M 405 195 390 180 375 195 M 390 180 390 215 M 311 227.44 268.96 227.44 M 138.06 229.71 131.06 222.7 117.05 222.7 110.04 229.71 M 124.05 243.72 131.06 243.72 138.06 236.71 138.06 229.71 M 131.06 243.72 138.06 250.72 138.06 257.73 131.06 264.74 117.05 264.74 110.04 257.73 M 92.02 264.74 78.01 264.74 M 85.02 264.74 85.02 229.71 78.01 222.7 71.01 222.7 64 229.71 M 305 527.4 305 577.4 M 375 577.4 375 527.4 M 405 527.4 405 577.4 M 475 577.4 475 527.4 M 505 527.4 505 577.4 M 575 577.4 575 527.4 M 605 527.4 605 577.4 M 675 577.4 675 527.4 M 705 527.4 705 577.4 M 775 577.4 775 527.4 M 805 527.4 805 577.4 M 875 577.4 875 527.4 M 905 527.4 905 577.4 M 975 577.4 975 527.4 M 961 676.6 918.96 676.6 918.96 697.62 925.97 704.62 939.98 704.62 946.99 697.62 946.99 676.6 M 946.99 690.61 961 704.62 M 953.99 722.64 961 729.64 961 743.66 953.99 750.66 925.97 750.66 918.96 743.66 918.96 729.64 925.97 722.64 932.98 722.64 939.98 729.64 939.98 750.66 M 861 743.66 861 729.64 853.99 722.64 846.99 722.64 839.98 729.64 839.98 743.66 846.99 750.66 853.99 750.66 861 743.66 M 839.98 743.66 832.98 750.66 825.97 750.66 818.96 743.66 818.96 729.64 825.97 722.64 832.98 722.64 839.98 729.64 M 839.98 704.62 825.97 704.62 818.96 697.62 818.96 676.6 861 676.6 M 846.99 676.6 846.99 697.62 839.98 704.62 M 846.99 690.61 861 704.62 M 761 704.62 746.99 690.61 M 746.99 697.62 746.99 676.6 M 761 676.6 718.96 676.6 718.96 697.62 725.97 704.62 739.98 704.62 746.99 697.62 M 753.99 722.64 761 729.64 761 743.66 753.99 750.66 739.98 750.66 732.98 743.66 732.98 736.65 739.98 722.64 718.96 722.64 718.96 750.66 M 661 743.66 661 729.64 653.99 722.64 M 661 704.62 646.99 690.61 M 646.99 697.62 646.99 676.6 M 661 676.6 618.96 676.6 618.96 697.62 625.97 704.62 639.98 704.62 646.99 697.62 M 625.97 722.64 618.96 729.64 618.96 743.66 625.97 750.66 632.98 750.66 639.98 743.66 646.99 750.66 653.99 750.66 661 743.66 M 639.98 743.66 639.98 736.65 M 561 736.65 518.96 736.65 532.98 722.64 M 525.97 704.62 539.98 704.62 546.99 697.62 546.99 676.6 M 561 676.6 518.96 676.6 518.96 697.62 525.97 704.62 M 546.99 690.61 561 704.62 M 561 722.64 561 750.66 M 461 750.66 461 722.64 432.98 750.66 425.97 750.66 418.96 743.66 418.96 729.64 425.97 722.64 M 425.97 704.62 439.98 704.62 446.99 697.62 446.99 676.6 M 461 676.6 418.96 676.6 418.96 697.62 425.97 704.62 M 446.99 690.61 461 704.62 M 361 704.62 346.99 690.61 M 346.99 697.62 346.99 676.6 M 361 676.6 318.96 676.6 318.96 697.62 325.97 704.62 339.98 704.62 346.99 697.62 M 339.98 722.64 339.98 750.66 M 318.96 743.66 339.98 722.64 M 361 743.66 318.96 743.66 M 789.98 347.54 789.98 319.52 M 775.97 301.5 768.96 294.5 768.96 273.48 811 273.48 811 294.5 803.99 301.5 775.97 301.5 M 775.97 255.46 768.96 248.46 768.96 234.45 775.97 227.44 803.99 227.44 811 234.45 811 248.46 803.99 255.46 M 868.96 248.46 868.96 234.45 875.97 227.44 903.99 227.44 911 234.45 911 248.46 903.99 255.46 M 911 273.48 911 294.5 903.99 301.5 875.97 301.5 868.96 294.5 868.96 273.48 911 273.48 M 875.97 255.46 868.96 248.46 M 875.97 209.43 868.96 202.42 868.96 188.41 875.97 181.4 903.99 181.4 911 188.41 911 202.42 903.99 209.43 M 968.96 202.42 968.96 188.41 975.97 181.4 1003.99 181.4 1011 188.41 1011 202.42 1003.99 209.43 989.98 209.43 989.98 195.41 M 975.97 209.43 968.96 202.42 M 968.96 227.44 1011 255.46 968.96 255.46 M 968.96 273.48 968.96 294.5 975.97 301.5 1003.99 301.5 1011 294.5 1011 273.48 968.96 273.48 M 968.96 227.44 1011 227.44 M 1085.41 161.04 1099.43 161.04 M 1092.42 161.04 1092.42 126.01 1085.41 119 1078.41 119 1071.4 126.01 M 1040 152.4 1040 52.4 940 52.4 940 77.4 915 52.4 865 52.4 840 77.4 815 52.4 765 52.4 740 77.4 740 127.4 765 152.4 815 152.4 840 127.4 840 77.4 M 840 127.4 865 152.4 915 152.4 940 127.4 940 152.4 1040 152.4 M 1117.44 154.03 1124.45 161.04 1138.46 161.04 1145.46 154.03 1145.46 147.02 1117.44 119 1145.46 119 M 1138.46 96.04 1117.44 96.04 1117.44 54 1138.46 54 1145.46 61.01 1145.46 68.01 1138.46 75.02 1117.44 75.02 M 1138.46 75.02 1145.46 82.02 1145.46 89.03 1138.46 96.04 M 1163.48 96.04 1184.5 96.04 1191.5 89.03 1191.5 61.01 1184.5 54 1163.48 54 1163.48 96.04 M 1099.43 89.03 1099.43 61.01 1092.42 54 1078.41 54 1071.4 61.01 1071.4 89.03 1078.41 96.04 1092.42 96.04 1099.43 89.03 M 940 77.4 940 127.4 M 811 188.41 811 202.42 803.99 209.43 M 811 188.41 803.99 181.4 775.97 181.4 768.96 188.41 768.96 202.42 775.97 209.43 M 889.98 319.52 889.98 347.54 M 875.97 333.53 903.99 333.53" fill="none" stroke-width="8"/><path d="M 1051.94 406.5 1051.94 417.3 1057.34 422.7 M 1057.34 437.35 1078.94 437.35 1084.33 442.75 1084.33 453.55 1078.94 458.95 M 1084.33 473.6 1084.33 489.8 1078.94 495.2 1057.34 495.2 1051.94 489.8 1051.94 473.6 1084.33 473.6 M 1110.99 484.4 1121.79 495.2 1143.39 495.2 M 1143.39 509.85 1110.99 509.85 1143.39 531.45 1110.99 531.45 M 1116.39 546.1 1121.79 546.1 1127.19 551.5 1127.19 562.3 1132.59 567.7 1137.99 567.7 1143.39 562.3 1143.39 551.5 1137.99 546.1 M 1116.39 546.1 1110.99 551.5 1110.99 562.3 1116.39 567.7 M 1116.39 582.36 1137.99 582.36 1143.39 587.75 1143.39 598.55 1137.99 603.95 M 1143.39 618.61 1110.99 618.61 1110.99 640.2 M 1127.19 629.41 1127.19 618.61 M 1143.39 618.61 1143.39 640.2 M 1143.39 654.86 1143.39 665.66 M 1143.39 660.26 1110.99 660.26 M 1110.99 654.86 1110.99 665.66 M 1110.99 679.03 1132.59 679.03 1143.39 689.82 1132.59 700.62 1110.99 700.62 M 1110.99 715.28 1143.39 715.28 1143.39 736.88 M 1143.39 751.53 1110.99 751.53 1110.99 767.73 1116.39 773.13 1127.19 773.13 1132.59 767.73 1132.59 751.53 M 1132.59 762.33 1143.39 773.13 M 1110.99 736.88 1110.99 715.28 M 1127.19 715.28 1127.19 726.08 M 1170.05 707.31 1170.05 691.11 1202.44 691.11 1202.44 707.31 1197.05 712.71 1175.45 712.71 1170.05 707.31 M 1175.45 676.46 1186.25 676.46 1191.65 671.06 1191.65 654.86 M 1202.44 654.86 1170.05 654.86 1170.05 671.06 1175.45 676.46 M 1191.65 665.66 1202.44 676.46 M 1229.1 652.93 1234.5 658.33 M 1229.1 652.93 1229.1 642.13 1234.5 636.73 1256.1 636.73 1261.5 642.13 1261.5 652.93 1256.1 658.33 M 1256.1 622.08 1261.5 616.68 1261.5 600.48 1229.1 600.48 1229.1 616.68 1234.5 622.08 1239.9 622.08 1245.3 616.68 1245.3 600.48 M 1245.3 616.68 1250.7 622.08 1256.1 622.08 M 1202.44 618.61 1180.85 618.61 1170.05 629.41 1180.85 640.2 1202.44 640.2 M 1186.25 640.2 1186.25 618.61 M 1197.05 603.95 1175.45 603.95 1170.05 598.55 1170.05 587.75 1175.45 582.36 1197.05 582.36 1202.44 587.75 1202.44 598.55 1197.05 603.95 M 1197.05 567.7 1191.65 567.7 1186.25 562.3 1186.25 546.1 M 1202.44 546.1 1170.05 546.1 1170.05 562.3 1175.45 567.7 1180.85 567.7 1186.25 562.3 M 1197.05 567.7 1202.44 562.3 1202.44 546.1 M 1229.1 544.18 1229.1 533.38 1234.5 527.98 M 1245.3 538.78 1245.3 544.18 1250.7 549.58 1256.1 549.58 1261.5 544.18 1261.5 533.38 1256.1 527.98 M 1256.1 513.33 1234.5 513.33 1256.1 491.73 1261.5 497.13 1261.5 507.93 1256.1 513.33 M 1234.5 513.33 1229.1 507.93 1229.1 497.13 1234.5 491.73 1256.1 491.73 M 1256.1 479 1261.5 479 1261.5 473.6 1256.1 473.6 1256.1 479 M 1261.5 458.95 1261.5 437.35 M 1261.5 448.15 1229.1 448.15 1239.9 437.35 M 1250.7 422.7 1229.1 422.7 M 1250.7 422.7 1261.5 411.9 1250.7 401.1 1229.1 401.1 M 1202.44 401.1 1202.44 417.3 1197.05 422.7 1175.45 422.7 1170.05 417.3 1170.05 401.1 1202.44 401.1 M 1202.44 437.35 1170.05 437.35 1170.05 458.95 M 1170.05 473.6 1191.65 473.6 1202.44 484.4 1191.65 495.2 1170.05 495.2 M 1143.39 473.6 1121.79 473.6 1110.99 484.4 M 1127.19 473.6 1127.19 495.2 M 1127.19 458.95 1116.39 458.95 1110.99 453.55 1110.99 437.35 1143.39 437.35 M 1132.59 437.35 1132.59 453.55 1127.19 458.95 M 1132.59 448.15 1143.39 458.95 M 1186.25 448.15 1186.25 437.35 M 1202.44 437.35 1202.44 458.95 M 1143.39 411.9 1110.99 411.9 M 1110.99 401.1 1110.99 422.7 M 1084.33 417.3 1084.33 406.5 1078.94 401.1 1057.34 401.1 1051.94 406.5 M 1078.94 422.7 1084.33 417.3 M 1057.34 437.35 1051.94 442.75 1051.94 453.55 1057.34 458.95 M 1068.14 509.85 1068.14 531.45 M 1068.14 546.1 1068.14 562.3 1073.54 567.7 1078.94 567.7 1084.33 562.3 1084.33 546.1 1051.94 546.1 1051.94 562.3 1057.34 567.7 1062.74 567.7 1068.14 562.3 M 1078.94 582.36 1051.94 582.36 M 1051.94 603.95 1078.94 603.95 1084.33 598.55 1084.33 587.75 1078.94 582.36 M 1110.99 587.75 1110.99 598.55 1116.39 603.95 M 1110.99 587.75 1116.39 582.36 M 1078.94 618.61 1084.33 624.01 1084.33 634.81 1078.94 640.2 1073.54 640.2 1068.14 634.81 1068.14 624.01 1062.74 618.61 1057.34 618.61 1051.94 624.01 1051.94 634.81 1057.34 640.2 M 1229.1 544.18 1234.5 549.58 1239.9 549.58 1245.3 544.18" fill="none" stroke-width="7"/><path d="M 1172 380.29 1148 380.29 1144.78 348.53 1134.11 345.12 1124.14 339.98 1099.4 360.16 1082.44 343.2 1102.61 318.46 1097.48 308.49 1094.07 297.82 1062.31 294.59 1062.31 270.6 1094.07 267.38 1097.48 256.7 1102.61 246.74 1082.44 222 1099.4 205.04 1124.14 225.21 1134.11 220.08 1144.78 216.67 1148 184.91 1172 184.91 1175.22 216.67 1185.89 220.08 1195.86 225.21 1220.6 205.04 1237.56 222 1217.39 246.74 1222.52 256.7 1188.42 270.83 1185.58 265.51 1181.75 260.85 1177.09 257.02 1171.77 254.18 1166 252.43 1160 251.84 1153.72 252.49 1147.7 254.41 1142.2 257.51 1137.45 261.68 1133.65 266.72 1130.97 272.44 1129.5 278.58 1129.33 284.9 1130.44 291.11 1132.8 296.97 1136.31 302.22 1140.82 306.65 1146.14 310.06 1152.04 312.31 1158.27 313.31 1164.58 313.01 1170.7 311.44 1176.36 308.64 1181.34 304.75 1185.41 299.93 1188.42 294.37 1222.52 308.5 1217.39 318.46 1237.56 343.2 1220.6 360.16 1195.86 339.98 1185.89 345.12 1175.22 348.53 1172 380.29 M 1172.11 379.18 1147.89 379.18 M 1147.59 376.2 1172.41 376.2 M 1172.71 373.21 1147.29 373.21 M 1146.98 370.23 1173.02 370.23 M 1173.32 367.24 1146.68 367.24 M 1146.38 364.26 1173.62 364.26 M 1173.93 361.27 1146.07 361.27 M 1145.77 358.29 1174.23 358.29 M 1174.53 355.3 1145.47 355.3 M 1145.16 352.32 1174.84 352.32 M 1175.14 349.33 1144.86 349.33 M 1137.96 346.35 1182.04 346.35 M 1189.3 343.36 1130.7 343.36 M 1124.91 340.38 1195.09 340.38 M 1196.34 340.38 1235.26 340.38 M 1237.39 343.36 1200 343.36 M 1203.66 346.35 1234.41 346.35 M 1231.42 349.33 1207.32 349.33 M 1210.98 352.32 1228.44 352.32 M 1225.45 355.3 1214.64 355.3 M 1218.31 358.29 1222.47 358.29 M 1232.83 337.39 1087.17 337.39 M 1084.74 340.38 1123.66 340.38 M 1120 343.36 1082.61 343.36 M 1085.59 346.35 1116.34 346.35 M 1112.68 349.33 1088.58 349.33 M 1091.56 352.32 1109.02 352.32 M 1105.36 355.3 1094.55 355.3 M 1097.53 358.29 1101.69 358.29 M 1089.61 334.41 1230.39 334.41 M 1227.96 331.42 1092.04 331.42 M 1094.48 328.44 1225.52 328.44 M 1223.09 325.45 1096.91 325.45 M 1099.34 322.47 1220.66 322.47 M 1218.22 319.48 1101.78 319.48 M 1101.6 316.5 1218.4 316.5 M 1219.93 313.51 1100.07 313.51 M 1098.53 310.53 1147.37 310.53 M 1142.22 307.54 1097.18 307.54 M 1096.22 304.56 1138.69 304.56 M 1135.88 301.57 1095.27 301.57 M 1094.31 298.59 1133.88 298.59 M 1132.25 295.6 1072.22 295.6 M 1062.31 292.62 1131.05 292.62 M 1130.18 289.63 1062.31 289.63 M 1062.31 286.65 1129.64 286.65 M 1129.36 283.66 1062.31 283.66 M 1062.31 280.68 1129.45 280.68 M 1129.72 277.69 1062.31 277.69 M 1062.31 274.7 1130.43 274.7 M 1131.3 271.72 1062.31 271.72 M 1080.7 268.73 1132.71 268.73 M 1134.39 265.75 1094.59 265.75 M 1095.54 262.76 1136.63 262.76 M 1139.62 259.78 1096.5 259.78 M 1097.45 256.79 1143.47 256.79 M 1149.57 253.81 1098.97 253.81 M 1100.51 250.82 1219.49 250.82 M 1217.95 247.84 1102.05 247.84 M 1101.08 244.85 1218.92 244.85 M 1221.36 241.87 1098.64 241.87 M 1096.21 238.88 1223.79 238.88 M 1226.23 235.9 1093.77 235.9 M 1091.34 232.91 1228.66 232.91 M 1231.09 229.93 1088.91 229.93 M 1086.47 226.94 1233.53 226.94 M 1235.96 223.96 1197.4 223.96 M 1193.42 223.96 1126.58 223.96 M 1122.6 223.96 1084.04 223.96 M 1083.47 220.97 1118.94 220.97 M 1115.28 217.99 1086.45 217.99 M 1089.44 215 1111.62 215 M 1107.96 212.02 1092.42 212.02 M 1095.41 209.03 1104.3 209.03 M 1100.64 206.05 1098.39 206.05 M 1132.37 220.97 1187.63 220.97 M 1179.35 217.99 1140.65 217.99 M 1144.95 215 1175.05 215 M 1174.75 212.02 1145.25 212.02 M 1145.55 209.03 1174.45 209.03 M 1174.14 206.05 1145.86 206.05 M 1146.16 203.06 1173.84 203.06 M 1173.54 200.08 1146.46 200.08 M 1146.77 197.09 1173.23 197.09 M 1172.93 194.11 1147.07 194.11 M 1147.37 191.12 1172.63 191.12 M 1172.32 188.14 1147.68 188.14 M 1147.98 185.15 1172.02 185.15 M 1212.04 212.02 1227.58 212.02 M 1230.56 215 1208.38 215 M 1204.72 217.99 1233.55 217.99 M 1236.53 220.97 1201.06 220.97 M 1215.7 209.03 1224.59 209.03 M 1221.61 206.05 1219.36 206.05 M 1221.03 253.81 1170.55 253.81 M 1176.66 256.79 1222.29 256.79 M 1215.09 259.78 1180.45 259.78 M 1183.32 262.76 1207.88 262.76 M 1200.67 265.75 1185.7 265.75 M 1187.3 268.73 1193.47 268.73 M 1191.39 295.6 1187.75 295.6 M 1186.14 298.59 1198.59 298.59 M 1205.8 301.57 1184.02 301.57 M 1181.5 304.56 1213.01 304.56 M 1220.21 307.54 1177.77 307.54 M 1172.54 310.53 1221.47 310.53" fill="none" stroke-width="3"/></g><g id="khKsiHHkkhVFdp_VWcmw_top_copper"><path d="M 304.76 458.52 304.76 509.32 375.24 509.32 375.24 458.52 304.76 458.52 M 304.76 466.78 375.24 466.78 M 375.24 475.04 304.76 475.04 M 304.76 483.3 375.24 483.3 M 375.24 491.56 304.76 491.56 M 304.76 499.82 375.24 499.82 M 375.24 508.08 304.76 508.08 M 404.76 509.32 404.76 458.52 M 404.76 509.32 475.24 509.32 475.24 458.52 404.76 458.52 M 404.76 466.78 475.24 466.78 M 475.24 475.04 404.76 475.04 M 404.76 483.3 475.24 483.3 M 475.24 491.56 404.76 491.56 M 404.76 499.82 475.24 499.82 M 475.24 508.08 404.76 508.08 M 504.76 509.32 504.76 458.52 M 504.76 509.32 575.24 509.32 575.24 458.52 504.76 458.52 M 504.76 466.78 575.24 466.78 M 575.24 475.04 504.76 475.04 M 504.76 483.3 575.24 483.3 M 575.24 491.56 504.76 491.56 M 504.76 499.82 575.24 499.82 M 575.24 508.08 504.76 508.08 M 604.76 509.32 604.76 458.52 M 604.76 509.32 675.24 509.32 675.24 458.52 604.76 458.52 M 604.76 466.78 675.24 466.78 M 675.24 475.04 604.76 475.04 M 604.76 483.3 675.24 483.3 M 675.24 491.56 604.76 491.56 M 604.76 499.82 675.24 499.82 M 675.24 508.08 604.76 508.08 M 775.24 509.32 775.24 458.52 704.76 458.52 704.76 509.32 775.24 509.32 M 775.24 466.78 704.76 466.78 M 704.76 475.04 775.24 475.04 M 775.24 483.3 704.76 483.3 M 704.76 491.56 775.24 491.56 M 775.24 499.82 704.76 499.82 M 704.76 508.08 775.24 508.08 M 875.24 509.32 875.24 458.52 804.76 458.52 804.76 509.32 875.24 509.32 M 875.24 466.78 804.76 466.78 M 804.76 475.04 875.24 475.04 M 875.24 483.3 804.76 483.3 M 804.76 491.56 875.24 491.56 M 875.24 499.82 804.76 499.82 M 804.76 508.08 875.24 508.08 M 975.24 509.32 975.24 458.52 904.76 458.52 904.76 509.32 975.24 509.32 M 975.24 466.78 904.76 466.78 M 904.76 475.04 975.24 475.04 M 975.24 483.3 904.76 483.3 M 904.76 491.56 975.24 491.56 M 975.24 499.82 904.76 499.82 M 904.76 508.08 975.24 508.08 M 975.24 595.49 975.24 646.29 M 975.24 595.49 904.76 595.49 904.76 646.29 975.24 646.29 M 975.24 603.75 904.76 603.75 M 904.76 612.01 975.24 612.01 M 975.24 620.27 904.76 620.27 M 904.76 628.53 975.24 628.53 M 975.24 636.79 904.76 636.79 M 904.76 645.05 975.24 645.05 M 875.24 646.29 875.24 595.49 804.76 595.49 804.76 646.29 875.24 646.29 M 875.24 603.75 804.76 603.75 M 804.76 612.01 875.24 612.01 M 875.24 620.27 804.76 620.27 M 804.76 628.53 875.24 628.53 M 875.24 636.79 804.76 636.79 M 804.76 645.05 875.24 645.05 M 775.24 646.29 775.24 595.49 704.76 595.49 704.76 646.29 775.24 646.29 M 775.24 603.75 704.76 603.75 M 704.76 612.01 775.24 612.01 M 775.24 620.27 704.76 620.27 M 704.76 628.53 775.24 628.53 M 775.24 636.79 704.76 636.79 M 704.76 645.05 775.24 645.05 M 604.76 646.29 604.76 595.49 M 604.76 646.29 675.24 646.29 675.24 595.49 604.76 595.49 M 604.76 603.75 675.24 603.75 M 675.24 612.01 604.76 612.01 M 604.76 620.27 675.24 620.27 M 675.24 628.53 604.76 628.53 M 604.76 636.79 675.24 636.79 M 675.24 645.05 604.76 645.05 M 504.76 646.29 504.76 595.49 M 504.76 646.29 575.24 646.29 575.24 595.49 504.76 595.49 M 504.76 603.75 575.24 603.75 M 575.24 612.01 504.76 612.01 M 504.76 620.27 575.24 620.27 M 575.24 628.53 504.76 628.53 M 504.76 636.79 575.24 636.79 M 575.24 645.05 504.76 645.05 M 404.76 646.29 404.76 595.49 M 404.76 646.29 475.24 646.29 475.24 595.49 404.76 595.49 M 404.76 603.75 475.24 603.75 M 475.24 612.01 404.76 612.01 M 404.76 620.27 475.24 620.27 M 475.24 628.53 404.76 628.53 M 404.76 636.79 475.24 636.79 M 475.24 645.05 404.76 645.05 M 304.76 646.29 304.76 595.49 M 304.76 646.29 375.24 646.29 375.24 595.49 304.76 595.49 M 304.76 603.75 375.24 603.75 M 375.24 612.01 304.76 612.01 M 304.76 620.27 375.24 620.27 M 375.24 628.53 304.76 628.53 M 304.76 636.79 375.24 636.79 M 375.24 645.05 304.76 645.05" fill="none" stroke-width="8.27"/><use xlink:href="#SHAL-iIGYXSaeDlh7D92_pad-11" x="290" y="102.4"/><use xlink:href="#SHAL-iIGYXSaeDlh7D92_pad-11" x="990" y="102.4"/><use xlink:href="#SHAL-iIGYXSaeDlh7D92_pad-12" x="890" y="102.4"/><use xlink:href="#SHAL-iIGYXSaeDlh7D92_pad-12" x="790" y="102.4"/><use xlink:href="#SHAL-iIGYXSaeDlh7D92_pad-12" x="590" y="102.4"/><use xlink:href="#SHAL-iIGYXSaeDlh7D92_pad-12" x="490" y="102.4"/><use xlink:href="#SHAL-iIGYXSaeDlh7D92_pad-12" x="390" y="102.4"/><use xlink:href="#SHAL-iIGYXSaeDlh7D92_pad-12" x="215" y="343.7"/><use xlink:href="#SHAL-iIGYXSaeDlh7D92_pad-12" x="115" y="343.7"/><use xlink:href="#SHAL-iIGYXSaeDlh7D92_pad-12" x="115" y="473.7"/><use xlink:href="#SHAL-iIGYXSaeDlh7D92_pad-12" x="215" y="473.7"/><use xlink:href="#SHAL-iIGYXSaeDlh7D92_pad-13" x="400" y="370"/><use xlink:href="#SHAL-iIGYXSaeDlh7D92_pad-13" x="515" y="420"/><use xlink:href="#SHAL-iIGYXSaeDlh7D92_pad-13" x="565" y="420"/><use xlink:href="#SHAL-iIGYXSaeDlh7D92_pad-13" x="565" y="370"/><use xlink:href="#SHAL-iIGYXSaeDlh7D92_pad-13" x="655" y="552.4"/><use xlink:href="#SHAL-iIGYXSaeDlh7D92_pad-13" x="740" y="552.4"/><use xlink:href="#SHAL-iIGYXSaeDlh7D92_pad-13" x="825" y="552.4"/><use xlink:href="#SHAL-iIGYXSaeDlh7D92_pad-13" x="1020" y="440"/><use xlink:href="#SHAL-iIGYXSaeDlh7D92_pad-13" x="1020" y="390"/><use xlink:href="#SHAL-iIGYXSaeDlh7D92_pad-13" x="1115" y="390"/><use xlink:href="#SHAL-iIGYXSaeDlh7D92_pad-13" x="1215" y="390"/><use xlink:href="#SHAL-iIGYXSaeDlh7D92_pad-13" x="1155" y="509.09"/><use xlink:href="#SHAL-iIGYXSaeDlh7D92_pad-13" x="255" y="622.4"/><use xlink:href="#SHAL-iIGYXSaeDlh7D92_pad-13" x="195" y="702.4"/><use xlink:href="#SHAL-iIGYXSaeDlh7D92_pad-13" x="260" y="262.4"/><path d="M 260 262.4 275 277.4 590 277.4 640 327.4 640 483.92 655 483.92 655 552.4 M 740 552.4 740 483.92 M 840 483.92 840 327.4 790 277.4 790 102.4 M 890 102.4 890 277.4 940 327.4 940 483.92 M 940 552.4 825 552.4 M 840 620.89 740 620.89 740 667.4 705 702.4 195 702.4 M 255 622.4 338.48 622.4 340 620.89 M 388.92 535 440 483.92 540 483.92 M 488.92 569.8 540 620.89 640 620.89 M 488.92 569.8 104.8 569.8 55 520 55 403.7 115 343.7 M 115 473.7 176.3 535 388.92 535 M 340 483.92 340 473.7 215 473.7 M 329.78 473.7 340 483.92 340 430 400 370 565 370 M 590 277.4 590 102.4 M 1115 390 1115 465 1027.6 552.4 940 552.4 940 620.89 M 840 620.89 840 667.4 875 702.4 1027.6 702.4 1215 515 1215 390" fill="none" stroke-width="19.69"/><path d="M 49.42 29.49 40.28 33.28 33.28 40.28 29.49 49.42 29 54.37 29 763.03 29.49 767.98 33.28 777.13 40.28 784.13 49.42 787.91 54.37 788.4 1274.84 788.4 1279.79 787.91 1288.94 784.13 1295.94 777.13 1299.73 767.98 1300.21 763.03 1300.21 54.37 1299.73 49.42 1295.94 40.28 1288.94 33.28 1279.79 29.49 1274.84 29 54.37 29 49.42 29.49 M 38.58 34.97 1290.63 34.97 M 1297.88 44.96 31.34 44.96 M 29 54.94 241.44 54.94 M 240.6 55.79 243.39 53 246.81 51.02 250.62 50 285.16 50 285.16 97.56 294.84 97.56 294.84 50 329.38 50 333.19 51.02 336.61 53 339.4 55.79 341.38 59.21 342.4 63.03 342.4 88.22 348.12 74.42 362.02 60.52 380.17 53 399.83 53 417.98 60.52 431.88 74.42 439.4 92.57 439.4 112.23 431.88 130.39 417.98 144.28 399.83 151.8 380.17 151.8 362.02 144.28 348.12 130.39 342.4 116.58 342.4 141.78 341.38 145.59 339.4 149.01 336.61 151.81 333.19 153.78 329.38 154.8 294.84 154.8 294.84 107.24 285.16 107.24 285.16 97.56 237.6 97.56 237.6 63.03 238.62 59.21 240.6 55.79 M 237.6 64.93 29 64.93 M 29 74.91 237.6 74.91 M 237.6 84.9 29 84.9 M 29 94.88 237.6 94.88 M 237.6 107.24 237.6 141.78 238.62 145.59 240.6 149.01 243.39 151.81 246.81 153.78 250.62 154.8 285.16 154.8 285.16 107.24 237.6 107.24 M 237.6 114.85 29 114.85 M 29 124.84 237.6 124.84 M 237.6 134.82 29 134.82 M 29 144.81 238.41 144.81 M 250.58 154.79 29 154.79 M 29 164.78 568.16 164.78 M 568.16 174.76 29 174.76 M 29 184.75 568.16 184.75 M 568.16 194.73 29 194.73 M 29 204.72 568.16 204.72 M 568.16 214.7 29 214.7 M 29 224.69 568.16 224.69 M 568.16 234.67 273.28 234.67 M 277.39 236.37 286.03 245.01 290.4 255.56 568.16 255.56 568.16 146.83 562.02 144.28 548.12 130.39 540.6 112.23 540.6 92.57 548.12 74.42 562.02 60.52 580.17 53 599.83 53 617.98 60.52 631.88 74.42 639.4 92.57 639.4 112.23 631.88 130.39 617.98 144.28 611.84 146.83 611.84 268.35 649.05 305.56 661.84 318.35 661.84 442.39 681.92 442.39 690 450.47 698.08 442.39 781.92 442.39 790 450.47 798.08 442.39 818.16 442.39 818.16 336.45 768.16 286.45 768.16 146.83 762.02 144.28 748.12 130.39 740.6 112.23 740.6 92.57 748.12 74.42 762.02 60.52 780.17 53 799.83 53 817.98 60.52 831.88 74.42 839.4 92.57 839.4 112.23 831.88 130.39 817.98 144.28 811.84 146.83 811.84 268.35 861.84 318.35 861.84 442.39 881.92 442.39 890 450.47 898.08 442.39 918.16 442.39 918.16 336.45 868.16 286.45 868.16 146.83 862.02 144.28 848.12 130.39 840.6 112.23 840.6 92.57 848.12 74.42 862.02 60.52 880.17 53 899.83 53 917.98 60.52 931.88 74.42 937.6 88.22 937.6 63.03 938.62 59.21 940.6 55.79 943.39 53 946.81 51.02 950.62 50 985.16 50 985.16 97.56 994.84 97.56 994.84 50 1029.38 50 1033.19 51.02 1036.61 53 1039.4 55.79 1041.38 59.21 1042.4 63.03 1042.4 97.56 994.84 97.56 994.84 107.24 1042.4 107.24 1042.4 141.78 1041.38 145.59 1039.4 149.01 1036.61 151.81 1033.19 153.78 1029.38 154.8 994.84 154.8 994.84 107.24 985.16 107.24 985.16 154.8 950.62 154.8 946.81 153.78 943.39 151.81 940.6 149.01 938.62 145.59 937.6 141.78 937.6 116.58 931.88 130.39 917.98 144.28 911.84 146.83 911.84 268.35 961.84 318.35 961.84 442.39 981.92 442.39 991.37 451.84 991.37 515.99 981.92 525.44 898.08 525.44 890 517.36 881.92 525.44 840.15 525.44 842.39 526.37 846.57 530.56 1018.55 530.56 1093.16 455.95 1093.16 411.57 1088.97 407.39 1084.3 396.11 1084.3 383.89 1088.97 372.61 1097.61 363.97 1108.89 359.3 1121.11 359.3 1132.39 363.97 1141.03 372.61 1145.7 383.89 1145.7 396.11 1141.03 407.39 1136.84 411.57 1136.84 474.05 1036.65 574.24 961.84 574.24 961.84 579.36 981.92 579.36 991.37 588.81 991.37 652.96 981.92 662.41 898.08 662.41 890 654.33 881.92 662.41 865.9 662.41 884.05 680.56 1018.55 680.56 1193.16 505.95 1193.16 411.57 1188.97 407.39 1184.3 396.11 1184.3 383.89 1188.97 372.61 1197.61 363.97 1208.89 359.3 1221.11 359.3 1232.39 363.97 1241.03 372.61 1245.7 383.89 1245.7 396.11 1241.03 407.39 1236.84 411.57 1236.84 524.05 1036.65 724.24 865.95 724.24 818.16 676.45 818.16 662.41 798.08 662.41 790 654.33 781.92 662.41 761.84 662.41 761.84 676.45 749.05 689.24 726.84 711.45 714.05 724.24 216.57 724.24 212.39 728.43 201.11 733.1 188.89 733.1 177.61 728.43 168.97 719.79 164.3 708.51 164.3 696.29 168.97 685.01 177.61 676.37 188.89 671.7 201.11 671.7 212.39 676.37 216.57 680.56 695.95 680.56 714.1 662.41 698.08 662.41 690 654.33 681.92 662.41 598.08 662.41 590 654.33 581.92 662.41 498.08 662.41 491.7 656.03 490.55 658.03 486.98 661.59 482.62 664.11 477.76 665.41 445 665.41 445 625.89 435 625.89 435 665.41 402.24 665.41 397.38 664.11 393.02 661.59 389.45 658.03 388.3 656.03 381.92 662.41 298.08 662.41 288.63 652.96 288.63 644.24 276.57 644.24 272.39 648.43 261.11 653.1 248.89 653.1 237.61 648.43 228.97 639.79 224.3 628.51 224.3 616.29 228.97 605.01 237.61 596.37 248.89 591.7 261.11 591.7 272.39 596.37 276.57 600.56 288.63 600.56 288.63 591.65 95.76 591.65 33.16 529.05 33.16 394.65 68.14 359.67 65.6 353.53 65.6 333.87 73.12 315.72 87.02 301.82 105.17 294.3 124.83 294.3 142.98 301.82 156.88 315.72 164.4 333.87 164.4 353.53 156.88 371.68 142.98 385.58 124.83 393.1 105.17 393.1 99.03 390.56 76.84 412.75 76.84 441.99 87.02 431.82 105.17 424.3 124.83 424.3 142.98 431.82 156.88 445.72 164.4 463.87 164.4 483.53 161.86 489.67 172.59 500.4 165.6 483.53 165.6 463.87 173.12 445.72 187.02 431.82 205.17 424.3 224.83 424.3 242.98 431.82 256.88 445.72 259.42 451.86 288.63 451.86 288.63 451.84 298.08 442.39 318.16 442.39 318.16 420.95 369.3 369.81 369.3 363.89 373.97 352.61 382.61 343.97 393.89 339.3 406.11 339.3 417.39 343.97 421.57 348.16 543.43 348.16 547.61 343.97 558.89 339.3 571.11 339.3 582.39 343.97 591.03 352.61 595.7 363.89 595.7 376.11 591.03 387.39 582.39 396.03 571.11 400.7 558.89 400.7 547.61 396.03 543.43 391.84 421.57 391.84 417.39 396.03 406.11 400.7 400.19 400.7 361.84 439.05 361.84 442.39 381.92 442.39 390 450.47 398.08 442.39 481.92 442.39 490 450.47 498.08 442.39 581.92 442.39 590 450.47 598.08 442.39 618.16 442.39 618.16 336.45 580.95 299.24 265.95 299.24 259.81 293.1 253.89 293.1 242.61 288.43 233.97 279.79 229.3 268.51 229.3 256.29 233.97 245.01 242.61 236.37 253.89 231.7 266.11 231.7 277.39 236.37 M 285.67 244.66 568.16 244.66 M 568.16 254.64 290.02 254.64 M 246.72 234.67 29 234.67 M 29 244.66 234.33 244.66 M 229.98 254.64 29 254.64 M 29 264.63 229.3 264.63 M 231.83 274.61 29 274.61 M 29 284.6 238.78 284.6 M 225.51 294.58 261.29 294.58 M 245.73 304.57 586.28 304.57 M 596.26 314.55 255.72 314.55 M 256.88 315.72 264.4 333.87 264.4 353.53 256.88 371.68 242.98 385.58 224.83 393.1 205.17 393.1 187.02 385.58 173.12 371.68 165.6 353.53 165.6 333.87 173.12 315.72 187.02 301.82 205.17 294.3 224.83 294.3 242.98 301.82 256.88 315.72 M 260.53 324.54 606.25 324.54 M 616.23 334.52 264.4 334.52 M 264.4 344.51 382.07 344.51 M 373.19 354.49 264 354.49 M 259.87 364.48 369.3 364.48 M 364.65 374.46 254.1 374.46 M 244.12 384.45 354.66 384.45 M 344.68 394.43 95.16 394.43 M 85.17 404.42 334.69 404.42 M 324.71 414.4 76.84 414.4 M 76.84 424.39 104.95 424.39 M 125.04 424.39 204.95 424.39 M 225.04 424.39 318.16 424.39 M 318.16 434.37 245.54 434.37 M 255.52 444.36 296.11 444.36 M 366.52 434.37 618.16 434.37 M 618.16 424.39 376.5 424.39 M 386.49 414.4 618.16 414.4 M 618.16 404.42 396.47 404.42 M 418.98 394.43 546.02 394.43 M 583.98 394.43 618.16 394.43 M 618.16 384.45 592.25 384.45 M 595.7 374.46 618.16 374.46 M 618.16 364.48 595.7 364.48 M 591.81 354.49 618.16 354.49 M 618.16 344.51 582.93 344.51 M 547.07 344.51 417.93 344.51 M 396.11 444.36 383.89 444.36 M 483.89 444.36 496.11 444.36 M 583.89 444.36 596.11 444.36 M 661.84 434.37 818.16 434.37 M 818.16 424.39 661.84 424.39 M 661.84 414.4 818.16 414.4 M 818.16 404.42 661.84 404.42 M 661.84 394.43 818.16 394.43 M 818.16 384.45 661.84 384.45 M 661.84 374.46 818.16 374.46 M 818.16 364.48 661.84 364.48 M 661.84 354.49 818.16 354.49 M 818.16 344.51 661.84 344.51 M 661.84 334.52 816.23 334.52 M 806.25 324.54 661.84 324.54 M 658.04 314.55 796.26 314.55 M 786.28 304.57 648.06 304.57 M 649.05 305.56 649.05 305.56 M 638.07 294.58 776.29 294.58 M 768.16 284.6 628.09 284.6 M 618.1 274.61 768.16 274.61 M 768.16 264.63 611.84 264.63 M 611.84 254.64 768.16 254.64 M 768.16 244.66 611.84 244.66 M 611.84 234.67 768.16 234.67 M 768.16 224.69 611.84 224.69 M 611.84 214.7 768.16 214.7 M 768.16 204.72 611.84 204.72 M 611.84 194.73 768.16 194.73 M 768.16 184.75 611.84 184.75 M 611.84 174.76 768.16 174.76 M 768.16 164.78 611.84 164.78 M 611.84 154.79 768.16 154.79 M 763.28 144.81 616.72 144.81 M 627.44 134.82 752.56 134.82 M 745.82 124.84 634.18 124.84 M 638.31 114.85 741.69 114.85 M 740.6 104.87 639.4 104.87 M 639.4 94.88 740.6 94.88 M 743.78 84.9 636.22 84.9 M 632.08 74.91 747.92 74.91 M 757.61 64.93 622.39 64.93 M 604.51 54.94 775.49 54.94 M 804.51 54.94 875.49 54.94 M 857.61 64.93 822.39 64.93 M 832.08 74.91 847.92 74.91 M 843.78 84.9 836.22 84.9 M 839.4 94.88 840.6 94.88 M 840.6 104.87 839.4 104.87 M 838.31 114.85 841.69 114.85 M 845.82 124.84 834.18 124.84 M 827.44 134.82 852.56 134.82 M 863.28 144.81 816.72 144.81 M 811.84 154.79 868.16 154.79 M 868.16 164.78 811.84 164.78 M 811.84 174.76 868.16 174.76 M 868.16 184.75 811.84 184.75 M 811.84 194.73 868.16 194.73 M 868.16 204.72 811.84 204.72 M 811.84 214.7 868.16 214.7 M 868.16 224.69 811.84 224.69 M 811.84 234.67 868.16 234.67 M 868.16 244.66 811.84 244.66 M 811.84 254.64 868.16 254.64 M 868.16 264.63 811.84 264.63 M 818.1 274.61 868.16 274.61 M 868.16 284.6 828.09 284.6 M 838.07 294.58 876.29 294.58 M 886.28 304.57 848.06 304.57 M 858.04 314.55 896.26 314.55 M 906.25 324.54 861.84 324.54 M 861.84 334.52 916.23 334.52 M 918.16 344.51 861.84 344.51 M 861.84 354.49 918.16 354.49 M 918.16 364.48 861.84 364.48 M 861.84 374.46 918.16 374.46 M 918.16 384.45 861.84 384.45 M 861.84 394.43 918.16 394.43 M 918.16 404.42 861.84 404.42 M 861.84 414.4 918.16 414.4 M 918.16 424.39 861.84 424.39 M 861.84 434.37 918.16 434.37 M 896.11 444.36 883.89 444.36 M 961.84 434.37 1093.16 434.37 M 1093.16 444.36 983.89 444.36 M 991.37 454.34 1093.16 454.34 M 1084.78 464.33 991.37 464.33 M 991.37 474.32 1074.79 474.32 M 1064.81 484.3 991.37 484.3 M 991.37 494.29 1054.82 494.29 M 1044.84 504.27 991.37 504.27 M 991.37 514.26 1034.85 514.26 M 1024.87 524.24 983.12 524.24 M 1046.71 564.18 1134.93 564.18 M 1124.94 574.17 1036.72 574.17 M 1056.69 554.2 1144.91 554.2 M 1154.9 544.21 1066.68 544.21 M 1076.66 534.23 1164.88 534.23 M 1174.87 524.24 1086.65 524.24 M 1096.63 514.26 1184.85 514.26 M 1193.16 504.27 1106.62 504.27 M 1116.6 494.29 1193.16 494.29 M 1193.16 484.3 1126.59 484.3 M 1136.57 474.32 1193.16 474.32 M 1193.16 464.33 1136.84 464.33 M 1136.84 454.34 1193.16 454.34 M 1193.16 444.36 1136.84 444.36 M 1136.84 434.37 1193.16 434.37 M 1193.16 424.39 1136.84 424.39 M 1136.84 414.4 1193.16 414.4 M 1187.74 404.42 1142.26 404.42 M 1145.7 394.43 1184.3 394.43 M 1184.3 384.45 1145.7 384.45 M 1141.8 374.46 1188.2 374.46 M 1197.1 364.48 1132.9 364.48 M 1097.1 364.48 961.84 364.48 M 961.84 374.46 1088.2 374.46 M 1084.3 384.45 961.84 384.45 M 961.84 394.43 1084.3 394.43 M 1087.74 404.42 961.84 404.42 M 961.84 414.4 1093.16 414.4 M 1093.16 424.39 961.84 424.39 M 961.84 354.49 1300.21 354.49 M 1300.21 344.51 961.84 344.51 M 961.84 334.52 1300.21 334.52 M 1300.21 324.54 961.84 324.54 M 958.04 314.55 1300.21 314.55 M 1300.21 304.57 948.06 304.57 M 938.07 294.58 1300.21 294.58 M 1300.21 284.6 928.09 284.6 M 918.1 274.61 1300.21 274.61 M 1300.21 264.63 911.84 264.63 M 911.84 254.64 1300.21 254.64 M 1300.21 244.66 911.84 244.66 M 911.84 234.67 1300.21 234.67 M 1300.21 224.69 911.84 224.69 M 911.84 214.7 1300.21 214.7 M 1300.21 204.72 911.84 204.72 M 911.84 194.73 1300.21 194.73 M 1300.21 184.75 911.84 184.75 M 911.84 174.76 1300.21 174.76 M 1300.21 164.78 911.84 164.78 M 911.84 154.79 950.58 154.79 M 938.41 144.81 916.72 144.81 M 927.44 134.82 937.6 134.82 M 937.6 124.84 934.18 124.84 M 985.16 124.84 994.84 124.84 M 994.84 134.82 985.16 134.82 M 985.16 144.81 994.84 144.81 M 994.84 154.79 985.16 154.79 M 1029.42 154.79 1300.21 154.79 M 1300.21 144.81 1041.59 144.81 M 1042.4 134.82 1300.21 134.82 M 1300.21 124.84 1042.4 124.84 M 1042.4 114.85 1300.21 114.85 M 1300.21 104.87 994.84 104.87 M 994.84 94.88 985.16 94.88 M 985.16 84.9 994.84 84.9 M 994.84 74.91 985.16 74.91 M 985.16 64.93 994.84 64.93 M 994.84 54.94 985.16 54.94 M 941.44 54.94 904.51 54.94 M 922.39 64.93 937.6 64.93 M 937.6 74.91 932.08 74.91 M 936.22 84.9 937.6 84.9 M 985.16 114.85 994.84 114.85 M 1042.4 94.88 1300.21 94.88 M 1300.21 84.9 1042.4 84.9 M 1042.4 74.91 1300.21 74.91 M 1300.21 64.93 1042.4 64.93 M 1038.56 54.94 1300.21 54.94 M 1300.21 364.48 1232.9 364.48 M 1241.8 374.46 1300.21 374.46 M 1300.21 384.45 1245.7 384.45 M 1245.7 394.43 1300.21 394.43 M 1300.21 404.42 1242.26 404.42 M 1236.84 414.4 1300.21 414.4 M 1300.21 424.39 1236.84 424.39 M 1236.84 434.37 1300.21 434.37 M 1300.21 444.36 1236.84 444.36 M 1236.84 454.34 1300.21 454.34 M 1300.21 464.33 1236.84 464.33 M 1236.84 474.32 1300.21 474.32 M 1300.21 484.3 1236.84 484.3 M 1236.84 494.29 1300.21 494.29 M 1300.21 504.27 1236.84 504.27 M 1236.84 514.26 1300.21 514.26 M 1300.21 524.24 1236.65 524.24 M 1226.66 534.23 1300.21 534.23 M 1300.21 544.21 1216.68 544.21 M 1206.69 554.2 1300.21 554.2 M 1300.21 564.18 1196.71 564.18 M 1186.72 574.17 1300.21 574.17 M 1300.21 584.15 1176.74 584.15 M 1166.75 594.14 1300.21 594.14 M 1300.21 604.12 1156.77 604.12 M 1146.78 614.11 1300.21 614.11 M 1300.21 624.09 1136.8 624.09 M 1126.81 634.08 1300.21 634.08 M 1300.21 644.06 1116.83 644.06 M 1106.84 654.05 1300.21 654.05 M 1300.21 664.03 1096.86 664.03 M 1086.87 674.02 1300.21 674.02 M 1300.21 684 1076.89 684 M 1066.9 693.99 1300.21 693.99 M 1300.21 703.97 1056.92 703.97 M 1046.93 713.96 1300.21 713.96 M 1300.21 723.94 1036.95 723.94 M 1025.09 674.02 877.51 674.02 M 867.52 664.03 1035.08 664.03 M 1045.06 654.05 990.29 654.05 M 991.37 644.06 1055.05 644.06 M 1065.03 634.08 991.37 634.08 M 991.37 624.09 1075.02 624.09 M 1085 614.11 991.37 614.11 M 991.37 604.12 1094.99 604.12 M 1104.97 594.14 991.37 594.14 M 986.71 584.15 1114.96 584.15 M 896.88 524.24 883.12 524.24 M 796.11 444.36 783.89 444.36 M 696.11 444.36 683.89 444.36 M 445 634.08 435 634.08 M 435 644.06 445 644.06 M 445 654.05 435 654.05 M 435 664.03 445 664.03 M 482.76 664.03 712.48 664.03 M 702.49 674.02 206.7 674.02 M 183.3 674.02 29 674.02 M 29 684 169.98 684 M 165.25 693.99 29 693.99 M 29 703.97 164.3 703.97 M 166.56 713.96 29 713.96 M 29 723.94 173.12 723.94 M 289.71 654.05 29 654.05 M 29 664.03 397.24 664.03 M 288.63 594.14 266.99 594.14 M 243.01 594.14 29 594.14 M 29 604.12 229.86 604.12 M 225.21 614.11 29 614.11 M 29 624.09 224.3 624.09 M 226.61 634.08 29 634.08 M 29 644.06 233.24 644.06 M 88.26 584.15 29 584.15 M 29 574.17 78.28 574.17 M 68.29 564.18 29 564.18 M 29 554.2 58.31 554.2 M 48.32 544.21 29 544.21 M 29 534.23 38.34 534.23 M 33.16 524.24 29 524.24 M 29 514.26 33.16 514.26 M 33.16 504.27 29 504.27 M 29 494.29 33.16 494.29 M 33.16 484.3 29 484.3 M 29 474.32 33.16 474.32 M 33.16 464.33 29 464.33 M 29 454.34 33.16 454.34 M 33.16 444.36 29 444.36 M 29 434.37 33.16 434.37 M 33.16 424.39 29 424.39 M 29 414.4 33.16 414.4 M 33.16 404.42 29 404.42 M 29 394.43 33.38 394.43 M 29 384.45 43.36 384.45 M 53.35 374.46 29 374.46 M 29 364.48 63.33 364.48 M 66 354.49 29 354.49 M 29 344.51 65.6 344.51 M 65.6 334.52 29 334.52 M 29 324.54 69.47 324.54 M 74.28 314.55 29 314.55 M 29 304.57 84.27 304.57 M 104.49 294.58 29 294.58 M 125.51 294.58 204.49 294.58 M 184.27 304.57 145.73 304.57 M 155.72 314.55 174.28 314.55 M 169.47 324.54 160.53 324.54 M 164.4 334.52 165.6 334.52 M 165.6 344.51 164.4 344.51 M 164 354.49 166 354.49 M 170.13 364.48 159.87 364.48 M 154.1 374.46 175.9 374.46 M 185.88 384.45 144.12 384.45 M 145.54 434.37 184.46 434.37 M 174.48 444.36 155.52 444.36 M 160.45 454.34 169.55 454.34 M 165.6 464.33 164.4 464.33 M 164.4 474.32 165.6 474.32 M 165.92 484.3 164.08 484.3 M 166.47 494.29 170.05 494.29 M 84.46 434.37 76.84 434.37 M 285.16 154.79 294.84 154.79 M 294.84 144.81 285.16 144.81 M 285.16 134.82 294.84 134.82 M 294.84 124.84 285.16 124.84 M 285.16 114.85 294.84 114.85 M 285.16 104.87 29 104.87 M 285.16 94.88 294.84 94.88 M 294.84 84.9 285.16 84.9 M 285.16 74.91 294.84 74.91 M 294.84 64.93 285.16 64.93 M 285.16 54.94 294.84 54.94 M 338.56 54.94 375.49 54.94 M 357.61 64.93 342.4 64.93 M 342.4 74.91 347.92 74.91 M 343.78 84.9 342.4 84.9 M 342.4 124.84 345.82 124.84 M 342.4 134.82 352.56 134.82 M 363.28 144.81 341.59 144.81 M 329.42 154.79 568.16 154.79 M 563.28 144.81 516.72 144.81 M 517.98 144.28 499.83 151.8 480.17 151.8 462.02 144.28 448.12 130.39 440.6 112.23 440.6 92.57 448.12 74.42 462.02 60.52 480.17 53 499.83 53 517.98 60.52 531.88 74.42 539.4 92.57 539.4 112.23 531.88 130.39 517.98 144.28 M 527.44 134.82 552.56 134.82 M 545.82 124.84 534.18 124.84 M 538.31 114.85 541.69 114.85 M 540.6 104.87 539.4 104.87 M 539.4 94.88 540.6 94.88 M 543.78 84.9 536.22 84.9 M 532.08 74.91 547.92 74.91 M 557.61 64.93 522.39 64.93 M 504.51 54.94 575.49 54.94 M 475.49 54.94 404.51 54.94 M 422.39 64.93 457.61 64.93 M 447.92 74.91 432.08 74.91 M 436.22 84.9 443.78 84.9 M 440.6 94.88 439.4 94.88 M 439.4 104.87 440.6 104.87 M 441.69 114.85 438.31 114.85 M 434.18 124.84 445.82 124.84 M 452.56 134.82 427.44 134.82 M 416.72 144.81 463.28 144.81 M 761.84 664.03 818.16 664.03 M 818.16 674.02 761.84 674.02 M 754.29 684 825.71 684 M 835.7 693.99 744.3 693.99 M 734.32 703.97 845.68 703.97 M 855.67 713.96 724.33 713.96 M 714.35 723.94 865.65 723.94 M 1289.21 783.85 40 783.85 M 31.93 773.87 1297.29 773.87 M 1300.13 763.88 29.08 763.88 M 29 753.9 1300.21 753.9 M 1300.21 743.91 29 743.91 M 29 733.93 1300.21 733.93" fill="none" stroke-width="10"/></g><g id="khKsiHHkkhVFdp_VWcmw_top_soldermask"><path d="M 301.32 455.08 301.32 512.76 378.68 512.76 378.68 455.08 301.32 455.08 M 301.32 464.46 378.68 464.46 M 378.68 473.84 301.32 473.84 M 301.32 483.22 378.68 483.22 M 378.68 492.6 301.32 492.6 M 301.32 501.98 378.68 501.98 M 378.68 511.36 301.32 511.36 M 401.32 512.76 401.32 455.08 M 401.32 512.76 478.68 512.76 478.68 455.08 401.32 455.08 M 401.32 464.46 478.68 464.46 M 478.68 473.84 401.32 473.84 M 401.32 483.22 478.68 483.22 M 478.68 492.6 401.32 492.6 M 401.32 501.98 478.68 501.98 M 478.68 511.36 401.32 511.36 M 501.32 512.76 501.32 455.08 M 501.32 512.76 578.68 512.76 578.68 455.08 501.32 455.08 M 501.32 464.46 578.68 464.46 M 578.68 473.84 501.32 473.84 M 501.32 483.22 578.68 483.22 M 578.68 492.6 501.32 492.6 M 501.32 501.98 578.68 501.98 M 578.68 511.36 501.32 511.36 M 601.32 512.76 601.32 455.08 M 601.32 512.76 678.68 512.76 678.68 455.08 601.32 455.08 M 601.32 464.46 678.68 464.46 M 678.68 473.84 601.32 473.84 M 601.32 483.22 678.68 483.22 M 678.68 492.6 601.32 492.6 M 601.32 501.98 678.68 501.98 M 678.68 511.36 601.32 511.36 M 778.68 512.76 778.68 455.08 701.32 455.08 701.32 512.76 778.68 512.76 M 778.68 464.46 701.32 464.46 M 701.32 473.84 778.68 473.84 M 778.68 483.22 701.32 483.22 M 701.32 492.6 778.68 492.6 M 778.68 501.98 701.32 501.98 M 701.32 511.36 778.68 511.36 M 878.68 512.76 878.68 455.08 801.32 455.08 801.32 512.76 878.68 512.76 M 878.68 464.46 801.32 464.46 M 801.32 473.84 878.68 473.84 M 878.68 483.22 801.32 483.22 M 801.32 492.6 878.68 492.6 M 878.68 501.98 801.32 501.98 M 801.32 511.36 878.68 511.36 M 978.68 512.76 978.68 455.08 901.32 455.08 901.32 512.76 978.68 512.76 M 978.68 464.46 901.32 464.46 M 901.32 473.84 978.68 473.84 M 978.68 483.22 901.32 483.22 M 901.32 492.6 978.68 492.6 M 978.68 501.98 901.32 501.98 M 901.32 511.36 978.68 511.36 M 978.68 592.05 978.68 649.73 M 978.68 592.05 901.32 592.05 901.32 649.73 978.68 649.73 M 978.68 601.43 901.32 601.43 M 901.32 610.81 978.68 610.81 M 978.68 620.19 901.32 620.19 M 901.32 629.57 978.68 629.57 M 978.68 638.95 901.32 638.95 M 901.32 648.33 978.68 648.33 M 878.68 649.73 878.68 592.05 801.32 592.05 801.32 649.73 878.68 649.73 M 878.68 601.43 801.32 601.43 M 801.32 610.81 878.68 610.81 M 878.68 620.19 801.32 620.19 M 801.32 629.57 878.68 629.57 M 878.68 638.95 801.32 638.95 M 801.32 648.33 878.68 648.33 M 778.68 649.73 778.68 592.05 701.32 592.05 701.32 649.73 778.68 649.73 M 778.68 601.43 701.32 601.43 M 701.32 610.81 778.68 610.81 M 778.68 620.19 701.32 620.19 M 701.32 629.57 778.68 629.57 M 778.68 638.95 701.32 638.95 M 701.32 648.33 778.68 648.33 M 601.32 649.73 601.32 592.05 M 601.32 649.73 678.68 649.73 678.68 592.05 601.32 592.05 M 601.32 601.43 678.68 601.43 M 678.68 610.81 601.32 610.81 M 601.32 620.19 678.68 620.19 M 678.68 629.57 601.32 629.57 M 601.32 638.95 678.68 638.95 M 678.68 648.33 601.32 648.33 M 501.32 649.73 501.32 592.05 M 501.32 649.73 578.68 649.73 578.68 592.05 501.32 592.05 M 501.32 601.43 578.68 601.43 M 578.68 610.81 501.32 610.81 M 501.32 620.19 578.68 620.19 M 578.68 629.57 501.32 629.57 M 501.32 638.95 578.68 638.95 M 578.68 648.33 501.32 648.33 M 401.32 649.73 401.32 592.05 M 401.32 649.73 478.68 649.73 478.68 592.05 401.32 592.05 M 401.32 601.43 478.68 601.43 M 478.68 610.81 401.32 610.81 M 401.32 620.19 478.68 620.19 M 478.68 629.57 401.32 629.57 M 401.32 638.95 478.68 638.95 M 478.68 648.33 401.32 648.33 M 301.32 649.73 301.32 592.05 M 301.32 649.73 378.68 649.73 378.68 592.05 301.32 592.05 M 301.32 601.43 378.68 601.43 M 378.68 610.81 301.32 610.81 M 301.32 620.19 378.68 620.19 M 378.68 629.57 301.32 629.57 M 301.32 638.95 378.68 638.95 M 378.68 648.33 301.32 648.33" fill="none" stroke-width="9.39"/><use xlink:href="#ttHKlOkeNwj4DTi3H7Nr_pad-11" x="290" y="102.4"/><use xlink:href="#ttHKlOkeNwj4DTi3H7Nr_pad-11" x="990" y="102.4"/><use xlink:href="#ttHKlOkeNwj4DTi3H7Nr_pad-12" x="890" y="102.4"/><use xlink:href="#ttHKlOkeNwj4DTi3H7Nr_pad-12" x="790" y="102.4"/><use xlink:href="#ttHKlOkeNwj4DTi3H7Nr_pad-12" x="590" y="102.4"/><use xlink:href="#ttHKlOkeNwj4DTi3H7Nr_pad-12" x="490" y="102.4"/><use xlink:href="#ttHKlOkeNwj4DTi3H7Nr_pad-12" x="390" y="102.4"/><use xlink:href="#ttHKlOkeNwj4DTi3H7Nr_pad-12" x="215" y="343.7"/><use xlink:href="#ttHKlOkeNwj4DTi3H7Nr_pad-12" x="115" y="343.7"/><use xlink:href="#ttHKlOkeNwj4DTi3H7Nr_pad-12" x="115" y="473.7"/><use xlink:href="#ttHKlOkeNwj4DTi3H7Nr_pad-12" x="215" y="473.7"/></g><g id="khKsiHHkkhVFdp_VWcmw_top_drill1"><use xlink:href="#JKAA8iZZJaeVO-AB6rZY_pad-1" x="260" y="262.4"/><use xlink:href="#JKAA8iZZJaeVO-AB6rZY_pad-1" x="400" y="370"/><use xlink:href="#JKAA8iZZJaeVO-AB6rZY_pad-1" x="515" y="420"/><use xlink:href="#JKAA8iZZJaeVO-AB6rZY_pad-1" x="565" y="420"/><use xlink:href="#JKAA8iZZJaeVO-AB6rZY_pad-1" x="565" y="370"/><use xlink:href="#JKAA8iZZJaeVO-AB6rZY_pad-1" x="655" y="552.4"/><use xlink:href="#JKAA8iZZJaeVO-AB6rZY_pad-1" x="740" y="552.4"/><use xlink:href="#JKAA8iZZJaeVO-AB6rZY_pad-1" x="825" y="552.4"/><use xlink:href="#JKAA8iZZJaeVO-AB6rZY_pad-1" x="1020" y="440"/><use xlink:href="#JKAA8iZZJaeVO-AB6rZY_pad-1" x="1020" y="390"/><use xlink:href="#JKAA8iZZJaeVO-AB6rZY_pad-1" x="1115" y="390"/><use xlink:href="#JKAA8iZZJaeVO-AB6rZY_pad-1" x="1215" y="390"/><use xlink:href="#JKAA8iZZJaeVO-AB6rZY_pad-1" x="1155" y="509.1"/><use xlink:href="#JKAA8iZZJaeVO-AB6rZY_pad-1" x="255" y="622.4"/><use xlink:href="#JKAA8iZZJaeVO-AB6rZY_pad-1" x="195" y="702.4"/><use xlink:href="#JKAA8iZZJaeVO-AB6rZY_pad-2" x="290" y="102.4"/><use xlink:href="#JKAA8iZZJaeVO-AB6rZY_pad-2" x="390" y="102.4"/><use xlink:href="#JKAA8iZZJaeVO-AB6rZY_pad-2" x="490" y="102.4"/><use xlink:href="#JKAA8iZZJaeVO-AB6rZY_pad-2" x="590" y="102.4"/><use xlink:href="#JKAA8iZZJaeVO-AB6rZY_pad-2" x="790" y="102.4"/><use xlink:href="#JKAA8iZZJaeVO-AB6rZY_pad-2" x="890" y="102.4"/><use xlink:href="#JKAA8iZZJaeVO-AB6rZY_pad-2" x="990" y="102.4"/><use xlink:href="#JKAA8iZZJaeVO-AB6rZY_pad-2" x="215" y="343.7"/><use xlink:href="#JKAA8iZZJaeVO-AB6rZY_pad-2" x="115" y="343.7"/><use xlink:href="#JKAA8iZZJaeVO-AB6rZY_pad-2" x="115" y="473.7"/><use xlink:href="#JKAA8iZZJaeVO-AB6rZY_pad-2" x="215" y="473.7"/></g><clipPath id="khKsiHHkkhVFdp_VWcmw_top_outline"><path d="M 54.37 15 1274.84 15 1276.08 15.02 1277.31 15.08 1278.55 15.17 1279.77 15.31 1281 15.48 1282.22 15.7 1283.43 15.95 1284.63 16.24 1285.82 16.56 1287.01 16.93 1288.18 17.33 1289.33 17.76 1290.48 18.24 1291.6 18.75 1292.71 19.29 1293.81 19.87 1294.88 20.48 1295.94 21.13 1296.97 21.81 1297.98 22.52 1298.97 23.26 1299.94 24.03 1300.88 24.84 1301.79 25.67 1302.68 26.53 1303.54 27.42 1304.37 28.33 1305.18 29.27 1305.95 30.24 1306.69 31.23 1307.4 32.24 1308.08 33.27 1308.73 34.33 1309.34 35.4 1309.92 36.5 1310.46 37.61 1310.97 38.73 1311.45 39.88 1311.88 41.03 1312.28 42.2 1312.65 43.39 1312.97 44.58 1313.26 45.78 1313.51 46.99 1313.73 48.21 1313.9 49.44 1314.04 50.66 1314.13 51.9 1314.19 53.13 1314.21 54.37 1314.21 763.03 1314.19 764.27 1314.13 765.5 1314.04 766.74 1313.9 767.96 1313.73 769.19 1313.51 770.41 1313.26 771.62 1312.97 772.82 1312.65 774.01 1312.28 775.2 1311.88 776.37 1311.45 777.52 1310.97 778.67 1310.46 779.79 1309.92 780.9 1309.34 782 1308.73 783.07 1308.08 784.13 1307.4 785.16 1306.69 786.17 1305.95 787.16 1305.18 788.13 1304.37 789.07 1303.54 789.98 1302.68 790.87 1301.79 791.73 1300.88 792.56 1299.94 793.37 1298.97 794.14 1297.98 794.88 1296.97 795.59 1295.94 796.27 1294.88 796.92 1293.81 797.53 1292.71 798.11 1291.6 798.65 1290.48 799.16 1289.33 799.64 1288.18 800.07 1287.01 800.47 1285.82 800.84 1284.63 801.16 1283.43 801.45 1282.22 801.7 1281 801.92 1279.77 802.09 1278.55 802.23 1277.31 802.32 1276.08 802.38 1274.84 802.4 54.37 802.4 53.13 802.38 51.9 802.32 50.66 802.23 49.44 802.09 48.21 801.92 46.99 801.7 45.78 801.45 44.58 801.16 43.39 800.84 42.2 800.47 41.03 800.07 39.88 799.64 38.73 799.16 37.61 798.65 36.5 798.11 35.4 797.53 34.33 796.92 33.27 796.27 32.24 795.59 31.23 794.88 30.24 794.14 29.27 793.37 28.33 792.56 27.42 791.73 26.53 790.87 25.67 789.98 24.84 789.07 24.03 788.13 23.26 787.16 22.52 786.17 21.81 785.16 21.13 784.13 20.48 783.07 19.87 782 19.29 780.9 18.75 779.79 18.24 778.67 17.76 777.52 17.33 776.37 16.93 775.2 16.56 774.01 16.24 772.82 15.95 771.62 15.7 770.41 15.48 769.19 15.31 767.96 15.17 766.74 15.08 765.5 15.02 764.27 15 763.03 15 54.37 15.02 53.13 15.08 51.9 15.17 50.66 15.31 49.44 15.48 48.21 15.7 46.99 15.95 45.78 16.24 44.58 16.56 43.39 16.93 42.2 17.33 41.03 17.76 39.88 18.24 38.73 18.75 37.61 19.29 36.5 19.87 35.4 20.48 34.33 21.13 33.27 21.81 32.24 22.52 31.23 23.26 30.24 24.03 29.27 24.84 28.33 25.67 27.42 26.53 26.53 27.42 25.67 28.33 24.84 29.27 24.03 30.24 23.26 31.23 22.52 32.24 21.81 33.27 21.13 34.33 20.48 35.4 19.87 36.5 19.29 37.61 18.75 38.73 18.24 39.88 17.76 41.03 17.33 42.2 16.93 43.39 16.56 44.58 16.24 45.78 15.95 46.99 15.7 48.21 15.48 49.44 15.31 50.66 15.17 51.9 15.08 53.13 15.02 54.37 15" fill="none" stroke-width="0"/></clipPath><mask id="khKsiHHkkhVFdp_VWcmw_top_mech-mask"><g fill="#000" stroke="#000"><rect x="15" y="15" width="1299.21" height="787.4" fill="#fff"/><use xlink:href="#khKsiHHkkhVFdp_VWcmw_top_drill1"/></g></mask><mask id="khKsiHHkkhVFdp_VWcmw_top_cf-mask"><g fill="#fff" stroke="#fff"><use xlink:href="#khKsiHHkkhVFdp_VWcmw_top_soldermask"/></g></mask><mask id="khKsiHHkkhVFdp_VWcmw_top_sm-mask"><g fill="#000" stroke="#000"><rect x="15" y="15" width="1299.21" height="787.4" fill="#fff"/><use xlink:href="#khKsiHHkkhVFdp_VWcmw_top_soldermask"/></g></mask></defs><g transform="translate(0,817.4) scale(1,-1)"><g mask="url(#khKsiHHkkhVFdp_VWcmw_top_mech-mask)" clip-path="url(#khKsiHHkkhVFdp_VWcmw_top_outline)"><rect x="15" y="15" width="1299.21" height="787.4" fill="currentColor" class="khKsiHHkkhVFdp_VWcmw_fr4"/><use xlink:href="#khKsiHHkkhVFdp_VWcmw_top_copper" fill="currentColor" stroke="currentColor" class="khKsiHHkkhVFdp_VWcmw_cu"/><use xlink:href="#khKsiHHkkhVFdp_VWcmw_top_copper" fill="currentColor" stroke="currentColor" class="khKsiHHkkhVFdp_VWcmw_cf" mask="url(#khKsiHHkkhVFdp_VWcmw_top_cf-mask)"/><g mask="url(#khKsiHHkkhVFdp_VWcmw_top_sm-mask)"><rect x="15" y="15" width="1299.21" height="787.4" fill="currentColor" class="khKsiHHkkhVFdp_VWcmw_sm"/><use xlink:href="#khKsiHHkkhVFdp_VWcmw_top_silkscreen" fill="currentColor" stroke="currentColor" class="khKsiHHkkhVFdp_VWcmw_ss"/></g></g></g></svg>