<svg version="1.1" xmlns="http://www.w3.org/2000/svg" xmlns:xlink="http://www.w3.org/1999/xlink" stroke-linecap="round" stroke-linejoin="round" stroke-width="0" fill-rule="evenodd" clip-rule="evenodd" id="khKsiHHkkhVFdp_VWcmw_bottom" viewBox="15 15 1299.21 787.4" width="1.29921in" height="0.7874in" class="w-100 h-100"><defs><style>.khKsiHHkkhVFdp_VWcmw_fr4 {color: #666666;}
.khKsiHHkkhVFdp_VWcmw_cu {color: #cccccc;}
.khKsiHHkkhVFdp_VWcmw_cf {color: #cc9933;}
.khKsiHHkkhVFdp_VWcmw_sm {color: #004200; opacity: 0.75;}
.khKsiHHkkhVFdp_VWcmw_ss {color: #ffffff;}
.khKsiHHkkhVFdp_VWcmw_sp {color: #999999;}
.khKsiHHkkhVFdp_VWcmw_out {color: #000000;}</style><rect x="-37.4" y="-37.4" width="74.8" height="74.8" id="jvmGJlD0gRSXFa9fRS_i_pad-13"/><circle cx="0" cy="0" r="37.4" id="jvmGJlD0gRSXFa9fRS_i_pad-14"/><circle cx="0" cy="0" r="18.7" id="jvmGJlD0gRSXFa9fRS_i_pad-15"/><rect x="-41.4" y="-41.4" width="82.8" height="82.8" id="xrTbf90jnHj_7b40HQju_pad-13"/><circle cx="0" cy="0" r="41.4" id="xrTbf90jnHj_7b40HQju_pad-14"/><circle cx="0" cy="0" r="9.85" id="JKAA8iZZJaeVO-AB6rZY_pad-1"/><circle cx="0" cy="0" r="19.7" id="JKAA8iZZJaeVO-AB6rZY_pad-2"/><g id="khKsiHHkkhVFdp_VWcmw_bottom_silkscreen"><path d="M 190.1 133.79 183.1 140.79 183.1 154.81 190.1 161.81 M 190.1 179.83 183.1 186.83 183.1 200.84 190.1 207.85 197.11 207.85 204.12 200.84 204.12 193.84 M 204.12 200.84 211.12 207.85 218.13 207.85 225.13 200.84 225.13 186.83 218.13 179.83 M 218.13 161.81 225.13 154.81 225.13 140.79 218.13 133.79 190.1 133.79 M 150 145.89 150 195.89 M 80 195.89 80 145.89 M 329.9 223.6 336.9 216.6 350.92 216.6 357.92 223.6 329.9 251.63 329.9 223.6 M 357.92 223.6 357.92 251.63 350.92 258.63 336.9 258.63 329.9 251.63 M 375.94 216.6 403.96 216.6 M 389.95 216.6 389.95 258.63 403.96 244.62 M 421.98 251.63 421.98 237.62 428.98 230.61 450 230.61 M 435.99 230.61 421.98 216.6 M 450 216.6 450 258.63 428.98 258.63 421.98 251.63 M 415 292.4 365 292.4 M 365 362.4 415 362.4 M 490 474.9 290 474.9 290 629.9 490 629.9 490 579.9 488.96 579.88 487.92 579.82 486.88 579.72 485.85 579.59 484.83 579.41 483.81 579.19 482.8 578.94 481.8 578.65 480.81 578.32 479.84 577.95 478.88 577.55 477.93 577.11 477.01 576.64 476.1 576.13 475.21 575.59 474.35 575.01 473.5 574.4 472.68 573.76 471.88 573.09 471.11 572.39 470.37 571.66 469.66 570.9 468.97 570.12 468.32 569.31 467.69 568.48 467.1 567.62 466.54 566.75 466.01 565.85 465.52 564.93 465.06 564 464.64 563.04 464.26 562.08 463.91 561.1 463.6 560.1 463.33 559.1 463.09 558.08 462.9 557.06 462.74 556.03 462.62 555 462.54 553.96 462.5 552.92 462.5 551.88 462.54 550.84 462.62 549.8 462.74 548.77 462.9 547.74 463.09 546.72 463.33 545.7 463.6 544.7 463.91 543.7 464.26 542.72 464.64 541.76 465.06 540.8 465.52 539.87 466.01 538.95 466.54 538.05 467.1 537.18 467.69 536.32 468.32 535.49 468.97 534.68 469.66 533.9 470.37 533.14 471.11 532.41 471.88 531.71 472.68 531.04 473.5 530.4 474.35 529.79 475.21 529.21 476.1 528.67 477.01 528.16 477.93 527.69 478.88 527.25 479.84 526.85 480.81 526.48 481.8 526.15 482.8 525.86 483.81 525.61 484.83 525.39 485.85 525.21 486.88 525.08 487.92 524.98 488.96 524.92 490 524.9 490 474.9 M 430.86 507.4 430.88 508.15 430.94 508.89 431.04 509.63 431.17 510.36 431.35 511.09 431.56 511.8 431.81 512.51 432.1 513.2 432.43 513.87 432.79 514.52 433.18 515.16 433.6 515.77 434.06 516.36 434.55 516.93 435.07 517.46 435.61 517.97 436.18 518.46 436.78 518.9 437.4 519.32 438.04 519.71 438.7 520.06 439.37 520.37 440.07 520.65 440.77 520.89 441.49 521.1 442.22 521.26 442.95 521.39 443.7 521.48 444.44 521.53 445.19 521.54 445.93 521.51 446.68 521.44 447.41 521.33 448.15 521.19 448.87 521 449.58 520.78 450.28 520.52 450.97 520.22 451.63 519.89 452.28 519.52 452.91 519.12 453.52 518.68 454.1 518.22 454.66 517.72 455.19 517.2 455.7 516.65 456.17 516.07 456.61 515.47 457.02 514.84 457.4 514.2 457.74 513.54 458.05 512.85 458.32 512.16 458.55 511.45 458.74 510.73 458.9 510 459.02 509.26 459.1 508.52 459.14 507.77 459.14 507.03 459.1 506.28 459.02 505.54 458.9 504.8 458.74 504.07 458.55 503.35 458.32 502.64 458.05 501.95 457.74 501.26 457.4 500.6 457.02 499.96 456.61 499.33 456.17 498.73 455.7 498.15 455.19 497.6 454.66 497.08 454.1 496.58 453.52 496.12 452.91 495.68 452.28 495.28 451.63 494.91 450.97 494.58 450.28 494.28 449.58 494.02 448.87 493.8 448.15 493.61 447.41 493.47 446.68 493.36 445.93 493.29 445.19 493.26 444.44 493.27 443.7 493.32 442.95 493.41 442.22 493.54 441.49 493.7 440.77 493.91 440.07 494.15 439.37 494.43 438.7 494.74 438.04 495.09 437.4 495.48 436.78 495.9 436.18 496.34 435.61 496.83 435.07 497.34 434.55 497.87 434.06 498.44 433.6 499.03 433.18 499.64 432.79 500.28 432.43 500.93 432.1 501.6 431.81 502.29 431.56 503 431.35 503.71 431.17 504.44 431.04 505.17 430.94 505.91 430.88 506.65 430.86 507.4 M 530 527.4 530 577.4 M 600 577.4 600 527.4 M 790 474.9 790 629.9 990 629.9 990 579.9 988.96 579.88 987.92 579.82 986.88 579.72 985.85 579.59 984.83 579.41 983.81 579.19 982.8 578.94 981.8 578.65 980.81 578.32 979.84 577.95 978.88 577.55 977.93 577.11 977.01 576.64 976.1 576.13 975.21 575.59 974.35 575.01 973.5 574.4 972.68 573.76 971.88 573.09 971.11 572.39 970.37 571.66 969.66 570.9 968.97 570.12 968.32 569.31 967.69 568.48 967.1 567.62 966.54 566.75 966.01 565.85 965.52 564.93 965.06 564 964.64 563.04 964.26 562.08 963.91 561.1 963.6 560.1 963.33 559.1 963.09 558.08 962.9 557.06 962.74 556.03 962.62 555 962.54 553.96 962.5 552.92 962.5 551.88 962.54 550.84 962.62 549.8 962.74 548.77 962.9 547.74 963.09 546.72 963.33 545.7 963.6 544.7 963.91 543.7 964.26 542.72 964.64 541.76 965.06 540.8 965.52 539.87 966.01 538.95 966.54 538.05 967.1 537.18 967.69 536.32 968.32 535.49 968.97 534.68 969.66 533.9 970.37 533.14 971.11 532.41 971.88 531.71 972.68 531.04 973.5 530.4 974.35 529.79 975.21 529.21 976.1 528.67 977.01 528.16 977.93 527.69 978.88 527.25 979.84 526.85 980.81 526.48 981.8 526.15 982.8 525.86 983.81 525.61 984.83 525.39 985.85 525.21 986.88 525.08 987.92 524.98 988.96 524.92 990 524.9 990 474.9 790 474.9 M 930.86 507.4 930.88 508.15 930.94 508.89 931.04 509.63 931.17 510.36 931.35 511.09 931.56 511.8 931.81 512.51 932.1 513.2 932.43 513.87 932.79 514.52 933.18 515.16 933.6 515.77 934.06 516.36 934.55 516.93 935.07 517.46 935.61 517.97 936.18 518.46 936.78 518.9 937.4 519.32 938.04 519.71 938.7 520.06 939.37 520.37 940.07 520.65 940.77 520.89 941.49 521.1 942.22 521.26 942.95 521.39 943.7 521.48 944.44 521.53 945.19 521.54 945.93 521.51 946.68 521.44 947.41 521.33 948.15 521.19 948.87 521 949.58 520.78 950.28 520.52 950.97 520.22 951.63 519.89 952.28 519.52 952.91 519.12 953.52 518.68 954.1 518.22 954.66 517.72 955.19 517.2 955.7 516.65 956.17 516.07 956.61 515.47 957.02 514.84 957.4 514.2 957.74 513.54 958.05 512.85 958.32 512.16 958.55 511.45 958.74 510.73 958.9 510 959.02 509.26 959.1 508.52 959.14 507.77 959.14 507.03 959.1 506.28 959.02 505.54 958.9 504.8 958.74 504.07 958.55 503.35 958.32 502.64 958.05 501.95 957.74 501.26 957.4 500.6 957.02 499.96 956.61 499.33 956.17 498.73 955.7 498.15 955.19 497.6 954.66 497.08 954.1 496.58 953.52 496.12 952.91 495.68 952.28 495.28 951.63 494.91 950.97 494.58 950.28 494.28 949.58 494.02 948.87 493.8 948.15 493.61 947.41 493.47 946.68 493.36 945.93 493.29 945.19 493.26 944.44 493.27 943.7 493.32 942.95 493.41 942.22 493.54 941.49 493.7 940.77 493.91 940.07 494.15 939.37 494.43 938.7 494.74 938.04 495.09 937.4 495.48 936.78 495.9 936.18 496.34 935.61 496.83 935.07 497.34 934.55 497.87 934.06 498.44 933.6 499.03 933.18 499.64 932.79 500.28 932.43 500.93 932.1 501.6 931.81 502.29 931.56 503 931.35 503.71 931.17 504.44 931.04 505.17 930.94 505.91 930.88 506.65 930.86 507.4 M 1034 526.4 1057 526.4 M 1034 526.4 1034 555.4 M 1085 578.4 1095 578.4 M 1146 555.4 1146 526.4 1123 526.4 M 1126 651.4 1126 693.44 1097.98 651.4 1097.98 693.44 M 1079.96 679.43 1065.95 693.44 1065.95 651.4 M 1079.96 651.4 1051.94 651.4 M 926.6 728.51 919.59 721.5 905.58 721.5 898.57 728.51 898.57 763.54 M 880.56 749.52 866.55 763.54 866.55 721.5 M 880.56 721.5 852.54 721.5 M 926.6 728.51 926.6 763.54 M 602 716.43 602 688.41 594.99 681.4 580.98 681.4 573.98 688.41 M 555.96 681.4 527.94 681.4 M 541.95 681.4 541.95 723.44 555.96 709.43 M 573.98 716.43 580.98 723.44 594.99 723.44 602 716.43 M 426.6 728.51 419.59 721.5 405.58 721.5 398.57 728.51 398.57 763.54 M 380.56 756.53 373.55 763.54 359.54 763.54 352.54 756.53 352.54 749.52 380.56 721.5 352.54 721.5 M 426.6 728.51 426.6 763.54 M 225.13 675.56 225.13 661.55 218.13 654.54 M 225.13 675.56 218.13 682.56 211.12 682.56 183.1 654.54 183.1 682.56 M 150 671.52 150 621.52 M 183.1 615.51 183.1 629.52 190.1 636.52 M 183.1 615.51 190.1 608.5 218.13 608.5 225.13 615.51 225.13 629.52 218.13 636.52 M 80 621.52 80 671.52 M 686.94 348.13 686.94 341.13 714.96 313.1 714.96 306.1 M 732.98 306.1 746.99 320.11 M 739.98 320.11 732.98 327.12 732.98 341.13 739.98 348.13 761 348.13 761 306.1 M 761 320.11 739.98 320.11 M 714.96 348.13 686.94 348.13 M 686.94 248.13 700.95 241.13 714.96 227.12 693.94 227.12 686.94 220.11 686.94 213.1 693.94 206.1 707.95 206.1 714.96 213.1 714.96 227.12 M 732.98 227.12 732.98 241.13 739.98 248.13 761 248.13 761 206.1 M 761 220.11 739.98 220.11 732.98 227.12 M 746.99 220.11 732.98 206.1 M 865 192.4 915 192.4 M 915 262.4 865 262.4 M 865 292.4 915 292.4 M 915 362.4 865 362.4 M 1094 368.95 1094 340.93 1122.02 368.95 1129.03 368.95 1136.04 361.94 1136.04 347.93 1129.03 340.93 M 1129.03 322.91 1101.01 322.91 1094 315.9 1094 294.89 1136.04 294.89 1136.04 315.9 1129.03 322.91 M 1194 315.9 1194 294.89 1236.04 294.89 1236.04 315.9 1229.03 322.91 1201.01 322.91 1194 315.9 M 1194 340.93 1194 368.95 M 1194 354.94 1236.04 354.94 1222.02 340.93 M 1250 195.89 1250 145.89 M 1233.62 159.07 1196.38 159.07 1215 182.7 1233.62 159.07 M 1234.56 182.7 1215 182.7 1195.44 182.7 M 1180 195.89 1180 145.89 M 1150 145.89 1150 195.89 M 1134.56 182.7 1115 182.7 1096.38 159.07 1133.62 159.07 1115 182.7 1095.44 182.7 M 1080 195.89 1080 145.89" fill="none" stroke-width="8"/></g><g id="khKsiHHkkhVFdp_VWcmw_bottom_copper"><path d="M 305.21 455.89 324.79 455.89 324.79 412.69 305.21 412.69 305.21 455.89 M 305.21 420.67 324.79 420.67 M 324.79 428.65 305.21 428.65 M 305.21 436.63 324.79 436.63 M 324.79 444.61 305.21 444.61 M 305.21 452.59 324.79 452.59 M 355.21 455.89 374.79 455.89 374.79 412.69 355.21 412.69 355.21 455.89 M 355.21 420.67 374.79 420.67 M 374.79 428.65 355.21 428.65 M 355.21 436.63 374.79 436.63 M 374.79 444.61 355.21 444.61 M 355.21 452.59 374.79 452.59 M 405.21 455.89 424.79 455.89 424.79 412.69 405.21 412.69 405.21 455.89 M 405.21 420.67 424.79 420.67 M 424.79 428.65 405.21 428.65 M 405.21 436.63 424.79 436.63 M 424.79 444.61 405.21 444.61 M 405.21 452.59 424.79 452.59 M 455.21 455.89 474.79 455.89 474.79 412.69 455.21 412.69 455.21 455.89 M 455.21 420.67 474.79 420.67 M 474.79 428.65 455.21 428.65 M 455.21 436.63 474.79 436.63 M 474.79 444.61 455.21 444.61 M 455.21 452.59 474.79 452.59 M 805.21 456 824.79 456 824.79 412.8 805.21 412.8 805.21 456 M 805.21 420.78 824.79 420.78 M 824.79 428.76 805.21 428.76 M 805.21 436.74 824.79 436.74 M 824.79 444.72 805.21 444.72 M 805.21 452.7 824.79 452.7 M 855.21 456 874.79 456 874.79 412.8 855.21 412.8 855.21 456 M 855.21 420.78 874.79 420.78 M 874.79 428.76 855.21 428.76 M 855.21 436.74 874.79 436.74 M 874.79 444.72 855.21 444.72 M 855.21 452.7 874.79 452.7 M 905.21 456 924.79 456 924.79 412.8 905.21 412.8 905.21 456 M 905.21 420.78 924.79 420.78 M 924.79 428.76 905.21 428.76 M 905.21 436.74 924.79 436.74 M 924.79 444.72 905.21 444.72 M 905.21 452.7 924.79 452.7 M 955.21 456 974.79 456 974.79 412.8 955.21 412.8 955.21 456 M 955.21 420.78 974.79 420.78 M 974.79 428.76 955.21 428.76 M 955.21 436.74 974.79 436.74 M 974.79 444.72 955.21 444.72 M 955.21 452.7 974.79 452.7 M 974.79 692 955.21 692 M 974.79 692 974.79 648.8 955.21 648.8 955.21 692 M 955.21 656.78 974.79 656.78 M 974.79 664.76 955.21 664.76 M 955.21 672.74 974.79 672.74 M 974.79 680.72 955.21 680.72 M 955.21 688.7 974.79 688.7 M 924.79 692 905.21 692 M 924.79 692 924.79 648.8 905.21 648.8 905.21 692 M 905.21 656.78 924.79 656.78 M 924.79 664.76 905.21 664.76 M 905.21 672.74 924.79 672.74 M 924.79 680.72 905.21 680.72 M 905.21 688.7 924.79 688.7 M 874.79 692 855.21 692 M 874.79 692 874.79 648.8 855.21 648.8 855.21 692 M 855.21 656.78 874.79 656.78 M 874.79 664.76 855.21 664.76 M 855.21 672.74 874.79 672.74 M 874.79 680.72 855.21 680.72 M 855.21 688.7 874.79 688.7 M 824.79 692 805.21 692 M 824.79 692 824.79 648.8 805.21 648.8 805.21 692 M 805.21 656.78 824.79 656.78 M 824.79 664.76 805.21 664.76 M 805.21 672.74 824.79 672.74 M 824.79 680.72 805.21 680.72 M 805.21 688.7 824.79 688.7 M 474.79 692.11 455.21 692.11 M 474.79 692.11 474.79 648.91 455.21 648.91 455.21 692.11 M 455.21 656.89 474.79 656.89 M 474.79 664.87 455.21 664.87 M 455.21 672.85 474.79 672.85 M 474.79 680.83 455.21 680.83 M 455.21 688.81 474.79 688.81 M 424.79 692.11 405.21 692.11 M 424.79 692.11 424.79 648.91 405.21 648.91 405.21 692.11 M 405.21 656.89 424.79 656.89 M 424.79 664.87 405.21 664.87 M 405.21 672.85 424.79 672.85 M 424.79 680.83 405.21 680.83 M 405.21 688.81 424.79 688.81 M 374.79 692.11 355.21 692.11 M 374.79 692.11 374.79 648.91 355.21 648.91 355.21 692.11 M 355.21 656.89 374.79 656.89 M 374.79 664.87 355.21 664.87 M 355.21 672.85 374.79 672.85 M 374.79 680.83 355.21 680.83 M 355.21 688.81 374.79 688.81 M 324.79 692.11 305.21 692.11 M 324.79 692.11 324.79 648.91 305.21 648.91 305.21 692.11 M 305.21 656.89 324.79 656.89 M 324.79 664.87 305.21 664.87 M 305.21 672.85 324.79 672.85 M 324.79 680.83 305.21 680.83 M 305.21 688.81 324.79 688.81" fill="none" stroke-width="7.99"/><path d="M 1036.85 572.08 1068.35 572.08 M 1036.85 572.08 1036.85 619.34 1068.35 619.34 1068.35 572.08 M 1068.35 579.94 1036.85 579.94 M 1036.85 587.8 1068.35 587.8 M 1068.35 595.66 1036.85 595.66 M 1036.85 603.52 1068.35 603.52 M 1068.35 611.38 1036.85 611.38 M 1036.85 619.24 1068.35 619.24 M 1111.65 572.08 1143.15 572.08 M 1111.65 572.08 1111.65 619.34 1143.15 619.34 1143.15 572.08 M 1143.15 579.94 1111.65 579.94 M 1111.65 587.8 1143.15 587.8 M 1143.15 595.66 1111.65 595.66 M 1111.65 603.52 1143.15 603.52 M 1143.15 611.38 1111.65 611.38 M 1111.65 619.24 1143.15 619.24 M 1105.75 485.46 1074.25 485.46 1074.25 532.72 1105.75 532.72 1105.75 485.46 M 1105.75 493.32 1074.25 493.32 M 1074.25 501.18 1105.75 501.18 M 1105.75 509.04 1074.25 509.04 M 1074.25 516.9 1105.75 516.9 M 1105.75 524.76 1074.25 524.76 M 1074.25 532.62 1105.75 532.62" fill="none" stroke-width="7.87"/><path d="M 983.88 362.64 933.08 362.64 M 983.88 362.64 983.88 292.16 933.08 292.16 933.08 362.64 M 933.08 300.42 983.88 300.42 M 983.88 308.68 933.08 308.68 M 933.08 316.94 983.88 316.94 M 983.88 325.2 933.08 325.2 M 933.08 333.46 983.88 333.46 M 983.88 341.72 933.08 341.72 M 933.08 349.98 983.88 349.98 M 983.88 358.24 933.08 358.24 M 846.92 362.64 796.12 362.64 M 846.92 362.64 846.92 292.16 796.12 292.16 796.12 362.64 M 796.12 300.42 846.92 300.42 M 846.92 308.68 796.12 308.68 M 796.12 316.94 846.92 316.94 M 846.92 325.2 796.12 325.2 M 796.12 333.46 846.92 333.46 M 846.92 341.72 796.12 341.72 M 796.12 349.98 846.92 349.98 M 846.92 358.24 796.12 358.24 M 796.12 262.64 846.92 262.64 846.92 192.16 796.12 192.16 796.12 262.64 M 796.12 200.42 846.92 200.42 M 846.92 208.68 796.12 208.68 M 796.12 216.94 846.92 216.94 M 846.92 225.2 796.12 225.2 M 796.12 233.46 846.92 233.46 M 846.92 241.72 796.12 241.72 M 796.12 249.98 846.92 249.98 M 846.92 258.24 796.12 258.24 M 933.08 262.64 983.88 262.64 983.88 192.16 933.08 192.16 933.08 262.64 M 933.08 200.42 983.88 200.42 M 983.88 208.68 933.08 208.68 M 933.08 216.94 983.88 216.94 M 983.88 225.2 933.08 225.2 M 933.08 233.46 983.88 233.46 M 983.88 241.72 933.08 241.72 M 933.08 249.98 983.88 249.98 M 983.88 258.24 933.08 258.24 M 1150.24 264.77 1150.24 213.97 1079.76 213.97 1079.76 264.77 1150.24 264.77 M 1150.24 222.23 1079.76 222.23 M 1079.76 230.49 1150.24 230.49 M 1150.24 238.75 1079.76 238.75 M 1079.76 247.01 1150.24 247.01 M 1150.24 255.27 1079.76 255.27 M 1079.76 263.53 1150.24 263.53 M 1250.24 264.77 1250.24 213.97 1179.76 213.97 1179.76 264.77 1250.24 264.77 M 1250.24 222.23 1179.76 222.23 M 1179.76 230.49 1250.24 230.49 M 1250.24 238.75 1179.76 238.75 M 1179.76 247.01 1250.24 247.01 M 1250.24 255.27 1179.76 255.27 M 1179.76 263.53 1250.24 263.53 M 1250.24 127.8 1250.24 77 1179.76 77 1179.76 127.8 1250.24 127.8 M 1250.24 85.26 1179.76 85.26 M 1179.76 93.52 1250.24 93.52 M 1250.24 101.78 1179.76 101.78 M 1179.76 110.04 1250.24 110.04 M 1250.24 118.3 1179.76 118.3 M 1179.76 126.56 1250.24 126.56 M 1150.24 127.8 1150.24 77 1079.76 77 1079.76 127.8 1150.24 127.8 M 1150.24 85.26 1079.76 85.26 M 1079.76 93.52 1150.24 93.52 M 1150.24 101.78 1079.76 101.78 M 1079.76 110.04 1150.24 110.04 M 1150.24 118.3 1079.76 118.3 M 1079.76 126.56 1150.24 126.56 M 600.24 458.52 600.24 509.32 M 600.24 458.52 529.76 458.52 529.76 509.32 600.24 509.32 M 600.24 466.78 529.76 466.78 M 529.76 475.04 600.24 475.04 M 600.24 483.3 529.76 483.3 M 529.76 491.56 600.24 491.56 M 600.24 499.82 529.76 499.82 M 529.76 508.08 600.24 508.08 M 600.24 595.49 600.24 646.29 M 600.24 595.49 529.76 595.49 529.76 646.29 600.24 646.29 M 600.24 603.75 529.76 603.75 M 529.76 612.01 600.24 612.01 M 600.24 620.27 529.76 620.27 M 529.76 628.53 600.24 628.53 M 600.24 636.79 529.76 636.79 M 529.76 645.05 600.24 645.05 M 150.24 603.43 150.24 552.63 79.76 552.63 79.76 603.43 150.24 603.43 M 150.24 560.89 79.76 560.89 M 79.76 569.15 150.24 569.15 M 150.24 577.41 79.76 577.41 M 79.76 585.67 150.24 585.67 M 150.24 593.93 79.76 593.93 M 79.76 602.19 150.24 602.19 M 150.24 689.6 150.24 740.4 M 150.24 689.6 79.76 689.6 79.76 740.4 150.24 740.4 M 150.24 697.86 79.76 697.86 M 79.76 706.12 150.24 706.12 M 150.24 714.38 79.76 714.38 M 79.76 722.64 150.24 722.64 M 150.24 730.9 79.76 730.9 M 79.76 739.16 150.24 739.16 M 296.12 362.64 346.92 362.64 346.92 292.16 296.12 292.16 296.12 362.64 M 296.12 300.42 346.92 300.42 M 346.92 308.68 296.12 308.68 M 296.12 316.94 346.92 316.94 M 346.92 325.2 296.12 325.2 M 296.12 333.46 346.92 333.46 M 346.92 341.72 296.12 341.72 M 296.12 349.98 346.92 349.98 M 346.92 358.24 296.12 358.24 M 433.08 362.64 483.88 362.64 483.88 292.16 433.08 292.16 433.08 362.64 M 433.08 300.42 483.88 300.42 M 483.88 308.68 433.08 308.68 M 433.08 316.94 483.88 316.94 M 483.88 325.2 433.08 325.2 M 433.08 333.46 483.88 333.46 M 483.88 341.72 433.08 341.72 M 433.08 349.98 483.88 349.98 M 483.88 358.24 433.08 358.24 M 79.76 264.77 79.76 213.97 M 79.76 264.77 150.24 264.77 150.24 213.97 79.76 213.97 M 79.76 222.23 150.24 222.23 M 150.24 230.49 79.76 230.49 M 79.76 238.75 150.24 238.75 M 150.24 247.01 79.76 247.01 M 79.76 255.27 150.24 255.27 M 150.24 263.53 79.76 263.53 M 79.76 127.8 79.76 77 M 79.76 127.8 150.24 127.8 150.24 77 79.76 77 M 79.76 85.26 150.24 85.26 M 150.24 93.52 79.76 93.52 M 79.76 101.78 150.24 101.78 M 150.24 110.04 79.76 110.04 M 79.76 118.3 150.24 118.3 M 150.24 126.56 79.76 126.56" fill="none" stroke-width="8.27"/><use xlink:href="#jvmGJlD0gRSXFa9fRS_i_pad-13" x="290" y="102.4"/><use xlink:href="#jvmGJlD0gRSXFa9fRS_i_pad-13" x="990" y="102.4"/><use xlink:href="#jvmGJlD0gRSXFa9fRS_i_pad-14" x="890" y="102.4"/><use xlink:href="#jvmGJlD0gRSXFa9fRS_i_pad-14" x="790" y="102.4"/><use xlink:href="#jvmGJlD0gRSXFa9fRS_i_pad-14" x="590" y="102.4"/><use xlink:href="#jvmGJlD0gRSXFa9fRS_i_pad-14" x="490" y="102.4"/><use xlink:href="#jvmGJlD0gRSXFa9fRS_i_pad-14" x="390" y="102.4"/><use xlink:href="#jvmGJlD0gRSXFa9fRS_i_pad-14" x="215" y="343.7"/><use xlink:href="#jvmGJlD0gRSXFa9fRS_i_pad-14" x="115" y="343.7"/><use xlink:href="#jvmGJlD0gRSXFa9fRS_i_pad-14" x="115" y="473.7"/><use xlink:href="#jvmGJlD0gRSXFa9fRS_i_pad-14" x="215" y="473.7"/><use xlink:href="#jvmGJlD0gRSXFa9fRS_i_pad-15" x="400" y="370"/><use xlink:href="#jvmGJlD0gRSXFa9fRS_i_pad-15" x="515" y="420"/><use xlink:href="#jvmGJlD0gRSXFa9fRS_i_pad-15" x="565" y="420"/><use xlink:href="#jvmGJlD0gRSXFa9fRS_i_pad-15" x="565" y="370"/><use xlink:href="#jvmGJlD0gRSXFa9fRS_i_pad-15" x="655" y="552.4"/><use xlink:href="#jvmGJlD0gRSXFa9fRS_i_pad-15" x="740" y="552.4"/><use xlink:href="#jvmGJlD0gRSXFa9fRS_i_pad-15" x="825" y="552.4"/><use xlink:href="#jvmGJlD0gRSXFa9fRS_i_pad-15" x="1020" y="440"/><use xlink:href="#jvmGJlD0gRSXFa9fRS_i_pad-15" x="1020" y="390"/><use xlink:href="#jvmGJlD0gRSXFa9fRS_i_pad-15" x="1115" y="390"/><use xlink:href="#jvmGJlD0gRSXFa9fRS_i_pad-15" x="1215" y="390"/><use xlink:href="#jvmGJlD0gRSXFa9fRS_i_pad-15" x="1155" y="509.09"/><use xlink:href="#jvmGJlD0gRSXFa9fRS_i_pad-15" x="255" y="622.4"/><use xlink:href="#jvmGJlD0gRSXFa9fRS_i_pad-15" x="195" y="702.4"/><use xlink:href="#jvmGJlD0gRSXFa9fRS_i_pad-15" x="260" y="262.4"/><path d="M 260 262.4 321.52 323.92 321.52 327.4 M 400 370 415 385 415 434.29 M 465 434.29 465 333.92 458.48 327.4 458.48 245.98 390 177.5 390 102.4 M 490 102.4 490 177.5 746.9 434.4 815 434.4 815 472.4 895 552.4 1009.29 552.4 1052.6 595.71 1052.6 642.6 1085 675 1165 675 1200 640 1200 490 1145 435 1095 435 1065 405 1065 330 958.48 223.48 958.48 227.4 M 821.52 227.4 715 227.4 590 102.4 M 821.52 227.4 821.52 327.4 865 370.89 865 434.4 M 915 434.4 915 472.4 951.69 509.09 1090 509.09 M 980.31 625 812.6 625 740 552.4 M 655 552.4 633.48 552.4 565 620.89 515.37 670.51 465 670.51 M 565 620.89 565 612.4 M 565 620.89 571.52 620.89 M 647 670.4 575 742.4 285 742.4 255 712.4 255 622.4 M 195 585 195 702.4 115 702.4 115 715 M 195 585 275 505 330 505 365 470 365 434.29 M 315 435 315 395 M 275 403.7 215 343.7 M 275 403.7 275 505 M 400 370 400 272.4 332.6 205 227.6 205 125 102.4 115 102.4 M 565 370 642.6 370 825 552.4 M 980.31 625 981.17 625.02 982.03 625.07 982.88 625.17 983.73 625.3 984.57 625.47 985.41 625.67 986.23 625.91 987.04 626.19 987.85 626.5 988.63 626.84 989.4 627.22 990.16 627.64 990.89 628.08 991.6 628.56 992.3 629.07 992.97 629.61 993.61 630.17 994.23 630.77 994.83 631.39 995.39 632.03 995.93 632.7 996.44 633.4 996.92 634.11 997.36 634.85 997.78 635.6 998.16 636.37 998.5 637.15 998.81 637.96 999.09 638.77 999.33 639.59 999.53 640.43 999.7 641.27 999.83 642.12 999.93 642.97 999.98 643.83 1000 644.69 1000 740.31 999.98 741.17 999.93 742.03 999.83 742.88 999.7 743.73 999.53 744.57 999.33 745.41 999.09 746.23 998.81 747.04 998.5 747.85 998.16 748.63 997.78 749.4 997.36 750.16 996.92 750.89 996.44 751.6 995.93 752.3 995.39 752.97 994.83 753.61 994.23 754.23 993.61 754.83 992.97 755.39 992.3 755.93 991.6 756.44 990.89 756.92 990.16 757.36 989.4 757.78 988.63 758.16 987.85 758.5 987.04 758.81 986.23 759.09 985.41 759.33 984.57 759.53 983.73 759.7 982.88 759.83 982.03 759.93 981.17 759.98 980.31 760 853.69 760 852.83 759.98 851.97 759.93 851.12 759.83 850.27 759.7 849.43 759.53 848.59 759.33 847.77 759.09 846.96 758.81 846.15 758.5 845.37 758.16 844.6 757.78 843.85 757.36 843.11 756.92 842.4 756.44 841.7 755.93 841.03 755.39 840.39 754.83 839.77 754.23 839.17 753.61 838.61 752.97 838.07 752.3 837.56 751.6 837.08 750.89 836.64 750.16 836.22 749.4 835.84 748.63 835.5 747.85 835.19 747.04 834.91 746.23 834.67 745.41 834.47 744.57 834.3 743.73 834.17 742.88 834.07 742.03 834.02 741.17 834 740.31 834 739.69 834.02 738.83 834.07 737.97 834.17 737.12 834.3 736.27 834.47 735.43 834.67 734.59 834.91 733.77 835.19 732.96 835.5 732.15 835.84 731.37 836.22 730.6 836.64 729.85 837.08 729.11 837.56 728.4 838.07 727.7 838.61 727.03 839.17 726.39 839.77 725.77 840.39 725.17 841.03 724.61 841.7 724.07 842.4 723.56 843.11 723.08 843.85 722.64 844.6 722.22 845.37 721.84 846.15 721.5 846.96 721.19 847.77 720.91 848.59 720.67 849.43 720.47 850.27 720.3 851.12 720.17 851.97 720.07 852.83 720.02 853.69 720 895.31 720 896.17 719.98 897.03 719.93 897.88 719.83 898.73 719.7 899.57 719.53 900.41 719.33 901.23 719.09 902.04 718.81 902.85 718.5 903.63 718.16 904.4 717.78 905.16 717.36 905.89 716.92 906.6 716.44 907.3 715.93 907.97 715.39 908.61 714.83 909.23 714.23 909.83 713.61 910.39 712.97 910.93 712.3 911.44 711.6 911.92 710.89 912.36 710.16 912.78 709.4 913.16 708.63 913.5 707.85 913.81 707.04 914.09 706.23 914.33 705.41 914.53 704.57 914.7 703.73 914.83 702.88 914.93 702.03 914.98 701.17 915 700.31 915 670.4 965 670.4 M 865 670.4 815 670.4 647 670.4 M 915 434.4 915 370.89 958.48 327.4 M 1115 390 1115 239.37 M 1215 239.37 1215 390" fill="none" stroke-width="19.69"/><path d="M 49.42 29.49 40.28 33.28 33.28 40.28 29.49 49.42 29 54.37 29 763.03 29.49 767.98 33.28 777.13 40.28 784.13 49.42 787.91 54.37 788.4 1274.84 788.4 1279.79 787.91 1288.94 784.13 1295.94 777.13 1299.73 767.98 1300.21 763.03 1300.21 54.37 1299.73 49.42 1295.94 40.28 1288.94 33.28 1279.79 29.49 1274.84 29 54.37 29 49.42 29.49 M 38.58 34.97 1290.63 34.97 M 1297.88 44.96 31.34 44.96 M 29 54.94 241.44 54.94 M 240.6 55.79 243.39 53 246.81 51.02 250.62 50 285.16 50 285.16 97.56 294.84 97.56 294.84 50 329.38 50 333.19 51.02 336.61 53 339.4 55.79 341.38 59.21 342.4 63.03 342.4 88.22 348.12 74.42 362.02 60.52 380.17 53 399.83 53 417.98 60.52 431.88 74.42 439.4 92.57 439.4 112.23 431.88 130.39 417.98 144.28 411.84 146.83 411.84 168.45 480.33 236.94 480.33 276.03 490.56 276.03 500.01 285.48 500.01 369.32 490.56 378.77 486.84 378.77 486.84 402.13 490.78 406.07 490.78 462.51 481.41 471.88 448.59 471.88 440 463.29 431.41 471.88 398.59 471.88 390 463.29 386.84 466.45 386.84 479.05 351.84 514.05 339.05 526.84 284.05 526.84 216.84 594.05 216.84 680.83 221.03 685.01 225.7 696.29 225.7 708.51 221.03 719.79 212.39 728.43 201.11 733.1 188.89 733.1 177.61 728.43 173.42 724.24 166.37 724.24 166.37 747.08 156.92 756.53 73.08 756.53 63.63 747.08 63.63 682.92 73.08 673.47 156.92 673.47 164.01 680.56 173.16 680.56 173.16 575.95 226.84 522.27 224.83 523.1 205.17 523.1 187.02 515.58 173.12 501.68 165.6 483.53 165.6 463.87 173.12 445.72 187.02 431.82 205.17 424.3 224.83 424.3 242.98 431.82 253.16 441.99 253.16 412.75 230.97 390.56 224.83 393.1 205.17 393.1 187.02 385.58 173.12 371.68 165.6 353.53 165.6 333.87 173.12 315.72 187.02 301.82 205.17 294.3 224.83 294.3 242.98 301.82 256.88 315.72 264.4 333.87 264.4 353.53 261.86 359.67 296.84 394.65 296.84 395.6 297.88 395 302.72 393.7 313.11 393.7 313.11 432.4 316.89 432.4 316.89 393.7 327.28 393.7 332.12 395 336.45 397.5 339.98 401.03 341.55 403.74 348.59 396.7 381.41 396.7 390 405.29 393.16 402.13 393.16 400.4 382.61 396.03 373.97 387.39 369.3 376.11 369.3 363.89 373.97 352.61 378.16 348.42 378.16 281.45 323.55 226.84 218.55 226.84 135.64 143.93 73.08 143.93 63.63 134.48 63.63 70.32 73.08 60.87 156.92 60.87 166.37 70.32 166.37 112.88 236.65 183.16 341.65 183.16 421.84 263.35 421.84 280.6 426.41 276.03 436.64 276.03 436.64 255.03 368.16 186.55 368.16 146.83 362.02 144.28 348.12 130.39 342.4 116.58 342.4 141.78 341.38 145.59 339.4 149.01 336.61 151.81 333.19 153.78 329.38 154.8 294.84 154.8 294.84 107.24 285.16 107.24 285.16 97.56 237.6 97.56 237.6 63.03 238.62 59.21 240.6 55.79 M 237.6 64.93 160.97 64.93 M 166.37 74.91 237.6 74.91 M 237.6 84.9 166.37 84.9 M 166.37 94.88 237.6 94.88 M 237.6 107.24 237.6 141.78 238.62 145.59 240.6 149.01 243.39 151.81 246.81 153.78 250.62 154.8 285.16 154.8 285.16 107.24 237.6 107.24 M 237.6 114.85 168.34 114.85 M 178.32 124.84 237.6 124.84 M 237.6 134.82 188.31 134.82 M 198.29 144.81 238.41 144.81 M 250.58 154.79 208.28 154.79 M 218.27 164.78 368.16 164.78 M 368.16 174.76 228.25 174.76 M 186.44 194.73 29 194.73 M 29 184.75 176.46 184.75 M 166.47 174.76 29 174.76 M 29 164.78 156.49 164.78 M 146.5 154.79 29 154.79 M 29 144.81 136.52 144.81 M 166.37 104.87 285.16 104.87 M 285.16 94.88 294.84 94.88 M 294.84 84.9 285.16 84.9 M 285.16 74.91 294.84 74.91 M 294.84 64.93 285.16 64.93 M 285.16 54.94 294.84 54.94 M 338.56 54.94 375.49 54.94 M 357.61 64.93 342.4 64.93 M 342.4 74.91 347.92 74.91 M 343.78 84.9 342.4 84.9 M 294.84 114.85 285.16 114.85 M 285.16 124.84 294.84 124.84 M 294.84 134.82 285.16 134.82 M 285.16 144.81 294.84 144.81 M 294.84 154.79 285.16 154.79 M 329.42 154.79 368.16 154.79 M 363.28 144.81 341.59 144.81 M 342.4 134.82 352.56 134.82 M 345.82 124.84 342.4 124.84 M 411.84 154.79 468.16 154.79 M 468.16 146.83 462.02 144.28 448.12 130.39 440.6 112.23 440.6 92.57 448.12 74.42 462.02 60.52 480.17 53 499.83 53 517.98 60.52 531.88 74.42 539.4 92.57 539.4 112.23 531.88 130.39 517.98 144.28 511.84 146.83 511.84 168.45 755.95 412.56 789.22 412.56 789.22 406.18 798.59 396.81 831.41 396.81 840 405.4 843.16 402.24 843.16 379.93 842 378.77 789.44 378.77 779.99 369.32 779.99 285.48 788.07 277.4 779.99 269.32 779.99 249.24 705.95 249.24 693.16 236.45 605.97 149.26 599.83 151.8 580.17 151.8 562.02 144.28 548.12 130.39 540.6 112.23 540.6 92.57 548.12 74.42 562.02 60.52 580.17 53 599.83 53 617.98 60.52 631.88 74.42 639.4 92.57 639.4 112.23 636.86 118.37 724.05 205.56 779.99 205.56 779.99 185.48 789.44 176.03 853.59 176.03 863.04 185.48 863.04 269.32 854.96 277.4 863.04 285.48 863.04 338.04 886.84 361.84 886.84 402.24 890 405.4 893.16 402.24 893.16 361.84 916.96 338.04 916.96 285.48 925.04 277.4 916.96 269.32 916.96 185.48 926.41 176.03 990.56 176.03 1000.01 185.48 1000.01 234.12 1074.05 308.16 1086.84 320.95 1086.84 377.75 1088.97 372.61 1093.16 368.42 1093.16 280.9 1073.08 280.9 1063.63 271.45 1063.63 207.29 1073.08 197.84 1156.92 197.84 1165 205.92 1173.08 197.84 1256.92 197.84 1266.37 207.29 1266.37 271.45 1256.92 280.9 1236.84 280.9 1236.84 368.42 1241.03 372.61 1245.7 383.89 1245.7 396.11 1241.03 407.39 1232.39 416.03 1221.11 420.7 1208.89 420.7 1197.61 416.03 1188.97 407.39 1184.3 396.11 1184.3 383.89 1188.97 372.61 1193.16 368.42 1193.16 280.9 1173.08 280.9 1165 272.82 1156.92 280.9 1136.84 280.9 1136.84 368.42 1141.03 372.61 1145.7 383.89 1145.7 396.11 1141.03 407.39 1135.26 413.16 1154.05 413.16 1209.05 468.16 1221.84 480.95 1221.84 649.05 1174.05 696.84 1075.95 696.84 1043.55 664.44 1030.76 651.65 1030.76 635.27 1030.25 635.27 1020.91 625.93 1020.91 594.91 1000.24 574.24 885.95 574.24 854.07 542.36 855.7 546.29 855.7 558.51 851.03 569.79 842.39 578.43 831.11 583.1 818.89 583.1 807.61 578.43 798.97 569.79 794.3 558.51 794.3 552.59 633.55 391.84 586.57 391.84 582.39 396.03 571.11 400.7 558.89 400.7 547.61 396.03 538.97 387.39 534.3 376.11 534.3 363.89 538.97 352.61 547.61 343.97 558.89 339.3 571.11 339.3 582.39 343.97 586.57 348.16 629.77 348.16 468.16 186.55 468.16 146.83 M 463.28 144.81 416.72 144.81 M 427.44 134.82 452.56 134.82 M 445.82 124.84 434.18 124.84 M 438.31 114.85 441.69 114.85 M 440.6 104.87 439.4 104.87 M 439.4 94.88 440.6 94.88 M 443.78 84.9 436.22 84.9 M 432.08 74.91 447.92 74.91 M 457.61 64.93 422.39 64.93 M 404.51 54.94 475.49 54.94 M 504.51 54.94 575.49 54.94 M 557.61 64.93 522.39 64.93 M 532.08 74.91 547.92 74.91 M 543.78 84.9 536.22 84.9 M 539.4 94.88 540.6 94.88 M 540.6 104.87 539.4 104.87 M 538.31 114.85 541.69 114.85 M 545.82 124.84 534.18 124.84 M 527.44 134.82 552.56 134.82 M 563.28 144.81 516.72 144.81 M 511.84 154.79 611.5 154.79 M 621.49 164.78 511.84 164.78 M 518.15 174.76 631.47 174.76 M 641.46 184.75 528.14 184.75 M 538.12 194.73 651.44 194.73 M 661.43 204.72 548.11 204.72 M 558.09 214.7 671.41 214.7 M 681.4 224.69 568.08 224.69 M 578.06 234.67 691.38 234.67 M 701.37 244.66 588.05 244.66 M 598.03 254.64 779.99 254.64 M 779.99 264.63 608.02 264.63 M 618 274.61 785.28 274.61 M 780.87 284.6 627.99 284.6 M 637.97 294.58 779.99 294.58 M 779.99 304.57 647.96 304.57 M 657.94 314.55 779.99 314.55 M 779.99 324.54 667.93 324.54 M 677.91 334.52 779.99 334.52 M 779.99 344.51 687.9 344.51 M 697.88 354.49 779.99 354.49 M 779.99 364.48 707.87 364.48 M 717.85 374.46 785.13 374.46 M 790.98 404.42 747.81 404.42 M 737.82 394.43 843.16 394.43 M 843.16 384.45 727.84 384.45 M 666.1 424.39 490.78 424.39 M 490.78 414.4 656.11 414.4 M 646.13 404.42 489.13 404.42 M 486.84 394.43 546.02 394.43 M 537.75 384.45 486.84 384.45 M 494.87 374.46 534.3 374.46 M 534.3 364.48 500.01 364.48 M 500.01 354.49 538.19 354.49 M 547.07 344.51 500.01 344.51 M 500.01 334.52 616.13 334.52 M 606.15 324.54 500.01 324.54 M 500.01 314.55 596.16 314.55 M 586.18 304.57 500.01 304.57 M 500.01 294.58 576.19 294.58 M 566.21 284.6 499.13 284.6 M 480.33 274.61 556.22 274.61 M 546.24 264.63 480.33 264.63 M 480.33 254.64 536.25 254.64 M 526.27 244.66 480.33 244.66 M 478.06 234.67 516.28 234.67 M 506.3 224.69 468.08 224.69 M 458.09 214.7 496.31 214.7 M 486.33 204.72 448.11 204.72 M 438.12 194.73 476.34 194.73 M 468.16 184.75 428.14 184.75 M 418.15 174.76 468.16 174.76 M 468.16 164.78 411.84 164.78 M 376.34 194.73 353.22 194.73 M 343.24 184.75 368.16 184.75 M 363.21 204.72 386.33 204.72 M 396.31 214.7 373.19 214.7 M 383.18 224.69 406.3 224.69 M 416.28 234.67 393.16 234.67 M 403.15 244.66 426.27 244.66 M 436.25 254.64 413.13 254.64 M 421.84 264.63 436.64 264.63 M 436.64 274.61 421.84 274.61 M 378.16 284.6 362.16 284.6 M 363.04 285.48 363.04 369.32 353.59 378.77 289.44 378.77 279.99 369.32 279.99 313.28 259.81 293.1 253.89 293.1 242.61 288.43 233.97 279.79 229.3 268.51 229.3 256.29 233.97 245.01 242.61 236.37 253.89 231.7 266.11 231.7 277.39 236.37 286.03 245.01 290.7 256.29 290.7 262.21 304.52 276.03 353.59 276.03 363.04 285.48 M 371.32 274.61 303.1 274.61 M 293.12 264.63 361.34 264.63 M 351.35 254.64 290.02 254.64 M 285.67 244.66 341.37 244.66 M 331.38 234.67 273.28 234.67 M 246.72 234.67 120 234.67 M 120 234.37 120 244.37 169.37 244.37 169.37 267.28 168.07 272.15 165.55 276.51 161.98 280.07 157.62 282.59 152.76 283.9 120 283.9 120 244.37 110 244.37 110 234.37 120 234.37 169.37 234.37 169.37 211.46 168.07 206.59 165.55 202.23 161.98 198.67 157.62 196.15 152.76 194.84 120 194.84 120 234.37 M 120 224.69 110 224.69 M 110 234.37 110 194.84 77.24 194.84 72.38 196.15 68.02 198.67 64.45 202.23 61.93 206.59 60.63 211.46 60.63 234.37 110 234.37 M 110 234.67 29 234.67 M 29 224.69 60.63 224.69 M 60.63 214.7 29 214.7 M 29 204.72 63.02 204.72 M 60.63 244.37 110 244.37 110 283.9 77.24 283.9 72.38 282.59 68.02 280.07 64.45 276.51 61.93 272.15 60.63 267.28 60.63 244.37 M 60.63 244.66 29 244.66 M 29 254.64 60.63 254.64 M 60.63 264.63 29 264.63 M 29 274.61 63.36 274.61 M 29 284.6 238.78 284.6 M 231.83 274.61 166.64 274.61 M 169.37 264.63 229.3 264.63 M 229.98 254.64 169.37 254.64 M 169.37 244.66 234.33 244.66 M 216.4 224.69 169.37 224.69 M 169.37 214.7 206.41 214.7 M 196.43 204.72 166.98 204.72 M 120 204.72 110 204.72 M 110 214.7 120 214.7 M 120 244.66 110 244.66 M 110 254.64 120 254.64 M 120 264.63 110 264.63 M 110 274.61 120 274.61 M 124.83 294.3 105.17 294.3 87.02 301.82 73.12 315.72 65.6 333.87 65.6 353.53 73.12 371.68 87.02 385.58 105.17 393.1 124.83 393.1 142.98 385.58 156.88 371.68 164.4 353.53 164.4 333.87 156.88 315.72 142.98 301.82 124.83 294.3 M 125.51 294.58 204.49 294.58 M 225.51 294.58 261.29 294.58 M 271.28 304.57 245.73 304.57 M 255.72 314.55 279.99 314.55 M 279.99 324.54 260.53 324.54 M 264.4 334.52 279.99 334.52 M 279.99 344.51 264.4 344.51 M 264 354.49 279.99 354.49 M 279.99 364.48 266.67 364.48 M 276.65 374.46 285.13 374.46 M 286.64 384.45 372.75 384.45 M 381.02 394.43 330.02 394.43 M 316.89 394.43 313.11 394.43 M 313.11 404.42 316.89 404.42 M 316.89 414.4 313.11 414.4 M 313.11 424.39 316.89 424.39 M 316.89 436.18 313.11 436.18 313.11 474.88 302.72 474.88 297.88 473.59 296.84 472.99 296.84 483.16 320.95 483.16 329.94 474.17 327.28 474.88 316.89 474.88 316.89 436.18 M 316.89 444.36 313.11 444.36 M 313.11 454.34 316.89 454.34 M 316.89 464.33 313.11 464.33 M 313.11 474.32 316.89 474.32 M 329.4 474.32 329.79 474.32 M 300.6 474.32 296.84 474.32 M 351.63 514.26 511.28 514.26 M 510.63 511.83 510.63 488.92 560 488.92 560 528.44 527.24 528.44 522.38 527.14 518.02 524.62 514.45 521.06 511.93 516.7 510.63 511.83 M 510.63 504.27 361.62 504.27 M 371.6 494.29 510.63 494.29 M 510.63 478.92 510.63 456 511.93 451.14 514.45 446.78 518.02 443.21 522.38 440.69 527.24 439.39 560 439.39 560 478.92 510.63 478.92 M 510.63 474.32 386.84 474.32 M 381.59 484.3 560 484.3 M 560 488.92 560 478.92 570 478.92 570 488.92 560 488.92 M 560 494.29 570 494.29 M 570 488.92 570 528.44 602.76 528.44 607.62 527.14 611.98 524.62 615.55 521.06 618.07 516.7 619.37 511.83 619.37 488.92 570 488.92 M 570 484.3 726.01 484.3 M 735.99 494.29 619.37 494.29 M 619.37 504.27 745.98 504.27 M 755.96 514.26 618.72 514.26 M 612.37 524.24 642.76 524.24 M 637.61 526.37 648.89 521.7 661.11 521.7 672.39 526.37 681.03 535.01 685.7 546.29 685.7 558.51 681.03 569.79 672.39 578.43 661.11 583.1 648.89 583.1 638.13 578.64 616.37 600.41 616.37 652.96 606.92 662.41 554.36 662.41 537.22 679.56 524.42 692.35 490.78 692.35 490.78 698.73 481.41 708.1 448.59 708.1 440 699.51 431.41 708.1 398.59 708.1 390 699.51 381.41 708.1 348.59 708.1 340 699.51 331.41 708.1 298.59 708.1 289.22 698.73 289.22 642.29 298.59 632.92 331.41 632.92 340 641.51 348.59 632.92 381.41 632.92 390 641.51 398.59 632.92 431.41 632.92 440 641.51 448.59 632.92 481.41 632.92 490.78 642.29 490.78 648.67 506.33 648.67 513.63 641.37 513.63 588.81 523.08 579.36 575.64 579.36 624.44 530.56 633.42 530.56 637.61 526.37 M 620.77 534.23 276.66 534.23 M 266.68 544.21 610.78 544.21 M 600.8 554.2 256.69 554.2 M 246.71 564.18 590.81 564.18 M 580.83 574.17 236.72 574.17 M 226.74 584.15 518.29 584.15 M 513.63 594.14 266.99 594.14 M 272.39 596.37 281.03 605.01 285.7 616.29 285.7 628.51 281.03 639.79 276.84 643.98 276.84 703.35 294.05 720.56 565.95 720.56 637.95 648.56 789.22 648.56 789.22 642.18 794.06 637.35 790.76 634.05 739.81 583.1 733.89 583.1 722.61 578.43 713.97 569.79 709.3 558.51 709.3 546.29 713.97 535.01 722.61 526.37 733.89 521.7 746.11 521.7 757.39 526.37 766.03 535.01 770.7 546.29 770.7 552.21 821.65 603.16 991.44 603.16 1010.72 614.28 1010.72 614.28 1010.72 614.28 1021.84 633.56 1021.84 751.44 1010.72 770.72 991.44 781.84 842.56 781.84 823.28 770.72 823.28 770.72 823.28 770.72 812.16 751.44 812.16 728.56 823.28 709.28 823.28 709.28 823.28 709.28 825.52 707.99 798.59 707.99 789.22 698.62 789.22 692.24 656.05 692.24 584.05 764.24 275.95 764.24 245.95 734.24 233.16 721.45 233.16 643.98 228.97 639.79 224.3 628.51 224.3 616.29 228.97 605.01 237.61 596.37 248.89 591.7 261.11 591.7 272.39 596.37 M 280.14 604.12 513.63 604.12 M 513.63 614.11 284.79 614.11 M 285.7 624.09 513.63 624.09 M 513.63 634.08 482.56 634.08 M 490.78 644.06 510.93 644.06 M 552.74 664.03 622.48 664.03 M 615.29 654.05 632.46 654.05 M 616.37 644.06 789.22 644.06 M 790.79 634.08 616.37 634.08 M 616.37 624.09 780.8 624.09 M 770.82 614.11 616.37 614.11 M 616.37 604.12 760.83 604.12 M 750.85 594.14 622.64 594.14 M 632.62 584.15 740.86 584.15 M 718.35 574.17 676.65 574.17 M 683.35 564.18 711.65 564.18 M 709.3 554.2 685.7 554.2 M 684.84 544.21 710.16 544.21 M 714.76 534.23 680.24 534.23 M 667.24 524.24 727.76 524.24 M 752.24 524.24 765.95 524.24 M 765.24 534.23 775.93 534.23 M 769.84 544.21 785.92 544.21 M 794.3 554.2 772.68 554.2 M 782.67 564.18 796.65 564.18 M 792.65 574.17 803.35 574.17 M 802.64 584.15 1010.15 584.15 M 1020.14 594.14 812.62 594.14 M 846.65 574.17 885.87 574.17 M 875.89 564.18 853.35 564.18 M 855.7 554.2 865.9 554.2 M 855.92 544.21 854.84 544.21 M 946.23 472.74 960.74 487.25 1058.31 487.25 1058.31 478.87 1067.65 469.54 1112.35 469.54 1121.68 478.87 1121.68 539.32 1112.35 548.65 1067.65 548.65 1058.31 539.32 1058.31 530.94 1018.72 530.94 1031.13 543.35 1043.93 556.15 1074.95 556.15 1084.28 565.49 1084.28 625.93 1075.55 634.66 1094.05 653.16 1155.95 653.16 1178.16 630.95 1178.16 499.05 1135.95 456.84 1085.95 456.84 1073.16 444.05 1043.16 414.05 1043.16 339.05 1000.01 295.9 1000.01 369.32 990.56 378.77 938 378.77 936.84 379.93 936.84 402.24 938.45 403.85 940.02 401.14 943.55 397.61 947.88 395.11 952.72 393.81 963.11 393.81 963.11 432.51 966.89 432.51 966.89 393.81 977.28 393.81 982.12 395.11 986.45 397.61 989.98 401.14 992.48 405.47 993.78 410.31 993.78 432.51 966.89 432.51 966.89 436.29 993.78 436.29 993.78 458.5 992.48 463.33 989.98 467.66 986.45 471.2 982.12 473.7 977.28 474.99 966.89 474.99 966.89 436.29 963.11 436.29 963.11 474.99 952.72 474.99 947.88 473.7 946.23 472.74 M 947.8 474.32 950.19 474.32 M 957.79 484.3 1058.31 484.3 M 1062.87 474.32 979.81 474.32 M 966.89 474.32 963.11 474.32 M 963.11 464.33 966.89 464.33 M 966.89 454.34 963.11 454.34 M 963.11 444.36 966.89 444.36 M 966.89 434.37 1063.48 434.37 M 1073.47 444.36 993.78 444.36 M 993.78 454.34 1083.46 454.34 M 1117.13 474.32 1153.43 474.32 M 1163.41 484.3 1121.68 484.3 M 1121.68 494.29 1173.4 494.29 M 1178.16 504.27 1121.68 504.27 M 1121.68 514.26 1178.16 514.26 M 1178.16 524.24 1121.68 524.24 M 1121.68 534.23 1178.16 534.23 M 1178.16 544.21 1116.79 544.21 M 1122.56 553.15 1109.16 553.15 1104.34 554.44 1100.03 556.93 1096.5 560.46 1094.01 564.78 1092.72 569.59 1092.72 590.87 1122.56 590.87 1122.56 600.55 1092.72 600.55 1092.72 621.82 1094.01 626.64 1096.5 630.96 1100.03 634.48 1104.34 636.98 1109.16 638.27 1122.56 638.27 1122.56 600.55 1132.24 600.55 1132.24 638.27 1145.64 638.27 1150.46 636.98 1154.78 634.48 1158.3 630.96 1160.8 626.64 1162.09 621.82 1162.09 600.55 1132.24 600.55 1132.24 590.87 1132.24 553.15 1145.64 553.15 1150.46 554.44 1154.78 556.93 1158.3 560.46 1160.8 564.78 1162.09 569.59 1162.09 590.87 1132.24 590.87 1122.56 590.87 1122.56 553.15 M 1122.56 554.2 1132.24 554.2 M 1149.55 554.2 1178.16 554.2 M 1178.16 564.18 1160.45 564.18 M 1162.09 574.17 1178.16 574.17 M 1178.16 584.15 1162.09 584.15 M 1178.16 594.14 1132.24 594.14 M 1122.56 594.14 1084.28 594.14 M 1084.28 604.12 1092.72 604.12 M 1092.72 614.11 1084.28 614.11 M 1084.28 624.09 1093.32 624.09 M 1099.62 634.08 1076.14 634.08 M 1084.95 644.06 1165.05 644.06 M 1155.18 634.08 1175.03 634.08 M 1178.16 624.09 1161.48 624.09 M 1162.09 614.11 1178.16 614.11 M 1178.16 604.12 1162.09 604.12 M 1132.24 604.12 1122.56 604.12 M 1122.56 614.11 1132.24 614.11 M 1132.24 624.09 1122.56 624.09 M 1122.56 634.08 1132.24 634.08 M 1196.87 674.02 1300.21 674.02 M 1300.21 684 1186.89 684 M 1176.9 693.99 1300.21 693.99 M 1300.21 703.97 1021.84 703.97 M 1021.84 713.96 1300.21 713.96 M 1300.21 723.94 1021.84 723.94 M 1021.84 733.93 1300.21 733.93 M 1300.21 743.91 1021.84 743.91 M 1020.42 753.9 1300.21 753.9 M 1300.13 763.88 1014.66 763.88 M 1010.72 770.72 1010.72 770.72 1010.72 770.72 M 1005.25 773.87 1297.29 773.87 M 1289.21 783.85 40 783.85 M 31.93 773.87 828.75 773.87 M 819.34 763.88 584.41 763.88 M 594.39 753.9 813.58 753.9 M 812.16 743.91 604.38 743.91 M 614.36 733.93 812.16 733.93 M 814.82 723.94 624.35 723.94 M 634.33 713.96 820.59 713.96 M 794.57 703.97 644.32 703.97 M 654.3 693.99 789.22 693.99 M 612.49 674.02 542.76 674.02 M 532.77 684 602.51 684 M 592.52 693.99 490.78 693.99 M 485.54 703.97 582.54 703.97 M 572.55 713.96 287.45 713.96 M 294.46 703.97 277.46 703.97 M 276.84 693.99 289.22 693.99 M 289.22 684 276.84 684 M 276.84 674.02 289.22 674.02 M 289.22 664.03 276.84 664.03 M 276.84 654.05 289.22 654.05 M 289.22 644.06 276.84 644.06 M 283.39 634.08 297.43 634.08 M 332.56 634.08 347.43 634.08 M 382.56 634.08 397.43 634.08 M 432.56 634.08 447.43 634.08 M 444.46 703.97 435.54 703.97 M 394.46 703.97 385.54 703.97 M 344.46 703.97 335.54 703.97 M 265.61 753.9 159.55 753.9 M 166.37 743.91 255.62 743.91 M 245.64 733.93 166.37 733.93 M 216.88 723.94 235.65 723.94 M 233.16 713.96 223.44 713.96 M 225.7 703.97 233.16 703.97 M 233.16 693.99 224.75 693.99 M 220.02 684 233.16 684 M 233.16 674.02 216.84 674.02 M 216.84 664.03 233.16 664.03 M 233.16 654.05 216.84 654.05 M 216.84 644.06 233.16 644.06 M 226.61 634.08 216.84 634.08 M 216.84 624.09 224.3 624.09 M 225.21 614.11 216.84 614.11 M 216.84 604.12 229.86 604.12 M 216.84 594.14 243.01 594.14 M 194.91 554.2 169.37 554.2 M 169.37 550.12 169.37 573.03 120 573.03 120 533.5 152.76 533.5 157.62 534.81 161.98 537.33 165.55 540.89 168.07 545.25 169.37 550.12 M 167.46 544.21 204.9 544.21 M 214.88 534.23 155.45 534.23 M 142.98 515.58 124.83 523.1 105.17 523.1 87.02 515.58 73.12 501.68 65.6 483.53 65.6 463.87 73.12 445.72 87.02 431.82 105.17 424.3 124.83 424.3 142.98 431.82 156.88 445.72 164.4 463.87 164.4 483.53 156.88 501.68 142.98 515.58 M 144.31 514.26 185.69 514.26 M 175.71 504.27 154.29 504.27 M 159.95 494.29 170.05 494.29 M 165.92 484.3 164.08 484.3 M 164.4 474.32 165.6 474.32 M 165.6 464.33 164.4 464.33 M 160.45 454.34 169.55 454.34 M 174.48 444.36 155.52 444.36 M 145.54 434.37 184.46 434.37 M 204.95 424.39 125.04 424.39 M 104.95 424.39 29 424.39 M 29 414.4 253.16 414.4 M 253.16 424.39 225.04 424.39 M 245.54 434.37 253.16 434.37 M 244.83 404.42 29 404.42 M 29 394.43 234.84 394.43 M 185.88 384.45 144.12 384.45 M 154.1 374.46 175.9 374.46 M 170.13 364.48 159.87 364.48 M 164 354.49 166 354.49 M 165.6 344.51 164.4 344.51 M 164.4 334.52 165.6 334.52 M 169.47 324.54 160.53 324.54 M 155.72 314.55 174.28 314.55 M 184.27 304.57 145.73 304.57 M 104.49 294.58 29 294.58 M 29 304.57 84.27 304.57 M 74.28 314.55 29 314.55 M 29 324.54 69.47 324.54 M 65.6 334.52 29 334.52 M 29 344.51 65.6 344.51 M 66 354.49 29 354.49 M 29 364.48 70.13 364.48 M 75.9 374.46 29 374.46 M 29 384.45 85.88 384.45 M 84.46 434.37 29 434.37 M 29 444.36 74.48 444.36 M 69.55 454.34 29 454.34 M 29 464.33 65.6 464.33 M 65.6 474.32 29 474.32 M 29 484.3 65.92 484.3 M 70.05 494.29 29 494.29 M 29 504.27 75.71 504.27 M 85.69 514.26 29 514.26 M 29 524.24 224.87 524.24 M 184.93 564.18 169.37 564.18 M 174.94 574.17 120 574.17 M 120 573.03 120 583.03 169.37 583.03 169.37 605.94 168.07 610.81 165.55 615.17 161.98 618.74 157.62 621.26 152.76 622.56 120 622.56 120 583.03 110 583.03 110 573.03 120 573.03 M 120 564.18 110 564.18 M 110 573.03 110 533.5 77.24 533.5 72.38 534.81 68.02 537.33 64.45 540.89 61.93 545.25 60.63 550.12 60.63 573.03 110 573.03 M 110 574.17 29 574.17 M 29 584.15 60.63 584.15 M 60.63 583.03 60.63 605.94 61.93 610.81 64.45 615.17 68.02 618.74 72.38 621.26 77.24 622.56 110 622.56 110 583.03 60.63 583.03 M 60.63 594.14 29 594.14 M 29 604.12 60.63 604.12 M 63.84 614.11 29 614.11 M 29 624.09 173.16 624.09 M 173.16 614.11 166.16 614.11 M 169.37 604.12 173.16 604.12 M 173.16 594.14 169.37 594.14 M 169.37 584.15 173.16 584.15 M 120 584.15 110 584.15 M 110 594.14 120 594.14 M 120 604.12 110 604.12 M 110 614.11 120 614.11 M 173.16 634.08 29 634.08 M 29 644.06 173.16 644.06 M 173.16 654.05 29 654.05 M 29 664.03 173.16 664.03 M 173.16 674.02 157.46 674.02 M 72.54 674.02 29 674.02 M 29 684 63.63 684 M 63.63 693.99 29 693.99 M 29 703.97 63.63 703.97 M 63.63 713.96 29 713.96 M 29 723.94 63.63 723.94 M 63.63 733.93 29 733.93 M 29 743.91 63.63 743.91 M 70.45 753.9 29 753.9 M 29.08 763.88 275.59 763.88 M 60.63 564.18 29 564.18 M 29 554.2 60.63 554.2 M 62.53 544.21 29 544.21 M 29 534.23 74.55 534.23 M 110 534.23 120 534.23 M 120 544.21 110 544.21 M 110 554.2 120 554.2 M 341.65 524.24 517.63 524.24 M 560 524.24 570 524.24 M 570 514.26 560 514.26 M 560 504.27 570 504.27 M 570 478.92 619.37 478.92 619.37 456 618.07 451.14 615.55 446.78 611.98 443.21 607.62 440.69 602.76 439.39 570 439.39 570 478.92 M 570 474.32 560 474.32 M 560 464.33 570 464.33 M 570 454.34 560 454.34 M 560 444.36 570 444.36 M 613.13 444.36 686.07 444.36 M 696.05 454.34 618.93 454.34 M 619.37 464.33 706.04 464.33 M 716.02 474.32 619.37 474.32 M 676.08 434.37 490.78 434.37 M 490.78 444.36 516.87 444.36 M 511.07 454.34 490.78 454.34 M 488.96 464.33 510.63 464.33 M 441.04 464.33 438.96 464.33 M 391.04 464.33 388.96 464.33 M 389.13 404.42 390.87 404.42 M 369.3 374.46 357.9 374.46 M 363.04 364.48 369.3 364.48 M 373.19 354.49 363.04 354.49 M 363.04 344.51 378.16 344.51 M 378.16 334.52 363.04 334.52 M 363.04 324.54 378.16 324.54 M 378.16 314.55 363.04 314.55 M 363.04 304.57 378.16 304.57 M 378.16 294.58 363.04 294.58 M 299.98 394.43 296.62 394.43 M 583.98 394.43 636.14 394.43 M 626.12 344.51 582.93 344.51 M 723.21 204.72 779.99 204.72 M 779.99 194.73 713.22 194.73 M 703.24 184.75 780.72 184.75 M 780.17 151.8 762.02 144.28 748.12 130.39 740.6 112.23 740.6 92.57 748.12 74.42 762.02 60.52 780.17 53 799.83 53 817.98 60.52 831.88 74.42 839.4 92.57 839.4 112.23 831.88 130.39 817.98 144.28 799.83 151.8 780.17 151.8 M 763.28 144.81 663.29 144.81 M 653.31 134.82 752.56 134.82 M 745.82 124.84 643.32 124.84 M 638.31 114.85 741.69 114.85 M 740.6 104.87 639.4 104.87 M 639.4 94.88 740.6 94.88 M 743.78 84.9 636.22 84.9 M 632.08 74.91 747.92 74.91 M 757.61 64.93 622.39 64.93 M 604.51 54.94 775.49 54.94 M 804.51 54.94 875.49 54.94 M 880.17 53 862.02 60.52 848.12 74.42 840.6 92.57 840.6 112.23 848.12 130.39 862.02 144.28 880.17 151.8 899.83 151.8 917.98 144.28 931.88 130.39 937.6 116.58 937.6 141.78 938.62 145.59 940.6 149.01 943.39 151.81 946.81 153.78 950.62 154.8 985.16 154.8 985.16 107.24 994.84 107.24 1042.4 107.24 1042.4 141.78 1041.38 145.59 1039.4 149.01 1036.61 151.81 1033.19 153.78 1029.38 154.8 994.84 154.8 994.84 107.24 994.84 97.56 994.84 50 1029.38 50 1033.19 51.02 1036.61 53 1039.4 55.79 1041.38 59.21 1042.4 63.03 1042.4 97.56 994.84 97.56 985.16 97.56 985.16 50 950.62 50 946.81 51.02 943.39 53 940.6 55.79 938.62 59.21 937.6 63.03 937.6 88.22 931.88 74.42 917.98 60.52 899.83 53 880.17 53 M 904.51 54.94 941.44 54.94 M 937.6 64.93 922.39 64.93 M 932.08 74.91 937.6 74.91 M 937.6 84.9 936.22 84.9 M 985.16 84.9 994.84 84.9 M 994.84 94.88 985.16 94.88 M 994.84 104.87 1110 104.87 M 1110 107.4 1110 97.4 1120 97.4 1120 57.87 1152.76 57.87 1157.62 59.18 1161.98 61.7 1165 64.71 1168.02 61.7 1172.38 59.18 1177.24 57.87 1210 57.87 1210 97.4 1220 97.4 1220 57.87 1252.76 57.87 1257.62 59.18 1261.98 61.7 1265.55 65.26 1268.07 69.62 1269.37 74.49 1269.37 97.4 1220 97.4 1220 107.4 1269.37 107.4 1269.37 130.31 1268.07 135.18 1265.55 139.54 1261.98 143.11 1257.62 145.63 1252.76 146.93 1220 146.93 1220 107.4 1210 107.4 1210 97.4 1120 97.4 1120 107.4 1169.37 107.4 1210 107.4 1210 146.93 1177.24 146.93 1172.38 145.63 1168.02 143.11 1165 140.09 1161.98 143.11 1157.62 145.63 1152.76 146.93 1120 146.93 1120 107.4 1110 107.4 1060.63 107.4 1060.63 130.31 1061.93 135.18 1064.45 139.54 1068.02 143.11 1072.38 145.63 1077.24 146.93 1110 146.93 1110 107.4 M 1110 114.85 1120 114.85 M 1120 124.84 1110 124.84 M 1110 134.82 1120 134.82 M 1120 144.81 1110 144.81 M 1070.96 144.81 1041.59 144.81 M 1042.4 134.82 1061.84 134.82 M 1060.63 124.84 1042.4 124.84 M 1042.4 114.85 1060.63 114.85 M 1060.63 97.4 1060.63 74.49 1061.93 69.62 1064.45 65.26 1068.02 61.7 1072.38 59.18 1077.24 57.87 1110 57.87 1110 97.4 1060.63 97.4 M 1060.63 94.88 1042.4 94.88 M 1042.4 84.9 1060.63 84.9 M 1060.63 74.91 1042.4 74.91 M 1042.4 64.93 1064.79 64.93 M 1038.56 54.94 1300.21 54.94 M 1300.21 64.93 1265.21 64.93 M 1269.37 74.91 1300.21 74.91 M 1300.21 84.9 1269.37 84.9 M 1269.37 94.88 1300.21 94.88 M 1300.21 104.87 1220 104.87 M 1220 94.88 1210 94.88 M 1210 84.9 1220 84.9 M 1220 74.91 1210 74.91 M 1210 64.93 1220 64.93 M 1210 104.87 1120 104.87 M 1120 94.88 1110 94.88 M 1110 84.9 1120 84.9 M 1120 74.91 1110 74.91 M 1110 64.93 1120 64.93 M 1210 114.85 1220 114.85 M 1220 124.84 1210 124.84 M 1210 134.82 1220 134.82 M 1220 144.81 1210 144.81 M 1170.96 144.81 1159.04 144.81 M 1259.04 144.81 1300.21 144.81 M 1300.21 154.79 1029.42 154.79 M 994.84 154.79 985.16 154.79 M 985.16 144.81 994.84 144.81 M 994.84 134.82 985.16 134.82 M 985.16 124.84 994.84 124.84 M 994.84 114.85 985.16 114.85 M 937.6 124.84 934.18 124.84 M 937.6 134.82 927.44 134.82 M 916.72 144.81 938.41 144.81 M 950.58 154.79 673.28 154.79 M 683.26 164.78 1300.21 164.78 M 1300.21 174.76 693.25 174.76 M 816.72 144.81 863.28 144.81 M 852.56 134.82 827.44 134.82 M 834.18 124.84 845.82 124.84 M 841.69 114.85 838.31 114.85 M 839.4 104.87 840.6 104.87 M 840.6 94.88 839.4 94.88 M 836.22 84.9 843.78 84.9 M 847.92 74.91 832.08 74.91 M 822.39 64.93 857.61 64.93 M 985.16 64.93 994.84 64.93 M 994.84 54.94 985.16 54.94 M 985.16 74.91 994.84 74.91 M 999.28 184.75 1300.21 184.75 M 1300.21 194.73 1000.01 194.73 M 1000.01 204.72 1066.21 204.72 M 1063.63 214.7 1000.01 214.7 M 1000.01 224.69 1063.63 224.69 M 1063.63 234.67 1000.56 234.67 M 1010.55 244.66 1063.63 244.66 M 1063.63 254.64 1020.53 254.64 M 1030.52 264.63 1063.63 264.63 M 1066.8 274.61 1040.5 274.61 M 1050.49 284.6 1093.16 284.6 M 1093.16 294.58 1060.47 294.58 M 1070.46 304.57 1093.16 304.57 M 1093.16 314.55 1080.44 314.55 M 1086.84 324.54 1093.16 324.54 M 1093.16 334.52 1086.84 334.52 M 1086.84 344.51 1093.16 344.51 M 1093.16 354.49 1086.84 354.49 M 1086.84 364.48 1093.16 364.48 M 1088.2 374.46 1086.84 374.46 M 1043.16 374.46 994.87 374.46 M 1000.01 364.48 1043.16 364.48 M 1043.16 354.49 1000.01 354.49 M 1000.01 344.51 1043.16 344.51 M 1038.63 334.52 1000.01 334.52 M 1000.01 324.54 1028.65 324.54 M 1018.66 314.55 1000.01 314.55 M 1000.01 304.57 1008.68 304.57 M 922.25 274.61 857.75 274.61 M 862.16 284.6 917.84 284.6 M 916.96 294.58 863.04 294.58 M 863.04 304.57 916.96 304.57 M 916.96 314.55 863.04 314.55 M 863.04 324.54 916.96 324.54 M 916.96 334.52 863.04 334.52 M 869.51 344.51 910.49 344.51 M 900.5 354.49 879.5 354.49 M 886.84 364.48 893.16 364.48 M 893.16 374.46 886.84 374.46 M 886.84 384.45 893.16 384.45 M 893.16 394.43 886.84 394.43 M 889.02 404.42 890.98 404.42 M 936.84 394.43 950.39 394.43 M 963.11 394.43 966.89 394.43 M 966.89 404.42 963.11 404.42 M 963.11 414.4 966.89 414.4 M 966.89 424.39 963.11 424.39 M 993.78 424.39 1053.5 424.39 M 1043.51 414.4 993.78 414.4 M 991.88 404.42 1043.16 404.42 M 1043.16 394.43 979.61 394.43 M 936.84 384.45 1043.16 384.45 M 1136.84 364.48 1193.16 364.48 M 1193.16 354.49 1136.84 354.49 M 1136.84 344.51 1193.16 344.51 M 1193.16 334.52 1136.84 334.52 M 1136.84 324.54 1193.16 324.54 M 1193.16 314.55 1136.84 314.55 M 1136.84 304.57 1193.16 304.57 M 1193.16 294.58 1136.84 294.58 M 1136.84 284.6 1193.16 284.6 M 1166.8 274.61 1163.2 274.61 M 1236.84 284.6 1300.21 284.6 M 1300.21 274.61 1263.2 274.61 M 1266.37 264.63 1300.21 264.63 M 1300.21 254.64 1266.37 254.64 M 1266.37 244.66 1300.21 244.66 M 1300.21 234.67 1266.37 234.67 M 1266.37 224.69 1300.21 224.69 M 1300.21 214.7 1266.37 214.7 M 1263.79 204.72 1300.21 204.72 M 1300.21 134.82 1268.16 134.82 M 1269.37 124.84 1300.21 124.84 M 1300.21 114.85 1269.37 114.85 M 1166.21 204.72 1163.79 204.72 M 1236.84 294.58 1300.21 294.58 M 1300.21 304.57 1236.84 304.57 M 1236.84 314.55 1300.21 314.55 M 1300.21 324.54 1236.84 324.54 M 1236.84 334.52 1300.21 334.52 M 1300.21 344.51 1236.84 344.51 M 1236.84 354.49 1300.21 354.49 M 1300.21 364.48 1236.84 364.48 M 1241.8 374.46 1300.21 374.46 M 1300.21 384.45 1245.7 384.45 M 1245.7 394.43 1300.21 394.43 M 1300.21 404.42 1242.26 404.42 M 1234.01 414.4 1300.21 414.4 M 1300.21 424.39 1165.28 424.39 M 1155.29 414.4 1195.99 414.4 M 1187.74 404.42 1142.26 404.42 M 1145.7 394.43 1184.3 394.43 M 1184.3 384.45 1145.7 384.45 M 1141.8 374.46 1188.2 374.46 M 1175.26 434.37 1300.21 434.37 M 1300.21 444.36 1185.25 444.36 M 1195.23 454.34 1300.21 454.34 M 1300.21 464.33 1205.22 464.33 M 1215.21 474.32 1300.21 474.32 M 1300.21 484.3 1221.84 484.3 M 1221.84 494.29 1300.21 494.29 M 1300.21 504.27 1221.84 504.27 M 1221.84 514.26 1300.21 514.26 M 1300.21 524.24 1221.84 524.24 M 1221.84 534.23 1300.21 534.23 M 1300.21 544.21 1221.84 544.21 M 1221.84 554.2 1300.21 554.2 M 1300.21 564.18 1221.84 564.18 M 1221.84 574.17 1300.21 574.17 M 1300.21 584.15 1221.84 584.15 M 1221.84 594.14 1300.21 594.14 M 1300.21 604.12 1221.84 604.12 M 1221.84 614.11 1300.21 614.11 M 1300.21 624.09 1221.84 624.09 M 1221.84 634.08 1300.21 634.08 M 1300.21 644.06 1221.84 644.06 M 1216.84 654.05 1300.21 654.05 M 1300.21 664.03 1206.86 664.03 M 1132.24 584.15 1122.56 584.15 M 1122.56 574.17 1132.24 574.17 M 1132.24 564.18 1122.56 564.18 M 1105.25 554.2 1041.98 554.2 M 1031.99 544.21 1063.21 544.21 M 1058.31 534.23 1022.01 534.23 M 1082.98 564.18 1094.35 564.18 M 1092.72 574.17 1084.28 574.17 M 1084.28 584.15 1092.72 584.15 M 1020.91 604.12 993.11 604.12 M 1010.41 614.11 1020.91 614.11 M 1020.91 624.09 1016.38 624.09 M 1021.84 634.08 1029.06 634.08 M 1030.76 644.06 1021.84 644.06 M 1021.84 654.05 1033.16 654.05 M 1043.14 664.03 1021.84 664.03 M 1021.84 674.02 1053.13 674.02 M 1043.55 664.44 1043.55 664.44 M 1063.11 684 1021.84 684 M 1021.84 693.99 1073.1 693.99 M 1143.44 464.33 991.91 464.33 M 840.98 404.42 839.02 404.42 M 863.04 264.63 916.96 264.63 M 916.96 254.64 863.04 254.64 M 863.04 244.66 916.96 244.66 M 916.96 234.67 863.04 234.67 M 863.04 224.69 916.96 224.69 M 916.96 214.7 863.04 214.7 M 863.04 204.72 916.96 204.72 M 916.96 194.73 863.04 194.73 M 862.31 184.75 917.69 184.75 M 69.03 64.93 29 64.93 M 29 74.91 63.63 74.91 M 63.63 84.9 29 84.9 M 29 94.88 63.63 94.88 M 63.63 104.87 29 104.87 M 29 114.85 63.63 114.85 M 63.63 124.84 29 124.84 M 29 134.82 63.97 134.82" fill="none" stroke-width="10"/></g><g id="khKsiHHkkhVFdp_VWcmw_bottom_soldermask"><path d="M 302.37 458.73 327.63 458.73 327.63 409.85 302.37 409.85 302.37 458.73 M 302.37 420.15 327.63 420.15 M 327.63 430.45 302.37 430.45 M 302.37 440.75 327.63 440.75 M 327.63 451.05 302.37 451.05 M 352.37 458.73 377.63 458.73 377.63 409.85 352.37 409.85 352.37 458.73 M 352.37 420.15 377.63 420.15 M 377.63 430.45 352.37 430.45 M 352.37 440.75 377.63 440.75 M 377.63 451.05 352.37 451.05 M 402.37 458.73 427.63 458.73 427.63 409.85 402.37 409.85 402.37 458.73 M 402.37 420.15 427.63 420.15 M 427.63 430.45 402.37 430.45 M 402.37 440.75 427.63 440.75 M 427.63 451.05 402.37 451.05 M 452.37 458.73 477.63 458.73 477.63 409.85 452.37 409.85 452.37 458.73 M 452.37 420.15 477.63 420.15 M 477.63 430.45 452.37 430.45 M 452.37 440.75 477.63 440.75 M 477.63 451.05 452.37 451.05 M 452.37 694.95 477.63 694.95 477.63 646.07 452.37 646.07 452.37 694.95 M 452.37 656.37 477.63 656.37 M 477.63 666.67 452.37 666.67 M 452.37 676.97 477.63 676.97 M 477.63 687.27 452.37 687.27 M 427.63 694.95 402.37 694.95 M 427.63 694.95 427.63 646.07 402.37 646.07 402.37 694.95 M 402.37 656.37 427.63 656.37 M 427.63 666.67 402.37 666.67 M 402.37 676.97 427.63 676.97 M 427.63 687.27 402.37 687.27 M 377.63 694.95 352.37 694.95 M 377.63 694.95 377.63 646.07 352.37 646.07 352.37 694.95 M 352.37 656.37 377.63 656.37 M 377.63 666.67 352.37 666.67 M 352.37 676.97 377.63 676.97 M 377.63 687.27 352.37 687.27 M 327.63 694.95 302.37 694.95 M 327.63 694.95 327.63 646.07 302.37 646.07 302.37 694.95 M 302.37 656.37 327.63 656.37 M 327.63 666.67 302.37 666.67 M 302.37 676.97 327.63 676.97 M 327.63 687.27 302.37 687.27 M 802.37 694.84 827.63 694.84 827.63 645.96 802.37 645.96 802.37 694.84 M 802.37 656.26 827.63 656.26 M 827.63 666.56 802.37 666.56 M 802.37 676.86 827.63 676.86 M 827.63 687.16 802.37 687.16 M 852.37 694.84 877.63 694.84 877.63 645.96 852.37 645.96 852.37 694.84 M 852.37 656.26 877.63 656.26 M 877.63 666.56 852.37 666.56 M 852.37 676.86 877.63 676.86 M 877.63 687.16 852.37 687.16 M 902.37 694.84 927.63 694.84 927.63 645.96 902.37 645.96 902.37 694.84 M 902.37 656.26 927.63 656.26 M 927.63 666.56 902.37 666.56 M 902.37 676.86 927.63 676.86 M 927.63 687.16 902.37 687.16 M 952.37 694.84 977.63 694.84 977.63 645.96 952.37 645.96 952.37 694.84 M 952.37 656.26 977.63 656.26 M 977.63 666.56 952.37 666.56 M 952.37 676.86 977.63 676.86 M 977.63 687.16 952.37 687.16 M 952.37 458.84 977.63 458.84 977.63 409.96 952.37 409.96 952.37 458.84 M 952.37 420.26 977.63 420.26 M 977.63 430.56 952.37 430.56 M 952.37 440.86 977.63 440.86 M 977.63 451.16 952.37 451.16 M 927.63 458.84 902.37 458.84 M 927.63 458.84 927.63 409.96 902.37 409.96 902.37 458.84 M 902.37 420.26 927.63 420.26 M 927.63 430.56 902.37 430.56 M 902.37 440.86 927.63 440.86 M 927.63 451.16 902.37 451.16 M 877.63 458.84 852.37 458.84 M 877.63 458.84 877.63 409.96 852.37 409.96 852.37 458.84 M 852.37 420.26 877.63 420.26 M 877.63 430.56 852.37 430.56 M 852.37 440.86 877.63 440.86 M 877.63 451.16 852.37 451.16 M 827.63 458.84 802.37 458.84 M 827.63 458.84 827.63 409.96 802.37 409.96 802.37 458.84 M 802.37 420.26 827.63 420.26 M 827.63 430.56 802.37 430.56 M 802.37 440.86 827.63 440.86 M 827.63 451.16 802.37 451.16" fill="none" stroke-width="10.31"/><path d="M 1033.65 568.88 1071.55 568.88 M 1033.65 568.88 1033.65 622.54 1071.55 622.54 1071.55 568.88 M 1071.55 578.34 1033.65 578.34 M 1033.65 587.8 1071.55 587.8 M 1071.55 597.26 1033.65 597.26 M 1033.65 606.72 1071.55 606.72 M 1071.55 616.18 1033.65 616.18 M 1108.45 568.88 1146.35 568.88 M 1108.45 568.88 1108.45 622.54 1146.35 622.54 1146.35 568.88 M 1146.35 578.34 1108.45 578.34 M 1108.45 587.8 1146.35 587.8 M 1146.35 597.26 1108.45 597.26 M 1108.45 606.72 1146.35 606.72 M 1146.35 616.18 1108.45 616.18 M 1108.95 482.26 1071.05 482.26 1071.05 535.92 1108.95 535.92 1108.95 482.26 M 1108.95 491.72 1071.05 491.72 M 1071.05 501.18 1108.95 501.18 M 1108.95 510.64 1071.05 510.64 M 1071.05 520.1 1108.95 520.1 M 1108.95 529.56 1071.05 529.56" fill="none" stroke-width="9.47"/><path d="M 76.32 131.24 76.32 73.56 M 76.32 131.24 153.68 131.24 153.68 73.56 76.32 73.56 M 76.32 82.94 153.68 82.94 M 153.68 92.32 76.32 92.32 M 76.32 101.7 153.68 101.7 M 153.68 111.08 76.32 111.08 M 76.32 120.46 153.68 120.46 M 153.68 129.84 76.32 129.84 M 76.32 210.53 76.32 268.21 153.68 268.21 153.68 210.53 76.32 210.53 M 76.32 219.91 153.68 219.91 M 153.68 229.29 76.32 229.29 M 76.32 238.67 153.68 238.67 M 153.68 248.05 76.32 248.05 M 76.32 257.43 153.68 257.43 M 153.68 266.81 76.32 266.81 M 292.68 366.08 350.36 366.08 350.36 288.72 292.68 288.72 292.68 366.08 M 292.68 298.1 350.36 298.1 M 350.36 307.48 292.68 307.48 M 292.68 316.86 350.36 316.86 M 350.36 326.24 292.68 326.24 M 292.68 335.62 350.36 335.62 M 350.36 345 292.68 345 M 292.68 354.38 350.36 354.38 M 350.36 363.76 292.68 363.76 M 429.64 366.08 487.32 366.08 487.32 288.72 429.64 288.72 429.64 366.08 M 429.64 298.1 487.32 298.1 M 487.32 307.48 429.64 307.48 M 429.64 316.86 487.32 316.86 M 487.32 326.24 429.64 326.24 M 429.64 335.62 487.32 335.62 M 487.32 345 429.64 345 M 429.64 354.38 487.32 354.38 M 487.32 363.76 429.64 363.76 M 603.68 455.08 603.68 512.76 M 603.68 455.08 526.32 455.08 526.32 512.76 603.68 512.76 M 603.68 464.46 526.32 464.46 M 526.32 473.84 603.68 473.84 M 603.68 483.22 526.32 483.22 M 526.32 492.6 603.68 492.6 M 603.68 501.98 526.32 501.98 M 526.32 511.36 603.68 511.36 M 603.68 592.05 603.68 649.73 M 603.68 592.05 526.32 592.05 526.32 649.73 603.68 649.73 M 603.68 601.43 526.32 601.43 M 526.32 610.81 603.68 610.81 M 603.68 620.19 526.32 620.19 M 526.32 629.57 603.68 629.57 M 603.68 638.95 526.32 638.95 M 526.32 648.33 603.68 648.33 M 153.68 686.16 153.68 743.84 M 153.68 686.16 76.32 686.16 76.32 743.84 153.68 743.84 M 153.68 695.54 76.32 695.54 M 76.32 704.92 153.68 704.92 M 153.68 714.3 76.32 714.3 M 76.32 723.68 153.68 723.68 M 153.68 733.06 76.32 733.06 M 76.32 742.44 153.68 742.44 M 153.68 606.87 153.68 549.19 76.32 549.19 76.32 606.87 153.68 606.87 M 153.68 558.57 76.32 558.57 M 76.32 567.95 153.68 567.95 M 153.68 577.33 76.32 577.33 M 76.32 586.71 153.68 586.71 M 153.68 596.09 76.32 596.09 M 76.32 605.47 153.68 605.47 M 792.68 366.08 850.36 366.08 850.36 288.72 792.68 288.72 792.68 366.08 M 792.68 298.1 850.36 298.1 M 850.36 307.48 792.68 307.48 M 792.68 316.86 850.36 316.86 M 850.36 326.24 792.68 326.24 M 792.68 335.62 850.36 335.62 M 850.36 345 792.68 345 M 792.68 354.38 850.36 354.38 M 850.36 363.76 792.68 363.76 M 929.64 366.08 987.32 366.08 987.32 288.72 929.64 288.72 929.64 366.08 M 929.64 298.1 987.32 298.1 M 987.32 307.48 929.64 307.48 M 929.64 316.86 987.32 316.86 M 987.32 326.24 929.64 326.24 M 929.64 335.62 987.32 335.62 M 987.32 345 929.64 345 M 929.64 354.38 987.32 354.38 M 987.32 363.76 929.64 363.76 M 1153.68 268.21 1153.68 210.53 1076.32 210.53 1076.32 268.21 1153.68 268.21 M 1153.68 219.91 1076.32 219.91 M 1076.32 229.29 1153.68 229.29 M 1153.68 238.67 1076.32 238.67 M 1076.32 248.05 1153.68 248.05 M 1153.68 257.43 1076.32 257.43 M 1076.32 266.81 1153.68 266.81 M 1253.68 268.21 1253.68 210.53 1176.32 210.53 1176.32 268.21 1253.68 268.21 M 1253.68 219.91 1176.32 219.91 M 1176.32 229.29 1253.68 229.29 M 1253.68 238.67 1176.32 238.67 M 1176.32 248.05 1253.68 248.05 M 1253.68 257.43 1176.32 257.43 M 1176.32 266.81 1253.68 266.81 M 1253.68 131.24 1253.68 73.56 1176.32 73.56 1176.32 131.24 1253.68 131.24 M 1253.68 82.94 1176.32 82.94 M 1176.32 92.32 1253.68 92.32 M 1253.68 101.7 1176.32 101.7 M 1176.32 111.08 1253.68 111.08 M 1253.68 120.46 1176.32 120.46 M 1176.32 129.84 1253.68 129.84 M 1153.68 131.24 1153.68 73.56 1076.32 73.56 1076.32 131.24 1153.68 131.24 M 1153.68 82.94 1076.32 82.94 M 1076.32 92.32 1153.68 92.32 M 1153.68 101.7 1076.32 101.7 M 1076.32 111.08 1153.68 111.08 M 1153.68 120.46 1076.32 120.46 M 1076.32 129.84 1153.68 129.84 M 987.32 266.08 929.64 266.08 M 987.32 266.08 987.32 188.72 929.64 188.72 929.64 266.08 M 929.64 198.1 987.32 198.1 M 987.32 207.48 929.64 207.48 M 929.64 216.86 987.32 216.86 M 987.32 226.24 929.64 226.24 M 929.64 235.62 987.32 235.62 M 987.32 245 929.64 245 M 929.64 254.38 987.32 254.38 M 987.32 263.76 929.64 263.76 M 850.36 266.08 792.68 266.08 M 850.36 266.08 850.36 188.72 792.68 188.72 792.68 266.08 M 792.68 198.1 850.36 198.1 M 850.36 207.48 792.68 207.48 M 792.68 216.86 850.36 216.86 M 850.36 226.24 792.68 226.24 M 792.68 235.62 850.36 235.62 M 850.36 245 792.68 245 M 792.68 254.38 850.36 254.38 M 850.36 263.76 792.68 263.76" fill="none" stroke-width="9.39"/><use xlink:href="#xrTbf90jnHj_7b40HQju_pad-13" x="990" y="102.4"/><use xlink:href="#xrTbf90jnHj_7b40HQju_pad-13" x="290" y="102.4"/><use xlink:href="#xrTbf90jnHj_7b40HQju_pad-14" x="390" y="102.4"/><use xlink:href="#xrTbf90jnHj_7b40HQju_pad-14" x="490" y="102.4"/><use xlink:href="#xrTbf90jnHj_7b40HQju_pad-14" x="590" y="102.4"/><use xlink:href="#xrTbf90jnHj_7b40HQju_pad-14" x="790" y="102.4"/><use xlink:href="#xrTbf90jnHj_7b40HQju_pad-14" x="890" y="102.4"/><use xlink:href="#xrTbf90jnHj_7b40HQju_pad-14" x="215" y="343.7"/><use xlink:href="#xrTbf90jnHj_7b40HQju_pad-14" x="115" y="343.7"/><use xlink:href="#xrTbf90jnHj_7b40HQju_pad-14" x="115" y="473.7"/><use xlink:href="#xrTbf90jnHj_7b40HQju_pad-14" x="215" y="473.7"/></g><g id="khKsiHHkkhVFdp_VWcmw_bottom_drill1"><use xlink:href="#JKAA8iZZJaeVO-AB6rZY_pad-1" x="260" y="262.4"/><use xlink:href="#JKAA8iZZJaeVO-AB6rZY_pad-1" x="400" y="370"/><use xlink:href="#JKAA8iZZJaeVO-AB6rZY_pad-1" x="515" y="420"/><use xlink:href="#JKAA8iZZJaeVO-AB6rZY_pad-1" x="565" y="420"/><use xlink:href="#JKAA8iZZJaeVO-AB6rZY_pad-1" x="565" y="370"/><use xlink:href="#JKAA8iZZJaeVO-AB6rZY_pad-1" x="655" y="552.4"/><use xlink:href="#JKAA8iZZJaeVO-AB6rZY_pad-1" x="740" y="552.4"/><use xlink:href="#JKAA8iZZJaeVO-AB6rZY_pad-1" x="825" y="552.4"/><use xlink:href="#JKAA8iZZJaeVO-AB6rZY_pad-1" x="1020" y="440"/><use xlink:href="#JKAA8iZZJaeVO-AB6rZY_pad-1" x="1020" y="390"/><use xlink:href="#JKAA8iZZJaeVO-AB6rZY_pad-1" x="1115" y="390"/><use xlink:href="#JKAA8iZZJaeVO-AB6rZY_pad-1" x="1215" y="390"/><use xlink:href="#JKAA8iZZJaeVO-AB6rZY_pad-1" x="1155" y="509.1"/><use xlink:href="#JKAA8iZZJaeVO-AB6rZY_pad-1" x="255" y="622.4"/><use xlink:href="#JKAA8iZZJaeVO-AB6rZY_pad-1" x="195" y="702.4"/><use xlink:href="#JKAA8iZZJaeVO-AB6rZY_pad-2" x="290" y="102.4"/><use xlink:href="#JKAA8iZZJaeVO-AB6rZY_pad-2" x="390" y="102.4"/><use xlink:href="#JKAA8iZZJaeVO-AB6rZY_pad-2" x="490" y="102.4"/><use xlink:href="#JKAA8iZZJaeVO-AB6rZY_pad-2" x="590" y="102.4"/><use xlink:href="#JKAA8iZZJaeVO-AB6rZY_pad-2" x="790" y="102.4"/><use xlink:href="#JKAA8iZZJaeVO-AB6rZY_pad-2" x="890" y="102.4"/><use xlink:href="#JKAA8iZZJaeVO-AB6rZY_pad-2" x="990" y="102.4"/><use xlink:href="#JKAA8iZZJaeVO-AB6rZY_pad-2" x="215" y="343.7"/><use xlink:href="#JKAA8iZZJaeVO-AB6rZY_pad-2" x="115" y="343.7"/><use xlink:href="#JKAA8iZZJaeVO-AB6rZY_pad-2" x="115" y="473.7"/><use xlink:href="#JKAA8iZZJaeVO-AB6rZY_pad-2" x="215" y="473.7"/></g><clipPath id="khKsiHHkkhVFdp_VWcmw_bottom_outline"><path d="M 54.37 15 1274.84 15 1276.08 15.02 1277.31 15.08 1278.55 15.17 1279.77 15.31 1281 15.48 1282.22 15.7 1283.43 15.95 1284.63 16.24 1285.82 16.56 1287.01 16.93 1288.18 17.33 1289.33 17.76 1290.48 18.24 1291.6 18.75 1292.71 19.29 1293.81 19.87 1294.88 20.48 1295.94 21.13 1296.97 21.81 1297.98 22.52 1298.97 23.26 1299.94 24.03 1300.88 24.84 1301.79 25.67 1302.68 26.53 1303.54 27.42 1304.37 28.33 1305.18 29.27 1305.95 30.24 1306.69 31.23 1307.4 32.24 1308.08 33.27 1308.73 34.33 1309.34 35.4 1309.92 36.5 1310.46 37.61 1310.97 38.73 1311.45 39.88 1311.88 41.03 1312.28 42.2 1312.65 43.39 1312.97 44.58 1313.26 45.78 1313.51 46.99 1313.73 48.21 1313.9 49.44 1314.04 50.66 1314.13 51.9 1314.19 53.13 1314.21 54.37 1314.21 763.03 1314.19 764.27 1314.13 765.5 1314.04 766.74 1313.9 767.96 1313.73 769.19 1313.51 770.41 1313.26 771.62 1312.97 772.82 1312.65 774.01 1312.28 775.2 1311.88 776.37 1311.45 777.52 1310.97 778.67 1310.46 779.79 1309.92 780.9 1309.34 782 1308.73 783.07 1308.08 784.13 1307.4 785.16 1306.69 786.17 1305.95 787.16 1305.18 788.13 1304.37 789.07 1303.54 789.98 1302.68 790.87 1301.79 791.73 1300.88 792.56 1299.94 793.37 1298.97 794.14 1297.98 794.88 1296.97 795.59 1295.94 796.27 1294.88 796.92 1293.81 797.53 1292.71 798.11 1291.6 798.65 1290.48 799.16 1289.33 799.64 1288.18 800.07 1287.01 800.47 1285.82 800.84 1284.63 801.16 1283.43 801.45 1282.22 801.7 1281 801.92 1279.77 802.09 1278.55 802.23 1277.31 802.32 1276.08 802.38 1274.84 802.4 54.37 802.4 53.13 802.38 51.9 802.32 50.66 802.23 49.44 802.09 48.21 801.92 46.99 801.7 45.78 801.45 44.58 801.16 43.39 800.84 42.2 800.47 41.03 800.07 39.88 799.64 38.73 799.16 37.61 798.65 36.5 798.11 35.4 797.53 34.33 796.92 33.27 796.27 32.24 795.59 31.23 794.88 30.24 794.14 29.27 793.37 28.33 792.56 27.42 791.73 26.53 790.87 25.67 789.98 24.84 789.07 24.03 788.13 23.26 787.16 22.52 786.17 21.81 785.16 21.13 784.13 20.48 783.07 19.87 782 19.29 780.9 18.75 779.79 18.24 778.67 17.76 777.52 17.33 776.37 16.93 775.2 16.56 774.01 16.24 772.82 15.95 771.62 15.7 770.41 15.48 769.19 15.31 767.96 15.17 766.74 15.08 765.5 15.02 764.27 15 763.03 15 54.37 15.02 53.13 15.08 51.9 15.17 50.66 15.31 49.44 15.48 48.21 15.7 46.99 15.95 45.78 16.24 44.58 16.56 43.39 16.93 42.2 17.33 41.03 17.76 39.88 18.24 38.73 18.75 37.61 19.29 36.5 19.87 35.4 20.48 34.33 21.13 33.27 21.81 32.24 22.52 31.23 23.26 30.24 24.03 29.27 24.84 28.33 25.67 27.42 26.53 26.53 27.42 25.67 28.33 24.84 29.27 24.03 30.24 23.26 31.23 22.52 32.24 21.81 33.27 21.13 34.33 20.48 35.4 19.87 36.5 19.29 37.61 18.75 38.73 18.24 39.88 17.76 41.03 17.33 42.2 16.93 43.39 16.56 44.58 16.24 45.78 15.95 46.99 15.7 48.21 15.48 49.44 15.31 50.66 15.17 51.9 15.08 53.13 15.02 54.37 15" fill="none" stroke-width="0"/></clipPath><mask id="khKsiHHkkhVFdp_VWcmw_bottom_mech-mask"><g fill="#000" stroke="#000"><rect x="15" y="15" width="1299.21" height="787.4" fill="#fff"/><use xlink:href="#khKsiHHkkhVFdp_VWcmw_bottom_drill1"/></g></mask><mask id="khKsiHHkkhVFdp_VWcmw_bottom_cf-mask"><g fill="#fff" stroke="#fff"><use xlink:href="#khKsiHHkkhVFdp_VWcmw_bottom_soldermask"/></g></mask><mask id="khKsiHHkkhVFdp_VWcmw_bottom_sm-mask"><g fill="#000" stroke="#000"><rect x="15" y="15" width="1299.21" height="787.4" fill="#fff"/><use xlink:href="#khKsiHHkkhVFdp_VWcmw_bottom_soldermask"/></g></mask></defs><g transform="translate(0,817.4) scale(1,-1)"><g mask="url(#khKsiHHkkhVFdp_VWcmw_bottom_mech-mask)" clip-path="url(#khKsiHHkkhVFdp_VWcmw_bottom_outline)" transform="translate(1329.21,0) scale(-1,1)"><rect x="15" y="15" width="1299.21" height="787.4" fill="currentColor" class="khKsiHHkkhVFdp_VWcmw_fr4"/><use xlink:href="#khKsiHHkkhVFdp_VWcmw_bottom_copper" fill="currentColor" stroke="currentColor" class="khKsiHHkkhVFdp_VWcmw_cu"/><use xlink:href="#khKsiHHkkhVFdp_VWcmw_bottom_copper" fill="currentColor" stroke="currentColor" class="khKsiHHkkhVFdp_VWcmw_cf" mask="url(#khKsiHHkkhVFdp_VWcmw_bottom_cf-mask)"/><g mask="url(#khKsiHHkkhVFdp_VWcmw_bottom_sm-mask)"><rect x="15" y="15" width="1299.21" height="787.4" fill="currentColor" class="khKsiHHkkhVFdp_VWcmw_sm"/><use xlink:href="#khKsiHHkkhVFdp_VWcmw_bottom_silkscreen" fill="currentColor" stroke="currentColor" class="khKsiHHkkhVFdp_VWcmw_ss"/></g></g></g></svg>