<svg version="1.1" xmlns="http://www.w3.org/2000/svg" xmlns:xlink="http://www.w3.org/1999/xlink" stroke-linecap="round" stroke-linejoin="round" stroke-width="0" fill-rule="evenodd" clip-rule="evenodd" id="U5UcOJcgM_ppAJEPNUlj_top" viewBox="15 15 1299.21 787.4" width="1.29921in" height="0.7874in" class="w-100 h-100"><defs><style>.U5UcOJcgM_ppAJEPNUlj_fr4 {color: #666666;}
.U5UcOJcgM_ppAJEPNUlj_cu {color: #cccccc;}
.U5UcOJcgM_ppAJEPNUlj_cf {color: #cc9933;}
.U5UcOJcgM_ppAJEPNUlj_sm {color: #004200; opacity: 0.75;}
.U5UcOJcgM_ppAJEPNUlj_ss {color: #ffffff;}
.U5UcOJcgM_ppAJEPNUlj_sp {color: #999999;}
.U5UcOJcgM_ppAJEPNUlj_out {color: #000000;}</style><rect x="-41.4" y="-41.4" width="82.8" height="82.8" id="AIadshvXA0QuIaZg09UE_pad-11"/><circle cx="0" cy="0" r="41.4" id="AIadshvXA0QuIaZg09UE_pad-12"/><rect x="-37.4" y="-37.4" width="74.8" height="74.8" id="W5E9GY8DujYhTkotFFYr_pad-11"/><circle cx="0" cy="0" r="37.4" id="W5E9GY8DujYhTkotFFYr_pad-12"/><circle cx="0" cy="0" r="18.7" id="W5E9GY8DujYhTkotFFYr_pad-13"/><circle cx="0" cy="0" r="9.85" id="MhpFyEznZPD0X9hChx1a_pad-1"/><circle cx="0" cy="0" r="19.7" id="MhpFyEznZPD0X9hChx1a_pad-2"/><g id="U5UcOJcgM_ppAJEPNUlj_top_soldermask"><path d="M 301.32 455.08 301.32 512.76 378.68 512.76 378.68 455.08 301.32 455.08 M 301.32 464.46 378.68 464.46 M 378.68 473.84 301.32 473.84 M 301.32 483.22 378.68 483.22 M 378.68 492.6 301.32 492.6 M 301.32 501.98 378.68 501.98 M 378.68 511.36 301.32 511.36 M 401.32 512.76 401.32 455.08 M 401.32 512.76 478.68 512.76 478.68 455.08 401.32 455.08 M 401.32 464.46 478.68 464.46 M 478.68 473.84 401.32 473.84 M 401.32 483.22 478.68 483.22 M 478.68 492.6 401.32 492.6 M 401.32 501.98 478.68 501.98 M 478.68 511.36 401.32 511.36 M 501.32 512.76 501.32 455.08 M 501.32 512.76 578.68 512.76 578.68 455.08 501.32 455.08 M 501.32 464.46 578.68 464.46 M 578.68 473.84 501.32 473.84 M 501.32 483.22 578.68 483.22 M 578.68 492.6 501.32 492.6 M 501.32 501.98 578.68 501.98 M 578.68 511.36 501.32 511.36 M 601.32 512.76 601.32 455.08 M 601.32 512.76 678.68 512.76 678.68 455.08 601.32 455.08 M 601.32 464.46 678.68 464.46 M 678.68 473.84 601.32 473.84 M 601.32 483.22 678.68 483.22 M 678.68 492.6 601.32 492.6 M 601.32 501.98 678.68 501.98 M 678.68 511.36 601.32 511.36 M 778.68 512.76 778.68 455.08 701.32 455.08 701.32 512.76 778.68 512.76 M 778.68 464.46 701.32 464.46 M 701.32 473.84 778.68 473.84 M 778.68 483.22 701.32 483.22 M 701.32 492.6 778.68 492.6 M 778.68 501.98 701.32 501.98 M 701.32 511.36 778.68 511.36 M 878.68 512.76 878.68 455.08 801.32 455.08 801.32 512.76 878.68 512.76 M 878.68 464.46 801.32 464.46 M 801.32 473.84 878.68 473.84 M 878.68 483.22 801.32 483.22 M 801.32 492.6 878.68 492.6 M 878.68 501.98 801.32 501.98 M 801.32 511.36 878.68 511.36 M 978.68 512.76 978.68 455.08 901.32 455.08 901.32 512.76 978.68 512.76 M 978.68 464.46 901.32 464.46 M 901.32 473.84 978.68 473.84 M 978.68 483.22 901.32 483.22 M 901.32 492.6 978.68 492.6 M 978.68 501.98 901.32 501.98 M 901.32 511.36 978.68 511.36 M 978.68 592.05 978.68 649.73 M 978.68 592.05 901.32 592.05 901.32 649.73 978.68 649.73 M 978.68 601.43 901.32 601.43 M 901.32 610.81 978.68 610.81 M 978.68 620.19 901.32 620.19 M 901.32 629.57 978.68 629.57 M 978.68 638.95 901.32 638.95 M 901.32 648.33 978.68 648.33 M 878.68 649.73 878.68 592.05 801.32 592.05 801.32 649.73 878.68 649.73 M 878.68 601.43 801.32 601.43 M 801.32 610.81 878.68 610.81 M 878.68 620.19 801.32 620.19 M 801.32 629.57 878.68 629.57 M 878.68 638.95 801.32 638.95 M 801.32 648.33 878.68 648.33 M 778.68 649.73 778.68 592.05 701.32 592.05 701.32 649.73 778.68 649.73 M 778.68 601.43 701.32 601.43 M 701.32 610.81 778.68 610.81 M 778.68 620.19 701.32 620.19 M 701.32 629.57 778.68 629.57 M 778.68 638.95 701.32 638.95 M 701.32 648.33 778.68 648.33 M 601.32 649.73 601.32 592.05 M 601.32 649.73 678.68 649.73 678.68 592.05 601.32 592.05 M 601.32 601.43 678.68 601.43 M 678.68 610.81 601.32 610.81 M 601.32 620.19 678.68 620.19 M 678.68 629.57 601.32 629.57 M 601.32 638.95 678.68 638.95 M 678.68 648.33 601.32 648.33 M 501.32 649.73 501.32 592.05 M 501.32 649.73 578.68 649.73 578.68 592.05 501.32 592.05 M 501.32 601.43 578.68 601.43 M 578.68 610.81 501.32 610.81 M 501.32 620.19 578.68 620.19 M 578.68 629.57 501.32 629.57 M 501.32 638.95 578.68 638.95 M 578.68 648.33 501.32 648.33 M 401.32 649.73 401.32 592.05 M 401.32 649.73 478.68 649.73 478.68 592.05 401.32 592.05 M 401.32 601.43 478.68 601.43 M 478.68 610.81 401.32 610.81 M 401.32 620.19 478.68 620.19 M 478.68 629.57 401.32 629.57 M 401.32 638.95 478.68 638.95 M 478.68 648.33 401.32 648.33 M 301.32 649.73 301.32 592.05 M 301.32 649.73 378.68 649.73 378.68 592.05 301.32 592.05 M 301.32 601.43 378.68 601.43 M 378.68 610.81 301.32 610.81 M 301.32 620.19 378.68 620.19 M 378.68 629.57 301.32 629.57 M 301.32 638.95 378.68 638.95 M 378.68 648.33 301.32 648.33" fill="none" stroke-width="9.39"/><use xlink:href="#AIadshvXA0QuIaZg09UE_pad-11" x="290" y="102.4"/><use xlink:href="#AIadshvXA0QuIaZg09UE_pad-11" x="115" y="408.7"/><use xlink:href="#AIadshvXA0QuIaZg09UE_pad-11" x="990" y="102.4"/><use xlink:href="#AIadshvXA0QuIaZg09UE_pad-12" x="890" y="102.4"/><use xlink:href="#AIadshvXA0QuIaZg09UE_pad-12" x="790" y="102.4"/><use xlink:href="#AIadshvXA0QuIaZg09UE_pad-12" x="590" y="102.4"/><use xlink:href="#AIadshvXA0QuIaZg09UE_pad-12" x="490" y="102.4"/><use xlink:href="#AIadshvXA0QuIaZg09UE_pad-12" x="390" y="102.4"/><use xlink:href="#AIadshvXA0QuIaZg09UE_pad-12" x="215" y="408.7"/></g><g id="U5UcOJcgM_ppAJEPNUlj_top_copper"><path d="M 304.76 458.52 304.76 509.32 375.24 509.32 375.24 458.52 304.76 458.52 M 304.76 466.78 375.24 466.78 M 375.24 475.04 304.76 475.04 M 304.76 483.3 375.24 483.3 M 375.24 491.56 304.76 491.56 M 304.76 499.82 375.24 499.82 M 375.24 508.08 304.76 508.08 M 404.76 509.32 404.76 458.52 M 404.76 509.32 475.24 509.32 475.24 458.52 404.76 458.52 M 404.76 466.78 475.24 466.78 M 475.24 475.04 404.76 475.04 M 404.76 483.3 475.24 483.3 M 475.24 491.56 404.76 491.56 M 404.76 499.82 475.24 499.82 M 475.24 508.08 404.76 508.08 M 504.76 509.32 504.76 458.52 M 504.76 509.32 575.24 509.32 575.24 458.52 504.76 458.52 M 504.76 466.78 575.24 466.78 M 575.24 475.04 504.76 475.04 M 504.76 483.3 575.24 483.3 M 575.24 491.56 504.76 491.56 M 504.76 499.82 575.24 499.82 M 575.24 508.08 504.76 508.08 M 604.76 509.32 604.76 458.52 M 604.76 509.32 675.24 509.32 675.24 458.52 604.76 458.52 M 604.76 466.78 675.24 466.78 M 675.24 475.04 604.76 475.04 M 604.76 483.3 675.24 483.3 M 675.24 491.56 604.76 491.56 M 604.76 499.82 675.24 499.82 M 675.24 508.08 604.76 508.08 M 775.24 509.32 775.24 458.52 704.76 458.52 704.76 509.32 775.24 509.32 M 775.24 466.78 704.76 466.78 M 704.76 475.04 775.24 475.04 M 775.24 483.3 704.76 483.3 M 704.76 491.56 775.24 491.56 M 775.24 499.82 704.76 499.82 M 704.76 508.08 775.24 508.08 M 875.24 509.32 875.24 458.52 804.76 458.52 804.76 509.32 875.24 509.32 M 875.24 466.78 804.76 466.78 M 804.76 475.04 875.24 475.04 M 875.24 483.3 804.76 483.3 M 804.76 491.56 875.24 491.56 M 875.24 499.82 804.76 499.82 M 804.76 508.08 875.24 508.08 M 975.24 509.32 975.24 458.52 904.76 458.52 904.76 509.32 975.24 509.32 M 975.24 466.78 904.76 466.78 M 904.76 475.04 975.24 475.04 M 975.24 483.3 904.76 483.3 M 904.76 491.56 975.24 491.56 M 975.24 499.82 904.76 499.82 M 904.76 508.08 975.24 508.08 M 975.24 595.49 975.24 646.29 M 975.24 595.49 904.76 595.49 904.76 646.29 975.24 646.29 M 975.24 603.75 904.76 603.75 M 904.76 612.01 975.24 612.01 M 975.24 620.27 904.76 620.27 M 904.76 628.53 975.24 628.53 M 975.24 636.79 904.76 636.79 M 904.76 645.05 975.24 645.05 M 875.24 646.29 875.24 595.49 804.76 595.49 804.76 646.29 875.24 646.29 M 875.24 603.75 804.76 603.75 M 804.76 612.01 875.24 612.01 M 875.24 620.27 804.76 620.27 M 804.76 628.53 875.24 628.53 M 875.24 636.79 804.76 636.79 M 804.76 645.05 875.24 645.05 M 775.24 646.29 775.24 595.49 704.76 595.49 704.76 646.29 775.24 646.29 M 775.24 603.75 704.76 603.75 M 704.76 612.01 775.24 612.01 M 775.24 620.27 704.76 620.27 M 704.76 628.53 775.24 628.53 M 775.24 636.79 704.76 636.79 M 704.76 645.05 775.24 645.05 M 604.76 646.29 604.76 595.49 M 604.76 646.29 675.24 646.29 675.24 595.49 604.76 595.49 M 604.76 603.75 675.24 603.75 M 675.24 612.01 604.76 612.01 M 604.76 620.27 675.24 620.27 M 675.24 628.53 604.76 628.53 M 604.76 636.79 675.24 636.79 M 675.24 645.05 604.76 645.05 M 504.76 646.29 504.76 595.49 M 504.76 646.29 575.24 646.29 575.24 595.49 504.76 595.49 M 504.76 603.75 575.24 603.75 M 575.24 612.01 504.76 612.01 M 504.76 620.27 575.24 620.27 M 575.24 628.53 504.76 628.53 M 504.76 636.79 575.24 636.79 M 575.24 645.05 504.76 645.05 M 404.76 646.29 404.76 595.49 M 404.76 646.29 475.24 646.29 475.24 595.49 404.76 595.49 M 404.76 603.75 475.24 603.75 M 475.24 612.01 404.76 612.01 M 404.76 620.27 475.24 620.27 M 475.24 628.53 404.76 628.53 M 404.76 636.79 475.24 636.79 M 475.24 645.05 404.76 645.05 M 304.76 646.29 304.76 595.49 M 304.76 646.29 375.24 646.29 375.24 595.49 304.76 595.49 M 304.76 603.75 375.24 603.75 M 375.24 612.01 304.76 612.01 M 304.76 620.27 375.24 620.27 M 375.24 628.53 304.76 628.53 M 304.76 636.79 375.24 636.79 M 375.24 645.05 304.76 645.05" fill="none" stroke-width="8.27"/><use xlink:href="#W5E9GY8DujYhTkotFFYr_pad-11" x="115" y="408.7"/><use xlink:href="#W5E9GY8DujYhTkotFFYr_pad-11" x="290" y="102.4"/><use xlink:href="#W5E9GY8DujYhTkotFFYr_pad-11" x="990" y="102.4"/><use xlink:href="#W5E9GY8DujYhTkotFFYr_pad-12" x="890" y="102.4"/><use xlink:href="#W5E9GY8DujYhTkotFFYr_pad-12" x="790" y="102.4"/><use xlink:href="#W5E9GY8DujYhTkotFFYr_pad-12" x="590" y="102.4"/><use xlink:href="#W5E9GY8DujYhTkotFFYr_pad-12" x="490" y="102.4"/><use xlink:href="#W5E9GY8DujYhTkotFFYr_pad-12" x="390" y="102.4"/><use xlink:href="#W5E9GY8DujYhTkotFFYr_pad-12" x="215" y="408.7"/><use xlink:href="#W5E9GY8DujYhTkotFFYr_pad-13" x="215" y="327.4"/><use xlink:href="#W5E9GY8DujYhTkotFFYr_pad-13" x="390" y="377.4"/><use xlink:href="#W5E9GY8DujYhTkotFFYr_pad-13" x="540" y="377.4"/><use xlink:href="#W5E9GY8DujYhTkotFFYr_pad-13" x="555" y="552.4"/><use xlink:href="#W5E9GY8DujYhTkotFFYr_pad-13" x="655" y="552.4"/><use xlink:href="#W5E9GY8DujYhTkotFFYr_pad-13" x="740" y="552.4"/><use xlink:href="#W5E9GY8DujYhTkotFFYr_pad-13" x="825" y="552.4"/><use xlink:href="#W5E9GY8DujYhTkotFFYr_pad-13" x="1020" y="452.4"/><use xlink:href="#W5E9GY8DujYhTkotFFYr_pad-13" x="1020" y="402.4"/><use xlink:href="#W5E9GY8DujYhTkotFFYr_pad-13" x="1115" y="390"/><use xlink:href="#W5E9GY8DujYhTkotFFYr_pad-13" x="1215" y="390"/><use xlink:href="#W5E9GY8DujYhTkotFFYr_pad-13" x="250" y="622.4"/><use xlink:href="#W5E9GY8DujYhTkotFFYr_pad-13" x="190" y="640"/><use xlink:href="#W5E9GY8DujYhTkotFFYr_pad-13" x="190" y="590"/><use xlink:href="#W5E9GY8DujYhTkotFFYr_pad-13" x="115" y="615"/><path d="M 115 615 115 667.4 165 717.4 600 717.4 640 677.4 640 620.89 640 607.4 585 552.4 555 552.4 M 540 610 482.4 552.4 252.4 552.4 215 515 215 408.7 M 115 408.7 115 615 M 250 622.4 338.48 622.4 340 620.89 M 540 620.89 540 610 M 640 620.89 740 620.89 840 620.89 840 677.4 880 717.4 1012.6 717.4 1215 515 1215 390 M 1115 390 1115 465 1027.6 552.4 940 552.4 940 620.89 M 940 552.4 825 552.4 M 740 552.4 740 483.92 M 640 483.92 640 327.4 590 277.4 590 102.4 M 790 102.4 790 277.4 840 327.4 840 483.92 M 940 483.92 940 327.4 890 277.4 890 102.4 M 590 277.4 265 277.4 215 327.4 M 340 427.4 340 483.92 440 483.92 540 483.92 540 377.4 M 390 377.4 340 427.4 M 640 483.92 640 537.4 655 552.4" fill="none" stroke-width="39.37"/><path d="M 49.42 29.49 40.28 33.28 33.28 40.28 29.49 49.42 29 54.37 29 763.03 29.49 767.98 33.28 777.13 40.28 784.13 49.42 787.91 54.37 788.4 1274.84 788.4 1279.79 787.91 1288.94 784.13 1295.94 777.13 1299.73 767.98 1300.21 763.03 1300.21 54.37 1299.73 49.42 1295.94 40.28 1288.94 33.28 1279.79 29.49 1274.84 29 54.37 29 49.42 29.49 M 38.58 34.97 1290.63 34.97 M 1297.88 44.96 31.34 44.96 M 29 54.94 241.44 54.94 M 240.6 55.79 243.39 53 246.81 51.02 250.62 50 285.16 50 285.16 97.56 294.84 97.56 294.84 50 329.38 50 333.19 51.02 336.61 53 339.4 55.79 341.38 59.21 342.4 63.03 342.4 88.22 348.12 74.42 362.02 60.52 380.17 53 399.83 53 417.98 60.52 431.88 74.42 439.4 92.57 439.4 112.23 431.88 130.39 417.98 144.28 399.83 151.8 380.17 151.8 362.02 144.28 348.12 130.39 342.4 116.58 342.4 141.78 341.38 145.59 339.4 149.01 336.61 151.81 333.19 153.78 329.38 154.8 294.84 154.8 294.84 107.24 285.16 107.24 285.16 97.56 237.6 97.56 237.6 63.03 238.62 59.21 240.6 55.79 M 237.6 64.93 29 64.93 M 29 74.91 237.6 74.91 M 237.6 84.9 29 84.9 M 29 94.88 237.6 94.88 M 237.6 107.24 237.6 141.78 238.62 145.59 240.6 149.01 243.39 151.81 246.81 153.78 250.62 154.8 285.16 154.8 285.16 107.24 237.6 107.24 M 237.6 114.85 29 114.85 M 29 124.84 237.6 124.84 M 237.6 134.82 29 134.82 M 29 144.81 238.41 144.81 M 250.58 154.79 29 154.79 M 29 164.78 558.31 164.78 M 558.31 174.76 29 174.76 M 29 184.75 558.31 184.75 M 558.31 194.73 29 194.73 M 29 204.72 558.31 204.72 M 558.31 214.7 29 214.7 M 29 224.69 558.31 224.69 M 558.31 234.67 29 234.67 M 29 244.66 558.31 244.66 M 558.31 245.72 558.31 140.58 548.12 130.39 540.6 112.23 540.6 92.57 548.12 74.42 562.02 60.52 580.17 53 599.83 53 617.98 60.52 631.88 74.42 639.4 92.57 639.4 112.23 631.88 130.39 621.68 140.58 621.68 264.28 666.86 309.45 671.68 321.1 671.68 442.39 681.92 442.39 690 450.47 698.08 442.39 781.92 442.39 790 450.47 798.08 442.39 808.31 442.39 808.31 340.53 763.14 295.35 758.31 283.7 758.31 140.58 748.12 130.39 740.6 112.23 740.6 92.57 748.12 74.42 762.02 60.52 780.17 53 799.83 53 817.98 60.52 831.88 74.42 839.4 92.57 839.4 112.23 831.88 130.39 821.68 140.58 821.68 264.28 866.86 309.45 871.68 321.1 871.68 442.39 881.92 442.39 890 450.47 898.08 442.39 908.31 442.39 908.31 340.53 863.14 295.35 858.31 283.7 858.31 140.58 848.12 130.39 840.6 112.23 840.6 92.57 848.12 74.42 862.02 60.52 880.17 53 899.83 53 917.98 60.52 931.88 74.42 937.6 88.22 937.6 63.03 938.62 59.21 940.6 55.79 943.39 53 946.81 51.02 950.62 50 985.16 50 985.16 97.56 994.84 97.56 994.84 50 1029.38 50 1033.19 51.02 1036.61 53 1039.4 55.79 1041.38 59.21 1042.4 63.03 1042.4 97.56 994.84 97.56 994.84 107.24 1042.4 107.24 1042.4 141.78 1041.38 145.59 1039.4 149.01 1036.61 151.81 1033.19 153.78 1029.38 154.8 994.84 154.8 994.84 107.24 985.16 107.24 985.16 154.8 950.62 154.8 946.81 153.78 943.39 151.81 940.6 149.01 938.62 145.59 937.6 141.78 937.6 116.58 931.88 130.39 921.68 140.58 921.68 264.28 966.86 309.45 971.68 321.1 971.68 442.39 981.92 442.39 991.37 451.84 991.37 515.99 986.65 520.72 1014.47 520.72 1083.31 451.88 1083.31 383.7 1088.14 372.05 1097.05 363.14 1108.7 358.31 1121.3 358.31 1132.95 363.14 1141.86 372.05 1146.68 383.7 1146.68 471.3 1141.86 482.95 1045.55 579.26 1033.9 584.09 986.65 584.09 991.37 588.81 991.37 652.96 981.92 662.41 898.08 662.41 890 654.33 881.92 662.41 871.68 662.41 871.68 664.28 893.12 685.72 999.47 685.72 1183.31 501.88 1183.31 383.7 1188.14 372.05 1197.05 363.14 1208.7 358.31 1221.3 358.31 1232.95 363.14 1241.86 372.05 1246.68 383.7 1246.68 521.3 1241.86 532.95 1030.55 744.26 1018.9 749.09 873.7 749.09 862.05 744.26 813.14 695.35 808.31 683.7 808.31 662.41 798.08 662.41 790 654.33 781.92 662.41 698.08 662.41 690 654.33 681.92 662.41 671.68 662.41 671.68 683.7 666.86 695.35 657.95 704.26 617.95 744.26 606.3 749.09 158.7 749.09 147.05 744.26 97.05 694.26 88.14 685.35 83.31 673.7 83.31 458.1 72.63 458.1 65.6 451.07 65.6 366.33 72.63 359.3 157.37 359.3 164.4 366.33 164.4 451.07 157.37 458.1 146.68 458.1 146.68 654.28 178.12 685.72 586.88 685.72 608.31 664.28 608.31 662.41 598.08 662.41 590 654.33 581.92 662.41 498.08 662.41 491.7 656.03 490.55 658.03 486.98 661.59 482.62 664.11 477.76 665.41 445 665.41 445 625.89 435 625.89 435 665.41 402.24 665.41 397.38 664.11 393.02 661.59 389.45 658.03 388.3 656.03 381.92 662.41 298.08 662.41 289.75 654.09 243.7 654.09 232.05 649.26 223.14 640.35 218.31 628.7 218.31 616.1 223.14 604.45 232.05 595.54 243.7 590.72 288.63 590.72 288.63 588.81 293.35 584.09 246.1 584.09 234.45 579.26 197.05 541.86 188.14 532.95 183.31 521.3 183.31 446.88 173.12 436.68 165.6 418.53 165.6 398.87 173.12 380.72 187.02 366.82 205.17 359.3 224.83 359.3 242.98 366.82 256.88 380.72 264.4 398.87 264.4 418.53 256.88 436.68 246.68 446.88 246.68 501.88 265.53 520.72 293.35 520.72 288.63 515.99 288.63 451.84 298.08 442.39 308.31 442.39 308.31 421.1 313.14 409.45 322.05 400.54 372.05 350.54 383.7 345.72 396.3 345.72 407.95 350.54 416.86 359.45 421.68 371.1 421.68 383.7 416.86 395.35 371.68 440.53 371.68 442.39 381.92 442.39 390 450.47 398.08 442.39 481.92 442.39 490 450.47 498.08 442.39 508.31 442.39 508.31 371.1 513.14 359.45 522.05 350.54 533.7 345.72 546.3 345.72 557.95 350.54 566.86 359.45 571.68 371.1 571.68 442.39 581.92 442.39 590 450.47 598.08 442.39 608.31 442.39 608.31 340.53 576.88 309.09 278.12 309.09 232.95 354.26 221.3 359.09 208.7 359.09 197.05 354.26 188.14 345.35 183.31 333.7 183.31 321.1 188.14 309.45 238.14 259.45 247.05 250.54 258.7 245.72 558.31 245.72 M 621.68 244.66 758.31 244.66 M 758.31 234.67 621.68 234.67 M 621.68 224.69 758.31 224.69 M 758.31 214.7 621.68 214.7 M 621.68 204.72 758.31 204.72 M 758.31 194.73 621.68 194.73 M 621.68 184.75 758.31 184.75 M 758.31 174.76 621.68 174.76 M 621.68 164.78 758.31 164.78 M 758.31 154.79 621.68 154.79 M 621.68 144.81 758.31 144.81 M 752.56 134.82 627.44 134.82 M 634.18 124.84 745.82 124.84 M 741.69 114.85 638.31 114.85 M 639.4 104.87 740.6 104.87 M 740.6 94.88 639.4 94.88 M 636.22 84.9 743.78 84.9 M 747.92 74.91 632.08 74.91 M 622.39 64.93 757.61 64.93 M 775.49 54.94 604.51 54.94 M 575.49 54.94 504.51 54.94 M 499.83 53 517.98 60.52 531.88 74.42 539.4 92.57 539.4 112.23 531.88 130.39 517.98 144.28 499.83 151.8 480.17 151.8 462.02 144.28 448.12 130.39 440.6 112.23 440.6 92.57 448.12 74.42 462.02 60.52 480.17 53 499.83 53 M 475.49 54.94 404.51 54.94 M 422.39 64.93 457.61 64.93 M 447.92 74.91 432.08 74.91 M 436.22 84.9 443.78 84.9 M 440.6 94.88 439.4 94.88 M 439.4 104.87 440.6 104.87 M 441.69 114.85 438.31 114.85 M 434.18 124.84 445.82 124.84 M 452.56 134.82 427.44 134.82 M 416.72 144.81 463.28 144.81 M 516.72 144.81 558.31 144.81 M 558.31 154.79 329.42 154.79 M 341.59 144.81 363.28 144.81 M 352.56 134.82 342.4 134.82 M 342.4 124.84 345.82 124.84 M 294.84 124.84 285.16 124.84 M 285.16 134.82 294.84 134.82 M 294.84 144.81 285.16 144.81 M 285.16 154.79 294.84 154.79 M 294.84 114.85 285.16 114.85 M 285.16 104.87 29 104.87 M 29 254.64 242.95 254.64 M 232.96 264.63 29 264.63 M 29 274.61 222.98 274.61 M 212.99 284.6 29 284.6 M 29 294.58 203.01 294.58 M 193.02 304.57 29 304.57 M 29 314.55 186.03 314.55 M 183.31 324.54 29 324.54 M 29 334.52 183.65 334.52 M 187.79 344.51 29 344.51 M 29 354.49 197.61 354.49 M 192.67 364.48 162.55 364.48 M 164.4 374.46 179.37 374.46 M 171.57 384.45 164.4 384.45 M 164.4 394.43 167.44 394.43 M 165.6 404.42 164.4 404.42 M 164.4 414.4 165.6 414.4 M 164.4 424.39 168.03 424.39 M 164.4 434.37 172.16 434.37 M 164.4 444.36 180.79 444.36 M 183.31 454.34 161.13 454.34 M 146.68 464.33 183.31 464.33 M 183.31 474.32 146.68 474.32 M 146.68 484.3 183.31 484.3 M 183.31 494.29 146.68 494.29 M 146.68 504.27 183.31 504.27 M 183.31 514.26 146.68 514.26 M 146.68 524.24 184.53 524.24 M 189.42 534.23 146.68 534.23 M 146.68 544.21 199.4 544.21 M 209.39 554.2 146.68 554.2 M 146.68 564.18 219.37 564.18 M 229.36 574.17 146.68 574.17 M 146.68 584.15 293.29 584.15 M 235.44 594.14 146.68 594.14 M 146.68 604.12 223.47 604.12 M 219.14 614.11 146.68 614.11 M 146.68 624.09 218.31 624.09 M 220.54 634.08 146.68 634.08 M 146.68 644.06 226.85 644.06 M 243.6 654.05 146.68 654.05 M 156.44 664.03 397.24 664.03 M 435 664.03 445 664.03 M 445 654.05 435 654.05 M 435 644.06 445 644.06 M 445 634.08 435 634.08 M 482.76 664.03 608.31 664.03 M 598.57 674.02 166.43 674.02 M 176.41 684 588.59 684 M 648.25 713.96 831.75 713.96 M 841.73 723.94 638.27 723.94 M 628.28 733.93 851.72 733.93 M 861.7 743.91 618.3 743.91 M 658.24 703.97 821.76 703.97 M 812.57 693.99 667.43 693.99 M 671.56 684 808.44 684 M 808.31 674.02 671.68 674.02 M 671.68 664.03 808.31 664.03 M 871.68 664.03 1021.16 664.03 M 1031.14 654.05 990.29 654.05 M 991.37 644.06 1041.13 644.06 M 1051.11 634.08 991.37 634.08 M 991.37 624.09 1061.1 624.09 M 1071.08 614.11 991.37 614.11 M 991.37 604.12 1081.07 604.12 M 1091.05 594.14 991.37 594.14 M 986.71 584.15 1101.04 584.15 M 1111.02 574.17 1050.64 574.17 M 1060.63 564.18 1121.01 564.18 M 1130.99 554.2 1070.61 554.2 M 1080.6 544.21 1140.98 544.21 M 1150.96 534.23 1090.58 534.23 M 1100.57 524.24 1160.95 524.24 M 1170.93 514.26 1110.55 514.26 M 1120.54 504.27 1180.92 504.27 M 1183.31 494.29 1130.52 494.29 M 1140.51 484.3 1183.31 484.3 M 1183.31 474.32 1145.44 474.32 M 1146.68 464.33 1183.31 464.33 M 1183.31 454.34 1146.68 454.34 M 1146.68 444.36 1183.31 444.36 M 1183.31 434.37 1146.68 434.37 M 1146.68 424.39 1183.31 424.39 M 1183.31 414.4 1146.68 414.4 M 1146.68 404.42 1183.31 404.42 M 1183.31 394.43 1146.68 394.43 M 1146.68 384.45 1183.31 384.45 M 1187.14 374.46 1142.86 374.46 M 1134.29 364.48 1195.71 364.48 M 1234.29 364.48 1300.21 364.48 M 1300.21 374.46 1242.86 374.46 M 1246.68 384.45 1300.21 384.45 M 1300.21 394.43 1246.68 394.43 M 1246.68 404.42 1300.21 404.42 M 1300.21 414.4 1246.68 414.4 M 1246.68 424.39 1300.21 424.39 M 1300.21 434.37 1246.68 434.37 M 1246.68 444.36 1300.21 444.36 M 1300.21 454.34 1246.68 454.34 M 1246.68 464.33 1300.21 464.33 M 1300.21 474.32 1246.68 474.32 M 1246.68 484.3 1300.21 484.3 M 1300.21 494.29 1246.68 494.29 M 1246.68 504.27 1300.21 504.27 M 1300.21 514.26 1246.68 514.26 M 1245.47 524.24 1300.21 524.24 M 1300.21 534.23 1240.58 534.23 M 1230.6 544.21 1300.21 544.21 M 1300.21 554.2 1220.61 554.2 M 1210.63 564.18 1300.21 564.18 M 1300.21 574.17 1200.64 574.17 M 1190.66 584.15 1300.21 584.15 M 1300.21 594.14 1180.67 594.14 M 1170.69 604.12 1300.21 604.12 M 1300.21 614.11 1160.7 614.11 M 1150.72 624.09 1300.21 624.09 M 1300.21 634.08 1140.73 634.08 M 1130.75 644.06 1300.21 644.06 M 1300.21 654.05 1120.76 654.05 M 1110.78 664.03 1300.21 664.03 M 1300.21 674.02 1100.79 674.02 M 1090.81 684 1300.21 684 M 1300.21 693.99 1080.82 693.99 M 1070.84 703.97 1300.21 703.97 M 1300.21 713.96 1060.85 713.96 M 1050.87 723.94 1300.21 723.94 M 1300.21 733.93 1040.88 733.93 M 1030.9 743.91 1300.21 743.91 M 1300.21 753.9 29 753.9 M 29.08 763.88 1300.13 763.88 M 1297.29 773.87 31.93 773.87 M 40 783.85 1289.21 783.85 M 1011.17 674.02 881.43 674.02 M 891.41 684 1001.19 684 M 991.37 514.26 1020.93 514.26 M 1030.92 504.27 991.37 504.27 M 991.37 494.29 1040.91 494.29 M 1050.89 484.3 991.37 484.3 M 991.37 474.32 1060.88 474.32 M 1070.86 464.33 991.37 464.33 M 991.37 454.34 1080.85 454.34 M 1083.31 444.36 983.89 444.36 M 971.68 434.37 1083.31 434.37 M 1083.31 424.39 971.68 424.39 M 971.68 414.4 1083.31 414.4 M 1083.31 404.42 971.68 404.42 M 971.68 394.43 1083.31 394.43 M 1083.31 384.45 971.68 384.45 M 971.68 374.46 1087.14 374.46 M 1095.71 364.48 971.68 364.48 M 971.68 354.49 1300.21 354.49 M 1300.21 344.51 971.68 344.51 M 971.68 334.52 1300.21 334.52 M 1300.21 324.54 971.68 324.54 M 968.97 314.55 1300.21 314.55 M 1300.21 304.57 961.98 304.57 M 951.99 294.58 1300.21 294.58 M 1300.21 284.6 942.01 284.6 M 932.02 274.61 1300.21 274.61 M 1300.21 264.63 922.04 264.63 M 921.68 254.64 1300.21 254.64 M 1300.21 244.66 921.68 244.66 M 921.68 234.67 1300.21 234.67 M 1300.21 224.69 921.68 224.69 M 921.68 214.7 1300.21 214.7 M 1300.21 204.72 921.68 204.72 M 921.68 194.73 1300.21 194.73 M 1300.21 184.75 921.68 184.75 M 921.68 174.76 1300.21 174.76 M 1300.21 164.78 921.68 164.78 M 921.68 154.79 950.58 154.79 M 938.41 144.81 921.68 144.81 M 927.44 134.82 937.6 134.82 M 937.6 124.84 934.18 124.84 M 985.16 124.84 994.84 124.84 M 994.84 134.82 985.16 134.82 M 985.16 144.81 994.84 144.81 M 994.84 154.79 985.16 154.79 M 1029.42 154.79 1300.21 154.79 M 1300.21 144.81 1041.59 144.81 M 1042.4 134.82 1300.21 134.82 M 1300.21 124.84 1042.4 124.84 M 1042.4 114.85 1300.21 114.85 M 1300.21 104.87 994.84 104.87 M 994.84 94.88 985.16 94.88 M 985.16 84.9 994.84 84.9 M 994.84 74.91 985.16 74.91 M 985.16 64.93 994.84 64.93 M 994.84 54.94 985.16 54.94 M 941.44 54.94 904.51 54.94 M 922.39 64.93 937.6 64.93 M 937.6 74.91 932.08 74.91 M 936.22 84.9 937.6 84.9 M 985.16 114.85 994.84 114.85 M 1042.4 94.88 1300.21 94.88 M 1300.21 84.9 1042.4 84.9 M 1042.4 74.91 1300.21 74.91 M 1300.21 64.93 1042.4 64.93 M 1038.56 54.94 1300.21 54.94 M 875.49 54.94 804.51 54.94 M 822.39 64.93 857.61 64.93 M 847.92 74.91 832.08 74.91 M 836.22 84.9 843.78 84.9 M 840.6 94.88 839.4 94.88 M 839.4 104.87 840.6 104.87 M 841.69 114.85 838.31 114.85 M 834.18 124.84 845.82 124.84 M 852.56 134.82 827.44 134.82 M 821.68 144.81 858.31 144.81 M 858.31 154.79 821.68 154.79 M 821.68 164.78 858.31 164.78 M 858.31 174.76 821.68 174.76 M 821.68 184.75 858.31 184.75 M 858.31 194.73 821.68 194.73 M 821.68 204.72 858.31 204.72 M 858.31 214.7 821.68 214.7 M 821.68 224.69 858.31 224.69 M 858.31 234.67 821.68 234.67 M 821.68 244.66 858.31 244.66 M 858.31 254.64 821.68 254.64 M 822.04 264.63 858.31 264.63 M 858.31 274.61 832.02 274.61 M 842.01 284.6 858.69 284.6 M 862.82 294.58 851.99 294.58 M 861.98 304.57 872.36 304.57 M 868.97 314.55 882.34 314.55 M 892.33 324.54 871.68 324.54 M 871.68 334.52 902.31 334.52 M 908.31 344.51 871.68 344.51 M 871.68 354.49 908.31 354.49 M 908.31 364.48 871.68 364.48 M 871.68 374.46 908.31 374.46 M 908.31 384.45 871.68 384.45 M 871.68 394.43 908.31 394.43 M 908.31 404.42 871.68 404.42 M 871.68 414.4 908.31 414.4 M 908.31 424.39 871.68 424.39 M 871.68 434.37 908.31 434.37 M 896.11 444.36 883.89 444.36 M 808.31 434.37 671.68 434.37 M 683.89 444.36 696.11 444.36 M 671.68 424.39 808.31 424.39 M 808.31 414.4 671.68 414.4 M 671.68 404.42 808.31 404.42 M 808.31 394.43 671.68 394.43 M 671.68 384.45 808.31 384.45 M 808.31 374.46 671.68 374.46 M 671.68 364.48 808.31 364.48 M 808.31 354.49 671.68 354.49 M 671.68 344.51 808.31 344.51 M 802.31 334.52 671.68 334.52 M 671.68 324.54 792.33 324.54 M 782.34 314.55 668.97 314.55 M 661.98 304.57 772.36 304.57 M 762.82 294.58 651.99 294.58 M 642.01 284.6 758.69 284.6 M 758.31 274.61 632.02 274.61 M 622.04 264.63 758.31 264.63 M 758.31 254.64 621.68 254.64 M 582.34 314.55 272.66 314.55 M 262.67 324.54 592.33 324.54 M 602.31 334.52 252.69 334.52 M 242.7 344.51 608.31 344.51 M 608.31 354.49 561.9 354.49 M 568.94 364.48 608.31 364.48 M 608.31 374.46 571.68 374.46 M 571.68 384.45 608.31 384.45 M 608.31 394.43 571.68 394.43 M 571.68 404.42 608.31 404.42 M 608.31 414.4 571.68 414.4 M 571.68 424.39 608.31 424.39 M 608.31 434.37 571.68 434.37 M 583.89 444.36 596.11 444.36 M 508.31 434.37 377.84 434.37 M 383.89 444.36 396.11 444.36 M 387.82 424.39 508.31 424.39 M 508.31 414.4 397.81 414.4 M 407.79 404.42 508.31 404.42 M 508.31 394.43 417.24 394.43 M 421.38 384.45 508.31 384.45 M 508.31 374.46 421.68 374.46 M 418.94 364.48 511.06 364.48 M 518.1 354.49 411.9 354.49 M 368.1 354.49 232.39 354.49 M 237.33 364.48 358.11 364.48 M 348.13 374.46 250.63 374.46 M 258.43 384.45 338.14 384.45 M 328.16 394.43 262.56 394.43 M 264.4 404.42 318.17 404.42 M 311.09 414.4 264.4 414.4 M 261.97 424.39 308.31 424.39 M 308.31 434.37 257.84 434.37 M 249.21 444.36 296.11 444.36 M 288.63 454.34 246.68 454.34 M 246.68 464.33 288.63 464.33 M 288.63 474.32 246.68 474.32 M 246.68 484.3 288.63 484.3 M 288.63 494.29 246.68 494.29 M 249.08 504.27 288.63 504.27 M 288.63 514.26 259.07 514.26 M 83.31 514.26 29 514.26 M 29 504.27 83.31 504.27 M 83.31 494.29 29 494.29 M 29 484.3 83.31 484.3 M 83.31 474.32 29 474.32 M 29 464.33 83.31 464.33 M 68.87 454.34 29 454.34 M 29 444.36 65.6 444.36 M 65.6 434.37 29 434.37 M 29 424.39 65.6 424.39 M 65.6 414.4 29 414.4 M 29 404.42 65.6 404.42 M 65.6 394.43 29 394.43 M 29 384.45 65.6 384.45 M 65.6 374.46 29 374.46 M 29 364.48 67.45 364.48 M 83.31 524.24 29 524.24 M 29 534.23 83.31 534.23 M 83.31 544.21 29 544.21 M 29 554.2 83.31 554.2 M 83.31 564.18 29 564.18 M 29 574.17 83.31 574.17 M 83.31 584.15 29 584.15 M 29 594.14 83.31 594.14 M 83.31 604.12 29 604.12 M 29 614.11 83.31 614.11 M 83.31 624.09 29 624.09 M 29 634.08 83.31 634.08 M 83.31 644.06 29 644.06 M 29 654.05 83.31 654.05 M 83.31 664.03 29 664.03 M 29 674.02 83.44 674.02 M 87.58 684 29 684 M 29 693.99 96.78 693.99 M 106.76 703.97 29 703.97 M 29 713.96 116.75 713.96 M 126.73 723.94 29 723.94 M 29 733.93 136.72 733.93 M 146.7 743.91 29 743.91 M 483.89 444.36 496.11 444.36 M 783.89 444.36 796.11 444.36 M 552.56 134.82 527.44 134.82 M 534.18 124.84 545.82 124.84 M 541.69 114.85 538.31 114.85 M 539.4 104.87 540.6 104.87 M 540.6 94.88 539.4 94.88 M 536.22 84.9 543.78 84.9 M 547.92 74.91 532.08 74.91 M 522.39 64.93 557.61 64.93 M 375.49 54.94 338.56 54.94 M 342.4 64.93 357.61 64.93 M 347.92 74.91 342.4 74.91 M 342.4 84.9 343.78 84.9 M 294.84 84.9 285.16 84.9 M 285.16 94.88 294.84 94.88 M 294.84 74.91 285.16 74.91 M 285.16 64.93 294.84 64.93 M 294.84 54.94 285.16 54.94" fill="none" stroke-width="10"/></g><g id="U5UcOJcgM_ppAJEPNUlj_top_silkscreen"><path d="M 49.45 54 63.46 54 70.46 61.01 70.46 96.04 M 88.48 82.02 102.49 96.04 116.5 82.02 116.5 54 M 134.52 54 134.52 96.04 155.54 96.04 162.54 89.03 162.54 75.02 155.54 68.01 134.52 68.01 M 148.53 68.01 162.54 54 M 194.57 54 194.57 96.04 M 180.56 96.04 208.58 96.04 M 208.58 119 180.56 119 M 194.57 119 194.57 161.04 180.56 147.02 M 162.54 161.04 148.53 161.04 M 155.54 161.04 155.54 126.01 148.53 119 141.53 119 134.52 126.01 M 88.48 82.02 88.48 54 M 88.48 75.02 116.5 75.02 M 49.45 54 42.44 61.01 42.44 96.04 M 240 52.4 240 152.4 340 152.4 340 127.4 365 152.4 415 152.4 440 127.4 465 152.4 515 152.4 540 127.4 565 152.4 615 152.4 640 127.4 640 77.4 615 52.4 565 52.4 540 77.4 540 127.4 M 540 77.4 515 52.4 465 52.4 440 77.4 440 127.4 M 440 77.4 415 52.4 365 52.4 340 77.4 340 52.4 240 52.4 M 340 77.4 340 127.4 M 303.99 181.4 275.97 181.4 268.96 188.41 268.96 202.42 275.97 209.43 M 289.98 209.43 289.98 195.41 M 303.99 181.4 311 188.41 311 202.42 303.99 209.43 289.98 209.43 M 268.96 227.44 311 255.46 268.96 255.46 M 268.96 273.48 268.96 294.5 275.97 301.5 303.99 301.5 311 294.5 311 273.48 268.96 273.48 M 268.96 227.44 311 227.44 M 368.96 236.4 368.96 264.43 M 368.96 250.41 411 250.41 M 411 282.44 368.96 310.46 M 368.96 282.44 411 310.46 M 468.96 310.46 511 282.44 M 511 264.43 496.99 250.41 M 496.99 257.42 496.99 236.4 M 511 236.4 468.96 236.4 468.96 257.42 475.97 264.43 489.98 264.43 496.99 257.42 M 468.96 282.44 511 310.46 M 568.96 301.5 596.99 301.5 611 287.49 596.99 273.48 568.96 273.48 M 568.96 255.46 568.96 227.44 589.98 227.44 582.98 241.45 582.98 248.46 589.98 255.46 603.99 255.46 611 248.46 611 234.45 603.99 227.44 M 589.98 209.43 589.98 181.4 M 575.97 195.41 603.99 195.41 M 505 200 490 215 475 200 M 490 215 490 180 M 405 195 390 180 375 195 M 390 180 390 215 M 240 358.7 190 358.7 165 383.7 165 358.7 65 358.7 65 458.7 165 458.7 165 433.7 190 458.7 240 458.7 265 433.7 265 383.7 240 358.7 M 165 383.7 165 433.7 M 139.87 485.69 111.85 485.69 M 79.82 492.7 79.82 534.74 M 65.81 534.74 93.83 534.74 M 157.89 534.74 157.89 492.7 185.91 492.7 M 203.93 492.7 203.93 534.74 231.95 492.7 231.95 534.74 M 185.91 534.74 157.89 534.74 M 157.89 513.72 171.9 513.72 M 305 527.4 305 577.4 M 375 577.4 375 527.4 M 405 527.4 405 577.4 M 475 577.4 475 527.4 M 505 527.4 505 577.4 M 575 577.4 575 527.4 M 605 527.4 605 577.4 M 675 577.4 675 527.4 M 705 527.4 705 577.4 M 775 577.4 775 527.4 M 805 527.4 805 577.4 M 875 577.4 875 527.4 M 905 527.4 905 577.4 M 975 577.4 975 527.4 M 961 681.6 918.96 681.6 918.96 702.62 925.97 709.62 939.98 709.62 946.99 702.62 946.99 681.6 M 946.99 695.61 961 709.62 M 953.99 727.64 961 734.64 961 748.66 953.99 755.66 925.97 755.66 918.96 748.66 918.96 734.64 925.97 727.64 932.98 727.64 939.98 734.64 939.98 755.66 M 861 748.66 861 734.64 853.99 727.64 846.99 727.64 839.98 734.64 839.98 748.66 846.99 755.66 853.99 755.66 861 748.66 M 839.98 748.66 832.98 755.66 825.97 755.66 818.96 748.66 818.96 734.64 825.97 727.64 832.98 727.64 839.98 734.64 M 839.98 709.62 825.97 709.62 818.96 702.62 818.96 681.6 861 681.6 M 846.99 681.6 846.99 702.62 839.98 709.62 M 846.99 695.61 861 709.62 M 761 709.62 746.99 695.61 M 746.99 702.62 746.99 681.6 M 761 681.6 718.96 681.6 718.96 702.62 725.97 709.62 739.98 709.62 746.99 702.62 M 753.99 727.64 761 734.64 761 748.66 753.99 755.66 739.98 755.66 732.98 748.66 732.98 741.65 739.98 727.64 718.96 727.64 718.96 755.66 M 661 748.66 661 734.64 653.99 727.64 M 639.98 741.65 639.98 748.66 646.99 755.66 653.99 755.66 661 748.66 M 639.98 748.66 632.98 755.66 625.97 755.66 618.96 748.66 618.96 734.64 625.97 727.64 M 625.97 709.62 639.98 709.62 646.99 702.62 646.99 681.6 M 661 681.6 618.96 681.6 618.96 702.62 625.97 709.62 M 646.99 695.61 661 709.62 M 561 709.62 546.99 695.61 M 546.99 702.62 546.99 681.6 M 561 681.6 518.96 681.6 518.96 702.62 525.97 709.62 539.98 709.62 546.99 702.62 M 561 727.64 561 755.66 M 561 741.65 518.96 741.65 532.98 727.64 M 461 727.64 432.98 755.66 425.97 755.66 418.96 748.66 418.96 734.64 425.97 727.64 M 461 727.64 461 755.66 M 461 709.62 446.99 695.61 M 446.99 702.62 446.99 681.6 M 461 681.6 418.96 681.6 418.96 702.62 425.97 709.62 439.98 709.62 446.99 702.62 M 361 709.62 346.99 695.61 M 346.99 702.62 346.99 681.6 M 361 681.6 318.96 681.6 318.96 702.62 325.97 709.62 339.98 709.62 346.99 702.62 M 339.98 727.64 339.98 755.66 M 318.96 748.66 339.98 727.64 M 361 748.66 318.96 748.66 M 789.98 347.54 789.98 319.52 M 775.97 301.5 768.96 294.5 768.96 273.48 811 273.48 811 294.5 803.99 301.5 775.97 301.5 M 775.97 255.46 768.96 248.46 768.96 234.45 775.97 227.44 803.99 227.44 811 234.45 811 248.46 803.99 255.46 M 868.96 248.46 868.96 234.45 875.97 227.44 903.99 227.44 911 234.45 911 248.46 903.99 255.46 M 911 273.48 911 294.5 903.99 301.5 875.97 301.5 868.96 294.5 868.96 273.48 911 273.48 M 875.97 255.46 868.96 248.46 M 875.97 209.43 868.96 202.42 868.96 188.41 875.97 181.4 903.99 181.4 911 188.41 911 202.42 903.99 209.43 M 968.96 202.42 968.96 188.41 975.97 181.4 1003.99 181.4 1011 188.41 1011 202.42 1003.99 209.43 989.98 209.43 989.98 195.41 M 975.97 209.43 968.96 202.42 M 968.96 227.44 1011 255.46 968.96 255.46 M 968.96 273.48 968.96 294.5 975.97 301.5 1003.99 301.5 1011 294.5 1011 273.48 968.96 273.48 M 968.96 227.44 1011 227.44 M 1085.41 161.04 1099.43 161.04 M 1092.42 161.04 1092.42 126.01 1085.41 119 1078.41 119 1071.4 126.01 M 1040 152.4 1040 52.4 940 52.4 940 77.4 915 52.4 865 52.4 840 77.4 815 52.4 765 52.4 740 77.4 740 127.4 765 152.4 815 152.4 840 127.4 840 77.4 M 840 127.4 865 152.4 915 152.4 940 127.4 940 152.4 1040 152.4 M 1117.44 154.03 1124.45 161.04 1138.46 161.04 1145.46 154.03 1145.46 147.02 1117.44 119 1145.46 119 M 1138.46 96.04 1117.44 96.04 1117.44 54 1138.46 54 1145.46 61.01 1145.46 68.01 1138.46 75.02 1117.44 75.02 M 1138.46 75.02 1145.46 82.02 1145.46 89.03 1138.46 96.04 M 1163.48 96.04 1184.5 96.04 1191.5 89.03 1191.5 61.01 1184.5 54 1163.48 54 1163.48 96.04 M 1099.43 89.03 1099.43 61.01 1092.42 54 1078.41 54 1071.4 61.01 1071.4 89.03 1078.41 96.04 1092.42 96.04 1099.43 89.03 M 940 77.4 940 127.4 M 811 188.41 811 202.42 803.99 209.43 M 811 188.41 803.99 181.4 775.97 181.4 768.96 188.41 768.96 202.42 775.97 209.43 M 889.98 319.52 889.98 347.54 M 875.97 333.53 903.99 333.53 M 139.87 319.73 139.87 312.72 132.87 305.72 139.87 298.71 139.87 291.71 132.87 284.7 118.86 284.7 111.85 291.71 M 125.86 305.72 132.87 305.72 M 139.87 319.73 132.87 326.74 118.86 326.74 111.85 319.73 M 93.83 326.74 79.82 326.74 M 86.83 326.74 86.83 291.71 79.82 284.7 72.82 284.7 65.81 291.71" fill="none" stroke-width="8"/><path d="M 1051.94 406.5 1057.34 401.1 1078.94 401.1 1084.33 406.5 1084.33 417.3 1078.94 422.7 M 1078.94 437.35 1057.34 437.35 1051.94 442.75 1051.94 453.55 1057.34 458.95 M 1051.94 473.6 1051.94 489.8 1057.34 495.2 1078.94 495.2 1084.33 489.8 1084.33 473.6 1051.94 473.6 M 1078.94 458.95 1084.33 453.55 1084.33 442.75 1078.94 437.35 M 1057.34 422.7 1051.94 417.3 1051.94 406.5 M 1110.99 411.9 1143.39 411.9 M 1170.05 417.3 1170.05 401.1 1202.44 401.1 1202.44 417.3 1197.05 422.7 1175.45 422.7 1170.05 417.3 M 1170.05 437.35 1202.44 437.35 1202.44 458.95 M 1191.65 473.6 1202.44 484.4 1191.65 495.2 1170.05 495.2 M 1143.39 495.2 1121.79 495.2 1110.99 484.4 1121.79 473.6 1143.39 473.6 M 1143.39 458.95 1132.59 448.15 M 1132.59 453.55 1132.59 437.35 M 1143.39 437.35 1110.99 437.35 1110.99 453.55 1116.39 458.95 1127.19 458.95 1132.59 453.55 M 1127.19 473.6 1127.19 495.2 M 1110.99 509.85 1143.39 531.45 1110.99 531.45 M 1116.39 546.1 1121.79 546.1 1127.19 551.5 1127.19 562.3 1132.59 567.7 1137.99 567.7 1143.39 562.3 1143.39 551.5 1137.99 546.1 M 1116.39 546.1 1110.99 551.5 1110.99 562.3 1116.39 567.7 M 1116.39 582.36 1137.99 582.36 1143.39 587.75 1143.39 598.55 1137.99 603.95 M 1143.39 618.61 1110.99 618.61 1110.99 640.2 M 1127.19 629.41 1127.19 618.61 M 1143.39 618.61 1143.39 640.2 M 1143.39 654.86 1143.39 665.66 M 1143.39 660.26 1110.99 660.26 M 1110.99 654.86 1110.99 665.66 M 1110.99 679.03 1132.59 679.03 1143.39 689.82 1132.59 700.62 1110.99 700.62 M 1110.99 715.28 1143.39 715.28 1143.39 736.88 M 1143.39 751.53 1110.99 751.53 1110.99 767.73 1116.39 773.13 1127.19 773.13 1132.59 767.73 1132.59 751.53 M 1132.59 762.33 1143.39 773.13 M 1110.99 736.88 1110.99 715.28 M 1127.19 715.28 1127.19 726.08 M 1170.05 707.31 1170.05 691.11 1202.44 691.11 1202.44 707.31 1197.05 712.71 1175.45 712.71 1170.05 707.31 M 1175.45 676.46 1186.25 676.46 1191.65 671.06 1191.65 654.86 M 1202.44 654.86 1170.05 654.86 1170.05 671.06 1175.45 676.46 M 1191.65 665.66 1202.44 676.46 M 1229.1 652.93 1234.5 658.33 1256.1 658.33 1261.5 652.93 1261.5 636.73 1229.1 636.73 1229.1 652.93 M 1202.44 640.2 1180.85 640.2 1170.05 629.41 1180.85 618.61 1202.44 618.61 M 1186.25 618.61 1186.25 640.2 M 1197.05 603.95 1175.45 603.95 1170.05 598.55 1170.05 587.75 1175.45 582.36 1197.05 582.36 1202.44 587.75 1202.44 598.55 1197.05 603.95 M 1229.1 600.48 1261.5 600.48 1261.5 622.08 M 1202.44 562.3 1197.05 567.7 1191.65 567.7 1186.25 562.3 1186.25 546.1 M 1202.44 546.1 1170.05 546.1 1170.05 562.3 1175.45 567.7 1180.85 567.7 1186.25 562.3 M 1202.44 562.3 1202.44 546.1 M 1229.1 538.78 1261.5 538.78 M 1261.5 527.98 1261.5 549.58 M 1239.9 527.98 1229.1 538.78 M 1234.5 513.33 1256.1 491.73 1261.5 497.13 1261.5 507.93 1256.1 513.33 1234.5 513.33 1229.1 507.93 1229.1 497.13 1234.5 491.73 1256.1 491.73 M 1256.1 479 1261.5 479 1261.5 473.6 1256.1 473.6 1256.1 479 M 1261.5 458.95 1261.5 437.35 M 1261.5 448.15 1229.1 448.15 1239.9 437.35 M 1250.7 422.7 1229.1 422.7 M 1250.7 422.7 1261.5 411.9 1250.7 401.1 1229.1 401.1 M 1186.25 437.35 1186.25 448.15 M 1170.05 458.95 1170.05 437.35 M 1170.05 473.6 1191.65 473.6 M 1143.39 509.85 1110.99 509.85 M 1068.14 509.85 1068.14 531.45 M 1068.14 546.1 1068.14 562.3 1073.54 567.7 1078.94 567.7 1084.33 562.3 1084.33 546.1 1051.94 546.1 1051.94 562.3 1057.34 567.7 1062.74 567.7 1068.14 562.3 M 1078.94 582.36 1051.94 582.36 M 1051.94 603.95 1078.94 603.95 1084.33 598.55 1084.33 587.75 1078.94 582.36 M 1110.99 587.75 1110.99 598.55 1116.39 603.95 M 1110.99 587.75 1116.39 582.36 M 1078.94 618.61 1084.33 624.01 1084.33 634.81 1078.94 640.2 1073.54 640.2 1068.14 634.81 1068.14 624.01 1062.74 618.61 1057.34 618.61 1051.94 624.01 1051.94 634.81 1057.34 640.2 M 1110.99 422.7 1110.99 401.1" fill="none" stroke-width="7"/><path d="M 1148 380.29 1144.78 348.53 1134.11 345.12 1124.14 339.98 1099.4 360.16 1082.44 343.2 1102.61 318.46 1097.48 308.49 1094.07 297.82 1062.31 294.59 1062.31 270.6 1094.07 267.38 1097.48 256.7 1102.61 246.74 1082.44 222 1099.4 205.04 1124.14 225.21 1134.11 220.08 1144.78 216.67 1148 184.91 1172 184.91 1175.22 216.67 1185.89 220.08 1195.86 225.21 1220.6 205.04 1237.56 222 1217.39 246.74 1222.52 256.7 1188.42 270.83 1185.58 265.51 1181.75 260.85 1177.09 257.02 1171.77 254.18 1166 252.43 1160 251.84 1153.72 252.49 1147.7 254.41 1142.2 257.51 1137.45 261.68 1133.65 266.72 1130.97 272.44 1129.5 278.58 1129.33 284.9 1130.44 291.11 1132.8 296.97 1136.31 302.22 1140.82 306.65 1146.14 310.06 1152.04 312.31 1158.27 313.31 1164.58 313.01 1170.7 311.44 1176.36 308.64 1181.34 304.75 1185.41 299.93 1188.42 294.37 1222.52 308.5 1217.39 318.46 1237.56 343.2 1220.6 360.16 1195.86 339.98 1185.89 345.12 1175.22 348.53 1172 380.29 1148 380.29 M 1147.89 379.18 1172.11 379.18 M 1172.41 376.2 1147.59 376.2 M 1147.29 373.21 1172.71 373.21 M 1173.02 370.23 1146.98 370.23 M 1146.68 367.24 1173.32 367.24 M 1173.62 364.26 1146.38 364.26 M 1146.07 361.27 1173.93 361.27 M 1174.23 358.29 1145.77 358.29 M 1145.47 355.3 1174.53 355.3 M 1174.84 352.32 1145.16 352.32 M 1144.86 349.33 1175.14 349.33 M 1182.04 346.35 1137.96 346.35 M 1130.7 343.36 1189.3 343.36 M 1195.09 340.38 1124.91 340.38 M 1123.66 340.38 1084.74 340.38 M 1082.61 343.36 1120 343.36 M 1116.34 346.35 1085.59 346.35 M 1088.58 349.33 1112.68 349.33 M 1109.02 352.32 1091.56 352.32 M 1094.55 355.3 1105.36 355.3 M 1101.69 358.29 1097.53 358.29 M 1087.17 337.39 1232.83 337.39 M 1235.26 340.38 1196.34 340.38 M 1200 343.36 1237.39 343.36 M 1234.41 346.35 1203.66 346.35 M 1207.32 349.33 1231.42 349.33 M 1228.44 352.32 1210.98 352.32 M 1214.64 355.3 1225.45 355.3 M 1222.47 358.29 1218.31 358.29 M 1230.39 334.41 1089.61 334.41 M 1092.04 331.42 1227.96 331.42 M 1225.52 328.44 1094.48 328.44 M 1096.91 325.45 1223.09 325.45 M 1220.66 322.47 1099.34 322.47 M 1101.78 319.48 1218.22 319.48 M 1218.4 316.5 1101.6 316.5 M 1100.07 313.51 1219.93 313.51 M 1221.47 310.53 1172.54 310.53 M 1177.77 307.54 1220.21 307.54 M 1213.01 304.56 1181.5 304.56 M 1184.02 301.57 1205.8 301.57 M 1198.59 298.59 1186.14 298.59 M 1187.75 295.6 1191.39 295.6 M 1147.37 310.53 1098.53 310.53 M 1097.18 307.54 1142.22 307.54 M 1138.69 304.56 1096.22 304.56 M 1095.27 301.57 1135.88 301.57 M 1133.88 298.59 1094.31 298.59 M 1072.22 295.6 1132.25 295.6 M 1131.05 292.62 1062.31 292.62 M 1062.31 289.63 1130.18 289.63 M 1129.64 286.65 1062.31 286.65 M 1062.31 283.66 1129.36 283.66 M 1129.45 280.68 1062.31 280.68 M 1062.31 277.69 1129.72 277.69 M 1130.43 274.7 1062.31 274.7 M 1062.31 271.72 1131.3 271.72 M 1132.71 268.73 1080.7 268.73 M 1094.59 265.75 1134.39 265.75 M 1136.63 262.76 1095.54 262.76 M 1096.5 259.78 1139.62 259.78 M 1143.47 256.79 1097.45 256.79 M 1098.97 253.81 1149.57 253.81 M 1170.55 253.81 1221.03 253.81 M 1222.29 256.79 1176.66 256.79 M 1180.45 259.78 1215.09 259.78 M 1207.88 262.76 1183.32 262.76 M 1185.7 265.75 1200.67 265.75 M 1193.47 268.73 1187.3 268.73 M 1219.49 250.82 1100.51 250.82 M 1102.05 247.84 1217.95 247.84 M 1218.92 244.85 1101.08 244.85 M 1098.64 241.87 1221.36 241.87 M 1223.79 238.88 1096.21 238.88 M 1093.77 235.9 1226.23 235.9 M 1228.66 232.91 1091.34 232.91 M 1088.91 229.93 1231.09 229.93 M 1233.53 226.94 1086.47 226.94 M 1084.04 223.96 1122.6 223.96 M 1126.58 223.96 1193.42 223.96 M 1197.4 223.96 1235.96 223.96 M 1236.53 220.97 1201.06 220.97 M 1204.72 217.99 1233.55 217.99 M 1230.56 215 1208.38 215 M 1212.04 212.02 1227.58 212.02 M 1224.59 209.03 1215.7 209.03 M 1219.36 206.05 1221.61 206.05 M 1187.63 220.97 1132.37 220.97 M 1140.65 217.99 1179.35 217.99 M 1175.05 215 1144.95 215 M 1145.25 212.02 1174.75 212.02 M 1174.45 209.03 1145.55 209.03 M 1145.86 206.05 1174.14 206.05 M 1173.84 203.06 1146.16 203.06 M 1146.46 200.08 1173.54 200.08 M 1173.23 197.09 1146.77 197.09 M 1147.07 194.11 1172.93 194.11 M 1172.63 191.12 1147.37 191.12 M 1147.68 188.14 1172.32 188.14 M 1172.02 185.15 1147.98 185.15 M 1107.96 212.02 1092.42 212.02 M 1089.44 215 1111.62 215 M 1115.28 217.99 1086.45 217.99 M 1083.47 220.97 1118.94 220.97 M 1104.3 209.03 1095.41 209.03 M 1098.39 206.05 1100.64 206.05" fill="none" stroke-width="3"/></g><g id="U5UcOJcgM_ppAJEPNUlj_top_drill1"><use xlink:href="#MhpFyEznZPD0X9hChx1a_pad-1" x="215" y="327.4"/><use xlink:href="#MhpFyEznZPD0X9hChx1a_pad-1" x="390" y="377.4"/><use xlink:href="#MhpFyEznZPD0X9hChx1a_pad-1" x="540" y="377.4"/><use xlink:href="#MhpFyEznZPD0X9hChx1a_pad-1" x="555" y="552.4"/><use xlink:href="#MhpFyEznZPD0X9hChx1a_pad-1" x="655" y="552.4"/><use xlink:href="#MhpFyEznZPD0X9hChx1a_pad-1" x="740" y="552.4"/><use xlink:href="#MhpFyEznZPD0X9hChx1a_pad-1" x="825" y="552.4"/><use xlink:href="#MhpFyEznZPD0X9hChx1a_pad-1" x="1020" y="452.4"/><use xlink:href="#MhpFyEznZPD0X9hChx1a_pad-1" x="1020" y="402.4"/><use xlink:href="#MhpFyEznZPD0X9hChx1a_pad-1" x="1115" y="390"/><use xlink:href="#MhpFyEznZPD0X9hChx1a_pad-1" x="1215" y="390"/><use xlink:href="#MhpFyEznZPD0X9hChx1a_pad-1" x="250" y="622.4"/><use xlink:href="#MhpFyEznZPD0X9hChx1a_pad-1" x="190" y="640"/><use xlink:href="#MhpFyEznZPD0X9hChx1a_pad-1" x="190" y="590"/><use xlink:href="#MhpFyEznZPD0X9hChx1a_pad-1" x="115" y="615"/><use xlink:href="#MhpFyEznZPD0X9hChx1a_pad-2" x="290" y="102.4"/><use xlink:href="#MhpFyEznZPD0X9hChx1a_pad-2" x="390" y="102.4"/><use xlink:href="#MhpFyEznZPD0X9hChx1a_pad-2" x="490" y="102.4"/><use xlink:href="#MhpFyEznZPD0X9hChx1a_pad-2" x="590" y="102.4"/><use xlink:href="#MhpFyEznZPD0X9hChx1a_pad-2" x="790" y="102.4"/><use xlink:href="#MhpFyEznZPD0X9hChx1a_pad-2" x="890" y="102.4"/><use xlink:href="#MhpFyEznZPD0X9hChx1a_pad-2" x="990" y="102.4"/><use xlink:href="#MhpFyEznZPD0X9hChx1a_pad-2" x="215" y="408.7"/><use xlink:href="#MhpFyEznZPD0X9hChx1a_pad-2" x="115" y="408.7"/></g><clipPath id="U5UcOJcgM_ppAJEPNUlj_top_outline"><path d="M 54.37 15 1274.84 15 1276.08 15.02 1277.31 15.08 1278.55 15.17 1279.77 15.31 1281 15.48 1282.22 15.7 1283.43 15.95 1284.63 16.24 1285.82 16.56 1287.01 16.93 1288.18 17.33 1289.33 17.76 1290.48 18.24 1291.6 18.75 1292.71 19.29 1293.81 19.87 1294.88 20.48 1295.94 21.13 1296.97 21.81 1297.98 22.52 1298.97 23.26 1299.94 24.03 1300.88 24.84 1301.79 25.67 1302.68 26.53 1303.54 27.42 1304.37 28.33 1305.18 29.27 1305.95 30.24 1306.69 31.23 1307.4 32.24 1308.08 33.27 1308.73 34.33 1309.34 35.4 1309.92 36.5 1310.46 37.61 1310.97 38.73 1311.45 39.88 1311.88 41.03 1312.28 42.2 1312.65 43.39 1312.97 44.58 1313.26 45.78 1313.51 46.99 1313.73 48.21 1313.9 49.44 1314.04 50.66 1314.13 51.9 1314.19 53.13 1314.21 54.37 1314.21 763.03 1314.19 764.27 1314.13 765.5 1314.04 766.74 1313.9 767.96 1313.73 769.19 1313.51 770.41 1313.26 771.62 1312.97 772.82 1312.65 774.01 1312.28 775.2 1311.88 776.37 1311.45 777.52 1310.97 778.67 1310.46 779.79 1309.92 780.9 1309.34 782 1308.73 783.07 1308.08 784.13 1307.4 785.16 1306.69 786.17 1305.95 787.16 1305.18 788.13 1304.37 789.07 1303.54 789.98 1302.68 790.87 1301.79 791.73 1300.88 792.56 1299.94 793.37 1298.97 794.14 1297.98 794.88 1296.97 795.59 1295.94 796.27 1294.88 796.92 1293.81 797.53 1292.71 798.11 1291.6 798.65 1290.48 799.16 1289.33 799.64 1288.18 800.07 1287.01 800.47 1285.82 800.84 1284.63 801.16 1283.43 801.45 1282.22 801.7 1281 801.92 1279.77 802.09 1278.55 802.23 1277.31 802.32 1276.08 802.38 1274.84 802.4 54.37 802.4 53.13 802.38 51.9 802.32 50.66 802.23 49.44 802.09 48.21 801.92 46.99 801.7 45.78 801.45 44.58 801.16 43.39 800.84 42.2 800.47 41.03 800.07 39.88 799.64 38.73 799.16 37.61 798.65 36.5 798.11 35.4 797.53 34.33 796.92 33.27 796.27 32.24 795.59 31.23 794.88 30.24 794.14 29.27 793.37 28.33 792.56 27.42 791.73 26.53 790.87 25.67 789.98 24.84 789.07 24.03 788.13 23.26 787.16 22.52 786.17 21.81 785.16 21.13 784.13 20.48 783.07 19.87 782 19.29 780.9 18.75 779.79 18.24 778.67 17.76 777.52 17.33 776.37 16.93 775.2 16.56 774.01 16.24 772.82 15.95 771.62 15.7 770.41 15.48 769.19 15.31 767.96 15.17 766.74 15.08 765.5 15.02 764.27 15 763.03 15 54.37 15.02 53.13 15.08 51.9 15.17 50.66 15.31 49.44 15.48 48.21 15.7 46.99 15.95 45.78 16.24 44.58 16.56 43.39 16.93 42.2 17.33 41.03 17.76 39.88 18.24 38.73 18.75 37.61 19.29 36.5 19.87 35.4 20.48 34.33 21.13 33.27 21.81 32.24 22.52 31.23 23.26 30.24 24.03 29.27 24.84 28.33 25.67 27.42 26.53 26.53 27.42 25.67 28.33 24.84 29.27 24.03 30.24 23.26 31.23 22.52 32.24 21.81 33.27 21.13 34.33 20.48 35.4 19.87 36.5 19.29 37.61 18.75 38.73 18.24 39.88 17.76 41.03 17.33 42.2 16.93 43.39 16.56 44.58 16.24 45.78 15.95 46.99 15.7 48.21 15.48 49.44 15.31 50.66 15.17 51.9 15.08 53.13 15.02 54.37 15" fill="none" stroke-width="0"/></clipPath><mask id="U5UcOJcgM_ppAJEPNUlj_top_mech-mask"><g fill="#000" stroke="#000"><rect x="15" y="15" width="1299.21" height="787.4" fill="#fff"/><use xlink:href="#U5UcOJcgM_ppAJEPNUlj_top_drill1"/></g></mask><mask id="U5UcOJcgM_ppAJEPNUlj_top_cf-mask"><g fill="#fff" stroke="#fff"><use xlink:href="#U5UcOJcgM_ppAJEPNUlj_top_soldermask"/></g></mask><mask id="U5UcOJcgM_ppAJEPNUlj_top_sm-mask"><g fill="#000" stroke="#000"><rect x="15" y="15" width="1299.21" height="787.4" fill="#fff"/><use xlink:href="#U5UcOJcgM_ppAJEPNUlj_top_soldermask"/></g></mask></defs><g transform="translate(0,817.4) scale(1,-1)"><g mask="url(#U5UcOJcgM_ppAJEPNUlj_top_mech-mask)" clip-path="url(#U5UcOJcgM_ppAJEPNUlj_top_outline)"><rect x="15" y="15" width="1299.21" height="787.4" fill="currentColor" class="U5UcOJcgM_ppAJEPNUlj_fr4"/><use xlink:href="#U5UcOJcgM_ppAJEPNUlj_top_copper" fill="currentColor" stroke="currentColor" class="U5UcOJcgM_ppAJEPNUlj_cu"/><use xlink:href="#U5UcOJcgM_ppAJEPNUlj_top_copper" fill="currentColor" stroke="currentColor" class="U5UcOJcgM_ppAJEPNUlj_cf" mask="url(#U5UcOJcgM_ppAJEPNUlj_top_cf-mask)"/><g mask="url(#U5UcOJcgM_ppAJEPNUlj_top_sm-mask)"><rect x="15" y="15" width="1299.21" height="787.4" fill="currentColor" class="U5UcOJcgM_ppAJEPNUlj_sm"/><use xlink:href="#U5UcOJcgM_ppAJEPNUlj_top_silkscreen" fill="currentColor" stroke="currentColor" class="U5UcOJcgM_ppAJEPNUlj_ss"/></g></g></g></svg>