<svg version="1.1" xmlns="http://www.w3.org/2000/svg" xmlns:xlink="http://www.w3.org/1999/xlink" stroke-linecap="round" stroke-linejoin="round" stroke-width="0" fill-rule="evenodd" clip-rule="evenodd" id="U5UcOJcgM_ppAJEPNUlj_bottom" viewBox="15 15 1299.21 787.4" width="1.29921in" height="0.7874in" class="w-100 h-100"><defs><style>.U5UcOJcgM_ppAJEPNUlj_fr4 {color: #666666;}
.U5UcOJcgM_ppAJEPNUlj_cu {color: #cccccc;}
.U5UcOJcgM_ppAJEPNUlj_cf {color: #cc9933;}
.U5UcOJcgM_ppAJEPNUlj_sm {color: #004200; opacity: 0.75;}
.U5UcOJcgM_ppAJEPNUlj_ss {color: #ffffff;}
.U5UcOJcgM_ppAJEPNUlj_sp {color: #999999;}
.U5UcOJcgM_ppAJEPNUlj_out {color: #000000;}</style><rect x="-37.4" y="-37.4" width="74.8" height="74.8" id="o6HESuqCfkwBXxHbwbti_pad-13"/><circle cx="0" cy="0" r="37.4" id="o6HESuqCfkwBXxHbwbti_pad-14"/><circle cx="0" cy="0" r="18.7" id="o6HESuqCfkwBXxHbwbti_pad-15"/><rect x="-41.4" y="-41.4" width="82.8" height="82.8" id="x7doRWZD7xSVt1-3WgDn_pad-13"/><circle cx="0" cy="0" r="41.4" id="x7doRWZD7xSVt1-3WgDn_pad-14"/><circle cx="0" cy="0" r="9.85" id="MhpFyEznZPD0X9hChx1a_pad-1"/><circle cx="0" cy="0" r="19.7" id="MhpFyEznZPD0X9hChx1a_pad-2"/><g id="U5UcOJcgM_ppAJEPNUlj_bottom_silkscreen"><path d="M 79.02 41.01 86.02 34 100.03 34 107.04 41.01 M 125.05 41.01 132.06 34 146.07 34 153.08 41.01 153.08 69.03 146.07 76.04 132.06 76.04 125.05 69.03 M 107.04 69.03 100.03 76.04 86.02 76.04 79.02 69.03 79.02 62.02 86.02 55.02 79.02 48.01 79.02 41.01 M 86.02 55.02 93.03 55.02 M 80 180 80 230 M 150 230 150 180 M 329.02 223.41 336.02 216.4 350.03 216.4 357.04 223.41 329.02 251.43 329.02 223.41 M 357.04 223.41 357.04 251.43 350.03 258.44 336.02 258.44 329.02 251.43 M 375.05 216.4 403.08 216.4 M 389.07 216.4 389.07 258.44 403.08 244.43 M 421.09 251.43 421.09 237.42 428.1 230.41 449.12 230.41 M 435.11 230.41 421.09 216.4 M 449.12 216.4 449.12 258.44 428.1 258.44 421.09 251.43 M 415 292.4 365 292.4 M 365 362.4 415 362.4 M 490 474.9 290 474.9 290 629.9 490 629.9 490 579.9 488.96 579.88 487.92 579.82 486.88 579.72 485.85 579.59 484.83 579.41 483.81 579.19 482.8 578.94 481.8 578.65 480.81 578.32 479.84 577.95 478.88 577.55 477.93 577.11 477.01 576.64 476.1 576.13 475.21 575.59 474.35 575.01 473.5 574.4 472.68 573.76 471.88 573.09 471.11 572.39 470.37 571.66 469.66 570.9 468.97 570.12 468.32 569.31 467.69 568.48 467.1 567.62 466.54 566.75 466.01 565.85 465.52 564.93 465.06 564 464.64 563.04 464.26 562.08 463.91 561.1 463.6 560.1 463.33 559.1 463.09 558.08 462.9 557.06 462.74 556.03 462.62 555 462.54 553.96 462.5 552.92 462.5 551.88 462.54 550.84 462.62 549.8 462.74 548.77 462.9 547.74 463.09 546.72 463.33 545.7 463.6 544.7 463.91 543.7 464.26 542.72 464.64 541.76 465.06 540.8 465.52 539.87 466.01 538.95 466.54 538.05 467.1 537.18 467.69 536.32 468.32 535.49 468.97 534.68 469.66 533.9 470.37 533.14 471.11 532.41 471.88 531.71 472.68 531.04 473.5 530.4 474.35 529.79 475.21 529.21 476.1 528.67 477.01 528.16 477.93 527.69 478.88 527.25 479.84 526.85 480.81 526.48 481.8 526.15 482.8 525.86 483.81 525.61 484.83 525.39 485.85 525.21 486.88 525.08 487.92 524.98 488.96 524.92 490 524.9 490 474.9 M 430.86 507.4 430.88 508.15 430.94 508.89 431.04 509.63 431.17 510.36 431.35 511.09 431.56 511.8 431.81 512.51 432.1 513.2 432.43 513.87 432.79 514.52 433.18 515.16 433.6 515.77 434.06 516.36 434.55 516.93 435.07 517.46 435.61 517.97 436.18 518.46 436.78 518.9 437.4 519.32 438.04 519.71 438.7 520.06 439.37 520.37 440.07 520.65 440.77 520.89 441.49 521.1 442.22 521.26 442.95 521.39 443.7 521.48 444.44 521.53 445.19 521.54 445.93 521.51 446.68 521.44 447.41 521.33 448.15 521.19 448.87 521 449.58 520.78 450.28 520.52 450.97 520.22 451.63 519.89 452.28 519.52 452.91 519.12 453.52 518.68 454.1 518.22 454.66 517.72 455.19 517.2 455.7 516.65 456.17 516.07 456.61 515.47 457.02 514.84 457.4 514.2 457.74 513.54 458.05 512.85 458.32 512.16 458.55 511.45 458.74 510.73 458.9 510 459.02 509.26 459.1 508.52 459.14 507.77 459.14 507.03 459.1 506.28 459.02 505.54 458.9 504.8 458.74 504.07 458.55 503.35 458.32 502.64 458.05 501.95 457.74 501.26 457.4 500.6 457.02 499.96 456.61 499.33 456.17 498.73 455.7 498.15 455.19 497.6 454.66 497.08 454.1 496.58 453.52 496.12 452.91 495.68 452.28 495.28 451.63 494.91 450.97 494.58 450.28 494.28 449.58 494.02 448.87 493.8 448.15 493.61 447.41 493.47 446.68 493.36 445.93 493.29 445.19 493.26 444.44 493.27 443.7 493.32 442.95 493.41 442.22 493.54 441.49 493.7 440.77 493.91 440.07 494.15 439.37 494.43 438.7 494.74 438.04 495.09 437.4 495.48 436.78 495.9 436.18 496.34 435.61 496.83 435.07 497.34 434.55 497.87 434.06 498.44 433.6 499.03 433.18 499.64 432.79 500.28 432.43 500.93 432.1 501.6 431.81 502.29 431.56 503 431.35 503.71 431.17 504.44 431.04 505.17 430.94 505.91 430.88 506.65 430.86 507.4 M 530 527.4 530 577.4 M 600 577.4 600 527.4 M 719 523.41 726.01 516.4 761.04 516.4 M 761.04 544.43 726.01 544.43 719 537.42 719 523.41 M 719 562.44 719 590.46 M 719 576.45 761.04 576.45 747.02 562.44 M 790 629.9 790 474.9 990 474.9 990 524.9 988.96 524.92 987.92 524.98 986.88 525.08 985.85 525.21 984.83 525.39 983.81 525.61 982.8 525.86 981.8 526.15 980.81 526.48 979.84 526.85 978.88 527.25 977.93 527.69 977.01 528.16 976.1 528.67 975.21 529.21 974.35 529.79 973.5 530.4 972.68 531.04 971.88 531.71 971.11 532.41 970.37 533.14 969.66 533.9 968.97 534.68 968.32 535.49 967.69 536.32 967.1 537.18 966.54 538.05 966.01 538.95 965.52 539.87 965.06 540.8 964.64 541.76 964.26 542.72 963.91 543.7 963.6 544.7 963.33 545.7 963.09 546.72 962.9 547.74 962.74 548.77 962.62 549.8 962.54 550.84 962.5 551.88 962.5 552.92 962.54 553.96 962.62 555 962.74 556.03 962.9 557.06 963.09 558.08 963.33 559.1 963.6 560.1 963.91 561.1 964.26 562.08 964.64 563.04 965.06 564 965.52 564.93 966.01 565.85 966.54 566.75 967.1 567.62 967.69 568.48 968.32 569.31 968.97 570.12 969.66 570.9 970.37 571.66 971.11 572.39 971.88 573.09 972.68 573.76 973.5 574.4 974.35 575.01 975.21 575.59 976.1 576.13 977.01 576.64 977.93 577.11 978.88 577.55 979.84 577.95 980.81 578.32 981.8 578.65 982.8 578.94 983.81 579.19 984.83 579.41 985.85 579.59 986.88 579.72 987.92 579.82 988.96 579.88 990 579.9 990 629.9 790 629.9 M 601 688.41 593.99 681.4 579.98 681.4 572.98 688.41 M 554.96 681.4 526.94 681.4 M 540.95 681.4 540.95 723.44 554.96 709.43 M 572.98 716.43 579.98 723.44 593.99 723.44 601 716.43 601 688.41 M 261.04 583.46 261.04 569.45 254.03 562.44 M 261.04 544.43 226.01 544.43 219 537.42 219 523.41 226.01 516.4 261.04 516.4 M 219 562.44 247.02 590.46 254.03 590.46 261.04 583.46 M 219 590.46 219 562.44 M 150 590 150 640 M 80 640 80 590 M 76.94 744 104.96 744 76.94 772.02 76.94 779.03 83.94 786.04 97.95 786.04 104.96 779.03 M 122.98 779.03 129.98 786.04 143.99 786.04 151 779.03 151 751.01 143.99 744 129.98 744 122.98 751.01 M 681.94 348.63 681.94 341.63 709.96 313.6 709.96 306.6 M 727.98 306.6 741.99 320.61 M 734.98 320.61 756 320.61 M 734.98 320.61 727.98 327.62 727.98 341.63 734.98 348.63 756 348.63 756 306.6 M 709.96 348.63 681.94 348.63 M 681.94 253.63 695.95 246.63 709.96 232.62 688.94 232.62 681.94 225.61 681.94 218.6 688.94 211.6 702.95 211.6 709.96 218.6 709.96 232.62 M 727.98 232.62 734.98 225.61 756 225.61 M 741.99 225.61 727.98 211.6 M 756 211.6 756 253.63 734.98 253.63 727.98 246.63 727.98 232.62 M 865 262.4 915 262.4 M 915 292.4 865 292.4 M 865 362.4 915 362.4 M 1094 370.66 1094 342.64 1122.02 370.66 1129.03 370.66 1136.04 363.66 1136.04 349.64 1129.03 342.64 M 1129.03 324.62 1101.01 324.62 1094 317.62 1094 296.6 1136.04 296.6 1136.04 317.62 1129.03 324.62 M 1194 317.42 1194 296.4 1236.04 296.4 1236.04 317.42 1229.03 324.43 1201.01 324.43 1194 317.42 M 1194 342.44 1194 370.46 M 1194 356.45 1236.04 356.45 1222.02 342.44 M 1250 192.4 1250 142.4 M 1233.62 155.59 1196.38 155.59 1215 179.21 1233.62 155.59 M 1234.56 179.21 1215 179.21 1195.44 179.21 M 1180 192.4 1180 142.4 M 1150 142.6 1150 192.6 M 1134.56 179.41 1115 179.41 1096.38 155.79 1133.62 155.79 1115 179.41 1095.44 179.41 M 1080 192.6 1080 142.6 M 915 192.4 865 192.4 M 930.86 507.4 930.88 508.15 930.94 508.89 931.04 509.63 931.17 510.36 931.35 511.09 931.56 511.8 931.81 512.51 932.1 513.2 932.43 513.87 932.79 514.52 933.18 515.16 933.6 515.77 934.06 516.36 934.55 516.93 935.07 517.46 935.61 517.97 936.18 518.46 936.78 518.9 937.4 519.32 938.04 519.71 938.7 520.06 939.37 520.37 940.07 520.65 940.77 520.89 941.49 521.1 942.22 521.26 942.95 521.39 943.7 521.48 944.44 521.53 945.19 521.54 945.93 521.51 946.68 521.44 947.41 521.33 948.15 521.19 948.87 521 949.58 520.78 950.28 520.52 950.97 520.22 951.63 519.89 952.28 519.52 952.91 519.12 953.52 518.68 954.1 518.22 954.66 517.72 955.19 517.2 955.7 516.65 956.17 516.07 956.61 515.47 957.02 514.84 957.4 514.2 957.74 513.54 958.05 512.85 958.32 512.16 958.55 511.45 958.74 510.73 958.9 510 959.02 509.26 959.1 508.52 959.14 507.77 959.14 507.03 959.1 506.28 959.02 505.54 958.9 504.8 958.74 504.07 958.55 503.35 958.32 502.64 958.05 501.95 957.74 501.26 957.4 500.6 957.02 499.96 956.61 499.33 956.17 498.73 955.7 498.15 955.19 497.6 954.66 497.08 954.1 496.58 953.52 496.12 952.91 495.68 952.28 495.28 951.63 494.91 950.97 494.58 950.28 494.28 949.58 494.02 948.87 493.8 948.15 493.61 947.41 493.47 946.68 493.36 945.93 493.29 945.19 493.26 944.44 493.27 943.7 493.32 942.95 493.41 942.22 493.54 941.49 493.7 940.77 493.91 940.07 494.15 939.37 494.43 938.7 494.74 938.04 495.09 937.4 495.48 936.78 495.9 936.18 496.34 935.61 496.83 935.07 497.34 934.55 497.87 934.06 498.44 933.6 499.03 933.18 499.64 932.79 500.28 932.43 500.93 932.1 501.6 931.81 502.29 931.56 503 931.35 503.71 931.17 504.44 931.04 505.17 930.94 505.91 930.88 506.65 930.86 507.4 M 1034 526.4 1057 526.4 M 1034 526.4 1034 555.4 M 1085 578.4 1095 578.4 M 1146 555.4 1146 526.4 1123 526.4 M 1126 656.4 1126 698.44 1097.98 656.4 1097.98 698.44 M 1079.96 684.43 1065.95 698.44 1065.95 656.4 M 1079.96 656.4 1051.94 656.4" fill="none" stroke-width="8"/></g><g id="U5UcOJcgM_ppAJEPNUlj_bottom_copper"><path d="M 305.21 455.89 324.79 455.89 324.79 412.69 305.21 412.69 305.21 455.89 M 305.21 420.67 324.79 420.67 M 324.79 428.65 305.21 428.65 M 305.21 436.63 324.79 436.63 M 324.79 444.61 305.21 444.61 M 305.21 452.59 324.79 452.59 M 355.21 455.89 374.79 455.89 374.79 412.69 355.21 412.69 355.21 455.89 M 355.21 420.67 374.79 420.67 M 374.79 428.65 355.21 428.65 M 355.21 436.63 374.79 436.63 M 374.79 444.61 355.21 444.61 M 355.21 452.59 374.79 452.59 M 405.21 455.89 424.79 455.89 424.79 412.69 405.21 412.69 405.21 455.89 M 405.21 420.67 424.79 420.67 M 424.79 428.65 405.21 428.65 M 405.21 436.63 424.79 436.63 M 424.79 444.61 405.21 444.61 M 405.21 452.59 424.79 452.59 M 455.21 455.89 474.79 455.89 474.79 412.69 455.21 412.69 455.21 455.89 M 455.21 420.67 474.79 420.67 M 474.79 428.65 455.21 428.65 M 455.21 436.63 474.79 436.63 M 474.79 444.61 455.21 444.61 M 455.21 452.59 474.79 452.59 M 805.21 456 824.79 456 824.79 412.8 805.21 412.8 805.21 456 M 805.21 420.78 824.79 420.78 M 824.79 428.76 805.21 428.76 M 805.21 436.74 824.79 436.74 M 824.79 444.72 805.21 444.72 M 805.21 452.7 824.79 452.7 M 855.21 456 874.79 456 874.79 412.8 855.21 412.8 855.21 456 M 855.21 420.78 874.79 420.78 M 874.79 428.76 855.21 428.76 M 855.21 436.74 874.79 436.74 M 874.79 444.72 855.21 444.72 M 855.21 452.7 874.79 452.7 M 905.21 456 924.79 456 924.79 412.8 905.21 412.8 905.21 456 M 905.21 420.78 924.79 420.78 M 924.79 428.76 905.21 428.76 M 905.21 436.74 924.79 436.74 M 924.79 444.72 905.21 444.72 M 905.21 452.7 924.79 452.7 M 955.21 456 974.79 456 974.79 412.8 955.21 412.8 955.21 456 M 955.21 420.78 974.79 420.78 M 974.79 428.76 955.21 428.76 M 955.21 436.74 974.79 436.74 M 974.79 444.72 955.21 444.72 M 955.21 452.7 974.79 452.7 M 974.79 692 955.21 692 M 974.79 692 974.79 648.8 955.21 648.8 955.21 692 M 955.21 656.78 974.79 656.78 M 974.79 664.76 955.21 664.76 M 955.21 672.74 974.79 672.74 M 974.79 680.72 955.21 680.72 M 955.21 688.7 974.79 688.7 M 924.79 692 905.21 692 M 924.79 692 924.79 648.8 905.21 648.8 905.21 692 M 905.21 656.78 924.79 656.78 M 924.79 664.76 905.21 664.76 M 905.21 672.74 924.79 672.74 M 924.79 680.72 905.21 680.72 M 905.21 688.7 924.79 688.7 M 874.79 692 855.21 692 M 874.79 692 874.79 648.8 855.21 648.8 855.21 692 M 855.21 656.78 874.79 656.78 M 874.79 664.76 855.21 664.76 M 855.21 672.74 874.79 672.74 M 874.79 680.72 855.21 680.72 M 855.21 688.7 874.79 688.7 M 824.79 692 805.21 692 M 824.79 692 824.79 648.8 805.21 648.8 805.21 692 M 805.21 656.78 824.79 656.78 M 824.79 664.76 805.21 664.76 M 805.21 672.74 824.79 672.74 M 824.79 680.72 805.21 680.72 M 805.21 688.7 824.79 688.7 M 474.79 692.11 455.21 692.11 M 474.79 692.11 474.79 648.91 455.21 648.91 455.21 692.11 M 455.21 656.89 474.79 656.89 M 474.79 664.87 455.21 664.87 M 455.21 672.85 474.79 672.85 M 474.79 680.83 455.21 680.83 M 455.21 688.81 474.79 688.81 M 424.79 692.11 405.21 692.11 M 424.79 692.11 424.79 648.91 405.21 648.91 405.21 692.11 M 405.21 656.89 424.79 656.89 M 424.79 664.87 405.21 664.87 M 405.21 672.85 424.79 672.85 M 424.79 680.83 405.21 680.83 M 405.21 688.81 424.79 688.81 M 374.79 692.11 355.21 692.11 M 374.79 692.11 374.79 648.91 355.21 648.91 355.21 692.11 M 355.21 656.89 374.79 656.89 M 374.79 664.87 355.21 664.87 M 355.21 672.85 374.79 672.85 M 374.79 680.83 355.21 680.83 M 355.21 688.81 374.79 688.81 M 324.79 692.11 305.21 692.11 M 324.79 692.11 324.79 648.91 305.21 648.91 305.21 692.11 M 305.21 656.89 324.79 656.89 M 324.79 664.87 305.21 664.87 M 305.21 672.85 324.79 672.85 M 324.79 680.83 305.21 680.83 M 305.21 688.81 324.79 688.81" fill="none" stroke-width="7.99"/><path d="M 1036.85 572.08 1068.35 572.08 M 1036.85 572.08 1036.85 619.34 1068.35 619.34 1068.35 572.08 M 1068.35 579.94 1036.85 579.94 M 1036.85 587.8 1068.35 587.8 M 1068.35 595.66 1036.85 595.66 M 1036.85 603.52 1068.35 603.52 M 1068.35 611.38 1036.85 611.38 M 1036.85 619.24 1068.35 619.24 M 1111.65 572.08 1143.15 572.08 M 1111.65 572.08 1111.65 619.34 1143.15 619.34 1143.15 572.08 M 1143.15 579.94 1111.65 579.94 M 1111.65 587.8 1143.15 587.8 M 1143.15 595.66 1111.65 595.66 M 1111.65 603.52 1143.15 603.52 M 1143.15 611.38 1111.65 611.38 M 1111.65 619.24 1143.15 619.24 M 1105.75 485.46 1074.25 485.46 1074.25 532.72 1105.75 532.72 1105.75 485.46 M 1105.75 493.32 1074.25 493.32 M 1074.25 501.18 1105.75 501.18 M 1105.75 509.04 1074.25 509.04 M 1074.25 516.9 1105.75 516.9 M 1105.75 524.76 1074.25 524.76 M 1074.25 532.62 1105.75 532.62" fill="none" stroke-width="7.87"/><path d="M 983.88 362.64 933.08 362.64 M 983.88 362.64 983.88 292.16 933.08 292.16 933.08 362.64 M 933.08 300.42 983.88 300.42 M 983.88 308.68 933.08 308.68 M 933.08 316.94 983.88 316.94 M 983.88 325.2 933.08 325.2 M 933.08 333.46 983.88 333.46 M 983.88 341.72 933.08 341.72 M 933.08 349.98 983.88 349.98 M 983.88 358.24 933.08 358.24 M 846.92 362.64 796.12 362.64 M 846.92 362.64 846.92 292.16 796.12 292.16 796.12 362.64 M 796.12 300.42 846.92 300.42 M 846.92 308.68 796.12 308.68 M 796.12 316.94 846.92 316.94 M 846.92 325.2 796.12 325.2 M 796.12 333.46 846.92 333.46 M 846.92 341.72 796.12 341.72 M 796.12 349.98 846.92 349.98 M 846.92 358.24 796.12 358.24 M 796.12 262.64 846.92 262.64 846.92 192.16 796.12 192.16 796.12 262.64 M 796.12 200.42 846.92 200.42 M 846.92 208.68 796.12 208.68 M 796.12 216.94 846.92 216.94 M 846.92 225.2 796.12 225.2 M 796.12 233.46 846.92 233.46 M 846.92 241.72 796.12 241.72 M 796.12 249.98 846.92 249.98 M 846.92 258.24 796.12 258.24 M 933.08 262.64 983.88 262.64 983.88 192.16 933.08 192.16 933.08 262.64 M 933.08 200.42 983.88 200.42 M 983.88 208.68 933.08 208.68 M 933.08 216.94 983.88 216.94 M 983.88 225.2 933.08 225.2 M 933.08 233.46 983.88 233.46 M 983.88 241.72 933.08 241.72 M 933.08 249.98 983.88 249.98 M 983.88 258.24 933.08 258.24 M 1150.24 261.48 1150.24 210.68 1079.76 210.68 1079.76 261.48 1150.24 261.48 M 1150.24 218.94 1079.76 218.94 M 1079.76 227.2 1150.24 227.2 M 1150.24 235.46 1079.76 235.46 M 1079.76 243.72 1150.24 243.72 M 1150.24 251.98 1079.76 251.98 M 1079.76 260.24 1150.24 260.24 M 1250.24 261.29 1250.24 210.49 1179.76 210.49 1179.76 261.29 1250.24 261.29 M 1250.24 218.75 1179.76 218.75 M 1179.76 227.01 1250.24 227.01 M 1250.24 235.27 1179.76 235.27 M 1179.76 243.53 1250.24 243.53 M 1250.24 251.79 1179.76 251.79 M 1179.76 260.05 1250.24 260.05 M 1250.24 124.32 1250.24 73.52 1179.76 73.52 1179.76 124.32 1250.24 124.32 M 1250.24 81.78 1179.76 81.78 M 1179.76 90.04 1250.24 90.04 M 1250.24 98.3 1179.76 98.3 M 1179.76 106.56 1250.24 106.56 M 1250.24 114.82 1179.76 114.82 M 1179.76 123.08 1250.24 123.08 M 1150.24 124.51 1150.24 73.71 1079.76 73.71 1079.76 124.51 1150.24 124.51 M 1150.24 81.97 1079.76 81.97 M 1079.76 90.23 1150.24 90.23 M 1150.24 98.49 1079.76 98.49 M 1079.76 106.75 1150.24 106.75 M 1150.24 115.01 1079.76 115.01 M 1079.76 123.27 1150.24 123.27 M 600.24 458.52 600.24 509.32 M 600.24 458.52 529.76 458.52 529.76 509.32 600.24 509.32 M 600.24 466.78 529.76 466.78 M 529.76 475.04 600.24 475.04 M 600.24 483.3 529.76 483.3 M 529.76 491.56 600.24 491.56 M 600.24 499.82 529.76 499.82 M 529.76 508.08 600.24 508.08 M 600.24 595.49 600.24 646.29 M 600.24 595.49 529.76 595.49 529.76 646.29 600.24 646.29 M 600.24 603.75 529.76 603.75 M 529.76 612.01 600.24 612.01 M 600.24 620.27 529.76 620.27 M 529.76 628.53 600.24 628.53 M 600.24 636.79 529.76 636.79 M 529.76 645.05 600.24 645.05 M 150.24 658.08 150.24 708.88 M 150.24 658.08 79.76 658.08 79.76 708.88 150.24 708.88 M 150.24 666.34 79.76 666.34 M 79.76 674.6 150.24 674.6 M 150.24 682.86 79.76 682.86 M 79.76 691.12 150.24 691.12 M 150.24 699.38 79.76 699.38 M 79.76 707.64 150.24 707.64 M 150.24 571.92 150.24 521.12 79.76 521.12 79.76 571.92 150.24 571.92 M 150.24 529.38 79.76 529.38 M 79.76 537.64 150.24 537.64 M 150.24 545.9 79.76 545.9 M 79.76 554.16 150.24 554.16 M 150.24 562.42 79.76 562.42 M 79.76 570.68 150.24 570.68 M 296.12 362.64 346.92 362.64 346.92 292.16 296.12 292.16 296.12 362.64 M 296.12 300.42 346.92 300.42 M 346.92 308.68 296.12 308.68 M 296.12 316.94 346.92 316.94 M 346.92 325.2 296.12 325.2 M 296.12 333.46 346.92 333.46 M 346.92 341.72 296.12 341.72 M 296.12 349.98 346.92 349.98 M 346.92 358.24 296.12 358.24 M 433.08 362.64 483.88 362.64 483.88 292.16 433.08 292.16 433.08 362.64 M 433.08 300.42 483.88 300.42 M 483.88 308.68 433.08 308.68 M 433.08 316.94 483.88 316.94 M 483.88 325.2 433.08 325.2 M 433.08 333.46 483.88 333.46 M 483.88 341.72 433.08 341.72 M 433.08 349.98 483.88 349.98 M 483.88 358.24 433.08 358.24 M 79.76 298.88 79.76 248.08 M 79.76 298.88 150.24 298.88 150.24 248.08 79.76 248.08 M 79.76 256.34 150.24 256.34 M 150.24 264.6 79.76 264.6 M 79.76 272.86 150.24 272.86 M 150.24 281.12 79.76 281.12 M 79.76 289.38 150.24 289.38 M 150.24 297.64 79.76 297.64 M 79.76 161.92 79.76 111.12 M 79.76 161.92 150.24 161.92 150.24 111.12 79.76 111.12 M 79.76 119.38 150.24 119.38 M 150.24 127.64 79.76 127.64 M 79.76 135.9 150.24 135.9 M 150.24 144.16 79.76 144.16 M 79.76 152.42 150.24 152.42 M 150.24 160.68 79.76 160.68" fill="none" stroke-width="8.27"/><use xlink:href="#o6HESuqCfkwBXxHbwbti_pad-13" x="290" y="102.4"/><use xlink:href="#o6HESuqCfkwBXxHbwbti_pad-13" x="115" y="408.7"/><use xlink:href="#o6HESuqCfkwBXxHbwbti_pad-13" x="990" y="102.4"/><use xlink:href="#o6HESuqCfkwBXxHbwbti_pad-14" x="890" y="102.4"/><use xlink:href="#o6HESuqCfkwBXxHbwbti_pad-14" x="790" y="102.4"/><use xlink:href="#o6HESuqCfkwBXxHbwbti_pad-14" x="590" y="102.4"/><use xlink:href="#o6HESuqCfkwBXxHbwbti_pad-14" x="490" y="102.4"/><use xlink:href="#o6HESuqCfkwBXxHbwbti_pad-14" x="390" y="102.4"/><use xlink:href="#o6HESuqCfkwBXxHbwbti_pad-14" x="215" y="408.7"/><use xlink:href="#o6HESuqCfkwBXxHbwbti_pad-15" x="215" y="327.4"/><use xlink:href="#o6HESuqCfkwBXxHbwbti_pad-15" x="390" y="377.4"/><use xlink:href="#o6HESuqCfkwBXxHbwbti_pad-15" x="540" y="377.4"/><use xlink:href="#o6HESuqCfkwBXxHbwbti_pad-15" x="555" y="552.4"/><use xlink:href="#o6HESuqCfkwBXxHbwbti_pad-15" x="655" y="552.4"/><use xlink:href="#o6HESuqCfkwBXxHbwbti_pad-15" x="740" y="552.4"/><use xlink:href="#o6HESuqCfkwBXxHbwbti_pad-15" x="825" y="552.4"/><use xlink:href="#o6HESuqCfkwBXxHbwbti_pad-15" x="1020" y="452.4"/><use xlink:href="#o6HESuqCfkwBXxHbwbti_pad-15" x="1020" y="402.4"/><use xlink:href="#o6HESuqCfkwBXxHbwbti_pad-15" x="1115" y="390"/><use xlink:href="#o6HESuqCfkwBXxHbwbti_pad-15" x="1215" y="390"/><use xlink:href="#o6HESuqCfkwBXxHbwbti_pad-15" x="250" y="622.4"/><use xlink:href="#o6HESuqCfkwBXxHbwbti_pad-15" x="190" y="640"/><use xlink:href="#o6HESuqCfkwBXxHbwbti_pad-15" x="190" y="590"/><use xlink:href="#o6HESuqCfkwBXxHbwbti_pad-15" x="115" y="615"/><path d="M 115 615 115 683.48 131.08 683.48 M 250 712.4 250 622.4 M 250 712.4 290 752.4 565 752.4 647 670.4 815 670.4 M 815 552.4 825 552.4 M 815 552.4 640 377.4 540 377.4 M 458.48 327.4 458.48 230.89 390 162.4 390 102.4 M 490 102.4 490 152.4 772 434.4 807 434.4 M 821.52 327.4 821.52 227.4 715 227.4 590 102.4 M 390 277.4 315 202.4 180.89 202.4 115 136.52 M 390 277.4 390 377.4 M 321.52 327.4 215 327.4 M 565 620.89 633.48 552.4 655 552.4 M 565 612.4 565 620.89 515.37 670.51 475.37 670.51 M 565 620.89 571.52 620.89 M 1115 390 1115 236.08 M 1215 235.89 1215 390" fill="none" stroke-width="39.37"/><path d="M 1145 435 1200 490 1200 640 1165 675 1085 675 1052.6 642.6 1052.6 595.71 1009.29 552.4 895 552.4 815 472.4 815 434.4 807 434.4 M 865 434.4 865 370.89 821.52 327.4 M 915 370.89 958.48 327.4 M 915 370.89 915 434.4 915 472.4 951.69 509.09 1090 509.09 M 1095 435 1145 435 M 1095 435 1065 405 1065 330 958.48 223.48 958.48 227.4 M 465 333.92 458.48 327.4 M 465 333.92 465 434.29 M 415 434.29 415 402.4 390 377.4 M 365 434.29 365 475 442.4 552.4 555 552.4 M 740 552.4 795 607.4 890 607.4 915 632.4 915 670.4 965 670.4 M 865 670.4 815 670.4 M 475.37 670.51 465 670.51" fill="none" stroke-width="23.62"/><path d="M 49.42 29.49 40.28 33.28 33.28 40.28 29.49 49.42 29 54.37 29 763.03 29.49 767.98 33.28 777.13 40.28 784.13 49.42 787.91 54.37 788.4 1274.84 788.4 1279.79 787.91 1288.94 784.13 1295.94 777.13 1299.73 767.98 1300.21 763.03 1300.21 54.37 1299.73 49.42 1295.94 40.28 1288.94 33.28 1279.79 29.49 1274.84 29 54.37 29 49.42 29.49 M 38.58 34.97 1290.63 34.97 M 1297.88 44.96 31.34 44.96 M 29 54.94 241.44 54.94 M 240.6 55.79 243.39 53 246.81 51.02 250.62 50 285.16 50 285.16 97.56 294.84 97.56 294.84 50 329.38 50 333.19 51.02 336.61 53 339.4 55.79 341.38 59.21 342.4 63.03 342.4 88.22 348.12 74.42 362.02 60.52 380.17 53 399.83 53 417.98 60.52 431.88 74.42 439.4 92.57 439.4 112.23 431.88 130.39 421.68 140.58 421.68 149.28 476.43 204.02 485.35 212.94 490.17 224.58 490.17 276.03 490.56 276.03 500.01 285.48 500.01 369.32 490.56 378.77 488.81 378.77 488.81 404.1 490.78 406.07 490.78 462.51 481.41 471.88 448.59 471.88 440 463.29 431.41 471.88 398.59 471.88 390 463.29 388.81 464.48 388.81 465.14 452.26 528.59 535.39 528.59 535.54 528.44 527.24 528.44 522.38 527.14 518.02 524.62 514.45 521.06 511.93 516.7 510.63 511.83 510.63 488.92 560 488.92 560 478.92 510.63 478.92 510.63 456 511.93 451.14 514.45 446.78 518.02 443.21 522.38 440.69 527.24 439.39 560 439.39 560 478.92 570 478.92 570 488.92 619.37 488.92 619.37 511.83 618.07 516.7 615.55 521.06 611.98 524.62 607.62 527.14 602.76 528.44 574.46 528.44 581.03 535.01 585.7 546.29 585.7 555.38 615.54 525.54 627.18 520.72 661.3 520.72 672.95 525.54 681.86 534.45 686.68 546.1 686.68 558.7 681.86 570.35 672.95 579.26 661.3 584.09 646.61 584.09 616.37 614.33 616.37 652.96 606.92 662.41 568.28 662.41 533.32 697.37 521.68 702.2 487.31 702.2 481.41 708.1 448.59 708.1 440 699.51 431.41 708.1 398.59 708.1 390 699.51 381.41 708.1 348.59 708.1 340 699.51 331.41 708.1 298.59 708.1 289.22 698.73 289.22 642.29 298.59 632.92 331.41 632.92 340 641.51 348.59 632.92 381.41 632.92 390 641.51 398.59 632.92 431.41 632.92 440 641.51 448.59 632.92 481.41 632.92 487.31 638.83 502.25 638.83 513.63 627.45 513.63 588.81 523.08 579.36 539.85 579.36 537.61 578.43 535.39 576.21 432.54 576.21 355.14 498.81 341.19 484.86 341.19 465.46 339.98 467.55 336.45 471.09 332.12 473.59 327.28 474.88 316.89 474.88 316.89 436.18 313.11 436.18 313.11 432.4 316.89 432.4 316.89 393.7 327.28 393.7 332.12 395 336.45 397.5 339.98 401.03 341.55 403.74 348.59 396.7 364.49 396.7 363.14 395.35 358.31 383.7 358.31 374.05 353.59 378.77 289.44 378.77 279.99 369.32 279.99 359.09 208.7 359.09 197.05 354.26 188.14 345.35 183.31 333.7 183.31 321.1 188.14 309.45 197.05 300.54 208.7 295.72 279.99 295.72 279.99 285.48 289.44 276.03 343.82 276.03 301.88 234.09 174.58 234.09 162.94 229.26 111.72 178.04 73.08 178.04 63.63 168.59 63.63 104.44 73.08 94.99 156.92 94.99 166.37 104.44 166.37 143.08 194.01 170.72 321.3 170.72 332.95 175.54 341.86 184.45 341.86 184.45 416.86 259.45 421.68 271.1 421.68 280.75 426.41 276.03 426.8 276.03 426.8 244.01 372.05 189.26 363.14 180.35 358.31 168.7 358.31 140.58 348.12 130.39 342.4 116.58 342.4 141.78 341.38 145.59 339.4 149.01 336.61 151.81 333.19 153.78 329.38 154.8 294.84 154.8 294.84 107.24 285.16 107.24 285.16 97.56 237.6 97.56 237.6 63.03 238.62 59.21 240.6 55.79 M 237.6 64.93 29 64.93 M 29 74.91 237.6 74.91 M 237.6 84.9 29 84.9 M 29 94.88 237.6 94.88 M 237.6 107.24 285.16 107.24 285.16 154.8 250.62 154.8 246.81 153.78 243.39 151.81 240.6 149.01 238.62 145.59 237.6 141.78 237.6 107.24 M 237.6 114.85 166.37 114.85 M 166.37 124.84 237.6 124.84 M 237.6 134.82 166.37 134.82 M 168.1 144.81 238.41 144.81 M 250.58 154.79 178.09 154.79 M 188.07 164.78 358.31 164.78 M 360.82 174.76 331.07 174.76 M 342.15 184.75 367.54 184.75 M 372.05 189.26 372.05 189.26 M 377.52 194.73 352.14 194.73 M 362.12 204.72 387.51 204.72 M 397.49 214.7 372.11 214.7 M 382.1 224.69 407.48 224.69 M 417.46 234.67 392.08 234.67 M 402.07 244.66 426.8 244.66 M 426.8 254.64 412.05 254.64 M 419 264.63 426.8 264.63 M 426.8 274.61 421.68 274.61 M 490.17 274.61 567.4 274.61 M 557.42 264.63 490.17 264.63 M 490.17 254.64 547.43 254.64 M 537.45 244.66 490.17 244.66 M 490.17 234.67 527.46 234.67 M 517.48 224.69 490.17 224.69 M 486.08 214.7 507.49 214.7 M 497.51 204.72 477.12 204.72 M 476.43 204.02 476.43 204.02 M 467.14 194.73 487.52 194.73 M 477.54 184.75 457.15 184.75 M 447.17 174.76 467.55 174.76 M 463.14 170.35 458.31 158.7 458.31 140.58 448.12 130.39 440.6 112.23 440.6 92.57 448.12 74.42 462.02 60.52 480.17 53 499.83 53 517.98 60.52 531.88 74.42 539.4 92.57 539.4 112.23 531.88 130.39 522.34 139.93 785.12 402.72 792.69 402.72 798.59 396.81 831.41 396.81 840 405.4 841.19 404.21 841.19 380.75 839.21 378.77 789.44 378.77 779.99 369.32 779.99 285.48 788.07 277.4 779.99 269.32 779.99 259.09 708.7 259.09 697.05 254.26 688.14 245.35 594.59 151.8 580.17 151.8 562.02 144.28 548.12 130.39 540.6 112.23 540.6 92.57 548.12 74.42 562.02 60.52 580.17 53 599.83 53 617.98 60.52 631.88 74.42 639.4 92.57 639.4 106.99 728.12 195.72 779.99 195.72 779.99 185.48 789.44 176.03 853.59 176.03 863.04 185.48 863.04 269.32 854.96 277.4 863.04 285.48 863.04 335.26 888.81 361.02 888.81 404.21 890 405.4 891.19 404.21 891.19 361.02 916.96 335.26 916.96 285.48 925.04 277.4 916.96 269.32 916.96 185.48 926.41 176.03 990.56 176.03 1000.01 185.48 1000.01 231.34 1074.86 306.19 1083.31 314.64 1083.31 277.61 1073.08 277.61 1063.63 268.16 1063.63 204.01 1073.08 194.56 1156.92 194.56 1164.9 202.54 1173.08 194.36 1256.92 194.36 1266.37 203.81 1266.37 267.96 1256.92 277.41 1246.68 277.41 1246.68 396.3 1241.86 407.95 1232.95 416.86 1221.3 421.68 1208.7 421.68 1197.05 416.86 1188.14 407.95 1183.31 396.3 1183.31 277.41 1173.08 277.41 1165.1 269.43 1156.92 277.61 1146.68 277.61 1146.68 396.3 1141.86 407.95 1138.62 411.19 1154.86 411.19 1209.86 466.19 1223.81 480.14 1223.81 649.86 1209.86 663.81 1188.81 684.86 1188.81 684.86 1174.86 698.81 1075.14 698.81 1042.74 666.41 1028.79 652.46 1028.79 633.81 1020.91 625.93 1020.91 597.7 999.43 576.21 885.14 576.21 856.68 547.76 856.68 558.7 851.86 570.35 842.95 579.26 832.5 583.59 899.86 583.59 924.86 608.59 938.81 622.54 938.81 640.21 940 641.4 948.59 632.81 981.41 632.81 990.78 642.18 990.78 698.62 981.41 707.99 948.59 707.99 940 699.4 931.41 707.99 898.59 707.99 890 699.4 881.41 707.99 848.59 707.99 840 699.4 831.41 707.99 798.59 707.99 792.69 702.09 660.12 702.09 582.95 779.26 571.3 784.09 283.7 784.09 272.05 779.26 232.05 739.26 223.14 730.35 218.31 718.7 218.31 616.1 223.14 604.45 232.05 595.54 243.7 590.72 256.3 590.72 267.95 595.54 276.86 604.45 281.68 616.1 281.68 699.28 303.12 720.72 551.88 720.72 629.05 643.54 640.7 638.72 792.69 638.72 798.59 632.81 831.41 632.81 840 641.4 848.59 632.81 881.41 632.81 890 641.4 890.16 641.24 880.14 631.21 785.14 631.21 771.19 617.26 737.03 583.1 733.89 583.1 722.61 578.43 713.97 569.79 709.3 558.51 709.3 546.29 713.97 535.01 722.61 526.37 733.89 521.7 739.49 521.7 626.88 409.09 533.7 409.09 522.05 404.26 513.14 395.35 508.31 383.7 508.31 371.1 513.14 359.45 522.05 350.54 533.7 345.72 638.51 345.72 463.14 170.35 M 460.83 164.78 437.18 164.78 M 427.2 154.79 458.31 154.79 M 458.31 144.81 421.68 144.81 M 427.44 134.82 452.56 134.82 M 445.82 124.84 434.18 124.84 M 438.31 114.85 441.69 114.85 M 440.6 104.87 439.4 104.87 M 439.4 94.88 440.6 94.88 M 443.78 84.9 436.22 84.9 M 432.08 74.91 447.92 74.91 M 457.61 64.93 422.39 64.93 M 404.51 54.94 475.49 54.94 M 504.51 54.94 575.49 54.94 M 557.61 64.93 522.39 64.93 M 532.08 74.91 547.92 74.91 M 543.78 84.9 536.22 84.9 M 539.4 94.88 540.6 94.88 M 540.6 104.87 539.4 104.87 M 538.31 114.85 541.69 114.85 M 545.82 124.84 534.18 124.84 M 527.44 134.82 552.56 134.82 M 563.28 144.81 527.21 144.81 M 537.2 154.79 597.58 154.79 M 607.57 164.78 547.18 164.78 M 557.17 174.76 617.55 174.76 M 627.54 184.75 567.15 184.75 M 577.14 194.73 637.52 194.73 M 647.51 204.72 587.12 204.72 M 597.11 214.7 657.49 214.7 M 667.48 224.69 607.1 224.69 M 617.08 234.67 677.46 234.67 M 687.45 244.66 627.07 244.66 M 637.05 254.64 697.97 254.64 M 667.01 284.6 780.87 284.6 M 785.28 274.61 657.02 274.61 M 647.04 264.63 779.99 264.63 M 779.99 294.58 676.99 294.58 M 686.98 304.57 779.99 304.57 M 779.99 314.55 696.96 314.55 M 706.95 324.54 779.99 324.54 M 779.99 334.52 716.93 334.52 M 726.92 344.51 779.99 344.51 M 779.99 354.49 736.9 354.49 M 746.89 364.48 779.99 364.48 M 785.13 374.46 756.87 374.46 M 766.86 384.45 841.19 384.45 M 841.19 394.43 776.84 394.43 M 839.02 404.42 840.98 404.42 M 889.02 404.42 890.98 404.42 M 891.19 394.43 888.81 394.43 M 888.81 384.45 891.19 384.45 M 891.19 374.46 888.81 374.46 M 888.81 364.48 891.19 364.48 M 897.72 354.49 882.28 354.49 M 872.3 344.51 907.7 344.51 M 916.96 334.52 863.04 334.52 M 863.04 324.54 916.96 324.54 M 916.96 314.55 863.04 314.55 M 863.04 304.57 916.96 304.57 M 916.96 294.58 863.04 294.58 M 862.16 284.6 917.84 284.6 M 922.25 274.61 857.75 274.61 M 863.04 264.63 916.96 264.63 M 916.96 254.64 863.04 254.64 M 863.04 244.66 916.96 244.66 M 916.96 234.67 863.04 234.67 M 863.04 224.69 916.96 224.69 M 916.96 214.7 863.04 214.7 M 863.04 204.72 916.96 204.72 M 916.96 194.73 863.04 194.73 M 862.31 184.75 917.69 184.75 M 899.83 151.8 880.17 151.8 862.02 144.28 848.12 130.39 840.6 112.23 840.6 92.57 848.12 74.42 862.02 60.52 880.17 53 899.83 53 917.98 60.52 931.88 74.42 937.6 88.22 937.6 63.03 938.62 59.21 940.6 55.79 943.39 53 946.81 51.02 950.62 50 985.16 50 985.16 97.56 994.84 97.56 994.84 50 1029.38 50 1033.19 51.02 1036.61 53 1039.4 55.79 1041.38 59.21 1042.4 63.03 1042.4 97.56 994.84 97.56 994.84 107.24 1042.4 107.24 1042.4 141.78 1041.38 145.59 1039.4 149.01 1036.61 151.81 1033.19 153.78 1029.38 154.8 994.84 154.8 994.84 107.24 985.16 107.24 985.16 154.8 950.62 154.8 946.81 153.78 943.39 151.81 940.6 149.01 938.62 145.59 937.6 141.78 937.6 116.58 931.88 130.39 917.98 144.28 899.83 151.8 M 916.72 144.81 938.41 144.81 M 937.6 134.82 927.44 134.82 M 934.18 124.84 937.6 124.84 M 950.58 154.79 687.2 154.79 M 677.21 144.81 763.28 144.81 M 762.02 144.28 748.12 130.39 740.6 112.23 740.6 92.57 748.12 74.42 762.02 60.52 780.17 53 799.83 53 817.98 60.52 831.88 74.42 839.4 92.57 839.4 112.23 831.88 130.39 817.98 144.28 799.83 151.8 780.17 151.8 762.02 144.28 M 752.56 134.82 667.23 134.82 M 657.24 124.84 745.82 124.84 M 741.69 114.85 647.26 114.85 M 639.4 104.87 740.6 104.87 M 740.6 94.88 639.4 94.88 M 636.22 84.9 743.78 84.9 M 747.92 74.91 632.08 74.91 M 622.39 64.93 757.61 64.93 M 775.49 54.94 604.51 54.94 M 697.18 164.78 1300.21 164.78 M 1300.21 174.76 707.17 174.76 M 717.15 184.75 780.72 184.75 M 779.99 194.73 727.14 194.73 M 816.72 144.81 863.28 144.81 M 852.56 134.82 827.44 134.82 M 834.18 124.84 845.82 124.84 M 841.69 114.85 838.31 114.85 M 839.4 104.87 840.6 104.87 M 840.6 94.88 839.4 94.88 M 836.22 84.9 843.78 84.9 M 847.92 74.91 832.08 74.91 M 822.39 64.93 857.61 64.93 M 875.49 54.94 804.51 54.94 M 904.51 54.94 941.44 54.94 M 937.6 64.93 922.39 64.93 M 932.08 74.91 937.6 74.91 M 937.6 84.9 936.22 84.9 M 985.16 84.9 994.84 84.9 M 994.84 94.88 985.16 94.88 M 994.84 104.87 1060.63 104.87 M 1060.63 104.11 1060.63 127.03 1061.93 131.89 1064.45 136.26 1068.02 139.82 1072.38 142.34 1077.24 143.64 1110 143.64 1110 104.11 1110 94.11 1120 94.11 1120 54.59 1152.76 54.59 1157.62 55.89 1161.98 58.41 1164.9 61.33 1168.02 58.21 1172.38 55.69 1177.24 54.39 1210 54.39 1210 93.92 1169.37 93.92 1169.37 94.11 1120 94.11 1120 104.11 1160.63 104.11 1160.63 103.92 1210 103.92 1210 143.44 1177.24 143.44 1172.38 142.14 1168.02 139.62 1165.1 136.7 1161.98 139.82 1157.62 142.34 1152.76 143.64 1120 143.64 1120 104.11 1110 104.11 1060.63 104.11 M 1060.63 94.11 1060.63 71.2 1061.93 66.34 1064.45 61.97 1068.02 58.41 1072.38 55.89 1077.24 54.59 1110 54.59 1110 94.11 1060.63 94.11 M 1060.63 84.9 1042.4 84.9 M 1042.4 94.88 1110 94.88 M 1110 84.9 1120 84.9 M 1120 94.88 1210 94.88 M 1210 93.92 1210 103.92 1220 103.92 1220 143.44 1252.76 143.44 1257.62 142.14 1261.98 139.62 1265.55 136.06 1268.07 131.7 1269.37 126.83 1269.37 103.92 1220 103.92 1220 93.92 1269.37 93.92 1269.37 71 1268.07 66.14 1265.55 61.78 1261.98 58.21 1257.62 55.69 1252.76 54.39 1220 54.39 1220 93.92 1210 93.92 M 1210 84.9 1220 84.9 M 1220 94.88 1300.21 94.88 M 1300.21 84.9 1269.37 84.9 M 1269.37 74.91 1300.21 74.91 M 1300.21 64.93 1267.37 64.93 M 1254.81 54.94 1300.21 54.94 M 1300.21 104.87 1269.37 104.87 M 1269.37 114.85 1300.21 114.85 M 1300.21 124.84 1269.37 124.84 M 1266.26 134.82 1300.21 134.82 M 1300.21 144.81 1041.59 144.81 M 1042.4 134.82 1063.62 134.82 M 1060.63 124.84 1042.4 124.84 M 1042.4 114.85 1060.63 114.85 M 1110 114.85 1120 114.85 M 1120 124.84 1110 124.84 M 1110 134.82 1120 134.82 M 1120 104.87 1110 104.87 M 1110 74.91 1120 74.91 M 1120 64.93 1110 64.93 M 1110 54.94 1120 54.94 M 1154.08 54.94 1175.19 54.94 M 1210 54.94 1220 54.94 M 1220 64.93 1210 64.93 M 1210 74.91 1220 74.91 M 1220 104.87 1210 104.87 M 1210 114.85 1220 114.85 M 1220 124.84 1210 124.84 M 1210 134.82 1220 134.82 M 1300.21 154.79 1029.42 154.79 M 994.84 154.79 985.16 154.79 M 985.16 144.81 994.84 144.81 M 994.84 134.82 985.16 134.82 M 985.16 124.84 994.84 124.84 M 994.84 114.85 985.16 114.85 M 985.16 74.91 994.84 74.91 M 994.84 64.93 985.16 64.93 M 985.16 54.94 994.84 54.94 M 1038.56 54.94 1075.92 54.94 M 1062.75 64.93 1042.4 64.93 M 1042.4 74.91 1060.63 74.91 M 999.28 184.75 1300.21 184.75 M 1300.21 194.73 1257.29 194.73 M 1266.37 204.72 1300.21 204.72 M 1300.21 214.7 1266.37 214.7 M 1266.37 224.69 1300.21 224.69 M 1300.21 234.67 1266.37 234.67 M 1266.37 244.66 1300.21 244.66 M 1300.21 254.64 1266.37 254.64 M 1266.37 264.63 1300.21 264.63 M 1300.21 274.61 1259.72 274.61 M 1246.68 284.6 1300.21 284.6 M 1300.21 294.58 1246.68 294.58 M 1246.68 304.57 1300.21 304.57 M 1300.21 314.55 1246.68 314.55 M 1246.68 324.54 1300.21 324.54 M 1300.21 334.52 1246.68 334.52 M 1246.68 344.51 1300.21 344.51 M 1300.21 354.49 1246.68 354.49 M 1246.68 364.48 1300.21 364.48 M 1300.21 374.46 1246.68 374.46 M 1246.68 384.45 1300.21 384.45 M 1300.21 394.43 1246.68 394.43 M 1243.32 404.42 1300.21 404.42 M 1300.21 414.4 1235.4 414.4 M 1194.6 414.4 1158.08 414.4 M 1168.06 424.39 1300.21 424.39 M 1300.21 434.37 1178.05 434.37 M 1188.03 444.36 1300.21 444.36 M 1300.21 454.34 1198.02 454.34 M 1208 464.33 1300.21 464.33 M 1300.21 474.32 1217.99 474.32 M 1223.81 484.3 1300.21 484.3 M 1300.21 494.29 1223.81 494.29 M 1223.81 504.27 1300.21 504.27 M 1300.21 514.26 1223.81 514.26 M 1223.81 524.24 1300.21 524.24 M 1300.21 534.23 1223.81 534.23 M 1223.81 544.21 1300.21 544.21 M 1300.21 554.2 1223.81 554.2 M 1223.81 564.18 1300.21 564.18 M 1300.21 574.17 1223.81 574.17 M 1223.81 584.15 1300.21 584.15 M 1300.21 594.14 1223.81 594.14 M 1223.81 604.12 1300.21 604.12 M 1300.21 614.11 1223.81 614.11 M 1223.81 624.09 1300.21 624.09 M 1300.21 634.08 1223.81 634.08 M 1223.81 644.06 1300.21 644.06 M 1300.21 654.05 1219.63 654.05 M 1209.86 663.81 1209.86 663.81 M 1209.64 664.03 1300.21 664.03 M 1300.21 674.02 1199.66 674.02 M 1189.67 684 1300.21 684 M 1300.21 693.99 1179.69 693.99 M 1155.14 651.19 1176.19 630.14 1176.19 499.86 1135.14 458.81 1085.14 458.81 1071.19 444.86 1041.19 414.86 1041.19 339.86 1000.01 298.69 1000.01 369.32 990.56 378.77 940.79 378.77 938.81 380.75 938.81 403.23 940.02 401.14 943.55 397.61 947.88 395.11 952.72 393.81 963.11 393.81 963.11 432.51 966.89 432.51 966.89 393.81 977.28 393.81 982.12 395.11 986.45 397.61 989.98 401.14 992.48 405.47 993.78 410.31 993.78 432.51 966.89 432.51 966.89 436.29 993.78 436.29 993.78 458.5 992.48 463.33 989.98 467.66 986.45 471.2 982.12 473.7 977.28 474.99 966.89 474.99 966.89 436.29 963.11 436.29 963.11 474.99 952.72 474.99 950.73 474.46 961.56 485.28 1058.31 485.28 1058.31 478.87 1067.65 469.54 1112.35 469.54 1121.68 478.87 1121.68 539.32 1112.35 548.65 1067.65 548.65 1058.31 539.32 1058.31 532.91 1023.47 532.91 1033.1 542.54 1046.71 556.15 1074.95 556.15 1084.28 565.49 1084.28 625.93 1076.94 633.27 1094.86 651.19 1155.14 651.19 M 1162.26 644.06 1087.74 644.06 M 1077.75 634.08 1099.62 634.08 M 1100.03 634.48 1096.5 630.96 1094.01 626.64 1092.72 621.82 1092.72 600.55 1122.56 600.55 1122.56 590.87 1092.72 590.87 1092.72 569.59 1094.01 564.78 1096.5 560.46 1100.03 556.93 1104.34 554.44 1109.16 553.15 1122.56 553.15 1122.56 590.87 1132.24 590.87 1132.24 553.15 1145.64 553.15 1150.46 554.44 1154.78 556.93 1158.3 560.46 1160.8 564.78 1162.09 569.59 1162.09 590.87 1132.24 590.87 1132.24 600.55 1122.56 600.55 1122.56 638.27 1109.16 638.27 1104.34 636.98 1100.03 634.48 M 1093.32 624.09 1084.28 624.09 M 1084.28 614.11 1092.72 614.11 M 1092.72 604.12 1084.28 604.12 M 1084.28 594.14 1122.56 594.14 M 1132.24 594.14 1176.19 594.14 M 1176.19 604.12 1162.09 604.12 M 1162.09 600.55 1162.09 621.82 1160.8 626.64 1158.3 630.96 1154.78 634.48 1150.46 636.98 1145.64 638.27 1132.24 638.27 1132.24 600.55 1162.09 600.55 M 1162.09 614.11 1176.19 614.11 M 1176.19 624.09 1161.48 624.09 M 1155.18 634.08 1172.25 634.08 M 1132.24 634.08 1122.56 634.08 M 1122.56 624.09 1132.24 624.09 M 1132.24 614.11 1122.56 614.11 M 1122.56 604.12 1132.24 604.12 M 1132.24 584.15 1122.56 584.15 M 1122.56 574.17 1132.24 574.17 M 1132.24 564.18 1122.56 564.18 M 1122.56 554.2 1132.24 554.2 M 1149.55 554.2 1176.19 554.2 M 1176.19 544.21 1116.79 544.21 M 1121.68 534.23 1176.19 534.23 M 1176.19 524.24 1121.68 524.24 M 1121.68 514.26 1176.19 514.26 M 1176.19 504.27 1121.68 504.27 M 1121.68 494.29 1170.61 494.29 M 1160.63 484.3 1121.68 484.3 M 1117.13 474.32 1150.64 474.32 M 1140.66 464.33 991.91 464.33 M 993.78 454.34 1080.67 454.34 M 1070.69 444.36 993.78 444.36 M 966.89 444.36 963.11 444.36 M 963.11 454.34 966.89 454.34 M 966.89 464.33 963.11 464.33 M 963.11 474.32 966.89 474.32 M 960.57 484.3 1058.31 484.3 M 1062.87 474.32 979.81 474.32 M 966.89 434.37 1060.7 434.37 M 1050.72 424.39 993.78 424.39 M 993.78 414.4 1041.19 414.4 M 1041.19 404.42 991.88 404.42 M 979.61 394.43 1041.19 394.43 M 1041.19 384.45 938.81 384.45 M 938.81 394.43 950.39 394.43 M 963.11 394.43 966.89 394.43 M 966.89 404.42 963.11 404.42 M 963.11 414.4 966.89 414.4 M 966.89 424.39 963.11 424.39 M 994.87 374.46 1041.19 374.46 M 1041.19 364.48 1000.01 364.48 M 1000.01 354.49 1041.19 354.49 M 1041.19 344.51 1000.01 344.51 M 1000.01 334.52 1035.85 334.52 M 1025.86 324.54 1000.01 324.54 M 1000.01 314.55 1015.88 314.55 M 1005.89 304.57 1000.01 304.57 M 1043.29 274.61 1070.08 274.61 M 1063.63 264.63 1033.3 264.63 M 1023.32 254.64 1063.63 254.64 M 1063.63 244.66 1013.33 244.66 M 1003.35 234.67 1063.63 234.67 M 1063.63 224.69 1000.01 224.69 M 1000.01 214.7 1063.63 214.7 M 1063.63 204.72 1000.01 204.72 M 1000.01 194.73 1072.9 194.73 M 1157.1 194.73 1172.71 194.73 M 1170.28 274.61 1159.92 274.61 M 1146.68 284.6 1183.31 284.6 M 1183.31 294.58 1146.68 294.58 M 1146.68 304.57 1183.31 304.57 M 1183.31 314.55 1146.68 314.55 M 1146.68 324.54 1183.31 324.54 M 1183.31 334.52 1146.68 334.52 M 1146.68 344.51 1183.31 344.51 M 1183.31 354.49 1146.68 354.49 M 1146.68 364.48 1183.31 364.48 M 1183.31 374.46 1146.68 374.46 M 1146.68 384.45 1183.31 384.45 M 1183.31 394.43 1146.68 394.43 M 1143.32 404.42 1186.68 404.42 M 1083.31 314.55 1083.23 314.55 M 1083.31 304.57 1073.24 304.57 M 1063.26 294.58 1083.31 294.58 M 1083.31 284.6 1053.27 284.6 M 712.07 494.29 619.37 494.29 M 619.37 504.27 722.06 504.27 M 732.04 514.26 618.72 514.26 M 618.67 524.24 612.37 524.24 M 606.85 534.23 580.24 534.23 M 584.84 544.21 596.87 544.21 M 586.88 554.2 585.7 554.2 M 646.54 584.15 738.08 584.15 M 748.06 594.14 636.56 594.14 M 626.57 604.12 758.05 604.12 M 768.03 614.11 616.59 614.11 M 616.37 624.09 778.02 624.09 M 797.32 634.08 616.37 634.08 M 616.37 644.06 628.53 644.06 M 618.54 654.05 615.29 654.05 M 608.56 664.03 566.66 664.03 M 556.68 674.02 598.57 674.02 M 588.59 684 546.69 684 M 536.71 693.99 578.6 693.99 M 568.62 703.97 485.54 703.97 M 444.46 703.97 435.54 703.97 M 394.46 703.97 385.54 703.97 M 344.46 703.97 335.54 703.97 M 296.37 713.96 558.63 713.96 M 618.3 743.91 1300.21 743.91 M 1300.21 753.9 608.31 753.9 M 598.33 763.88 1300.13 763.88 M 1297.29 773.87 588.34 773.87 M 571.86 783.85 1289.21 783.85 M 1300.21 733.93 628.28 733.93 M 638.27 723.94 1300.21 723.94 M 1300.21 713.96 648.25 713.96 M 658.24 703.97 794.57 703.97 M 835.43 703.97 844.57 703.97 M 885.43 703.97 894.57 703.97 M 935.43 703.97 944.57 703.97 M 985.43 703.97 1300.21 703.97 M 1176.19 584.15 1162.09 584.15 M 1162.09 574.17 1176.19 574.17 M 1176.19 564.18 1160.45 564.18 M 1105.25 554.2 1044.76 554.2 M 1034.77 544.21 1063.21 544.21 M 1058.31 534.23 1024.79 534.23 M 1082.98 564.18 1094.35 564.18 M 1092.72 574.17 1084.28 574.17 M 1084.28 584.15 1092.72 584.15 M 1020.91 604.12 920.39 604.12 M 910.41 594.14 1017.35 594.14 M 1007.37 584.15 900.42 584.15 M 883.09 574.17 848.04 574.17 M 854.42 564.18 873.11 564.18 M 863.12 554.2 856.68 554.2 M 930.38 614.11 1020.91 614.11 M 1020.91 624.09 938.81 624.09 M 938.81 634.08 947.32 634.08 M 982.68 634.08 1028.79 634.08 M 1028.79 644.06 990.78 644.06 M 990.78 654.05 1030.37 654.05 M 1040.36 664.03 990.78 664.03 M 990.78 674.02 1050.34 674.02 M 1060.33 684 990.78 684 M 990.78 693.99 1070.31 693.99 M 883 634.08 882.68 634.08 M 847.32 634.08 832.68 634.08 M 718.35 574.17 678.04 574.17 M 684.42 564.18 711.65 564.18 M 709.3 554.2 686.68 554.2 M 685.9 544.21 710.16 544.21 M 714.76 534.23 681.63 534.23 M 669.81 524.24 727.76 524.24 M 702.09 484.3 570 484.3 M 570 478.92 619.37 478.92 619.37 456 618.07 451.14 615.55 446.78 611.98 443.21 607.62 440.69 602.76 439.39 570 439.39 570 478.92 M 570 474.32 560 474.32 M 560 484.3 407.97 484.3 M 397.99 474.32 510.63 474.32 M 510.63 464.33 488.96 464.33 M 490.78 454.34 511.07 454.34 M 516.87 444.36 490.78 444.36 M 490.78 434.37 652.16 434.37 M 662.15 444.36 613.13 444.36 M 618.93 454.34 672.13 454.34 M 682.12 464.33 619.37 464.33 M 619.37 474.32 692.1 474.32 M 642.18 424.39 490.78 424.39 M 490.78 414.4 632.19 414.4 M 570 444.36 560 444.36 M 560 454.34 570 454.34 M 570 464.33 560 464.33 M 510.63 494.29 417.96 494.29 M 427.94 504.27 510.63 504.27 M 511.28 514.26 437.93 514.26 M 447.91 524.24 517.63 524.24 M 430.49 574.17 169.37 574.17 M 169.37 574.43 168.07 579.29 165.55 583.66 161.98 587.22 157.62 589.74 152.76 591.04 135.85 591.04 141.86 597.05 146.68 608.7 146.68 641.96 156.92 641.96 166.37 651.41 166.37 715.56 156.92 725.01 73.08 725.01 63.63 715.56 63.63 651.41 73.08 641.96 83.31 641.96 83.31 608.7 88.14 597.05 94.15 591.04 77.24 591.04 72.38 589.74 68.02 587.22 64.45 583.66 61.93 579.29 60.63 574.43 60.63 551.52 110 551.52 110 541.52 60.63 541.52 60.63 518.6 61.93 513.74 64.45 509.37 68.02 505.81 72.38 503.29 77.24 501.99 110 501.99 110 541.52 120 541.52 120 551.52 169.37 551.52 169.37 574.43 M 169.37 564.18 420.51 564.18 M 410.52 554.2 169.37 554.2 M 169.37 541.52 120 541.52 120 501.99 152.76 501.99 157.62 503.29 161.98 505.81 165.55 509.37 168.07 513.74 169.37 518.6 169.37 541.52 M 169.37 534.23 390.55 534.23 M 400.54 544.21 120 544.21 M 120 534.23 110 534.23 M 110 544.21 29 544.21 M 29 534.23 60.63 534.23 M 60.63 524.24 29 524.24 M 29 514.26 61.79 514.26 M 70.68 504.27 29 504.27 M 29 494.29 350.61 494.29 M 341.19 484.3 29 484.3 M 29 474.32 300.6 474.32 M 302.72 474.88 297.88 473.59 293.55 471.09 290.02 467.55 287.52 463.22 286.22 458.39 286.22 436.18 313.11 436.18 313.11 474.88 302.72 474.88 M 313.11 474.32 316.89 474.32 M 329.4 474.32 341.19 474.32 M 316.89 464.33 313.11 464.33 M 313.11 454.34 316.89 454.34 M 316.89 444.36 313.11 444.36 M 313.11 434.37 257.84 434.37 M 256.88 436.68 242.98 450.58 224.83 458.1 205.17 458.1 187.02 450.58 173.12 436.68 165.6 418.53 165.6 398.87 173.12 380.72 187.02 366.82 205.17 359.3 224.83 359.3 242.98 366.82 256.88 380.72 264.4 398.87 264.4 418.53 256.88 436.68 M 249.21 444.36 286.22 444.36 M 286.22 454.34 233.9 454.34 M 196.1 454.34 161.13 454.34 M 164.4 451.07 157.37 458.1 72.63 458.1 65.6 451.07 65.6 366.33 72.63 359.3 157.37 359.3 164.4 366.33 164.4 451.07 M 164.4 444.36 180.79 444.36 M 172.16 434.37 164.4 434.37 M 164.4 424.39 168.03 424.39 M 165.6 414.4 164.4 414.4 M 164.4 404.42 165.6 404.42 M 164.4 394.43 167.44 394.43 M 164.4 384.45 171.57 384.45 M 164.4 374.46 179.37 374.46 M 192.67 364.48 162.55 364.48 M 187.79 344.51 29 344.51 M 29 354.49 197.61 354.49 M 183.65 334.52 29 334.52 M 29 324.54 183.31 324.54 M 186.03 314.55 161.35 314.55 M 161.98 314.19 157.62 316.71 152.76 318.01 120 318.01 120 278.48 169.37 278.48 169.37 301.4 168.07 306.26 165.55 310.63 161.98 314.19 M 168.52 304.57 193.02 304.57 M 169.37 294.58 279.99 294.58 M 280.87 284.6 169.37 284.6 M 169.37 268.48 169.37 245.57 168.07 240.71 165.55 236.34 161.98 232.78 157.62 230.26 152.76 228.96 120 228.96 120 268.48 110 268.48 110 228.96 77.24 228.96 72.38 230.26 68.02 232.78 64.45 236.34 61.93 240.71 60.63 245.57 60.63 268.48 110 268.48 110 278.48 60.63 278.48 60.63 301.4 61.93 306.26 64.45 310.63 68.02 314.19 72.38 316.71 77.24 318.01 110 318.01 110 278.48 120 278.48 120 268.48 169.37 268.48 M 169.37 264.63 332.42 264.63 M 342.4 274.61 120 274.61 M 120 264.63 110 264.63 M 110 274.61 29 274.61 M 29 264.63 60.63 264.63 M 60.63 254.64 29 254.64 M 29 244.66 60.87 244.66 M 66.12 234.67 29 234.67 M 29 224.69 158.36 224.69 M 163.88 234.67 302.46 234.67 M 312.45 244.66 169.13 244.66 M 169.37 254.64 322.43 254.64 M 329.42 154.79 358.31 154.79 M 358.31 144.81 341.59 144.81 M 342.4 134.82 352.56 134.82 M 345.82 124.84 342.4 124.84 M 294.84 124.84 285.16 124.84 M 285.16 134.82 294.84 134.82 M 294.84 144.81 285.16 144.81 M 285.16 154.79 294.84 154.79 M 294.84 114.85 285.16 114.85 M 285.16 104.87 166.37 104.87 M 63.63 104.87 29 104.87 M 29 114.85 63.63 114.85 M 63.63 124.84 29 124.84 M 29 134.82 63.63 134.82 M 63.63 144.81 29 144.81 M 29 154.79 63.63 154.79 M 63.63 164.78 29 164.78 M 29 174.76 69.8 174.76 M 29 184.75 118.42 184.75 M 128.41 194.73 29 194.73 M 29 204.72 138.39 204.72 M 148.38 214.7 29 214.7 M 110 234.67 120 234.67 M 120 244.66 110 244.66 M 110 254.64 120 254.64 M 120 284.6 110 284.6 M 110 294.58 120 294.58 M 120 304.57 110 304.57 M 110 314.55 120 314.55 M 68.65 314.55 29 314.55 M 29 304.57 61.48 304.57 M 60.63 294.58 29 294.58 M 29 284.6 60.63 284.6 M 67.45 364.48 29 364.48 M 29 374.46 65.6 374.46 M 65.6 384.45 29 384.45 M 29 394.43 65.6 394.43 M 65.6 404.42 29 404.42 M 29 414.4 65.6 414.4 M 65.6 424.39 29 424.39 M 29 434.37 65.6 434.37 M 65.6 444.36 29 444.36 M 29 454.34 68.87 454.34 M 29 464.33 288.16 464.33 M 286.22 432.4 286.22 410.2 287.52 405.36 290.02 401.03 293.55 397.5 297.88 395 302.72 393.7 313.11 393.7 313.11 432.4 286.22 432.4 M 286.22 424.39 261.97 424.39 M 264.4 414.4 286.22 414.4 M 288.06 404.42 264.4 404.42 M 262.56 394.43 299.98 394.43 M 313.11 394.43 316.89 394.43 M 316.89 404.42 313.11 404.42 M 313.11 414.4 316.89 414.4 M 316.89 424.39 313.11 424.39 M 330.02 394.43 362.76 394.43 M 358.62 384.45 258.43 384.45 M 250.63 374.46 285.13 374.46 M 279.99 364.48 237.33 364.48 M 357.9 374.46 358.31 374.46 M 488.81 384.45 508.62 384.45 M 512.76 394.43 488.81 394.43 M 489.13 404.42 522.43 404.42 M 508.31 374.46 494.87 374.46 M 500.01 364.48 511.06 364.48 M 518.1 354.49 500.01 354.49 M 500.01 344.51 637.3 344.51 M 627.31 334.52 500.01 334.52 M 500.01 324.54 617.33 324.54 M 607.34 314.55 500.01 314.55 M 500.01 304.57 597.36 304.57 M 587.37 294.58 500.01 294.58 M 499.13 284.6 577.39 284.6 M 441.04 464.33 438.96 464.33 M 391.04 464.33 388.96 464.33 M 360.6 504.27 159.32 504.27 M 168.21 514.26 370.58 514.26 M 380.57 524.24 169.37 524.24 M 120 524.24 110 524.24 M 110 514.26 120 514.26 M 120 504.27 110 504.27 M 60.63 554.2 29 554.2 M 29 564.18 60.63 564.18 M 60.63 574.17 29 574.17 M 29 584.15 64.95 584.15 M 91.05 594.14 29 594.14 M 29 604.12 85.21 604.12 M 83.31 614.11 29 614.11 M 29 624.09 83.31 624.09 M 83.31 634.08 29 634.08 M 29 644.06 70.98 644.06 M 63.63 654.05 29 654.05 M 29 664.03 63.63 664.03 M 63.63 674.02 29 674.02 M 29 684 63.63 684 M 63.63 693.99 29 693.99 M 29 703.97 63.63 703.97 M 63.63 713.96 29 713.96 M 29 723.94 72.01 723.94 M 29 733.93 226.72 733.93 M 232.05 739.26 232.05 739.26 M 236.7 743.91 29 743.91 M 29 753.9 246.69 753.9 M 256.67 763.88 29.08 763.88 M 31.93 773.87 266.66 773.87 M 283.14 783.85 40 783.85 M 157.99 723.94 220.48 723.94 M 218.31 713.96 166.37 713.96 M 166.37 703.97 218.31 703.97 M 218.31 693.99 166.37 693.99 M 166.37 684 218.31 684 M 218.31 674.02 166.37 674.02 M 166.37 664.03 218.31 664.03 M 218.31 654.05 166.37 654.05 M 159.02 644.06 218.31 644.06 M 218.31 634.08 146.68 634.08 M 146.68 624.09 218.31 624.09 M 219.14 614.11 146.68 614.11 M 144.79 604.12 223.47 604.12 M 235.44 594.14 138.95 594.14 M 165.05 584.15 518.29 584.15 M 513.63 594.14 264.56 594.14 M 276.53 604.12 513.63 604.12 M 513.63 614.11 280.86 614.11 M 281.68 624.09 513.63 624.09 M 507 634.08 482.56 634.08 M 447.43 634.08 432.56 634.08 M 397.43 634.08 382.56 634.08 M 347.43 634.08 332.56 634.08 M 297.43 634.08 281.68 634.08 M 281.68 644.06 289.22 644.06 M 289.22 654.05 281.68 654.05 M 281.68 664.03 289.22 664.03 M 289.22 674.02 281.68 674.02 M 281.68 684 289.22 684 M 289.22 693.99 281.68 693.99 M 286.38 703.97 294.46 703.97 M 294.84 94.88 285.16 94.88 M 285.16 84.9 294.84 84.9 M 294.84 74.91 285.16 74.91 M 285.16 64.93 294.84 64.93 M 294.84 54.94 285.16 54.94 M 338.56 54.94 375.49 54.94 M 357.61 64.93 342.4 64.93 M 342.4 74.91 347.92 74.91 M 343.78 84.9 342.4 84.9" fill="none" stroke-width="10"/></g><g id="U5UcOJcgM_ppAJEPNUlj_bottom_soldermask"><path d="M 302.37 458.73 327.63 458.73 327.63 409.85 302.37 409.85 302.37 458.73 M 302.37 420.15 327.63 420.15 M 327.63 430.45 302.37 430.45 M 302.37 440.75 327.63 440.75 M 327.63 451.05 302.37 451.05 M 352.37 458.73 377.63 458.73 377.63 409.85 352.37 409.85 352.37 458.73 M 352.37 420.15 377.63 420.15 M 377.63 430.45 352.37 430.45 M 352.37 440.75 377.63 440.75 M 377.63 451.05 352.37 451.05 M 402.37 458.73 427.63 458.73 427.63 409.85 402.37 409.85 402.37 458.73 M 402.37 420.15 427.63 420.15 M 427.63 430.45 402.37 430.45 M 402.37 440.75 427.63 440.75 M 427.63 451.05 402.37 451.05 M 452.37 458.73 477.63 458.73 477.63 409.85 452.37 409.85 452.37 458.73 M 452.37 420.15 477.63 420.15 M 477.63 430.45 452.37 430.45 M 452.37 440.75 477.63 440.75 M 477.63 451.05 452.37 451.05 M 452.37 694.95 477.63 694.95 477.63 646.07 452.37 646.07 452.37 694.95 M 452.37 656.37 477.63 656.37 M 477.63 666.67 452.37 666.67 M 452.37 676.97 477.63 676.97 M 477.63 687.27 452.37 687.27 M 427.63 694.95 402.37 694.95 M 427.63 694.95 427.63 646.07 402.37 646.07 402.37 694.95 M 402.37 656.37 427.63 656.37 M 427.63 666.67 402.37 666.67 M 402.37 676.97 427.63 676.97 M 427.63 687.27 402.37 687.27 M 377.63 694.95 352.37 694.95 M 377.63 694.95 377.63 646.07 352.37 646.07 352.37 694.95 M 352.37 656.37 377.63 656.37 M 377.63 666.67 352.37 666.67 M 352.37 676.97 377.63 676.97 M 377.63 687.27 352.37 687.27 M 327.63 694.95 302.37 694.95 M 327.63 694.95 327.63 646.07 302.37 646.07 302.37 694.95 M 302.37 656.37 327.63 656.37 M 327.63 666.67 302.37 666.67 M 302.37 676.97 327.63 676.97 M 327.63 687.27 302.37 687.27 M 802.37 694.84 827.63 694.84 827.63 645.96 802.37 645.96 802.37 694.84 M 802.37 656.26 827.63 656.26 M 827.63 666.56 802.37 666.56 M 802.37 676.86 827.63 676.86 M 827.63 687.16 802.37 687.16 M 852.37 694.84 877.63 694.84 877.63 645.96 852.37 645.96 852.37 694.84 M 852.37 656.26 877.63 656.26 M 877.63 666.56 852.37 666.56 M 852.37 676.86 877.63 676.86 M 877.63 687.16 852.37 687.16 M 902.37 694.84 927.63 694.84 927.63 645.96 902.37 645.96 902.37 694.84 M 902.37 656.26 927.63 656.26 M 927.63 666.56 902.37 666.56 M 902.37 676.86 927.63 676.86 M 927.63 687.16 902.37 687.16 M 952.37 694.84 977.63 694.84 977.63 645.96 952.37 645.96 952.37 694.84 M 952.37 656.26 977.63 656.26 M 977.63 666.56 952.37 666.56 M 952.37 676.86 977.63 676.86 M 977.63 687.16 952.37 687.16 M 952.37 458.84 977.63 458.84 977.63 409.96 952.37 409.96 952.37 458.84 M 952.37 420.26 977.63 420.26 M 977.63 430.56 952.37 430.56 M 952.37 440.86 977.63 440.86 M 977.63 451.16 952.37 451.16 M 927.63 458.84 902.37 458.84 M 927.63 458.84 927.63 409.96 902.37 409.96 902.37 458.84 M 902.37 420.26 927.63 420.26 M 927.63 430.56 902.37 430.56 M 902.37 440.86 927.63 440.86 M 927.63 451.16 902.37 451.16 M 877.63 458.84 852.37 458.84 M 877.63 458.84 877.63 409.96 852.37 409.96 852.37 458.84 M 852.37 420.26 877.63 420.26 M 877.63 430.56 852.37 430.56 M 852.37 440.86 877.63 440.86 M 877.63 451.16 852.37 451.16 M 827.63 458.84 802.37 458.84 M 827.63 458.84 827.63 409.96 802.37 409.96 802.37 458.84 M 802.37 420.26 827.63 420.26 M 827.63 430.56 802.37 430.56 M 802.37 440.86 827.63 440.86 M 827.63 451.16 802.37 451.16" fill="none" stroke-width="10.31"/><path d="M 1033.65 568.88 1071.55 568.88 M 1033.65 568.88 1033.65 622.54 1071.55 622.54 1071.55 568.88 M 1071.55 578.34 1033.65 578.34 M 1033.65 587.8 1071.55 587.8 M 1071.55 597.26 1033.65 597.26 M 1033.65 606.72 1071.55 606.72 M 1071.55 616.18 1033.65 616.18 M 1108.45 568.88 1146.35 568.88 M 1108.45 568.88 1108.45 622.54 1146.35 622.54 1146.35 568.88 M 1146.35 578.34 1108.45 578.34 M 1108.45 587.8 1146.35 587.8 M 1146.35 597.26 1108.45 597.26 M 1108.45 606.72 1146.35 606.72 M 1146.35 616.18 1108.45 616.18 M 1108.95 482.26 1071.05 482.26 1071.05 535.92 1108.95 535.92 1108.95 482.26 M 1108.95 491.72 1071.05 491.72 M 1071.05 501.18 1108.95 501.18 M 1108.95 510.64 1071.05 510.64 M 1071.05 520.1 1108.95 520.1 M 1108.95 529.56 1071.05 529.56" fill="none" stroke-width="9.47"/><path d="M 76.32 165.36 76.32 107.68 M 76.32 165.36 153.68 165.36 153.68 107.68 76.32 107.68 M 76.32 117.06 153.68 117.06 M 153.68 126.44 76.32 126.44 M 76.32 135.82 153.68 135.82 M 153.68 145.2 76.32 145.2 M 76.32 154.58 153.68 154.58 M 153.68 163.96 76.32 163.96 M 76.32 244.64 76.32 302.32 153.68 302.32 153.68 244.64 76.32 244.64 M 76.32 254.02 153.68 254.02 M 153.68 263.4 76.32 263.4 M 76.32 272.78 153.68 272.78 M 153.68 282.16 76.32 282.16 M 76.32 291.54 153.68 291.54 M 153.68 300.92 76.32 300.92 M 292.68 366.08 350.36 366.08 350.36 288.72 292.68 288.72 292.68 366.08 M 292.68 298.1 350.36 298.1 M 350.36 307.48 292.68 307.48 M 292.68 316.86 350.36 316.86 M 350.36 326.24 292.68 326.24 M 292.68 335.62 350.36 335.62 M 350.36 345 292.68 345 M 292.68 354.38 350.36 354.38 M 350.36 363.76 292.68 363.76 M 429.64 366.08 487.32 366.08 487.32 288.72 429.64 288.72 429.64 366.08 M 429.64 298.1 487.32 298.1 M 487.32 307.48 429.64 307.48 M 429.64 316.86 487.32 316.86 M 487.32 326.24 429.64 326.24 M 429.64 335.62 487.32 335.62 M 487.32 345 429.64 345 M 429.64 354.38 487.32 354.38 M 487.32 363.76 429.64 363.76 M 603.68 455.08 603.68 512.76 M 603.68 455.08 526.32 455.08 526.32 512.76 603.68 512.76 M 603.68 464.46 526.32 464.46 M 526.32 473.84 603.68 473.84 M 603.68 483.22 526.32 483.22 M 526.32 492.6 603.68 492.6 M 603.68 501.98 526.32 501.98 M 526.32 511.36 603.68 511.36 M 603.68 592.05 603.68 649.73 M 603.68 592.05 526.32 592.05 526.32 649.73 603.68 649.73 M 603.68 601.43 526.32 601.43 M 526.32 610.81 603.68 610.81 M 603.68 620.19 526.32 620.19 M 526.32 629.57 603.68 629.57 M 603.68 638.95 526.32 638.95 M 526.32 648.33 603.68 648.33 M 153.68 654.64 153.68 712.32 M 153.68 654.64 76.32 654.64 76.32 712.32 153.68 712.32 M 153.68 664.02 76.32 664.02 M 76.32 673.4 153.68 673.4 M 153.68 682.78 76.32 682.78 M 76.32 692.16 153.68 692.16 M 153.68 701.54 76.32 701.54 M 76.32 710.92 153.68 710.92 M 153.68 575.36 153.68 517.68 76.32 517.68 76.32 575.36 153.68 575.36 M 153.68 527.06 76.32 527.06 M 76.32 536.44 153.68 536.44 M 153.68 545.82 76.32 545.82 M 76.32 555.2 153.68 555.2 M 153.68 564.58 76.32 564.58 M 76.32 573.96 153.68 573.96 M 792.68 366.08 850.36 366.08 850.36 288.72 792.68 288.72 792.68 366.08 M 792.68 298.1 850.36 298.1 M 850.36 307.48 792.68 307.48 M 792.68 316.86 850.36 316.86 M 850.36 326.24 792.68 326.24 M 792.68 335.62 850.36 335.62 M 850.36 345 792.68 345 M 792.68 354.38 850.36 354.38 M 850.36 363.76 792.68 363.76 M 929.64 366.08 987.32 366.08 987.32 288.72 929.64 288.72 929.64 366.08 M 929.64 298.1 987.32 298.1 M 987.32 307.48 929.64 307.48 M 929.64 316.86 987.32 316.86 M 987.32 326.24 929.64 326.24 M 929.64 335.62 987.32 335.62 M 987.32 345 929.64 345 M 929.64 354.38 987.32 354.38 M 987.32 363.76 929.64 363.76 M 1153.68 264.92 1153.68 207.24 1076.32 207.24 1076.32 264.92 1153.68 264.92 M 1153.68 216.62 1076.32 216.62 M 1076.32 226 1153.68 226 M 1153.68 235.38 1076.32 235.38 M 1076.32 244.76 1153.68 244.76 M 1153.68 254.14 1076.32 254.14 M 1076.32 263.52 1153.68 263.52 M 1253.68 264.73 1253.68 207.05 1176.32 207.05 1176.32 264.73 1253.68 264.73 M 1253.68 216.43 1176.32 216.43 M 1176.32 225.81 1253.68 225.81 M 1253.68 235.19 1176.32 235.19 M 1176.32 244.57 1253.68 244.57 M 1253.68 253.95 1176.32 253.95 M 1176.32 263.33 1253.68 263.33 M 1253.68 127.76 1253.68 70.08 1176.32 70.08 1176.32 127.76 1253.68 127.76 M 1253.68 79.46 1176.32 79.46 M 1176.32 88.84 1253.68 88.84 M 1253.68 98.22 1176.32 98.22 M 1176.32 107.6 1253.68 107.6 M 1253.68 116.98 1176.32 116.98 M 1176.32 126.36 1253.68 126.36 M 1153.68 127.95 1153.68 70.27 1076.32 70.27 1076.32 127.95 1153.68 127.95 M 1153.68 79.65 1076.32 79.65 M 1076.32 89.03 1153.68 89.03 M 1153.68 98.41 1076.32 98.41 M 1076.32 107.79 1153.68 107.79 M 1153.68 117.17 1076.32 117.17 M 1076.32 126.55 1153.68 126.55 M 987.32 266.08 929.64 266.08 M 987.32 266.08 987.32 188.72 929.64 188.72 929.64 266.08 M 929.64 198.1 987.32 198.1 M 987.32 207.48 929.64 207.48 M 929.64 216.86 987.32 216.86 M 987.32 226.24 929.64 226.24 M 929.64 235.62 987.32 235.62 M 987.32 245 929.64 245 M 929.64 254.38 987.32 254.38 M 987.32 263.76 929.64 263.76 M 850.36 266.08 792.68 266.08 M 850.36 266.08 850.36 188.72 792.68 188.72 792.68 266.08 M 792.68 198.1 850.36 198.1 M 850.36 207.48 792.68 207.48 M 792.68 216.86 850.36 216.86 M 850.36 226.24 792.68 226.24 M 792.68 235.62 850.36 235.62 M 850.36 245 792.68 245 M 792.68 254.38 850.36 254.38 M 850.36 263.76 792.68 263.76" fill="none" stroke-width="9.39"/><use xlink:href="#x7doRWZD7xSVt1-3WgDn_pad-13" x="990" y="102.4"/><use xlink:href="#x7doRWZD7xSVt1-3WgDn_pad-13" x="290" y="102.4"/><use xlink:href="#x7doRWZD7xSVt1-3WgDn_pad-13" x="115" y="408.7"/><use xlink:href="#x7doRWZD7xSVt1-3WgDn_pad-14" x="215" y="408.7"/><use xlink:href="#x7doRWZD7xSVt1-3WgDn_pad-14" x="390" y="102.4"/><use xlink:href="#x7doRWZD7xSVt1-3WgDn_pad-14" x="490" y="102.4"/><use xlink:href="#x7doRWZD7xSVt1-3WgDn_pad-14" x="590" y="102.4"/><use xlink:href="#x7doRWZD7xSVt1-3WgDn_pad-14" x="790" y="102.4"/><use xlink:href="#x7doRWZD7xSVt1-3WgDn_pad-14" x="890" y="102.4"/></g><g id="U5UcOJcgM_ppAJEPNUlj_bottom_drill1"><use xlink:href="#MhpFyEznZPD0X9hChx1a_pad-1" x="215" y="327.4"/><use xlink:href="#MhpFyEznZPD0X9hChx1a_pad-1" x="390" y="377.4"/><use xlink:href="#MhpFyEznZPD0X9hChx1a_pad-1" x="540" y="377.4"/><use xlink:href="#MhpFyEznZPD0X9hChx1a_pad-1" x="555" y="552.4"/><use xlink:href="#MhpFyEznZPD0X9hChx1a_pad-1" x="655" y="552.4"/><use xlink:href="#MhpFyEznZPD0X9hChx1a_pad-1" x="740" y="552.4"/><use xlink:href="#MhpFyEznZPD0X9hChx1a_pad-1" x="825" y="552.4"/><use xlink:href="#MhpFyEznZPD0X9hChx1a_pad-1" x="1020" y="452.4"/><use xlink:href="#MhpFyEznZPD0X9hChx1a_pad-1" x="1020" y="402.4"/><use xlink:href="#MhpFyEznZPD0X9hChx1a_pad-1" x="1115" y="390"/><use xlink:href="#MhpFyEznZPD0X9hChx1a_pad-1" x="1215" y="390"/><use xlink:href="#MhpFyEznZPD0X9hChx1a_pad-1" x="250" y="622.4"/><use xlink:href="#MhpFyEznZPD0X9hChx1a_pad-1" x="190" y="640"/><use xlink:href="#MhpFyEznZPD0X9hChx1a_pad-1" x="190" y="590"/><use xlink:href="#MhpFyEznZPD0X9hChx1a_pad-1" x="115" y="615"/><use xlink:href="#MhpFyEznZPD0X9hChx1a_pad-2" x="290" y="102.4"/><use xlink:href="#MhpFyEznZPD0X9hChx1a_pad-2" x="390" y="102.4"/><use xlink:href="#MhpFyEznZPD0X9hChx1a_pad-2" x="490" y="102.4"/><use xlink:href="#MhpFyEznZPD0X9hChx1a_pad-2" x="590" y="102.4"/><use xlink:href="#MhpFyEznZPD0X9hChx1a_pad-2" x="790" y="102.4"/><use xlink:href="#MhpFyEznZPD0X9hChx1a_pad-2" x="890" y="102.4"/><use xlink:href="#MhpFyEznZPD0X9hChx1a_pad-2" x="990" y="102.4"/><use xlink:href="#MhpFyEznZPD0X9hChx1a_pad-2" x="215" y="408.7"/><use xlink:href="#MhpFyEznZPD0X9hChx1a_pad-2" x="115" y="408.7"/></g><clipPath id="U5UcOJcgM_ppAJEPNUlj_bottom_outline"><path d="M 54.37 15 1274.84 15 1276.08 15.02 1277.31 15.08 1278.55 15.17 1279.77 15.31 1281 15.48 1282.22 15.7 1283.43 15.95 1284.63 16.24 1285.82 16.56 1287.01 16.93 1288.18 17.33 1289.33 17.76 1290.48 18.24 1291.6 18.75 1292.71 19.29 1293.81 19.87 1294.88 20.48 1295.94 21.13 1296.97 21.81 1297.98 22.52 1298.97 23.26 1299.94 24.03 1300.88 24.84 1301.79 25.67 1302.68 26.53 1303.54 27.42 1304.37 28.33 1305.18 29.27 1305.95 30.24 1306.69 31.23 1307.4 32.24 1308.08 33.27 1308.73 34.33 1309.34 35.4 1309.92 36.5 1310.46 37.61 1310.97 38.73 1311.45 39.88 1311.88 41.03 1312.28 42.2 1312.65 43.39 1312.97 44.58 1313.26 45.78 1313.51 46.99 1313.73 48.21 1313.9 49.44 1314.04 50.66 1314.13 51.9 1314.19 53.13 1314.21 54.37 1314.21 763.03 1314.19 764.27 1314.13 765.5 1314.04 766.74 1313.9 767.96 1313.73 769.19 1313.51 770.41 1313.26 771.62 1312.97 772.82 1312.65 774.01 1312.28 775.2 1311.88 776.37 1311.45 777.52 1310.97 778.67 1310.46 779.79 1309.92 780.9 1309.34 782 1308.73 783.07 1308.08 784.13 1307.4 785.16 1306.69 786.17 1305.95 787.16 1305.18 788.13 1304.37 789.07 1303.54 789.98 1302.68 790.87 1301.79 791.73 1300.88 792.56 1299.94 793.37 1298.97 794.14 1297.98 794.88 1296.97 795.59 1295.94 796.27 1294.88 796.92 1293.81 797.53 1292.71 798.11 1291.6 798.65 1290.48 799.16 1289.33 799.64 1288.18 800.07 1287.01 800.47 1285.82 800.84 1284.63 801.16 1283.43 801.45 1282.22 801.7 1281 801.92 1279.77 802.09 1278.55 802.23 1277.31 802.32 1276.08 802.38 1274.84 802.4 54.37 802.4 53.13 802.38 51.9 802.32 50.66 802.23 49.44 802.09 48.21 801.92 46.99 801.7 45.78 801.45 44.58 801.16 43.39 800.84 42.2 800.47 41.03 800.07 39.88 799.64 38.73 799.16 37.61 798.65 36.5 798.11 35.4 797.53 34.33 796.92 33.27 796.27 32.24 795.59 31.23 794.88 30.24 794.14 29.27 793.37 28.33 792.56 27.42 791.73 26.53 790.87 25.67 789.98 24.84 789.07 24.03 788.13 23.26 787.16 22.52 786.17 21.81 785.16 21.13 784.13 20.48 783.07 19.87 782 19.29 780.9 18.75 779.79 18.24 778.67 17.76 777.52 17.33 776.37 16.93 775.2 16.56 774.01 16.24 772.82 15.95 771.62 15.7 770.41 15.48 769.19 15.31 767.96 15.17 766.74 15.08 765.5 15.02 764.27 15 763.03 15 54.37 15.02 53.13 15.08 51.9 15.17 50.66 15.31 49.44 15.48 48.21 15.7 46.99 15.95 45.78 16.24 44.58 16.56 43.39 16.93 42.2 17.33 41.03 17.76 39.88 18.24 38.73 18.75 37.61 19.29 36.5 19.87 35.4 20.48 34.33 21.13 33.27 21.81 32.24 22.52 31.23 23.26 30.24 24.03 29.27 24.84 28.33 25.67 27.42 26.53 26.53 27.42 25.67 28.33 24.84 29.27 24.03 30.24 23.26 31.23 22.52 32.24 21.81 33.27 21.13 34.33 20.48 35.4 19.87 36.5 19.29 37.61 18.75 38.73 18.24 39.88 17.76 41.03 17.33 42.2 16.93 43.39 16.56 44.58 16.24 45.78 15.95 46.99 15.7 48.21 15.48 49.44 15.31 50.66 15.17 51.9 15.08 53.13 15.02 54.37 15" fill="none" stroke-width="0"/></clipPath><mask id="U5UcOJcgM_ppAJEPNUlj_bottom_mech-mask"><g fill="#000" stroke="#000"><rect x="15" y="15" width="1299.21" height="787.4" fill="#fff"/><use xlink:href="#U5UcOJcgM_ppAJEPNUlj_bottom_drill1"/></g></mask><mask id="U5UcOJcgM_ppAJEPNUlj_bottom_cf-mask"><g fill="#fff" stroke="#fff"><use xlink:href="#U5UcOJcgM_ppAJEPNUlj_bottom_soldermask"/></g></mask><mask id="U5UcOJcgM_ppAJEPNUlj_bottom_sm-mask"><g fill="#000" stroke="#000"><rect x="15" y="15" width="1299.21" height="787.4" fill="#fff"/><use xlink:href="#U5UcOJcgM_ppAJEPNUlj_bottom_soldermask"/></g></mask></defs><g transform="translate(0,817.4) scale(1,-1)"><g mask="url(#U5UcOJcgM_ppAJEPNUlj_bottom_mech-mask)" clip-path="url(#U5UcOJcgM_ppAJEPNUlj_bottom_outline)" transform="translate(1329.21,0) scale(-1,1)"><rect x="15" y="15" width="1299.21" height="787.4" fill="currentColor" class="U5UcOJcgM_ppAJEPNUlj_fr4"/><use xlink:href="#U5UcOJcgM_ppAJEPNUlj_bottom_copper" fill="currentColor" stroke="currentColor" class="U5UcOJcgM_ppAJEPNUlj_cu"/><use xlink:href="#U5UcOJcgM_ppAJEPNUlj_bottom_copper" fill="currentColor" stroke="currentColor" class="U5UcOJcgM_ppAJEPNUlj_cf" mask="url(#U5UcOJcgM_ppAJEPNUlj_bottom_cf-mask)"/><g mask="url(#U5UcOJcgM_ppAJEPNUlj_bottom_sm-mask)"><rect x="15" y="15" width="1299.21" height="787.4" fill="currentColor" class="U5UcOJcgM_ppAJEPNUlj_sm"/><use xlink:href="#U5UcOJcgM_ppAJEPNUlj_bottom_silkscreen" fill="currentColor" stroke="currentColor" class="U5UcOJcgM_ppAJEPNUlj_ss"/></g></g></g></svg>