<svg version="1.1" xmlns="http://www.w3.org/2000/svg" xmlns:xlink="http://www.w3.org/1999/xlink" stroke-linecap="round" stroke-linejoin="round" stroke-width="0" fill-rule="evenodd" clip-rule="evenodd" id="S_dOvCkHTvbrNCSt4Nen_top" viewBox="15 15 1299.21 787.4" width="1.29921in" height="0.7874in" class="w-100 h-100"><defs><style>.S_dOvCkHTvbrNCSt4Nen_fr4 {color: #666666;}
.S_dOvCkHTvbrNCSt4Nen_cu {color: #cccccc;}
.S_dOvCkHTvbrNCSt4Nen_cf {color: #cc9933;}
.S_dOvCkHTvbrNCSt4Nen_sm {color: #004200; opacity: 0.75;}
.S_dOvCkHTvbrNCSt4Nen_ss {color: #ffffff;}
.S_dOvCkHTvbrNCSt4Nen_sp {color: #999999;}
.S_dOvCkHTvbrNCSt4Nen_out {color: #000000;}</style><rect x="-41.4" y="-41.4" width="82.8" height="82.8" id="Vdq5emTdvaTbGQeFyy_T_pad-11"/><circle cx="0" cy="0" r="41.4" id="Vdq5emTdvaTbGQeFyy_T_pad-12"/><rect x="-37.4" y="-37.4" width="74.8" height="74.8" id="lMAzL8Hvc3qHl3E6E1aH_pad-11"/><circle cx="0" cy="0" r="37.4" id="lMAzL8Hvc3qHl3E6E1aH_pad-12"/><circle cx="0" cy="0" r="18.7" id="lMAzL8Hvc3qHl3E6E1aH_pad-13"/><circle cx="0" cy="0" r="9.85" id="xn5bZfFhiHliV-Vg1Ur6_pad-1"/><circle cx="0" cy="0" r="19.7" id="xn5bZfFhiHliV-Vg1Ur6_pad-2"/><g id="S_dOvCkHTvbrNCSt4Nen_top_silkscreen"><path d="M 49.45 54 63.46 54 70.46 61.01 70.46 96.04 M 88.48 82.02 102.49 96.04 116.5 82.02 116.5 54 M 134.52 54 134.52 96.04 155.54 96.04 162.54 89.03 162.54 75.02 155.54 68.01 134.52 68.01 M 148.53 68.01 162.54 54 M 194.57 54 194.57 96.04 M 180.56 96.04 208.58 96.04 M 208.58 119 180.56 119 M 194.57 119 194.57 161.04 180.56 147.02 M 162.54 161.04 148.53 161.04 M 155.54 161.04 155.54 126.01 148.53 119 141.53 119 134.52 126.01 M 88.48 82.02 88.48 54 M 88.48 75.02 116.5 75.02 M 49.45 54 42.44 61.01 42.44 96.04 M 240 52.4 240 152.4 340 152.4 340 127.4 365 152.4 415 152.4 440 127.4 465 152.4 515 152.4 540 127.4 565 152.4 615 152.4 640 127.4 640 77.4 615 52.4 565 52.4 540 77.4 540 127.4 M 540 77.4 515 52.4 465 52.4 440 77.4 440 127.4 M 440 77.4 415 52.4 365 52.4 340 77.4 340 52.4 240 52.4 M 340 77.4 340 127.4 M 303.99 181.4 275.97 181.4 268.96 188.41 268.96 202.42 275.97 209.43 M 289.98 209.43 289.98 195.41 M 303.99 181.4 311 188.41 311 202.42 303.99 209.43 289.98 209.43 M 268.96 227.44 311 255.46 268.96 255.46 M 268.96 273.48 268.96 294.5 275.97 301.5 303.99 301.5 311 294.5 311 273.48 268.96 273.48 M 268.96 227.44 311 227.44 M 368.96 236.4 368.96 264.43 M 368.96 250.41 411 250.41 M 411 282.44 368.96 310.46 M 368.96 282.44 411 310.46 M 468.96 310.46 511 282.44 M 511 264.43 496.99 250.41 M 496.99 257.42 496.99 236.4 M 511 236.4 468.96 236.4 468.96 257.42 475.97 264.43 489.98 264.43 496.99 257.42 M 468.96 282.44 511 310.46 M 568.96 301.5 596.99 301.5 611 287.49 596.99 273.48 568.96 273.48 M 568.96 255.46 568.96 227.44 589.98 227.44 582.98 241.45 582.98 248.46 589.98 255.46 603.99 255.46 611 248.46 611 234.45 603.99 227.44 M 589.98 209.43 589.98 181.4 M 575.97 195.41 603.99 195.41 M 505 200 490 215 475 200 M 490 215 490 180 M 405 195 390 180 375 195 M 390 180 390 215 M 240 358.7 190 358.7 165 383.7 165 358.7 65 358.7 65 458.7 165 458.7 165 433.7 190 458.7 240 458.7 265 433.7 265 383.7 240 358.7 M 165 383.7 165 433.7 M 139.87 485.69 111.85 485.69 M 79.82 492.7 79.82 534.74 M 65.81 534.74 93.83 534.74 M 157.89 534.74 157.89 492.7 185.91 492.7 M 203.93 492.7 203.93 534.74 231.95 492.7 231.95 534.74 M 185.91 534.74 157.89 534.74 M 157.89 513.72 171.9 513.72 M 305 527.4 305 577.4 M 375 577.4 375 527.4 M 405 527.4 405 577.4 M 475 577.4 475 527.4 M 505 527.4 505 577.4 M 575 577.4 575 527.4 M 605 527.4 605 577.4 M 675 577.4 675 527.4 M 705 527.4 705 577.4 M 775 577.4 775 527.4 M 805 527.4 805 577.4 M 875 577.4 875 527.4 M 905 527.4 905 577.4 M 975 577.4 975 527.4 M 961 681.6 918.96 681.6 918.96 702.62 925.97 709.62 939.98 709.62 946.99 702.62 946.99 681.6 M 946.99 695.61 961 709.62 M 953.99 727.64 961 734.64 961 748.66 953.99 755.66 925.97 755.66 918.96 748.66 918.96 734.64 925.97 727.64 932.98 727.64 939.98 734.64 939.98 755.66 M 861 748.66 861 734.64 853.99 727.64 846.99 727.64 839.98 734.64 839.98 748.66 846.99 755.66 853.99 755.66 861 748.66 M 839.98 748.66 832.98 755.66 825.97 755.66 818.96 748.66 818.96 734.64 825.97 727.64 832.98 727.64 839.98 734.64 M 839.98 709.62 825.97 709.62 818.96 702.62 818.96 681.6 861 681.6 M 846.99 681.6 846.99 702.62 839.98 709.62 M 846.99 695.61 861 709.62 M 761 709.62 746.99 695.61 M 746.99 702.62 746.99 681.6 M 761 681.6 718.96 681.6 718.96 702.62 725.97 709.62 739.98 709.62 746.99 702.62 M 753.99 727.64 761 734.64 761 748.66 753.99 755.66 739.98 755.66 732.98 748.66 732.98 741.65 739.98 727.64 718.96 727.64 718.96 755.66 M 661 748.66 661 734.64 653.99 727.64 M 639.98 741.65 639.98 748.66 646.99 755.66 653.99 755.66 661 748.66 M 639.98 748.66 632.98 755.66 625.97 755.66 618.96 748.66 618.96 734.64 625.97 727.64 M 625.97 709.62 639.98 709.62 646.99 702.62 646.99 681.6 M 661 681.6 618.96 681.6 618.96 702.62 625.97 709.62 M 646.99 695.61 661 709.62 M 561 709.62 546.99 695.61 M 546.99 702.62 546.99 681.6 M 561 681.6 518.96 681.6 518.96 702.62 525.97 709.62 539.98 709.62 546.99 702.62 M 561 727.64 561 755.66 M 561 741.65 518.96 741.65 532.98 727.64 M 461 727.64 432.98 755.66 425.97 755.66 418.96 748.66 418.96 734.64 425.97 727.64 M 461 727.64 461 755.66 M 461 709.62 446.99 695.61 M 446.99 702.62 446.99 681.6 M 461 681.6 418.96 681.6 418.96 702.62 425.97 709.62 439.98 709.62 446.99 702.62 M 361 709.62 346.99 695.61 M 346.99 702.62 346.99 681.6 M 361 681.6 318.96 681.6 318.96 702.62 325.97 709.62 339.98 709.62 346.99 702.62 M 339.98 727.64 339.98 755.66 M 318.96 748.66 339.98 727.64 M 361 748.66 318.96 748.66 M 789.98 347.54 789.98 319.52 M 775.97 301.5 768.96 294.5 768.96 273.48 811 273.48 811 294.5 803.99 301.5 775.97 301.5 M 775.97 255.46 768.96 248.46 768.96 234.45 775.97 227.44 803.99 227.44 811 234.45 811 248.46 803.99 255.46 M 868.96 248.46 868.96 234.45 875.97 227.44 903.99 227.44 911 234.45 911 248.46 903.99 255.46 M 911 273.48 911 294.5 903.99 301.5 875.97 301.5 868.96 294.5 868.96 273.48 911 273.48 M 875.97 255.46 868.96 248.46 M 875.97 209.43 868.96 202.42 868.96 188.41 875.97 181.4 903.99 181.4 911 188.41 911 202.42 903.99 209.43 M 968.96 202.42 968.96 188.41 975.97 181.4 1003.99 181.4 1011 188.41 1011 202.42 1003.99 209.43 989.98 209.43 989.98 195.41 M 975.97 209.43 968.96 202.42 M 968.96 227.44 1011 255.46 968.96 255.46 M 968.96 273.48 968.96 294.5 975.97 301.5 1003.99 301.5 1011 294.5 1011 273.48 968.96 273.48 M 968.96 227.44 1011 227.44 M 1085.41 161.04 1099.43 161.04 M 1092.42 161.04 1092.42 126.01 1085.41 119 1078.41 119 1071.4 126.01 M 1040 152.4 1040 52.4 940 52.4 940 77.4 915 52.4 865 52.4 840 77.4 815 52.4 765 52.4 740 77.4 740 127.4 765 152.4 815 152.4 840 127.4 840 77.4 M 840 127.4 865 152.4 915 152.4 940 127.4 940 152.4 1040 152.4 M 1117.44 154.03 1124.45 161.04 1138.46 161.04 1145.46 154.03 1145.46 147.02 1117.44 119 1145.46 119 M 1138.46 96.04 1117.44 96.04 1117.44 54 1138.46 54 1145.46 61.01 1145.46 68.01 1138.46 75.02 1117.44 75.02 M 1138.46 75.02 1145.46 82.02 1145.46 89.03 1138.46 96.04 M 1163.48 96.04 1184.5 96.04 1191.5 89.03 1191.5 61.01 1184.5 54 1163.48 54 1163.48 96.04 M 1099.43 89.03 1099.43 61.01 1092.42 54 1078.41 54 1071.4 61.01 1071.4 89.03 1078.41 96.04 1092.42 96.04 1099.43 89.03 M 940 77.4 940 127.4 M 811 188.41 811 202.42 803.99 209.43 M 811 188.41 803.99 181.4 775.97 181.4 768.96 188.41 768.96 202.42 775.97 209.43 M 889.98 319.52 889.98 347.54 M 875.97 333.53 903.99 333.53 M 139.87 319.73 139.87 312.72 132.87 305.72 139.87 298.71 139.87 291.71 132.87 284.7 118.86 284.7 111.85 291.71 M 125.86 305.72 132.87 305.72 M 139.87 319.73 132.87 326.74 118.86 326.74 111.85 319.73 M 93.83 326.74 79.82 326.74 M 86.83 326.74 86.83 291.71 79.82 284.7 72.82 284.7 65.81 291.71" fill="none" stroke-width="8"/><path d="M 1051.94 406.5 1057.34 401.1 1078.94 401.1 1084.33 406.5 1084.33 417.3 1078.94 422.7 M 1078.94 437.35 1057.34 437.35 1051.94 442.75 1051.94 453.55 1057.34 458.95 M 1051.94 473.6 1051.94 489.8 1057.34 495.2 1078.94 495.2 1084.33 489.8 1084.33 473.6 1051.94 473.6 M 1078.94 458.95 1084.33 453.55 1084.33 442.75 1078.94 437.35 M 1057.34 422.7 1051.94 417.3 1051.94 406.5 M 1110.99 411.9 1143.39 411.9 M 1170.05 417.3 1170.05 401.1 1202.44 401.1 1202.44 417.3 1197.05 422.7 1175.45 422.7 1170.05 417.3 M 1170.05 437.35 1202.44 437.35 1202.44 458.95 M 1191.65 473.6 1202.44 484.4 1191.65 495.2 1170.05 495.2 M 1143.39 495.2 1121.79 495.2 1110.99 484.4 1121.79 473.6 1143.39 473.6 M 1143.39 458.95 1132.59 448.15 M 1132.59 453.55 1132.59 437.35 M 1143.39 437.35 1110.99 437.35 1110.99 453.55 1116.39 458.95 1127.19 458.95 1132.59 453.55 M 1127.19 473.6 1127.19 495.2 M 1110.99 509.85 1143.39 531.45 1110.99 531.45 M 1116.39 546.1 1121.79 546.1 1127.19 551.5 1127.19 562.3 1132.59 567.7 1137.99 567.7 1143.39 562.3 1143.39 551.5 1137.99 546.1 M 1116.39 546.1 1110.99 551.5 1110.99 562.3 1116.39 567.7 M 1116.39 582.36 1137.99 582.36 1143.39 587.75 1143.39 598.55 1137.99 603.95 M 1143.39 618.61 1110.99 618.61 1110.99 640.2 M 1127.19 629.41 1127.19 618.61 M 1143.39 618.61 1143.39 640.2 M 1143.39 654.86 1143.39 665.66 M 1143.39 660.26 1110.99 660.26 M 1110.99 654.86 1110.99 665.66 M 1110.99 679.03 1132.59 679.03 1143.39 689.82 1132.59 700.62 1110.99 700.62 M 1110.99 715.28 1143.39 715.28 1143.39 736.88 M 1143.39 751.53 1110.99 751.53 1110.99 767.73 1116.39 773.13 1127.19 773.13 1132.59 767.73 1132.59 751.53 M 1132.59 762.33 1143.39 773.13 M 1110.99 736.88 1110.99 715.28 M 1127.19 715.28 1127.19 726.08 M 1170.05 707.31 1170.05 691.11 1202.44 691.11 1202.44 707.31 1197.05 712.71 1175.45 712.71 1170.05 707.31 M 1175.45 676.46 1186.25 676.46 1191.65 671.06 1191.65 654.86 M 1202.44 654.86 1170.05 654.86 1170.05 671.06 1175.45 676.46 M 1191.65 665.66 1202.44 676.46 M 1229.1 652.93 1234.5 658.33 1256.1 658.33 1261.5 652.93 1261.5 636.73 1229.1 636.73 1229.1 652.93 M 1202.44 640.2 1180.85 640.2 1170.05 629.41 1180.85 618.61 1202.44 618.61 M 1186.25 618.61 1186.25 640.2 M 1197.05 603.95 1175.45 603.95 1170.05 598.55 1170.05 587.75 1175.45 582.36 1197.05 582.36 1202.44 587.75 1202.44 598.55 1197.05 603.95 M 1229.1 600.48 1261.5 600.48 1261.5 622.08 M 1202.44 562.3 1197.05 567.7 1191.65 567.7 1186.25 562.3 1186.25 546.1 M 1202.44 546.1 1170.05 546.1 1170.05 562.3 1175.45 567.7 1180.85 567.7 1186.25 562.3 M 1202.44 562.3 1202.44 546.1 M 1229.1 544.18 1229.1 533.38 1234.5 527.98 M 1234.5 513.33 1256.1 491.73 1261.5 497.13 1261.5 507.93 1256.1 513.33 1234.5 513.33 1229.1 507.93 1229.1 497.13 1234.5 491.73 1256.1 491.73 M 1256.1 479 1261.5 479 1261.5 473.6 1256.1 473.6 1256.1 479 M 1261.5 458.95 1261.5 437.35 M 1261.5 448.15 1229.1 448.15 1239.9 437.35 M 1250.7 422.7 1229.1 422.7 M 1250.7 422.7 1261.5 411.9 1250.7 401.1 1229.1 401.1 M 1186.25 437.35 1186.25 448.15 M 1170.05 458.95 1170.05 437.35 M 1170.05 473.6 1191.65 473.6 M 1143.39 509.85 1110.99 509.85 M 1068.14 509.85 1068.14 531.45 M 1068.14 546.1 1068.14 562.3 1073.54 567.7 1078.94 567.7 1084.33 562.3 1084.33 546.1 1051.94 546.1 1051.94 562.3 1057.34 567.7 1062.74 567.7 1068.14 562.3 M 1078.94 582.36 1051.94 582.36 M 1051.94 603.95 1078.94 603.95 1084.33 598.55 1084.33 587.75 1078.94 582.36 M 1110.99 587.75 1110.99 598.55 1116.39 603.95 M 1110.99 587.75 1116.39 582.36 M 1078.94 618.61 1084.33 624.01 1084.33 634.81 1078.94 640.2 1073.54 640.2 1068.14 634.81 1068.14 624.01 1062.74 618.61 1057.34 618.61 1051.94 624.01 1051.94 634.81 1057.34 640.2 M 1229.1 544.18 1234.5 549.58 1239.9 549.58 1261.5 527.98 1261.5 549.58 M 1110.99 422.7 1110.99 401.1" fill="none" stroke-width="7"/><path d="M 1148 380.29 1144.78 348.53 1134.11 345.12 1124.14 339.98 1099.4 360.16 1082.44 343.2 1102.61 318.46 1097.48 308.49 1094.07 297.82 1062.31 294.59 1062.31 270.6 1094.07 267.38 1097.48 256.7 1102.61 246.74 1082.44 222 1099.4 205.04 1124.14 225.21 1134.11 220.08 1144.78 216.67 1148 184.91 1172 184.91 1175.22 216.67 1185.89 220.08 1195.86 225.21 1220.6 205.04 1237.56 222 1217.39 246.74 1222.52 256.7 1188.42 270.83 1185.58 265.51 1181.75 260.85 1177.09 257.02 1171.77 254.18 1166 252.43 1160 251.84 1153.72 252.49 1147.7 254.41 1142.2 257.51 1137.45 261.68 1133.65 266.72 1130.97 272.44 1129.5 278.58 1129.33 284.9 1130.44 291.11 1132.8 296.97 1136.31 302.22 1140.82 306.65 1146.14 310.06 1152.04 312.31 1158.27 313.31 1164.58 313.01 1170.7 311.44 1176.36 308.64 1181.34 304.75 1185.41 299.93 1188.42 294.37 1222.52 308.5 1217.39 318.46 1237.56 343.2 1220.6 360.16 1195.86 339.98 1185.89 345.12 1175.22 348.53 1172 380.29 1148 380.29 M 1147.89 379.18 1172.11 379.18 M 1172.41 376.2 1147.59 376.2 M 1147.29 373.21 1172.71 373.21 M 1173.02 370.23 1146.98 370.23 M 1146.68 367.24 1173.32 367.24 M 1173.62 364.26 1146.38 364.26 M 1146.07 361.27 1173.93 361.27 M 1174.23 358.29 1145.77 358.29 M 1145.47 355.3 1174.53 355.3 M 1174.84 352.32 1145.16 352.32 M 1144.86 349.33 1175.14 349.33 M 1182.04 346.35 1137.96 346.35 M 1130.7 343.36 1189.3 343.36 M 1195.09 340.38 1124.91 340.38 M 1123.66 340.38 1084.74 340.38 M 1082.61 343.36 1120 343.36 M 1116.34 346.35 1085.59 346.35 M 1088.58 349.33 1112.68 349.33 M 1109.02 352.32 1091.56 352.32 M 1094.55 355.3 1105.36 355.3 M 1101.69 358.29 1097.53 358.29 M 1087.17 337.39 1232.83 337.39 M 1235.26 340.38 1196.34 340.38 M 1200 343.36 1237.39 343.36 M 1234.41 346.35 1203.66 346.35 M 1207.32 349.33 1231.42 349.33 M 1228.44 352.32 1210.98 352.32 M 1214.64 355.3 1225.45 355.3 M 1222.47 358.29 1218.31 358.29 M 1230.39 334.41 1089.61 334.41 M 1092.04 331.42 1227.96 331.42 M 1225.52 328.44 1094.48 328.44 M 1096.91 325.45 1223.09 325.45 M 1220.66 322.47 1099.34 322.47 M 1101.78 319.48 1218.22 319.48 M 1218.4 316.5 1101.6 316.5 M 1100.07 313.51 1219.93 313.51 M 1221.47 310.53 1172.54 310.53 M 1177.77 307.54 1220.21 307.54 M 1213.01 304.56 1181.5 304.56 M 1184.02 301.57 1205.8 301.57 M 1198.59 298.59 1186.14 298.59 M 1187.75 295.6 1191.39 295.6 M 1147.37 310.53 1098.53 310.53 M 1097.18 307.54 1142.22 307.54 M 1138.69 304.56 1096.22 304.56 M 1095.27 301.57 1135.88 301.57 M 1133.88 298.59 1094.31 298.59 M 1072.22 295.6 1132.25 295.6 M 1131.05 292.62 1062.31 292.62 M 1062.31 289.63 1130.18 289.63 M 1129.64 286.65 1062.31 286.65 M 1062.31 283.66 1129.36 283.66 M 1129.45 280.68 1062.31 280.68 M 1062.31 277.69 1129.72 277.69 M 1130.43 274.7 1062.31 274.7 M 1062.31 271.72 1131.3 271.72 M 1132.71 268.73 1080.7 268.73 M 1094.59 265.75 1134.39 265.75 M 1136.63 262.76 1095.54 262.76 M 1096.5 259.78 1139.62 259.78 M 1143.47 256.79 1097.45 256.79 M 1098.97 253.81 1149.57 253.81 M 1170.55 253.81 1221.03 253.81 M 1222.29 256.79 1176.66 256.79 M 1180.45 259.78 1215.09 259.78 M 1207.88 262.76 1183.32 262.76 M 1185.7 265.75 1200.67 265.75 M 1193.47 268.73 1187.3 268.73 M 1219.49 250.82 1100.51 250.82 M 1102.05 247.84 1217.95 247.84 M 1218.92 244.85 1101.08 244.85 M 1098.64 241.87 1221.36 241.87 M 1223.79 238.88 1096.21 238.88 M 1093.77 235.9 1226.23 235.9 M 1228.66 232.91 1091.34 232.91 M 1088.91 229.93 1231.09 229.93 M 1233.53 226.94 1086.47 226.94 M 1084.04 223.96 1122.6 223.96 M 1126.58 223.96 1193.42 223.96 M 1197.4 223.96 1235.96 223.96 M 1236.53 220.97 1201.06 220.97 M 1204.72 217.99 1233.55 217.99 M 1230.56 215 1208.38 215 M 1212.04 212.02 1227.58 212.02 M 1224.59 209.03 1215.7 209.03 M 1219.36 206.05 1221.61 206.05 M 1187.63 220.97 1132.37 220.97 M 1140.65 217.99 1179.35 217.99 M 1175.05 215 1144.95 215 M 1145.25 212.02 1174.75 212.02 M 1174.45 209.03 1145.55 209.03 M 1145.86 206.05 1174.14 206.05 M 1173.84 203.06 1146.16 203.06 M 1146.46 200.08 1173.54 200.08 M 1173.23 197.09 1146.77 197.09 M 1147.07 194.11 1172.93 194.11 M 1172.63 191.12 1147.37 191.12 M 1147.68 188.14 1172.32 188.14 M 1172.02 185.15 1147.98 185.15 M 1107.96 212.02 1092.42 212.02 M 1089.44 215 1111.62 215 M 1115.28 217.99 1086.45 217.99 M 1083.47 220.97 1118.94 220.97 M 1104.3 209.03 1095.41 209.03 M 1098.39 206.05 1100.64 206.05" fill="none" stroke-width="3"/></g><g id="S_dOvCkHTvbrNCSt4Nen_top_soldermask"><path d="M 301.32 455.08 301.32 512.76 378.68 512.76 378.68 455.08 301.32 455.08 M 301.32 464.46 378.68 464.46 M 378.68 473.84 301.32 473.84 M 301.32 483.22 378.68 483.22 M 378.68 492.6 301.32 492.6 M 301.32 501.98 378.68 501.98 M 378.68 511.36 301.32 511.36 M 401.32 512.76 401.32 455.08 M 401.32 512.76 478.68 512.76 478.68 455.08 401.32 455.08 M 401.32 464.46 478.68 464.46 M 478.68 473.84 401.32 473.84 M 401.32 483.22 478.68 483.22 M 478.68 492.6 401.32 492.6 M 401.32 501.98 478.68 501.98 M 478.68 511.36 401.32 511.36 M 501.32 512.76 501.32 455.08 M 501.32 512.76 578.68 512.76 578.68 455.08 501.32 455.08 M 501.32 464.46 578.68 464.46 M 578.68 473.84 501.32 473.84 M 501.32 483.22 578.68 483.22 M 578.68 492.6 501.32 492.6 M 501.32 501.98 578.68 501.98 M 578.68 511.36 501.32 511.36 M 601.32 512.76 601.32 455.08 M 601.32 512.76 678.68 512.76 678.68 455.08 601.32 455.08 M 601.32 464.46 678.68 464.46 M 678.68 473.84 601.32 473.84 M 601.32 483.22 678.68 483.22 M 678.68 492.6 601.32 492.6 M 601.32 501.98 678.68 501.98 M 678.68 511.36 601.32 511.36 M 778.68 512.76 778.68 455.08 701.32 455.08 701.32 512.76 778.68 512.76 M 778.68 464.46 701.32 464.46 M 701.32 473.84 778.68 473.84 M 778.68 483.22 701.32 483.22 M 701.32 492.6 778.68 492.6 M 778.68 501.98 701.32 501.98 M 701.32 511.36 778.68 511.36 M 878.68 512.76 878.68 455.08 801.32 455.08 801.32 512.76 878.68 512.76 M 878.68 464.46 801.32 464.46 M 801.32 473.84 878.68 473.84 M 878.68 483.22 801.32 483.22 M 801.32 492.6 878.68 492.6 M 878.68 501.98 801.32 501.98 M 801.32 511.36 878.68 511.36 M 978.68 512.76 978.68 455.08 901.32 455.08 901.32 512.76 978.68 512.76 M 978.68 464.46 901.32 464.46 M 901.32 473.84 978.68 473.84 M 978.68 483.22 901.32 483.22 M 901.32 492.6 978.68 492.6 M 978.68 501.98 901.32 501.98 M 901.32 511.36 978.68 511.36 M 978.68 592.05 978.68 649.73 M 978.68 592.05 901.32 592.05 901.32 649.73 978.68 649.73 M 978.68 601.43 901.32 601.43 M 901.32 610.81 978.68 610.81 M 978.68 620.19 901.32 620.19 M 901.32 629.57 978.68 629.57 M 978.68 638.95 901.32 638.95 M 901.32 648.33 978.68 648.33 M 878.68 649.73 878.68 592.05 801.32 592.05 801.32 649.73 878.68 649.73 M 878.68 601.43 801.32 601.43 M 801.32 610.81 878.68 610.81 M 878.68 620.19 801.32 620.19 M 801.32 629.57 878.68 629.57 M 878.68 638.95 801.32 638.95 M 801.32 648.33 878.68 648.33 M 778.68 649.73 778.68 592.05 701.32 592.05 701.32 649.73 778.68 649.73 M 778.68 601.43 701.32 601.43 M 701.32 610.81 778.68 610.81 M 778.68 620.19 701.32 620.19 M 701.32 629.57 778.68 629.57 M 778.68 638.95 701.32 638.95 M 701.32 648.33 778.68 648.33 M 601.32 649.73 601.32 592.05 M 601.32 649.73 678.68 649.73 678.68 592.05 601.32 592.05 M 601.32 601.43 678.68 601.43 M 678.68 610.81 601.32 610.81 M 601.32 620.19 678.68 620.19 M 678.68 629.57 601.32 629.57 M 601.32 638.95 678.68 638.95 M 678.68 648.33 601.32 648.33 M 501.32 649.73 501.32 592.05 M 501.32 649.73 578.68 649.73 578.68 592.05 501.32 592.05 M 501.32 601.43 578.68 601.43 M 578.68 610.81 501.32 610.81 M 501.32 620.19 578.68 620.19 M 578.68 629.57 501.32 629.57 M 501.32 638.95 578.68 638.95 M 578.68 648.33 501.32 648.33 M 401.32 649.73 401.32 592.05 M 401.32 649.73 478.68 649.73 478.68 592.05 401.32 592.05 M 401.32 601.43 478.68 601.43 M 478.68 610.81 401.32 610.81 M 401.32 620.19 478.68 620.19 M 478.68 629.57 401.32 629.57 M 401.32 638.95 478.68 638.95 M 478.68 648.33 401.32 648.33 M 301.32 649.73 301.32 592.05 M 301.32 649.73 378.68 649.73 378.68 592.05 301.32 592.05 M 301.32 601.43 378.68 601.43 M 378.68 610.81 301.32 610.81 M 301.32 620.19 378.68 620.19 M 378.68 629.57 301.32 629.57 M 301.32 638.95 378.68 638.95 M 378.68 648.33 301.32 648.33" fill="none" stroke-width="9.39"/><use xlink:href="#Vdq5emTdvaTbGQeFyy_T_pad-11" x="290" y="102.4"/><use xlink:href="#Vdq5emTdvaTbGQeFyy_T_pad-11" x="115" y="408.7"/><use xlink:href="#Vdq5emTdvaTbGQeFyy_T_pad-11" x="990" y="102.4"/><use xlink:href="#Vdq5emTdvaTbGQeFyy_T_pad-12" x="890" y="102.4"/><use xlink:href="#Vdq5emTdvaTbGQeFyy_T_pad-12" x="790" y="102.4"/><use xlink:href="#Vdq5emTdvaTbGQeFyy_T_pad-12" x="590" y="102.4"/><use xlink:href="#Vdq5emTdvaTbGQeFyy_T_pad-12" x="490" y="102.4"/><use xlink:href="#Vdq5emTdvaTbGQeFyy_T_pad-12" x="390" y="102.4"/><use xlink:href="#Vdq5emTdvaTbGQeFyy_T_pad-12" x="215" y="408.7"/></g><g id="S_dOvCkHTvbrNCSt4Nen_top_copper"><path d="M 304.76 458.52 304.76 509.32 375.24 509.32 375.24 458.52 304.76 458.52 M 304.76 466.78 375.24 466.78 M 375.24 475.04 304.76 475.04 M 304.76 483.3 375.24 483.3 M 375.24 491.56 304.76 491.56 M 304.76 499.82 375.24 499.82 M 375.24 508.08 304.76 508.08 M 404.76 509.32 404.76 458.52 M 404.76 509.32 475.24 509.32 475.24 458.52 404.76 458.52 M 404.76 466.78 475.24 466.78 M 475.24 475.04 404.76 475.04 M 404.76 483.3 475.24 483.3 M 475.24 491.56 404.76 491.56 M 404.76 499.82 475.24 499.82 M 475.24 508.08 404.76 508.08 M 504.76 509.32 504.76 458.52 M 504.76 509.32 575.24 509.32 575.24 458.52 504.76 458.52 M 504.76 466.78 575.24 466.78 M 575.24 475.04 504.76 475.04 M 504.76 483.3 575.24 483.3 M 575.24 491.56 504.76 491.56 M 504.76 499.82 575.24 499.82 M 575.24 508.08 504.76 508.08 M 604.76 509.32 604.76 458.52 M 604.76 509.32 675.24 509.32 675.24 458.52 604.76 458.52 M 604.76 466.78 675.24 466.78 M 675.24 475.04 604.76 475.04 M 604.76 483.3 675.24 483.3 M 675.24 491.56 604.76 491.56 M 604.76 499.82 675.24 499.82 M 675.24 508.08 604.76 508.08 M 775.24 509.32 775.24 458.52 704.76 458.52 704.76 509.32 775.24 509.32 M 775.24 466.78 704.76 466.78 M 704.76 475.04 775.24 475.04 M 775.24 483.3 704.76 483.3 M 704.76 491.56 775.24 491.56 M 775.24 499.82 704.76 499.82 M 704.76 508.08 775.24 508.08 M 875.24 509.32 875.24 458.52 804.76 458.52 804.76 509.32 875.24 509.32 M 875.24 466.78 804.76 466.78 M 804.76 475.04 875.24 475.04 M 875.24 483.3 804.76 483.3 M 804.76 491.56 875.24 491.56 M 875.24 499.82 804.76 499.82 M 804.76 508.08 875.24 508.08 M 975.24 509.32 975.24 458.52 904.76 458.52 904.76 509.32 975.24 509.32 M 975.24 466.78 904.76 466.78 M 904.76 475.04 975.24 475.04 M 975.24 483.3 904.76 483.3 M 904.76 491.56 975.24 491.56 M 975.24 499.82 904.76 499.82 M 904.76 508.08 975.24 508.08 M 975.24 595.49 975.24 646.29 M 975.24 595.49 904.76 595.49 904.76 646.29 975.24 646.29 M 975.24 603.75 904.76 603.75 M 904.76 612.01 975.24 612.01 M 975.24 620.27 904.76 620.27 M 904.76 628.53 975.24 628.53 M 975.24 636.79 904.76 636.79 M 904.76 645.05 975.24 645.05 M 875.24 646.29 875.24 595.49 804.76 595.49 804.76 646.29 875.24 646.29 M 875.24 603.75 804.76 603.75 M 804.76 612.01 875.24 612.01 M 875.24 620.27 804.76 620.27 M 804.76 628.53 875.24 628.53 M 875.24 636.79 804.76 636.79 M 804.76 645.05 875.24 645.05 M 775.24 646.29 775.24 595.49 704.76 595.49 704.76 646.29 775.24 646.29 M 775.24 603.75 704.76 603.75 M 704.76 612.01 775.24 612.01 M 775.24 620.27 704.76 620.27 M 704.76 628.53 775.24 628.53 M 775.24 636.79 704.76 636.79 M 704.76 645.05 775.24 645.05 M 604.76 646.29 604.76 595.49 M 604.76 646.29 675.24 646.29 675.24 595.49 604.76 595.49 M 604.76 603.75 675.24 603.75 M 675.24 612.01 604.76 612.01 M 604.76 620.27 675.24 620.27 M 675.24 628.53 604.76 628.53 M 604.76 636.79 675.24 636.79 M 675.24 645.05 604.76 645.05 M 504.76 646.29 504.76 595.49 M 504.76 646.29 575.24 646.29 575.24 595.49 504.76 595.49 M 504.76 603.75 575.24 603.75 M 575.24 612.01 504.76 612.01 M 504.76 620.27 575.24 620.27 M 575.24 628.53 504.76 628.53 M 504.76 636.79 575.24 636.79 M 575.24 645.05 504.76 645.05 M 404.76 646.29 404.76 595.49 M 404.76 646.29 475.24 646.29 475.24 595.49 404.76 595.49 M 404.76 603.75 475.24 603.75 M 475.24 612.01 404.76 612.01 M 404.76 620.27 475.24 620.27 M 475.24 628.53 404.76 628.53 M 404.76 636.79 475.24 636.79 M 475.24 645.05 404.76 645.05 M 304.76 646.29 304.76 595.49 M 304.76 646.29 375.24 646.29 375.24 595.49 304.76 595.49 M 304.76 603.75 375.24 603.75 M 375.24 612.01 304.76 612.01 M 304.76 620.27 375.24 620.27 M 375.24 628.53 304.76 628.53 M 304.76 636.79 375.24 636.79 M 375.24 645.05 304.76 645.05" fill="none" stroke-width="8.27"/><use xlink:href="#lMAzL8Hvc3qHl3E6E1aH_pad-11" x="115" y="408.7"/><use xlink:href="#lMAzL8Hvc3qHl3E6E1aH_pad-11" x="290" y="102.4"/><use xlink:href="#lMAzL8Hvc3qHl3E6E1aH_pad-11" x="990" y="102.4"/><use xlink:href="#lMAzL8Hvc3qHl3E6E1aH_pad-12" x="890" y="102.4"/><use xlink:href="#lMAzL8Hvc3qHl3E6E1aH_pad-12" x="790" y="102.4"/><use xlink:href="#lMAzL8Hvc3qHl3E6E1aH_pad-12" x="590" y="102.4"/><use xlink:href="#lMAzL8Hvc3qHl3E6E1aH_pad-12" x="490" y="102.4"/><use xlink:href="#lMAzL8Hvc3qHl3E6E1aH_pad-12" x="390" y="102.4"/><use xlink:href="#lMAzL8Hvc3qHl3E6E1aH_pad-12" x="215" y="408.7"/><use xlink:href="#lMAzL8Hvc3qHl3E6E1aH_pad-13" x="215" y="327.4"/><use xlink:href="#lMAzL8Hvc3qHl3E6E1aH_pad-13" x="390" y="377.4"/><use xlink:href="#lMAzL8Hvc3qHl3E6E1aH_pad-13" x="540" y="377.4"/><use xlink:href="#lMAzL8Hvc3qHl3E6E1aH_pad-13" x="555" y="552.4"/><use xlink:href="#lMAzL8Hvc3qHl3E6E1aH_pad-13" x="655" y="552.4"/><use xlink:href="#lMAzL8Hvc3qHl3E6E1aH_pad-13" x="740" y="552.4"/><use xlink:href="#lMAzL8Hvc3qHl3E6E1aH_pad-13" x="825" y="552.4"/><use xlink:href="#lMAzL8Hvc3qHl3E6E1aH_pad-13" x="1020" y="452.4"/><use xlink:href="#lMAzL8Hvc3qHl3E6E1aH_pad-13" x="1020" y="402.4"/><use xlink:href="#lMAzL8Hvc3qHl3E6E1aH_pad-13" x="1115" y="390"/><use xlink:href="#lMAzL8Hvc3qHl3E6E1aH_pad-13" x="1215" y="390"/><use xlink:href="#lMAzL8Hvc3qHl3E6E1aH_pad-13" x="250" y="622.4"/><use xlink:href="#lMAzL8Hvc3qHl3E6E1aH_pad-13" x="190" y="640"/><use xlink:href="#lMAzL8Hvc3qHl3E6E1aH_pad-13" x="190" y="590"/><use xlink:href="#lMAzL8Hvc3qHl3E6E1aH_pad-13" x="115" y="615"/><path d="M 115 615 115 667.4 165 717.4 600 717.4 640 677.4 640 620.89 571.52 552.4 555 552.4 M 540 620.89 471.52 552.4 252.4 552.4 215 515 215 408.7 M 115 408.7 115 615 M 250 622.4 338.48 622.4 M 340 483.92 340 427.4 390 377.4 M 540 377.4 540 483.92 M 640 483.92 640 327.4 590 277.4 590 102.4 M 790 102.4 790 277.4 840 327.4 840 483.92 M 940 483.92 940 327.4 890 277.4 890 102.4 M 590 277.4 265 277.4 215 327.4 M 640 483.92 640 537.4 655 552.4 M 740 552.4 740 483.92 M 825 552.4 940 552.4 940 620.89 M 840 620.89 840 677.4 880 717.4 1012.6 717.4 1215 515 1215 390 M 1115 390 1115 465 1027.6 552.4 940 552.4" fill="none" stroke-width="23.62"/><path d="M 49.42 29.49 40.28 33.28 33.28 40.28 29.49 49.42 29 54.37 29 763.03 29.49 767.98 33.28 777.13 40.28 784.13 49.42 787.91 54.37 788.4 1274.84 788.4 1279.79 787.91 1288.94 784.13 1295.94 777.13 1299.73 767.98 1300.21 763.03 1300.21 54.37 1299.73 49.42 1295.94 40.28 1288.94 33.28 1279.79 29.49 1274.84 29 54.37 29 49.42 29.49 M 38.58 34.97 1290.63 34.97 M 1297.88 44.96 31.34 44.96 M 29 54.94 241.44 54.94 M 240.6 55.79 243.39 53 246.81 51.02 250.62 50 285.16 50 285.16 97.56 294.84 97.56 294.84 50 329.38 50 333.19 51.02 336.61 53 339.4 55.79 341.38 59.21 342.4 63.03 342.4 88.22 348.12 74.42 362.02 60.52 380.17 53 399.83 53 417.98 60.52 431.88 74.42 439.4 92.57 439.4 112.23 431.88 130.39 417.98 144.28 399.83 151.8 380.17 151.8 362.02 144.28 348.12 130.39 342.4 116.58 342.4 141.78 341.38 145.59 339.4 149.01 336.61 151.81 333.19 153.78 329.38 154.8 294.84 154.8 294.84 107.24 285.16 107.24 285.16 97.56 237.6 97.56 237.6 63.03 238.62 59.21 240.6 55.79 M 237.6 64.93 29 64.93 M 29 74.91 237.6 74.91 M 237.6 84.9 29 84.9 M 29 94.88 237.6 94.88 M 237.6 107.24 237.6 141.78 238.62 145.59 240.6 149.01 243.39 151.81 246.81 153.78 250.62 154.8 285.16 154.8 285.16 107.24 237.6 107.24 M 237.6 114.85 29 114.85 M 29 124.84 237.6 124.84 M 237.6 134.82 29 134.82 M 29 144.81 238.41 144.81 M 250.58 154.79 29 154.79 M 29 164.78 566.19 164.78 M 566.19 174.76 29 174.76 M 29 184.75 566.19 184.75 M 566.19 194.73 29 194.73 M 29 204.72 566.19 204.72 M 566.19 214.7 29 214.7 M 29 224.69 566.19 224.69 M 566.19 234.67 29 234.67 M 29 244.66 566.19 244.66 M 566.19 253.59 566.19 146.01 562.02 144.28 548.12 130.39 540.6 112.23 540.6 92.57 548.12 74.42 562.02 60.52 580.17 53 599.83 53 617.98 60.52 631.88 74.42 639.4 92.57 639.4 112.23 631.88 130.39 617.98 144.28 613.81 146.01 613.81 267.54 663.81 317.54 663.81 442.39 681.92 442.39 690 450.47 698.08 442.39 781.92 442.39 790 450.47 798.08 442.39 816.19 442.39 816.19 337.26 766.19 287.26 766.19 146.01 762.02 144.28 748.12 130.39 740.6 112.23 740.6 92.57 748.12 74.42 762.02 60.52 780.17 53 799.83 53 817.98 60.52 831.88 74.42 839.4 92.57 839.4 112.23 831.88 130.39 817.98 144.28 813.81 146.01 813.81 267.54 863.81 317.54 863.81 442.39 881.92 442.39 890 450.47 898.08 442.39 916.19 442.39 916.19 337.26 866.19 287.26 866.19 146.01 862.02 144.28 848.12 130.39 840.6 112.23 840.6 92.57 848.12 74.42 862.02 60.52 880.17 53 899.83 53 917.98 60.52 931.88 74.42 937.6 88.22 937.6 63.03 938.62 59.21 940.6 55.79 943.39 53 946.81 51.02 950.62 50 985.16 50 985.16 97.56 994.84 97.56 994.84 50 1029.38 50 1033.19 51.02 1036.61 53 1039.4 55.79 1041.38 59.21 1042.4 63.03 1042.4 97.56 994.84 97.56 994.84 107.24 1042.4 107.24 1042.4 141.78 1041.38 145.59 1039.4 149.01 1036.61 151.81 1033.19 153.78 1029.38 154.8 994.84 154.8 994.84 107.24 985.16 107.24 985.16 154.8 950.62 154.8 946.81 153.78 943.39 151.81 940.6 149.01 938.62 145.59 937.6 141.78 937.6 116.58 931.88 130.39 917.98 144.28 913.81 146.01 913.81 267.54 963.81 317.54 963.81 442.39 981.92 442.39 991.37 451.84 991.37 515.99 981.92 525.44 898.08 525.44 890 517.36 881.92 525.44 840.15 525.44 842.39 526.37 844.61 528.59 1017.74 528.59 1091.19 455.14 1091.19 409.61 1088.97 407.39 1084.3 396.11 1084.3 383.89 1088.97 372.61 1097.61 363.97 1108.89 359.3 1121.11 359.3 1132.39 363.97 1141.03 372.61 1145.7 383.89 1145.7 396.11 1141.03 407.39 1138.81 409.61 1138.81 474.86 1037.46 576.21 963.81 576.21 963.81 579.36 981.92 579.36 991.37 588.81 991.37 652.96 981.92 662.41 898.08 662.41 890 654.33 881.92 662.41 863.81 662.41 863.81 667.54 889.86 693.59 1002.74 693.59 1191.19 505.14 1191.19 409.61 1188.97 407.39 1184.3 396.11 1184.3 383.89 1188.97 372.61 1197.61 363.97 1208.89 359.3 1221.11 359.3 1232.39 363.97 1241.03 372.61 1245.7 383.89 1245.7 396.11 1241.03 407.39 1238.81 409.61 1238.81 524.86 1022.46 741.21 870.14 741.21 816.19 687.26 816.19 662.41 663.81 662.41 663.81 687.26 649.86 701.21 609.86 741.21 155.14 741.21 105.14 691.21 91.19 677.26 91.19 634.61 88.97 632.39 84.3 621.11 84.3 608.89 88.97 597.61 91.19 595.39 91.19 458.1 72.63 458.1 65.6 451.07 65.6 366.33 72.63 359.3 157.37 359.3 164.4 366.33 164.4 451.07 157.37 458.1 138.81 458.1 138.81 595.39 141.03 597.61 145.7 608.89 145.7 621.11 141.03 632.39 138.81 634.61 138.81 657.54 174.86 693.59 590.14 693.59 616.19 667.54 616.19 662.41 598.08 662.41 590 654.33 581.92 662.41 498.08 662.41 491.7 656.03 490.55 658.03 486.98 661.59 482.62 664.11 477.76 665.41 445 665.41 445 625.89 435 625.89 435 665.41 402.24 665.41 397.38 664.11 393.02 661.59 389.45 658.03 388.3 656.03 381.92 662.41 298.08 662.41 288.63 652.96 288.63 646.21 269.61 646.21 267.39 648.43 256.11 653.1 243.89 653.1 232.61 648.43 223.97 639.79 219.3 628.51 219.3 616.29 223.97 605.01 232.61 596.37 243.89 591.7 256.11 591.7 267.39 596.37 269.61 598.59 288.63 598.59 288.63 588.81 298.08 579.36 381.92 579.36 388.3 585.74 389.45 583.74 393.02 580.18 397.38 577.66 402.24 576.36 435 576.36 435 615.89 445 615.89 445 576.36 461.8 576.36 461.65 576.21 242.54 576.21 205.14 538.81 191.19 524.86 191.19 452.31 187.02 450.58 173.12 436.68 165.6 418.53 165.6 398.87 173.12 380.72 187.02 366.82 205.17 359.3 224.83 359.3 242.98 366.82 256.88 380.72 264.4 398.87 264.4 418.53 256.88 436.68 242.98 450.58 238.81 452.31 238.81 505.14 262.26 528.59 481.38 528.59 532.15 579.36 539.85 579.36 537.61 578.43 528.97 569.79 524.3 558.51 524.3 546.29 528.97 535.01 537.61 526.37 539.85 525.44 298.08 525.44 288.63 515.99 288.63 451.84 298.08 442.39 316.19 442.39 316.19 417.54 330.14 403.59 359.3 374.43 359.3 371.29 363.97 360.01 372.61 351.37 383.89 346.7 396.11 346.7 407.39 351.37 416.03 360.01 420.7 371.29 420.7 383.51 416.03 394.79 407.39 403.43 396.11 408.1 392.97 408.1 363.81 437.26 363.81 442.39 516.19 442.39 516.19 397.01 513.97 394.79 509.3 383.51 509.3 371.29 513.97 360.01 522.61 351.37 533.89 346.7 546.11 346.7 557.39 351.37 566.03 360.01 570.7 371.29 570.7 383.51 566.03 394.79 563.81 397.01 563.81 442.39 581.92 442.39 590 450.47 598.08 442.39 616.19 442.39 616.19 337.26 580.14 301.21 274.86 301.21 245.7 330.37 245.7 333.51 241.03 344.79 232.39 353.43 221.11 358.1 208.89 358.1 197.61 353.43 188.97 344.79 184.3 333.51 184.3 321.29 188.97 310.01 197.61 301.37 208.89 296.7 212.03 296.7 241.19 267.54 255.14 253.59 566.19 253.59 M 613.81 254.64 766.19 254.64 M 766.19 264.63 613.81 264.63 M 620.89 274.61 766.19 274.61 M 766.19 284.6 630.87 284.6 M 640.86 294.58 773.51 294.58 M 783.49 304.57 650.84 304.57 M 660.83 314.55 793.48 314.55 M 803.46 324.54 663.81 324.54 M 663.81 334.52 813.45 334.52 M 816.19 344.51 663.81 344.51 M 663.81 354.49 816.19 354.49 M 816.19 364.48 663.81 364.48 M 663.81 374.46 816.19 374.46 M 816.19 384.45 663.81 384.45 M 663.81 394.43 816.19 394.43 M 816.19 404.42 663.81 404.42 M 663.81 414.4 816.19 414.4 M 816.19 424.39 663.81 424.39 M 663.81 434.37 816.19 434.37 M 796.11 444.36 783.89 444.36 M 863.81 434.37 916.19 434.37 M 896.11 444.36 883.89 444.36 M 863.81 424.39 916.19 424.39 M 916.19 414.4 863.81 414.4 M 863.81 404.42 916.19 404.42 M 916.19 394.43 863.81 394.43 M 863.81 384.45 916.19 384.45 M 916.19 374.46 863.81 374.46 M 863.81 364.48 916.19 364.48 M 916.19 354.49 863.81 354.49 M 863.81 344.51 916.19 344.51 M 913.45 334.52 863.81 334.52 M 863.81 324.54 903.46 324.54 M 893.48 314.55 860.83 314.55 M 850.84 304.57 883.49 304.57 M 873.51 294.58 840.86 294.58 M 830.87 284.6 866.19 284.6 M 866.19 274.61 820.89 274.61 M 813.81 264.63 866.19 264.63 M 866.19 254.64 813.81 254.64 M 813.81 244.66 866.19 244.66 M 866.19 234.67 813.81 234.67 M 813.81 224.69 866.19 224.69 M 866.19 214.7 813.81 214.7 M 813.81 204.72 866.19 204.72 M 866.19 194.73 813.81 194.73 M 813.81 184.75 866.19 184.75 M 866.19 174.76 813.81 174.76 M 813.81 164.78 866.19 164.78 M 866.19 154.79 813.81 154.79 M 816.72 144.81 863.28 144.81 M 852.56 134.82 827.44 134.82 M 834.18 124.84 845.82 124.84 M 841.69 114.85 838.31 114.85 M 839.4 104.87 840.6 104.87 M 840.6 94.88 839.4 94.88 M 836.22 84.9 843.78 84.9 M 847.92 74.91 832.08 74.91 M 822.39 64.93 857.61 64.93 M 875.49 54.94 804.51 54.94 M 775.49 54.94 604.51 54.94 M 622.39 64.93 757.61 64.93 M 747.92 74.91 632.08 74.91 M 636.22 84.9 743.78 84.9 M 740.6 94.88 639.4 94.88 M 639.4 104.87 740.6 104.87 M 741.69 114.85 638.31 114.85 M 634.18 124.84 745.82 124.84 M 752.56 134.82 627.44 134.82 M 616.72 144.81 763.28 144.81 M 766.19 154.79 613.81 154.79 M 613.81 164.78 766.19 164.78 M 766.19 174.76 613.81 174.76 M 613.81 184.75 766.19 184.75 M 766.19 194.73 613.81 194.73 M 613.81 204.72 766.19 204.72 M 766.19 214.7 613.81 214.7 M 613.81 224.69 766.19 224.69 M 766.19 234.67 613.81 234.67 M 613.81 244.66 766.19 244.66 M 913.81 244.66 1300.21 244.66 M 1300.21 234.67 913.81 234.67 M 913.81 224.69 1300.21 224.69 M 1300.21 214.7 913.81 214.7 M 913.81 204.72 1300.21 204.72 M 1300.21 194.73 913.81 194.73 M 913.81 184.75 1300.21 184.75 M 1300.21 174.76 913.81 174.76 M 913.81 164.78 1300.21 164.78 M 1300.21 154.79 1029.42 154.79 M 1041.59 144.81 1300.21 144.81 M 1300.21 134.82 1042.4 134.82 M 1042.4 124.84 1300.21 124.84 M 1300.21 114.85 1042.4 114.85 M 1042.4 94.88 1300.21 94.88 M 1300.21 84.9 1042.4 84.9 M 1042.4 74.91 1300.21 74.91 M 1300.21 64.93 1042.4 64.93 M 1038.56 54.94 1300.21 54.94 M 1300.21 104.87 994.84 104.87 M 994.84 94.88 985.16 94.88 M 985.16 84.9 994.84 84.9 M 994.84 74.91 985.16 74.91 M 985.16 64.93 994.84 64.93 M 994.84 54.94 985.16 54.94 M 941.44 54.94 904.51 54.94 M 922.39 64.93 937.6 64.93 M 937.6 74.91 932.08 74.91 M 936.22 84.9 937.6 84.9 M 985.16 114.85 994.84 114.85 M 994.84 124.84 985.16 124.84 M 985.16 134.82 994.84 134.82 M 994.84 144.81 985.16 144.81 M 985.16 154.79 994.84 154.79 M 950.58 154.79 913.81 154.79 M 916.72 144.81 938.41 144.81 M 937.6 134.82 927.44 134.82 M 934.18 124.84 937.6 124.84 M 913.81 254.64 1300.21 254.64 M 1300.21 264.63 913.81 264.63 M 920.89 274.61 1300.21 274.61 M 1300.21 284.6 930.87 284.6 M 940.86 294.58 1300.21 294.58 M 1300.21 304.57 950.84 304.57 M 960.83 314.55 1300.21 314.55 M 1300.21 324.54 963.81 324.54 M 963.81 334.52 1300.21 334.52 M 1300.21 344.51 963.81 344.51 M 963.81 354.49 1300.21 354.49 M 1300.21 364.48 1232.9 364.48 M 1241.8 374.46 1300.21 374.46 M 1300.21 384.45 1245.7 384.45 M 1245.7 394.43 1300.21 394.43 M 1300.21 404.42 1242.26 404.42 M 1238.81 414.4 1300.21 414.4 M 1300.21 424.39 1238.81 424.39 M 1238.81 434.37 1300.21 434.37 M 1300.21 444.36 1238.81 444.36 M 1238.81 454.34 1300.21 454.34 M 1300.21 464.33 1238.81 464.33 M 1238.81 474.32 1300.21 474.32 M 1300.21 484.3 1238.81 484.3 M 1238.81 494.29 1300.21 494.29 M 1300.21 504.27 1238.81 504.27 M 1238.81 514.26 1300.21 514.26 M 1300.21 524.24 1238.81 524.24 M 1229.45 534.23 1300.21 534.23 M 1300.21 544.21 1219.46 544.21 M 1209.48 554.2 1300.21 554.2 M 1300.21 564.18 1199.49 564.18 M 1189.51 574.17 1300.21 574.17 M 1300.21 584.15 1179.52 584.15 M 1169.54 594.14 1300.21 594.14 M 1300.21 604.12 1159.55 604.12 M 1149.57 614.11 1300.21 614.11 M 1300.21 624.09 1139.58 624.09 M 1129.6 634.08 1300.21 634.08 M 1300.21 644.06 1119.61 644.06 M 1109.63 654.05 1300.21 654.05 M 1300.21 664.03 1099.64 664.03 M 1089.66 674.02 1300.21 674.02 M 1300.21 684 1079.67 684 M 1069.69 693.99 1300.21 693.99 M 1300.21 703.97 1059.7 703.97 M 1049.72 713.96 1300.21 713.96 M 1300.21 723.94 1039.73 723.94 M 1029.75 733.93 1300.21 733.93 M 1300.21 743.91 29 743.91 M 29 753.9 1300.21 753.9 M 1300.13 763.88 29.08 763.88 M 31.93 773.87 1297.29 773.87 M 1289.21 783.85 40 783.85 M 29 733.93 147.85 733.93 M 137.87 723.94 29 723.94 M 29 713.96 127.88 713.96 M 117.9 703.97 29 703.97 M 29 693.99 107.91 693.99 M 97.93 684 29 684 M 29 674.02 91.19 674.02 M 91.19 664.03 29 664.03 M 29 654.05 91.19 654.05 M 91.19 644.06 29 644.06 M 29 634.08 90.66 634.08 M 85.54 624.09 29 624.09 M 29 614.11 84.3 614.11 M 86.28 604.12 29 604.12 M 29 594.14 91.19 594.14 M 91.19 584.15 29 584.15 M 29 574.17 91.19 574.17 M 91.19 564.18 29 564.18 M 29 554.2 91.19 554.2 M 91.19 544.21 29 544.21 M 29 534.23 91.19 534.23 M 91.19 524.24 29 524.24 M 29 514.26 91.19 514.26 M 91.19 504.27 29 504.27 M 29 494.29 91.19 494.29 M 91.19 484.3 29 484.3 M 29 474.32 91.19 474.32 M 91.19 464.33 29 464.33 M 29 454.34 68.87 454.34 M 65.6 444.36 29 444.36 M 29 434.37 65.6 434.37 M 65.6 424.39 29 424.39 M 29 414.4 65.6 414.4 M 65.6 404.42 29 404.42 M 29 394.43 65.6 394.43 M 65.6 384.45 29 384.45 M 29 374.46 65.6 374.46 M 67.45 364.48 29 364.48 M 29 354.49 200.18 354.49 M 192.67 364.48 162.55 364.48 M 164.4 374.46 179.37 374.46 M 171.57 384.45 164.4 384.45 M 164.4 394.43 167.44 394.43 M 165.6 404.42 164.4 404.42 M 164.4 414.4 165.6 414.4 M 164.4 424.39 168.03 424.39 M 164.4 434.37 172.16 434.37 M 164.4 444.36 180.79 444.36 M 191.19 454.34 161.13 454.34 M 138.81 464.33 191.19 464.33 M 191.19 474.32 138.81 474.32 M 138.81 484.3 191.19 484.3 M 191.19 494.29 138.81 494.29 M 138.81 504.27 191.19 504.27 M 191.19 514.26 138.81 514.26 M 138.81 524.24 191.19 524.24 M 200.55 534.23 138.81 534.23 M 138.81 544.21 210.54 544.21 M 220.52 554.2 138.81 554.2 M 138.81 564.18 230.51 564.18 M 240.49 574.17 138.81 574.17 M 138.81 584.15 293.29 584.15 M 288.63 594.14 261.99 594.14 M 238.01 594.14 138.81 594.14 M 143.72 604.12 224.86 604.12 M 220.21 614.11 145.7 614.11 M 144.46 624.09 219.3 624.09 M 221.61 634.08 139.34 634.08 M 138.81 644.06 228.24 644.06 M 289.71 654.05 138.81 654.05 M 145.3 664.03 397.24 664.03 M 435 664.03 445 664.03 M 445 654.05 435 654.05 M 435 644.06 445 644.06 M 445 634.08 435 634.08 M 435 614.11 445 614.11 M 445 604.12 435 604.12 M 435 594.14 445 594.14 M 445 584.15 435 584.15 M 389.22 584.15 386.71 584.15 M 296.88 524.24 257.91 524.24 M 247.93 514.26 288.63 514.26 M 288.63 504.27 238.81 504.27 M 238.81 494.29 288.63 494.29 M 288.63 484.3 238.81 484.3 M 238.81 474.32 288.63 474.32 M 288.63 464.33 238.81 464.33 M 238.81 454.34 288.63 454.34 M 296.11 444.36 249.21 444.36 M 257.84 434.37 316.19 434.37 M 316.19 424.39 261.97 424.39 M 264.4 414.4 319.32 414.4 M 329.31 404.42 264.4 404.42 M 262.56 394.43 339.29 394.43 M 349.28 384.45 258.43 384.45 M 250.63 374.46 359.26 374.46 M 362.12 364.48 237.33 364.48 M 229.82 354.49 369.49 354.49 M 410.51 354.49 519.49 354.49 M 512.12 364.48 417.88 364.48 M 420.7 374.46 509.3 374.46 M 509.69 384.45 420.31 384.45 M 416.18 394.43 513.82 394.43 M 516.19 404.42 405 404.42 M 386.67 414.4 516.19 414.4 M 516.19 424.39 376.69 424.39 M 366.7 434.37 516.19 434.37 M 563.81 434.37 616.19 434.37 M 616.19 424.39 563.81 424.39 M 563.81 414.4 616.19 414.4 M 616.19 404.42 563.81 404.42 M 566.18 394.43 616.19 394.43 M 616.19 384.45 570.31 384.45 M 570.7 374.46 616.19 374.46 M 616.19 364.48 567.88 364.48 M 560.51 354.49 616.19 354.49 M 616.19 344.51 241.14 344.51 M 245.28 334.52 613.45 334.52 M 603.46 324.54 251.54 324.54 M 261.52 314.55 593.48 314.55 M 583.49 304.57 271.51 304.57 M 234.11 274.61 29 274.61 M 29 264.63 244.1 264.63 M 254.08 254.64 29 254.64 M 29 284.6 224.13 284.6 M 214.14 294.58 29 294.58 M 29 304.57 194.42 304.57 M 187.09 314.55 29 314.55 M 29 324.54 184.3 324.54 M 184.72 334.52 29 334.52 M 29 344.51 188.86 344.51 M 487.01 534.23 529.76 534.23 M 525.16 544.21 497 544.21 M 506.98 554.2 524.3 554.2 M 526.65 564.18 516.97 564.18 M 526.95 574.17 533.35 574.17 M 482.76 664.03 616.19 664.03 M 609.71 674.02 155.29 674.02 M 165.27 684 599.73 684 M 647.1 703.97 832.9 703.97 M 842.88 713.96 637.12 713.96 M 627.13 723.94 852.87 723.94 M 862.85 733.93 617.15 733.93 M 657.09 693.99 822.91 693.99 M 816.19 684 663.81 684 M 663.81 674.02 816.19 674.02 M 816.19 664.03 663.81 664.03 M 863.81 664.03 1032.29 664.03 M 1022.31 674.02 870.29 674.02 M 880.27 684 1012.32 684 M 990.29 654.05 1042.28 654.05 M 1052.26 644.06 991.37 644.06 M 991.37 634.08 1062.25 634.08 M 1072.23 624.09 991.37 624.09 M 991.37 614.11 1082.22 614.11 M 1092.2 604.12 991.37 604.12 M 991.37 594.14 1102.19 594.14 M 1112.17 584.15 986.71 584.15 M 1039.51 574.17 1122.16 574.17 M 1132.14 564.18 1049.49 564.18 M 1059.48 554.2 1142.13 554.2 M 1152.12 544.21 1069.46 544.21 M 1079.45 534.23 1162.1 534.23 M 1172.09 524.24 1089.43 524.24 M 1099.42 514.26 1182.07 514.26 M 1191.19 504.27 1109.4 504.27 M 1119.39 494.29 1191.19 494.29 M 1191.19 484.3 1129.37 484.3 M 1138.81 474.32 1191.19 474.32 M 1191.19 464.33 1138.81 464.33 M 1138.81 454.34 1191.19 454.34 M 1191.19 444.36 1138.81 444.36 M 1138.81 434.37 1191.19 434.37 M 1191.19 424.39 1138.81 424.39 M 1138.81 414.4 1191.19 414.4 M 1187.74 404.42 1142.26 404.42 M 1145.7 394.43 1184.3 394.43 M 1184.3 384.45 1145.7 384.45 M 1141.8 374.46 1188.2 374.46 M 1197.1 364.48 1132.9 364.48 M 1097.1 364.48 963.81 364.48 M 963.81 374.46 1088.2 374.46 M 1084.3 384.45 963.81 384.45 M 963.81 394.43 1084.3 394.43 M 1087.74 404.42 963.81 404.42 M 963.81 414.4 1091.19 414.4 M 1091.19 424.39 963.81 424.39 M 963.81 434.37 1091.19 434.37 M 1091.19 444.36 983.89 444.36 M 991.37 454.34 1091.19 454.34 M 1082 464.33 991.37 464.33 M 991.37 474.32 1072.01 474.32 M 1062.03 484.3 991.37 484.3 M 991.37 494.29 1052.04 494.29 M 1042.06 504.27 991.37 504.27 M 991.37 514.26 1032.07 514.26 M 1022.09 524.24 983.12 524.24 M 896.88 524.24 883.12 524.24 M 696.11 444.36 683.89 444.36 M 596.11 444.36 583.89 444.36 M 566.19 154.79 329.42 154.79 M 341.59 144.81 363.28 144.81 M 352.56 134.82 342.4 134.82 M 342.4 124.84 345.82 124.84 M 294.84 124.84 285.16 124.84 M 285.16 134.82 294.84 134.82 M 294.84 144.81 285.16 144.81 M 285.16 154.79 294.84 154.79 M 294.84 114.85 285.16 114.85 M 285.16 104.87 29 104.87 M 285.16 94.88 294.84 94.88 M 294.84 84.9 285.16 84.9 M 285.16 74.91 294.84 74.91 M 294.84 64.93 285.16 64.93 M 285.16 54.94 294.84 54.94 M 338.56 54.94 375.49 54.94 M 357.61 64.93 342.4 64.93 M 342.4 74.91 347.92 74.91 M 343.78 84.9 342.4 84.9 M 404.51 54.94 475.49 54.94 M 480.17 53 462.02 60.52 448.12 74.42 440.6 92.57 440.6 112.23 448.12 130.39 462.02 144.28 480.17 151.8 499.83 151.8 517.98 144.28 531.88 130.39 539.4 112.23 539.4 92.57 531.88 74.42 517.98 60.52 499.83 53 480.17 53 M 504.51 54.94 575.49 54.94 M 557.61 64.93 522.39 64.93 M 532.08 74.91 547.92 74.91 M 543.78 84.9 536.22 84.9 M 539.4 94.88 540.6 94.88 M 540.6 104.87 539.4 104.87 M 538.31 114.85 541.69 114.85 M 545.82 124.84 534.18 124.84 M 527.44 134.82 552.56 134.82 M 563.28 144.81 516.72 144.81 M 463.28 144.81 416.72 144.81 M 427.44 134.82 452.56 134.82 M 445.82 124.84 434.18 124.84 M 438.31 114.85 441.69 114.85 M 440.6 104.87 439.4 104.87 M 439.4 94.88 440.6 94.88 M 443.78 84.9 436.22 84.9 M 432.08 74.91 447.92 74.91 M 457.61 64.93 422.39 64.93" fill="none" stroke-width="10"/><path d="M 440 483.92 340 483.92 M 440 483.92 540 483.92 M 640 620.89 740 620.89 840 620.89" fill="none" stroke-width="59.06"/><path d="M 340 620.89 338.48 622.4" fill="none" stroke-width="39.37"/></g><g id="S_dOvCkHTvbrNCSt4Nen_top_drill1"><use xlink:href="#xn5bZfFhiHliV-Vg1Ur6_pad-1" x="215" y="327.4"/><use xlink:href="#xn5bZfFhiHliV-Vg1Ur6_pad-1" x="390" y="377.4"/><use xlink:href="#xn5bZfFhiHliV-Vg1Ur6_pad-1" x="540" y="377.4"/><use xlink:href="#xn5bZfFhiHliV-Vg1Ur6_pad-1" x="555" y="552.4"/><use xlink:href="#xn5bZfFhiHliV-Vg1Ur6_pad-1" x="655" y="552.4"/><use xlink:href="#xn5bZfFhiHliV-Vg1Ur6_pad-1" x="740" y="552.4"/><use xlink:href="#xn5bZfFhiHliV-Vg1Ur6_pad-1" x="825" y="552.4"/><use xlink:href="#xn5bZfFhiHliV-Vg1Ur6_pad-1" x="1020" y="452.4"/><use xlink:href="#xn5bZfFhiHliV-Vg1Ur6_pad-1" x="1020" y="402.4"/><use xlink:href="#xn5bZfFhiHliV-Vg1Ur6_pad-1" x="1115" y="390"/><use xlink:href="#xn5bZfFhiHliV-Vg1Ur6_pad-1" x="1215" y="390"/><use xlink:href="#xn5bZfFhiHliV-Vg1Ur6_pad-1" x="250" y="622.4"/><use xlink:href="#xn5bZfFhiHliV-Vg1Ur6_pad-1" x="190" y="640"/><use xlink:href="#xn5bZfFhiHliV-Vg1Ur6_pad-1" x="190" y="590"/><use xlink:href="#xn5bZfFhiHliV-Vg1Ur6_pad-1" x="115" y="615"/><use xlink:href="#xn5bZfFhiHliV-Vg1Ur6_pad-2" x="290" y="102.4"/><use xlink:href="#xn5bZfFhiHliV-Vg1Ur6_pad-2" x="390" y="102.4"/><use xlink:href="#xn5bZfFhiHliV-Vg1Ur6_pad-2" x="490" y="102.4"/><use xlink:href="#xn5bZfFhiHliV-Vg1Ur6_pad-2" x="590" y="102.4"/><use xlink:href="#xn5bZfFhiHliV-Vg1Ur6_pad-2" x="790" y="102.4"/><use xlink:href="#xn5bZfFhiHliV-Vg1Ur6_pad-2" x="890" y="102.4"/><use xlink:href="#xn5bZfFhiHliV-Vg1Ur6_pad-2" x="990" y="102.4"/><use xlink:href="#xn5bZfFhiHliV-Vg1Ur6_pad-2" x="215" y="408.7"/><use xlink:href="#xn5bZfFhiHliV-Vg1Ur6_pad-2" x="115" y="408.7"/></g><clipPath id="S_dOvCkHTvbrNCSt4Nen_top_outline"><path d="M 54.37 15 1274.84 15 1276.08 15.02 1277.31 15.08 1278.55 15.17 1279.77 15.31 1281 15.48 1282.22 15.7 1283.43 15.95 1284.63 16.24 1285.82 16.56 1287.01 16.93 1288.18 17.33 1289.33 17.76 1290.48 18.24 1291.6 18.75 1292.71 19.29 1293.81 19.87 1294.88 20.48 1295.94 21.13 1296.97 21.81 1297.98 22.52 1298.97 23.26 1299.94 24.03 1300.88 24.84 1301.79 25.67 1302.68 26.53 1303.54 27.42 1304.37 28.33 1305.18 29.27 1305.95 30.24 1306.69 31.23 1307.4 32.24 1308.08 33.27 1308.73 34.33 1309.34 35.4 1309.92 36.5 1310.46 37.61 1310.97 38.73 1311.45 39.88 1311.88 41.03 1312.28 42.2 1312.65 43.39 1312.97 44.58 1313.26 45.78 1313.51 46.99 1313.73 48.21 1313.9 49.44 1314.04 50.66 1314.13 51.9 1314.19 53.13 1314.21 54.37 1314.21 763.03 1314.19 764.27 1314.13 765.5 1314.04 766.74 1313.9 767.96 1313.73 769.19 1313.51 770.41 1313.26 771.62 1312.97 772.82 1312.65 774.01 1312.28 775.2 1311.88 776.37 1311.45 777.52 1310.97 778.67 1310.46 779.79 1309.92 780.9 1309.34 782 1308.73 783.07 1308.08 784.13 1307.4 785.16 1306.69 786.17 1305.95 787.16 1305.18 788.13 1304.37 789.07 1303.54 789.98 1302.68 790.87 1301.79 791.73 1300.88 792.56 1299.94 793.37 1298.97 794.14 1297.98 794.88 1296.97 795.59 1295.94 796.27 1294.88 796.92 1293.81 797.53 1292.71 798.11 1291.6 798.65 1290.48 799.16 1289.33 799.64 1288.18 800.07 1287.01 800.47 1285.82 800.84 1284.63 801.16 1283.43 801.45 1282.22 801.7 1281 801.92 1279.77 802.09 1278.55 802.23 1277.31 802.32 1276.08 802.38 1274.84 802.4 54.37 802.4 53.13 802.38 51.9 802.32 50.66 802.23 49.44 802.09 48.21 801.92 46.99 801.7 45.78 801.45 44.58 801.16 43.39 800.84 42.2 800.47 41.03 800.07 39.88 799.64 38.73 799.16 37.61 798.65 36.5 798.11 35.4 797.53 34.33 796.92 33.27 796.27 32.24 795.59 31.23 794.88 30.24 794.14 29.27 793.37 28.33 792.56 27.42 791.73 26.53 790.87 25.67 789.98 24.84 789.07 24.03 788.13 23.26 787.16 22.52 786.17 21.81 785.16 21.13 784.13 20.48 783.07 19.87 782 19.29 780.9 18.75 779.79 18.24 778.67 17.76 777.52 17.33 776.37 16.93 775.2 16.56 774.01 16.24 772.82 15.95 771.62 15.7 770.41 15.48 769.19 15.31 767.96 15.17 766.74 15.08 765.5 15.02 764.27 15 763.03 15 54.37 15.02 53.13 15.08 51.9 15.17 50.66 15.31 49.44 15.48 48.21 15.7 46.99 15.95 45.78 16.24 44.58 16.56 43.39 16.93 42.2 17.33 41.03 17.76 39.88 18.24 38.73 18.75 37.61 19.29 36.5 19.87 35.4 20.48 34.33 21.13 33.27 21.81 32.24 22.52 31.23 23.26 30.24 24.03 29.27 24.84 28.33 25.67 27.42 26.53 26.53 27.42 25.67 28.33 24.84 29.27 24.03 30.24 23.26 31.23 22.52 32.24 21.81 33.27 21.13 34.33 20.48 35.4 19.87 36.5 19.29 37.61 18.75 38.73 18.24 39.88 17.76 41.03 17.33 42.2 16.93 43.39 16.56 44.58 16.24 45.78 15.95 46.99 15.7 48.21 15.48 49.44 15.31 50.66 15.17 51.9 15.08 53.13 15.02 54.37 15" fill="none" stroke-width="0"/></clipPath><mask id="S_dOvCkHTvbrNCSt4Nen_top_mech-mask"><g fill="#000" stroke="#000"><rect x="15" y="15" width="1299.21" height="787.4" fill="#fff"/><use xlink:href="#S_dOvCkHTvbrNCSt4Nen_top_drill1"/></g></mask><mask id="S_dOvCkHTvbrNCSt4Nen_top_cf-mask"><g fill="#fff" stroke="#fff"><use xlink:href="#S_dOvCkHTvbrNCSt4Nen_top_soldermask"/></g></mask><mask id="S_dOvCkHTvbrNCSt4Nen_top_sm-mask"><g fill="#000" stroke="#000"><rect x="15" y="15" width="1299.21" height="787.4" fill="#fff"/><use xlink:href="#S_dOvCkHTvbrNCSt4Nen_top_soldermask"/></g></mask></defs><g transform="translate(0,817.4) scale(1,-1)"><g mask="url(#S_dOvCkHTvbrNCSt4Nen_top_mech-mask)" clip-path="url(#S_dOvCkHTvbrNCSt4Nen_top_outline)"><rect x="15" y="15" width="1299.21" height="787.4" fill="currentColor" class="S_dOvCkHTvbrNCSt4Nen_fr4"/><use xlink:href="#S_dOvCkHTvbrNCSt4Nen_top_copper" fill="currentColor" stroke="currentColor" class="S_dOvCkHTvbrNCSt4Nen_cu"/><use xlink:href="#S_dOvCkHTvbrNCSt4Nen_top_copper" fill="currentColor" stroke="currentColor" class="S_dOvCkHTvbrNCSt4Nen_cf" mask="url(#S_dOvCkHTvbrNCSt4Nen_top_cf-mask)"/><g mask="url(#S_dOvCkHTvbrNCSt4Nen_top_sm-mask)"><rect x="15" y="15" width="1299.21" height="787.4" fill="currentColor" class="S_dOvCkHTvbrNCSt4Nen_sm"/><use xlink:href="#S_dOvCkHTvbrNCSt4Nen_top_silkscreen" fill="currentColor" stroke="currentColor" class="S_dOvCkHTvbrNCSt4Nen_ss"/></g></g></g></svg>