G75*
%MOIN*%
%OFA0B0*%
%FSLAX25Y25*%
%IPPOS*%
%LPD*%
%AMOC8*
5,1,8,0,0,1.08239X$1,22.5*
%
%ADD10C,0.00000*%
D10*
X0005437Y0001500D02*
X0127484Y0001500D01*
X0127608Y0001502D01*
X0127731Y0001508D01*
X0127855Y0001517D01*
X0127977Y0001531D01*
X0128100Y0001548D01*
X0128222Y0001570D01*
X0128343Y0001595D01*
X0128463Y0001624D01*
X0128582Y0001656D01*
X0128701Y0001693D01*
X0128818Y0001733D01*
X0128933Y0001776D01*
X0129048Y0001824D01*
X0129160Y0001875D01*
X0129271Y0001929D01*
X0129381Y0001987D01*
X0129488Y0002048D01*
X0129594Y0002113D01*
X0129697Y0002181D01*
X0129798Y0002252D01*
X0129897Y0002326D01*
X0129994Y0002403D01*
X0130088Y0002484D01*
X0130179Y0002567D01*
X0130268Y0002653D01*
X0130354Y0002742D01*
X0130437Y0002833D01*
X0130518Y0002927D01*
X0130595Y0003024D01*
X0130669Y0003123D01*
X0130740Y0003224D01*
X0130808Y0003327D01*
X0130873Y0003433D01*
X0130934Y0003540D01*
X0130992Y0003650D01*
X0131046Y0003761D01*
X0131097Y0003873D01*
X0131145Y0003988D01*
X0131188Y0004103D01*
X0131228Y0004220D01*
X0131265Y0004339D01*
X0131297Y0004458D01*
X0131326Y0004578D01*
X0131351Y0004699D01*
X0131373Y0004821D01*
X0131390Y0004944D01*
X0131404Y0005066D01*
X0131413Y0005190D01*
X0131419Y0005313D01*
X0131421Y0005437D01*
X0131421Y0076303D01*
X0131419Y0076427D01*
X0131413Y0076550D01*
X0131404Y0076674D01*
X0131390Y0076796D01*
X0131373Y0076919D01*
X0131351Y0077041D01*
X0131326Y0077162D01*
X0131297Y0077282D01*
X0131265Y0077401D01*
X0131228Y0077520D01*
X0131188Y0077637D01*
X0131145Y0077752D01*
X0131097Y0077867D01*
X0131046Y0077979D01*
X0130992Y0078090D01*
X0130934Y0078200D01*
X0130873Y0078307D01*
X0130808Y0078413D01*
X0130740Y0078516D01*
X0130669Y0078617D01*
X0130595Y0078716D01*
X0130518Y0078813D01*
X0130437Y0078907D01*
X0130354Y0078998D01*
X0130268Y0079087D01*
X0130179Y0079173D01*
X0130088Y0079256D01*
X0129994Y0079337D01*
X0129897Y0079414D01*
X0129798Y0079488D01*
X0129697Y0079559D01*
X0129594Y0079627D01*
X0129488Y0079692D01*
X0129381Y0079753D01*
X0129271Y0079811D01*
X0129160Y0079865D01*
X0129048Y0079916D01*
X0128933Y0079964D01*
X0128818Y0080007D01*
X0128701Y0080047D01*
X0128582Y0080084D01*
X0128463Y0080116D01*
X0128343Y0080145D01*
X0128222Y0080170D01*
X0128100Y0080192D01*
X0127977Y0080209D01*
X0127855Y0080223D01*
X0127731Y0080232D01*
X0127608Y0080238D01*
X0127484Y0080240D01*
X0005437Y0080240D01*
X0005313Y0080238D01*
X0005190Y0080232D01*
X0005066Y0080223D01*
X0004944Y0080209D01*
X0004821Y0080192D01*
X0004699Y0080170D01*
X0004578Y0080145D01*
X0004458Y0080116D01*
X0004339Y0080084D01*
X0004220Y0080047D01*
X0004103Y0080007D01*
X0003988Y0079964D01*
X0003873Y0079916D01*
X0003761Y0079865D01*
X0003650Y0079811D01*
X0003540Y0079753D01*
X0003433Y0079692D01*
X0003327Y0079627D01*
X0003224Y0079559D01*
X0003123Y0079488D01*
X0003024Y0079414D01*
X0002927Y0079337D01*
X0002833Y0079256D01*
X0002742Y0079173D01*
X0002653Y0079087D01*
X0002567Y0078998D01*
X0002484Y0078907D01*
X0002403Y0078813D01*
X0002326Y0078716D01*
X0002252Y0078617D01*
X0002181Y0078516D01*
X0002113Y0078413D01*
X0002048Y0078307D01*
X0001987Y0078200D01*
X0001929Y0078090D01*
X0001875Y0077979D01*
X0001824Y0077867D01*
X0001776Y0077752D01*
X0001733Y0077637D01*
X0001693Y0077520D01*
X0001656Y0077401D01*
X0001624Y0077282D01*
X0001595Y0077162D01*
X0001570Y0077041D01*
X0001548Y0076919D01*
X0001531Y0076796D01*
X0001517Y0076674D01*
X0001508Y0076550D01*
X0001502Y0076427D01*
X0001500Y0076303D01*
X0001500Y0005437D01*
X0001502Y0005313D01*
X0001508Y0005190D01*
X0001517Y0005066D01*
X0001531Y0004944D01*
X0001548Y0004821D01*
X0001570Y0004699D01*
X0001595Y0004578D01*
X0001624Y0004458D01*
X0001656Y0004339D01*
X0001693Y0004220D01*
X0001733Y0004103D01*
X0001776Y0003988D01*
X0001824Y0003873D01*
X0001875Y0003761D01*
X0001929Y0003650D01*
X0001987Y0003540D01*
X0002048Y0003433D01*
X0002113Y0003327D01*
X0002181Y0003224D01*
X0002252Y0003123D01*
X0002326Y0003024D01*
X0002403Y0002927D01*
X0002484Y0002833D01*
X0002567Y0002742D01*
X0002653Y0002653D01*
X0002742Y0002567D01*
X0002833Y0002484D01*
X0002927Y0002403D01*
X0003024Y0002326D01*
X0003123Y0002252D01*
X0003224Y0002181D01*
X0003327Y0002113D01*
X0003433Y0002048D01*
X0003540Y0001987D01*
X0003650Y0001929D01*
X0003761Y0001875D01*
X0003873Y0001824D01*
X0003988Y0001776D01*
X0004103Y0001733D01*
X0004220Y0001693D01*
X0004339Y0001656D01*
X0004458Y0001624D01*
X0004578Y0001595D01*
X0004699Y0001570D01*
X0004821Y0001548D01*
X0004944Y0001531D01*
X0005066Y0001517D01*
X0005190Y0001508D01*
X0005313Y0001502D01*
X0005437Y0001500D01*
M02*
