G75*
%MOIN*%
%OFA0B0*%
%FSLAX25Y25*%
%IPPOS*%
%LPD*%
%AMOC8*
5,1,8,0,0,1.08239X$1,22.5*
%
%ADD10C,0.00939*%
%ADD11R,0.08280X0.08280*%
%ADD12C,0.08280*%
D10*
X0030132Y0045508D02*
X0030132Y0051276D01*
X0037868Y0051276D01*
X0037868Y0045508D01*
X0030132Y0045508D01*
X0030132Y0046446D02*
X0037868Y0046446D01*
X0037868Y0047384D02*
X0030132Y0047384D01*
X0030132Y0048322D02*
X0037868Y0048322D01*
X0037868Y0049260D02*
X0030132Y0049260D01*
X0030132Y0050198D02*
X0037868Y0050198D01*
X0037868Y0051136D02*
X0030132Y0051136D01*
X0040132Y0051276D02*
X0040132Y0045508D01*
X0040132Y0051276D02*
X0047868Y0051276D01*
X0047868Y0045508D01*
X0040132Y0045508D01*
X0040132Y0046446D02*
X0047868Y0046446D01*
X0047868Y0047384D02*
X0040132Y0047384D01*
X0040132Y0048322D02*
X0047868Y0048322D01*
X0047868Y0049260D02*
X0040132Y0049260D01*
X0040132Y0050198D02*
X0047868Y0050198D01*
X0047868Y0051136D02*
X0040132Y0051136D01*
X0050132Y0051276D02*
X0050132Y0045508D01*
X0050132Y0051276D02*
X0057868Y0051276D01*
X0057868Y0045508D01*
X0050132Y0045508D01*
X0050132Y0046446D02*
X0057868Y0046446D01*
X0057868Y0047384D02*
X0050132Y0047384D01*
X0050132Y0048322D02*
X0057868Y0048322D01*
X0057868Y0049260D02*
X0050132Y0049260D01*
X0050132Y0050198D02*
X0057868Y0050198D01*
X0057868Y0051136D02*
X0050132Y0051136D01*
X0060132Y0051276D02*
X0060132Y0045508D01*
X0060132Y0051276D02*
X0067868Y0051276D01*
X0067868Y0045508D01*
X0060132Y0045508D01*
X0060132Y0046446D02*
X0067868Y0046446D01*
X0067868Y0047384D02*
X0060132Y0047384D01*
X0060132Y0048322D02*
X0067868Y0048322D01*
X0067868Y0049260D02*
X0060132Y0049260D01*
X0060132Y0050198D02*
X0067868Y0050198D01*
X0067868Y0051136D02*
X0060132Y0051136D01*
X0077868Y0051276D02*
X0077868Y0045508D01*
X0070132Y0045508D01*
X0070132Y0051276D01*
X0077868Y0051276D01*
X0077868Y0046446D02*
X0070132Y0046446D01*
X0070132Y0047384D02*
X0077868Y0047384D01*
X0077868Y0048322D02*
X0070132Y0048322D01*
X0070132Y0049260D02*
X0077868Y0049260D01*
X0077868Y0050198D02*
X0070132Y0050198D01*
X0070132Y0051136D02*
X0077868Y0051136D01*
X0087868Y0051276D02*
X0087868Y0045508D01*
X0080132Y0045508D01*
X0080132Y0051276D01*
X0087868Y0051276D01*
X0087868Y0046446D02*
X0080132Y0046446D01*
X0080132Y0047384D02*
X0087868Y0047384D01*
X0087868Y0048322D02*
X0080132Y0048322D01*
X0080132Y0049260D02*
X0087868Y0049260D01*
X0087868Y0050198D02*
X0080132Y0050198D01*
X0080132Y0051136D02*
X0087868Y0051136D01*
X0097868Y0051276D02*
X0097868Y0045508D01*
X0090132Y0045508D01*
X0090132Y0051276D01*
X0097868Y0051276D01*
X0097868Y0046446D02*
X0090132Y0046446D01*
X0090132Y0047384D02*
X0097868Y0047384D01*
X0097868Y0048322D02*
X0090132Y0048322D01*
X0090132Y0049260D02*
X0097868Y0049260D01*
X0097868Y0050198D02*
X0090132Y0050198D01*
X0090132Y0051136D02*
X0097868Y0051136D01*
X0097868Y0059205D02*
X0097868Y0064973D01*
X0097868Y0059205D02*
X0090132Y0059205D01*
X0090132Y0064973D01*
X0097868Y0064973D01*
X0097868Y0060143D02*
X0090132Y0060143D01*
X0090132Y0061081D02*
X0097868Y0061081D01*
X0097868Y0062019D02*
X0090132Y0062019D01*
X0090132Y0062957D02*
X0097868Y0062957D01*
X0097868Y0063895D02*
X0090132Y0063895D01*
X0090132Y0064833D02*
X0097868Y0064833D01*
X0087868Y0064973D02*
X0087868Y0059205D01*
X0080132Y0059205D01*
X0080132Y0064973D01*
X0087868Y0064973D01*
X0087868Y0060143D02*
X0080132Y0060143D01*
X0080132Y0061081D02*
X0087868Y0061081D01*
X0087868Y0062019D02*
X0080132Y0062019D01*
X0080132Y0062957D02*
X0087868Y0062957D01*
X0087868Y0063895D02*
X0080132Y0063895D01*
X0080132Y0064833D02*
X0087868Y0064833D01*
X0077868Y0064973D02*
X0077868Y0059205D01*
X0070132Y0059205D01*
X0070132Y0064973D01*
X0077868Y0064973D01*
X0077868Y0060143D02*
X0070132Y0060143D01*
X0070132Y0061081D02*
X0077868Y0061081D01*
X0077868Y0062019D02*
X0070132Y0062019D01*
X0070132Y0062957D02*
X0077868Y0062957D01*
X0077868Y0063895D02*
X0070132Y0063895D01*
X0070132Y0064833D02*
X0077868Y0064833D01*
X0060132Y0064973D02*
X0060132Y0059205D01*
X0060132Y0064973D02*
X0067868Y0064973D01*
X0067868Y0059205D01*
X0060132Y0059205D01*
X0060132Y0060143D02*
X0067868Y0060143D01*
X0067868Y0061081D02*
X0060132Y0061081D01*
X0060132Y0062019D02*
X0067868Y0062019D01*
X0067868Y0062957D02*
X0060132Y0062957D01*
X0060132Y0063895D02*
X0067868Y0063895D01*
X0067868Y0064833D02*
X0060132Y0064833D01*
X0050132Y0064973D02*
X0050132Y0059205D01*
X0050132Y0064973D02*
X0057868Y0064973D01*
X0057868Y0059205D01*
X0050132Y0059205D01*
X0050132Y0060143D02*
X0057868Y0060143D01*
X0057868Y0061081D02*
X0050132Y0061081D01*
X0050132Y0062019D02*
X0057868Y0062019D01*
X0057868Y0062957D02*
X0050132Y0062957D01*
X0050132Y0063895D02*
X0057868Y0063895D01*
X0057868Y0064833D02*
X0050132Y0064833D01*
X0040132Y0064973D02*
X0040132Y0059205D01*
X0040132Y0064973D02*
X0047868Y0064973D01*
X0047868Y0059205D01*
X0040132Y0059205D01*
X0040132Y0060143D02*
X0047868Y0060143D01*
X0047868Y0061081D02*
X0040132Y0061081D01*
X0040132Y0062019D02*
X0047868Y0062019D01*
X0047868Y0062957D02*
X0040132Y0062957D01*
X0040132Y0063895D02*
X0047868Y0063895D01*
X0047868Y0064833D02*
X0040132Y0064833D01*
X0030132Y0064973D02*
X0030132Y0059205D01*
X0030132Y0064973D02*
X0037868Y0064973D01*
X0037868Y0059205D01*
X0030132Y0059205D01*
X0030132Y0060143D02*
X0037868Y0060143D01*
X0037868Y0061081D02*
X0030132Y0061081D01*
X0030132Y0062019D02*
X0037868Y0062019D01*
X0037868Y0062957D02*
X0030132Y0062957D01*
X0030132Y0063895D02*
X0037868Y0063895D01*
X0037868Y0064833D02*
X0030132Y0064833D01*
D11*
X0029000Y0010240D03*
X0099000Y0010240D03*
D12*
X0089000Y0010240D03*
X0079000Y0010240D03*
X0059000Y0010240D03*
X0049000Y0010240D03*
X0039000Y0010240D03*
X0021500Y0034370D03*
X0011500Y0034370D03*
X0011500Y0047370D03*
X0021500Y0047370D03*
M02*
