%
M48
M72
T01C0.0197
T02C0.0394
%
T01
X2600Y2624
X4000Y3700
X5150Y4200
X5650Y4200
X5650Y3700
X6550Y5524
X7400Y5524
X8250Y5524
X10200Y4400
X10200Y3900
X11150Y3900
X12150Y3900
X11550Y5091
X2550Y6224
X1950Y7024
T02
X2900Y1024
X3900Y1024
X4900Y1024
X5900Y1024
X7900Y1024
X8900Y1024
X9900Y1024
X2150Y3437
X1150Y3437
X1150Y4737
X2150Y4737
M30
