%
M48
M72
T01C0.0197
T02C0.0394
%
T01
X2150Y3274
X3900Y3774
X5400Y3774
X5550Y5524
X6550Y5524
X7400Y5524
X8250Y5524
X10200Y4524
X10200Y4024
X11150Y3900
X12150Y3900
X2500Y6224
X1900Y6400
X1900Y5900
X1150Y6150
T02
X2900Y1024
X3900Y1024
X4900Y1024
X5900Y1024
X7900Y1024
X8900Y1024
X9900Y1024
X2150Y4087
X1150Y4087
M30
