<svg version="1.1" xmlns="http://www.w3.org/2000/svg" xmlns:xlink="http://www.w3.org/1999/xlink" stroke-linecap="round" stroke-linejoin="round" stroke-width="0" fill-rule="evenodd" clip-rule="evenodd" id="IK9_aendlzY0n-if4h5p_bottom" viewBox="364.33 364.33 1968.5 787.4000000000001" width="1.9685in" height="0.7874000000000001in" class="w-100 h-100"><defs><style>.IK9_aendlzY0n-if4h5p_fr4 {color: #666666;}
.IK9_aendlzY0n-if4h5p_cu {color: #cccccc;}
.IK9_aendlzY0n-if4h5p_cf {color: #cc9933;}
.IK9_aendlzY0n-if4h5p_sm {color: #004200; opacity: 0.75;}
.IK9_aendlzY0n-if4h5p_ss {color: #ffffff;}
.IK9_aendlzY0n-if4h5p_sp {color: #999999;}
.IK9_aendlzY0n-if4h5p_out {color: #000000;}</style><rect x="-37.4" y="-37.4" width="74.8" height="74.8" id="mDB_Q9AaRjBf_Tr-NG84_pad-13"/><circle cx="0" cy="0" r="37.4" id="mDB_Q9AaRjBf_Tr-NG84_pad-14"/><circle cx="0" cy="0" r="18.7" id="mDB_Q9AaRjBf_Tr-NG84_pad-15"/><rect x="-41.4" y="-41.4" width="82.8" height="82.8" id="zE4ph9Cxhq_5CW91w3hJ_pad-13"/><circle cx="0" cy="0" r="41.4" id="zE4ph9Cxhq_5CW91w3hJ_pad-14"/><circle cx="0" cy="0" r="82.74" id="zE4ph9Cxhq_5CW91w3hJ_pad-15"/><circle cx="0" cy="0" r="9.85" id="IvsMyoCRcfuWORcyOP4x_pad-1"/><circle cx="0" cy="0" r="19.7" id="IvsMyoCRcfuWORcyOP4x_pad-2"/><circle cx="0" cy="0" r="78.75" id="IvsMyoCRcfuWORcyOP4x_pad-3"/><g id="IK9_aendlzY0n-if4h5p_bottom_copper"><path d="M 1004.54 805.22 1024.12 805.22 1024.12 762.02 1004.54 762.02 1004.54 805.22 M 1004.54 770 1024.12 770 M 1024.12 777.98 1004.54 777.98 M 1004.54 785.96 1024.12 785.96 M 1024.12 793.94 1004.54 793.94 M 1004.54 801.92 1024.12 801.92 M 1054.54 805.22 1074.12 805.22 1074.12 762.02 1054.54 762.02 1054.54 805.22 M 1054.54 770 1074.12 770 M 1074.12 777.98 1054.54 777.98 M 1054.54 785.96 1074.12 785.96 M 1074.12 793.94 1054.54 793.94 M 1054.54 801.92 1074.12 801.92 M 1104.54 805.22 1124.12 805.22 1124.12 762.02 1104.54 762.02 1104.54 805.22 M 1104.54 770 1124.12 770 M 1124.12 777.98 1104.54 777.98 M 1104.54 785.96 1124.12 785.96 M 1124.12 793.94 1104.54 793.94 M 1104.54 801.92 1124.12 801.92 M 1154.54 805.22 1174.12 805.22 1174.12 762.02 1154.54 762.02 1154.54 805.22 M 1154.54 770 1174.12 770 M 1174.12 777.98 1154.54 777.98 M 1154.54 785.96 1174.12 785.96 M 1174.12 793.94 1154.54 793.94 M 1154.54 801.92 1174.12 801.92 M 1504.54 805.33 1524.12 805.33 1524.12 762.13 1504.54 762.13 1504.54 805.33 M 1504.54 770.11 1524.12 770.11 M 1524.12 778.09 1504.54 778.09 M 1504.54 786.07 1524.12 786.07 M 1524.12 794.05 1504.54 794.05 M 1504.54 802.03 1524.12 802.03 M 1554.54 805.33 1574.12 805.33 1574.12 762.13 1554.54 762.13 1554.54 805.33 M 1554.54 770.11 1574.12 770.11 M 1574.12 778.09 1554.54 778.09 M 1554.54 786.07 1574.12 786.07 M 1574.12 794.05 1554.54 794.05 M 1554.54 802.03 1574.12 802.03 M 1604.54 805.33 1624.12 805.33 1624.12 762.13 1604.54 762.13 1604.54 805.33 M 1604.54 770.11 1624.12 770.11 M 1624.12 778.09 1604.54 778.09 M 1604.54 786.07 1624.12 786.07 M 1624.12 794.05 1604.54 794.05 M 1604.54 802.03 1624.12 802.03 M 1654.54 805.33 1674.12 805.33 1674.12 762.13 1654.54 762.13 1654.54 805.33 M 1654.54 770.11 1674.12 770.11 M 1674.12 778.09 1654.54 778.09 M 1654.54 786.07 1674.12 786.07 M 1674.12 794.05 1654.54 794.05 M 1654.54 802.03 1674.12 802.03 M 1674.12 1041.33 1654.54 1041.33 M 1674.12 1041.33 1674.12 998.13 1654.54 998.13 1654.54 1041.33 M 1654.54 1006.11 1674.12 1006.11 M 1674.12 1014.09 1654.54 1014.09 M 1654.54 1022.07 1674.12 1022.07 M 1674.12 1030.05 1654.54 1030.05 M 1654.54 1038.03 1674.12 1038.03 M 1624.12 1041.33 1604.54 1041.33 M 1624.12 1041.33 1624.12 998.13 1604.54 998.13 1604.54 1041.33 M 1604.54 1006.11 1624.12 1006.11 M 1624.12 1014.09 1604.54 1014.09 M 1604.54 1022.07 1624.12 1022.07 M 1624.12 1030.05 1604.54 1030.05 M 1604.54 1038.03 1624.12 1038.03 M 1574.12 1041.33 1554.54 1041.33 M 1574.12 1041.33 1574.12 998.13 1554.54 998.13 1554.54 1041.33 M 1554.54 1006.11 1574.12 1006.11 M 1574.12 1014.09 1554.54 1014.09 M 1554.54 1022.07 1574.12 1022.07 M 1574.12 1030.05 1554.54 1030.05 M 1554.54 1038.03 1574.12 1038.03 M 1524.12 1041.33 1504.54 1041.33 M 1524.12 1041.33 1524.12 998.13 1504.54 998.13 1504.54 1041.33 M 1504.54 1006.11 1524.12 1006.11 M 1524.12 1014.09 1504.54 1014.09 M 1504.54 1022.07 1524.12 1022.07 M 1524.12 1030.05 1504.54 1030.05 M 1504.54 1038.03 1524.12 1038.03 M 1174.12 1041.44 1154.54 1041.44 M 1174.12 1041.44 1174.12 998.24 1154.54 998.24 1154.54 1041.44 M 1154.54 1006.22 1174.12 1006.22 M 1174.12 1014.2 1154.54 1014.2 M 1154.54 1022.18 1174.12 1022.18 M 1174.12 1030.16 1154.54 1030.16 M 1154.54 1038.14 1174.12 1038.14 M 1124.12 1041.44 1104.54 1041.44 M 1124.12 1041.44 1124.12 998.24 1104.54 998.24 1104.54 1041.44 M 1104.54 1006.22 1124.12 1006.22 M 1124.12 1014.2 1104.54 1014.2 M 1104.54 1022.18 1124.12 1022.18 M 1124.12 1030.16 1104.54 1030.16 M 1104.54 1038.14 1124.12 1038.14 M 1074.12 1041.44 1054.54 1041.44 M 1074.12 1041.44 1074.12 998.24 1054.54 998.24 1054.54 1041.44 M 1054.54 1006.22 1074.12 1006.22 M 1074.12 1014.2 1054.54 1014.2 M 1054.54 1022.18 1074.12 1022.18 M 1074.12 1030.16 1054.54 1030.16 M 1054.54 1038.14 1074.12 1038.14 M 1024.12 1041.44 1004.54 1041.44 M 1024.12 1041.44 1024.12 998.24 1004.54 998.24 1004.54 1041.44 M 1004.54 1006.22 1024.12 1006.22 M 1024.12 1014.2 1004.54 1014.2 M 1004.54 1022.18 1024.12 1022.18 M 1024.12 1030.16 1004.54 1030.16 M 1004.54 1038.14 1024.12 1038.14" fill="none" stroke-width="7.99"/><path d="M 1736.18 921.41 1767.68 921.41 M 1736.18 921.41 1736.18 968.67 1767.68 968.67 1767.68 921.41 M 1767.68 929.27 1736.18 929.27 M 1736.18 937.13 1767.68 937.13 M 1767.68 944.99 1736.18 944.99 M 1736.18 952.85 1767.68 952.85 M 1767.68 960.71 1736.18 960.71 M 1736.18 968.57 1767.68 968.57 M 1810.98 921.41 1842.48 921.41 M 1810.98 921.41 1810.98 968.67 1842.48 968.67 1842.48 921.41 M 1842.48 929.27 1810.98 929.27 M 1810.98 937.13 1842.48 937.13 M 1842.48 944.99 1810.98 944.99 M 1810.98 952.85 1842.48 952.85 M 1842.48 960.71 1810.98 960.71 M 1810.98 968.57 1842.48 968.57 M 1805.08 834.8 1773.58 834.8 1773.58 882.06 1805.08 882.06 1805.08 834.8 M 1805.08 842.66 1773.58 842.66 M 1773.58 850.52 1805.08 850.52 M 1805.08 858.38 1773.58 858.38 M 1773.58 866.24 1805.08 866.24 M 1805.08 874.1 1773.58 874.1 M 1773.58 881.96 1805.08 881.96" fill="none" stroke-width="7.87"/><path d="M 1683.21 711.97 1632.41 711.97 M 1683.21 711.97 1683.21 641.49 1632.41 641.49 1632.41 711.97 M 1632.41 649.75 1683.21 649.75 M 1683.21 658.01 1632.41 658.01 M 1632.41 666.27 1683.21 666.27 M 1683.21 674.53 1632.41 674.53 M 1632.41 682.79 1683.21 682.79 M 1683.21 691.05 1632.41 691.05 M 1632.41 699.31 1683.21 699.31 M 1683.21 707.57 1632.41 707.57 M 1546.25 711.97 1495.45 711.97 M 1546.25 711.97 1546.25 641.49 1495.45 641.49 1495.45 711.97 M 1495.45 649.75 1546.25 649.75 M 1546.25 658.01 1495.45 658.01 M 1495.45 666.27 1546.25 666.27 M 1546.25 674.53 1495.45 674.53 M 1495.45 682.79 1546.25 682.79 M 1546.25 691.05 1495.45 691.05 M 1495.45 699.31 1546.25 699.31 M 1546.25 707.57 1495.45 707.57 M 1495.45 611.97 1546.25 611.97 1546.25 541.49 1495.45 541.49 1495.45 611.97 M 1495.45 549.75 1546.25 549.75 M 1546.25 558.01 1495.45 558.01 M 1495.45 566.27 1546.25 566.27 M 1546.25 574.53 1495.45 574.53 M 1495.45 582.79 1546.25 582.79 M 1546.25 591.05 1495.45 591.05 M 1495.45 599.31 1546.25 599.31 M 1546.25 607.57 1495.45 607.57 M 1632.41 611.97 1683.21 611.97 1683.21 541.49 1632.41 541.49 1632.41 611.97 M 1632.41 549.75 1683.21 549.75 M 1683.21 558.01 1632.41 558.01 M 1632.41 566.27 1683.21 566.27 M 1683.21 574.53 1632.41 574.53 M 1632.41 582.79 1683.21 582.79 M 1683.21 591.05 1632.41 591.05 M 1632.41 599.31 1683.21 599.31 M 1683.21 607.57 1632.41 607.57 M 1849.57 610.81 1849.57 560.01 1779.09 560.01 1779.09 610.81 1849.57 610.81 M 1849.57 568.27 1779.09 568.27 M 1779.09 576.53 1849.57 576.53 M 1849.57 584.79 1779.09 584.79 M 1779.09 593.05 1849.57 593.05 M 1849.57 601.31 1779.09 601.31 M 1779.09 609.57 1849.57 609.57 M 1949.57 610.62 1949.57 559.82 1879.09 559.82 1879.09 610.62 1949.57 610.62 M 1949.57 568.08 1879.09 568.08 M 1879.09 576.34 1949.57 576.34 M 1949.57 584.6 1879.09 584.6 M 1879.09 592.86 1949.57 592.86 M 1949.57 601.12 1879.09 601.12 M 1879.09 609.38 1949.57 609.38 M 1949.57 473.65 1949.57 422.85 1879.09 422.85 1879.09 473.65 1949.57 473.65 M 1949.57 431.11 1879.09 431.11 M 1879.09 439.37 1949.57 439.37 M 1949.57 447.63 1879.09 447.63 M 1879.09 455.89 1949.57 455.89 M 1949.57 464.15 1879.09 464.15 M 1879.09 472.41 1949.57 472.41 M 1849.57 473.84 1849.57 423.04 1779.09 423.04 1779.09 473.84 1849.57 473.84 M 1849.57 431.3 1779.09 431.3 M 1779.09 439.56 1849.57 439.56 M 1849.57 447.82 1779.09 447.82 M 1779.09 456.08 1849.57 456.08 M 1849.57 464.34 1779.09 464.34 M 1779.09 472.6 1849.57 472.6 M 1299.57 807.85 1299.57 858.65 M 1299.57 807.85 1229.09 807.85 1229.09 858.65 1299.57 858.65 M 1299.57 816.11 1229.09 816.11 M 1229.09 824.37 1299.57 824.37 M 1299.57 832.63 1229.09 832.63 M 1229.09 840.89 1299.57 840.89 M 1299.57 849.15 1229.09 849.15 M 1229.09 857.41 1299.57 857.41 M 1299.57 944.82 1299.57 995.62 M 1299.57 944.82 1229.09 944.82 1229.09 995.62 1299.57 995.62 M 1299.57 953.08 1229.09 953.08 M 1229.09 961.34 1299.57 961.34 M 1299.57 969.6 1229.09 969.6 M 1229.09 977.86 1299.57 977.86 M 1299.57 986.12 1229.09 986.12 M 1229.09 994.38 1299.57 994.38 M 849.57 1007.41 849.57 1058.21 M 849.57 1007.41 779.09 1007.41 779.09 1058.21 849.57 1058.21 M 849.57 1015.67 779.09 1015.67 M 779.09 1023.93 849.57 1023.93 M 849.57 1032.19 779.09 1032.19 M 779.09 1040.45 849.57 1040.45 M 849.57 1048.71 779.09 1048.71 M 779.09 1056.97 849.57 1056.97 M 849.57 921.25 849.57 870.45 779.09 870.45 779.09 921.25 849.57 921.25 M 849.57 878.71 779.09 878.71 M 779.09 886.97 849.57 886.97 M 849.57 895.23 779.09 895.23 M 779.09 903.49 849.57 903.49 M 849.57 911.75 779.09 911.75 M 779.09 920.01 849.57 920.01 M 995.45 711.97 1046.25 711.97 1046.25 641.49 995.45 641.49 995.45 711.97 M 995.45 649.75 1046.25 649.75 M 1046.25 658.01 995.45 658.01 M 995.45 666.27 1046.25 666.27 M 1046.25 674.53 995.45 674.53 M 995.45 682.79 1046.25 682.79 M 1046.25 691.05 995.45 691.05 M 995.45 699.31 1046.25 699.31 M 1046.25 707.57 995.45 707.57 M 1132.41 711.97 1183.21 711.97 1183.21 641.49 1132.41 641.49 1132.41 711.97 M 1132.41 649.75 1183.21 649.75 M 1183.21 658.01 1132.41 658.01 M 1132.41 666.27 1183.21 666.27 M 1183.21 674.53 1132.41 674.53 M 1132.41 682.79 1183.21 682.79 M 1183.21 691.05 1132.41 691.05 M 1132.41 699.31 1183.21 699.31 M 1183.21 707.57 1132.41 707.57 M 779.09 648.21 779.09 597.41 M 779.09 648.21 849.57 648.21 849.57 597.41 779.09 597.41 M 779.09 605.67 849.57 605.67 M 849.57 613.93 779.09 613.93 M 779.09 622.19 849.57 622.19 M 849.57 630.45 779.09 630.45 M 779.09 638.71 849.57 638.71 M 849.57 646.97 779.09 646.97 M 779.09 511.25 779.09 460.45 M 779.09 511.25 849.57 511.25 849.57 460.45 779.09 460.45 M 779.09 468.71 849.57 468.71 M 849.57 476.97 779.09 476.97 M 779.09 485.23 849.57 485.23 M 849.57 493.49 779.09 493.49 M 779.09 501.75 849.57 501.75 M 849.57 510.01 779.09 510.01" fill="none" stroke-width="8.27"/><use xlink:href="#mDB_Q9AaRjBf_Tr-NG84_pad-13" x="989.33" y="451.73"/><use xlink:href="#mDB_Q9AaRjBf_Tr-NG84_pad-13" x="714.33" y="758.03"/><use xlink:href="#mDB_Q9AaRjBf_Tr-NG84_pad-13" x="1689.33" y="451.73"/><use xlink:href="#mDB_Q9AaRjBf_Tr-NG84_pad-14" x="1589.33" y="451.73"/><use xlink:href="#mDB_Q9AaRjBf_Tr-NG84_pad-14" x="1489.33" y="451.73"/><use xlink:href="#mDB_Q9AaRjBf_Tr-NG84_pad-14" x="1289.33" y="451.73"/><use xlink:href="#mDB_Q9AaRjBf_Tr-NG84_pad-14" x="1189.33" y="451.73"/><use xlink:href="#mDB_Q9AaRjBf_Tr-NG84_pad-14" x="1089.33" y="451.73"/><use xlink:href="#mDB_Q9AaRjBf_Tr-NG84_pad-14" x="814.33" y="758.03"/><use xlink:href="#mDB_Q9AaRjBf_Tr-NG84_pad-15" x="914.33" y="676.73"/><use xlink:href="#mDB_Q9AaRjBf_Tr-NG84_pad-15" x="1089.33" y="726.73"/><use xlink:href="#mDB_Q9AaRjBf_Tr-NG84_pad-15" x="1239.33" y="726.73"/><use xlink:href="#mDB_Q9AaRjBf_Tr-NG84_pad-15" x="1189.33" y="901.73"/><use xlink:href="#mDB_Q9AaRjBf_Tr-NG84_pad-15" x="1354.33" y="901.73"/><use xlink:href="#mDB_Q9AaRjBf_Tr-NG84_pad-15" x="1439.33" y="901.73"/><use xlink:href="#mDB_Q9AaRjBf_Tr-NG84_pad-15" x="1524.33" y="901.73"/><use xlink:href="#mDB_Q9AaRjBf_Tr-NG84_pad-15" x="1719.33" y="801.73"/><use xlink:href="#mDB_Q9AaRjBf_Tr-NG84_pad-15" x="1719.33" y="751.73"/><use xlink:href="#mDB_Q9AaRjBf_Tr-NG84_pad-15" x="1814.33" y="739.33"/><use xlink:href="#mDB_Q9AaRjBf_Tr-NG84_pad-15" x="1914.33" y="739.33"/><use xlink:href="#mDB_Q9AaRjBf_Tr-NG84_pad-15" x="949.33" y="971.73"/><use xlink:href="#mDB_Q9AaRjBf_Tr-NG84_pad-15" x="899.33" y="1101.73"/><path d="M 899.33 1101.73 830.41 1032.81 814.33 1032.81 M 949.33 1061.73 949.33 971.73 M 949.33 1061.73 989.33 1101.73 1264.33 1101.73 1346.33 1019.73 1514.33 1019.73 M 1514.33 901.73 1524.33 901.73 M 1514.33 901.73 1339.33 726.73 1239.33 726.73 M 1157.81 676.73 1157.81 580.22 1089.33 511.73 1089.33 451.73 M 1189.33 451.73 1189.33 501.73 1471.33 783.73 1506.33 783.73 M 1520.85 676.73 1520.85 576.73 1414.33 576.73 1289.33 451.73 M 1089.33 626.73 1014.33 551.73 880.22 551.73 814.33 485.85 M 1089.33 626.73 1089.33 726.73 M 1020.85 676.73 914.33 676.73 M 1264.33 970.22 1332.81 901.73 1354.33 901.73 M 1270.85 970.22 1264.33 970.22 1214.7 1019.84 1174.7 1019.84 M 1264.33 970.22 1264.33 961.73 M 1814.33 739.33 1814.33 585.41 M 1914.33 585.22 1914.33 739.33" fill="none" stroke-width="39.37"/><path d="M 1844.33 784.33 1899.33 839.33 1899.33 989.33 1864.33 1024.33 1784.33 1024.33 1751.93 991.93 1751.93 945.04 1708.62 901.73 1594.33 901.73 1514.33 821.73 1514.33 783.73 1506.33 783.73 M 1564.33 783.73 1564.33 720.22 1520.85 676.73 M 1614.33 720.22 1657.81 676.73 M 1614.33 720.22 1614.33 783.73 1614.33 821.73 1651.02 858.43 1789.33 858.43 M 1794.33 784.33 1844.33 784.33 M 1794.33 784.33 1764.33 754.33 1764.33 679.33 1657.81 572.81 1657.81 576.73 M 1164.33 683.25 1157.81 676.73 M 1164.33 683.25 1164.33 783.62 M 1114.33 783.62 1114.33 751.73 1089.33 726.73 M 1064.33 783.62 1064.33 824.33 1141.73 901.73 1189.33 901.73 M 1174.7 1019.84 1164.33 1019.84 M 1439.33 901.73 1494.33 956.73 1589.33 956.73 1614.33 981.73 1614.33 1019.73 1664.33 1019.73 M 1564.33 1019.73 1514.33 1019.73" fill="none" stroke-width="23.62"/><path d="M 723.66 582.57 723.66 378.33 1973.5 378.33 1973.5 582.57 1984.58 623.9 2005.97 660.95 2036.22 691.2 2073.27 712.59 2114.59 723.66 2318.83 723.66 2318.83 792.4 2114.59 792.4 2073.27 803.47 2036.22 824.87 2005.97 855.12 1984.58 892.17 1973.5 933.49 1973.5 1137.73 723.66 1137.73 723.66 933.49 712.59 892.17 691.2 855.12 660.95 824.87 623.9 803.47 582.57 792.4 378.33 792.4 378.33 723.66 539.79 723.66 582.57 723.66 623.9 712.59 660.95 691.2 691.2 660.95 712.59 623.9 723.66 582.57 M 723.28 584 765.45 584 M 763.78 585.67 767.35 582.11 771.71 579.59 776.58 578.29 809.33 578.29 809.33 617.81 819.33 617.81 819.33 578.29 852.09 578.29 856.95 579.59 861.32 582.11 864.88 585.67 867.4 590.04 868.7 594.9 868.7 617.82 819.33 617.82 819.33 627.81 868.7 627.81 868.7 650.73 867.4 655.59 864.88 659.96 861.32 663.52 856.95 666.04 852.09 667.34 819.33 667.34 819.33 627.82 809.33 627.82 809.33 667.34 776.58 667.34 771.71 666.04 767.35 663.52 763.78 659.96 761.26 655.59 759.96 650.73 759.96 627.81 809.33 627.81 809.33 617.82 759.96 617.82 759.96 594.9 761.26 590.04 763.78 585.67 M 760.21 593.99 720.6 593.99 M 717.93 603.97 759.96 603.97 M 759.96 613.96 715.25 613.96 M 712.56 623.94 809.33 623.94 M 809.33 613.96 819.33 613.96 M 819.33 623.94 1041.73 623.94 M 1043.15 625.36 1001.21 583.42 873.91 583.42 862.27 578.59 811.05 527.37 772.41 527.37 762.96 517.92 762.96 453.77 772.41 444.32 856.25 444.32 865.7 453.77 865.7 492.41 893.34 520.05 1020.63 520.05 1032.28 524.87 1116.19 608.78 1121.02 620.43 1121.02 630.09 1125.74 625.36 1126.13 625.36 1126.13 593.34 1071.38 538.59 1062.47 529.68 1057.65 518.03 1057.65 489.91 1047.45 479.72 1041.73 465.91 1041.73 491.11 1040.71 494.92 1038.74 498.34 1035.94 501.14 1032.52 503.11 1028.71 504.13 994.17 504.13 994.17 456.58 984.49 456.58 984.49 504.13 949.95 504.13 946.14 503.11 942.72 501.14 939.93 498.34 937.95 494.92 936.93 491.11 936.93 456.57 984.49 456.57 984.49 446.89 994.17 446.89 994.17 399.33 1028.71 399.33 1032.52 400.35 1035.94 402.33 1038.74 405.12 1040.71 408.54 1041.73 412.36 1041.73 437.55 1047.45 423.75 1061.35 409.85 1079.5 402.33 1099.16 402.33 1117.31 409.85 1131.21 423.75 1138.73 441.91 1138.73 461.56 1131.21 479.72 1121.02 489.91 1121.02 498.61 1184.68 562.27 1189.5 573.91 1189.5 625.36 1189.89 625.36 1199.34 634.81 1199.34 718.65 1189.89 728.1 1188.14 728.1 1188.14 753.43 1190.11 755.4 1190.11 811.84 1180.74 821.21 1147.92 821.21 1139.33 812.62 1130.74 821.21 1097.92 821.21 1089.33 812.62 1088.14 813.81 1088.14 814.47 1151.6 877.92 1169.72 877.92 1171.94 875.71 1183.22 871.03 1195.44 871.03 1206.72 875.71 1215.36 884.34 1220.03 895.63 1220.03 907.84 1215.36 919.12 1206.72 927.76 1195.44 932.43 1183.22 932.43 1171.94 927.76 1169.72 925.54 1131.87 925.54 1054.47 848.14 1040.52 834.19 1040.52 814.79 1039.31 816.88 1035.78 820.42 1031.45 822.92 1026.62 824.21 1016.22 824.21 1016.22 785.51 1012.44 785.51 1012.44 781.73 1016.22 781.73 1016.22 743.03 1026.62 743.03 1031.45 744.33 1035.78 746.83 1039.31 750.36 1040.88 753.07 1047.92 746.03 1063.82 746.03 1062.47 744.68 1057.65 733.03 1057.65 723.38 1052.92 728.1 988.77 728.1 979.32 718.65 979.32 708.42 908.03 708.42 896.38 703.59 887.47 694.68 882.65 683.03 882.65 670.43 887.47 658.78 896.38 649.87 908.03 645.05 979.32 645.05 979.32 634.81 988.77 625.36 1043.15 625.36 M 1031.75 613.96 868.7 613.96 M 868.7 603.97 1021.76 603.97 M 1011.78 593.99 868.46 593.99 M 863.21 584 1001.79 584 M 1061.46 554.05 1086.84 554.05 M 1096.82 564.03 1071.44 564.03 M 1081.43 574.02 1106.81 574.02 M 1116.79 584 1091.41 584 M 1101.4 593.99 1126.13 593.99 M 1126.13 603.97 1111.38 603.97 M 1118.34 613.96 1126.13 613.96 M 1126.13 623.94 1121.02 623.94 M 1189.5 623.94 1266.73 623.94 M 1256.75 613.96 1189.5 613.96 M 1189.5 603.97 1246.76 603.97 M 1236.78 593.99 1189.5 593.99 M 1189.5 584 1226.79 584 M 1216.81 574.02 1189.5 574.02 M 1185.41 564.03 1206.82 564.03 M 1196.84 554.05 1176.46 554.05 M 1166.47 544.06 1186.85 544.06 M 1176.87 534.08 1156.49 534.08 M 1146.5 524.09 1166.88 524.09 M 1162.47 519.68 1157.65 508.03 1157.65 489.91 1147.45 479.72 1139.93 461.56 1139.93 441.91 1147.45 423.75 1161.35 409.85 1179.5 402.33 1199.16 402.33 1217.31 409.85 1231.21 423.75 1238.73 441.91 1238.73 461.56 1231.21 479.72 1221.67 489.26 1484.46 752.05 1492.02 752.05 1497.92 746.14 1530.74 746.14 1539.33 754.73 1540.52 753.54 1540.52 730.08 1538.54 728.1 1488.77 728.1 1479.32 718.65 1479.32 634.81 1487.4 626.73 1479.32 618.65 1479.32 608.42 1408.03 608.42 1396.38 603.59 1387.47 594.68 1293.92 501.13 1279.5 501.13 1261.35 493.61 1247.45 479.72 1239.93 461.56 1239.93 441.91 1247.45 423.75 1261.35 409.85 1279.5 402.33 1299.16 402.33 1317.31 409.85 1331.21 423.75 1338.73 441.91 1338.73 456.32 1427.46 545.05 1479.32 545.05 1479.32 534.81 1488.77 525.36 1552.92 525.36 1562.37 534.81 1562.37 618.65 1554.29 626.73 1562.37 634.81 1562.37 684.59 1588.14 710.35 1588.14 753.54 1589.33 754.73 1590.52 753.54 1590.52 710.35 1616.29 684.59 1616.29 634.81 1624.37 626.73 1616.29 618.65 1616.29 534.81 1625.74 525.36 1689.89 525.36 1699.34 534.81 1699.34 580.67 1774.19 655.52 1782.65 663.97 1782.65 626.94 1772.41 626.94 1762.96 617.49 1762.96 553.34 1772.41 543.89 1856.25 543.89 1864.23 551.87 1872.41 543.69 1956.25 543.69 1965.7 553.14 1965.7 617.29 1956.25 626.74 1946.02 626.74 1946.02 745.63 1941.19 757.28 1932.28 766.19 1920.63 771.02 1908.03 771.02 1896.38 766.19 1887.47 757.28 1882.65 745.63 1882.65 626.74 1872.41 626.74 1864.43 618.76 1856.25 626.94 1846.02 626.94 1846.02 745.63 1841.19 757.28 1837.95 760.52 1854.19 760.52 1909.19 815.52 1923.14 829.47 1923.14 999.19 1888.14 1034.19 1874.19 1048.14 1774.47 1048.14 1742.07 1015.74 1728.12 1001.79 1728.12 983.14 1720.24 975.26 1720.24 947.03 1698.76 925.54 1584.47 925.54 1556.02 897.09 1556.02 908.03 1551.19 919.68 1542.28 928.59 1531.83 932.92 1599.19 932.92 1624.19 957.92 1638.14 971.87 1638.14 989.54 1639.33 990.73 1647.92 982.14 1680.74 982.14 1690.11 991.51 1690.11 1047.95 1680.74 1057.32 1647.92 1057.32 1639.33 1048.73 1630.74 1057.32 1597.92 1057.32 1589.33 1048.73 1580.74 1057.32 1547.92 1057.32 1539.33 1048.73 1530.74 1057.32 1497.92 1057.32 1492.02 1051.42 1359.46 1051.42 1282.28 1128.59 1270.63 1133.42 983.03 1133.42 971.38 1128.59 931.38 1088.59 922.47 1079.68 917.65 1068.03 917.65 965.43 922.47 953.78 931.38 944.87 943.03 940.05 955.63 940.05 967.28 944.87 976.19 953.78 981.02 965.43 981.02 1048.61 1002.46 1070.05 1251.21 1070.05 1328.38 992.87 1340.03 988.05 1492.02 988.05 1497.92 982.14 1530.74 982.14 1539.33 990.73 1547.92 982.14 1580.74 982.14 1589.33 990.73 1589.49 990.57 1579.47 980.54 1484.47 980.54 1470.52 966.6 1436.36 932.43 1433.22 932.43 1421.94 927.76 1413.3 919.12 1408.63 907.84 1408.63 895.63 1413.3 884.34 1421.94 875.71 1433.22 871.03 1438.82 871.03 1326.21 758.42 1233.03 758.42 1221.38 753.59 1212.47 744.68 1207.65 733.03 1207.65 720.43 1212.47 708.78 1221.38 699.87 1233.03 695.05 1337.84 695.05 1171.38 528.59 1162.47 519.68 M 1160.16 514.11 1136.52 514.11 M 1126.53 504.12 1157.65 504.12 M 1157.65 494.14 1121.02 494.14 M 1126.78 484.15 1151.89 484.15 M 1145.15 474.17 1133.51 474.17 M 1137.65 464.18 1141.02 464.18 M 1139.93 454.2 1138.73 454.2 M 1138.73 444.21 1139.93 444.21 M 1143.11 434.23 1135.55 434.23 M 1131.42 424.24 1147.25 424.24 M 1156.94 414.26 1121.72 414.26 M 1103.84 404.27 1174.82 404.27 M 1203.84 404.27 1274.82 404.27 M 1256.94 414.26 1221.72 414.26 M 1231.42 424.24 1247.25 424.24 M 1243.11 434.23 1235.55 434.23 M 1238.73 444.21 1239.93 444.21 M 1239.93 454.2 1238.73 454.2 M 1237.65 464.18 1241.02 464.18 M 1245.15 474.17 1233.51 474.17 M 1226.78 484.15 1251.89 484.15 M 1262.61 494.14 1226.54 494.14 M 1236.53 504.12 1296.91 504.12 M 1306.9 514.11 1246.52 514.11 M 1256.5 524.09 1316.88 524.09 M 1326.87 534.08 1266.49 534.08 M 1276.47 544.06 1336.85 544.06 M 1346.84 554.05 1286.46 554.05 M 1296.44 564.03 1356.82 564.03 M 1366.81 574.02 1306.43 574.02 M 1316.41 584 1376.79 584 M 1386.78 593.99 1326.4 593.99 M 1336.38 603.97 1397.3 603.97 M 1366.34 633.93 1480.2 633.93 M 1479.32 643.91 1376.32 643.91 M 1386.31 653.9 1479.32 653.9 M 1479.32 663.88 1396.29 663.88 M 1406.28 673.87 1479.32 673.87 M 1479.32 683.85 1416.26 683.85 M 1426.25 693.84 1479.32 693.84 M 1479.32 703.82 1436.23 703.82 M 1446.22 713.81 1479.32 713.81 M 1484.46 723.79 1456.2 723.79 M 1466.19 733.78 1540.52 733.78 M 1540.52 743.77 1476.17 743.77 M 1538.35 753.75 1540.31 753.75 M 1588.35 753.75 1590.31 753.75 M 1590.52 743.77 1588.14 743.77 M 1588.14 733.78 1590.52 733.78 M 1590.52 723.79 1588.14 723.79 M 1588.14 713.81 1590.52 713.81 M 1597.05 703.82 1581.61 703.82 M 1571.63 693.84 1607.03 693.84 M 1616.29 683.85 1562.37 683.85 M 1562.37 673.87 1616.29 673.87 M 1616.29 663.88 1562.37 663.88 M 1562.37 653.9 1616.29 653.9 M 1616.29 643.91 1562.37 643.91 M 1561.49 633.93 1617.17 633.93 M 1621.58 623.94 1557.08 623.94 M 1562.37 613.96 1616.29 613.96 M 1616.29 603.97 1562.37 603.97 M 1562.37 593.99 1616.29 593.99 M 1616.29 584 1562.37 584 M 1562.37 574.02 1616.29 574.02 M 1616.29 564.03 1562.37 564.03 M 1562.37 554.05 1616.29 554.05 M 1616.29 544.06 1562.37 544.06 M 1561.64 534.08 1617.02 534.08 M 1599.16 501.13 1579.5 501.13 1561.35 493.61 1547.45 479.72 1539.93 461.56 1539.93 441.91 1547.45 423.75 1561.35 409.85 1579.5 402.33 1599.16 402.33 1617.31 409.85 1631.21 423.75 1636.93 437.55 1636.93 412.36 1637.95 408.54 1639.93 405.12 1642.72 402.33 1646.14 400.35 1649.95 399.33 1684.49 399.33 1684.49 446.89 1694.17 446.89 1694.17 399.33 1728.71 399.33 1732.52 400.35 1735.94 402.33 1738.74 405.12 1740.71 408.54 1741.73 412.36 1741.73 446.89 1694.17 446.89 1694.17 456.57 1741.73 456.57 1741.73 491.11 1740.71 494.92 1738.74 498.34 1735.94 501.14 1732.52 503.11 1728.71 504.13 1694.17 504.13 1694.17 456.58 1684.49 456.58 1684.49 504.13 1649.95 504.13 1646.14 503.11 1642.72 501.14 1639.93 498.34 1637.95 494.92 1636.93 491.11 1636.93 465.91 1631.21 479.72 1617.31 493.61 1599.16 501.13 M 1616.05 494.14 1637.74 494.14 M 1636.93 484.15 1626.78 484.15 M 1633.51 474.17 1636.93 474.17 M 1649.91 504.12 1386.53 504.12 M 1376.55 494.14 1462.61 494.14 M 1461.35 493.61 1447.45 479.72 1439.93 461.56 1439.93 441.91 1447.45 423.75 1461.35 409.85 1479.5 402.33 1499.16 402.33 1517.31 409.85 1531.21 423.75 1538.73 441.91 1538.73 461.56 1531.21 479.72 1517.31 493.61 1499.16 501.13 1479.5 501.13 1461.35 493.61 M 1451.89 484.15 1366.56 484.15 M 1356.57 474.17 1445.15 474.17 M 1441.02 464.18 1346.59 464.18 M 1338.73 454.2 1439.93 454.2 M 1439.93 444.21 1338.73 444.21 M 1335.55 434.23 1443.11 434.23 M 1447.25 424.24 1331.42 424.24 M 1321.72 414.26 1456.94 414.26 M 1474.82 404.27 1303.84 404.27 M 1396.52 514.11 1973.5 514.11 M 1973.5 524.09 1406.5 524.09 M 1416.49 534.08 1480.05 534.08 M 1479.32 544.06 1426.47 544.06 M 1516.05 494.14 1562.61 494.14 M 1551.89 484.15 1526.78 484.15 M 1533.51 474.17 1545.15 474.17 M 1541.02 464.18 1537.65 464.18 M 1538.73 454.2 1539.93 454.2 M 1539.93 444.21 1538.73 444.21 M 1535.55 434.23 1543.11 434.23 M 1547.25 424.24 1531.42 424.24 M 1521.72 414.26 1556.94 414.26 M 1574.82 404.27 1503.84 404.27 M 1603.84 404.27 1640.78 404.27 M 1636.93 414.26 1621.72 414.26 M 1631.42 424.24 1636.93 424.24 M 1636.93 434.23 1635.55 434.23 M 1684.49 434.23 1694.17 434.23 M 1694.17 444.21 1684.49 444.21 M 1694.17 454.2 1759.96 454.2 M 1759.96 453.44 1759.96 476.36 1761.26 481.22 1763.78 485.59 1767.35 489.15 1771.71 491.67 1776.58 492.97 1809.33 492.97 1809.33 453.45 1819.33 453.45 1819.33 492.97 1852.09 492.97 1856.95 491.67 1861.32 489.15 1864.43 486.04 1867.35 488.95 1871.71 491.47 1876.58 492.78 1909.33 492.78 1909.33 453.25 1919.33 453.25 1919.33 492.78 1952.09 492.78 1956.95 491.47 1961.32 488.95 1964.88 485.39 1967.4 481.03 1968.7 476.16 1968.7 453.25 1919.33 453.25 1919.33 443.25 1968.7 443.25 1968.7 420.34 1967.4 415.47 1964.88 411.11 1961.32 407.54 1956.95 405.02 1952.09 403.72 1919.33 403.72 1919.33 443.25 1909.33 443.25 1868.7 443.25 1868.7 443.45 1819.33 443.45 1819.33 453.44 1859.96 453.44 1859.96 453.25 1909.33 453.25 1909.33 443.25 1909.33 403.72 1876.58 403.72 1871.71 405.02 1867.35 407.54 1864.23 410.66 1861.32 407.74 1856.95 405.22 1852.09 403.92 1819.33 403.92 1819.33 443.44 1809.33 443.44 1809.33 403.92 1776.58 403.92 1771.71 405.22 1767.35 407.74 1763.78 411.3 1761.26 415.67 1759.96 420.53 1759.96 443.45 1809.33 443.45 1809.33 453.44 1759.96 453.44 M 1759.96 464.18 1741.73 464.18 M 1741.73 474.17 1759.96 474.17 M 1762.96 484.15 1741.73 484.15 M 1740.92 494.14 1973.5 494.14 M 1973.5 504.12 1728.75 504.12 M 1694.17 504.12 1684.49 504.12 M 1684.49 494.14 1694.17 494.14 M 1694.17 484.15 1684.49 484.15 M 1684.49 474.17 1694.17 474.17 M 1694.17 464.18 1684.49 464.18 M 1741.73 444.21 1809.33 444.21 M 1809.33 434.23 1819.33 434.23 M 1819.33 444.21 1909.33 444.21 M 1909.33 434.23 1919.33 434.23 M 1919.33 444.21 1973.5 444.21 M 1973.5 434.23 1968.7 434.23 M 1968.7 424.24 1973.5 424.24 M 1973.5 414.26 1966.7 414.26 M 1973.5 404.27 1954.14 404.27 M 1973.5 394.29 723.66 394.29 M 723.66 404.27 940.78 404.27 M 939.93 405.12 942.72 402.33 946.14 400.35 949.95 399.33 984.49 399.33 984.49 446.89 936.93 446.89 936.93 412.36 937.95 408.54 939.93 405.12 M 936.93 414.26 723.66 414.26 M 723.66 424.24 936.93 424.24 M 936.93 434.23 723.66 434.23 M 723.66 444.21 936.93 444.21 M 936.93 464.18 865.7 464.18 M 865.7 454.2 984.49 454.2 M 984.49 464.18 994.17 464.18 M 994.17 474.17 984.49 474.17 M 984.49 484.15 994.17 484.15 M 994.17 494.14 984.49 494.14 M 984.49 504.12 994.17 504.12 M 949.91 504.12 877.42 504.12 M 887.4 514.11 1057.65 514.11 M 1057.65 504.12 1028.75 504.12 M 1040.92 494.14 1057.65 494.14 M 1051.89 484.15 1041.73 484.15 M 1041.73 474.17 1045.15 474.17 M 994.17 444.21 984.49 444.21 M 984.49 434.23 994.17 434.23 M 994.17 424.24 984.49 424.24 M 984.49 414.26 994.17 414.26 M 994.17 404.27 984.49 404.27 M 1037.89 404.27 1074.82 404.27 M 1056.94 414.26 1041.73 414.26 M 1041.73 424.24 1047.25 424.24 M 1043.11 434.23 1041.73 434.23 M 936.93 474.17 865.7 474.17 M 865.7 484.15 936.93 484.15 M 937.74 494.14 867.43 494.14 M 817.75 534.08 723.66 534.08 M 723.66 544.06 827.74 544.06 M 837.72 554.05 723.66 554.05 M 723.66 564.03 847.71 564.03 M 857.69 574.02 723.66 574.02 M 723.66 524.09 769.13 524.09 M 762.96 514.11 723.66 514.11 M 723.66 504.12 762.96 504.12 M 762.96 494.14 723.66 494.14 M 723.66 484.15 762.96 484.15 M 762.96 474.17 723.66 474.17 M 723.66 464.18 762.96 464.18 M 762.96 454.2 723.66 454.2 M 723.66 384.3 1973.5 384.3 M 1919.33 404.27 1909.33 404.27 M 1909.33 414.26 1919.33 414.26 M 1919.33 424.24 1909.33 424.24 M 1874.52 404.27 1853.41 404.27 M 1819.33 404.27 1809.33 404.27 M 1809.33 414.26 1819.33 414.26 M 1819.33 424.24 1809.33 424.24 M 1809.33 454.2 1819.33 454.2 M 1819.33 464.18 1809.33 464.18 M 1809.33 474.17 1819.33 474.17 M 1819.33 484.15 1809.33 484.15 M 1759.96 434.23 1741.73 434.23 M 1741.73 424.24 1759.96 424.24 M 1762.08 414.26 1741.73 414.26 M 1737.89 404.27 1775.25 404.27 M 1694.17 404.27 1684.49 404.27 M 1684.49 414.26 1694.17 414.26 M 1694.17 424.24 1684.49 424.24 M 1698.61 534.08 1973.5 534.08 M 1973.5 544.06 1956.62 544.06 M 1965.7 554.05 1973.5 554.05 M 1973.5 564.03 1965.7 564.03 M 1965.7 574.02 1973.5 574.02 M 1973.89 584 1965.7 584 M 1965.7 593.99 1976.56 593.99 M 1979.24 603.97 1965.7 603.97 M 1965.7 613.96 1981.91 613.96 M 1984.6 623.94 1959.05 623.94 M 1946.02 633.93 1990.37 633.93 M 1996.13 643.91 1946.02 643.91 M 1946.02 653.9 2001.9 653.9 M 2008.91 663.88 1946.02 663.88 M 1946.02 673.87 2018.89 673.87 M 2028.88 683.85 1946.02 683.85 M 1946.02 693.84 2040.79 693.84 M 2058.09 703.82 1946.02 703.82 M 1946.02 713.81 2077.83 713.81 M 2109.78 793.69 1887.36 793.69 M 1877.38 783.71 2318.83 783.71 M 2318.83 773.72 1867.39 773.72 M 1857.41 763.74 1893.93 763.74 M 1886.01 753.75 1842.65 753.75 M 1846.02 743.77 1882.65 743.77 M 1882.65 733.78 1846.02 733.78 M 1846.02 723.79 1882.65 723.79 M 1882.65 713.81 1846.02 713.81 M 1846.02 703.82 1882.65 703.82 M 1882.65 693.84 1846.02 693.84 M 1846.02 683.85 1882.65 683.85 M 1882.65 673.87 1846.02 673.87 M 1846.02 663.88 1882.65 663.88 M 1882.65 653.9 1846.02 653.9 M 1846.02 643.91 1882.65 643.91 M 1882.65 633.93 1846.02 633.93 M 1859.25 623.94 1869.61 623.94 M 1782.65 633.93 1752.6 633.93 M 1742.62 623.94 1769.41 623.94 M 1762.96 613.96 1732.63 613.96 M 1722.65 603.97 1762.96 603.97 M 1762.96 593.99 1712.66 593.99 M 1702.68 584 1762.96 584 M 1762.96 574.02 1699.34 574.02 M 1699.34 564.03 1762.96 564.03 M 1762.96 554.05 1699.34 554.05 M 1699.34 544.06 1772.23 544.06 M 1856.43 544.06 1872.04 544.06 M 1909.33 484.15 1919.33 484.15 M 1919.33 474.17 1909.33 474.17 M 1909.33 464.18 1919.33 464.18 M 1919.33 454.2 1909.33 454.2 M 1968.7 454.2 1973.5 454.2 M 1973.5 464.18 1968.7 464.18 M 1968.7 474.17 1973.5 474.17 M 1973.5 484.15 1965.59 484.15 M 1782.65 643.91 1762.59 643.91 M 1772.57 653.9 1782.65 653.9 M 1782.56 663.88 1782.65 663.88 M 1740.52 689.19 1699.34 648.02 1699.34 718.65 1689.89 728.1 1640.12 728.1 1638.14 730.08 1638.14 752.56 1639.35 750.47 1642.88 746.94 1647.21 744.44 1652.05 743.14 1662.44 743.14 1662.44 781.84 1666.22 781.84 1666.22 743.14 1676.62 743.14 1681.45 744.44 1685.78 746.94 1689.31 750.47 1691.82 754.81 1693.11 759.64 1693.11 781.84 1666.22 781.84 1666.22 785.62 1693.11 785.62 1693.11 807.83 1691.82 812.66 1689.31 816.99 1685.78 820.53 1681.45 823.03 1676.62 824.32 1666.22 824.32 1666.22 785.62 1662.44 785.62 1662.44 824.32 1652.05 824.32 1650.06 823.79 1660.89 834.61 1757.65 834.61 1757.65 828.2 1766.98 818.87 1811.68 818.87 1821.02 828.2 1821.02 888.65 1811.68 897.98 1766.98 897.98 1757.65 888.65 1757.65 882.24 1722.8 882.24 1732.43 891.87 1746.04 905.48 1774.28 905.48 1783.61 914.82 1783.61 975.26 1776.28 982.6 1794.19 1000.52 1854.47 1000.52 1875.52 979.47 1875.52 849.19 1834.47 808.14 1784.47 808.14 1770.52 794.19 1740.52 764.19 1740.52 689.19 M 1740.52 693.84 1699.34 693.84 M 1699.34 703.82 1740.52 703.82 M 1740.52 713.81 1699.34 713.81 M 1694.2 723.79 1740.52 723.79 M 1740.52 733.78 1638.14 733.78 M 1638.14 743.77 1649.72 743.77 M 1662.44 743.77 1666.22 743.77 M 1666.22 753.75 1662.44 753.75 M 1662.44 763.74 1666.22 763.74 M 1666.22 773.72 1662.44 773.72 M 1666.22 783.71 1760.03 783.71 M 1770.02 793.69 1693.11 793.69 M 1693.11 803.68 1780 803.68 M 1762.2 823.65 1679.14 823.65 M 1666.22 823.65 1662.44 823.65 M 1662.44 813.66 1666.22 813.66 M 1666.22 803.68 1662.44 803.68 M 1662.44 793.69 1666.22 793.69 M 1691.24 813.66 1839.99 813.66 M 1849.97 823.65 1816.46 823.65 M 1821.02 833.63 1859.96 833.63 M 1869.94 843.62 1821.02 843.62 M 1821.02 853.6 1875.52 853.6 M 1875.52 863.59 1821.02 863.59 M 1821.02 873.57 1875.52 873.57 M 1875.52 883.56 1821.02 883.56 M 1816.12 893.54 1875.52 893.54 M 1875.52 903.53 1848.88 903.53 M 1849.79 903.77 1854.11 906.26 1857.63 909.79 1860.13 914.11 1861.42 918.92 1861.42 940.2 1831.58 940.2 1831.58 949.88 1861.42 949.88 1861.42 971.15 1860.13 975.97 1857.63 980.29 1854.11 983.81 1849.79 986.31 1844.97 987.6 1831.57 987.6 1831.57 949.88 1821.89 949.88 1821.89 940.2 1792.05 940.2 1792.05 918.92 1793.34 914.11 1795.83 909.79 1799.36 906.26 1803.67 903.77 1808.49 902.48 1821.89 902.48 1821.89 940.2 1831.57 940.2 1831.57 902.48 1844.97 902.48 1849.79 903.77 M 1859.78 913.51 1875.52 913.51 M 1875.52 923.5 1861.42 923.5 M 1861.42 933.48 1875.52 933.48 M 1875.52 943.47 1831.58 943.47 M 1821.89 943.47 1783.61 943.47 M 1783.61 953.45 1792.05 953.45 M 1792.05 949.88 1821.89 949.88 1821.89 987.6 1808.49 987.6 1803.67 986.31 1799.36 983.81 1795.83 980.29 1793.34 975.97 1792.05 971.15 1792.05 949.88 M 1792.05 963.44 1783.61 963.44 M 1783.61 973.42 1792.66 973.42 M 1798.95 983.41 1777.08 983.41 M 1787.07 993.39 1861.59 993.39 M 1854.51 983.41 1871.58 983.41 M 1875.52 973.42 1860.81 973.42 M 1861.42 963.44 1875.52 963.44 M 1875.52 953.45 1861.42 953.45 M 1831.57 953.45 1821.89 953.45 M 1821.89 963.44 1831.57 963.44 M 1831.57 973.42 1821.89 973.42 M 1821.89 983.41 1831.57 983.41 M 1831.57 933.48 1821.89 933.48 M 1821.89 923.5 1831.57 923.5 M 1831.57 913.51 1821.89 913.51 M 1821.89 903.53 1831.57 903.53 M 1804.59 903.53 1744.09 903.53 M 1734.11 893.54 1762.54 893.54 M 1757.65 883.56 1724.12 883.56 M 1706.7 933.48 1599.75 933.48 M 1609.74 943.47 1716.68 943.47 M 1720.24 953.45 1619.72 953.45 M 1629.71 963.44 1720.24 963.44 M 1720.24 973.42 1638.14 973.42 M 1638.14 983.41 1646.66 983.41 M 1682.01 983.41 1728.12 983.41 M 1728.12 993.39 1690.11 993.39 M 1690.11 1003.38 1729.7 1003.38 M 1739.69 1013.36 1690.11 1013.36 M 1690.11 1023.35 1749.67 1023.35 M 1759.66 1033.33 1690.11 1033.33 M 1690.11 1043.32 1769.64 1043.32 M 1684.76 1053.3 1973.5 1053.3 M 1973.5 1043.32 1879.02 1043.32 M 1889 1033.33 1973.5 1033.33 M 1973.5 1023.35 1898.99 1023.35 M 1908.97 1013.36 1973.5 1013.36 M 1973.5 1003.38 1918.96 1003.38 M 1923.14 993.39 1973.5 993.39 M 1973.5 983.41 1923.14 983.41 M 1923.14 973.42 1973.5 973.42 M 1973.5 963.44 1923.14 963.44 M 1923.14 953.45 1973.5 953.45 M 1973.5 943.47 1923.14 943.47 M 1923.14 933.48 1973.51 933.48 M 1976.18 923.5 1923.14 923.5 M 1923.14 913.51 1978.86 913.51 M 1981.53 903.53 1923.14 903.53 M 1923.14 893.54 1984.21 893.54 M 1989.55 883.56 1923.14 883.56 M 1923.14 873.57 1995.31 873.57 M 2001.08 863.59 1923.14 863.59 M 1923.14 853.6 2007.48 853.6 M 2017.47 843.62 1923.14 843.62 M 1923.14 833.63 2027.45 833.63 M 2038.33 823.65 1917.32 823.65 M 1907.33 813.66 2055.63 813.66 M 2072.92 803.68 1897.35 803.68 M 1934.74 763.74 2318.83 763.74 M 2318.83 753.75 1942.65 753.75 M 1946.02 743.77 2318.83 743.77 M 2318.83 733.78 1946.02 733.78 M 1946.02 723.79 2318.83 723.79 M 1793.68 913.51 1782.31 913.51 M 1783.61 923.5 1792.05 923.5 M 1792.05 933.48 1783.61 933.48 M 1757.65 833.63 1659.9 833.63 M 1693.11 773.72 1750.05 773.72 M 1740.52 763.74 1693.11 763.74 M 1691.21 753.75 1740.52 753.75 M 1740.52 743.77 1678.94 743.77 M 1699.34 683.85 1735.18 683.85 M 1725.2 673.87 1699.34 673.87 M 1699.34 663.88 1715.21 663.88 M 1705.23 653.9 1699.34 653.9 M 1484.61 623.94 1356.35 623.94 M 1346.37 613.96 1479.32 613.96 M 1336.63 693.84 1199.34 693.84 M 1199.34 703.82 1217.43 703.82 M 1210.39 713.81 1199.34 713.81 M 1194.2 723.79 1207.65 723.79 M 1207.95 733.78 1188.14 733.78 M 1188.14 743.77 1212.09 743.77 M 1221.76 753.75 1188.46 753.75 M 1190.11 763.74 1331.52 763.74 M 1341.51 773.72 1190.11 773.72 M 1190.11 783.71 1351.49 783.71 M 1361.48 793.69 1312.46 793.69 M 1311.32 792.54 1314.88 796.11 1317.4 800.47 1318.7 805.34 1318.7 828.25 1269.33 828.25 1269.33 838.25 1259.33 838.25 1259.33 877.78 1226.58 877.78 1221.71 876.47 1217.35 873.95 1213.78 870.39 1211.26 866.03 1209.96 861.16 1209.96 838.25 1259.33 838.25 1259.33 828.25 1209.96 828.25 1209.96 805.34 1211.26 800.47 1213.78 796.11 1217.35 792.54 1221.71 790.02 1226.58 788.72 1259.33 788.72 1259.33 828.25 1269.33 828.25 1269.33 788.72 1302.09 788.72 1306.95 790.02 1311.32 792.54 M 1318.26 803.68 1371.46 803.68 M 1381.45 813.66 1318.7 813.66 M 1318.7 823.65 1391.44 823.65 M 1401.42 833.63 1269.33 833.63 M 1269.33 838.25 1318.7 838.25 1318.7 861.16 1317.4 866.03 1314.88 870.39 1311.32 873.95 1306.95 876.47 1302.09 877.78 1269.33 877.78 1269.33 838.25 M 1269.33 843.62 1259.33 843.62 M 1259.33 853.6 1269.33 853.6 M 1269.33 863.59 1259.33 863.59 M 1259.33 873.57 1269.33 873.57 M 1296.2 893.54 1219.17 893.54 M 1220.03 903.53 1286.21 903.53 M 1276.23 913.51 1217.68 913.51 M 1210.98 923.5 1266.24 923.5 M 1261.05 928.69 1222.41 928.69 1212.96 938.14 1212.96 976.78 1201.58 988.16 1186.65 988.16 1180.74 982.25 1147.92 982.25 1139.33 990.84 1130.74 982.25 1097.92 982.25 1089.33 990.84 1080.74 982.25 1047.92 982.25 1039.33 990.84 1030.74 982.25 997.92 982.25 988.55 991.62 988.55 1048.06 997.92 1057.43 1030.74 1057.43 1039.33 1048.84 1047.92 1057.43 1080.74 1057.43 1089.33 1048.84 1097.92 1057.43 1130.74 1057.43 1139.33 1048.84 1147.92 1057.43 1180.74 1057.43 1186.65 1051.53 1221.01 1051.53 1232.65 1046.7 1267.61 1011.74 1306.25 1011.74 1315.7 1002.29 1315.7 963.66 1345.94 933.42 1360.63 933.42 1372.28 928.59 1381.19 919.68 1386.02 908.03 1386.02 895.43 1381.19 883.78 1372.28 874.87 1360.63 870.05 1339.12 870.05 1326.51 870.05 1314.87 874.87 1261.05 928.69 M 1217.62 933.48 864.38 933.48 M 864.88 932.99 861.32 936.55 856.95 939.07 852.09 940.37 819.33 940.37 819.33 900.85 809.33 900.85 809.33 940.37 776.58 940.37 771.71 939.07 767.35 936.55 763.78 932.99 761.26 928.63 759.96 923.76 759.96 900.85 809.33 900.85 809.33 890.85 759.96 890.85 759.96 867.93 761.26 863.07 763.78 858.7 767.35 855.14 771.71 852.62 776.58 851.32 809.33 851.32 809.33 890.85 819.33 890.85 819.33 900.85 868.7 900.85 868.7 923.76 867.4 928.63 864.88 932.99 M 868.7 923.5 1129.82 923.5 M 1119.84 913.51 868.7 913.51 M 868.7 903.53 1109.85 903.53 M 1099.87 893.54 819.33 893.54 M 819.33 890.85 868.7 890.85 868.7 867.93 867.4 863.07 864.88 858.7 861.32 855.14 856.95 852.62 852.09 851.32 819.33 851.32 819.33 890.85 M 819.33 883.56 809.33 883.56 M 809.33 893.54 712.96 893.54 M 715.63 903.53 759.96 903.53 M 759.96 913.51 718.31 913.51 M 720.98 923.5 759.96 923.5 M 764.28 933.48 723.66 933.48 M 723.66 943.47 934.77 943.47 M 922.8 953.45 723.66 953.45 M 723.66 963.44 918.47 963.44 M 917.65 973.42 723.66 973.42 M 723.66 983.41 917.65 983.41 M 917.65 993.39 858.36 993.39 M 856.25 991.29 865.7 1000.74 865.7 1023.29 926.19 1083.78 931.02 1095.43 931.02 1108.03 926.19 1119.68 917.28 1128.59 905.63 1133.42 893.03 1133.42 881.38 1128.59 827.13 1074.34 772.41 1074.34 762.96 1064.89 762.96 1000.74 772.41 991.29 856.25 991.29 M 865.7 1003.38 917.65 1003.38 M 917.65 1013.36 865.7 1013.36 M 865.76 1023.35 917.65 1023.35 M 917.65 1033.33 875.74 1033.33 M 885.73 1043.32 917.65 1043.32 M 917.65 1053.3 895.71 1053.3 M 905.7 1063.29 917.65 1063.29 M 915.68 1073.27 919.82 1073.27 M 925.67 1083.26 926.05 1083.26 M 930.11 1093.24 936.03 1093.24 M 931.02 1103.23 946.02 1103.23 M 956 1113.21 928.87 1113.21 M 922.67 1123.2 965.99 1123.2 M 982.47 1133.18 906.2 1133.18 M 892.47 1133.18 723.66 1133.18 M 723.66 1123.2 875.99 1123.2 M 866 1113.21 723.66 1113.21 M 723.66 1103.23 856.02 1103.23 M 846.03 1093.24 723.66 1093.24 M 723.66 1083.26 836.05 1083.26 M 771.34 1073.27 723.66 1073.27 M 723.66 1063.29 762.96 1063.29 M 762.96 1053.3 723.66 1053.3 M 723.66 1043.32 762.96 1043.32 M 762.96 1033.33 723.66 1033.33 M 723.66 1023.35 762.96 1023.35 M 762.96 1013.36 723.66 1013.36 M 723.66 1003.38 762.96 1003.38 M 770.31 993.39 723.66 993.39 M 809.33 933.48 819.33 933.48 M 819.33 923.5 809.33 923.5 M 809.33 913.51 819.33 913.51 M 819.33 903.53 809.33 903.53 M 809.33 873.57 819.33 873.57 M 819.33 863.59 809.33 863.59 M 809.33 853.6 819.33 853.6 M 858.65 853.6 1059.93 853.6 M 1069.91 863.59 867.54 863.59 M 868.7 873.57 1079.9 873.57 M 1089.88 883.56 868.7 883.56 M 770.01 853.6 689.68 853.6 M 696.09 863.59 761.13 863.59 M 759.96 873.57 701.85 873.57 M 707.62 883.56 759.96 883.56 M 679.7 843.62 1049.94 843.62 M 1040.52 833.63 669.71 833.63 M 658.83 823.65 999.93 823.65 M 1002.05 824.21 997.21 822.92 992.88 820.42 989.35 816.88 986.85 812.55 985.55 807.72 985.55 785.51 1012.44 785.51 1012.44 824.21 1002.05 824.21 M 1012.44 823.65 1016.22 823.65 M 1016.22 813.66 1012.44 813.66 M 1012.44 803.68 1016.22 803.68 M 1016.22 793.69 1012.44 793.69 M 1012.44 783.71 857.17 783.71 M 856.21 786.02 842.31 799.91 824.16 807.43 804.5 807.43 786.35 799.91 772.45 786.02 764.93 767.86 764.93 748.2 772.45 730.05 786.35 716.15 804.5 708.63 824.16 708.63 842.31 716.15 856.21 730.05 863.73 748.2 863.73 767.86 856.21 786.02 M 848.54 793.69 985.55 793.69 M 985.55 803.68 833.23 803.68 M 795.43 803.68 760.46 803.68 M 763.73 800.4 756.7 807.43 671.96 807.43 664.93 800.4 664.93 715.66 671.96 708.63 756.7 708.63 763.73 715.66 763.73 800.4 M 763.73 793.69 780.13 793.69 M 771.49 783.71 763.73 783.71 M 763.73 773.72 767.36 773.72 M 764.93 763.74 763.73 763.74 M 763.73 753.75 764.93 753.75 M 763.73 743.77 766.77 743.77 M 763.73 733.78 770.9 733.78 M 763.73 723.79 778.7 723.79 M 792 713.81 761.88 713.81 M 836.66 713.81 979.32 713.81 M 984.46 723.79 849.96 723.79 M 857.76 733.78 1057.95 733.78 M 1057.65 723.79 1057.23 723.79 M 1062.09 743.77 1029.35 743.77 M 1016.22 743.77 1012.44 743.77 M 1012.44 743.03 1012.44 781.73 985.55 781.73 985.55 759.53 986.85 754.7 989.35 750.36 992.88 746.83 997.21 744.33 1002.05 743.03 1012.44 743.03 M 1012.44 753.75 1016.22 753.75 M 1016.22 763.74 1012.44 763.74 M 1012.44 773.72 1016.22 773.72 M 985.55 773.72 861.3 773.72 M 863.73 763.74 985.55 763.74 M 987.39 753.75 863.73 753.75 M 861.89 743.77 999.31 743.77 M 987.49 813.66 641.54 813.66 M 624.24 803.68 668.2 803.68 M 664.93 793.69 587.38 793.69 M 664.93 783.71 378.33 783.71 M 378.33 773.72 664.93 773.72 M 664.93 763.74 378.33 763.74 M 378.33 753.75 664.93 753.75 M 664.93 743.77 378.33 743.77 M 378.33 733.78 664.93 733.78 M 664.93 723.79 378.33 723.79 M 619.34 713.81 666.78 713.81 M 639.08 703.82 896.94 703.82 M 887.12 693.84 656.37 693.84 M 668.29 683.85 882.99 683.85 M 882.65 673.87 678.27 673.87 M 688.26 663.88 767.98 663.88 M 760.81 653.9 695.27 653.9 M 701.03 643.91 759.96 643.91 M 759.96 633.93 706.8 633.93 M 809.33 633.93 819.33 633.93 M 819.33 643.91 809.33 643.91 M 809.33 653.9 819.33 653.9 M 819.33 663.88 809.33 663.88 M 860.68 663.88 885.36 663.88 M 892.35 653.9 867.85 653.9 M 868.7 643.91 979.32 643.91 M 980.2 633.93 868.7 633.93 M 819.33 603.97 809.33 603.97 M 809.33 593.99 819.33 593.99 M 819.33 584 809.33 584 M 1030.4 524.09 1060.15 524.09 M 1066.87 534.08 1041.49 534.08 M 1051.47 544.06 1076.85 544.06 M 1171.38 528.59 1171.38 528.59 M 1198.46 633.93 1276.72 633.93 M 1286.7 643.91 1199.34 643.91 M 1199.34 653.9 1296.69 653.9 M 1306.67 663.88 1199.34 663.88 M 1199.34 673.87 1316.66 673.87 M 1326.64 683.85 1199.34 683.85 M 1190.11 793.69 1216.2 793.69 M 1210.41 803.68 1190.11 803.68 M 1188.29 813.66 1209.96 813.66 M 1209.96 823.65 1097.32 823.65 M 1090.37 813.66 1088.29 813.66 M 1107.3 833.63 1259.33 833.63 M 1259.33 823.65 1269.33 823.65 M 1269.33 813.66 1259.33 813.66 M 1259.33 803.68 1269.33 803.68 M 1269.33 793.69 1259.33 793.69 M 1209.96 843.62 1117.29 843.62 M 1127.28 853.6 1209.96 853.6 M 1210.61 863.59 1137.26 863.59 M 1147.25 873.57 1177.09 873.57 M 1201.57 873.57 1216.96 873.57 M 1214.57 883.56 1306.18 883.56 M 1311.7 873.57 1318 873.57 M 1318.05 863.59 1431.38 863.59 M 1427.09 873.57 1369.14 873.57 M 1380.96 883.56 1414.09 883.56 M 1409.49 893.54 1385.23 893.54 M 1386.02 903.53 1408.63 903.53 M 1410.98 913.51 1383.75 913.51 M 1377.38 923.5 1417.68 923.5 M 1437.41 933.48 1345.87 933.48 M 1335.89 943.47 1447.39 943.47 M 1457.38 953.45 1325.9 953.45 M 1315.92 963.44 1467.36 963.44 M 1477.35 973.42 1315.7 973.42 M 1315.7 983.41 1496.66 983.41 M 1532.01 983.41 1546.66 983.41 M 1582.01 983.41 1582.33 983.41 M 1582.42 923.5 1547.38 923.5 M 1553.75 913.51 1572.44 913.51 M 1562.45 903.53 1556.02 903.53 M 1421.39 853.6 1318.7 853.6 M 1318.7 843.62 1411.41 843.62 M 1212.96 943.47 963.89 943.47 M 975.86 953.45 1212.96 953.45 M 1212.96 963.44 980.19 963.44 M 981.02 973.42 1212.96 973.42 M 1206.33 983.41 1181.9 983.41 M 1146.77 983.41 1131.9 983.41 M 1096.77 983.41 1081.9 983.41 M 1046.77 983.41 1031.9 983.41 M 996.77 983.41 981.02 983.41 M 981.02 993.39 988.55 993.39 M 988.55 1003.38 981.02 1003.38 M 981.02 1013.36 988.55 1013.36 M 988.55 1023.35 981.02 1023.35 M 981.02 1033.33 988.55 1033.33 M 988.55 1043.32 981.02 1043.32 M 985.71 1053.3 993.79 1053.3 M 995.7 1063.29 1257.96 1063.29 M 1267.95 1053.3 1184.87 1053.3 M 1143.79 1053.3 1134.87 1053.3 M 1093.79 1053.3 1084.87 1053.3 M 1043.79 1053.3 1034.87 1053.3 M 1236.04 1043.32 1277.94 1043.32 M 1287.92 1033.33 1246.02 1033.33 M 1256.01 1023.35 1297.91 1023.35 M 1307.89 1013.36 1265.99 1013.36 M 1314.62 1003.38 1317.88 1003.38 M 1315.7 993.39 1327.86 993.39 M 1357.57 1053.3 1493.9 1053.3 M 1534.76 1053.3 1543.9 1053.3 M 1584.76 1053.3 1593.9 1053.3 M 1634.76 1053.3 1643.9 1053.3 M 1347.58 1063.29 1973.5 1063.29 M 1973.5 1073.27 1337.6 1073.27 M 1327.61 1083.26 1973.5 1083.26 M 1973.5 1093.24 1317.63 1093.24 M 1307.64 1103.23 1973.5 1103.23 M 1973.5 1113.21 1297.66 1113.21 M 1287.67 1123.2 1973.5 1123.2 M 1973.5 1133.18 1271.2 1133.18 M 1040.52 823.65 1028.73 823.65 M 1138.29 813.66 1140.37 813.66" fill="none" stroke-width="10"/></g><g id="IK9_aendlzY0n-if4h5p_bottom_silkscreen"><path d="M 778.35 390.34 785.35 383.33 799.36 383.33 806.37 390.34 M 824.39 390.34 831.39 383.33 845.4 383.33 852.41 390.34 852.41 418.36 845.4 425.37 831.39 425.37 824.39 418.36 M 806.37 418.36 799.36 425.37 785.35 425.37 778.35 418.36 778.35 411.35 785.35 404.35 778.35 397.34 778.35 390.34 M 785.35 404.35 792.36 404.35 M 779.33 529.33 779.33 579.33 M 849.33 579.33 849.33 529.33 M 1028.35 572.74 1035.35 565.73 1049.36 565.73 1056.37 572.74 1028.35 600.76 1028.35 572.74 M 1056.37 572.74 1056.37 600.76 1049.36 607.77 1035.35 607.77 1028.35 600.76 M 1074.39 565.73 1102.41 565.73 M 1088.4 565.73 1088.4 607.77 1102.41 593.76 M 1120.42 600.76 1120.42 586.75 1127.43 579.74 1148.45 579.74 M 1148.45 565.73 1148.45 607.77 1127.43 607.77 1120.42 600.76 M 1134.44 579.74 1120.42 565.73 M 1114.33 641.73 1064.33 641.73 M 1064.33 711.73 1114.33 711.73 M 1189.33 824.23 989.33 824.23 989.33 979.23 1189.33 979.23 1189.33 929.23 M 1229.33 926.73 1229.33 876.73 M 1189.33 874.23 1189.33 824.23 M 1130.19 856.73 1130.21 857.48 1130.27 858.22 1130.37 858.96 1130.5 859.69 1130.68 860.42 1130.89 861.13 1131.14 861.84 1131.43 862.53 1131.76 863.2 1132.12 863.85 1132.51 864.49 1132.93 865.1 1133.39 865.69 1133.88 866.26 1134.4 866.79 1134.94 867.3 1135.51 867.79 1136.11 868.23 1136.73 868.65 1137.37 869.04 1138.03 869.39 1138.7 869.7 1139.4 869.98 1140.1 870.22 1140.82 870.43 1141.55 870.59 1142.28 870.72 1143.03 870.81 1143.77 870.86 1144.52 870.87 1145.26 870.84 1146.01 870.77 1146.74 870.66 1147.48 870.52 1148.2 870.33 1148.91 870.11 1149.61 869.85 1150.3 869.55 1150.96 869.22 1151.61 868.85 1152.24 868.45 1152.85 868.01 1153.43 867.55 1153.99 867.05 1154.52 866.53 1155.03 865.98 1155.5 865.4 1155.94 864.8 1156.35 864.17 1156.73 863.53 1157.07 862.87 1157.38 862.18 1157.65 861.49 1157.88 860.78 1158.07 860.06 1158.23 859.33 1158.35 858.59 1158.43 857.85 1158.47 857.1 1158.47 856.36 1158.43 855.61 1158.35 854.87 1158.23 854.13 1158.07 853.4 1157.88 852.68 1157.65 851.97 1157.38 851.28 1157.07 850.59 1156.73 849.93 1156.35 849.29 1155.94 848.66 1155.5 848.06 1155.03 847.48 1154.52 846.93 1153.99 846.41 1153.43 845.91 1152.85 845.45 1152.24 845.01 1151.61 844.61 1150.96 844.24 1150.3 843.91 1149.61 843.61 1148.91 843.35 1148.2 843.13 1147.48 842.94 1146.74 842.8 1146.01 842.69 1145.26 842.62 1144.52 842.59 1143.77 842.6 1143.03 842.65 1142.28 842.74 1141.55 842.87 1140.82 843.03 1140.1 843.24 1139.4 843.48 1138.7 843.76 1138.03 844.07 1137.37 844.42 1136.73 844.81 1136.11 845.23 1135.51 845.67 1134.94 846.16 1134.4 846.67 1133.88 847.2 1133.39 847.77 1132.93 848.36 1132.51 848.97 1132.12 849.61 1131.76 850.26 1131.43 850.93 1131.14 851.62 1130.89 852.33 1130.68 853.04 1130.5 853.77 1130.37 854.5 1130.27 855.24 1130.21 855.98 1130.19 856.73 M 1189.33 874.23 1188.29 874.25 1187.25 874.31 1186.21 874.41 1185.18 874.54 1184.16 874.72 1183.14 874.94 1182.13 875.19 1181.13 875.48 1180.14 875.81 1179.17 876.18 1178.21 876.58 1177.26 877.02 1176.34 877.49 1175.43 878 1174.54 878.54 1173.68 879.12 1172.83 879.73 1172.01 880.37 1171.21 881.04 1170.44 881.74 1169.7 882.47 1168.99 883.23 1168.3 884.01 1167.65 884.82 1167.02 885.65 1166.43 886.51 1165.87 887.38 1165.34 888.28 1164.85 889.2 1164.39 890.13 1163.97 891.09 1163.59 892.05 1163.24 893.03 1162.93 894.03 1162.66 895.03 1162.42 896.05 1162.23 897.07 1162.07 898.1 1161.95 899.13 1161.87 900.17 1161.83 901.21 1161.83 902.25 1161.87 903.29 1161.95 904.33 1162.07 905.36 1162.23 906.39 1162.42 907.41 1162.66 908.43 1162.93 909.43 1163.24 910.43 1163.59 911.41 1163.97 912.37 1164.39 913.33 1164.85 914.26 1165.34 915.18 1165.87 916.08 1166.43 916.95 1167.02 917.81 1167.65 918.64 1168.3 919.45 1168.99 920.23 1169.7 920.99 1170.44 921.72 1171.21 922.42 1172.01 923.09 1172.83 923.73 1173.68 924.34 1174.54 924.92 1175.43 925.46 1176.34 925.97 1177.26 926.44 1178.21 926.88 1179.17 927.28 1180.14 927.65 1181.13 927.98 1182.13 928.27 1183.14 928.52 1184.16 928.74 1185.18 928.92 1186.21 929.05 1187.25 929.15 1188.29 929.21 1189.33 929.23 M 1299.33 926.73 1299.33 876.73 M 1418.33 872.74 1418.33 886.75 1425.34 893.76 1460.37 893.76 M 1460.37 865.73 1425.34 865.73 1418.33 872.74 M 1418.33 911.77 1418.33 939.8 M 1418.33 925.78 1460.37 925.78 1446.35 911.77 M 1489.33 979.23 1489.33 824.23 1689.33 824.23 1689.33 874.23 1688.29 874.25 1687.25 874.31 1686.21 874.41 1685.18 874.54 1684.16 874.72 1683.14 874.94 1682.13 875.19 1681.13 875.48 1680.14 875.81 1679.17 876.18 1678.21 876.58 1677.26 877.02 1676.34 877.49 1675.43 878 1674.54 878.54 1673.68 879.12 1672.83 879.73 1672.01 880.37 1671.21 881.04 1670.44 881.74 1669.7 882.47 1668.99 883.23 1668.3 884.01 1667.65 884.82 1667.02 885.65 1666.43 886.51 1665.87 887.38 1665.34 888.28 1664.85 889.2 1664.39 890.13 1663.97 891.09 1663.59 892.05 1663.24 893.03 1662.93 894.03 1662.66 895.03 1662.42 896.05 1662.23 897.07 1662.07 898.1 1661.95 899.13 1661.87 900.17 1661.83 901.21 1661.83 902.25 1661.87 903.29 1661.95 904.33 1662.07 905.36 1662.23 906.39 1662.42 907.41 1662.66 908.43 1662.93 909.43 1663.24 910.43 1663.59 911.41 1663.97 912.37 1664.39 913.33 1664.85 914.26 1665.34 915.18 1665.87 916.08 1666.43 916.95 1667.02 917.81 1667.65 918.64 1668.3 919.45 1668.99 920.23 1669.7 920.99 1670.44 921.72 1671.21 922.42 1672.01 923.09 1672.83 923.73 1673.68 924.34 1674.54 924.92 1675.43 925.46 1676.34 925.97 1677.26 926.44 1678.21 926.88 1679.17 927.28 1680.14 927.65 1681.13 927.98 1682.13 928.27 1683.14 928.52 1684.16 928.74 1685.18 928.92 1686.21 929.05 1687.25 929.15 1688.29 929.21 1689.33 929.23 1689.33 979.23 1489.33 979.23 M 1300.33 1037.74 1293.32 1030.73 1279.31 1030.73 1272.31 1037.74 M 1254.29 1030.73 1226.27 1030.73 M 1240.28 1030.73 1240.28 1072.77 1254.29 1058.76 M 1272.31 1065.76 1279.31 1072.77 1293.32 1072.77 1300.33 1065.76 1300.33 1037.74 M 1630.19 856.73 1630.21 857.48 1630.27 858.22 1630.37 858.96 1630.5 859.69 1630.68 860.42 1630.89 861.13 1631.14 861.84 1631.43 862.53 1631.76 863.2 1632.12 863.85 1632.51 864.49 1632.93 865.1 1633.39 865.69 1633.88 866.26 1634.4 866.79 1634.94 867.3 1635.51 867.79 1636.11 868.23 1636.73 868.65 1637.37 869.04 1638.03 869.39 1638.7 869.7 1639.4 869.98 1640.1 870.22 1640.82 870.43 1641.55 870.59 1642.28 870.72 1643.03 870.81 1643.77 870.86 1644.52 870.87 1645.26 870.84 1646.01 870.77 1646.74 870.66 1647.48 870.52 1648.2 870.33 1648.91 870.11 1649.61 869.85 1650.3 869.55 1650.96 869.22 1651.61 868.85 1652.24 868.45 1652.85 868.01 1653.43 867.55 1653.99 867.05 1654.52 866.53 1655.03 865.98 1655.5 865.4 1655.94 864.8 1656.35 864.17 1656.73 863.53 1657.07 862.87 1657.38 862.18 1657.65 861.49 1657.88 860.78 1658.07 860.06 1658.23 859.33 1658.35 858.59 1658.43 857.85 1658.47 857.1 1658.47 856.36 1658.43 855.61 1658.35 854.87 1658.23 854.13 1658.07 853.4 1657.88 852.68 1657.65 851.97 1657.38 851.28 1657.07 850.59 1656.73 849.93 1656.35 849.29 1655.94 848.66 1655.5 848.06 1655.03 847.48 1654.52 846.93 1653.99 846.41 1653.43 845.91 1652.85 845.45 1652.24 845.01 1651.61 844.61 1650.96 844.24 1650.3 843.91 1649.61 843.61 1648.91 843.35 1648.2 843.13 1647.48 842.94 1646.74 842.8 1646.01 842.69 1645.26 842.62 1644.52 842.59 1643.77 842.6 1643.03 842.65 1642.28 842.74 1641.55 842.87 1640.82 843.03 1640.1 843.24 1639.4 843.48 1638.7 843.76 1638.03 844.07 1637.37 844.42 1636.73 844.81 1636.11 845.23 1635.51 845.67 1634.94 846.16 1634.4 846.67 1633.88 847.2 1633.39 847.77 1632.93 848.36 1632.51 848.97 1632.12 849.61 1631.76 850.26 1631.43 850.93 1631.14 851.62 1630.89 852.33 1630.68 853.04 1630.5 853.77 1630.37 854.5 1630.27 855.24 1630.21 855.98 1630.19 856.73 M 1733.33 875.73 1756.33 875.73 M 1733.33 875.73 1733.33 904.73 M 1784.33 927.73 1794.33 927.73 M 1845.33 904.73 1845.33 875.73 1822.33 875.73 M 1825.33 1005.73 1825.33 1047.77 1797.31 1005.73 1797.31 1047.77 M 1779.29 1033.76 1765.28 1047.77 1765.28 1005.73 M 1779.29 1005.73 1751.27 1005.73 M 1793.33 719.99 1793.33 691.97 1821.35 719.99 1828.36 719.99 1835.37 712.99 1835.37 698.97 1828.36 691.97 M 1828.36 673.95 1800.34 673.95 1793.33 666.95 1793.33 645.93 1835.37 645.93 1835.37 666.95 1828.36 673.95 M 1893.33 666.75 1893.33 645.73 1935.37 645.73 1935.37 666.75 1928.36 673.76 1900.34 673.76 1893.33 666.75 M 1893.33 691.77 1893.33 719.8 M 1893.33 705.78 1935.37 705.78 1921.35 691.77 M 1949.33 541.73 1949.33 491.73 M 1932.95 504.92 1895.71 504.92 1914.33 528.54 1932.95 504.92 M 1933.89 528.54 1914.33 528.54 1894.77 528.54 M 1879.33 541.73 1879.33 491.73 M 1849.33 491.93 1849.33 541.93 M 1833.89 528.74 1814.33 528.74 1795.71 505.12 1832.95 505.12 1814.33 528.74 1794.77 528.74 M 1779.33 541.93 1779.33 491.93 M 1614.33 541.73 1564.33 541.73 M 1455.33 560.93 1455.33 602.97 1434.31 602.97 1427.31 595.96 1427.31 581.95 1434.31 574.94 1455.33 574.94 M 1441.32 574.94 1427.31 560.93 M 1409.29 567.94 1402.29 560.93 1388.27 560.93 1381.27 567.94 1381.27 574.94 1388.27 581.95 1409.29 581.95 1409.29 567.94 M 1409.29 581.95 1395.28 595.96 1381.27 602.97 M 1409.29 655.93 1409.29 662.94 1381.27 690.96 1381.27 697.97 1409.29 697.97 M 1427.31 690.96 1427.31 676.95 1434.31 669.94 1455.33 669.94 M 1455.33 655.93 1455.33 697.97 1434.31 697.97 1427.31 690.96 M 1441.32 669.94 1427.31 655.93 M 1564.33 641.73 1614.33 641.73 M 1614.33 611.73 1564.33 611.73 M 1564.33 711.73 1614.33 711.73 M 960.37 865.73 925.34 865.73 918.33 872.74 918.33 886.75 925.34 893.76 960.37 893.76 M 953.36 911.77 960.37 918.78 960.37 932.79 953.36 939.8 946.35 939.8 918.33 911.77 918.33 939.8 M 849.33 939.33 849.33 989.33 M 779.33 989.33 779.33 939.33 M 776.27 1093.33 804.29 1093.33 776.27 1121.35 776.27 1128.36 783.27 1135.37 797.29 1135.37 804.29 1128.36 M 822.31 1128.36 829.31 1135.37 843.32 1135.37 850.33 1128.36 850.33 1100.34 843.32 1093.33 829.31 1093.33 822.31 1100.34" fill="none" stroke-width="8"/></g><g id="IK9_aendlzY0n-if4h5p_bottom_soldermask"><path d="M 1001.7 808.06 1026.96 808.06 1026.96 759.18 1001.7 759.18 1001.7 808.06 M 1001.7 769.48 1026.96 769.48 M 1026.96 779.78 1001.7 779.78 M 1001.7 790.08 1026.96 790.08 M 1026.96 800.38 1001.7 800.38 M 1051.7 808.06 1076.96 808.06 1076.96 759.18 1051.7 759.18 1051.7 808.06 M 1051.7 769.48 1076.96 769.48 M 1076.96 779.78 1051.7 779.78 M 1051.7 790.08 1076.96 790.08 M 1076.96 800.38 1051.7 800.38 M 1101.7 808.06 1126.96 808.06 1126.96 759.18 1101.7 759.18 1101.7 808.06 M 1101.7 769.48 1126.96 769.48 M 1126.96 779.78 1101.7 779.78 M 1101.7 790.08 1126.96 790.08 M 1126.96 800.38 1101.7 800.38 M 1151.7 808.06 1176.96 808.06 1176.96 759.18 1151.7 759.18 1151.7 808.06 M 1151.7 769.48 1176.96 769.48 M 1176.96 779.78 1151.7 779.78 M 1151.7 790.08 1176.96 790.08 M 1176.96 800.38 1151.7 800.38 M 1501.7 808.17 1526.96 808.17 1526.96 759.29 1501.7 759.29 1501.7 808.17 M 1501.7 769.59 1526.96 769.59 M 1526.96 779.89 1501.7 779.89 M 1501.7 790.19 1526.96 790.19 M 1526.96 800.49 1501.7 800.49 M 1551.7 808.17 1576.96 808.17 1576.96 759.29 1551.7 759.29 1551.7 808.17 M 1551.7 769.59 1576.96 769.59 M 1576.96 779.89 1551.7 779.89 M 1551.7 790.19 1576.96 790.19 M 1576.96 800.49 1551.7 800.49 M 1601.7 808.17 1626.96 808.17 1626.96 759.29 1601.7 759.29 1601.7 808.17 M 1601.7 769.59 1626.96 769.59 M 1626.96 779.89 1601.7 779.89 M 1601.7 790.19 1626.96 790.19 M 1626.96 800.49 1601.7 800.49 M 1651.7 808.17 1676.96 808.17 1676.96 759.29 1651.7 759.29 1651.7 808.17 M 1651.7 769.59 1676.96 769.59 M 1676.96 779.89 1651.7 779.89 M 1651.7 790.19 1676.96 790.19 M 1676.96 800.49 1651.7 800.49 M 1651.7 1044.17 1676.96 1044.17 1676.96 995.29 1651.7 995.29 1651.7 1044.17 M 1651.7 1005.59 1676.96 1005.59 M 1676.96 1015.89 1651.7 1015.89 M 1651.7 1026.19 1676.96 1026.19 M 1676.96 1036.49 1651.7 1036.49 M 1626.96 1044.17 1601.7 1044.17 M 1626.96 1044.17 1626.96 995.29 1601.7 995.29 1601.7 1044.17 M 1601.7 1005.59 1626.96 1005.59 M 1626.96 1015.89 1601.7 1015.89 M 1601.7 1026.19 1626.96 1026.19 M 1626.96 1036.49 1601.7 1036.49 M 1576.96 1044.17 1551.7 1044.17 M 1576.96 1044.17 1576.96 995.29 1551.7 995.29 1551.7 1044.17 M 1551.7 1005.59 1576.96 1005.59 M 1576.96 1015.89 1551.7 1015.89 M 1551.7 1026.19 1576.96 1026.19 M 1576.96 1036.49 1551.7 1036.49 M 1526.96 1044.17 1501.7 1044.17 M 1526.96 1044.17 1526.96 995.29 1501.7 995.29 1501.7 1044.17 M 1501.7 1005.59 1526.96 1005.59 M 1526.96 1015.89 1501.7 1015.89 M 1501.7 1026.19 1526.96 1026.19 M 1526.96 1036.49 1501.7 1036.49 M 1176.96 1044.28 1151.7 1044.28 M 1176.96 1044.28 1176.96 995.4 1151.7 995.4 1151.7 1044.28 M 1151.7 1005.7 1176.96 1005.7 M 1176.96 1016 1151.7 1016 M 1151.7 1026.3 1176.96 1026.3 M 1176.96 1036.6 1151.7 1036.6 M 1126.96 1044.28 1101.7 1044.28 M 1126.96 1044.28 1126.96 995.4 1101.7 995.4 1101.7 1044.28 M 1101.7 1005.7 1126.96 1005.7 M 1126.96 1016 1101.7 1016 M 1101.7 1026.3 1126.96 1026.3 M 1126.96 1036.6 1101.7 1036.6 M 1076.96 1044.28 1051.7 1044.28 M 1076.96 1044.28 1076.96 995.4 1051.7 995.4 1051.7 1044.28 M 1051.7 1005.7 1076.96 1005.7 M 1076.96 1016 1051.7 1016 M 1051.7 1026.3 1076.96 1026.3 M 1076.96 1036.6 1051.7 1036.6 M 1026.96 1044.28 1001.7 1044.28 M 1026.96 1044.28 1026.96 995.4 1001.7 995.4 1001.7 1044.28 M 1001.7 1005.7 1026.96 1005.7 M 1026.96 1016 1001.7 1016 M 1001.7 1026.3 1026.96 1026.3 M 1026.96 1036.6 1001.7 1036.6" fill="none" stroke-width="10.31"/><path d="M 1732.98 918.21 1770.88 918.21 M 1732.98 918.21 1732.98 971.87 1770.88 971.87 1770.88 918.21 M 1770.88 927.67 1732.98 927.67 M 1732.98 937.13 1770.88 937.13 M 1770.88 946.59 1732.98 946.59 M 1732.98 956.05 1770.88 956.05 M 1770.88 965.51 1732.98 965.51 M 1807.78 918.21 1845.68 918.21 M 1807.78 918.21 1807.78 971.87 1845.68 971.87 1845.68 918.21 M 1845.68 927.67 1807.78 927.67 M 1807.78 937.13 1845.68 937.13 M 1845.68 946.59 1807.78 946.59 M 1807.78 956.05 1845.68 956.05 M 1845.68 965.51 1807.78 965.51 M 1808.28 831.6 1770.38 831.6 1770.38 885.26 1808.28 885.26 1808.28 831.6 M 1808.28 841.06 1770.38 841.06 M 1770.38 850.52 1808.28 850.52 M 1808.28 859.98 1770.38 859.98 M 1770.38 869.44 1808.28 869.44 M 1808.28 878.9 1770.38 878.9" fill="none" stroke-width="9.47"/><path d="M 775.65 514.69 775.65 457.01 M 775.65 514.69 853.01 514.69 853.01 457.01 775.65 457.01 M 775.65 466.39 853.01 466.39 M 853.01 475.77 775.65 475.77 M 775.65 485.15 853.01 485.15 M 853.01 494.53 775.65 494.53 M 775.65 503.91 853.01 503.91 M 853.01 513.29 775.65 513.29 M 775.65 593.97 775.65 651.65 853.01 651.65 853.01 593.97 775.65 593.97 M 775.65 603.35 853.01 603.35 M 853.01 612.73 775.65 612.73 M 775.65 622.11 853.01 622.11 M 853.01 631.49 775.65 631.49 M 775.65 640.87 853.01 640.87 M 853.01 650.25 775.65 650.25 M 992.01 715.41 1049.69 715.41 1049.69 638.05 992.01 638.05 992.01 715.41 M 992.01 647.43 1049.69 647.43 M 1049.69 656.81 992.01 656.81 M 992.01 666.19 1049.69 666.19 M 1049.69 675.57 992.01 675.57 M 992.01 684.95 1049.69 684.95 M 1049.69 694.33 992.01 694.33 M 992.01 703.71 1049.69 703.71 M 1049.69 713.09 992.01 713.09 M 1128.97 715.41 1186.65 715.41 1186.65 638.05 1128.97 638.05 1128.97 715.41 M 1128.97 647.43 1186.65 647.43 M 1186.65 656.81 1128.97 656.81 M 1128.97 666.19 1186.65 666.19 M 1186.65 675.57 1128.97 675.57 M 1128.97 684.95 1186.65 684.95 M 1186.65 694.33 1128.97 694.33 M 1128.97 703.71 1186.65 703.71 M 1186.65 713.09 1128.97 713.09 M 1303.01 804.41 1303.01 862.09 M 1303.01 804.41 1225.65 804.41 1225.65 862.09 1303.01 862.09 M 1303.01 813.79 1225.65 813.79 M 1225.65 823.17 1303.01 823.17 M 1303.01 832.55 1225.65 832.55 M 1225.65 841.93 1303.01 841.93 M 1303.01 851.31 1225.65 851.31 M 1225.65 860.69 1303.01 860.69 M 1303.01 941.38 1303.01 999.06 M 1303.01 941.38 1225.65 941.38 1225.65 999.06 1303.01 999.06 M 1303.01 950.76 1225.65 950.76 M 1225.65 960.14 1303.01 960.14 M 1303.01 969.52 1225.65 969.52 M 1225.65 978.9 1303.01 978.9 M 1303.01 988.28 1225.65 988.28 M 1225.65 997.66 1303.01 997.66 M 853.01 1003.97 853.01 1061.65 M 853.01 1003.97 775.65 1003.97 775.65 1061.65 853.01 1061.65 M 853.01 1013.35 775.65 1013.35 M 775.65 1022.73 853.01 1022.73 M 853.01 1032.11 775.65 1032.11 M 775.65 1041.49 853.01 1041.49 M 853.01 1050.87 775.65 1050.87 M 775.65 1060.25 853.01 1060.25 M 853.01 924.69 853.01 867.01 775.65 867.01 775.65 924.69 853.01 924.69 M 853.01 876.39 775.65 876.39 M 775.65 885.77 853.01 885.77 M 853.01 895.15 775.65 895.15 M 775.65 904.53 853.01 904.53 M 853.01 913.91 775.65 913.91 M 775.65 923.29 853.01 923.29 M 1492.01 715.41 1549.69 715.41 1549.69 638.05 1492.01 638.05 1492.01 715.41 M 1492.01 647.43 1549.69 647.43 M 1549.69 656.81 1492.01 656.81 M 1492.01 666.19 1549.69 666.19 M 1549.69 675.57 1492.01 675.57 M 1492.01 684.95 1549.69 684.95 M 1549.69 694.33 1492.01 694.33 M 1492.01 703.71 1549.69 703.71 M 1549.69 713.09 1492.01 713.09 M 1628.97 715.41 1686.65 715.41 1686.65 638.05 1628.97 638.05 1628.97 715.41 M 1628.97 647.43 1686.65 647.43 M 1686.65 656.81 1628.97 656.81 M 1628.97 666.19 1686.65 666.19 M 1686.65 675.57 1628.97 675.57 M 1628.97 684.95 1686.65 684.95 M 1686.65 694.33 1628.97 694.33 M 1628.97 703.71 1686.65 703.71 M 1686.65 713.09 1628.97 713.09 M 1628.97 615.41 1686.65 615.41 1686.65 538.05 1628.97 538.05 1628.97 615.41 M 1628.97 547.43 1686.65 547.43 M 1686.65 556.81 1628.97 556.81 M 1628.97 566.19 1686.65 566.19 M 1686.65 575.57 1628.97 575.57 M 1628.97 584.95 1686.65 584.95 M 1686.65 594.33 1628.97 594.33 M 1628.97 603.71 1686.65 603.71 M 1686.65 613.09 1628.97 613.09 M 1549.69 615.41 1492.01 615.41 M 1549.69 615.41 1549.69 538.05 1492.01 538.05 1492.01 615.41 M 1492.01 547.43 1549.69 547.43 M 1549.69 556.81 1492.01 556.81 M 1492.01 566.19 1549.69 566.19 M 1549.69 575.57 1492.01 575.57 M 1492.01 584.95 1549.69 584.95 M 1549.69 594.33 1492.01 594.33 M 1492.01 603.71 1549.69 603.71 M 1549.69 613.09 1492.01 613.09 M 1853.01 614.25 1853.01 556.57 1775.65 556.57 1775.65 614.25 1853.01 614.25 M 1853.01 565.95 1775.65 565.95 M 1775.65 575.33 1853.01 575.33 M 1853.01 584.71 1775.65 584.71 M 1775.65 594.09 1853.01 594.09 M 1853.01 603.47 1775.65 603.47 M 1775.65 612.85 1853.01 612.85 M 1953.01 614.06 1953.01 556.38 1875.65 556.38 1875.65 614.06 1953.01 614.06 M 1953.01 565.76 1875.65 565.76 M 1875.65 575.14 1953.01 575.14 M 1953.01 584.52 1875.65 584.52 M 1875.65 593.9 1953.01 593.9 M 1953.01 603.28 1875.65 603.28 M 1875.65 612.66 1953.01 612.66 M 1953.01 477.09 1953.01 419.41 1875.65 419.41 1875.65 477.09 1953.01 477.09 M 1953.01 428.79 1875.65 428.79 M 1875.65 438.17 1953.01 438.17 M 1953.01 447.55 1875.65 447.55 M 1875.65 456.93 1953.01 456.93 M 1953.01 466.31 1875.65 466.31 M 1875.65 475.69 1953.01 475.69 M 1853.01 477.28 1853.01 419.6 1775.65 419.6 1775.65 477.28 1853.01 477.28 M 1853.01 428.98 1775.65 428.98 M 1775.65 438.36 1853.01 438.36 M 1853.01 447.74 1775.65 447.74 M 1775.65 457.12 1853.01 457.12 M 1853.01 466.5 1775.65 466.5 M 1775.65 475.88 1853.01 475.88" fill="none" stroke-width="9.39"/><use xlink:href="#zE4ph9Cxhq_5CW91w3hJ_pad-13" x="1689.33" y="451.73"/><use xlink:href="#zE4ph9Cxhq_5CW91w3hJ_pad-13" x="989.33" y="451.73"/><use xlink:href="#zE4ph9Cxhq_5CW91w3hJ_pad-13" x="714.33" y="758.03"/><use xlink:href="#zE4ph9Cxhq_5CW91w3hJ_pad-14" x="814.33" y="758.03"/><use xlink:href="#zE4ph9Cxhq_5CW91w3hJ_pad-14" x="1089.33" y="451.73"/><use xlink:href="#zE4ph9Cxhq_5CW91w3hJ_pad-14" x="1189.33" y="451.73"/><use xlink:href="#zE4ph9Cxhq_5CW91w3hJ_pad-14" x="1289.33" y="451.73"/><use xlink:href="#zE4ph9Cxhq_5CW91w3hJ_pad-14" x="1489.33" y="451.73"/><use xlink:href="#zE4ph9Cxhq_5CW91w3hJ_pad-14" x="1589.33" y="451.73"/><use xlink:href="#zE4ph9Cxhq_5CW91w3hJ_pad-15" x="2135.98" y="561.18"/><use xlink:href="#zE4ph9Cxhq_5CW91w3hJ_pad-15" x="2135.98" y="954.88"/><use xlink:href="#zE4ph9Cxhq_5CW91w3hJ_pad-15" x="561.18" y="954.88"/><use xlink:href="#zE4ph9Cxhq_5CW91w3hJ_pad-15" x="561.18" y="561.18"/></g><g id="IK9_aendlzY0n-if4h5p_bottom_drill1"><use xlink:href="#IvsMyoCRcfuWORcyOP4x_pad-1" x="914.3" y="676.7"/><use xlink:href="#IvsMyoCRcfuWORcyOP4x_pad-1" x="1089.3" y="726.7"/><use xlink:href="#IvsMyoCRcfuWORcyOP4x_pad-1" x="1239.3" y="726.7"/><use xlink:href="#IvsMyoCRcfuWORcyOP4x_pad-1" x="1189.3" y="901.7"/><use xlink:href="#IvsMyoCRcfuWORcyOP4x_pad-1" x="1354.3" y="901.7"/><use xlink:href="#IvsMyoCRcfuWORcyOP4x_pad-1" x="1439.3" y="901.7"/><use xlink:href="#IvsMyoCRcfuWORcyOP4x_pad-1" x="1524.3" y="901.7"/><use xlink:href="#IvsMyoCRcfuWORcyOP4x_pad-1" x="1719.3" y="801.7"/><use xlink:href="#IvsMyoCRcfuWORcyOP4x_pad-1" x="1719.3" y="751.7"/><use xlink:href="#IvsMyoCRcfuWORcyOP4x_pad-1" x="1814.3" y="739.3"/><use xlink:href="#IvsMyoCRcfuWORcyOP4x_pad-1" x="1914.3" y="739.3"/><use xlink:href="#IvsMyoCRcfuWORcyOP4x_pad-1" x="949.3" y="971.7"/><use xlink:href="#IvsMyoCRcfuWORcyOP4x_pad-1" x="899.3" y="1101.7"/><use xlink:href="#IvsMyoCRcfuWORcyOP4x_pad-2" x="989.3" y="451.7"/><use xlink:href="#IvsMyoCRcfuWORcyOP4x_pad-2" x="1089.3" y="451.7"/><use xlink:href="#IvsMyoCRcfuWORcyOP4x_pad-2" x="1189.3" y="451.7"/><use xlink:href="#IvsMyoCRcfuWORcyOP4x_pad-2" x="1289.3" y="451.7"/><use xlink:href="#IvsMyoCRcfuWORcyOP4x_pad-2" x="1489.3" y="451.7"/><use xlink:href="#IvsMyoCRcfuWORcyOP4x_pad-2" x="1589.3" y="451.7"/><use xlink:href="#IvsMyoCRcfuWORcyOP4x_pad-2" x="1689.3" y="451.7"/><use xlink:href="#IvsMyoCRcfuWORcyOP4x_pad-2" x="814.3" y="758"/><use xlink:href="#IvsMyoCRcfuWORcyOP4x_pad-2" x="714.3" y="758"/><use xlink:href="#IvsMyoCRcfuWORcyOP4x_pad-3" x="561.2" y="561.2"/><use xlink:href="#IvsMyoCRcfuWORcyOP4x_pad-3" x="561.2" y="954.9"/><use xlink:href="#IvsMyoCRcfuWORcyOP4x_pad-3" x="2136" y="954.9"/><use xlink:href="#IvsMyoCRcfuWORcyOP4x_pad-3" x="2136" y="561.2"/></g><clipPath id="IK9_aendlzY0n-if4h5p_bottom_outline"><path d="M 443.07 364.33 2254.09 364.33 2255.99 364.35 2257.89 364.42 2259.79 364.54 2261.69 364.7 2263.58 364.9 2265.47 365.16 2267.35 365.45 2269.22 365.8 2271.08 366.19 2272.93 366.62 2274.78 367.1 2276.61 367.62 2278.42 368.18 2280.22 368.79 2282.01 369.45 2283.78 370.14 2285.54 370.88 2287.27 371.66 2288.99 372.49 2290.68 373.35 2292.36 374.25 2294.01 375.2 2295.64 376.18 2297.24 377.21 2298.82 378.27 2300.37 379.37 2301.9 380.5 2303.4 381.68 2304.86 382.89 2306.3 384.13 2307.71 385.41 2309.09 386.72 2310.44 388.07 2311.75 389.45 2313.03 390.86 2314.27 392.3 2315.48 393.76 2316.66 395.26 2317.79 396.79 2318.89 398.34 2319.95 399.92 2320.98 401.52 2321.96 403.15 2322.91 404.8 2323.81 406.48 2324.67 408.17 2325.5 409.89 2326.28 411.62 2327.02 413.38 2327.71 415.15 2328.37 416.94 2328.98 418.74 2329.54 420.55 2330.06 422.38 2330.54 424.23 2330.97 426.08 2331.36 427.94 2331.71 429.81 2332 431.69 2332.26 433.58 2332.46 435.47 2332.62 437.37 2332.74 439.27 2332.81 441.17 2332.83 443.07 2332.83 1072.99 2332.81 1074.89 2332.74 1076.79 2332.62 1078.69 2332.46 1080.59 2332.26 1082.48 2332 1084.37 2331.71 1086.25 2331.36 1088.12 2330.97 1089.98 2330.54 1091.83 2330.06 1093.68 2329.54 1095.51 2328.98 1097.32 2328.37 1099.12 2327.71 1100.91 2327.02 1102.68 2326.28 1104.44 2325.5 1106.17 2324.67 1107.89 2323.81 1109.58 2322.91 1111.26 2321.96 1112.91 2320.98 1114.54 2319.95 1116.14 2318.89 1117.72 2317.79 1119.27 2316.66 1120.8 2315.48 1122.3 2314.27 1123.76 2313.03 1125.2 2311.75 1126.61 2310.44 1127.99 2309.09 1129.34 2307.71 1130.65 2306.3 1131.93 2304.86 1133.17 2303.4 1134.38 2301.9 1135.56 2300.37 1136.69 2298.82 1137.79 2297.24 1138.85 2295.64 1139.88 2294.01 1140.86 2292.36 1141.81 2290.68 1142.71 2288.99 1143.57 2287.27 1144.4 2285.54 1145.18 2283.78 1145.92 2282.01 1146.61 2280.22 1147.27 2278.42 1147.88 2276.61 1148.44 2274.78 1148.96 2272.93 1149.44 2271.08 1149.87 2269.22 1150.26 2267.35 1150.61 2265.47 1150.9 2263.58 1151.16 2261.69 1151.36 2259.79 1151.52 2257.89 1151.64 2255.99 1151.71 2254.09 1151.73 443.07 1151.73 441.17 1151.71 439.27 1151.64 437.37 1151.52 435.47 1151.36 433.58 1151.16 431.69 1150.9 429.81 1150.61 427.94 1150.26 426.08 1149.87 424.23 1149.44 422.38 1148.96 420.55 1148.44 418.74 1147.88 416.94 1147.27 415.15 1146.61 413.38 1145.92 411.62 1145.18 409.89 1144.4 408.17 1143.57 406.48 1142.71 404.8 1141.81 403.15 1140.86 401.52 1139.88 399.92 1138.85 398.34 1137.79 396.79 1136.69 395.26 1135.56 393.76 1134.38 392.3 1133.17 390.86 1131.93 389.45 1130.65 388.07 1129.34 386.72 1127.99 385.41 1126.61 384.13 1125.2 382.89 1123.76 381.68 1122.3 380.5 1120.8 379.37 1119.27 378.27 1117.72 377.21 1116.14 376.18 1114.54 375.2 1112.91 374.25 1111.26 373.35 1109.58 372.49 1107.89 371.66 1106.17 370.88 1104.44 370.14 1102.68 369.45 1100.91 368.79 1099.12 368.18 1097.32 367.62 1095.51 367.1 1093.68 366.62 1091.83 366.19 1089.98 365.8 1088.12 365.45 1086.25 365.16 1084.37 364.9 1082.48 364.7 1080.59 364.54 1078.69 364.42 1076.79 364.35 1074.89 364.33 1072.99 364.33 443.07 364.35 441.17 364.42 439.27 364.54 437.37 364.7 435.47 364.9 433.58 365.16 431.69 365.45 429.81 365.8 427.94 366.19 426.08 366.62 424.23 367.1 422.38 367.62 420.55 368.18 418.74 368.79 416.94 369.45 415.15 370.14 413.38 370.88 411.62 371.66 409.89 372.49 408.17 373.35 406.48 374.25 404.8 375.2 403.15 376.18 401.52 377.21 399.92 378.27 398.34 379.37 396.79 380.5 395.26 381.68 393.76 382.89 392.3 384.13 390.86 385.41 389.45 386.72 388.07 388.07 386.72 389.45 385.41 390.86 384.13 392.3 382.89 393.76 381.68 395.26 380.5 396.79 379.37 398.34 378.27 399.92 377.21 401.52 376.18 403.15 375.2 404.8 374.25 406.48 373.35 408.17 372.49 409.89 371.66 411.62 370.88 413.38 370.14 415.15 369.45 416.94 368.79 418.74 368.18 420.55 367.62 422.38 367.1 424.23 366.62 426.08 366.19 427.94 365.8 429.81 365.45 431.69 365.16 433.58 364.9 435.47 364.7 437.37 364.54 439.27 364.42 441.17 364.35 443.07 364.33 M 482.44 561.18 482.46 563.11 482.53 565.04 482.65 566.97 482.82 568.9 483.03 570.82 483.29 572.73 483.6 574.64 483.95 576.54 484.35 578.43 484.8 580.31 485.29 582.18 485.83 584.04 486.41 585.88 487.04 587.71 487.72 589.52 488.43 591.31 489.2 593.09 490 594.85 490.85 596.58 491.74 598.3 492.67 599.99 493.64 601.66 494.66 603.31 495.71 604.93 496.8 606.52 497.94 608.09 499.11 609.62 500.31 611.13 501.56 612.61 502.84 614.06 504.15 615.47 505.5 616.86 506.89 618.21 508.3 619.52 509.75 620.8 511.23 622.05 512.74 623.25 514.27 624.42 515.84 625.56 517.43 626.65 519.05 627.7 520.7 628.72 522.37 629.69 524.06 630.62 525.78 631.51 527.51 632.36 529.27 633.16 531.05 633.93 532.84 634.64 534.65 635.32 536.48 635.95 538.32 636.53 540.18 637.07 542.05 637.56 543.93 638.01 545.82 638.41 547.72 638.76 549.63 639.07 551.54 639.33 553.46 639.54 555.39 639.71 557.32 639.83 559.25 639.9 561.18 639.92 563.11 639.9 565.04 639.83 566.97 639.71 568.9 639.54 570.82 639.33 572.73 639.07 574.64 638.76 576.54 638.41 578.43 638.01 580.31 637.56 582.18 637.07 584.04 636.53 585.88 635.95 587.71 635.32 589.52 634.64 591.31 633.93 593.09 633.16 594.85 632.36 596.58 631.51 598.3 630.62 599.99 629.69 601.66 628.72 603.31 627.7 604.93 626.65 606.52 625.56 608.09 624.42 609.62 623.25 611.13 622.05 612.61 620.8 614.06 619.52 615.47 618.21 616.86 616.86 618.21 615.47 619.52 614.06 620.8 612.61 622.05 611.13 623.25 609.62 624.42 608.09 625.56 606.52 626.65 604.93 627.7 603.31 628.72 601.66 629.69 599.99 630.62 598.3 631.51 596.58 632.36 594.85 633.16 593.09 633.93 591.31 634.64 589.52 635.32 587.71 635.95 585.88 636.53 584.04 637.07 582.18 637.56 580.31 638.01 578.43 638.41 576.54 638.76 574.64 639.07 572.73 639.33 570.82 639.54 568.9 639.71 566.97 639.83 565.04 639.9 563.11 639.92 561.18 639.9 559.25 639.83 557.32 639.71 555.39 639.54 553.46 639.33 551.54 639.07 549.63 638.76 547.72 638.41 545.82 638.01 543.93 637.56 542.05 637.07 540.18 636.53 538.32 635.95 536.48 635.32 534.65 634.64 532.84 633.93 531.05 633.16 529.27 632.36 527.51 631.51 525.78 630.62 524.06 629.69 522.37 628.72 520.7 627.7 519.05 626.65 517.43 625.56 515.84 624.42 514.27 623.25 512.74 622.05 511.23 620.8 509.75 619.52 508.3 618.21 506.89 616.86 505.5 615.47 504.15 614.06 502.84 612.61 501.56 611.13 500.31 609.62 499.11 608.09 497.94 606.52 496.8 604.93 495.71 603.31 494.66 601.66 493.64 599.99 492.67 598.3 491.74 596.58 490.85 594.85 490 593.09 489.2 591.31 488.43 589.52 487.72 587.71 487.04 585.88 486.41 584.04 485.83 582.18 485.29 580.31 484.8 578.43 484.35 576.54 483.95 574.64 483.6 572.73 483.29 570.82 483.03 568.9 482.82 566.97 482.65 565.04 482.53 563.11 482.46 561.18 482.44 559.25 482.46 557.32 482.53 555.39 482.65 553.46 482.82 551.54 483.03 549.63 483.29 547.72 483.6 545.82 483.95 543.93 484.35 542.05 484.8 540.18 485.29 538.32 485.83 536.48 486.41 534.65 487.04 532.84 487.72 531.05 488.43 529.27 489.2 527.51 490 525.78 490.85 524.06 491.74 522.37 492.67 520.7 493.64 519.05 494.66 517.43 495.71 515.84 496.8 514.27 497.94 512.74 499.11 511.23 500.31 509.75 501.56 508.3 502.84 506.89 504.15 505.5 505.5 504.15 506.89 502.84 508.3 501.56 509.75 500.31 511.23 499.11 512.74 497.94 514.27 496.8 515.84 495.71 517.43 494.66 519.05 493.64 520.7 492.67 522.37 491.74 524.06 490.85 525.78 490 527.51 489.2 529.27 488.43 531.05 487.72 532.84 487.04 534.65 486.41 536.48 485.83 538.32 485.29 540.18 484.8 542.05 484.35 543.93 483.95 545.82 483.6 547.72 483.29 549.63 483.03 551.54 482.82 553.46 482.65 555.39 482.53 557.32 482.46 559.25 482.44 561.18 M 482.44 954.88 482.46 956.81 482.53 958.74 482.65 960.67 482.82 962.6 483.03 964.52 483.29 966.43 483.6 968.34 483.95 970.24 484.35 972.13 484.8 974.01 485.29 975.88 485.83 977.74 486.41 979.58 487.04 981.41 487.72 983.22 488.43 985.01 489.2 986.79 490 988.55 490.85 990.28 491.74 992 492.67 993.69 493.64 995.36 494.66 997.01 495.71 998.63 496.8 1000.22 497.94 1001.79 499.11 1003.32 500.31 1004.83 501.56 1006.31 502.84 1007.76 504.15 1009.17 505.5 1010.56 506.89 1011.91 508.3 1013.22 509.75 1014.5 511.23 1015.75 512.74 1016.95 514.27 1018.12 515.84 1019.26 517.43 1020.35 519.05 1021.4 520.7 1022.42 522.37 1023.39 524.06 1024.32 525.78 1025.21 527.51 1026.06 529.27 1026.86 531.05 1027.63 532.84 1028.34 534.65 1029.02 536.48 1029.65 538.32 1030.23 540.18 1030.77 542.05 1031.26 543.93 1031.71 545.82 1032.11 547.72 1032.46 549.63 1032.77 551.54 1033.03 553.46 1033.24 555.39 1033.41 557.32 1033.53 559.25 1033.6 561.18 1033.62 563.11 1033.6 565.04 1033.53 566.97 1033.41 568.9 1033.24 570.82 1033.03 572.73 1032.77 574.64 1032.46 576.54 1032.11 578.43 1031.71 580.31 1031.26 582.18 1030.77 584.04 1030.23 585.88 1029.65 587.71 1029.02 589.52 1028.34 591.31 1027.63 593.09 1026.86 594.85 1026.06 596.58 1025.21 598.3 1024.32 599.99 1023.39 601.66 1022.42 603.31 1021.4 604.93 1020.35 606.52 1019.26 608.09 1018.12 609.62 1016.95 611.13 1015.75 612.61 1014.5 614.06 1013.22 615.47 1011.91 616.86 1010.56 618.21 1009.17 619.52 1007.76 620.8 1006.31 622.05 1004.83 623.25 1003.32 624.42 1001.79 625.56 1000.22 626.65 998.63 627.7 997.01 628.72 995.36 629.69 993.69 630.62 992 631.51 990.28 632.36 988.55 633.16 986.79 633.93 985.01 634.64 983.22 635.32 981.41 635.95 979.58 636.53 977.74 637.07 975.88 637.56 974.01 638.01 972.13 638.41 970.24 638.76 968.34 639.07 966.43 639.33 964.52 639.54 962.6 639.71 960.67 639.83 958.74 639.9 956.81 639.92 954.88 639.9 952.95 639.83 951.02 639.71 949.09 639.54 947.16 639.33 945.24 639.07 943.33 638.76 941.42 638.41 939.52 638.01 937.63 637.56 935.75 637.07 933.88 636.53 932.02 635.95 930.18 635.32 928.35 634.64 926.54 633.93 924.75 633.16 922.97 632.36 921.21 631.51 919.48 630.62 917.76 629.69 916.07 628.72 914.4 627.7 912.75 626.65 911.13 625.56 909.54 624.42 907.97 623.25 906.44 622.05 904.93 620.8 903.45 619.52 902 618.21 900.59 616.86 899.2 615.47 897.85 614.06 896.54 612.61 895.26 611.13 894.01 609.62 892.81 608.09 891.64 606.52 890.5 604.93 889.41 603.31 888.36 601.66 887.34 599.99 886.37 598.3 885.44 596.58 884.55 594.85 883.7 593.09 882.9 591.31 882.13 589.52 881.42 587.71 880.74 585.88 880.11 584.04 879.53 582.18 878.99 580.31 878.5 578.43 878.05 576.54 877.65 574.64 877.3 572.73 876.99 570.82 876.73 568.9 876.52 566.97 876.35 565.04 876.23 563.11 876.16 561.18 876.14 559.25 876.16 557.32 876.23 555.39 876.35 553.46 876.52 551.54 876.73 549.63 876.99 547.72 877.3 545.82 877.65 543.93 878.05 542.05 878.5 540.18 878.99 538.32 879.53 536.48 880.11 534.65 880.74 532.84 881.42 531.05 882.13 529.27 882.9 527.51 883.7 525.78 884.55 524.06 885.44 522.37 886.37 520.7 887.34 519.05 888.36 517.43 889.41 515.84 890.5 514.27 891.64 512.74 892.81 511.23 894.01 509.75 895.26 508.3 896.54 506.89 897.85 505.5 899.2 504.15 900.59 502.84 902 501.56 903.45 500.31 904.93 499.11 906.44 497.94 907.97 496.8 909.54 495.71 911.13 494.66 912.75 493.64 914.4 492.67 916.07 491.74 917.76 490.85 919.48 490 921.21 489.2 922.97 488.43 924.75 487.72 926.54 487.04 928.35 486.41 930.18 485.83 932.02 485.29 933.88 484.8 935.75 484.35 937.63 483.95 939.52 483.6 941.42 483.29 943.33 483.03 945.24 482.82 947.16 482.65 949.09 482.53 951.02 482.46 952.95 482.44 954.88 M 2057.24 954.88 2057.26 956.81 2057.33 958.74 2057.45 960.67 2057.62 962.6 2057.83 964.52 2058.09 966.43 2058.4 968.34 2058.75 970.24 2059.15 972.13 2059.6 974.01 2060.09 975.88 2060.63 977.74 2061.21 979.58 2061.84 981.41 2062.52 983.22 2063.23 985.01 2064 986.79 2064.8 988.55 2065.65 990.28 2066.54 992 2067.47 993.69 2068.44 995.36 2069.46 997.01 2070.51 998.63 2071.6 1000.22 2072.74 1001.79 2073.91 1003.32 2075.11 1004.83 2076.36 1006.31 2077.64 1007.76 2078.95 1009.17 2080.3 1010.56 2081.69 1011.91 2083.1 1013.22 2084.55 1014.5 2086.03 1015.75 2087.54 1016.95 2089.07 1018.12 2090.64 1019.26 2092.23 1020.35 2093.85 1021.4 2095.5 1022.42 2097.17 1023.39 2098.86 1024.32 2100.58 1025.21 2102.31 1026.06 2104.07 1026.86 2105.85 1027.63 2107.64 1028.34 2109.45 1029.02 2111.28 1029.65 2113.12 1030.23 2114.98 1030.77 2116.85 1031.26 2118.73 1031.71 2120.62 1032.11 2122.52 1032.46 2124.43 1032.77 2126.34 1033.03 2128.26 1033.24 2130.19 1033.41 2132.12 1033.53 2134.05 1033.6 2135.98 1033.62 2137.91 1033.6 2139.84 1033.53 2141.77 1033.41 2143.7 1033.24 2145.62 1033.03 2147.53 1032.77 2149.44 1032.46 2151.34 1032.11 2153.23 1031.71 2155.11 1031.26 2156.98 1030.77 2158.84 1030.23 2160.68 1029.65 2162.51 1029.02 2164.32 1028.34 2166.11 1027.63 2167.89 1026.86 2169.65 1026.06 2171.38 1025.21 2173.1 1024.32 2174.79 1023.39 2176.46 1022.42 2178.11 1021.4 2179.73 1020.35 2181.32 1019.26 2182.89 1018.12 2184.42 1016.95 2185.93 1015.75 2187.41 1014.5 2188.86 1013.22 2190.27 1011.91 2191.66 1010.56 2193.01 1009.17 2194.32 1007.76 2195.6 1006.31 2196.85 1004.83 2198.05 1003.32 2199.22 1001.79 2200.36 1000.22 2201.45 998.63 2202.5 997.01 2203.52 995.36 2204.49 993.69 2205.42 992 2206.31 990.28 2207.16 988.55 2207.96 986.79 2208.73 985.01 2209.44 983.22 2210.12 981.41 2210.75 979.58 2211.33 977.74 2211.87 975.88 2212.36 974.01 2212.81 972.13 2213.21 970.24 2213.56 968.34 2213.87 966.43 2214.13 964.52 2214.34 962.6 2214.51 960.67 2214.63 958.74 2214.7 956.81 2214.72 954.88 2214.7 952.95 2214.63 951.02 2214.51 949.09 2214.34 947.16 2214.13 945.24 2213.87 943.33 2213.56 941.42 2213.21 939.52 2212.81 937.63 2212.36 935.75 2211.87 933.88 2211.33 932.02 2210.75 930.18 2210.12 928.35 2209.44 926.54 2208.73 924.75 2207.96 922.97 2207.16 921.21 2206.31 919.48 2205.42 917.76 2204.49 916.07 2203.52 914.4 2202.5 912.75 2201.45 911.13 2200.36 909.54 2199.22 907.97 2198.05 906.44 2196.85 904.93 2195.6 903.45 2194.32 902 2193.01 900.59 2191.66 899.2 2190.27 897.85 2188.86 896.54 2187.41 895.26 2185.93 894.01 2184.42 892.81 2182.89 891.64 2181.32 890.5 2179.73 889.41 2178.11 888.36 2176.46 887.34 2174.79 886.37 2173.1 885.44 2171.38 884.55 2169.65 883.7 2167.89 882.9 2166.11 882.13 2164.32 881.42 2162.51 880.74 2160.68 880.11 2158.84 879.53 2156.98 878.99 2155.11 878.5 2153.23 878.05 2151.34 877.65 2149.44 877.3 2147.53 876.99 2145.62 876.73 2143.7 876.52 2141.77 876.35 2139.84 876.23 2137.91 876.16 2135.98 876.14 2134.05 876.16 2132.12 876.23 2130.19 876.35 2128.26 876.52 2126.34 876.73 2124.43 876.99 2122.52 877.3 2120.62 877.65 2118.73 878.05 2116.85 878.5 2114.98 878.99 2113.12 879.53 2111.28 880.11 2109.45 880.74 2107.64 881.42 2105.85 882.13 2104.07 882.9 2102.31 883.7 2100.58 884.55 2098.86 885.44 2097.17 886.37 2095.5 887.34 2093.85 888.36 2092.23 889.41 2090.64 890.5 2089.07 891.64 2087.54 892.81 2086.03 894.01 2084.55 895.26 2083.1 896.54 2081.69 897.85 2080.3 899.2 2078.95 900.59 2077.64 902 2076.36 903.45 2075.11 904.93 2073.91 906.44 2072.74 907.97 2071.6 909.54 2070.51 911.13 2069.46 912.75 2068.44 914.4 2067.47 916.07 2066.54 917.76 2065.65 919.48 2064.8 921.21 2064 922.97 2063.23 924.75 2062.52 926.54 2061.84 928.35 2061.21 930.18 2060.63 932.02 2060.09 933.88 2059.6 935.75 2059.15 937.63 2058.75 939.52 2058.4 941.42 2058.09 943.33 2057.83 945.24 2057.62 947.16 2057.45 949.09 2057.33 951.02 2057.26 952.95 2057.24 954.88 M 2057.24 561.18 2057.26 563.11 2057.33 565.04 2057.45 566.97 2057.62 568.9 2057.83 570.82 2058.09 572.73 2058.4 574.64 2058.75 576.54 2059.15 578.43 2059.6 580.31 2060.09 582.18 2060.63 584.04 2061.21 585.88 2061.84 587.71 2062.52 589.52 2063.23 591.31 2064 593.09 2064.8 594.85 2065.65 596.58 2066.54 598.3 2067.47 599.99 2068.44 601.66 2069.46 603.31 2070.51 604.93 2071.6 606.52 2072.74 608.09 2073.91 609.62 2075.11 611.13 2076.36 612.61 2077.64 614.06 2078.95 615.47 2080.3 616.86 2081.69 618.21 2083.1 619.52 2084.55 620.8 2086.03 622.05 2087.54 623.25 2089.07 624.42 2090.64 625.56 2092.23 626.65 2093.85 627.7 2095.5 628.72 2097.17 629.69 2098.86 630.62 2100.58 631.51 2102.31 632.36 2104.07 633.16 2105.85 633.93 2107.64 634.64 2109.45 635.32 2111.28 635.95 2113.12 636.53 2114.98 637.07 2116.85 637.56 2118.73 638.01 2120.62 638.41 2122.52 638.76 2124.43 639.07 2126.34 639.33 2128.26 639.54 2130.19 639.71 2132.12 639.83 2134.05 639.9 2135.98 639.92 2137.91 639.9 2139.84 639.83 2141.77 639.71 2143.7 639.54 2145.62 639.33 2147.53 639.07 2149.44 638.76 2151.34 638.41 2153.23 638.01 2155.11 637.56 2156.98 637.07 2158.84 636.53 2160.68 635.95 2162.51 635.32 2164.32 634.64 2166.11 633.93 2167.89 633.16 2169.65 632.36 2171.38 631.51 2173.1 630.62 2174.79 629.69 2176.46 628.72 2178.11 627.7 2179.73 626.65 2181.32 625.56 2182.89 624.42 2184.42 623.25 2185.93 622.05 2187.41 620.8 2188.86 619.52 2190.27 618.21 2191.66 616.86 2193.01 615.47 2194.32 614.06 2195.6 612.61 2196.85 611.13 2198.05 609.62 2199.22 608.09 2200.36 606.52 2201.45 604.93 2202.5 603.31 2203.52 601.66 2204.49 599.99 2205.42 598.3 2206.31 596.58 2207.16 594.85 2207.96 593.09 2208.73 591.31 2209.44 589.52 2210.12 587.71 2210.75 585.88 2211.33 584.04 2211.87 582.18 2212.36 580.31 2212.81 578.43 2213.21 576.54 2213.56 574.64 2213.87 572.73 2214.13 570.82 2214.34 568.9 2214.51 566.97 2214.63 565.04 2214.7 563.11 2214.72 561.18 2214.7 559.25 2214.63 557.32 2214.51 555.39 2214.34 553.46 2214.13 551.54 2213.87 549.63 2213.56 547.72 2213.21 545.82 2212.81 543.93 2212.36 542.05 2211.87 540.18 2211.33 538.32 2210.75 536.48 2210.12 534.65 2209.44 532.84 2208.73 531.05 2207.96 529.27 2207.16 527.51 2206.31 525.78 2205.42 524.06 2204.49 522.37 2203.52 520.7 2202.5 519.05 2201.45 517.43 2200.36 515.84 2199.22 514.27 2198.05 512.74 2196.85 511.23 2195.6 509.75 2194.32 508.3 2193.01 506.89 2191.66 505.5 2190.27 504.15 2188.86 502.84 2187.41 501.56 2185.93 500.31 2184.42 499.11 2182.89 497.94 2181.32 496.8 2179.73 495.71 2178.11 494.66 2176.46 493.64 2174.79 492.67 2173.1 491.74 2171.38 490.85 2169.65 490 2167.89 489.2 2166.11 488.43 2164.32 487.72 2162.51 487.04 2160.68 486.41 2158.84 485.83 2156.98 485.29 2155.11 484.8 2153.23 484.35 2151.34 483.95 2149.44 483.6 2147.53 483.29 2145.62 483.03 2143.7 482.82 2141.77 482.65 2139.84 482.53 2137.91 482.46 2135.98 482.44 2134.05 482.46 2132.12 482.53 2130.19 482.65 2128.26 482.82 2126.34 483.03 2124.43 483.29 2122.52 483.6 2120.62 483.95 2118.73 484.35 2116.85 484.8 2114.98 485.29 2113.12 485.83 2111.28 486.41 2109.45 487.04 2107.64 487.72 2105.85 488.43 2104.07 489.2 2102.31 490 2100.58 490.85 2098.86 491.74 2097.17 492.67 2095.5 493.64 2093.85 494.66 2092.23 495.71 2090.64 496.8 2089.07 497.94 2087.54 499.11 2086.03 500.31 2084.55 501.56 2083.1 502.84 2081.69 504.15 2080.3 505.5 2078.95 506.89 2077.64 508.3 2076.36 509.75 2075.11 511.23 2073.91 512.74 2072.74 514.27 2071.6 515.84 2070.51 517.43 2069.46 519.05 2068.44 520.7 2067.47 522.37 2066.54 524.06 2065.65 525.78 2064.8 527.51 2064 529.27 2063.23 531.05 2062.52 532.84 2061.84 534.65 2061.21 536.48 2060.63 538.32 2060.09 540.18 2059.6 542.05 2059.15 543.93 2058.75 545.82 2058.4 547.72 2058.09 549.63 2057.83 551.54 2057.62 553.46 2057.45 555.39 2057.33 557.32 2057.26 559.25 2057.24 561.18" fill="none" stroke-width="0"/></clipPath><mask id="IK9_aendlzY0n-if4h5p_bottom_mech-mask"><g fill="#000" stroke="#000"><rect x="364.33" y="364.33" width="1968.5" height="787.4" fill="#fff"/><use xlink:href="#IK9_aendlzY0n-if4h5p_bottom_drill1"/></g></mask><mask id="IK9_aendlzY0n-if4h5p_bottom_cf-mask"><g fill="#fff" stroke="#fff"><use xlink:href="#IK9_aendlzY0n-if4h5p_bottom_soldermask"/></g></mask><mask id="IK9_aendlzY0n-if4h5p_bottom_sm-mask"><g fill="#000" stroke="#000"><rect x="364.33" y="364.33" width="1968.5" height="787.4" fill="#fff"/><use xlink:href="#IK9_aendlzY0n-if4h5p_bottom_soldermask"/></g></mask></defs><g transform="translate(0,1516.06) scale(1,-1)"><g mask="url(#IK9_aendlzY0n-if4h5p_bottom_mech-mask)" clip-path="url(#IK9_aendlzY0n-if4h5p_bottom_outline)" transform="translate(2697.16,0) scale(-1,1)"><rect x="364.33" y="364.33" width="1968.5" height="787.4" fill="currentColor" class="IK9_aendlzY0n-if4h5p_fr4"/><use xlink:href="#IK9_aendlzY0n-if4h5p_bottom_copper" fill="currentColor" stroke="currentColor" class="IK9_aendlzY0n-if4h5p_cu"/><use xlink:href="#IK9_aendlzY0n-if4h5p_bottom_copper" fill="currentColor" stroke="currentColor" class="IK9_aendlzY0n-if4h5p_cf" mask="url(#IK9_aendlzY0n-if4h5p_bottom_cf-mask)"/><g mask="url(#IK9_aendlzY0n-if4h5p_bottom_sm-mask)"><rect x="364.33" y="364.33" width="1968.5" height="787.4" fill="currentColor" class="IK9_aendlzY0n-if4h5p_sm"/><use xlink:href="#IK9_aendlzY0n-if4h5p_bottom_silkscreen" fill="currentColor" stroke="currentColor" class="IK9_aendlzY0n-if4h5p_ss"/></g></g></g></svg>