<svg version="1.1" xmlns="http://www.w3.org/2000/svg" xmlns:xlink="http://www.w3.org/1999/xlink" stroke-linecap="round" stroke-linejoin="round" stroke-width="0" fill-rule="evenodd" clip-rule="evenodd" id="IK9_aendlzY0n-if4h5p_top" viewBox="364.33 364.33 1968.5 787.4000000000001" width="1.9685in" height="0.7874000000000001in" class="w-100 h-100"><defs><style>.IK9_aendlzY0n-if4h5p_fr4 {color: #666666;}
.IK9_aendlzY0n-if4h5p_cu {color: #cccccc;}
.IK9_aendlzY0n-if4h5p_cf {color: #cc9933;}
.IK9_aendlzY0n-if4h5p_sm {color: #004200; opacity: 0.75;}
.IK9_aendlzY0n-if4h5p_ss {color: #ffffff;}
.IK9_aendlzY0n-if4h5p_sp {color: #999999;}
.IK9_aendlzY0n-if4h5p_out {color: #000000;}</style><rect x="-41.4" y="-41.4" width="82.8" height="82.8" id="eY_1H1DUSGcfpubT5y1A_pad-11"/><circle cx="0" cy="0" r="41.4" id="eY_1H1DUSGcfpubT5y1A_pad-12"/><circle cx="0" cy="0" r="82.74" id="eY_1H1DUSGcfpubT5y1A_pad-13"/><rect x="-37.4" y="-37.4" width="74.8" height="74.8" id="h_-nvTOtSetr_FoToHOu_pad-11"/><circle cx="0" cy="0" r="37.4" id="h_-nvTOtSetr_FoToHOu_pad-12"/><circle cx="0" cy="0" r="18.7" id="h_-nvTOtSetr_FoToHOu_pad-13"/><circle cx="0" cy="0" r="9.85" id="IvsMyoCRcfuWORcyOP4x_pad-1"/><circle cx="0" cy="0" r="19.7" id="IvsMyoCRcfuWORcyOP4x_pad-2"/><circle cx="0" cy="0" r="78.75" id="IvsMyoCRcfuWORcyOP4x_pad-3"/><g id="IK9_aendlzY0n-if4h5p_top_soldermask"><path d="M 1000.65 804.41 1000.65 862.09 1078.01 862.09 1078.01 804.41 1000.65 804.41 M 1000.65 813.79 1078.01 813.79 M 1078.01 823.17 1000.65 823.17 M 1000.65 832.55 1078.01 832.55 M 1078.01 841.93 1000.65 841.93 M 1000.65 851.31 1078.01 851.31 M 1078.01 860.69 1000.65 860.69 M 1100.65 862.09 1100.65 804.41 M 1100.65 862.09 1178.01 862.09 1178.01 804.41 1100.65 804.41 M 1100.65 813.79 1178.01 813.79 M 1178.01 823.17 1100.65 823.17 M 1100.65 832.55 1178.01 832.55 M 1178.01 841.93 1100.65 841.93 M 1100.65 851.31 1178.01 851.31 M 1178.01 860.69 1100.65 860.69 M 1200.65 862.09 1200.65 804.41 M 1200.65 862.09 1278.01 862.09 1278.01 804.41 1200.65 804.41 M 1200.65 813.79 1278.01 813.79 M 1278.01 823.17 1200.65 823.17 M 1200.65 832.55 1278.01 832.55 M 1278.01 841.93 1200.65 841.93 M 1200.65 851.31 1278.01 851.31 M 1278.01 860.69 1200.65 860.69 M 1300.65 862.09 1300.65 804.41 M 1300.65 862.09 1378.01 862.09 1378.01 804.41 1300.65 804.41 M 1300.65 813.79 1378.01 813.79 M 1378.01 823.17 1300.65 823.17 M 1300.65 832.55 1378.01 832.55 M 1378.01 841.93 1300.65 841.93 M 1300.65 851.31 1378.01 851.31 M 1378.01 860.69 1300.65 860.69 M 1478.01 862.09 1478.01 804.41 1400.65 804.41 1400.65 862.09 1478.01 862.09 M 1478.01 813.79 1400.65 813.79 M 1400.65 823.17 1478.01 823.17 M 1478.01 832.55 1400.65 832.55 M 1400.65 841.93 1478.01 841.93 M 1478.01 851.31 1400.65 851.31 M 1400.65 860.69 1478.01 860.69 M 1578.01 862.09 1578.01 804.41 1500.65 804.41 1500.65 862.09 1578.01 862.09 M 1578.01 813.79 1500.65 813.79 M 1500.65 823.17 1578.01 823.17 M 1578.01 832.55 1500.65 832.55 M 1500.65 841.93 1578.01 841.93 M 1578.01 851.31 1500.65 851.31 M 1500.65 860.69 1578.01 860.69 M 1678.01 862.09 1678.01 804.41 1600.65 804.41 1600.65 862.09 1678.01 862.09 M 1678.01 813.79 1600.65 813.79 M 1600.65 823.17 1678.01 823.17 M 1678.01 832.55 1600.65 832.55 M 1600.65 841.93 1678.01 841.93 M 1678.01 851.31 1600.65 851.31 M 1600.65 860.69 1678.01 860.69 M 1678.01 941.38 1678.01 999.06 M 1678.01 941.38 1600.65 941.38 1600.65 999.06 1678.01 999.06 M 1678.01 950.76 1600.65 950.76 M 1600.65 960.14 1678.01 960.14 M 1678.01 969.52 1600.65 969.52 M 1600.65 978.9 1678.01 978.9 M 1678.01 988.28 1600.65 988.28 M 1600.65 997.66 1678.01 997.66 M 1578.01 999.06 1578.01 941.38 1500.65 941.38 1500.65 999.06 1578.01 999.06 M 1578.01 950.76 1500.65 950.76 M 1500.65 960.14 1578.01 960.14 M 1578.01 969.52 1500.65 969.52 M 1500.65 978.9 1578.01 978.9 M 1578.01 988.28 1500.65 988.28 M 1500.65 997.66 1578.01 997.66 M 1478.01 999.06 1478.01 941.38 1400.65 941.38 1400.65 999.06 1478.01 999.06 M 1478.01 950.76 1400.65 950.76 M 1400.65 960.14 1478.01 960.14 M 1478.01 969.52 1400.65 969.52 M 1400.65 978.9 1478.01 978.9 M 1478.01 988.28 1400.65 988.28 M 1400.65 997.66 1478.01 997.66 M 1300.65 999.06 1300.65 941.38 M 1300.65 999.06 1378.01 999.06 1378.01 941.38 1300.65 941.38 M 1300.65 950.76 1378.01 950.76 M 1378.01 960.14 1300.65 960.14 M 1300.65 969.52 1378.01 969.52 M 1378.01 978.9 1300.65 978.9 M 1300.65 988.28 1378.01 988.28 M 1378.01 997.66 1300.65 997.66 M 1200.65 999.06 1200.65 941.38 M 1200.65 999.06 1278.01 999.06 1278.01 941.38 1200.65 941.38 M 1200.65 950.76 1278.01 950.76 M 1278.01 960.14 1200.65 960.14 M 1200.65 969.52 1278.01 969.52 M 1278.01 978.9 1200.65 978.9 M 1200.65 988.28 1278.01 988.28 M 1278.01 997.66 1200.65 997.66 M 1100.65 999.06 1100.65 941.38 M 1100.65 999.06 1178.01 999.06 1178.01 941.38 1100.65 941.38 M 1100.65 950.76 1178.01 950.76 M 1178.01 960.14 1100.65 960.14 M 1100.65 969.52 1178.01 969.52 M 1178.01 978.9 1100.65 978.9 M 1100.65 988.28 1178.01 988.28 M 1178.01 997.66 1100.65 997.66 M 1000.65 999.06 1000.65 941.38 M 1000.65 999.06 1078.01 999.06 1078.01 941.38 1000.65 941.38 M 1000.65 950.76 1078.01 950.76 M 1078.01 960.14 1000.65 960.14 M 1000.65 969.52 1078.01 969.52 M 1078.01 978.9 1000.65 978.9 M 1000.65 988.28 1078.01 988.28 M 1078.01 997.66 1000.65 997.66" fill="none" stroke-width="9.39"/><use xlink:href="#eY_1H1DUSGcfpubT5y1A_pad-11" x="989.33" y="451.73"/><use xlink:href="#eY_1H1DUSGcfpubT5y1A_pad-11" x="714.33" y="758.03"/><use xlink:href="#eY_1H1DUSGcfpubT5y1A_pad-11" x="1689.33" y="451.73"/><use xlink:href="#eY_1H1DUSGcfpubT5y1A_pad-12" x="1589.33" y="451.73"/><use xlink:href="#eY_1H1DUSGcfpubT5y1A_pad-12" x="1489.33" y="451.73"/><use xlink:href="#eY_1H1DUSGcfpubT5y1A_pad-12" x="1289.33" y="451.73"/><use xlink:href="#eY_1H1DUSGcfpubT5y1A_pad-12" x="1189.33" y="451.73"/><use xlink:href="#eY_1H1DUSGcfpubT5y1A_pad-12" x="1089.33" y="451.73"/><use xlink:href="#eY_1H1DUSGcfpubT5y1A_pad-12" x="814.33" y="758.03"/><use xlink:href="#eY_1H1DUSGcfpubT5y1A_pad-13" x="561.18" y="954.88"/><use xlink:href="#eY_1H1DUSGcfpubT5y1A_pad-13" x="561.18" y="561.18"/><use xlink:href="#eY_1H1DUSGcfpubT5y1A_pad-13" x="2135.98" y="561.18"/><use xlink:href="#eY_1H1DUSGcfpubT5y1A_pad-13" x="2135.98" y="954.88"/></g><g id="IK9_aendlzY0n-if4h5p_top_copper"><path d="M 1004.09 807.85 1004.09 858.65 1074.57 858.65 1074.57 807.85 1004.09 807.85 M 1004.09 816.11 1074.57 816.11 M 1074.57 824.37 1004.09 824.37 M 1004.09 832.63 1074.57 832.63 M 1074.57 840.89 1004.09 840.89 M 1004.09 849.15 1074.57 849.15 M 1074.57 857.41 1004.09 857.41 M 1104.09 858.65 1104.09 807.85 M 1104.09 858.65 1174.57 858.65 1174.57 807.85 1104.09 807.85 M 1104.09 816.11 1174.57 816.11 M 1174.57 824.37 1104.09 824.37 M 1104.09 832.63 1174.57 832.63 M 1174.57 840.89 1104.09 840.89 M 1104.09 849.15 1174.57 849.15 M 1174.57 857.41 1104.09 857.41 M 1204.09 858.65 1204.09 807.85 M 1204.09 858.65 1274.57 858.65 1274.57 807.85 1204.09 807.85 M 1204.09 816.11 1274.57 816.11 M 1274.57 824.37 1204.09 824.37 M 1204.09 832.63 1274.57 832.63 M 1274.57 840.89 1204.09 840.89 M 1204.09 849.15 1274.57 849.15 M 1274.57 857.41 1204.09 857.41 M 1304.09 858.65 1304.09 807.85 M 1304.09 858.65 1374.57 858.65 1374.57 807.85 1304.09 807.85 M 1304.09 816.11 1374.57 816.11 M 1374.57 824.37 1304.09 824.37 M 1304.09 832.63 1374.57 832.63 M 1374.57 840.89 1304.09 840.89 M 1304.09 849.15 1374.57 849.15 M 1374.57 857.41 1304.09 857.41 M 1474.57 858.65 1474.57 807.85 1404.09 807.85 1404.09 858.65 1474.57 858.65 M 1474.57 816.11 1404.09 816.11 M 1404.09 824.37 1474.57 824.37 M 1474.57 832.63 1404.09 832.63 M 1404.09 840.89 1474.57 840.89 M 1474.57 849.15 1404.09 849.15 M 1404.09 857.41 1474.57 857.41 M 1574.57 858.65 1574.57 807.85 1504.09 807.85 1504.09 858.65 1574.57 858.65 M 1574.57 816.11 1504.09 816.11 M 1504.09 824.37 1574.57 824.37 M 1574.57 832.63 1504.09 832.63 M 1504.09 840.89 1574.57 840.89 M 1574.57 849.15 1504.09 849.15 M 1504.09 857.41 1574.57 857.41 M 1674.57 858.65 1674.57 807.85 1604.09 807.85 1604.09 858.65 1674.57 858.65 M 1674.57 816.11 1604.09 816.11 M 1604.09 824.37 1674.57 824.37 M 1674.57 832.63 1604.09 832.63 M 1604.09 840.89 1674.57 840.89 M 1674.57 849.15 1604.09 849.15 M 1604.09 857.41 1674.57 857.41 M 1674.57 944.82 1674.57 995.62 M 1674.57 944.82 1604.09 944.82 1604.09 995.62 1674.57 995.62 M 1674.57 953.08 1604.09 953.08 M 1604.09 961.34 1674.57 961.34 M 1674.57 969.6 1604.09 969.6 M 1604.09 977.86 1674.57 977.86 M 1674.57 986.12 1604.09 986.12 M 1604.09 994.38 1674.57 994.38 M 1574.57 995.62 1574.57 944.82 1504.09 944.82 1504.09 995.62 1574.57 995.62 M 1574.57 953.08 1504.09 953.08 M 1504.09 961.34 1574.57 961.34 M 1574.57 969.6 1504.09 969.6 M 1504.09 977.86 1574.57 977.86 M 1574.57 986.12 1504.09 986.12 M 1504.09 994.38 1574.57 994.38 M 1474.57 995.62 1474.57 944.82 1404.09 944.82 1404.09 995.62 1474.57 995.62 M 1474.57 953.08 1404.09 953.08 M 1404.09 961.34 1474.57 961.34 M 1474.57 969.6 1404.09 969.6 M 1404.09 977.86 1474.57 977.86 M 1474.57 986.12 1404.09 986.12 M 1404.09 994.38 1474.57 994.38 M 1304.09 995.62 1304.09 944.82 M 1304.09 995.62 1374.57 995.62 1374.57 944.82 1304.09 944.82 M 1304.09 953.08 1374.57 953.08 M 1374.57 961.34 1304.09 961.34 M 1304.09 969.6 1374.57 969.6 M 1374.57 977.86 1304.09 977.86 M 1304.09 986.12 1374.57 986.12 M 1374.57 994.38 1304.09 994.38 M 1204.09 995.62 1204.09 944.82 M 1204.09 995.62 1274.57 995.62 1274.57 944.82 1204.09 944.82 M 1204.09 953.08 1274.57 953.08 M 1274.57 961.34 1204.09 961.34 M 1204.09 969.6 1274.57 969.6 M 1274.57 977.86 1204.09 977.86 M 1204.09 986.12 1274.57 986.12 M 1274.57 994.38 1204.09 994.38 M 1104.09 995.62 1104.09 944.82 M 1104.09 995.62 1174.57 995.62 1174.57 944.82 1104.09 944.82 M 1104.09 953.08 1174.57 953.08 M 1174.57 961.34 1104.09 961.34 M 1104.09 969.6 1174.57 969.6 M 1174.57 977.86 1104.09 977.86 M 1104.09 986.12 1174.57 986.12 M 1174.57 994.38 1104.09 994.38 M 1004.09 995.62 1004.09 944.82 M 1004.09 995.62 1074.57 995.62 1074.57 944.82 1004.09 944.82 M 1004.09 953.08 1074.57 953.08 M 1074.57 961.34 1004.09 961.34 M 1004.09 969.6 1074.57 969.6 M 1074.57 977.86 1004.09 977.86 M 1004.09 986.12 1074.57 986.12 M 1074.57 994.38 1004.09 994.38" fill="none" stroke-width="8.27"/><use xlink:href="#h_-nvTOtSetr_FoToHOu_pad-11" x="714.33" y="758.03"/><use xlink:href="#h_-nvTOtSetr_FoToHOu_pad-11" x="989.33" y="451.73"/><use xlink:href="#h_-nvTOtSetr_FoToHOu_pad-11" x="1689.33" y="451.73"/><use xlink:href="#h_-nvTOtSetr_FoToHOu_pad-12" x="1589.33" y="451.73"/><use xlink:href="#h_-nvTOtSetr_FoToHOu_pad-12" x="1489.33" y="451.73"/><use xlink:href="#h_-nvTOtSetr_FoToHOu_pad-12" x="1289.33" y="451.73"/><use xlink:href="#h_-nvTOtSetr_FoToHOu_pad-12" x="1189.33" y="451.73"/><use xlink:href="#h_-nvTOtSetr_FoToHOu_pad-12" x="1089.33" y="451.73"/><use xlink:href="#h_-nvTOtSetr_FoToHOu_pad-12" x="814.33" y="758.03"/><use xlink:href="#h_-nvTOtSetr_FoToHOu_pad-13" x="914.33" y="676.73"/><use xlink:href="#h_-nvTOtSetr_FoToHOu_pad-13" x="1089.33" y="726.73"/><use xlink:href="#h_-nvTOtSetr_FoToHOu_pad-13" x="1239.33" y="726.73"/><use xlink:href="#h_-nvTOtSetr_FoToHOu_pad-13" x="1189.33" y="901.73"/><use xlink:href="#h_-nvTOtSetr_FoToHOu_pad-13" x="1354.33" y="901.73"/><use xlink:href="#h_-nvTOtSetr_FoToHOu_pad-13" x="1439.33" y="901.73"/><use xlink:href="#h_-nvTOtSetr_FoToHOu_pad-13" x="1524.33" y="901.73"/><use xlink:href="#h_-nvTOtSetr_FoToHOu_pad-13" x="1719.33" y="801.73"/><use xlink:href="#h_-nvTOtSetr_FoToHOu_pad-13" x="1719.33" y="751.73"/><use xlink:href="#h_-nvTOtSetr_FoToHOu_pad-13" x="1814.33" y="739.33"/><use xlink:href="#h_-nvTOtSetr_FoToHOu_pad-13" x="1914.33" y="739.33"/><use xlink:href="#h_-nvTOtSetr_FoToHOu_pad-13" x="949.33" y="971.73"/><use xlink:href="#h_-nvTOtSetr_FoToHOu_pad-13" x="899.33" y="1101.73"/><path d="M 899.33 1101.73 764.33 966.73 764.33 808.03 714.33 758.03 M 814.33 758.03 814.33 941.73 924.33 1051.73 1214.33 1051.73 1239.33 1026.73 1239.33 970.22 M 1284.33 901.73 1189.33 901.73 M 1284.33 901.73 1339.33 956.73 1339.33 970.22 1339.33 1026.73 1264.33 1101.73 899.33 1101.73 M 949.33 971.73 1037.81 971.73 1039.33 970.22 M 1039.33 833.25 1039.33 776.73 1089.33 726.73 M 1239.33 726.73 1239.33 833.25 1139.33 833.25 1039.33 833.25 M 914.33 676.73 964.33 626.73 1289.33 626.73 1339.33 676.73 1339.33 833.25 1339.33 886.73 1354.33 901.73 M 1439.33 901.73 1439.33 833.25 M 1539.33 833.25 1539.33 676.73 1489.33 626.73 1489.33 451.73 M 1589.33 451.73 1589.33 626.73 1639.33 676.73 1639.33 833.25 M 1639.33 901.73 1524.33 901.73 M 1539.33 970.22 1439.33 970.22 1339.33 970.22 M 1539.33 970.22 1539.33 1024.33 1564.33 1049.33 1729.33 1049.33 1914.33 864.33 1914.33 739.33 M 1814.33 739.33 1814.33 814.33 1726.93 901.73 1639.33 901.73 1639.33 970.22 M 1289.33 626.73 1289.33 451.73" fill="none" stroke-width="39.37"/><path d="M 723.66 378.33 723.66 582.57 712.59 623.9 691.2 660.95 660.95 691.2 623.9 712.59 582.57 723.66 539.79 723.66 378.33 723.66 378.33 792.4 582.57 792.4 623.9 803.47 660.95 824.87 691.2 855.12 712.59 892.17 723.66 933.49 723.66 1137.73 1973.5 1137.73 1973.5 933.49 1984.58 892.17 2005.97 855.12 2036.22 824.87 2073.27 803.47 2114.59 792.4 2318.83 792.4 2318.83 723.66 2114.59 723.66 2073.27 712.59 2036.22 691.2 2005.97 660.95 1984.58 623.9 1973.5 582.57 1973.5 378.33 723.66 378.33 M 723.66 384.3 1973.5 384.3 M 1973.5 394.29 723.66 394.29 M 723.66 404.27 940.78 404.27 M 939.93 405.12 942.72 402.33 946.14 400.35 949.95 399.33 984.49 399.33 984.49 446.89 994.17 446.89 994.17 399.33 1028.71 399.33 1032.52 400.35 1035.94 402.33 1038.74 405.12 1040.71 408.54 1041.73 412.36 1041.73 437.55 1047.45 423.75 1061.35 409.85 1079.5 402.33 1099.16 402.33 1117.31 409.85 1131.21 423.75 1138.73 441.91 1138.73 461.56 1131.21 479.72 1117.31 493.61 1099.16 501.13 1079.5 501.13 1061.35 493.61 1047.45 479.72 1041.73 465.91 1041.73 491.11 1040.71 494.92 1038.74 498.34 1035.94 501.14 1032.52 503.11 1028.71 504.13 994.17 504.13 994.17 456.58 984.49 456.58 984.49 504.13 949.95 504.13 946.14 503.11 942.72 501.14 939.93 498.34 937.95 494.92 936.93 491.11 936.93 456.57 984.49 456.57 984.49 446.89 936.93 446.89 936.93 412.36 937.95 408.54 939.93 405.12 M 936.93 414.26 723.66 414.26 M 723.66 424.24 936.93 424.24 M 936.93 434.23 723.66 434.23 M 723.66 444.21 936.93 444.21 M 936.93 464.18 723.66 464.18 M 723.66 454.2 984.49 454.2 M 984.49 464.18 994.17 464.18 M 994.17 474.17 984.49 474.17 M 984.49 484.15 994.17 484.15 M 994.17 494.14 984.49 494.14 M 984.49 504.12 994.17 504.12 M 949.91 504.12 723.66 504.12 M 723.66 494.14 937.74 494.14 M 936.93 484.15 723.66 484.15 M 723.66 474.17 936.93 474.17 M 984.49 444.21 994.17 444.21 M 994.17 434.23 984.49 434.23 M 984.49 424.24 994.17 424.24 M 994.17 414.26 984.49 414.26 M 984.49 404.27 994.17 404.27 M 1037.89 404.27 1074.82 404.27 M 1056.94 414.26 1041.73 414.26 M 1041.73 424.24 1047.25 424.24 M 1043.11 434.23 1041.73 434.23 M 1103.84 404.27 1174.82 404.27 M 1179.5 402.33 1199.16 402.33 1217.31 409.85 1231.21 423.75 1238.73 441.91 1238.73 461.56 1231.21 479.72 1217.31 493.61 1199.16 501.13 1179.5 501.13 1161.35 493.61 1147.45 479.72 1139.93 461.56 1139.93 441.91 1147.45 423.75 1161.35 409.85 1179.5 402.33 M 1203.84 404.27 1274.82 404.27 M 1279.5 402.33 1299.16 402.33 1317.31 409.85 1331.21 423.75 1338.73 441.91 1338.73 461.56 1331.21 479.72 1321.02 489.91 1321.02 613.61 1366.19 658.78 1371.02 670.43 1371.02 791.72 1381.25 791.72 1389.33 799.8 1397.41 791.72 1481.25 791.72 1489.33 799.8 1497.41 791.72 1507.65 791.72 1507.65 689.86 1462.47 644.68 1457.65 633.03 1457.65 489.91 1447.45 479.72 1439.93 461.56 1439.93 441.91 1447.45 423.75 1461.35 409.85 1479.5 402.33 1499.16 402.33 1517.31 409.85 1531.21 423.75 1538.73 441.91 1538.73 461.56 1531.21 479.72 1521.02 489.91 1521.02 613.61 1566.19 658.78 1571.02 670.43 1571.02 791.72 1581.25 791.72 1589.33 799.8 1597.41 791.72 1607.65 791.72 1607.65 689.86 1562.47 644.68 1557.65 633.03 1557.65 489.91 1547.45 479.72 1539.93 461.56 1539.93 441.91 1547.45 423.75 1561.35 409.85 1579.5 402.33 1599.16 402.33 1617.31 409.85 1631.21 423.75 1636.93 437.55 1636.93 412.36 1637.95 408.54 1639.93 405.12 1642.72 402.33 1646.14 400.35 1649.95 399.33 1684.49 399.33 1684.49 446.89 1694.17 446.89 1694.17 399.33 1728.71 399.33 1732.52 400.35 1735.94 402.33 1738.74 405.12 1740.71 408.54 1741.73 412.36 1741.73 446.89 1694.17 446.89 1694.17 456.57 1741.73 456.57 1741.73 491.11 1740.71 494.92 1738.74 498.34 1735.94 501.14 1732.52 503.11 1728.71 504.13 1694.17 504.13 1694.17 456.58 1684.49 456.58 1684.49 504.13 1649.95 504.13 1646.14 503.11 1642.72 501.14 1639.93 498.34 1637.95 494.92 1636.93 491.11 1636.93 465.91 1631.21 479.72 1621.02 489.91 1621.02 613.61 1666.19 658.78 1671.02 670.43 1671.02 791.72 1681.25 791.72 1690.7 801.17 1690.7 865.32 1685.98 870.05 1713.8 870.05 1782.65 801.21 1782.65 733.03 1787.47 721.38 1796.38 712.47 1808.03 707.65 1820.63 707.65 1832.28 712.47 1841.19 721.38 1846.02 733.03 1846.02 820.63 1841.19 832.28 1744.88 928.59 1733.23 933.42 1685.98 933.42 1690.7 938.14 1690.7 1002.29 1681.25 1011.74 1597.41 1011.74 1589.33 1003.66 1581.25 1011.74 1571.55 1011.74 1577.46 1017.65 1716.21 1017.65 1882.65 851.21 1882.65 733.03 1887.47 721.38 1896.38 712.47 1908.03 707.65 1920.63 707.65 1932.28 712.47 1941.19 721.38 1946.02 733.03 1946.02 870.63 1941.19 882.28 1756.19 1067.28 1747.28 1076.19 1735.63 1081.02 1558.03 1081.02 1546.38 1076.19 1521.38 1051.19 1512.47 1042.28 1507.65 1030.63 1507.65 1011.74 1497.41 1011.74 1489.33 1003.66 1481.25 1011.74 1397.41 1011.74 1389.33 1003.66 1381.25 1011.74 1371.02 1011.74 1371.02 1033.03 1366.19 1044.68 1357.28 1053.59 1282.28 1128.59 1270.63 1133.42 893.03 1133.42 881.38 1128.59 746.38 993.59 737.47 984.68 732.65 973.03 732.65 821.16 718.92 807.43 671.96 807.43 664.93 800.4 664.93 715.66 671.96 708.63 756.7 708.63 763.73 715.66 763.73 762.62 764.93 763.82 764.93 748.2 772.45 730.05 786.35 716.15 804.5 708.63 824.16 708.63 842.31 716.15 856.21 730.05 863.73 748.2 863.73 767.86 856.21 786.02 846.02 796.21 846.02 928.61 937.46 1020.05 1201.21 1020.05 1207.65 1013.61 1207.65 1011.74 1197.41 1011.74 1191.03 1005.36 1189.88 1007.36 1186.32 1010.92 1181.95 1013.44 1177.09 1014.74 1144.33 1014.74 1144.33 975.22 1134.33 975.22 1134.33 1014.74 1101.58 1014.74 1096.71 1013.44 1092.35 1010.92 1088.78 1007.36 1087.63 1005.36 1081.25 1011.74 997.41 1011.74 989.08 1003.42 943.03 1003.42 931.38 998.59 922.47 989.68 917.65 978.03 917.65 965.43 922.47 953.78 931.38 944.87 943.03 940.05 987.96 940.05 987.96 938.14 997.41 928.69 1081.25 928.69 1087.63 935.07 1088.78 933.07 1092.35 929.51 1096.71 926.99 1101.58 925.69 1134.33 925.69 1134.33 965.22 1144.33 965.22 1144.33 925.69 1168.48 925.69 1162.47 919.68 1157.65 908.03 1157.65 895.43 1162.47 883.78 1171.38 874.87 1171.61 874.78 1097.41 874.78 1089.33 866.69 1081.25 874.78 997.41 874.78 987.96 865.32 987.96 801.17 997.41 791.72 1007.65 791.72 1007.65 770.43 1012.47 758.78 1021.38 749.87 1071.38 699.87 1083.03 695.05 1095.63 695.05 1107.28 699.87 1116.19 708.78 1121.02 720.43 1121.02 733.03 1116.19 744.68 1071.02 789.86 1071.02 791.72 1081.25 791.72 1089.33 799.8 1097.41 791.72 1181.25 791.72 1189.33 799.8 1197.41 791.72 1207.65 791.72 1207.65 720.43 1212.47 708.78 1221.38 699.87 1233.03 695.05 1245.63 695.05 1257.28 699.87 1266.19 708.78 1271.02 720.43 1271.02 791.72 1281.25 791.72 1289.33 799.8 1297.41 791.72 1307.65 791.72 1307.65 689.86 1276.21 658.42 977.46 658.42 932.28 703.59 920.63 708.42 908.03 708.42 896.38 703.59 887.47 694.68 882.65 683.03 882.65 670.43 887.47 658.78 937.47 608.78 946.38 599.87 958.03 595.05 1257.65 595.05 1257.65 489.91 1247.45 479.72 1239.93 461.56 1239.93 441.91 1247.45 423.75 1261.35 409.85 1279.5 402.33 M 1303.84 404.27 1474.82 404.27 M 1456.94 414.26 1321.72 414.26 M 1331.42 424.24 1447.25 424.24 M 1443.11 434.23 1335.55 434.23 M 1338.73 444.21 1439.93 444.21 M 1439.93 454.2 1338.73 454.2 M 1337.65 464.18 1441.02 464.18 M 1445.15 474.17 1333.51 474.17 M 1326.78 484.15 1451.89 484.15 M 1457.65 494.14 1321.02 494.14 M 1321.02 504.12 1457.65 504.12 M 1457.65 514.11 1321.02 514.11 M 1321.02 524.09 1457.65 524.09 M 1457.65 534.08 1321.02 534.08 M 1321.02 544.06 1457.65 544.06 M 1457.65 554.05 1321.02 554.05 M 1321.02 564.03 1457.65 564.03 M 1457.65 574.02 1321.02 574.02 M 1321.02 584 1457.65 584 M 1457.65 593.99 1321.02 593.99 M 1321.02 603.97 1457.65 603.97 M 1457.65 613.96 1321.37 613.96 M 1331.35 623.94 1457.65 623.94 M 1458.02 633.93 1341.34 633.93 M 1351.32 643.91 1462.15 643.91 M 1471.69 653.9 1361.31 653.9 M 1368.3 663.88 1481.67 663.88 M 1491.66 673.87 1371.02 673.87 M 1371.02 683.85 1501.64 683.85 M 1507.65 693.84 1371.02 693.84 M 1371.02 703.82 1507.65 703.82 M 1507.65 713.81 1371.02 713.81 M 1371.02 723.79 1507.65 723.79 M 1507.65 733.78 1371.02 733.78 M 1371.02 743.77 1507.65 743.77 M 1507.65 753.75 1371.02 753.75 M 1371.02 763.74 1507.65 763.74 M 1507.65 773.72 1371.02 773.72 M 1371.02 783.71 1507.65 783.71 M 1495.44 793.69 1483.22 793.69 M 1395.44 793.69 1383.22 793.69 M 1307.65 783.71 1271.02 783.71 M 1271.02 773.72 1307.65 773.72 M 1307.65 763.74 1271.02 763.74 M 1271.02 753.75 1307.65 753.75 M 1307.65 743.77 1271.02 743.77 M 1271.02 733.78 1307.65 733.78 M 1307.65 723.79 1271.02 723.79 M 1268.27 713.81 1307.65 713.81 M 1307.65 703.82 1261.23 703.82 M 1217.43 703.82 1111.23 703.82 M 1118.27 713.81 1210.39 713.81 M 1207.65 723.79 1121.02 723.79 M 1120.71 733.78 1207.65 733.78 M 1207.65 743.77 1116.57 743.77 M 1107.12 753.75 1207.65 753.75 M 1207.65 763.74 1097.14 763.74 M 1087.15 773.72 1207.65 773.72 M 1207.65 783.71 1077.17 783.71 M 1083.22 793.69 1095.44 793.69 M 1027.49 743.77 861.89 743.77 M 863.73 753.75 1017.5 753.75 M 1010.42 763.74 863.73 763.74 M 861.3 773.72 1007.65 773.72 M 1007.65 783.71 857.17 783.71 M 848.54 793.69 995.44 793.69 M 987.96 803.68 846.02 803.68 M 846.02 813.66 987.96 813.66 M 987.96 823.65 846.02 823.65 M 846.02 833.63 987.96 833.63 M 987.96 843.62 846.02 843.62 M 846.02 853.6 987.96 853.6 M 987.96 863.59 846.02 863.59 M 846.02 873.57 996.21 873.57 M 992.62 933.48 850.89 933.48 M 846.02 923.5 1166.29 923.5 M 1159.91 913.51 846.02 913.51 M 846.02 903.53 1157.65 903.53 M 1158.43 893.54 846.02 893.54 M 846.02 883.56 1162.7 883.56 M 1144.33 933.48 1134.33 933.48 M 1134.33 943.47 1144.33 943.47 M 1144.33 953.45 1134.33 953.45 M 1134.33 963.44 1144.33 963.44 M 1144.33 983.41 1134.33 983.41 M 1134.33 993.39 1144.33 993.39 M 1144.33 1003.38 1134.33 1003.38 M 1134.33 1013.36 1144.33 1013.36 M 1182.09 1013.36 1207.65 1013.36 M 1096.58 1013.36 930.77 1013.36 M 920.79 1003.38 942.93 1003.38 M 926.18 993.39 910.8 993.39 M 919.87 983.41 900.82 983.41 M 890.83 973.42 917.65 973.42 M 918.47 963.44 880.85 963.44 M 870.86 953.45 922.8 953.45 M 934.77 943.47 860.88 943.47 M 766.15 1013.36 723.66 1013.36 M 723.66 1003.38 756.17 1003.38 M 746.38 993.59 746.38 993.59 M 746.18 993.39 723.66 993.39 M 723.66 983.41 736.94 983.41 M 732.81 973.42 723.66 973.42 M 723.66 963.44 732.65 963.44 M 732.65 953.45 723.66 953.45 M 723.66 943.47 732.65 943.47 M 732.65 933.48 723.66 933.48 M 720.98 923.5 732.65 923.5 M 732.65 913.51 718.31 913.51 M 715.63 903.53 732.65 903.53 M 732.65 893.54 712.96 893.54 M 707.62 883.56 732.65 883.56 M 732.65 873.57 701.85 873.57 M 696.09 863.59 732.65 863.59 M 732.65 853.6 689.68 853.6 M 679.7 843.62 732.65 843.62 M 732.65 833.63 669.71 833.63 M 658.83 823.65 732.65 823.65 M 725.15 813.66 641.54 813.66 M 624.24 803.68 668.2 803.68 M 664.93 793.69 587.38 793.69 M 664.93 783.71 378.33 783.71 M 378.33 773.72 664.93 773.72 M 664.93 763.74 378.33 763.74 M 378.33 753.75 664.93 753.75 M 664.93 743.77 378.33 743.77 M 378.33 733.78 664.93 733.78 M 664.93 723.79 378.33 723.79 M 619.34 713.81 666.78 713.81 M 639.08 703.82 896.94 703.82 M 887.12 693.84 656.37 693.84 M 668.29 683.85 882.99 683.85 M 882.65 673.87 678.27 673.87 M 688.26 663.88 885.36 663.88 M 892.35 653.9 695.27 653.9 M 701.03 643.91 902.34 643.91 M 912.32 633.93 706.8 633.93 M 712.56 623.94 922.31 623.94 M 932.29 613.96 715.25 613.96 M 717.93 603.97 942.28 603.97 M 971.99 663.88 1281.67 663.88 M 1291.66 673.87 962 673.87 M 952.02 683.85 1301.64 683.85 M 1307.65 693.84 942.03 693.84 M 931.72 703.82 1067.43 703.82 M 1057.44 713.81 836.66 713.81 M 849.96 723.79 1047.46 723.79 M 1037.47 733.78 857.76 733.78 M 792 713.81 761.88 713.81 M 763.73 723.79 778.7 723.79 M 770.9 733.78 763.73 733.78 M 763.73 743.77 766.77 743.77 M 764.93 753.75 763.73 753.75 M 764.84 763.74 764.93 763.74 M 720.6 593.99 1257.65 593.99 M 1257.65 584 723.28 584 M 723.66 574.02 1257.65 574.02 M 1257.65 564.03 723.66 564.03 M 723.66 554.05 1257.65 554.05 M 1257.65 544.06 723.66 544.06 M 723.66 534.08 1257.65 534.08 M 1257.65 524.09 723.66 524.09 M 723.66 514.11 1257.65 514.11 M 1257.65 504.12 1028.75 504.12 M 1040.92 494.14 1062.61 494.14 M 1051.89 484.15 1041.73 484.15 M 1041.73 474.17 1045.15 474.17 M 1116.05 494.14 1162.61 494.14 M 1151.89 484.15 1126.78 484.15 M 1133.51 474.17 1145.15 474.17 M 1141.02 464.18 1137.65 464.18 M 1138.73 454.2 1139.93 454.2 M 1139.93 444.21 1138.73 444.21 M 1135.55 434.23 1143.11 434.23 M 1147.25 424.24 1131.42 424.24 M 1121.72 414.26 1156.94 414.26 M 1221.72 414.26 1256.94 414.26 M 1247.25 424.24 1231.42 424.24 M 1235.55 434.23 1243.11 434.23 M 1239.93 444.21 1238.73 444.21 M 1238.73 454.2 1239.93 454.2 M 1241.02 464.18 1237.65 464.18 M 1233.51 474.17 1245.15 474.17 M 1251.89 484.15 1226.78 484.15 M 1216.05 494.14 1257.65 494.14 M 1503.84 404.27 1574.82 404.27 M 1556.94 414.26 1521.72 414.26 M 1531.42 424.24 1547.25 424.24 M 1543.11 434.23 1535.55 434.23 M 1538.73 444.21 1539.93 444.21 M 1539.93 454.2 1538.73 454.2 M 1537.65 464.18 1541.02 464.18 M 1545.15 474.17 1533.51 474.17 M 1526.78 484.15 1551.89 484.15 M 1557.65 494.14 1521.02 494.14 M 1521.02 504.12 1557.65 504.12 M 1557.65 514.11 1521.02 514.11 M 1521.02 524.09 1557.65 524.09 M 1557.65 534.08 1521.02 534.08 M 1521.02 544.06 1557.65 544.06 M 1557.65 554.05 1521.02 554.05 M 1521.02 564.03 1557.65 564.03 M 1557.65 574.02 1521.02 574.02 M 1521.02 584 1557.65 584 M 1557.65 593.99 1521.02 593.99 M 1521.02 603.97 1557.65 603.97 M 1557.65 613.96 1521.37 613.96 M 1531.35 623.94 1557.65 623.94 M 1558.02 633.93 1541.34 633.93 M 1551.32 643.91 1562.15 643.91 M 1561.31 653.9 1571.69 653.9 M 1568.3 663.88 1581.67 663.88 M 1591.66 673.87 1571.02 673.87 M 1571.02 683.85 1601.64 683.85 M 1607.65 693.84 1571.02 693.84 M 1571.02 703.82 1607.65 703.82 M 1607.65 713.81 1571.02 713.81 M 1571.02 723.79 1607.65 723.79 M 1607.65 733.78 1571.02 733.78 M 1571.02 743.77 1607.65 743.77 M 1607.65 753.75 1571.02 753.75 M 1571.02 763.74 1607.65 763.74 M 1607.65 773.72 1571.02 773.72 M 1571.02 783.71 1607.65 783.71 M 1595.44 793.69 1583.22 793.69 M 1671.02 783.71 1782.65 783.71 M 1782.65 793.69 1683.22 793.69 M 1690.7 803.68 1780.18 803.68 M 1770.19 813.66 1690.7 813.66 M 1690.7 823.65 1760.21 823.65 M 1750.22 833.63 1690.7 833.63 M 1690.7 843.62 1740.24 843.62 M 1730.25 853.6 1690.7 853.6 M 1690.7 863.59 1720.27 863.59 M 1779.93 893.54 1840.31 893.54 M 1850.3 883.56 1789.91 883.56 M 1799.9 873.57 1860.28 873.57 M 1870.27 863.59 1809.88 863.59 M 1819.87 853.6 1880.25 853.6 M 1882.65 843.62 1829.85 843.62 M 1839.84 833.63 1882.65 833.63 M 1882.65 823.65 1844.77 823.65 M 1846.02 813.66 1882.65 813.66 M 1882.65 803.68 1846.02 803.68 M 1846.02 793.69 1882.65 793.69 M 1882.65 783.71 1846.02 783.71 M 1846.02 773.72 1882.65 773.72 M 1882.65 763.74 1846.02 763.74 M 1846.02 753.75 1882.65 753.75 M 1882.65 743.77 1846.02 743.77 M 1846.02 733.78 1882.65 733.78 M 1886.47 723.79 1842.19 723.79 M 1833.62 713.81 1895.04 713.81 M 1933.62 713.81 2077.83 713.81 M 2058.09 703.82 1671.02 703.82 M 1671.02 693.84 2040.79 693.84 M 2028.88 683.85 1671.02 683.85 M 1671.02 673.87 2018.89 673.87 M 2008.91 663.88 1668.3 663.88 M 1661.31 653.9 2001.9 653.9 M 1996.13 643.91 1651.32 643.91 M 1641.34 633.93 1990.37 633.93 M 1984.6 623.94 1631.35 623.94 M 1621.37 613.96 1981.91 613.96 M 1979.24 603.97 1621.02 603.97 M 1621.02 593.99 1976.56 593.99 M 1973.89 584 1621.02 584 M 1621.02 574.02 1973.5 574.02 M 1973.5 564.03 1621.02 564.03 M 1621.02 554.05 1973.5 554.05 M 1973.5 544.06 1621.02 544.06 M 1621.02 534.08 1973.5 534.08 M 1973.5 524.09 1621.02 524.09 M 1621.02 514.11 1973.5 514.11 M 1973.5 504.12 1728.75 504.12 M 1740.92 494.14 1973.5 494.14 M 1973.5 484.15 1741.73 484.15 M 1741.73 474.17 1973.5 474.17 M 1973.5 464.18 1741.73 464.18 M 1741.73 444.21 1973.5 444.21 M 1973.5 434.23 1741.73 434.23 M 1741.73 424.24 1973.5 424.24 M 1973.5 414.26 1741.73 414.26 M 1737.89 404.27 1973.5 404.27 M 1973.5 454.2 1694.17 454.2 M 1694.17 464.18 1684.49 464.18 M 1684.49 474.17 1694.17 474.17 M 1694.17 484.15 1684.49 484.15 M 1684.49 494.14 1694.17 494.14 M 1694.17 504.12 1684.49 504.12 M 1649.91 504.12 1621.02 504.12 M 1621.02 494.14 1637.74 494.14 M 1636.93 484.15 1626.78 484.15 M 1633.51 474.17 1636.93 474.17 M 1684.49 444.21 1694.17 444.21 M 1694.17 434.23 1684.49 434.23 M 1684.49 424.24 1694.17 424.24 M 1694.17 414.26 1684.49 414.26 M 1684.49 404.27 1694.17 404.27 M 1640.78 404.27 1603.84 404.27 M 1621.72 414.26 1636.93 414.26 M 1636.93 424.24 1631.42 424.24 M 1635.55 434.23 1636.93 434.23 M 1671.02 713.81 1795.04 713.81 M 1786.47 723.79 1671.02 723.79 M 1671.02 733.78 1782.65 733.78 M 1782.65 743.77 1671.02 743.77 M 1671.02 753.75 1782.65 753.75 M 1782.65 763.74 1671.02 763.74 M 1671.02 773.72 1782.65 773.72 M 1946.02 773.72 2318.83 773.72 M 2318.83 763.74 1946.02 763.74 M 1946.02 753.75 2318.83 753.75 M 2318.83 743.77 1946.02 743.77 M 1946.02 733.78 2318.83 733.78 M 2318.83 723.79 1942.19 723.79 M 1946.02 783.71 2318.83 783.71 M 2109.78 793.69 1946.02 793.69 M 1946.02 803.68 2072.92 803.68 M 2055.63 813.66 1946.02 813.66 M 1946.02 823.65 2038.33 823.65 M 2027.45 833.63 1946.02 833.63 M 1946.02 843.62 2017.47 843.62 M 2007.48 853.6 1946.02 853.6 M 1946.02 863.59 2001.08 863.59 M 1995.31 873.57 1944.8 873.57 M 1939.91 883.56 1989.55 883.56 M 1984.21 893.54 1929.93 893.54 M 1919.94 903.53 1981.53 903.53 M 1978.86 913.51 1909.96 913.51 M 1899.97 923.5 1976.18 923.5 M 1973.51 933.48 1889.99 933.48 M 1880 943.47 1973.5 943.47 M 1973.5 953.45 1870.02 953.45 M 1860.03 963.44 1973.5 963.44 M 1973.5 973.42 1850.05 973.42 M 1840.06 983.41 1973.5 983.41 M 1973.5 993.39 1830.08 993.39 M 1820.09 1003.38 1973.5 1003.38 M 1973.5 1013.36 1810.11 1013.36 M 1800.12 1023.35 1973.5 1023.35 M 1973.5 1033.33 1790.14 1033.33 M 1780.15 1043.32 1973.5 1043.32 M 1973.5 1053.3 1770.17 1053.3 M 1760.18 1063.29 1973.5 1063.29 M 1973.5 1073.27 1750.2 1073.27 M 1720.49 1013.36 1573.17 1013.36 M 1513.51 1043.32 1366.76 1043.32 M 1370.89 1033.33 1508.76 1033.33 M 1507.65 1023.35 1371.02 1023.35 M 1371.02 1013.36 1507.65 1013.36 M 1523.49 1053.3 1357.57 1053.3 M 1347.58 1063.29 1533.48 1063.29 M 1543.46 1073.27 1337.6 1073.27 M 1327.61 1083.26 1973.5 1083.26 M 1973.5 1093.24 1317.63 1093.24 M 1307.64 1103.23 1973.5 1103.23 M 1973.5 1113.21 1297.66 1113.21 M 1287.67 1123.2 1973.5 1123.2 M 1973.5 1133.18 1271.2 1133.18 M 1088.55 933.48 1086.04 933.48 M 1082.45 873.57 1096.21 873.57 M 1183.22 793.69 1195.44 793.69 M 1283.22 793.69 1295.44 793.69 M 1686.04 933.48 1800.37 933.48 M 1810.35 923.5 1749.97 923.5 M 1759.96 913.51 1820.34 913.51 M 1830.33 903.53 1769.94 903.53 M 1790.38 943.47 1690.7 943.47 M 1690.7 953.45 1780.4 953.45 M 1770.41 963.44 1690.7 963.44 M 1690.7 973.42 1760.43 973.42 M 1750.44 983.41 1690.7 983.41 M 1690.7 993.39 1740.46 993.39 M 1730.47 1003.38 1689.62 1003.38 M 892.47 1133.18 723.66 1133.18 M 723.66 1123.2 875.99 1123.2 M 866 1113.21 723.66 1113.21 M 723.66 1103.23 856.02 1103.23 M 846.03 1093.24 723.66 1093.24 M 723.66 1083.26 836.05 1083.26 M 826.06 1073.27 723.66 1073.27 M 723.66 1063.29 816.08 1063.29 M 806.09 1053.3 723.66 1053.3 M 723.66 1043.32 796.11 1043.32 M 786.12 1033.33 723.66 1033.33 M 723.66 1023.35 776.14 1023.35" fill="none" stroke-width="10"/></g><g id="IK9_aendlzY0n-if4h5p_top_silkscreen"><path d="M 741.77 410.34 748.78 403.33 762.79 403.33 769.8 410.34 769.8 445.37 M 787.81 431.35 801.82 445.37 815.83 431.35 815.83 403.33 M 833.85 403.33 833.85 445.37 854.87 445.37 861.87 438.36 861.87 424.35 854.87 417.34 833.85 417.34 M 847.86 417.34 861.87 403.33 M 815.83 424.35 787.81 424.35 M 787.81 431.35 787.81 403.33 M 741.77 410.34 741.77 445.37 M 833.85 475.34 840.86 468.33 847.86 468.33 854.87 475.34 854.87 510.37 M 861.87 510.37 847.86 510.37 M 879.89 496.35 893.9 510.37 893.9 468.33 M 879.89 468.33 907.91 468.33 M 907.91 445.37 879.89 445.37 M 893.9 445.37 893.9 403.33 M 939.33 401.73 939.33 501.73 1039.33 501.73 1039.33 476.73 1064.33 501.73 1114.33 501.73 1139.33 476.73 1164.33 501.73 1214.33 501.73 1239.33 476.73 1264.33 501.73 1314.33 501.73 1339.33 476.73 1339.33 426.73 1314.33 401.73 1264.33 401.73 1239.33 426.73 1239.33 476.73 M 1239.33 426.73 1214.33 401.73 1164.33 401.73 1139.33 426.73 1139.33 476.73 M 1139.33 426.73 1114.33 401.73 1064.33 401.73 1039.33 426.73 1039.33 401.73 939.33 401.73 M 1039.33 426.73 1039.33 476.73 M 1089.33 529.33 1104.33 544.33 M 1089.33 529.33 1074.33 544.33 M 1089.33 529.33 1089.33 564.33 M 1068.29 585.73 1068.29 613.76 M 1068.29 599.74 1110.33 599.74 M 1110.33 631.77 1068.29 659.8 M 1068.29 631.77 1110.33 659.8 M 1168.29 659.8 1210.33 631.77 M 1210.33 613.76 1196.32 599.74 M 1196.32 606.75 1196.32 585.73 M 1210.33 585.73 1168.29 585.73 1168.29 606.75 1175.3 613.76 1189.31 613.76 1196.32 606.75 M 1168.29 631.77 1210.33 659.8 M 1268.29 650.83 1296.32 650.83 1310.33 636.82 1296.32 622.81 1268.29 622.81 M 1268.29 604.8 1268.29 576.77 1289.31 576.77 1282.31 590.78 1282.31 597.79 1289.31 604.8 1303.32 604.8 1310.33 597.79 1310.33 583.78 1303.32 576.77 M 1289.31 558.76 1289.31 530.73 M 1275.3 544.74 1303.32 544.74 M 1204.33 549.33 1189.33 564.33 1174.33 549.33 M 1189.33 564.33 1189.33 529.33 M 1010.33 537.74 1010.33 551.75 1003.32 558.76 989.31 558.76 989.31 544.74 M 975.3 530.73 1003.32 530.73 1010.33 537.74 M 975.3 530.73 968.29 537.74 968.29 551.75 975.3 558.76 M 968.29 576.77 1010.33 604.8 968.29 604.8 M 968.29 576.77 1010.33 576.77 M 1010.33 622.81 968.29 622.81 968.29 643.83 975.3 650.83 1003.32 650.83 1010.33 643.83 1010.33 622.81 M 861.28 632.03 861.28 674.07 M 833.26 674.07 861.28 632.03 M 833.26 632.03 833.26 674.07 M 815.24 674.07 787.22 674.07 787.22 632.03 815.24 632.03 M 801.23 653.05 787.22 653.05 M 769.2 625.03 741.18 625.03 M 709.15 632.03 709.15 674.07 M 695.14 674.07 723.17 674.07 M 764.33 708.03 664.33 708.03 664.33 808.03 764.33 808.03 764.33 783.03 789.33 808.03 839.33 808.03 864.33 783.03 864.33 733.03 839.33 708.03 789.33 708.03 764.33 733.03 764.33 708.03 M 764.33 733.03 764.33 783.03 M 797.15 839.03 804.15 839.03 811.16 846.04 811.16 881.07 M 804.15 881.07 818.17 881.07 M 836.18 874.06 843.19 881.07 857.2 881.07 864.2 874.06 864.2 867.06 857.2 860.05 864.2 853.04 864.2 846.04 857.2 839.03 843.19 839.03 836.18 846.04 M 850.19 860.05 857.2 860.05 M 797.15 839.03 790.14 846.04 M 1004.33 876.73 1004.33 926.73 M 1074.33 926.73 1074.33 876.73 M 1104.33 876.73 1104.33 926.73 M 1174.33 926.73 1174.33 876.73 M 1204.33 876.73 1204.33 926.73 M 1274.33 926.73 1274.33 876.73 M 1304.33 876.73 1304.33 926.73 M 1374.33 926.73 1374.33 876.73 M 1404.33 876.73 1404.33 926.73 M 1474.33 926.73 1474.33 876.73 M 1504.33 876.73 1504.33 926.73 M 1574.33 926.73 1574.33 876.73 M 1604.33 876.73 1604.33 926.73 M 1674.33 926.73 1674.33 876.73 M 1660.33 1030.93 1618.29 1030.93 1618.29 1051.95 1625.3 1058.95 1639.31 1058.95 1646.32 1051.95 1646.32 1030.93 M 1646.32 1044.94 1660.33 1058.95 M 1653.32 1076.97 1660.33 1083.97 1660.33 1097.99 1653.32 1104.99 1625.3 1104.99 1618.29 1097.99 1618.29 1083.97 1625.3 1076.97 1632.31 1076.97 1639.31 1083.97 1639.31 1104.99 M 1560.33 1097.99 1560.33 1083.97 1553.32 1076.97 1546.32 1076.97 1539.31 1083.97 1539.31 1097.99 1546.32 1104.99 1553.32 1104.99 1560.33 1097.99 M 1539.31 1097.99 1532.31 1104.99 1525.3 1104.99 1518.29 1097.99 1518.29 1083.97 1525.3 1076.97 1532.31 1076.97 1539.31 1083.97 M 1539.31 1058.95 1525.3 1058.95 1518.29 1051.95 1518.29 1030.93 1560.33 1030.93 M 1546.32 1030.93 1546.32 1051.95 1539.31 1058.95 M 1546.32 1044.94 1560.33 1058.95 M 1460.33 1058.95 1446.32 1044.94 M 1446.32 1051.95 1446.32 1030.93 M 1460.33 1030.93 1418.29 1030.93 1418.29 1051.95 1425.3 1058.95 1439.31 1058.95 1446.32 1051.95 M 1453.32 1076.97 1460.33 1083.97 1460.33 1097.99 1453.32 1104.99 1439.31 1104.99 1432.31 1097.99 1432.31 1090.98 1439.31 1076.97 1418.29 1076.97 1418.29 1104.99 M 1360.33 1097.99 1360.33 1083.97 1353.32 1076.97 M 1339.31 1090.98 1339.31 1097.99 1346.32 1104.99 1353.32 1104.99 1360.33 1097.99 M 1339.31 1097.99 1332.31 1104.99 1325.3 1104.99 1318.29 1097.99 1318.29 1083.97 1325.3 1076.97 M 1325.3 1058.95 1318.29 1051.95 1318.29 1030.93 1360.33 1030.93 M 1346.32 1030.93 1346.32 1051.95 1339.31 1058.95 1325.3 1058.95 M 1346.32 1044.94 1360.33 1058.95 M 1260.33 1058.95 1246.32 1044.94 M 1246.32 1051.95 1246.32 1030.93 M 1260.33 1030.93 1218.29 1030.93 1218.29 1051.95 1225.3 1058.95 1239.31 1058.95 1246.32 1051.95 M 1260.33 1076.97 1260.33 1104.99 M 1260.33 1090.98 1218.29 1090.98 1232.31 1076.97 M 1160.33 1076.97 1132.31 1104.99 1125.3 1104.99 1118.29 1097.99 1118.29 1083.97 1125.3 1076.97 M 1125.3 1058.95 1139.31 1058.95 1146.32 1051.95 1146.32 1030.93 M 1160.33 1030.93 1118.29 1030.93 1118.29 1051.95 1125.3 1058.95 M 1146.32 1044.94 1160.33 1058.95 M 1160.33 1076.97 1160.33 1104.99 M 1060.33 1097.99 1018.29 1097.99 1039.31 1076.97 1039.31 1104.99 M 1039.31 1058.95 1046.32 1051.95 1046.32 1030.93 M 1060.33 1030.93 1018.29 1030.93 1018.29 1051.95 1025.3 1058.95 1039.31 1058.95 M 1046.32 1044.94 1060.33 1058.95 M 1489.31 696.87 1489.31 668.85 M 1475.3 650.83 1468.29 643.83 1468.29 622.81 1510.33 622.81 1510.33 643.83 1503.32 650.83 1475.3 650.83 M 1475.3 604.8 1468.29 597.79 1468.29 583.78 1475.3 576.77 1503.32 576.77 1510.33 583.78 1510.33 597.79 1503.32 604.8 M 1503.32 558.76 1510.33 551.75 1510.33 537.74 1503.32 530.73 1475.3 530.73 1468.29 537.74 1468.29 551.75 1475.3 558.76 M 1464.33 501.73 1514.33 501.73 1539.33 476.73 1539.33 426.73 1514.33 401.73 1464.33 401.73 1439.33 426.73 1439.33 476.73 1464.33 501.73 M 1539.33 476.73 1564.33 501.73 1614.33 501.73 1639.33 476.73 1639.33 501.73 1739.33 501.73 1739.33 401.73 1639.33 401.73 1639.33 426.73 1614.33 401.73 1564.33 401.73 1539.33 426.73 M 1639.33 426.73 1639.33 476.73 M 1675.3 530.73 1668.29 537.74 1668.29 551.75 1675.3 558.76 M 1689.31 558.76 1689.31 544.74 M 1689.31 558.76 1703.32 558.76 1710.33 551.75 1710.33 537.74 1703.32 530.73 1675.3 530.73 M 1668.29 576.77 1710.33 604.8 1668.29 604.8 M 1668.29 576.77 1710.33 576.77 M 1710.33 622.81 1668.29 622.81 1668.29 643.83 1675.3 650.83 1703.32 650.83 1710.33 643.83 1710.33 622.81 M 1610.33 622.81 1610.33 643.83 1603.32 650.83 1575.3 650.83 1568.29 643.83 1568.29 622.81 1610.33 622.81 M 1603.32 604.8 1610.33 597.79 1610.33 583.78 1603.32 576.77 1575.3 576.77 1568.29 583.78 1568.29 597.79 1575.3 604.8 M 1575.3 558.76 1568.29 551.75 1568.29 537.74 1575.3 530.73 1603.32 530.73 1610.33 537.74 1610.33 551.75 1603.32 558.76 M 1770.73 475.34 1777.74 468.33 1784.74 468.33 1791.75 475.34 1791.75 510.37 M 1784.74 510.37 1798.76 510.37 M 1816.77 503.36 1823.78 510.37 1837.79 510.37 1844.8 503.36 1844.8 496.35 1816.77 468.33 1844.8 468.33 M 1837.79 445.37 1816.77 445.37 1816.77 403.33 1837.79 403.33 1844.8 410.34 1844.8 417.34 1837.79 424.35 1816.77 424.35 M 1837.79 424.35 1844.8 431.35 1844.8 438.36 1837.79 445.37 M 1862.81 445.37 1883.83 445.37 1890.83 438.36 1890.83 410.34 1883.83 403.33 1862.81 403.33 1862.81 445.37 M 1798.76 438.36 1798.76 410.34 1791.75 403.33 1777.74 403.33 1770.73 410.34 1770.73 438.36 1777.74 445.37 1791.75 445.37 1798.76 438.36 M 1589.31 668.85 1589.31 696.87 M 1575.3 682.86 1603.32 682.86" fill="none" stroke-width="8"/><path d="M 1751.27 755.83 1751.27 766.63 1756.67 772.03 M 1756.67 786.68 1778.27 786.68 1783.67 792.08 1783.67 802.88 1778.27 808.28 M 1783.67 822.93 1751.27 822.93 1751.27 839.13 1756.67 844.53 1778.27 844.53 1783.67 839.13 1783.67 822.93 M 1810.32 833.73 1821.12 844.53 1842.72 844.53 M 1842.72 859.18 1810.32 859.18 1842.72 880.78 1810.32 880.78 M 1815.72 895.43 1821.12 895.43 1826.52 900.83 1826.52 911.63 1831.92 917.03 1837.32 917.03 1842.72 911.63 1842.72 900.83 1837.32 895.43 M 1815.72 895.43 1810.32 900.83 1810.32 911.63 1815.72 917.03 M 1815.72 931.69 1837.32 931.69 1842.72 937.09 1842.72 947.88 1837.32 953.28 M 1842.72 967.94 1810.32 967.94 1810.32 989.54 M 1810.32 1004.19 1810.32 1014.99 M 1810.32 1009.59 1842.72 1009.59 M 1842.72 1004.19 1842.72 1014.99 M 1831.92 1028.36 1842.72 1039.16 1831.92 1049.95 1810.32 1049.95 M 1810.32 1064.61 1842.72 1064.61 1842.72 1086.21 M 1842.72 1100.86 1810.32 1100.86 1810.32 1117.06 1815.72 1122.46 1826.52 1122.46 1831.92 1117.06 1831.92 1100.86 M 1831.92 1111.66 1842.72 1122.46 M 1810.32 1086.21 1810.32 1064.61 M 1826.52 1064.61 1826.52 1075.41 M 1869.38 1056.64 1869.38 1040.44 1901.78 1040.44 1901.78 1056.64 1896.38 1062.04 1874.78 1062.04 1869.38 1056.64 M 1874.78 1025.79 1885.58 1025.79 1890.98 1020.39 1890.98 1004.19 M 1901.78 1004.19 1869.38 1004.19 1869.38 1020.39 1874.78 1025.79 M 1890.98 1014.99 1901.78 1025.79 M 1928.43 1002.26 1928.43 986.06 1960.83 986.06 1960.83 1002.26 1955.43 1007.66 1933.83 1007.66 1928.43 1002.26 M 1901.78 989.54 1880.18 989.54 1869.38 978.74 1880.18 967.94 1901.78 967.94 M 1896.38 953.28 1874.78 953.28 1869.38 947.88 1869.38 937.09 1874.78 931.69 1896.38 931.69 1901.78 937.09 1901.78 947.88 1896.38 953.28 M 1885.58 967.94 1885.58 989.54 M 1842.72 989.54 1842.72 967.94 M 1826.52 967.94 1826.52 978.74 M 1783.67 984.14 1783.67 973.34 1778.27 967.94 M 1767.47 973.34 1762.07 967.94 1756.67 967.94 1751.27 973.34 1751.27 984.14 1756.67 989.54 M 1767.47 984.14 1772.87 989.54 1778.27 989.54 1783.67 984.14 M 1767.47 984.14 1767.47 973.34 M 1778.27 953.28 1751.27 953.28 M 1751.27 931.69 1778.27 931.69 1783.67 937.09 1783.67 947.88 1778.27 953.28 M 1810.32 947.88 1810.32 937.09 1815.72 931.69 M 1810.32 947.88 1815.72 953.28 M 1778.27 917.03 1783.67 911.63 1783.67 895.43 1751.27 895.43 1751.27 911.63 1756.67 917.03 1762.07 917.03 1767.47 911.63 1767.47 895.43 M 1767.47 880.78 1767.47 859.18 M 1810.32 833.73 1821.12 822.93 1842.72 822.93 M 1842.72 808.28 1831.92 797.48 M 1831.92 802.88 1831.92 786.68 M 1842.72 786.68 1810.32 786.68 1810.32 802.88 1815.72 808.28 1826.52 808.28 1831.92 802.88 M 1826.52 822.93 1826.52 844.53 M 1869.38 844.53 1890.98 844.53 1901.78 833.73 1890.98 822.93 1869.38 822.93 M 1869.38 808.28 1869.38 786.68 1901.78 786.68 1901.78 808.28 M 1885.58 797.48 1885.58 786.68 M 1896.38 772.03 1874.78 772.03 1869.38 766.63 1869.38 750.43 1901.78 750.43 1901.78 766.63 1896.38 772.03 M 1928.43 772.03 1950.03 772.03 1960.83 761.23 1950.03 750.43 1928.43 750.43 M 1939.23 786.68 1928.43 797.48 1960.83 797.48 M 1960.83 786.68 1960.83 808.28 M 1960.83 822.93 1960.83 828.33 1955.43 828.33 1955.43 822.93 1960.83 822.93 M 1955.43 841.06 1933.83 841.06 1928.43 846.46 1928.43 857.26 1933.83 862.66 1955.43 841.06 1960.83 846.46 1960.83 857.26 1955.43 862.66 1933.83 862.66 M 1933.83 877.31 1928.43 882.71 1928.43 893.51 1933.83 898.91 1955.43 877.31 1960.83 882.71 1960.83 893.51 1955.43 898.91 1933.83 898.91 M 1901.78 895.43 1901.78 911.63 1896.38 917.03 1890.98 917.03 1885.58 911.63 1885.58 895.43 M 1901.78 895.43 1869.38 895.43 1869.38 911.63 1874.78 917.03 1880.18 917.03 1885.58 911.63 M 1928.43 949.81 1960.83 949.81 1960.83 971.41 M 1831.92 1028.36 1810.32 1028.36 M 1778.27 917.03 1772.87 917.03 1767.47 911.63 M 1933.83 877.31 1955.43 877.31 M 1842.72 761.23 1810.32 761.23 M 1810.32 750.43 1810.32 772.03 M 1783.67 766.63 1783.67 755.83 1778.27 750.43 1756.67 750.43 1751.27 755.83 M 1778.27 772.03 1783.67 766.63 M 1756.67 786.68 1751.27 792.08 1751.27 802.88 1756.67 808.28" fill="none" stroke-width="7"/><path d="M 1847.33 729.62 1844.11 697.86 1833.44 694.45 1823.47 689.31 1798.73 709.49 1781.77 692.53 1801.94 667.79 1796.81 657.82 1793.4 647.15 1761.64 643.93 1761.64 619.93 1793.4 616.71 1796.81 606.03 1801.94 596.07 1781.77 571.33 1798.73 554.37 1823.47 574.54 1833.44 569.41 1844.11 566 1847.33 534.24 1871.33 534.24 1874.55 566 1885.23 569.41 1895.19 574.54 1919.93 554.37 1936.89 571.33 1916.72 596.07 1921.85 606.03 1887.75 620.16 1884.91 614.84 1881.08 610.18 1876.42 606.35 1871.1 603.51 1865.33 601.76 1859.33 601.17 1853.05 601.82 1847.03 603.74 1841.53 606.84 1836.78 611.01 1832.98 616.05 1830.3 621.77 1828.83 627.91 1828.66 634.23 1829.77 640.44 1832.14 646.3 1835.64 651.55 1840.15 655.98 1845.47 659.39 1851.37 661.64 1857.61 662.64 1863.91 662.34 1870.03 660.77 1875.69 657.97 1880.67 654.08 1884.74 649.26 1887.75 643.7 1921.85 657.83 1916.72 667.79 1936.89 692.53 1919.93 709.49 1895.19 689.31 1885.23 694.45 1874.55 697.86 1871.33 729.62 1847.33 729.62 M 1847.22 728.51 1871.44 728.51 M 1871.74 725.53 1846.92 725.53 M 1846.62 722.54 1872.05 722.54 M 1872.35 719.56 1846.31 719.56 M 1846.01 716.57 1872.65 716.57 M 1872.95 713.59 1845.71 713.59 M 1845.4 710.6 1873.26 710.6 M 1873.56 707.62 1845.1 707.62 M 1844.8 704.63 1873.86 704.63 M 1874.17 701.65 1844.49 701.65 M 1844.19 698.66 1874.47 698.66 M 1881.38 695.68 1837.29 695.68 M 1830.03 692.69 1888.63 692.69 M 1894.43 689.71 1824.24 689.71 M 1822.99 689.71 1784.07 689.71 M 1781.94 692.69 1819.33 692.69 M 1815.67 695.68 1784.92 695.68 M 1787.91 698.66 1812.01 698.66 M 1808.35 701.65 1790.89 701.65 M 1793.88 704.63 1804.69 704.63 M 1801.02 707.62 1796.86 707.62 M 1786.5 686.72 1932.16 686.72 M 1929.72 683.74 1788.94 683.74 M 1791.37 680.75 1927.29 680.75 M 1924.85 677.77 1793.81 677.77 M 1796.24 674.78 1922.42 674.78 M 1919.99 671.8 1798.68 671.8 M 1801.11 668.81 1917.55 668.81 M 1917.73 665.83 1800.94 665.83 M 1799.4 662.84 1919.27 662.84 M 1920.8 659.86 1871.88 659.86 M 1877.1 656.87 1919.54 656.87 M 1912.34 653.89 1880.83 653.89 M 1883.36 650.9 1905.13 650.9 M 1897.93 647.92 1885.47 647.92 M 1887.08 644.93 1890.72 644.93 M 1892.8 618.07 1886.63 618.07 M 1885.03 615.08 1900.01 615.08 M 1907.21 612.1 1882.65 612.1 M 1879.78 609.11 1914.42 609.11 M 1921.62 606.12 1875.99 606.12 M 1869.88 603.14 1920.36 603.14 M 1918.82 600.15 1799.84 600.15 M 1801.38 597.17 1917.28 597.17 M 1918.25 594.18 1800.41 594.18 M 1797.97 591.2 1920.69 591.2 M 1923.12 588.21 1795.54 588.21 M 1793.1 585.23 1925.56 585.23 M 1927.99 582.24 1790.67 582.24 M 1788.24 579.26 1930.43 579.26 M 1932.86 576.27 1785.8 576.27 M 1783.37 573.29 1821.93 573.29 M 1825.91 573.29 1892.75 573.29 M 1896.73 573.29 1935.29 573.29 M 1935.86 570.3 1900.39 570.3 M 1904.05 567.32 1932.88 567.32 M 1929.89 564.33 1907.71 564.33 M 1911.37 561.35 1926.91 561.35 M 1923.92 558.36 1915.03 558.36 M 1918.69 555.38 1920.94 555.38 M 1886.96 570.3 1831.71 570.3 M 1839.98 567.32 1878.68 567.32 M 1874.38 564.33 1844.28 564.33 M 1844.58 561.35 1874.08 561.35 M 1873.78 558.36 1844.89 558.36 M 1845.19 555.38 1873.47 555.38 M 1873.17 552.39 1845.49 552.39 M 1845.79 549.41 1872.87 549.41 M 1872.56 546.42 1846.1 546.42 M 1846.4 543.44 1872.26 543.44 M 1871.96 540.45 1846.7 540.45 M 1847.01 537.47 1871.65 537.47 M 1871.35 534.48 1847.31 534.48 M 1818.27 570.3 1782.8 570.3 M 1785.78 567.32 1814.61 567.32 M 1810.95 564.33 1788.77 564.33 M 1791.75 561.35 1807.29 561.35 M 1803.63 558.36 1794.74 558.36 M 1797.72 555.38 1799.97 555.38 M 1798.3 603.14 1848.9 603.14 M 1842.8 606.12 1796.78 606.12 M 1795.83 609.11 1838.95 609.11 M 1835.96 612.1 1794.87 612.1 M 1793.92 615.08 1833.72 615.08 M 1832.04 618.07 1780.03 618.07 M 1761.64 621.05 1830.64 621.05 M 1829.76 624.04 1761.64 624.04 M 1761.64 627.02 1829.05 627.02 M 1828.78 630.01 1761.64 630.01 M 1761.64 632.99 1828.69 632.99 M 1828.97 635.98 1761.64 635.98 M 1761.64 638.96 1829.51 638.96 M 1830.38 641.95 1761.64 641.95 M 1771.55 644.93 1831.58 644.93 M 1833.22 647.92 1793.64 647.92 M 1794.6 650.9 1835.21 650.9 M 1838.02 653.89 1795.55 653.89 M 1796.51 656.87 1841.55 656.87 M 1846.7 659.86 1797.86 659.86 M 1895.67 689.71 1934.59 689.71 M 1936.72 692.69 1899.33 692.69 M 1902.99 695.68 1933.74 695.68 M 1930.75 698.66 1906.65 698.66 M 1910.31 701.65 1927.77 701.65 M 1924.78 704.63 1913.98 704.63 M 1917.64 707.62 1921.8 707.62" fill="none" stroke-width="3"/></g><g id="IK9_aendlzY0n-if4h5p_top_drill1"><use xlink:href="#IvsMyoCRcfuWORcyOP4x_pad-1" x="914.3" y="676.7"/><use xlink:href="#IvsMyoCRcfuWORcyOP4x_pad-1" x="1089.3" y="726.7"/><use xlink:href="#IvsMyoCRcfuWORcyOP4x_pad-1" x="1239.3" y="726.7"/><use xlink:href="#IvsMyoCRcfuWORcyOP4x_pad-1" x="1189.3" y="901.7"/><use xlink:href="#IvsMyoCRcfuWORcyOP4x_pad-1" x="1354.3" y="901.7"/><use xlink:href="#IvsMyoCRcfuWORcyOP4x_pad-1" x="1439.3" y="901.7"/><use xlink:href="#IvsMyoCRcfuWORcyOP4x_pad-1" x="1524.3" y="901.7"/><use xlink:href="#IvsMyoCRcfuWORcyOP4x_pad-1" x="1719.3" y="801.7"/><use xlink:href="#IvsMyoCRcfuWORcyOP4x_pad-1" x="1719.3" y="751.7"/><use xlink:href="#IvsMyoCRcfuWORcyOP4x_pad-1" x="1814.3" y="739.3"/><use xlink:href="#IvsMyoCRcfuWORcyOP4x_pad-1" x="1914.3" y="739.3"/><use xlink:href="#IvsMyoCRcfuWORcyOP4x_pad-1" x="949.3" y="971.7"/><use xlink:href="#IvsMyoCRcfuWORcyOP4x_pad-1" x="899.3" y="1101.7"/><use xlink:href="#IvsMyoCRcfuWORcyOP4x_pad-2" x="989.3" y="451.7"/><use xlink:href="#IvsMyoCRcfuWORcyOP4x_pad-2" x="1089.3" y="451.7"/><use xlink:href="#IvsMyoCRcfuWORcyOP4x_pad-2" x="1189.3" y="451.7"/><use xlink:href="#IvsMyoCRcfuWORcyOP4x_pad-2" x="1289.3" y="451.7"/><use xlink:href="#IvsMyoCRcfuWORcyOP4x_pad-2" x="1489.3" y="451.7"/><use xlink:href="#IvsMyoCRcfuWORcyOP4x_pad-2" x="1589.3" y="451.7"/><use xlink:href="#IvsMyoCRcfuWORcyOP4x_pad-2" x="1689.3" y="451.7"/><use xlink:href="#IvsMyoCRcfuWORcyOP4x_pad-2" x="814.3" y="758"/><use xlink:href="#IvsMyoCRcfuWORcyOP4x_pad-2" x="714.3" y="758"/><use xlink:href="#IvsMyoCRcfuWORcyOP4x_pad-3" x="561.2" y="561.2"/><use xlink:href="#IvsMyoCRcfuWORcyOP4x_pad-3" x="561.2" y="954.9"/><use xlink:href="#IvsMyoCRcfuWORcyOP4x_pad-3" x="2136" y="954.9"/><use xlink:href="#IvsMyoCRcfuWORcyOP4x_pad-3" x="2136" y="561.2"/></g><clipPath id="IK9_aendlzY0n-if4h5p_top_outline"><path d="M 443.07 364.33 2254.09 364.33 2255.99 364.35 2257.89 364.42 2259.79 364.54 2261.69 364.7 2263.58 364.9 2265.47 365.16 2267.35 365.45 2269.22 365.8 2271.08 366.19 2272.93 366.62 2274.78 367.1 2276.61 367.62 2278.42 368.18 2280.22 368.79 2282.01 369.45 2283.78 370.14 2285.54 370.88 2287.27 371.66 2288.99 372.49 2290.68 373.35 2292.36 374.25 2294.01 375.2 2295.64 376.18 2297.24 377.21 2298.82 378.27 2300.37 379.37 2301.9 380.5 2303.4 381.68 2304.86 382.89 2306.3 384.13 2307.71 385.41 2309.09 386.72 2310.44 388.07 2311.75 389.45 2313.03 390.86 2314.27 392.3 2315.48 393.76 2316.66 395.26 2317.79 396.79 2318.89 398.34 2319.95 399.92 2320.98 401.52 2321.96 403.15 2322.91 404.8 2323.81 406.48 2324.67 408.17 2325.5 409.89 2326.28 411.62 2327.02 413.38 2327.71 415.15 2328.37 416.94 2328.98 418.74 2329.54 420.55 2330.06 422.38 2330.54 424.23 2330.97 426.08 2331.36 427.94 2331.71 429.81 2332 431.69 2332.26 433.58 2332.46 435.47 2332.62 437.37 2332.74 439.27 2332.81 441.17 2332.83 443.07 2332.83 1072.99 2332.81 1074.89 2332.74 1076.79 2332.62 1078.69 2332.46 1080.59 2332.26 1082.48 2332 1084.37 2331.71 1086.25 2331.36 1088.12 2330.97 1089.98 2330.54 1091.83 2330.06 1093.68 2329.54 1095.51 2328.98 1097.32 2328.37 1099.12 2327.71 1100.91 2327.02 1102.68 2326.28 1104.44 2325.5 1106.17 2324.67 1107.89 2323.81 1109.58 2322.91 1111.26 2321.96 1112.91 2320.98 1114.54 2319.95 1116.14 2318.89 1117.72 2317.79 1119.27 2316.66 1120.8 2315.48 1122.3 2314.27 1123.76 2313.03 1125.2 2311.75 1126.61 2310.44 1127.99 2309.09 1129.34 2307.71 1130.65 2306.3 1131.93 2304.86 1133.17 2303.4 1134.38 2301.9 1135.56 2300.37 1136.69 2298.82 1137.79 2297.24 1138.85 2295.64 1139.88 2294.01 1140.86 2292.36 1141.81 2290.68 1142.71 2288.99 1143.57 2287.27 1144.4 2285.54 1145.18 2283.78 1145.92 2282.01 1146.61 2280.22 1147.27 2278.42 1147.88 2276.61 1148.44 2274.78 1148.96 2272.93 1149.44 2271.08 1149.87 2269.22 1150.26 2267.35 1150.61 2265.47 1150.9 2263.58 1151.16 2261.69 1151.36 2259.79 1151.52 2257.89 1151.64 2255.99 1151.71 2254.09 1151.73 443.07 1151.73 441.17 1151.71 439.27 1151.64 437.37 1151.52 435.47 1151.36 433.58 1151.16 431.69 1150.9 429.81 1150.61 427.94 1150.26 426.08 1149.87 424.23 1149.44 422.38 1148.96 420.55 1148.44 418.74 1147.88 416.94 1147.27 415.15 1146.61 413.38 1145.92 411.62 1145.18 409.89 1144.4 408.17 1143.57 406.48 1142.71 404.8 1141.81 403.15 1140.86 401.52 1139.88 399.92 1138.85 398.34 1137.79 396.79 1136.69 395.26 1135.56 393.76 1134.38 392.3 1133.17 390.86 1131.93 389.45 1130.65 388.07 1129.34 386.72 1127.99 385.41 1126.61 384.13 1125.2 382.89 1123.76 381.68 1122.3 380.5 1120.8 379.37 1119.27 378.27 1117.72 377.21 1116.14 376.18 1114.54 375.2 1112.91 374.25 1111.26 373.35 1109.58 372.49 1107.89 371.66 1106.17 370.88 1104.44 370.14 1102.68 369.45 1100.91 368.79 1099.12 368.18 1097.32 367.62 1095.51 367.1 1093.68 366.62 1091.83 366.19 1089.98 365.8 1088.12 365.45 1086.25 365.16 1084.37 364.9 1082.48 364.7 1080.59 364.54 1078.69 364.42 1076.79 364.35 1074.89 364.33 1072.99 364.33 443.07 364.35 441.17 364.42 439.27 364.54 437.37 364.7 435.47 364.9 433.58 365.16 431.69 365.45 429.81 365.8 427.94 366.19 426.08 366.62 424.23 367.1 422.38 367.62 420.55 368.18 418.74 368.79 416.94 369.45 415.15 370.14 413.38 370.88 411.62 371.66 409.89 372.49 408.17 373.35 406.48 374.25 404.8 375.2 403.15 376.18 401.52 377.21 399.92 378.27 398.34 379.37 396.79 380.5 395.26 381.68 393.76 382.89 392.3 384.13 390.86 385.41 389.45 386.72 388.07 388.07 386.72 389.45 385.41 390.86 384.13 392.3 382.89 393.76 381.68 395.26 380.5 396.79 379.37 398.34 378.27 399.92 377.21 401.52 376.18 403.15 375.2 404.8 374.25 406.48 373.35 408.17 372.49 409.89 371.66 411.62 370.88 413.38 370.14 415.15 369.45 416.94 368.79 418.74 368.18 420.55 367.62 422.38 367.1 424.23 366.62 426.08 366.19 427.94 365.8 429.81 365.45 431.69 365.16 433.58 364.9 435.47 364.7 437.37 364.54 439.27 364.42 441.17 364.35 443.07 364.33 M 482.44 561.18 482.46 563.11 482.53 565.04 482.65 566.97 482.82 568.9 483.03 570.82 483.29 572.73 483.6 574.64 483.95 576.54 484.35 578.43 484.8 580.31 485.29 582.18 485.83 584.04 486.41 585.88 487.04 587.71 487.72 589.52 488.43 591.31 489.2 593.09 490 594.85 490.85 596.58 491.74 598.3 492.67 599.99 493.64 601.66 494.66 603.31 495.71 604.93 496.8 606.52 497.94 608.09 499.11 609.62 500.31 611.13 501.56 612.61 502.84 614.06 504.15 615.47 505.5 616.86 506.89 618.21 508.3 619.52 509.75 620.8 511.23 622.05 512.74 623.25 514.27 624.42 515.84 625.56 517.43 626.65 519.05 627.7 520.7 628.72 522.37 629.69 524.06 630.62 525.78 631.51 527.51 632.36 529.27 633.16 531.05 633.93 532.84 634.64 534.65 635.32 536.48 635.95 538.32 636.53 540.18 637.07 542.05 637.56 543.93 638.01 545.82 638.41 547.72 638.76 549.63 639.07 551.54 639.33 553.46 639.54 555.39 639.71 557.32 639.83 559.25 639.9 561.18 639.92 563.11 639.9 565.04 639.83 566.97 639.71 568.9 639.54 570.82 639.33 572.73 639.07 574.64 638.76 576.54 638.41 578.43 638.01 580.31 637.56 582.18 637.07 584.04 636.53 585.88 635.95 587.71 635.32 589.52 634.64 591.31 633.93 593.09 633.16 594.85 632.36 596.58 631.51 598.3 630.62 599.99 629.69 601.66 628.72 603.31 627.7 604.93 626.65 606.52 625.56 608.09 624.42 609.62 623.25 611.13 622.05 612.61 620.8 614.06 619.52 615.47 618.21 616.86 616.86 618.21 615.47 619.52 614.06 620.8 612.61 622.05 611.13 623.25 609.62 624.42 608.09 625.56 606.52 626.65 604.93 627.7 603.31 628.72 601.66 629.69 599.99 630.62 598.3 631.51 596.58 632.36 594.85 633.16 593.09 633.93 591.31 634.64 589.52 635.32 587.71 635.95 585.88 636.53 584.04 637.07 582.18 637.56 580.31 638.01 578.43 638.41 576.54 638.76 574.64 639.07 572.73 639.33 570.82 639.54 568.9 639.71 566.97 639.83 565.04 639.9 563.11 639.92 561.18 639.9 559.25 639.83 557.32 639.71 555.39 639.54 553.46 639.33 551.54 639.07 549.63 638.76 547.72 638.41 545.82 638.01 543.93 637.56 542.05 637.07 540.18 636.53 538.32 635.95 536.48 635.32 534.65 634.64 532.84 633.93 531.05 633.16 529.27 632.36 527.51 631.51 525.78 630.62 524.06 629.69 522.37 628.72 520.7 627.7 519.05 626.65 517.43 625.56 515.84 624.42 514.27 623.25 512.74 622.05 511.23 620.8 509.75 619.52 508.3 618.21 506.89 616.86 505.5 615.47 504.15 614.06 502.84 612.61 501.56 611.13 500.31 609.62 499.11 608.09 497.94 606.52 496.8 604.93 495.71 603.31 494.66 601.66 493.64 599.99 492.67 598.3 491.74 596.58 490.85 594.85 490 593.09 489.2 591.31 488.43 589.52 487.72 587.71 487.04 585.88 486.41 584.04 485.83 582.18 485.29 580.31 484.8 578.43 484.35 576.54 483.95 574.64 483.6 572.73 483.29 570.82 483.03 568.9 482.82 566.97 482.65 565.04 482.53 563.11 482.46 561.18 482.44 559.25 482.46 557.32 482.53 555.39 482.65 553.46 482.82 551.54 483.03 549.63 483.29 547.72 483.6 545.82 483.95 543.93 484.35 542.05 484.8 540.18 485.29 538.32 485.83 536.48 486.41 534.65 487.04 532.84 487.72 531.05 488.43 529.27 489.2 527.51 490 525.78 490.85 524.06 491.74 522.37 492.67 520.7 493.64 519.05 494.66 517.43 495.71 515.84 496.8 514.27 497.94 512.74 499.11 511.23 500.31 509.75 501.56 508.3 502.84 506.89 504.15 505.5 505.5 504.15 506.89 502.84 508.3 501.56 509.75 500.31 511.23 499.11 512.74 497.94 514.27 496.8 515.84 495.71 517.43 494.66 519.05 493.64 520.7 492.67 522.37 491.74 524.06 490.85 525.78 490 527.51 489.2 529.27 488.43 531.05 487.72 532.84 487.04 534.65 486.41 536.48 485.83 538.32 485.29 540.18 484.8 542.05 484.35 543.93 483.95 545.82 483.6 547.72 483.29 549.63 483.03 551.54 482.82 553.46 482.65 555.39 482.53 557.32 482.46 559.25 482.44 561.18 M 482.44 954.88 482.46 956.81 482.53 958.74 482.65 960.67 482.82 962.6 483.03 964.52 483.29 966.43 483.6 968.34 483.95 970.24 484.35 972.13 484.8 974.01 485.29 975.88 485.83 977.74 486.41 979.58 487.04 981.41 487.72 983.22 488.43 985.01 489.2 986.79 490 988.55 490.85 990.28 491.74 992 492.67 993.69 493.64 995.36 494.66 997.01 495.71 998.63 496.8 1000.22 497.94 1001.79 499.11 1003.32 500.31 1004.83 501.56 1006.31 502.84 1007.76 504.15 1009.17 505.5 1010.56 506.89 1011.91 508.3 1013.22 509.75 1014.5 511.23 1015.75 512.74 1016.95 514.27 1018.12 515.84 1019.26 517.43 1020.35 519.05 1021.4 520.7 1022.42 522.37 1023.39 524.06 1024.32 525.78 1025.21 527.51 1026.06 529.27 1026.86 531.05 1027.63 532.84 1028.34 534.65 1029.02 536.48 1029.65 538.32 1030.23 540.18 1030.77 542.05 1031.26 543.93 1031.71 545.82 1032.11 547.72 1032.46 549.63 1032.77 551.54 1033.03 553.46 1033.24 555.39 1033.41 557.32 1033.53 559.25 1033.6 561.18 1033.62 563.11 1033.6 565.04 1033.53 566.97 1033.41 568.9 1033.24 570.82 1033.03 572.73 1032.77 574.64 1032.46 576.54 1032.11 578.43 1031.71 580.31 1031.26 582.18 1030.77 584.04 1030.23 585.88 1029.65 587.71 1029.02 589.52 1028.34 591.31 1027.63 593.09 1026.86 594.85 1026.06 596.58 1025.21 598.3 1024.32 599.99 1023.39 601.66 1022.42 603.31 1021.4 604.93 1020.35 606.52 1019.26 608.09 1018.12 609.62 1016.95 611.13 1015.75 612.61 1014.5 614.06 1013.22 615.47 1011.91 616.86 1010.56 618.21 1009.17 619.52 1007.76 620.8 1006.31 622.05 1004.83 623.25 1003.32 624.42 1001.79 625.56 1000.22 626.65 998.63 627.7 997.01 628.72 995.36 629.69 993.69 630.62 992 631.51 990.28 632.36 988.55 633.16 986.79 633.93 985.01 634.64 983.22 635.32 981.41 635.95 979.58 636.53 977.74 637.07 975.88 637.56 974.01 638.01 972.13 638.41 970.24 638.76 968.34 639.07 966.43 639.33 964.52 639.54 962.6 639.71 960.67 639.83 958.74 639.9 956.81 639.92 954.88 639.9 952.95 639.83 951.02 639.71 949.09 639.54 947.16 639.33 945.24 639.07 943.33 638.76 941.42 638.41 939.52 638.01 937.63 637.56 935.75 637.07 933.88 636.53 932.02 635.95 930.18 635.32 928.35 634.64 926.54 633.93 924.75 633.16 922.97 632.36 921.21 631.51 919.48 630.62 917.76 629.69 916.07 628.72 914.4 627.7 912.75 626.65 911.13 625.56 909.54 624.42 907.97 623.25 906.44 622.05 904.93 620.8 903.45 619.52 902 618.21 900.59 616.86 899.2 615.47 897.85 614.06 896.54 612.61 895.26 611.13 894.01 609.62 892.81 608.09 891.64 606.52 890.5 604.93 889.41 603.31 888.36 601.66 887.34 599.99 886.37 598.3 885.44 596.58 884.55 594.85 883.7 593.09 882.9 591.31 882.13 589.52 881.42 587.71 880.74 585.88 880.11 584.04 879.53 582.18 878.99 580.31 878.5 578.43 878.05 576.54 877.65 574.64 877.3 572.73 876.99 570.82 876.73 568.9 876.52 566.97 876.35 565.04 876.23 563.11 876.16 561.18 876.14 559.25 876.16 557.32 876.23 555.39 876.35 553.46 876.52 551.54 876.73 549.63 876.99 547.72 877.3 545.82 877.65 543.93 878.05 542.05 878.5 540.18 878.99 538.32 879.53 536.48 880.11 534.65 880.74 532.84 881.42 531.05 882.13 529.27 882.9 527.51 883.7 525.78 884.55 524.06 885.44 522.37 886.37 520.7 887.34 519.05 888.36 517.43 889.41 515.84 890.5 514.27 891.64 512.74 892.81 511.23 894.01 509.75 895.26 508.3 896.54 506.89 897.85 505.5 899.2 504.15 900.59 502.84 902 501.56 903.45 500.31 904.93 499.11 906.44 497.94 907.97 496.8 909.54 495.71 911.13 494.66 912.75 493.64 914.4 492.67 916.07 491.74 917.76 490.85 919.48 490 921.21 489.2 922.97 488.43 924.75 487.72 926.54 487.04 928.35 486.41 930.18 485.83 932.02 485.29 933.88 484.8 935.75 484.35 937.63 483.95 939.52 483.6 941.42 483.29 943.33 483.03 945.24 482.82 947.16 482.65 949.09 482.53 951.02 482.46 952.95 482.44 954.88 M 2057.24 954.88 2057.26 956.81 2057.33 958.74 2057.45 960.67 2057.62 962.6 2057.83 964.52 2058.09 966.43 2058.4 968.34 2058.75 970.24 2059.15 972.13 2059.6 974.01 2060.09 975.88 2060.63 977.74 2061.21 979.58 2061.84 981.41 2062.52 983.22 2063.23 985.01 2064 986.79 2064.8 988.55 2065.65 990.28 2066.54 992 2067.47 993.69 2068.44 995.36 2069.46 997.01 2070.51 998.63 2071.6 1000.22 2072.74 1001.79 2073.91 1003.32 2075.11 1004.83 2076.36 1006.31 2077.64 1007.76 2078.95 1009.17 2080.3 1010.56 2081.69 1011.91 2083.1 1013.22 2084.55 1014.5 2086.03 1015.75 2087.54 1016.95 2089.07 1018.12 2090.64 1019.26 2092.23 1020.35 2093.85 1021.4 2095.5 1022.42 2097.17 1023.39 2098.86 1024.32 2100.58 1025.21 2102.31 1026.06 2104.07 1026.86 2105.85 1027.63 2107.64 1028.34 2109.45 1029.02 2111.28 1029.65 2113.12 1030.23 2114.98 1030.77 2116.85 1031.26 2118.73 1031.71 2120.62 1032.11 2122.52 1032.46 2124.43 1032.77 2126.34 1033.03 2128.26 1033.24 2130.19 1033.41 2132.12 1033.53 2134.05 1033.6 2135.98 1033.62 2137.91 1033.6 2139.84 1033.53 2141.77 1033.41 2143.7 1033.24 2145.62 1033.03 2147.53 1032.77 2149.44 1032.46 2151.34 1032.11 2153.23 1031.71 2155.11 1031.26 2156.98 1030.77 2158.84 1030.23 2160.68 1029.65 2162.51 1029.02 2164.32 1028.34 2166.11 1027.63 2167.89 1026.86 2169.65 1026.06 2171.38 1025.21 2173.1 1024.32 2174.79 1023.39 2176.46 1022.42 2178.11 1021.4 2179.73 1020.35 2181.32 1019.26 2182.89 1018.12 2184.42 1016.95 2185.93 1015.75 2187.41 1014.5 2188.86 1013.22 2190.27 1011.91 2191.66 1010.56 2193.01 1009.17 2194.32 1007.76 2195.6 1006.31 2196.85 1004.83 2198.05 1003.32 2199.22 1001.79 2200.36 1000.22 2201.45 998.63 2202.5 997.01 2203.52 995.36 2204.49 993.69 2205.42 992 2206.31 990.28 2207.16 988.55 2207.96 986.79 2208.73 985.01 2209.44 983.22 2210.12 981.41 2210.75 979.58 2211.33 977.74 2211.87 975.88 2212.36 974.01 2212.81 972.13 2213.21 970.24 2213.56 968.34 2213.87 966.43 2214.13 964.52 2214.34 962.6 2214.51 960.67 2214.63 958.74 2214.7 956.81 2214.72 954.88 2214.7 952.95 2214.63 951.02 2214.51 949.09 2214.34 947.16 2214.13 945.24 2213.87 943.33 2213.56 941.42 2213.21 939.52 2212.81 937.63 2212.36 935.75 2211.87 933.88 2211.33 932.02 2210.75 930.18 2210.12 928.35 2209.44 926.54 2208.73 924.75 2207.96 922.97 2207.16 921.21 2206.31 919.48 2205.42 917.76 2204.49 916.07 2203.52 914.4 2202.5 912.75 2201.45 911.13 2200.36 909.54 2199.22 907.97 2198.05 906.44 2196.85 904.93 2195.6 903.45 2194.32 902 2193.01 900.59 2191.66 899.2 2190.27 897.85 2188.86 896.54 2187.41 895.26 2185.93 894.01 2184.42 892.81 2182.89 891.64 2181.32 890.5 2179.73 889.41 2178.11 888.36 2176.46 887.34 2174.79 886.37 2173.1 885.44 2171.38 884.55 2169.65 883.7 2167.89 882.9 2166.11 882.13 2164.32 881.42 2162.51 880.74 2160.68 880.11 2158.84 879.53 2156.98 878.99 2155.11 878.5 2153.23 878.05 2151.34 877.65 2149.44 877.3 2147.53 876.99 2145.62 876.73 2143.7 876.52 2141.77 876.35 2139.84 876.23 2137.91 876.16 2135.98 876.14 2134.05 876.16 2132.12 876.23 2130.19 876.35 2128.26 876.52 2126.34 876.73 2124.43 876.99 2122.52 877.3 2120.62 877.65 2118.73 878.05 2116.85 878.5 2114.98 878.99 2113.12 879.53 2111.28 880.11 2109.45 880.74 2107.64 881.42 2105.85 882.13 2104.07 882.9 2102.31 883.7 2100.58 884.55 2098.86 885.44 2097.17 886.37 2095.5 887.34 2093.85 888.36 2092.23 889.41 2090.64 890.5 2089.07 891.64 2087.54 892.81 2086.03 894.01 2084.55 895.26 2083.1 896.54 2081.69 897.85 2080.3 899.2 2078.95 900.59 2077.64 902 2076.36 903.45 2075.11 904.93 2073.91 906.44 2072.74 907.97 2071.6 909.54 2070.51 911.13 2069.46 912.75 2068.44 914.4 2067.47 916.07 2066.54 917.76 2065.65 919.48 2064.8 921.21 2064 922.97 2063.23 924.75 2062.52 926.54 2061.84 928.35 2061.21 930.18 2060.63 932.02 2060.09 933.88 2059.6 935.75 2059.15 937.63 2058.75 939.52 2058.4 941.42 2058.09 943.33 2057.83 945.24 2057.62 947.16 2057.45 949.09 2057.33 951.02 2057.26 952.95 2057.24 954.88 M 2057.24 561.18 2057.26 563.11 2057.33 565.04 2057.45 566.97 2057.62 568.9 2057.83 570.82 2058.09 572.73 2058.4 574.64 2058.75 576.54 2059.15 578.43 2059.6 580.31 2060.09 582.18 2060.63 584.04 2061.21 585.88 2061.84 587.71 2062.52 589.52 2063.23 591.31 2064 593.09 2064.8 594.85 2065.65 596.58 2066.54 598.3 2067.47 599.99 2068.44 601.66 2069.46 603.31 2070.51 604.93 2071.6 606.52 2072.74 608.09 2073.91 609.62 2075.11 611.13 2076.36 612.61 2077.64 614.06 2078.95 615.47 2080.3 616.86 2081.69 618.21 2083.1 619.52 2084.55 620.8 2086.03 622.05 2087.54 623.25 2089.07 624.42 2090.64 625.56 2092.23 626.65 2093.85 627.7 2095.5 628.72 2097.17 629.69 2098.86 630.62 2100.58 631.51 2102.31 632.36 2104.07 633.16 2105.85 633.93 2107.64 634.64 2109.45 635.32 2111.28 635.95 2113.12 636.53 2114.98 637.07 2116.85 637.56 2118.73 638.01 2120.62 638.41 2122.52 638.76 2124.43 639.07 2126.34 639.33 2128.26 639.54 2130.19 639.71 2132.12 639.83 2134.05 639.9 2135.98 639.92 2137.91 639.9 2139.84 639.83 2141.77 639.71 2143.7 639.54 2145.62 639.33 2147.53 639.07 2149.44 638.76 2151.34 638.41 2153.23 638.01 2155.11 637.56 2156.98 637.07 2158.84 636.53 2160.68 635.95 2162.51 635.32 2164.32 634.64 2166.11 633.93 2167.89 633.16 2169.65 632.36 2171.38 631.51 2173.1 630.62 2174.79 629.69 2176.46 628.72 2178.11 627.7 2179.73 626.65 2181.32 625.56 2182.89 624.42 2184.42 623.25 2185.93 622.05 2187.41 620.8 2188.86 619.52 2190.27 618.21 2191.66 616.86 2193.01 615.47 2194.32 614.06 2195.6 612.61 2196.85 611.13 2198.05 609.62 2199.22 608.09 2200.36 606.52 2201.45 604.93 2202.5 603.31 2203.52 601.66 2204.49 599.99 2205.42 598.3 2206.31 596.58 2207.16 594.85 2207.96 593.09 2208.73 591.31 2209.44 589.52 2210.12 587.71 2210.75 585.88 2211.33 584.04 2211.87 582.18 2212.36 580.31 2212.81 578.43 2213.21 576.54 2213.56 574.64 2213.87 572.73 2214.13 570.82 2214.34 568.9 2214.51 566.97 2214.63 565.04 2214.7 563.11 2214.72 561.18 2214.7 559.25 2214.63 557.32 2214.51 555.39 2214.34 553.46 2214.13 551.54 2213.87 549.63 2213.56 547.72 2213.21 545.82 2212.81 543.93 2212.36 542.05 2211.87 540.18 2211.33 538.32 2210.75 536.48 2210.12 534.65 2209.44 532.84 2208.73 531.05 2207.96 529.27 2207.16 527.51 2206.31 525.78 2205.42 524.06 2204.49 522.37 2203.52 520.7 2202.5 519.05 2201.45 517.43 2200.36 515.84 2199.22 514.27 2198.05 512.74 2196.85 511.23 2195.6 509.75 2194.32 508.3 2193.01 506.89 2191.66 505.5 2190.27 504.15 2188.86 502.84 2187.41 501.56 2185.93 500.31 2184.42 499.11 2182.89 497.94 2181.32 496.8 2179.73 495.71 2178.11 494.66 2176.46 493.64 2174.79 492.67 2173.1 491.74 2171.38 490.85 2169.65 490 2167.89 489.2 2166.11 488.43 2164.32 487.72 2162.51 487.04 2160.68 486.41 2158.84 485.83 2156.98 485.29 2155.11 484.8 2153.23 484.35 2151.34 483.95 2149.44 483.6 2147.53 483.29 2145.62 483.03 2143.7 482.82 2141.77 482.65 2139.84 482.53 2137.91 482.46 2135.98 482.44 2134.05 482.46 2132.12 482.53 2130.19 482.65 2128.26 482.82 2126.34 483.03 2124.43 483.29 2122.52 483.6 2120.62 483.95 2118.73 484.35 2116.85 484.8 2114.98 485.29 2113.12 485.83 2111.28 486.41 2109.45 487.04 2107.64 487.72 2105.85 488.43 2104.07 489.2 2102.31 490 2100.58 490.85 2098.86 491.74 2097.17 492.67 2095.5 493.64 2093.85 494.66 2092.23 495.71 2090.64 496.8 2089.07 497.94 2087.54 499.11 2086.03 500.31 2084.55 501.56 2083.1 502.84 2081.69 504.15 2080.3 505.5 2078.95 506.89 2077.64 508.3 2076.36 509.75 2075.11 511.23 2073.91 512.74 2072.74 514.27 2071.6 515.84 2070.51 517.43 2069.46 519.05 2068.44 520.7 2067.47 522.37 2066.54 524.06 2065.65 525.78 2064.8 527.51 2064 529.27 2063.23 531.05 2062.52 532.84 2061.84 534.65 2061.21 536.48 2060.63 538.32 2060.09 540.18 2059.6 542.05 2059.15 543.93 2058.75 545.82 2058.4 547.72 2058.09 549.63 2057.83 551.54 2057.62 553.46 2057.45 555.39 2057.33 557.32 2057.26 559.25 2057.24 561.18" fill="none" stroke-width="0"/></clipPath><mask id="IK9_aendlzY0n-if4h5p_top_mech-mask"><g fill="#000" stroke="#000"><rect x="364.33" y="364.33" width="1968.5" height="787.4" fill="#fff"/><use xlink:href="#IK9_aendlzY0n-if4h5p_top_drill1"/></g></mask><mask id="IK9_aendlzY0n-if4h5p_top_cf-mask"><g fill="#fff" stroke="#fff"><use xlink:href="#IK9_aendlzY0n-if4h5p_top_soldermask"/></g></mask><mask id="IK9_aendlzY0n-if4h5p_top_sm-mask"><g fill="#000" stroke="#000"><rect x="364.33" y="364.33" width="1968.5" height="787.4" fill="#fff"/><use xlink:href="#IK9_aendlzY0n-if4h5p_top_soldermask"/></g></mask></defs><g transform="translate(0,1516.06) scale(1,-1)"><g mask="url(#IK9_aendlzY0n-if4h5p_top_mech-mask)" clip-path="url(#IK9_aendlzY0n-if4h5p_top_outline)"><rect x="364.33" y="364.33" width="1968.5" height="787.4" fill="currentColor" class="IK9_aendlzY0n-if4h5p_fr4"/><use xlink:href="#IK9_aendlzY0n-if4h5p_top_copper" fill="currentColor" stroke="currentColor" class="IK9_aendlzY0n-if4h5p_cu"/><use xlink:href="#IK9_aendlzY0n-if4h5p_top_copper" fill="currentColor" stroke="currentColor" class="IK9_aendlzY0n-if4h5p_cf" mask="url(#IK9_aendlzY0n-if4h5p_top_cf-mask)"/><g mask="url(#IK9_aendlzY0n-if4h5p_top_sm-mask)"><rect x="364.33" y="364.33" width="1968.5" height="787.4" fill="currentColor" class="IK9_aendlzY0n-if4h5p_sm"/><use xlink:href="#IK9_aendlzY0n-if4h5p_top_silkscreen" fill="currentColor" stroke="currentColor" class="IK9_aendlzY0n-if4h5p_ss"/></g></g></g></svg>