G75*
%MOIN*%
%OFA0B0*%
%FSLAX25Y25*%
%IPPOS*%
%LPD*%
%AMOC8*
5,1,8,0,0,1.08239X$1,22.5*
%
%ADD10C,0.00800*%
%ADD11C,0.00700*%
%ADD12C,0.00300*%
D10*
X0074177Y0041034D02*
X0074878Y0040333D01*
X0076279Y0040333D01*
X0076980Y0041034D01*
X0076980Y0044537D01*
X0078781Y0043135D02*
X0080182Y0044537D01*
X0081583Y0043135D01*
X0081583Y0040333D01*
X0083385Y0040333D02*
X0083385Y0044537D01*
X0085487Y0044537D01*
X0086187Y0043836D01*
X0086187Y0042435D01*
X0085487Y0041734D01*
X0083385Y0041734D01*
X0084786Y0041734D02*
X0086187Y0040333D01*
X0081583Y0042435D02*
X0078781Y0042435D01*
X0078781Y0043135D02*
X0078781Y0040333D01*
X0074177Y0041034D02*
X0074177Y0044537D01*
X0083385Y0047534D02*
X0084086Y0046833D01*
X0084786Y0046833D01*
X0085487Y0047534D01*
X0085487Y0051037D01*
X0086187Y0051037D02*
X0084786Y0051037D01*
X0087989Y0049635D02*
X0089390Y0051037D01*
X0089390Y0046833D01*
X0087989Y0046833D02*
X0090791Y0046833D01*
X0090791Y0044537D02*
X0087989Y0044537D01*
X0089390Y0044537D02*
X0089390Y0040333D01*
X0093933Y0040173D02*
X0093933Y0050173D01*
X0103933Y0050173D01*
X0103933Y0047673D01*
X0106433Y0050173D01*
X0111433Y0050173D01*
X0113933Y0047673D01*
X0116433Y0050173D01*
X0121433Y0050173D01*
X0123933Y0047673D01*
X0126433Y0050173D01*
X0131433Y0050173D01*
X0133933Y0047673D01*
X0133933Y0042673D01*
X0131433Y0040173D01*
X0126433Y0040173D01*
X0123933Y0042673D01*
X0123933Y0047673D01*
X0123933Y0042673D02*
X0121433Y0040173D01*
X0116433Y0040173D01*
X0113933Y0042673D01*
X0113933Y0047673D01*
X0113933Y0042673D02*
X0111433Y0040173D01*
X0106433Y0040173D01*
X0103933Y0042673D01*
X0103933Y0040173D01*
X0093933Y0040173D01*
X0103933Y0042673D02*
X0103933Y0047673D01*
X0108933Y0052933D02*
X0110433Y0054433D01*
X0108933Y0052933D02*
X0107433Y0054433D01*
X0108933Y0052933D02*
X0108933Y0056433D01*
X0106829Y0058573D02*
X0106829Y0061376D01*
X0106829Y0059974D02*
X0111033Y0059974D01*
X0111033Y0063177D02*
X0106829Y0065980D01*
X0106829Y0063177D02*
X0111033Y0065980D01*
X0116829Y0065980D02*
X0121033Y0063177D01*
X0121033Y0061376D02*
X0119632Y0059974D01*
X0119632Y0060675D02*
X0119632Y0058573D01*
X0121033Y0058573D02*
X0116829Y0058573D01*
X0116829Y0060675D01*
X0117530Y0061376D01*
X0118931Y0061376D01*
X0119632Y0060675D01*
X0116829Y0063177D02*
X0121033Y0065980D01*
X0126829Y0065083D02*
X0129632Y0065083D01*
X0131033Y0063682D01*
X0129632Y0062281D01*
X0126829Y0062281D01*
X0126829Y0060480D02*
X0126829Y0057677D01*
X0128931Y0057677D01*
X0128231Y0059078D01*
X0128231Y0059779D01*
X0128931Y0060480D01*
X0130332Y0060480D01*
X0131033Y0059779D01*
X0131033Y0058378D01*
X0130332Y0057677D01*
X0128931Y0055876D02*
X0128931Y0053073D01*
X0127530Y0054474D02*
X0130332Y0054474D01*
X0120433Y0054933D02*
X0118933Y0056433D01*
X0117433Y0054933D01*
X0118933Y0056433D02*
X0118933Y0052933D01*
X0101033Y0053774D02*
X0101033Y0055175D01*
X0100332Y0055876D01*
X0098931Y0055876D01*
X0098931Y0054474D01*
X0097530Y0053073D02*
X0100332Y0053073D01*
X0101033Y0053774D01*
X0097530Y0053073D02*
X0096829Y0053774D01*
X0096829Y0055175D01*
X0097530Y0055876D01*
X0096829Y0057677D02*
X0101033Y0060480D01*
X0096829Y0060480D01*
X0096829Y0057677D02*
X0101033Y0057677D01*
X0101033Y0062281D02*
X0096829Y0062281D01*
X0096829Y0064383D01*
X0097530Y0065083D01*
X0100332Y0065083D01*
X0101033Y0064383D01*
X0101033Y0062281D01*
X0086128Y0063203D02*
X0086128Y0067407D01*
X0083326Y0067407D02*
X0086128Y0063203D01*
X0083326Y0063203D02*
X0083326Y0067407D01*
X0081524Y0067407D02*
X0078722Y0067407D01*
X0078722Y0063203D01*
X0081524Y0063203D01*
X0080123Y0065305D02*
X0078722Y0065305D01*
X0076920Y0062503D02*
X0074118Y0062503D01*
X0070915Y0063203D02*
X0070915Y0067407D01*
X0069514Y0067407D02*
X0072317Y0067407D01*
X0076433Y0070803D02*
X0066433Y0070803D01*
X0066433Y0080803D01*
X0076433Y0080803D01*
X0076433Y0078303D01*
X0078933Y0080803D01*
X0083933Y0080803D01*
X0086433Y0078303D01*
X0086433Y0073303D01*
X0083933Y0070803D01*
X0078933Y0070803D01*
X0076433Y0073303D01*
X0076433Y0070803D01*
X0076433Y0073303D02*
X0076433Y0078303D01*
X0079715Y0083903D02*
X0080415Y0083903D01*
X0081116Y0084604D01*
X0081116Y0088107D01*
X0080415Y0088107D02*
X0081817Y0088107D01*
X0083618Y0087406D02*
X0084319Y0088107D01*
X0085720Y0088107D01*
X0086420Y0087406D01*
X0086420Y0086706D01*
X0085720Y0086005D01*
X0086420Y0085304D01*
X0086420Y0084604D01*
X0085720Y0083903D01*
X0084319Y0083903D01*
X0083618Y0084604D01*
X0085019Y0086005D02*
X0085720Y0086005D01*
X0079715Y0083903D02*
X0079014Y0084604D01*
X0100433Y0087673D02*
X0100433Y0092673D01*
X0107433Y0092673D02*
X0107433Y0087673D01*
X0110433Y0087673D02*
X0110433Y0092673D01*
X0117433Y0092673D02*
X0117433Y0087673D01*
X0120433Y0087673D02*
X0120433Y0092673D01*
X0127433Y0092673D02*
X0127433Y0087673D01*
X0130433Y0087673D02*
X0130433Y0092673D01*
X0137433Y0092673D02*
X0137433Y0087673D01*
X0140433Y0087673D02*
X0140433Y0092673D01*
X0147433Y0092673D02*
X0147433Y0087673D01*
X0150433Y0087673D02*
X0150433Y0092673D01*
X0157433Y0092673D02*
X0157433Y0087673D01*
X0160433Y0087673D02*
X0160433Y0092673D01*
X0167433Y0092673D02*
X0167433Y0087673D01*
X0166033Y0103093D02*
X0161829Y0103093D01*
X0161829Y0105195D01*
X0162530Y0105895D01*
X0163931Y0105895D01*
X0164632Y0105195D01*
X0164632Y0103093D01*
X0164632Y0104494D02*
X0166033Y0105895D01*
X0165332Y0107697D02*
X0166033Y0108397D01*
X0166033Y0109799D01*
X0165332Y0110499D01*
X0162530Y0110499D01*
X0161829Y0109799D01*
X0161829Y0108397D01*
X0162530Y0107697D01*
X0163231Y0107697D01*
X0163931Y0108397D01*
X0163931Y0110499D01*
X0156033Y0109799D02*
X0156033Y0108397D01*
X0155332Y0107697D01*
X0154632Y0107697D01*
X0153931Y0108397D01*
X0153931Y0109799D01*
X0154632Y0110499D01*
X0155332Y0110499D01*
X0156033Y0109799D01*
X0153931Y0109799D02*
X0153231Y0110499D01*
X0152530Y0110499D01*
X0151829Y0109799D01*
X0151829Y0108397D01*
X0152530Y0107697D01*
X0153231Y0107697D01*
X0153931Y0108397D01*
X0153931Y0105895D02*
X0152530Y0105895D01*
X0151829Y0105195D01*
X0151829Y0103093D01*
X0156033Y0103093D01*
X0154632Y0103093D02*
X0154632Y0105195D01*
X0153931Y0105895D01*
X0154632Y0104494D02*
X0156033Y0105895D01*
X0146033Y0105895D02*
X0144632Y0104494D01*
X0144632Y0105195D02*
X0144632Y0103093D01*
X0146033Y0103093D02*
X0141829Y0103093D01*
X0141829Y0105195D01*
X0142530Y0105895D01*
X0143931Y0105895D01*
X0144632Y0105195D01*
X0145332Y0107697D02*
X0146033Y0108397D01*
X0146033Y0109799D01*
X0145332Y0110499D01*
X0143931Y0110499D01*
X0143231Y0109799D01*
X0143231Y0109098D01*
X0143931Y0107697D01*
X0141829Y0107697D01*
X0141829Y0110499D01*
X0136033Y0109799D02*
X0136033Y0108397D01*
X0135332Y0107697D01*
X0133931Y0109098D02*
X0133931Y0109799D01*
X0134632Y0110499D01*
X0135332Y0110499D01*
X0136033Y0109799D01*
X0133931Y0109799D02*
X0133231Y0110499D01*
X0132530Y0110499D01*
X0131829Y0109799D01*
X0131829Y0108397D01*
X0132530Y0107697D01*
X0132530Y0105895D02*
X0131829Y0105195D01*
X0131829Y0103093D01*
X0136033Y0103093D01*
X0134632Y0103093D02*
X0134632Y0105195D01*
X0133931Y0105895D01*
X0132530Y0105895D01*
X0134632Y0104494D02*
X0136033Y0105895D01*
X0126033Y0105895D02*
X0124632Y0104494D01*
X0124632Y0105195D02*
X0124632Y0103093D01*
X0126033Y0103093D02*
X0121829Y0103093D01*
X0121829Y0105195D01*
X0122530Y0105895D01*
X0123931Y0105895D01*
X0124632Y0105195D01*
X0126033Y0107697D02*
X0126033Y0110499D01*
X0126033Y0109098D02*
X0121829Y0109098D01*
X0123231Y0107697D01*
X0116033Y0107697D02*
X0113231Y0110499D01*
X0112530Y0110499D01*
X0111829Y0109799D01*
X0111829Y0108397D01*
X0112530Y0107697D01*
X0112530Y0105895D02*
X0113931Y0105895D01*
X0114632Y0105195D01*
X0114632Y0103093D01*
X0116033Y0103093D02*
X0111829Y0103093D01*
X0111829Y0105195D01*
X0112530Y0105895D01*
X0114632Y0104494D02*
X0116033Y0105895D01*
X0116033Y0107697D02*
X0116033Y0110499D01*
X0106033Y0109799D02*
X0101829Y0109799D01*
X0103931Y0107697D01*
X0103931Y0110499D01*
X0103931Y0105895D02*
X0104632Y0105195D01*
X0104632Y0103093D01*
X0106033Y0103093D02*
X0101829Y0103093D01*
X0101829Y0105195D01*
X0102530Y0105895D01*
X0103931Y0105895D01*
X0104632Y0104494D02*
X0106033Y0105895D01*
X0148931Y0069687D02*
X0148931Y0066885D01*
X0147530Y0065083D02*
X0146829Y0064383D01*
X0146829Y0062281D01*
X0151033Y0062281D01*
X0151033Y0064383D01*
X0150332Y0065083D01*
X0147530Y0065083D01*
X0147530Y0060480D02*
X0146829Y0059779D01*
X0146829Y0058378D01*
X0147530Y0057677D01*
X0150332Y0057677D01*
X0151033Y0058378D01*
X0151033Y0059779D01*
X0150332Y0060480D01*
X0150332Y0055876D02*
X0151033Y0055175D01*
X0151033Y0053774D01*
X0150332Y0053073D01*
X0147530Y0053073D01*
X0146829Y0053774D01*
X0146829Y0055175D01*
X0147530Y0055876D01*
X0146433Y0050173D02*
X0151433Y0050173D01*
X0153933Y0047673D01*
X0153933Y0042673D01*
X0151433Y0040173D01*
X0146433Y0040173D01*
X0143933Y0042673D01*
X0143933Y0047673D01*
X0146433Y0050173D01*
X0153933Y0047673D02*
X0156433Y0050173D01*
X0161433Y0050173D01*
X0163933Y0047673D01*
X0163933Y0050173D01*
X0173933Y0050173D01*
X0173933Y0040173D01*
X0163933Y0040173D01*
X0163933Y0042673D01*
X0161433Y0040173D01*
X0156433Y0040173D01*
X0153933Y0042673D01*
X0163933Y0042673D02*
X0163933Y0047673D01*
X0167530Y0053073D02*
X0166829Y0053774D01*
X0166829Y0055175D01*
X0167530Y0055876D01*
X0168931Y0055876D02*
X0168931Y0054474D01*
X0168931Y0055876D02*
X0170332Y0055876D01*
X0171033Y0055175D01*
X0171033Y0053774D01*
X0170332Y0053073D01*
X0167530Y0053073D01*
X0166829Y0057677D02*
X0171033Y0060480D01*
X0166829Y0060480D01*
X0166829Y0057677D02*
X0171033Y0057677D01*
X0171033Y0062281D02*
X0166829Y0062281D01*
X0166829Y0064383D01*
X0167530Y0065083D01*
X0170332Y0065083D01*
X0171033Y0064383D01*
X0171033Y0062281D01*
X0161033Y0062281D02*
X0161033Y0064383D01*
X0160332Y0065083D01*
X0157530Y0065083D01*
X0156829Y0064383D01*
X0156829Y0062281D01*
X0161033Y0062281D01*
X0160332Y0060480D02*
X0161033Y0059779D01*
X0161033Y0058378D01*
X0160332Y0057677D01*
X0157530Y0057677D01*
X0156829Y0058378D01*
X0156829Y0059779D01*
X0157530Y0060480D01*
X0157530Y0055876D02*
X0156829Y0055175D01*
X0156829Y0053774D01*
X0157530Y0053073D01*
X0160332Y0053073D01*
X0161033Y0053774D01*
X0161033Y0055175D01*
X0160332Y0055876D01*
X0177073Y0047534D02*
X0177774Y0046833D01*
X0178474Y0046833D01*
X0179175Y0047534D01*
X0179175Y0051037D01*
X0178474Y0051037D02*
X0179876Y0051037D01*
X0181677Y0050336D02*
X0182378Y0051037D01*
X0183779Y0051037D01*
X0184480Y0050336D01*
X0184480Y0049635D01*
X0181677Y0046833D01*
X0184480Y0046833D01*
X0183779Y0044537D02*
X0181677Y0044537D01*
X0181677Y0040333D01*
X0183779Y0040333D01*
X0184480Y0041034D01*
X0184480Y0041734D01*
X0183779Y0042435D01*
X0181677Y0042435D01*
X0183779Y0042435D02*
X0184480Y0043135D01*
X0184480Y0043836D01*
X0183779Y0044537D01*
X0186281Y0044537D02*
X0188383Y0044537D01*
X0189083Y0043836D01*
X0189083Y0041034D01*
X0188383Y0040333D01*
X0186281Y0040333D01*
X0186281Y0044537D01*
X0179876Y0043836D02*
X0179876Y0041034D01*
X0179175Y0040333D01*
X0177774Y0040333D01*
X0177073Y0041034D01*
X0177073Y0043836D01*
X0177774Y0044537D01*
X0179175Y0044537D01*
X0179876Y0043836D01*
X0158931Y0066885D02*
X0158931Y0069687D01*
X0157530Y0068286D02*
X0160332Y0068286D01*
D11*
X0175127Y0075583D02*
X0175127Y0076663D01*
X0175667Y0077203D01*
X0175667Y0078668D02*
X0177827Y0078668D01*
X0178367Y0079208D01*
X0178367Y0080288D01*
X0177827Y0080828D01*
X0178367Y0082293D02*
X0175127Y0082293D01*
X0175127Y0083913D01*
X0175667Y0084453D01*
X0177827Y0084453D01*
X0178367Y0083913D01*
X0178367Y0082293D01*
X0181032Y0083373D02*
X0182112Y0084453D01*
X0184272Y0084453D01*
X0184272Y0085918D02*
X0181032Y0085918D01*
X0184272Y0088078D01*
X0181032Y0088078D01*
X0181572Y0089543D02*
X0182112Y0089543D01*
X0182652Y0090083D01*
X0182652Y0091163D01*
X0183192Y0091703D01*
X0183732Y0091703D01*
X0184272Y0091163D01*
X0184272Y0090083D01*
X0183732Y0089543D01*
X0181572Y0089543D02*
X0181032Y0090083D01*
X0181032Y0091163D01*
X0181572Y0091703D01*
X0181572Y0093169D02*
X0183732Y0093169D01*
X0184272Y0093709D01*
X0184272Y0094788D01*
X0183732Y0095328D01*
X0184272Y0096794D02*
X0181032Y0096794D01*
X0181032Y0098954D01*
X0181032Y0100419D02*
X0181032Y0101499D01*
X0181032Y0100959D02*
X0184272Y0100959D01*
X0184272Y0100419D02*
X0184272Y0101499D01*
X0183192Y0102836D02*
X0184272Y0103916D01*
X0183192Y0104995D01*
X0181032Y0104995D01*
X0181032Y0106461D02*
X0184272Y0106461D01*
X0184272Y0108621D01*
X0184272Y0110086D02*
X0181032Y0110086D01*
X0181032Y0111706D01*
X0181572Y0112246D01*
X0182652Y0112246D01*
X0183192Y0111706D01*
X0183192Y0110086D01*
X0183192Y0111166D02*
X0184272Y0112246D01*
X0181032Y0108621D02*
X0181032Y0106461D01*
X0182652Y0106461D02*
X0182652Y0107541D01*
X0186938Y0105664D02*
X0186938Y0104044D01*
X0190178Y0104044D01*
X0190178Y0105664D01*
X0189638Y0106204D01*
X0187478Y0106204D01*
X0186938Y0105664D01*
X0187478Y0102579D02*
X0188558Y0102579D01*
X0189098Y0102039D01*
X0189098Y0100419D01*
X0190178Y0100419D02*
X0186938Y0100419D01*
X0186938Y0102039D01*
X0187478Y0102579D01*
X0189098Y0101499D02*
X0190178Y0102579D01*
X0192843Y0100226D02*
X0192843Y0098606D01*
X0196083Y0098606D01*
X0196083Y0100226D01*
X0195543Y0100766D01*
X0193383Y0100766D01*
X0192843Y0100226D01*
X0190178Y0098954D02*
X0188018Y0098954D01*
X0186938Y0097874D01*
X0188018Y0096794D01*
X0190178Y0096794D01*
X0189638Y0095328D02*
X0187478Y0095328D01*
X0186938Y0094788D01*
X0186938Y0093709D01*
X0187478Y0093169D01*
X0189638Y0093169D01*
X0190178Y0093709D01*
X0190178Y0094788D01*
X0189638Y0095328D01*
X0188558Y0096794D02*
X0188558Y0098954D01*
X0184272Y0098954D02*
X0184272Y0096794D01*
X0182652Y0096794D02*
X0182652Y0097874D01*
X0178367Y0098414D02*
X0178367Y0097334D01*
X0177827Y0096794D01*
X0176747Y0097334D02*
X0176207Y0096794D01*
X0175667Y0096794D01*
X0175127Y0097334D01*
X0175127Y0098414D01*
X0175667Y0098954D01*
X0176747Y0098414D02*
X0177287Y0098954D01*
X0177827Y0098954D01*
X0178367Y0098414D01*
X0176747Y0098414D02*
X0176747Y0097334D01*
X0177827Y0095328D02*
X0175127Y0095328D01*
X0175127Y0093169D02*
X0177827Y0093169D01*
X0178367Y0093709D01*
X0178367Y0094788D01*
X0177827Y0095328D01*
X0181032Y0094788D02*
X0181032Y0093709D01*
X0181572Y0093169D01*
X0181032Y0094788D02*
X0181572Y0095328D01*
X0177827Y0091703D02*
X0178367Y0091163D01*
X0178367Y0089543D01*
X0175127Y0089543D01*
X0175127Y0091163D01*
X0175667Y0091703D01*
X0176207Y0091703D01*
X0176747Y0091163D01*
X0176747Y0089543D01*
X0176747Y0088078D02*
X0176747Y0085918D01*
X0181032Y0083373D02*
X0182112Y0082293D01*
X0184272Y0082293D01*
X0184272Y0080828D02*
X0183192Y0079748D01*
X0183192Y0080288D02*
X0183192Y0078668D01*
X0184272Y0078668D02*
X0181032Y0078668D01*
X0181032Y0080288D01*
X0181572Y0080828D01*
X0182652Y0080828D01*
X0183192Y0080288D01*
X0182652Y0082293D02*
X0182652Y0084453D01*
X0186938Y0084453D02*
X0189098Y0084453D01*
X0190178Y0083373D01*
X0189098Y0082293D01*
X0186938Y0082293D01*
X0186938Y0080828D02*
X0186938Y0078668D01*
X0190178Y0078668D01*
X0190178Y0080828D01*
X0188558Y0079748D02*
X0188558Y0078668D01*
X0189638Y0077203D02*
X0187478Y0077203D01*
X0186938Y0076663D01*
X0186938Y0075043D01*
X0190178Y0075043D01*
X0190178Y0076663D01*
X0189638Y0077203D01*
X0192843Y0077203D02*
X0195003Y0077203D01*
X0196083Y0076123D01*
X0195003Y0075043D01*
X0192843Y0075043D01*
X0193923Y0078668D02*
X0192843Y0079748D01*
X0196083Y0079748D01*
X0196083Y0078668D02*
X0196083Y0080828D01*
X0196083Y0082293D02*
X0196083Y0082833D01*
X0195543Y0082833D01*
X0195543Y0082293D01*
X0196083Y0082293D01*
X0195543Y0084106D02*
X0193383Y0084106D01*
X0192843Y0084646D01*
X0192843Y0085726D01*
X0193383Y0086266D01*
X0195543Y0084106D01*
X0196083Y0084646D01*
X0196083Y0085726D01*
X0195543Y0086266D01*
X0193383Y0086266D01*
X0193383Y0087731D02*
X0192843Y0088271D01*
X0192843Y0089351D01*
X0193383Y0089891D01*
X0195543Y0087731D01*
X0196083Y0088271D01*
X0196083Y0089351D01*
X0195543Y0089891D01*
X0193383Y0089891D01*
X0190178Y0089543D02*
X0190178Y0091163D01*
X0189638Y0091703D01*
X0189098Y0091703D01*
X0188558Y0091163D01*
X0188558Y0089543D01*
X0190178Y0089543D02*
X0186938Y0089543D01*
X0186938Y0091163D01*
X0187478Y0091703D01*
X0188018Y0091703D01*
X0188558Y0091163D01*
X0192843Y0094981D02*
X0196083Y0094981D01*
X0196083Y0097141D01*
X0183192Y0102836D02*
X0181032Y0102836D01*
X0177827Y0091703D02*
X0177287Y0091703D01*
X0176747Y0091163D01*
X0193383Y0087731D02*
X0195543Y0087731D01*
X0184272Y0076123D02*
X0181032Y0076123D01*
X0181032Y0075043D02*
X0181032Y0077203D01*
X0178367Y0076663D02*
X0178367Y0075583D01*
X0177827Y0075043D01*
X0175667Y0075043D01*
X0175127Y0075583D01*
X0177827Y0077203D02*
X0178367Y0076663D01*
X0175667Y0078668D02*
X0175127Y0079208D01*
X0175127Y0080288D01*
X0175667Y0080828D01*
D12*
X0184733Y0072962D02*
X0184411Y0069786D01*
X0183344Y0069445D01*
X0182347Y0068931D01*
X0179873Y0070949D01*
X0178177Y0069253D01*
X0180194Y0066779D01*
X0179681Y0065782D01*
X0179340Y0064715D01*
X0176164Y0064393D01*
X0176164Y0061993D01*
X0179340Y0061671D01*
X0179681Y0060603D01*
X0180194Y0059607D01*
X0178177Y0057133D01*
X0179873Y0055437D01*
X0182347Y0057454D01*
X0183344Y0056941D01*
X0184411Y0056600D01*
X0184733Y0053424D01*
X0187133Y0053424D01*
X0187455Y0056600D01*
X0188523Y0056941D01*
X0189519Y0057454D01*
X0191993Y0055437D01*
X0193689Y0057133D01*
X0191672Y0059607D01*
X0192185Y0060603D01*
X0188775Y0062016D01*
X0188491Y0061484D01*
X0188108Y0061018D01*
X0187642Y0060635D01*
X0187110Y0060351D01*
X0186533Y0060176D01*
X0185933Y0060117D01*
X0185305Y0060182D01*
X0184703Y0060374D01*
X0184153Y0060684D01*
X0183678Y0061101D01*
X0183298Y0061605D01*
X0183030Y0062177D01*
X0182883Y0062791D01*
X0182866Y0063423D01*
X0182977Y0064044D01*
X0183214Y0064630D01*
X0183564Y0065155D01*
X0184015Y0065598D01*
X0184547Y0065939D01*
X0185137Y0066164D01*
X0185761Y0066264D01*
X0186391Y0066234D01*
X0187003Y0066077D01*
X0187569Y0065797D01*
X0188067Y0065408D01*
X0188474Y0064926D01*
X0188775Y0064370D01*
X0192185Y0065783D01*
X0191672Y0066779D01*
X0193689Y0069253D01*
X0191993Y0070949D01*
X0189519Y0068931D01*
X0188523Y0069445D01*
X0187455Y0069786D01*
X0187133Y0072962D01*
X0184733Y0072962D01*
X0184722Y0072851D02*
X0187144Y0072851D01*
X0187174Y0072553D02*
X0184692Y0072553D01*
X0184662Y0072254D02*
X0187205Y0072254D01*
X0187235Y0071956D02*
X0184631Y0071956D01*
X0184601Y0071657D02*
X0187265Y0071657D01*
X0187295Y0071359D02*
X0184571Y0071359D01*
X0184540Y0071060D02*
X0187326Y0071060D01*
X0187356Y0070762D02*
X0184510Y0070762D01*
X0184480Y0070463D02*
X0187386Y0070463D01*
X0187417Y0070165D02*
X0184449Y0070165D01*
X0184419Y0069866D02*
X0187447Y0069866D01*
X0188138Y0069568D02*
X0183729Y0069568D01*
X0183003Y0069269D02*
X0188863Y0069269D01*
X0189443Y0068971D02*
X0182424Y0068971D01*
X0182299Y0068971D02*
X0178407Y0068971D01*
X0178194Y0069269D02*
X0181933Y0069269D01*
X0181567Y0069568D02*
X0178492Y0069568D01*
X0178791Y0069866D02*
X0181201Y0069866D01*
X0180835Y0070165D02*
X0179089Y0070165D01*
X0179388Y0070463D02*
X0180469Y0070463D01*
X0180102Y0070762D02*
X0179686Y0070762D01*
X0178650Y0068672D02*
X0193216Y0068672D01*
X0192972Y0068374D02*
X0178894Y0068374D01*
X0179137Y0068075D02*
X0192729Y0068075D01*
X0192485Y0067777D02*
X0179381Y0067777D01*
X0179624Y0067478D02*
X0192242Y0067478D01*
X0191999Y0067180D02*
X0179868Y0067180D01*
X0180111Y0066881D02*
X0191755Y0066881D01*
X0191773Y0066583D02*
X0180094Y0066583D01*
X0179940Y0066284D02*
X0191927Y0066284D01*
X0192080Y0065986D02*
X0187188Y0065986D01*
X0187710Y0065687D02*
X0191954Y0065687D01*
X0191234Y0065389D02*
X0188083Y0065389D01*
X0188336Y0065090D02*
X0190513Y0065090D01*
X0189793Y0064792D02*
X0188547Y0064792D01*
X0188708Y0064493D02*
X0189072Y0064493D01*
X0189280Y0061807D02*
X0188663Y0061807D01*
X0188503Y0061508D02*
X0190001Y0061508D01*
X0190721Y0061210D02*
X0188265Y0061210D01*
X0187978Y0060911D02*
X0191442Y0060911D01*
X0192162Y0060612D02*
X0187599Y0060612D01*
X0186988Y0060314D02*
X0192036Y0060314D01*
X0191882Y0060015D02*
X0179984Y0060015D01*
X0180138Y0059717D02*
X0191728Y0059717D01*
X0191825Y0059418D02*
X0180041Y0059418D01*
X0179797Y0059120D02*
X0192069Y0059120D01*
X0192312Y0058821D02*
X0179554Y0058821D01*
X0179310Y0058523D02*
X0192556Y0058523D01*
X0192799Y0058224D02*
X0179067Y0058224D01*
X0178824Y0057926D02*
X0193043Y0057926D01*
X0193286Y0057627D02*
X0178580Y0057627D01*
X0178337Y0057329D02*
X0182193Y0057329D01*
X0182591Y0057329D02*
X0189275Y0057329D01*
X0189673Y0057329D02*
X0193529Y0057329D01*
X0193586Y0057030D02*
X0190039Y0057030D01*
X0190405Y0056732D02*
X0193288Y0056732D01*
X0192989Y0056433D02*
X0190771Y0056433D01*
X0191137Y0056135D02*
X0192691Y0056135D01*
X0192392Y0055836D02*
X0191503Y0055836D01*
X0191869Y0055538D02*
X0192094Y0055538D01*
X0188696Y0057030D02*
X0183171Y0057030D01*
X0183998Y0056732D02*
X0187868Y0056732D01*
X0187438Y0056433D02*
X0184428Y0056433D01*
X0184458Y0056135D02*
X0187408Y0056135D01*
X0187378Y0055836D02*
X0184489Y0055836D01*
X0184519Y0055538D02*
X0187347Y0055538D01*
X0187317Y0055239D02*
X0184549Y0055239D01*
X0184579Y0054941D02*
X0187287Y0054941D01*
X0187256Y0054642D02*
X0184610Y0054642D01*
X0184640Y0054344D02*
X0187226Y0054344D01*
X0187196Y0054045D02*
X0184670Y0054045D01*
X0184701Y0053747D02*
X0187165Y0053747D01*
X0187135Y0053448D02*
X0184731Y0053448D01*
X0181827Y0057030D02*
X0178280Y0057030D01*
X0178578Y0056732D02*
X0181461Y0056732D01*
X0181095Y0056433D02*
X0178877Y0056433D01*
X0179175Y0056135D02*
X0180729Y0056135D01*
X0180363Y0055836D02*
X0179474Y0055836D01*
X0179772Y0055538D02*
X0179997Y0055538D01*
X0179830Y0060314D02*
X0184890Y0060314D01*
X0184280Y0060612D02*
X0179678Y0060612D01*
X0179583Y0060911D02*
X0183895Y0060911D01*
X0183596Y0061210D02*
X0179487Y0061210D01*
X0179392Y0061508D02*
X0183372Y0061508D01*
X0183204Y0061807D02*
X0178003Y0061807D01*
X0176164Y0062105D02*
X0183064Y0062105D01*
X0182976Y0062404D02*
X0176164Y0062404D01*
X0176164Y0062702D02*
X0182905Y0062702D01*
X0182878Y0063001D02*
X0176164Y0063001D01*
X0176164Y0063299D02*
X0182869Y0063299D01*
X0182897Y0063598D02*
X0176164Y0063598D01*
X0176164Y0063896D02*
X0182951Y0063896D01*
X0183038Y0064195D02*
X0176164Y0064195D01*
X0177155Y0064493D02*
X0183158Y0064493D01*
X0183322Y0064792D02*
X0179364Y0064792D01*
X0179460Y0065090D02*
X0183521Y0065090D01*
X0183802Y0065389D02*
X0179555Y0065389D01*
X0179651Y0065687D02*
X0184155Y0065687D01*
X0184670Y0065986D02*
X0179786Y0065986D01*
X0189567Y0068971D02*
X0193459Y0068971D01*
X0193672Y0069269D02*
X0189933Y0069269D01*
X0190299Y0069568D02*
X0193374Y0069568D01*
X0193075Y0069866D02*
X0190665Y0069866D01*
X0191031Y0070165D02*
X0192777Y0070165D01*
X0192478Y0070463D02*
X0191398Y0070463D01*
X0191764Y0070762D02*
X0192180Y0070762D01*
M02*
