G75*
%MOIN*%
%OFA0B0*%
%FSLAX25Y25*%
%IPPOS*%
%LPD*%
%AMOC8*
5,1,8,0,0,1.08239X$1,22.5*
%
%ADD10C,0.00000*%
D10*
X0044307Y0036433D02*
X0225409Y0036433D01*
X0225599Y0036435D01*
X0225789Y0036442D01*
X0225979Y0036454D01*
X0226169Y0036470D01*
X0226358Y0036490D01*
X0226547Y0036516D01*
X0226735Y0036545D01*
X0226922Y0036580D01*
X0227108Y0036619D01*
X0227293Y0036662D01*
X0227478Y0036710D01*
X0227661Y0036762D01*
X0227842Y0036818D01*
X0228022Y0036879D01*
X0228201Y0036945D01*
X0228378Y0037014D01*
X0228554Y0037088D01*
X0228727Y0037166D01*
X0228899Y0037249D01*
X0229068Y0037335D01*
X0229236Y0037425D01*
X0229401Y0037520D01*
X0229564Y0037618D01*
X0229724Y0037721D01*
X0229882Y0037827D01*
X0230037Y0037937D01*
X0230190Y0038050D01*
X0230340Y0038168D01*
X0230486Y0038289D01*
X0230630Y0038413D01*
X0230771Y0038541D01*
X0230909Y0038672D01*
X0231044Y0038807D01*
X0231175Y0038945D01*
X0231303Y0039086D01*
X0231427Y0039230D01*
X0231548Y0039376D01*
X0231666Y0039526D01*
X0231779Y0039679D01*
X0231889Y0039834D01*
X0231995Y0039992D01*
X0232098Y0040152D01*
X0232196Y0040315D01*
X0232291Y0040480D01*
X0232381Y0040648D01*
X0232467Y0040817D01*
X0232550Y0040989D01*
X0232628Y0041162D01*
X0232702Y0041338D01*
X0232771Y0041515D01*
X0232837Y0041694D01*
X0232898Y0041874D01*
X0232954Y0042055D01*
X0233006Y0042238D01*
X0233054Y0042423D01*
X0233097Y0042608D01*
X0233136Y0042794D01*
X0233171Y0042981D01*
X0233200Y0043169D01*
X0233226Y0043358D01*
X0233246Y0043547D01*
X0233262Y0043737D01*
X0233274Y0043927D01*
X0233281Y0044117D01*
X0233283Y0044307D01*
X0233283Y0107299D01*
X0233281Y0107489D01*
X0233274Y0107679D01*
X0233262Y0107869D01*
X0233246Y0108059D01*
X0233226Y0108248D01*
X0233200Y0108437D01*
X0233171Y0108625D01*
X0233136Y0108812D01*
X0233097Y0108998D01*
X0233054Y0109183D01*
X0233006Y0109368D01*
X0232954Y0109551D01*
X0232898Y0109732D01*
X0232837Y0109912D01*
X0232771Y0110091D01*
X0232702Y0110268D01*
X0232628Y0110444D01*
X0232550Y0110617D01*
X0232467Y0110789D01*
X0232381Y0110958D01*
X0232291Y0111126D01*
X0232196Y0111291D01*
X0232098Y0111454D01*
X0231995Y0111614D01*
X0231889Y0111772D01*
X0231779Y0111927D01*
X0231666Y0112080D01*
X0231548Y0112230D01*
X0231427Y0112376D01*
X0231303Y0112520D01*
X0231175Y0112661D01*
X0231044Y0112799D01*
X0230909Y0112934D01*
X0230771Y0113065D01*
X0230630Y0113193D01*
X0230486Y0113317D01*
X0230340Y0113438D01*
X0230190Y0113556D01*
X0230037Y0113669D01*
X0229882Y0113779D01*
X0229724Y0113885D01*
X0229564Y0113988D01*
X0229401Y0114086D01*
X0229236Y0114181D01*
X0229068Y0114271D01*
X0228899Y0114357D01*
X0228727Y0114440D01*
X0228554Y0114518D01*
X0228378Y0114592D01*
X0228201Y0114661D01*
X0228022Y0114727D01*
X0227842Y0114788D01*
X0227661Y0114844D01*
X0227478Y0114896D01*
X0227293Y0114944D01*
X0227108Y0114987D01*
X0226922Y0115026D01*
X0226735Y0115061D01*
X0226547Y0115090D01*
X0226358Y0115116D01*
X0226169Y0115136D01*
X0225979Y0115152D01*
X0225789Y0115164D01*
X0225599Y0115171D01*
X0225409Y0115173D01*
X0044307Y0115173D01*
X0044117Y0115171D01*
X0043927Y0115164D01*
X0043737Y0115152D01*
X0043547Y0115136D01*
X0043358Y0115116D01*
X0043169Y0115090D01*
X0042981Y0115061D01*
X0042794Y0115026D01*
X0042608Y0114987D01*
X0042423Y0114944D01*
X0042238Y0114896D01*
X0042055Y0114844D01*
X0041874Y0114788D01*
X0041694Y0114727D01*
X0041515Y0114661D01*
X0041338Y0114592D01*
X0041162Y0114518D01*
X0040989Y0114440D01*
X0040817Y0114357D01*
X0040648Y0114271D01*
X0040480Y0114181D01*
X0040315Y0114086D01*
X0040152Y0113988D01*
X0039992Y0113885D01*
X0039834Y0113779D01*
X0039679Y0113669D01*
X0039526Y0113556D01*
X0039376Y0113438D01*
X0039230Y0113317D01*
X0039086Y0113193D01*
X0038945Y0113065D01*
X0038807Y0112934D01*
X0038672Y0112799D01*
X0038541Y0112661D01*
X0038413Y0112520D01*
X0038289Y0112376D01*
X0038168Y0112230D01*
X0038050Y0112080D01*
X0037937Y0111927D01*
X0037827Y0111772D01*
X0037721Y0111614D01*
X0037618Y0111454D01*
X0037520Y0111291D01*
X0037425Y0111126D01*
X0037335Y0110958D01*
X0037249Y0110789D01*
X0037166Y0110617D01*
X0037088Y0110444D01*
X0037014Y0110268D01*
X0036945Y0110091D01*
X0036879Y0109912D01*
X0036818Y0109732D01*
X0036762Y0109551D01*
X0036710Y0109368D01*
X0036662Y0109183D01*
X0036619Y0108998D01*
X0036580Y0108812D01*
X0036545Y0108625D01*
X0036516Y0108437D01*
X0036490Y0108248D01*
X0036470Y0108059D01*
X0036454Y0107869D01*
X0036442Y0107679D01*
X0036435Y0107489D01*
X0036433Y0107299D01*
X0036433Y0044307D01*
X0036435Y0044117D01*
X0036442Y0043927D01*
X0036454Y0043737D01*
X0036470Y0043547D01*
X0036490Y0043358D01*
X0036516Y0043169D01*
X0036545Y0042981D01*
X0036580Y0042794D01*
X0036619Y0042608D01*
X0036662Y0042423D01*
X0036710Y0042238D01*
X0036762Y0042055D01*
X0036818Y0041874D01*
X0036879Y0041694D01*
X0036945Y0041515D01*
X0037014Y0041338D01*
X0037088Y0041162D01*
X0037166Y0040989D01*
X0037249Y0040817D01*
X0037335Y0040648D01*
X0037425Y0040480D01*
X0037520Y0040315D01*
X0037618Y0040152D01*
X0037721Y0039992D01*
X0037827Y0039834D01*
X0037937Y0039679D01*
X0038050Y0039526D01*
X0038168Y0039376D01*
X0038289Y0039230D01*
X0038413Y0039086D01*
X0038541Y0038945D01*
X0038672Y0038807D01*
X0038807Y0038672D01*
X0038945Y0038541D01*
X0039086Y0038413D01*
X0039230Y0038289D01*
X0039376Y0038168D01*
X0039526Y0038050D01*
X0039679Y0037937D01*
X0039834Y0037827D01*
X0039992Y0037721D01*
X0040152Y0037618D01*
X0040315Y0037520D01*
X0040480Y0037425D01*
X0040648Y0037335D01*
X0040817Y0037249D01*
X0040989Y0037166D01*
X0041162Y0037088D01*
X0041338Y0037014D01*
X0041515Y0036945D01*
X0041694Y0036879D01*
X0041874Y0036818D01*
X0042055Y0036762D01*
X0042238Y0036710D01*
X0042423Y0036662D01*
X0042608Y0036619D01*
X0042794Y0036580D01*
X0042981Y0036545D01*
X0043169Y0036516D01*
X0043358Y0036490D01*
X0043547Y0036470D01*
X0043737Y0036454D01*
X0043927Y0036442D01*
X0044117Y0036435D01*
X0044307Y0036433D01*
X0048244Y0056118D02*
X0048246Y0056311D01*
X0048253Y0056504D01*
X0048265Y0056697D01*
X0048282Y0056890D01*
X0048303Y0057082D01*
X0048329Y0057273D01*
X0048360Y0057464D01*
X0048395Y0057654D01*
X0048435Y0057843D01*
X0048480Y0058031D01*
X0048529Y0058218D01*
X0048583Y0058404D01*
X0048641Y0058588D01*
X0048704Y0058771D01*
X0048772Y0058952D01*
X0048843Y0059131D01*
X0048920Y0059309D01*
X0049000Y0059485D01*
X0049085Y0059658D01*
X0049174Y0059830D01*
X0049267Y0059999D01*
X0049364Y0060166D01*
X0049466Y0060331D01*
X0049571Y0060493D01*
X0049680Y0060652D01*
X0049794Y0060809D01*
X0049911Y0060962D01*
X0050031Y0061113D01*
X0050156Y0061261D01*
X0050284Y0061406D01*
X0050415Y0061547D01*
X0050550Y0061686D01*
X0050689Y0061821D01*
X0050830Y0061952D01*
X0050975Y0062080D01*
X0051123Y0062205D01*
X0051274Y0062325D01*
X0051427Y0062442D01*
X0051584Y0062556D01*
X0051743Y0062665D01*
X0051905Y0062770D01*
X0052070Y0062872D01*
X0052237Y0062969D01*
X0052406Y0063062D01*
X0052578Y0063151D01*
X0052751Y0063236D01*
X0052927Y0063316D01*
X0053105Y0063393D01*
X0053284Y0063464D01*
X0053465Y0063532D01*
X0053648Y0063595D01*
X0053832Y0063653D01*
X0054018Y0063707D01*
X0054205Y0063756D01*
X0054393Y0063801D01*
X0054582Y0063841D01*
X0054772Y0063876D01*
X0054963Y0063907D01*
X0055154Y0063933D01*
X0055346Y0063954D01*
X0055539Y0063971D01*
X0055732Y0063983D01*
X0055925Y0063990D01*
X0056118Y0063992D01*
X0056311Y0063990D01*
X0056504Y0063983D01*
X0056697Y0063971D01*
X0056890Y0063954D01*
X0057082Y0063933D01*
X0057273Y0063907D01*
X0057464Y0063876D01*
X0057654Y0063841D01*
X0057843Y0063801D01*
X0058031Y0063756D01*
X0058218Y0063707D01*
X0058404Y0063653D01*
X0058588Y0063595D01*
X0058771Y0063532D01*
X0058952Y0063464D01*
X0059131Y0063393D01*
X0059309Y0063316D01*
X0059485Y0063236D01*
X0059658Y0063151D01*
X0059830Y0063062D01*
X0059999Y0062969D01*
X0060166Y0062872D01*
X0060331Y0062770D01*
X0060493Y0062665D01*
X0060652Y0062556D01*
X0060809Y0062442D01*
X0060962Y0062325D01*
X0061113Y0062205D01*
X0061261Y0062080D01*
X0061406Y0061952D01*
X0061547Y0061821D01*
X0061686Y0061686D01*
X0061821Y0061547D01*
X0061952Y0061406D01*
X0062080Y0061261D01*
X0062205Y0061113D01*
X0062325Y0060962D01*
X0062442Y0060809D01*
X0062556Y0060652D01*
X0062665Y0060493D01*
X0062770Y0060331D01*
X0062872Y0060166D01*
X0062969Y0059999D01*
X0063062Y0059830D01*
X0063151Y0059658D01*
X0063236Y0059485D01*
X0063316Y0059309D01*
X0063393Y0059131D01*
X0063464Y0058952D01*
X0063532Y0058771D01*
X0063595Y0058588D01*
X0063653Y0058404D01*
X0063707Y0058218D01*
X0063756Y0058031D01*
X0063801Y0057843D01*
X0063841Y0057654D01*
X0063876Y0057464D01*
X0063907Y0057273D01*
X0063933Y0057082D01*
X0063954Y0056890D01*
X0063971Y0056697D01*
X0063983Y0056504D01*
X0063990Y0056311D01*
X0063992Y0056118D01*
X0063990Y0055925D01*
X0063983Y0055732D01*
X0063971Y0055539D01*
X0063954Y0055346D01*
X0063933Y0055154D01*
X0063907Y0054963D01*
X0063876Y0054772D01*
X0063841Y0054582D01*
X0063801Y0054393D01*
X0063756Y0054205D01*
X0063707Y0054018D01*
X0063653Y0053832D01*
X0063595Y0053648D01*
X0063532Y0053465D01*
X0063464Y0053284D01*
X0063393Y0053105D01*
X0063316Y0052927D01*
X0063236Y0052751D01*
X0063151Y0052578D01*
X0063062Y0052406D01*
X0062969Y0052237D01*
X0062872Y0052070D01*
X0062770Y0051905D01*
X0062665Y0051743D01*
X0062556Y0051584D01*
X0062442Y0051427D01*
X0062325Y0051274D01*
X0062205Y0051123D01*
X0062080Y0050975D01*
X0061952Y0050830D01*
X0061821Y0050689D01*
X0061686Y0050550D01*
X0061547Y0050415D01*
X0061406Y0050284D01*
X0061261Y0050156D01*
X0061113Y0050031D01*
X0060962Y0049911D01*
X0060809Y0049794D01*
X0060652Y0049680D01*
X0060493Y0049571D01*
X0060331Y0049466D01*
X0060166Y0049364D01*
X0059999Y0049267D01*
X0059830Y0049174D01*
X0059658Y0049085D01*
X0059485Y0049000D01*
X0059309Y0048920D01*
X0059131Y0048843D01*
X0058952Y0048772D01*
X0058771Y0048704D01*
X0058588Y0048641D01*
X0058404Y0048583D01*
X0058218Y0048529D01*
X0058031Y0048480D01*
X0057843Y0048435D01*
X0057654Y0048395D01*
X0057464Y0048360D01*
X0057273Y0048329D01*
X0057082Y0048303D01*
X0056890Y0048282D01*
X0056697Y0048265D01*
X0056504Y0048253D01*
X0056311Y0048246D01*
X0056118Y0048244D01*
X0055925Y0048246D01*
X0055732Y0048253D01*
X0055539Y0048265D01*
X0055346Y0048282D01*
X0055154Y0048303D01*
X0054963Y0048329D01*
X0054772Y0048360D01*
X0054582Y0048395D01*
X0054393Y0048435D01*
X0054205Y0048480D01*
X0054018Y0048529D01*
X0053832Y0048583D01*
X0053648Y0048641D01*
X0053465Y0048704D01*
X0053284Y0048772D01*
X0053105Y0048843D01*
X0052927Y0048920D01*
X0052751Y0049000D01*
X0052578Y0049085D01*
X0052406Y0049174D01*
X0052237Y0049267D01*
X0052070Y0049364D01*
X0051905Y0049466D01*
X0051743Y0049571D01*
X0051584Y0049680D01*
X0051427Y0049794D01*
X0051274Y0049911D01*
X0051123Y0050031D01*
X0050975Y0050156D01*
X0050830Y0050284D01*
X0050689Y0050415D01*
X0050550Y0050550D01*
X0050415Y0050689D01*
X0050284Y0050830D01*
X0050156Y0050975D01*
X0050031Y0051123D01*
X0049911Y0051274D01*
X0049794Y0051427D01*
X0049680Y0051584D01*
X0049571Y0051743D01*
X0049466Y0051905D01*
X0049364Y0052070D01*
X0049267Y0052237D01*
X0049174Y0052406D01*
X0049085Y0052578D01*
X0049000Y0052751D01*
X0048920Y0052927D01*
X0048843Y0053105D01*
X0048772Y0053284D01*
X0048704Y0053465D01*
X0048641Y0053648D01*
X0048583Y0053832D01*
X0048529Y0054018D01*
X0048480Y0054205D01*
X0048435Y0054393D01*
X0048395Y0054582D01*
X0048360Y0054772D01*
X0048329Y0054963D01*
X0048303Y0055154D01*
X0048282Y0055346D01*
X0048265Y0055539D01*
X0048253Y0055732D01*
X0048246Y0055925D01*
X0048244Y0056118D01*
X0048244Y0095488D02*
X0048246Y0095681D01*
X0048253Y0095874D01*
X0048265Y0096067D01*
X0048282Y0096260D01*
X0048303Y0096452D01*
X0048329Y0096643D01*
X0048360Y0096834D01*
X0048395Y0097024D01*
X0048435Y0097213D01*
X0048480Y0097401D01*
X0048529Y0097588D01*
X0048583Y0097774D01*
X0048641Y0097958D01*
X0048704Y0098141D01*
X0048772Y0098322D01*
X0048843Y0098501D01*
X0048920Y0098679D01*
X0049000Y0098855D01*
X0049085Y0099028D01*
X0049174Y0099200D01*
X0049267Y0099369D01*
X0049364Y0099536D01*
X0049466Y0099701D01*
X0049571Y0099863D01*
X0049680Y0100022D01*
X0049794Y0100179D01*
X0049911Y0100332D01*
X0050031Y0100483D01*
X0050156Y0100631D01*
X0050284Y0100776D01*
X0050415Y0100917D01*
X0050550Y0101056D01*
X0050689Y0101191D01*
X0050830Y0101322D01*
X0050975Y0101450D01*
X0051123Y0101575D01*
X0051274Y0101695D01*
X0051427Y0101812D01*
X0051584Y0101926D01*
X0051743Y0102035D01*
X0051905Y0102140D01*
X0052070Y0102242D01*
X0052237Y0102339D01*
X0052406Y0102432D01*
X0052578Y0102521D01*
X0052751Y0102606D01*
X0052927Y0102686D01*
X0053105Y0102763D01*
X0053284Y0102834D01*
X0053465Y0102902D01*
X0053648Y0102965D01*
X0053832Y0103023D01*
X0054018Y0103077D01*
X0054205Y0103126D01*
X0054393Y0103171D01*
X0054582Y0103211D01*
X0054772Y0103246D01*
X0054963Y0103277D01*
X0055154Y0103303D01*
X0055346Y0103324D01*
X0055539Y0103341D01*
X0055732Y0103353D01*
X0055925Y0103360D01*
X0056118Y0103362D01*
X0056311Y0103360D01*
X0056504Y0103353D01*
X0056697Y0103341D01*
X0056890Y0103324D01*
X0057082Y0103303D01*
X0057273Y0103277D01*
X0057464Y0103246D01*
X0057654Y0103211D01*
X0057843Y0103171D01*
X0058031Y0103126D01*
X0058218Y0103077D01*
X0058404Y0103023D01*
X0058588Y0102965D01*
X0058771Y0102902D01*
X0058952Y0102834D01*
X0059131Y0102763D01*
X0059309Y0102686D01*
X0059485Y0102606D01*
X0059658Y0102521D01*
X0059830Y0102432D01*
X0059999Y0102339D01*
X0060166Y0102242D01*
X0060331Y0102140D01*
X0060493Y0102035D01*
X0060652Y0101926D01*
X0060809Y0101812D01*
X0060962Y0101695D01*
X0061113Y0101575D01*
X0061261Y0101450D01*
X0061406Y0101322D01*
X0061547Y0101191D01*
X0061686Y0101056D01*
X0061821Y0100917D01*
X0061952Y0100776D01*
X0062080Y0100631D01*
X0062205Y0100483D01*
X0062325Y0100332D01*
X0062442Y0100179D01*
X0062556Y0100022D01*
X0062665Y0099863D01*
X0062770Y0099701D01*
X0062872Y0099536D01*
X0062969Y0099369D01*
X0063062Y0099200D01*
X0063151Y0099028D01*
X0063236Y0098855D01*
X0063316Y0098679D01*
X0063393Y0098501D01*
X0063464Y0098322D01*
X0063532Y0098141D01*
X0063595Y0097958D01*
X0063653Y0097774D01*
X0063707Y0097588D01*
X0063756Y0097401D01*
X0063801Y0097213D01*
X0063841Y0097024D01*
X0063876Y0096834D01*
X0063907Y0096643D01*
X0063933Y0096452D01*
X0063954Y0096260D01*
X0063971Y0096067D01*
X0063983Y0095874D01*
X0063990Y0095681D01*
X0063992Y0095488D01*
X0063990Y0095295D01*
X0063983Y0095102D01*
X0063971Y0094909D01*
X0063954Y0094716D01*
X0063933Y0094524D01*
X0063907Y0094333D01*
X0063876Y0094142D01*
X0063841Y0093952D01*
X0063801Y0093763D01*
X0063756Y0093575D01*
X0063707Y0093388D01*
X0063653Y0093202D01*
X0063595Y0093018D01*
X0063532Y0092835D01*
X0063464Y0092654D01*
X0063393Y0092475D01*
X0063316Y0092297D01*
X0063236Y0092121D01*
X0063151Y0091948D01*
X0063062Y0091776D01*
X0062969Y0091607D01*
X0062872Y0091440D01*
X0062770Y0091275D01*
X0062665Y0091113D01*
X0062556Y0090954D01*
X0062442Y0090797D01*
X0062325Y0090644D01*
X0062205Y0090493D01*
X0062080Y0090345D01*
X0061952Y0090200D01*
X0061821Y0090059D01*
X0061686Y0089920D01*
X0061547Y0089785D01*
X0061406Y0089654D01*
X0061261Y0089526D01*
X0061113Y0089401D01*
X0060962Y0089281D01*
X0060809Y0089164D01*
X0060652Y0089050D01*
X0060493Y0088941D01*
X0060331Y0088836D01*
X0060166Y0088734D01*
X0059999Y0088637D01*
X0059830Y0088544D01*
X0059658Y0088455D01*
X0059485Y0088370D01*
X0059309Y0088290D01*
X0059131Y0088213D01*
X0058952Y0088142D01*
X0058771Y0088074D01*
X0058588Y0088011D01*
X0058404Y0087953D01*
X0058218Y0087899D01*
X0058031Y0087850D01*
X0057843Y0087805D01*
X0057654Y0087765D01*
X0057464Y0087730D01*
X0057273Y0087699D01*
X0057082Y0087673D01*
X0056890Y0087652D01*
X0056697Y0087635D01*
X0056504Y0087623D01*
X0056311Y0087616D01*
X0056118Y0087614D01*
X0055925Y0087616D01*
X0055732Y0087623D01*
X0055539Y0087635D01*
X0055346Y0087652D01*
X0055154Y0087673D01*
X0054963Y0087699D01*
X0054772Y0087730D01*
X0054582Y0087765D01*
X0054393Y0087805D01*
X0054205Y0087850D01*
X0054018Y0087899D01*
X0053832Y0087953D01*
X0053648Y0088011D01*
X0053465Y0088074D01*
X0053284Y0088142D01*
X0053105Y0088213D01*
X0052927Y0088290D01*
X0052751Y0088370D01*
X0052578Y0088455D01*
X0052406Y0088544D01*
X0052237Y0088637D01*
X0052070Y0088734D01*
X0051905Y0088836D01*
X0051743Y0088941D01*
X0051584Y0089050D01*
X0051427Y0089164D01*
X0051274Y0089281D01*
X0051123Y0089401D01*
X0050975Y0089526D01*
X0050830Y0089654D01*
X0050689Y0089785D01*
X0050550Y0089920D01*
X0050415Y0090059D01*
X0050284Y0090200D01*
X0050156Y0090345D01*
X0050031Y0090493D01*
X0049911Y0090644D01*
X0049794Y0090797D01*
X0049680Y0090954D01*
X0049571Y0091113D01*
X0049466Y0091275D01*
X0049364Y0091440D01*
X0049267Y0091607D01*
X0049174Y0091776D01*
X0049085Y0091948D01*
X0049000Y0092121D01*
X0048920Y0092297D01*
X0048843Y0092475D01*
X0048772Y0092654D01*
X0048704Y0092835D01*
X0048641Y0093018D01*
X0048583Y0093202D01*
X0048529Y0093388D01*
X0048480Y0093575D01*
X0048435Y0093763D01*
X0048395Y0093952D01*
X0048360Y0094142D01*
X0048329Y0094333D01*
X0048303Y0094524D01*
X0048282Y0094716D01*
X0048265Y0094909D01*
X0048253Y0095102D01*
X0048246Y0095295D01*
X0048244Y0095488D01*
X0205724Y0095488D02*
X0205726Y0095681D01*
X0205733Y0095874D01*
X0205745Y0096067D01*
X0205762Y0096260D01*
X0205783Y0096452D01*
X0205809Y0096643D01*
X0205840Y0096834D01*
X0205875Y0097024D01*
X0205915Y0097213D01*
X0205960Y0097401D01*
X0206009Y0097588D01*
X0206063Y0097774D01*
X0206121Y0097958D01*
X0206184Y0098141D01*
X0206252Y0098322D01*
X0206323Y0098501D01*
X0206400Y0098679D01*
X0206480Y0098855D01*
X0206565Y0099028D01*
X0206654Y0099200D01*
X0206747Y0099369D01*
X0206844Y0099536D01*
X0206946Y0099701D01*
X0207051Y0099863D01*
X0207160Y0100022D01*
X0207274Y0100179D01*
X0207391Y0100332D01*
X0207511Y0100483D01*
X0207636Y0100631D01*
X0207764Y0100776D01*
X0207895Y0100917D01*
X0208030Y0101056D01*
X0208169Y0101191D01*
X0208310Y0101322D01*
X0208455Y0101450D01*
X0208603Y0101575D01*
X0208754Y0101695D01*
X0208907Y0101812D01*
X0209064Y0101926D01*
X0209223Y0102035D01*
X0209385Y0102140D01*
X0209550Y0102242D01*
X0209717Y0102339D01*
X0209886Y0102432D01*
X0210058Y0102521D01*
X0210231Y0102606D01*
X0210407Y0102686D01*
X0210585Y0102763D01*
X0210764Y0102834D01*
X0210945Y0102902D01*
X0211128Y0102965D01*
X0211312Y0103023D01*
X0211498Y0103077D01*
X0211685Y0103126D01*
X0211873Y0103171D01*
X0212062Y0103211D01*
X0212252Y0103246D01*
X0212443Y0103277D01*
X0212634Y0103303D01*
X0212826Y0103324D01*
X0213019Y0103341D01*
X0213212Y0103353D01*
X0213405Y0103360D01*
X0213598Y0103362D01*
X0213791Y0103360D01*
X0213984Y0103353D01*
X0214177Y0103341D01*
X0214370Y0103324D01*
X0214562Y0103303D01*
X0214753Y0103277D01*
X0214944Y0103246D01*
X0215134Y0103211D01*
X0215323Y0103171D01*
X0215511Y0103126D01*
X0215698Y0103077D01*
X0215884Y0103023D01*
X0216068Y0102965D01*
X0216251Y0102902D01*
X0216432Y0102834D01*
X0216611Y0102763D01*
X0216789Y0102686D01*
X0216965Y0102606D01*
X0217138Y0102521D01*
X0217310Y0102432D01*
X0217479Y0102339D01*
X0217646Y0102242D01*
X0217811Y0102140D01*
X0217973Y0102035D01*
X0218132Y0101926D01*
X0218289Y0101812D01*
X0218442Y0101695D01*
X0218593Y0101575D01*
X0218741Y0101450D01*
X0218886Y0101322D01*
X0219027Y0101191D01*
X0219166Y0101056D01*
X0219301Y0100917D01*
X0219432Y0100776D01*
X0219560Y0100631D01*
X0219685Y0100483D01*
X0219805Y0100332D01*
X0219922Y0100179D01*
X0220036Y0100022D01*
X0220145Y0099863D01*
X0220250Y0099701D01*
X0220352Y0099536D01*
X0220449Y0099369D01*
X0220542Y0099200D01*
X0220631Y0099028D01*
X0220716Y0098855D01*
X0220796Y0098679D01*
X0220873Y0098501D01*
X0220944Y0098322D01*
X0221012Y0098141D01*
X0221075Y0097958D01*
X0221133Y0097774D01*
X0221187Y0097588D01*
X0221236Y0097401D01*
X0221281Y0097213D01*
X0221321Y0097024D01*
X0221356Y0096834D01*
X0221387Y0096643D01*
X0221413Y0096452D01*
X0221434Y0096260D01*
X0221451Y0096067D01*
X0221463Y0095874D01*
X0221470Y0095681D01*
X0221472Y0095488D01*
X0221470Y0095295D01*
X0221463Y0095102D01*
X0221451Y0094909D01*
X0221434Y0094716D01*
X0221413Y0094524D01*
X0221387Y0094333D01*
X0221356Y0094142D01*
X0221321Y0093952D01*
X0221281Y0093763D01*
X0221236Y0093575D01*
X0221187Y0093388D01*
X0221133Y0093202D01*
X0221075Y0093018D01*
X0221012Y0092835D01*
X0220944Y0092654D01*
X0220873Y0092475D01*
X0220796Y0092297D01*
X0220716Y0092121D01*
X0220631Y0091948D01*
X0220542Y0091776D01*
X0220449Y0091607D01*
X0220352Y0091440D01*
X0220250Y0091275D01*
X0220145Y0091113D01*
X0220036Y0090954D01*
X0219922Y0090797D01*
X0219805Y0090644D01*
X0219685Y0090493D01*
X0219560Y0090345D01*
X0219432Y0090200D01*
X0219301Y0090059D01*
X0219166Y0089920D01*
X0219027Y0089785D01*
X0218886Y0089654D01*
X0218741Y0089526D01*
X0218593Y0089401D01*
X0218442Y0089281D01*
X0218289Y0089164D01*
X0218132Y0089050D01*
X0217973Y0088941D01*
X0217811Y0088836D01*
X0217646Y0088734D01*
X0217479Y0088637D01*
X0217310Y0088544D01*
X0217138Y0088455D01*
X0216965Y0088370D01*
X0216789Y0088290D01*
X0216611Y0088213D01*
X0216432Y0088142D01*
X0216251Y0088074D01*
X0216068Y0088011D01*
X0215884Y0087953D01*
X0215698Y0087899D01*
X0215511Y0087850D01*
X0215323Y0087805D01*
X0215134Y0087765D01*
X0214944Y0087730D01*
X0214753Y0087699D01*
X0214562Y0087673D01*
X0214370Y0087652D01*
X0214177Y0087635D01*
X0213984Y0087623D01*
X0213791Y0087616D01*
X0213598Y0087614D01*
X0213405Y0087616D01*
X0213212Y0087623D01*
X0213019Y0087635D01*
X0212826Y0087652D01*
X0212634Y0087673D01*
X0212443Y0087699D01*
X0212252Y0087730D01*
X0212062Y0087765D01*
X0211873Y0087805D01*
X0211685Y0087850D01*
X0211498Y0087899D01*
X0211312Y0087953D01*
X0211128Y0088011D01*
X0210945Y0088074D01*
X0210764Y0088142D01*
X0210585Y0088213D01*
X0210407Y0088290D01*
X0210231Y0088370D01*
X0210058Y0088455D01*
X0209886Y0088544D01*
X0209717Y0088637D01*
X0209550Y0088734D01*
X0209385Y0088836D01*
X0209223Y0088941D01*
X0209064Y0089050D01*
X0208907Y0089164D01*
X0208754Y0089281D01*
X0208603Y0089401D01*
X0208455Y0089526D01*
X0208310Y0089654D01*
X0208169Y0089785D01*
X0208030Y0089920D01*
X0207895Y0090059D01*
X0207764Y0090200D01*
X0207636Y0090345D01*
X0207511Y0090493D01*
X0207391Y0090644D01*
X0207274Y0090797D01*
X0207160Y0090954D01*
X0207051Y0091113D01*
X0206946Y0091275D01*
X0206844Y0091440D01*
X0206747Y0091607D01*
X0206654Y0091776D01*
X0206565Y0091948D01*
X0206480Y0092121D01*
X0206400Y0092297D01*
X0206323Y0092475D01*
X0206252Y0092654D01*
X0206184Y0092835D01*
X0206121Y0093018D01*
X0206063Y0093202D01*
X0206009Y0093388D01*
X0205960Y0093575D01*
X0205915Y0093763D01*
X0205875Y0093952D01*
X0205840Y0094142D01*
X0205809Y0094333D01*
X0205783Y0094524D01*
X0205762Y0094716D01*
X0205745Y0094909D01*
X0205733Y0095102D01*
X0205726Y0095295D01*
X0205724Y0095488D01*
X0205724Y0056118D02*
X0205726Y0056311D01*
X0205733Y0056504D01*
X0205745Y0056697D01*
X0205762Y0056890D01*
X0205783Y0057082D01*
X0205809Y0057273D01*
X0205840Y0057464D01*
X0205875Y0057654D01*
X0205915Y0057843D01*
X0205960Y0058031D01*
X0206009Y0058218D01*
X0206063Y0058404D01*
X0206121Y0058588D01*
X0206184Y0058771D01*
X0206252Y0058952D01*
X0206323Y0059131D01*
X0206400Y0059309D01*
X0206480Y0059485D01*
X0206565Y0059658D01*
X0206654Y0059830D01*
X0206747Y0059999D01*
X0206844Y0060166D01*
X0206946Y0060331D01*
X0207051Y0060493D01*
X0207160Y0060652D01*
X0207274Y0060809D01*
X0207391Y0060962D01*
X0207511Y0061113D01*
X0207636Y0061261D01*
X0207764Y0061406D01*
X0207895Y0061547D01*
X0208030Y0061686D01*
X0208169Y0061821D01*
X0208310Y0061952D01*
X0208455Y0062080D01*
X0208603Y0062205D01*
X0208754Y0062325D01*
X0208907Y0062442D01*
X0209064Y0062556D01*
X0209223Y0062665D01*
X0209385Y0062770D01*
X0209550Y0062872D01*
X0209717Y0062969D01*
X0209886Y0063062D01*
X0210058Y0063151D01*
X0210231Y0063236D01*
X0210407Y0063316D01*
X0210585Y0063393D01*
X0210764Y0063464D01*
X0210945Y0063532D01*
X0211128Y0063595D01*
X0211312Y0063653D01*
X0211498Y0063707D01*
X0211685Y0063756D01*
X0211873Y0063801D01*
X0212062Y0063841D01*
X0212252Y0063876D01*
X0212443Y0063907D01*
X0212634Y0063933D01*
X0212826Y0063954D01*
X0213019Y0063971D01*
X0213212Y0063983D01*
X0213405Y0063990D01*
X0213598Y0063992D01*
X0213791Y0063990D01*
X0213984Y0063983D01*
X0214177Y0063971D01*
X0214370Y0063954D01*
X0214562Y0063933D01*
X0214753Y0063907D01*
X0214944Y0063876D01*
X0215134Y0063841D01*
X0215323Y0063801D01*
X0215511Y0063756D01*
X0215698Y0063707D01*
X0215884Y0063653D01*
X0216068Y0063595D01*
X0216251Y0063532D01*
X0216432Y0063464D01*
X0216611Y0063393D01*
X0216789Y0063316D01*
X0216965Y0063236D01*
X0217138Y0063151D01*
X0217310Y0063062D01*
X0217479Y0062969D01*
X0217646Y0062872D01*
X0217811Y0062770D01*
X0217973Y0062665D01*
X0218132Y0062556D01*
X0218289Y0062442D01*
X0218442Y0062325D01*
X0218593Y0062205D01*
X0218741Y0062080D01*
X0218886Y0061952D01*
X0219027Y0061821D01*
X0219166Y0061686D01*
X0219301Y0061547D01*
X0219432Y0061406D01*
X0219560Y0061261D01*
X0219685Y0061113D01*
X0219805Y0060962D01*
X0219922Y0060809D01*
X0220036Y0060652D01*
X0220145Y0060493D01*
X0220250Y0060331D01*
X0220352Y0060166D01*
X0220449Y0059999D01*
X0220542Y0059830D01*
X0220631Y0059658D01*
X0220716Y0059485D01*
X0220796Y0059309D01*
X0220873Y0059131D01*
X0220944Y0058952D01*
X0221012Y0058771D01*
X0221075Y0058588D01*
X0221133Y0058404D01*
X0221187Y0058218D01*
X0221236Y0058031D01*
X0221281Y0057843D01*
X0221321Y0057654D01*
X0221356Y0057464D01*
X0221387Y0057273D01*
X0221413Y0057082D01*
X0221434Y0056890D01*
X0221451Y0056697D01*
X0221463Y0056504D01*
X0221470Y0056311D01*
X0221472Y0056118D01*
X0221470Y0055925D01*
X0221463Y0055732D01*
X0221451Y0055539D01*
X0221434Y0055346D01*
X0221413Y0055154D01*
X0221387Y0054963D01*
X0221356Y0054772D01*
X0221321Y0054582D01*
X0221281Y0054393D01*
X0221236Y0054205D01*
X0221187Y0054018D01*
X0221133Y0053832D01*
X0221075Y0053648D01*
X0221012Y0053465D01*
X0220944Y0053284D01*
X0220873Y0053105D01*
X0220796Y0052927D01*
X0220716Y0052751D01*
X0220631Y0052578D01*
X0220542Y0052406D01*
X0220449Y0052237D01*
X0220352Y0052070D01*
X0220250Y0051905D01*
X0220145Y0051743D01*
X0220036Y0051584D01*
X0219922Y0051427D01*
X0219805Y0051274D01*
X0219685Y0051123D01*
X0219560Y0050975D01*
X0219432Y0050830D01*
X0219301Y0050689D01*
X0219166Y0050550D01*
X0219027Y0050415D01*
X0218886Y0050284D01*
X0218741Y0050156D01*
X0218593Y0050031D01*
X0218442Y0049911D01*
X0218289Y0049794D01*
X0218132Y0049680D01*
X0217973Y0049571D01*
X0217811Y0049466D01*
X0217646Y0049364D01*
X0217479Y0049267D01*
X0217310Y0049174D01*
X0217138Y0049085D01*
X0216965Y0049000D01*
X0216789Y0048920D01*
X0216611Y0048843D01*
X0216432Y0048772D01*
X0216251Y0048704D01*
X0216068Y0048641D01*
X0215884Y0048583D01*
X0215698Y0048529D01*
X0215511Y0048480D01*
X0215323Y0048435D01*
X0215134Y0048395D01*
X0214944Y0048360D01*
X0214753Y0048329D01*
X0214562Y0048303D01*
X0214370Y0048282D01*
X0214177Y0048265D01*
X0213984Y0048253D01*
X0213791Y0048246D01*
X0213598Y0048244D01*
X0213405Y0048246D01*
X0213212Y0048253D01*
X0213019Y0048265D01*
X0212826Y0048282D01*
X0212634Y0048303D01*
X0212443Y0048329D01*
X0212252Y0048360D01*
X0212062Y0048395D01*
X0211873Y0048435D01*
X0211685Y0048480D01*
X0211498Y0048529D01*
X0211312Y0048583D01*
X0211128Y0048641D01*
X0210945Y0048704D01*
X0210764Y0048772D01*
X0210585Y0048843D01*
X0210407Y0048920D01*
X0210231Y0049000D01*
X0210058Y0049085D01*
X0209886Y0049174D01*
X0209717Y0049267D01*
X0209550Y0049364D01*
X0209385Y0049466D01*
X0209223Y0049571D01*
X0209064Y0049680D01*
X0208907Y0049794D01*
X0208754Y0049911D01*
X0208603Y0050031D01*
X0208455Y0050156D01*
X0208310Y0050284D01*
X0208169Y0050415D01*
X0208030Y0050550D01*
X0207895Y0050689D01*
X0207764Y0050830D01*
X0207636Y0050975D01*
X0207511Y0051123D01*
X0207391Y0051274D01*
X0207274Y0051427D01*
X0207160Y0051584D01*
X0207051Y0051743D01*
X0206946Y0051905D01*
X0206844Y0052070D01*
X0206747Y0052237D01*
X0206654Y0052406D01*
X0206565Y0052578D01*
X0206480Y0052751D01*
X0206400Y0052927D01*
X0206323Y0053105D01*
X0206252Y0053284D01*
X0206184Y0053465D01*
X0206121Y0053648D01*
X0206063Y0053832D01*
X0206009Y0054018D01*
X0205960Y0054205D01*
X0205915Y0054393D01*
X0205875Y0054582D01*
X0205840Y0054772D01*
X0205809Y0054963D01*
X0205783Y0055154D01*
X0205762Y0055346D01*
X0205745Y0055539D01*
X0205733Y0055732D01*
X0205726Y0055925D01*
X0205724Y0056118D01*
M02*
