G75*
%MOIN*%
%OFA0B0*%
%FSLAX25Y25*%
%IPPOS*%
%LPD*%
%AMOC8*
5,1,8,0,0,1.08239X$1,22.5*
%
%ADD10C,0.00799*%
%ADD11C,0.00787*%
%ADD12C,0.00827*%
%ADD13R,0.07480X0.07480*%
%ADD14C,0.07480*%
%ADD15C,0.03740*%
%ADD16C,0.03937*%
%ADD17C,0.02362*%
%ADD18C,0.01000*%
D10*
X0100454Y0080522D02*
X0102412Y0080522D01*
X0102412Y0076202D01*
X0100454Y0076202D01*
X0100454Y0080522D01*
X0100454Y0077000D02*
X0102412Y0077000D01*
X0102412Y0077798D02*
X0100454Y0077798D01*
X0100454Y0078596D02*
X0102412Y0078596D01*
X0102412Y0079394D02*
X0100454Y0079394D01*
X0100454Y0080192D02*
X0102412Y0080192D01*
X0105454Y0080522D02*
X0107412Y0080522D01*
X0107412Y0076202D01*
X0105454Y0076202D01*
X0105454Y0080522D01*
X0105454Y0077000D02*
X0107412Y0077000D01*
X0107412Y0077798D02*
X0105454Y0077798D01*
X0105454Y0078596D02*
X0107412Y0078596D01*
X0107412Y0079394D02*
X0105454Y0079394D01*
X0105454Y0080192D02*
X0107412Y0080192D01*
X0110454Y0080522D02*
X0112412Y0080522D01*
X0112412Y0076202D01*
X0110454Y0076202D01*
X0110454Y0080522D01*
X0110454Y0077000D02*
X0112412Y0077000D01*
X0112412Y0077798D02*
X0110454Y0077798D01*
X0110454Y0078596D02*
X0112412Y0078596D01*
X0112412Y0079394D02*
X0110454Y0079394D01*
X0110454Y0080192D02*
X0112412Y0080192D01*
X0115454Y0080522D02*
X0117412Y0080522D01*
X0117412Y0076202D01*
X0115454Y0076202D01*
X0115454Y0080522D01*
X0115454Y0077000D02*
X0117412Y0077000D01*
X0117412Y0077798D02*
X0115454Y0077798D01*
X0115454Y0078596D02*
X0117412Y0078596D01*
X0117412Y0079394D02*
X0115454Y0079394D01*
X0115454Y0080192D02*
X0117412Y0080192D01*
X0150454Y0080533D02*
X0152412Y0080533D01*
X0152412Y0076213D01*
X0150454Y0076213D01*
X0150454Y0080533D01*
X0150454Y0077011D02*
X0152412Y0077011D01*
X0152412Y0077809D02*
X0150454Y0077809D01*
X0150454Y0078607D02*
X0152412Y0078607D01*
X0152412Y0079405D02*
X0150454Y0079405D01*
X0150454Y0080203D02*
X0152412Y0080203D01*
X0155454Y0080533D02*
X0157412Y0080533D01*
X0157412Y0076213D01*
X0155454Y0076213D01*
X0155454Y0080533D01*
X0155454Y0077011D02*
X0157412Y0077011D01*
X0157412Y0077809D02*
X0155454Y0077809D01*
X0155454Y0078607D02*
X0157412Y0078607D01*
X0157412Y0079405D02*
X0155454Y0079405D01*
X0155454Y0080203D02*
X0157412Y0080203D01*
X0160454Y0080533D02*
X0162412Y0080533D01*
X0162412Y0076213D01*
X0160454Y0076213D01*
X0160454Y0080533D01*
X0160454Y0077011D02*
X0162412Y0077011D01*
X0162412Y0077809D02*
X0160454Y0077809D01*
X0160454Y0078607D02*
X0162412Y0078607D01*
X0162412Y0079405D02*
X0160454Y0079405D01*
X0160454Y0080203D02*
X0162412Y0080203D01*
X0165454Y0080533D02*
X0167412Y0080533D01*
X0167412Y0076213D01*
X0165454Y0076213D01*
X0165454Y0080533D01*
X0165454Y0077011D02*
X0167412Y0077011D01*
X0167412Y0077809D02*
X0165454Y0077809D01*
X0165454Y0078607D02*
X0167412Y0078607D01*
X0167412Y0079405D02*
X0165454Y0079405D01*
X0165454Y0080203D02*
X0167412Y0080203D01*
X0167412Y0104133D02*
X0165454Y0104133D01*
X0167412Y0104133D02*
X0167412Y0099813D01*
X0165454Y0099813D01*
X0165454Y0104133D01*
X0165454Y0100611D02*
X0167412Y0100611D01*
X0167412Y0101409D02*
X0165454Y0101409D01*
X0165454Y0102207D02*
X0167412Y0102207D01*
X0167412Y0103005D02*
X0165454Y0103005D01*
X0165454Y0103803D02*
X0167412Y0103803D01*
X0162412Y0104133D02*
X0160454Y0104133D01*
X0162412Y0104133D02*
X0162412Y0099813D01*
X0160454Y0099813D01*
X0160454Y0104133D01*
X0160454Y0100611D02*
X0162412Y0100611D01*
X0162412Y0101409D02*
X0160454Y0101409D01*
X0160454Y0102207D02*
X0162412Y0102207D01*
X0162412Y0103005D02*
X0160454Y0103005D01*
X0160454Y0103803D02*
X0162412Y0103803D01*
X0157412Y0104133D02*
X0155454Y0104133D01*
X0157412Y0104133D02*
X0157412Y0099813D01*
X0155454Y0099813D01*
X0155454Y0104133D01*
X0155454Y0100611D02*
X0157412Y0100611D01*
X0157412Y0101409D02*
X0155454Y0101409D01*
X0155454Y0102207D02*
X0157412Y0102207D01*
X0157412Y0103005D02*
X0155454Y0103005D01*
X0155454Y0103803D02*
X0157412Y0103803D01*
X0152412Y0104133D02*
X0150454Y0104133D01*
X0152412Y0104133D02*
X0152412Y0099813D01*
X0150454Y0099813D01*
X0150454Y0104133D01*
X0150454Y0100611D02*
X0152412Y0100611D01*
X0152412Y0101409D02*
X0150454Y0101409D01*
X0150454Y0102207D02*
X0152412Y0102207D01*
X0152412Y0103005D02*
X0150454Y0103005D01*
X0150454Y0103803D02*
X0152412Y0103803D01*
X0117412Y0104144D02*
X0115454Y0104144D01*
X0117412Y0104144D02*
X0117412Y0099824D01*
X0115454Y0099824D01*
X0115454Y0104144D01*
X0115454Y0100622D02*
X0117412Y0100622D01*
X0117412Y0101420D02*
X0115454Y0101420D01*
X0115454Y0102218D02*
X0117412Y0102218D01*
X0117412Y0103016D02*
X0115454Y0103016D01*
X0115454Y0103814D02*
X0117412Y0103814D01*
X0112412Y0104144D02*
X0110454Y0104144D01*
X0112412Y0104144D02*
X0112412Y0099824D01*
X0110454Y0099824D01*
X0110454Y0104144D01*
X0110454Y0100622D02*
X0112412Y0100622D01*
X0112412Y0101420D02*
X0110454Y0101420D01*
X0110454Y0102218D02*
X0112412Y0102218D01*
X0112412Y0103016D02*
X0110454Y0103016D01*
X0110454Y0103814D02*
X0112412Y0103814D01*
X0107412Y0104144D02*
X0105454Y0104144D01*
X0107412Y0104144D02*
X0107412Y0099824D01*
X0105454Y0099824D01*
X0105454Y0104144D01*
X0105454Y0100622D02*
X0107412Y0100622D01*
X0107412Y0101420D02*
X0105454Y0101420D01*
X0105454Y0102218D02*
X0107412Y0102218D01*
X0107412Y0103016D02*
X0105454Y0103016D01*
X0105454Y0103814D02*
X0107412Y0103814D01*
X0102412Y0104144D02*
X0100454Y0104144D01*
X0102412Y0104144D02*
X0102412Y0099824D01*
X0100454Y0099824D01*
X0100454Y0104144D01*
X0100454Y0100622D02*
X0102412Y0100622D01*
X0102412Y0101420D02*
X0100454Y0101420D01*
X0100454Y0102218D02*
X0102412Y0102218D01*
X0102412Y0103016D02*
X0100454Y0103016D01*
X0100454Y0103814D02*
X0102412Y0103814D01*
D11*
X0173618Y0092141D02*
X0176768Y0092141D01*
X0173618Y0092141D02*
X0173618Y0096867D01*
X0176768Y0096867D01*
X0176768Y0092141D01*
X0176768Y0092927D02*
X0173618Y0092927D01*
X0173618Y0093713D02*
X0176768Y0093713D01*
X0176768Y0094499D02*
X0173618Y0094499D01*
X0173618Y0095285D02*
X0176768Y0095285D01*
X0176768Y0096071D02*
X0173618Y0096071D01*
X0173618Y0096857D02*
X0176768Y0096857D01*
X0181098Y0092141D02*
X0184248Y0092141D01*
X0181098Y0092141D02*
X0181098Y0096867D01*
X0184248Y0096867D01*
X0184248Y0092141D01*
X0184248Y0092927D02*
X0181098Y0092927D01*
X0181098Y0093713D02*
X0184248Y0093713D01*
X0184248Y0094499D02*
X0181098Y0094499D01*
X0181098Y0095285D02*
X0184248Y0095285D01*
X0184248Y0096071D02*
X0181098Y0096071D01*
X0181098Y0096857D02*
X0184248Y0096857D01*
X0180508Y0083480D02*
X0177358Y0083480D01*
X0177358Y0088206D01*
X0180508Y0088206D01*
X0180508Y0083480D01*
X0180508Y0084266D02*
X0177358Y0084266D01*
X0177358Y0085052D02*
X0180508Y0085052D01*
X0180508Y0085838D02*
X0177358Y0085838D01*
X0177358Y0086624D02*
X0180508Y0086624D01*
X0180508Y0087410D02*
X0177358Y0087410D01*
X0177358Y0088196D02*
X0180508Y0088196D01*
D12*
X0168321Y0071197D02*
X0163241Y0071197D01*
X0168321Y0071197D02*
X0168321Y0064149D01*
X0163241Y0064149D01*
X0163241Y0071197D01*
X0163241Y0064975D02*
X0168321Y0064975D01*
X0168321Y0065801D02*
X0163241Y0065801D01*
X0163241Y0066627D02*
X0168321Y0066627D01*
X0168321Y0067453D02*
X0163241Y0067453D01*
X0163241Y0068279D02*
X0168321Y0068279D01*
X0168321Y0069105D02*
X0163241Y0069105D01*
X0163241Y0069931D02*
X0168321Y0069931D01*
X0168321Y0070757D02*
X0163241Y0070757D01*
X0154625Y0071197D02*
X0149545Y0071197D01*
X0154625Y0071197D02*
X0154625Y0064149D01*
X0149545Y0064149D01*
X0149545Y0071197D01*
X0149545Y0064975D02*
X0154625Y0064975D01*
X0154625Y0065801D02*
X0149545Y0065801D01*
X0149545Y0066627D02*
X0154625Y0066627D01*
X0154625Y0067453D02*
X0149545Y0067453D01*
X0149545Y0068279D02*
X0154625Y0068279D01*
X0154625Y0069105D02*
X0149545Y0069105D01*
X0149545Y0069931D02*
X0154625Y0069931D01*
X0154625Y0070757D02*
X0149545Y0070757D01*
X0149545Y0061197D02*
X0154625Y0061197D01*
X0154625Y0054149D01*
X0149545Y0054149D01*
X0149545Y0061197D01*
X0149545Y0054975D02*
X0154625Y0054975D01*
X0154625Y0055801D02*
X0149545Y0055801D01*
X0149545Y0056627D02*
X0154625Y0056627D01*
X0154625Y0057453D02*
X0149545Y0057453D01*
X0149545Y0058279D02*
X0154625Y0058279D01*
X0154625Y0059105D02*
X0149545Y0059105D01*
X0149545Y0059931D02*
X0154625Y0059931D01*
X0154625Y0060757D02*
X0149545Y0060757D01*
X0163241Y0061197D02*
X0168321Y0061197D01*
X0168321Y0054149D01*
X0163241Y0054149D01*
X0163241Y0061197D01*
X0163241Y0054975D02*
X0168321Y0054975D01*
X0168321Y0055801D02*
X0163241Y0055801D01*
X0163241Y0056627D02*
X0168321Y0056627D01*
X0168321Y0057453D02*
X0163241Y0057453D01*
X0163241Y0058279D02*
X0168321Y0058279D01*
X0168321Y0059105D02*
X0163241Y0059105D01*
X0163241Y0059931D02*
X0168321Y0059931D01*
X0168321Y0060757D02*
X0163241Y0060757D01*
X0184957Y0061081D02*
X0184957Y0056001D01*
X0177909Y0056001D01*
X0177909Y0061081D01*
X0184957Y0061081D01*
X0184957Y0056827D02*
X0177909Y0056827D01*
X0177909Y0057653D02*
X0184957Y0057653D01*
X0184957Y0058479D02*
X0177909Y0058479D01*
X0177909Y0059305D02*
X0184957Y0059305D01*
X0184957Y0060131D02*
X0177909Y0060131D01*
X0177909Y0060957D02*
X0184957Y0060957D01*
X0194957Y0061062D02*
X0194957Y0055982D01*
X0187909Y0055982D01*
X0187909Y0061062D01*
X0194957Y0061062D01*
X0194957Y0056808D02*
X0187909Y0056808D01*
X0187909Y0057634D02*
X0194957Y0057634D01*
X0194957Y0058460D02*
X0187909Y0058460D01*
X0187909Y0059286D02*
X0194957Y0059286D01*
X0194957Y0060112D02*
X0187909Y0060112D01*
X0187909Y0060938D02*
X0194957Y0060938D01*
X0194957Y0047365D02*
X0194957Y0042285D01*
X0187909Y0042285D01*
X0187909Y0047365D01*
X0194957Y0047365D01*
X0194957Y0043111D02*
X0187909Y0043111D01*
X0187909Y0043937D02*
X0194957Y0043937D01*
X0194957Y0044763D02*
X0187909Y0044763D01*
X0187909Y0045589D02*
X0194957Y0045589D01*
X0194957Y0046415D02*
X0187909Y0046415D01*
X0187909Y0047241D02*
X0194957Y0047241D01*
X0184957Y0047384D02*
X0184957Y0042304D01*
X0177909Y0042304D01*
X0177909Y0047384D01*
X0184957Y0047384D01*
X0184957Y0043130D02*
X0177909Y0043130D01*
X0177909Y0043956D02*
X0184957Y0043956D01*
X0184957Y0044782D02*
X0177909Y0044782D01*
X0177909Y0045608D02*
X0184957Y0045608D01*
X0184957Y0046434D02*
X0177909Y0046434D01*
X0177909Y0047260D02*
X0184957Y0047260D01*
X0129957Y0080785D02*
X0129957Y0085865D01*
X0129957Y0080785D02*
X0122909Y0080785D01*
X0122909Y0085865D01*
X0129957Y0085865D01*
X0129957Y0081611D02*
X0122909Y0081611D01*
X0122909Y0082437D02*
X0129957Y0082437D01*
X0129957Y0083263D02*
X0122909Y0083263D01*
X0122909Y0084089D02*
X0129957Y0084089D01*
X0129957Y0084915D02*
X0122909Y0084915D01*
X0122909Y0085741D02*
X0129957Y0085741D01*
X0129957Y0094482D02*
X0129957Y0099562D01*
X0129957Y0094482D02*
X0122909Y0094482D01*
X0122909Y0099562D01*
X0129957Y0099562D01*
X0129957Y0095308D02*
X0122909Y0095308D01*
X0122909Y0096134D02*
X0129957Y0096134D01*
X0129957Y0096960D02*
X0122909Y0096960D01*
X0122909Y0097786D02*
X0129957Y0097786D01*
X0129957Y0098612D02*
X0122909Y0098612D01*
X0122909Y0099438D02*
X0129957Y0099438D01*
X0084957Y0100741D02*
X0084957Y0105821D01*
X0084957Y0100741D02*
X0077909Y0100741D01*
X0077909Y0105821D01*
X0084957Y0105821D01*
X0084957Y0101567D02*
X0077909Y0101567D01*
X0077909Y0102393D02*
X0084957Y0102393D01*
X0084957Y0103219D02*
X0077909Y0103219D01*
X0077909Y0104045D02*
X0084957Y0104045D01*
X0084957Y0104871D02*
X0077909Y0104871D01*
X0077909Y0105697D02*
X0084957Y0105697D01*
X0084957Y0092125D02*
X0084957Y0087045D01*
X0077909Y0087045D01*
X0077909Y0092125D01*
X0084957Y0092125D01*
X0084957Y0087871D02*
X0077909Y0087871D01*
X0077909Y0088697D02*
X0084957Y0088697D01*
X0084957Y0089523D02*
X0077909Y0089523D01*
X0077909Y0090349D02*
X0084957Y0090349D01*
X0084957Y0091175D02*
X0077909Y0091175D01*
X0077909Y0092001D02*
X0084957Y0092001D01*
X0099545Y0071197D02*
X0104625Y0071197D01*
X0104625Y0064149D01*
X0099545Y0064149D01*
X0099545Y0071197D01*
X0099545Y0064975D02*
X0104625Y0064975D01*
X0104625Y0065801D02*
X0099545Y0065801D01*
X0099545Y0066627D02*
X0104625Y0066627D01*
X0104625Y0067453D02*
X0099545Y0067453D01*
X0099545Y0068279D02*
X0104625Y0068279D01*
X0104625Y0069105D02*
X0099545Y0069105D01*
X0099545Y0069931D02*
X0104625Y0069931D01*
X0104625Y0070757D02*
X0099545Y0070757D01*
X0113241Y0071197D02*
X0118321Y0071197D01*
X0118321Y0064149D01*
X0113241Y0064149D01*
X0113241Y0071197D01*
X0113241Y0064975D02*
X0118321Y0064975D01*
X0118321Y0065801D02*
X0113241Y0065801D01*
X0113241Y0066627D02*
X0118321Y0066627D01*
X0118321Y0067453D02*
X0113241Y0067453D01*
X0113241Y0068279D02*
X0118321Y0068279D01*
X0118321Y0069105D02*
X0113241Y0069105D01*
X0113241Y0069931D02*
X0118321Y0069931D01*
X0118321Y0070757D02*
X0113241Y0070757D01*
X0077909Y0064821D02*
X0077909Y0059741D01*
X0077909Y0064821D02*
X0084957Y0064821D01*
X0084957Y0059741D01*
X0077909Y0059741D01*
X0077909Y0060567D02*
X0084957Y0060567D01*
X0084957Y0061393D02*
X0077909Y0061393D01*
X0077909Y0062219D02*
X0084957Y0062219D01*
X0084957Y0063045D02*
X0077909Y0063045D01*
X0077909Y0063871D02*
X0084957Y0063871D01*
X0084957Y0064697D02*
X0077909Y0064697D01*
X0077909Y0051125D02*
X0077909Y0046045D01*
X0077909Y0051125D02*
X0084957Y0051125D01*
X0084957Y0046045D01*
X0077909Y0046045D01*
X0077909Y0046871D02*
X0084957Y0046871D01*
X0084957Y0047697D02*
X0077909Y0047697D01*
X0077909Y0048523D02*
X0084957Y0048523D01*
X0084957Y0049349D02*
X0077909Y0049349D01*
X0077909Y0050175D02*
X0084957Y0050175D01*
X0084957Y0051001D02*
X0077909Y0051001D01*
D13*
X0098933Y0045173D03*
X0071433Y0075803D03*
X0168933Y0045173D03*
D14*
X0158933Y0045173D03*
X0148933Y0045173D03*
X0128933Y0045173D03*
X0118933Y0045173D03*
X0108933Y0045173D03*
X0081433Y0075803D03*
D15*
X0091433Y0067673D03*
X0108933Y0072673D03*
X0123933Y0072673D03*
X0118933Y0090173D03*
X0135433Y0090173D03*
X0143933Y0090173D03*
X0152433Y0090173D03*
X0171933Y0080173D03*
X0171933Y0075173D03*
X0181433Y0073933D03*
X0191433Y0073933D03*
X0094933Y0097173D03*
X0089933Y0110173D03*
D16*
X0083041Y0103281D01*
X0081433Y0103281D01*
X0094933Y0106173D02*
X0094933Y0097173D01*
X0094933Y0106173D02*
X0098933Y0110173D01*
X0126433Y0110173D01*
X0134633Y0101973D01*
X0151433Y0101973D01*
X0151433Y0090173D02*
X0152433Y0090173D01*
X0151433Y0090173D02*
X0133933Y0072673D01*
X0123933Y0072673D01*
X0115781Y0067673D02*
X0115781Y0058022D01*
X0108933Y0051173D01*
X0108933Y0045173D01*
X0118933Y0045173D02*
X0118933Y0050173D01*
X0147133Y0078373D01*
X0150633Y0078373D01*
X0152085Y0067673D02*
X0152085Y0057673D01*
X0141433Y0057673D01*
X0128933Y0045173D01*
X0108933Y0062673D02*
X0101433Y0055173D01*
X0088022Y0055173D01*
X0081433Y0048585D01*
X0108933Y0062673D02*
X0108933Y0072673D01*
X0102085Y0067673D02*
X0091433Y0067673D01*
X0126433Y0097022D02*
X0133281Y0090173D01*
X0135433Y0090173D01*
X0127085Y0097022D02*
X0126433Y0097022D01*
X0121470Y0101984D01*
X0117470Y0101984D01*
X0126433Y0097022D02*
X0126433Y0096173D01*
X0181433Y0073933D02*
X0181433Y0058541D01*
X0191433Y0058522D02*
X0191433Y0073933D01*
D17*
X0184433Y0078433D02*
X0189933Y0083933D01*
X0189933Y0098933D01*
X0186433Y0102433D01*
X0178433Y0102433D01*
X0175193Y0099193D01*
X0175193Y0094504D01*
X0170862Y0090173D01*
X0159433Y0090173D01*
X0151433Y0082173D01*
X0151433Y0078373D01*
X0150633Y0078373D01*
X0156433Y0078373D02*
X0156433Y0072022D01*
X0152085Y0067673D01*
X0161433Y0072022D02*
X0165781Y0067673D01*
X0161433Y0072022D02*
X0161433Y0078373D01*
X0161433Y0082173D01*
X0165102Y0085843D01*
X0178933Y0085843D01*
X0179433Y0078433D02*
X0184433Y0078433D01*
X0179433Y0078433D02*
X0176433Y0075433D01*
X0176433Y0067933D01*
X0165781Y0057281D01*
X0165781Y0057673D01*
X0116433Y0068325D02*
X0115781Y0067673D01*
X0116433Y0068325D02*
X0116433Y0078362D01*
X0111433Y0078362D02*
X0111433Y0075173D01*
X0108933Y0072673D01*
X0106433Y0078362D02*
X0106433Y0082433D01*
X0114173Y0090173D01*
X0118933Y0090173D01*
X0117470Y0101984D02*
X0116433Y0101984D01*
X0143933Y0090173D02*
X0149433Y0095673D01*
X0158933Y0095673D01*
X0161433Y0098173D01*
X0161433Y0101973D01*
X0166433Y0101973D01*
X0156433Y0101973D02*
X0151433Y0101973D01*
D18*
X0072366Y0058257D02*
X0072366Y0037833D01*
X0197350Y0037833D01*
X0197350Y0058257D01*
X0198458Y0062390D01*
X0200597Y0066095D01*
X0203622Y0069120D01*
X0207327Y0071259D01*
X0211459Y0072366D01*
X0231883Y0072366D01*
X0231883Y0079240D01*
X0211459Y0079240D01*
X0207327Y0080347D01*
X0203622Y0082487D01*
X0200597Y0085512D01*
X0198458Y0089217D01*
X0197350Y0093349D01*
X0197350Y0113773D01*
X0072366Y0113773D01*
X0072366Y0093349D01*
X0071259Y0089217D01*
X0069120Y0085512D01*
X0066095Y0082487D01*
X0062390Y0080347D01*
X0058257Y0079240D01*
X0037833Y0079240D01*
X0037833Y0072366D01*
X0053979Y0072366D01*
X0058257Y0072366D01*
X0062390Y0071259D01*
X0066095Y0069120D01*
X0069120Y0066095D01*
X0071259Y0062390D01*
X0072366Y0058257D01*
X0072328Y0058400D02*
X0076545Y0058400D01*
X0076378Y0058567D02*
X0076735Y0058211D01*
X0077171Y0057959D01*
X0077658Y0057829D01*
X0080933Y0057829D01*
X0080933Y0061781D01*
X0081933Y0061781D01*
X0081933Y0057829D01*
X0085209Y0057829D01*
X0085695Y0057959D01*
X0086132Y0058211D01*
X0086488Y0058567D01*
X0086740Y0059004D01*
X0086870Y0059490D01*
X0086870Y0061782D01*
X0081933Y0061782D01*
X0081933Y0062781D01*
X0086870Y0062781D01*
X0086870Y0065073D01*
X0086740Y0065559D01*
X0086488Y0065996D01*
X0086132Y0066352D01*
X0085695Y0066604D01*
X0085209Y0066734D01*
X0081933Y0066734D01*
X0081933Y0062782D01*
X0080933Y0062782D01*
X0080933Y0066734D01*
X0077658Y0066734D01*
X0077171Y0066604D01*
X0076735Y0066352D01*
X0076378Y0065996D01*
X0076126Y0065559D01*
X0075996Y0065073D01*
X0075996Y0062781D01*
X0080933Y0062781D01*
X0080933Y0061782D01*
X0075996Y0061782D01*
X0075996Y0059490D01*
X0076126Y0059004D01*
X0076378Y0058567D01*
X0076021Y0059399D02*
X0072060Y0059399D01*
X0071793Y0060397D02*
X0075996Y0060397D01*
X0075996Y0061396D02*
X0071525Y0061396D01*
X0071256Y0062394D02*
X0080933Y0062394D01*
X0080933Y0061396D02*
X0081933Y0061396D01*
X0081933Y0062394D02*
X0104173Y0062394D01*
X0104315Y0062536D02*
X0100121Y0058342D01*
X0087391Y0058342D01*
X0086227Y0057859D01*
X0081105Y0052737D01*
X0077241Y0052737D01*
X0076296Y0051792D01*
X0076296Y0045377D01*
X0077241Y0044432D01*
X0085625Y0044432D01*
X0086570Y0045377D01*
X0086570Y0049241D01*
X0089334Y0052005D01*
X0102063Y0052005D01*
X0103228Y0052487D01*
X0111619Y0060878D01*
X0112102Y0062043D01*
X0112102Y0063009D01*
X0112574Y0062536D01*
X0112613Y0062536D01*
X0112613Y0059334D01*
X0107138Y0053859D01*
X0106247Y0052968D01*
X0105765Y0051803D01*
X0105765Y0048991D01*
X0104745Y0047972D01*
X0104173Y0046591D01*
X0104173Y0049111D01*
X0104071Y0049492D01*
X0103874Y0049834D01*
X0103594Y0050114D01*
X0103252Y0050311D01*
X0102871Y0050413D01*
X0099417Y0050413D01*
X0099417Y0045658D01*
X0098449Y0045658D01*
X0098449Y0050413D01*
X0094995Y0050413D01*
X0094614Y0050311D01*
X0094272Y0050114D01*
X0093993Y0049834D01*
X0093795Y0049492D01*
X0093693Y0049111D01*
X0093693Y0045657D01*
X0098449Y0045657D01*
X0098449Y0044689D01*
X0099417Y0044689D01*
X0099417Y0039933D01*
X0102871Y0039933D01*
X0103252Y0040035D01*
X0103594Y0040233D01*
X0103874Y0040512D01*
X0104071Y0040854D01*
X0104173Y0041236D01*
X0104173Y0043755D01*
X0104745Y0042375D01*
X0106135Y0040985D01*
X0107950Y0040233D01*
X0109916Y0040233D01*
X0111731Y0040985D01*
X0113121Y0042375D01*
X0113873Y0044191D01*
X0113873Y0046156D01*
X0113121Y0047972D01*
X0112102Y0048991D01*
X0112102Y0049861D01*
X0118468Y0056227D01*
X0118950Y0057391D01*
X0118950Y0062536D01*
X0118989Y0062536D01*
X0119934Y0063481D01*
X0119934Y0071865D01*
X0118989Y0072810D01*
X0118814Y0072810D01*
X0118814Y0075343D01*
X0119011Y0075540D01*
X0119011Y0081184D01*
X0118074Y0082121D01*
X0114792Y0082121D01*
X0113933Y0081262D01*
X0113074Y0082121D01*
X0109792Y0082121D01*
X0108933Y0081262D01*
X0108814Y0081381D01*
X0108814Y0081447D01*
X0115160Y0087792D01*
X0116972Y0087792D01*
X0117194Y0087571D01*
X0118322Y0087103D01*
X0119544Y0087103D01*
X0120672Y0087571D01*
X0121536Y0088434D01*
X0122003Y0089563D01*
X0122003Y0090784D01*
X0121536Y0091912D01*
X0120672Y0092776D01*
X0119544Y0093243D01*
X0118322Y0093243D01*
X0117194Y0092776D01*
X0116972Y0092554D01*
X0113187Y0092554D01*
X0105447Y0084814D01*
X0104052Y0083419D01*
X0104052Y0081479D01*
X0103931Y0081688D01*
X0103578Y0082042D01*
X0103145Y0082292D01*
X0102662Y0082421D01*
X0101622Y0082421D01*
X0101622Y0078551D01*
X0101244Y0078551D01*
X0101244Y0078173D01*
X0101622Y0078173D01*
X0101622Y0074303D01*
X0102662Y0074303D01*
X0103145Y0074433D01*
X0103578Y0074683D01*
X0103931Y0075036D01*
X0104088Y0075307D01*
X0104792Y0074603D01*
X0106382Y0074603D01*
X0106247Y0074468D01*
X0105765Y0073303D01*
X0105765Y0072338D01*
X0105292Y0072810D01*
X0098877Y0072810D01*
X0097932Y0071865D01*
X0097932Y0070842D01*
X0090803Y0070842D01*
X0089638Y0070359D01*
X0088747Y0069468D01*
X0088265Y0068303D01*
X0088265Y0067043D01*
X0088747Y0065878D01*
X0089638Y0064987D01*
X0090803Y0064505D01*
X0097932Y0064505D01*
X0097932Y0063481D01*
X0098877Y0062536D01*
X0104315Y0062536D01*
X0103175Y0061396D02*
X0086870Y0061396D01*
X0086870Y0060397D02*
X0102176Y0060397D01*
X0101178Y0059399D02*
X0086846Y0059399D01*
X0086321Y0058400D02*
X0100179Y0058400D01*
X0106146Y0055405D02*
X0108684Y0055405D01*
X0109682Y0056403D02*
X0107144Y0056403D01*
X0108143Y0057402D02*
X0110681Y0057402D01*
X0111679Y0058400D02*
X0109141Y0058400D01*
X0110140Y0059399D02*
X0112613Y0059399D01*
X0112613Y0060397D02*
X0111138Y0060397D01*
X0111834Y0061396D02*
X0112613Y0061396D01*
X0112613Y0062394D02*
X0112102Y0062394D01*
X0118950Y0062394D02*
X0126673Y0062394D01*
X0125675Y0061396D02*
X0118950Y0061396D01*
X0118950Y0060397D02*
X0124676Y0060397D01*
X0123678Y0059399D02*
X0118950Y0059399D01*
X0118950Y0058400D02*
X0122679Y0058400D01*
X0121681Y0057402D02*
X0118950Y0057402D01*
X0118541Y0056403D02*
X0120682Y0056403D01*
X0119684Y0055405D02*
X0117646Y0055405D01*
X0116647Y0054406D02*
X0118685Y0054406D01*
X0117687Y0053408D02*
X0115649Y0053408D01*
X0114650Y0052409D02*
X0116688Y0052409D01*
X0116247Y0051968D02*
X0115765Y0050803D01*
X0115765Y0048991D01*
X0114745Y0047972D01*
X0113993Y0046156D01*
X0113993Y0044191D01*
X0114745Y0042375D01*
X0116135Y0040985D01*
X0117950Y0040233D01*
X0119916Y0040233D01*
X0121731Y0040985D01*
X0123121Y0042375D01*
X0123873Y0044191D01*
X0123873Y0046156D01*
X0123121Y0047972D01*
X0122167Y0048926D01*
X0148446Y0075205D01*
X0149202Y0075205D01*
X0149792Y0074614D01*
X0153074Y0074614D01*
X0153933Y0075473D01*
X0154052Y0075354D01*
X0154052Y0073008D01*
X0153854Y0072810D01*
X0148877Y0072810D01*
X0147932Y0071865D01*
X0147932Y0063481D01*
X0148740Y0062673D01*
X0147932Y0061865D01*
X0147932Y0060842D01*
X0140803Y0060842D01*
X0139638Y0060359D01*
X0138747Y0059468D01*
X0129392Y0050113D01*
X0127950Y0050113D01*
X0126135Y0049361D01*
X0124745Y0047972D01*
X0123993Y0046156D01*
X0123993Y0044191D01*
X0124745Y0042375D01*
X0126135Y0040985D01*
X0127950Y0040233D01*
X0129916Y0040233D01*
X0131731Y0040985D01*
X0133121Y0042375D01*
X0133873Y0044191D01*
X0133873Y0045632D01*
X0142746Y0054505D01*
X0147932Y0054505D01*
X0147932Y0053481D01*
X0148877Y0052536D01*
X0155292Y0052536D01*
X0156237Y0053481D01*
X0156237Y0061865D01*
X0155429Y0062673D01*
X0156237Y0063481D01*
X0156237Y0068459D01*
X0158814Y0071035D01*
X0158814Y0075354D01*
X0158933Y0075473D01*
X0159052Y0075354D01*
X0159052Y0071035D01*
X0161629Y0068459D01*
X0161629Y0063481D01*
X0162437Y0062673D01*
X0161629Y0061865D01*
X0161629Y0053481D01*
X0162574Y0052536D01*
X0168989Y0052536D01*
X0169934Y0053481D01*
X0169934Y0058067D01*
X0177419Y0065552D01*
X0178265Y0066397D01*
X0178265Y0062694D01*
X0177241Y0062694D01*
X0176296Y0061749D01*
X0176296Y0055334D01*
X0177241Y0054389D01*
X0185625Y0054389D01*
X0186423Y0055187D01*
X0187241Y0054369D01*
X0195625Y0054369D01*
X0196570Y0055314D01*
X0196570Y0061729D01*
X0195625Y0062674D01*
X0194602Y0062674D01*
X0194602Y0074563D01*
X0194119Y0075728D01*
X0193228Y0076619D01*
X0192063Y0077102D01*
X0190803Y0077102D01*
X0189638Y0076619D01*
X0188747Y0075728D01*
X0188265Y0074563D01*
X0188265Y0062674D01*
X0187241Y0062674D01*
X0186443Y0061876D01*
X0185625Y0062694D01*
X0184602Y0062694D01*
X0184602Y0074563D01*
X0184119Y0075728D01*
X0183795Y0076052D01*
X0185419Y0076052D01*
X0190919Y0081552D01*
X0192314Y0082947D01*
X0192314Y0099919D01*
X0188814Y0103419D01*
X0187419Y0104814D01*
X0177447Y0104814D01*
X0174207Y0101574D01*
X0172812Y0100179D01*
X0172812Y0098314D01*
X0172024Y0097526D01*
X0172024Y0094703D01*
X0169876Y0092554D01*
X0158447Y0092554D01*
X0155602Y0089709D01*
X0155602Y0090803D01*
X0155119Y0091968D01*
X0154228Y0092859D01*
X0153183Y0093292D01*
X0159919Y0093292D01*
X0162419Y0095792D01*
X0163814Y0097187D01*
X0163814Y0098954D01*
X0163933Y0099073D01*
X0164792Y0098214D01*
X0168074Y0098214D01*
X0169011Y0099151D01*
X0169011Y0104795D01*
X0168074Y0105732D01*
X0164792Y0105732D01*
X0163933Y0104873D01*
X0163074Y0105732D01*
X0159792Y0105732D01*
X0158933Y0104873D01*
X0158074Y0105732D01*
X0154792Y0105732D01*
X0153933Y0104873D01*
X0153074Y0105732D01*
X0149792Y0105732D01*
X0149202Y0105142D01*
X0135946Y0105142D01*
X0128228Y0112859D01*
X0127063Y0113342D01*
X0098303Y0113342D01*
X0097138Y0112859D01*
X0093138Y0108859D01*
X0092247Y0107968D01*
X0091765Y0106803D01*
X0091765Y0096543D01*
X0092247Y0095378D01*
X0093138Y0094487D01*
X0094303Y0094005D01*
X0095563Y0094005D01*
X0096728Y0094487D01*
X0097619Y0095378D01*
X0098102Y0096543D01*
X0098102Y0104861D01*
X0100246Y0107005D01*
X0125121Y0107005D01*
X0132838Y0099287D01*
X0134003Y0098805D01*
X0149202Y0098805D01*
X0149792Y0098214D01*
X0153074Y0098214D01*
X0153933Y0099073D01*
X0154792Y0098214D01*
X0158074Y0098214D01*
X0158933Y0099073D01*
X0158949Y0099057D01*
X0157947Y0098054D01*
X0148447Y0098054D01*
X0147052Y0096660D01*
X0143636Y0093243D01*
X0143322Y0093243D01*
X0142194Y0092776D01*
X0141330Y0091912D01*
X0140863Y0090784D01*
X0140863Y0089563D01*
X0141330Y0088434D01*
X0142194Y0087571D01*
X0143322Y0087103D01*
X0143882Y0087103D01*
X0132621Y0075842D01*
X0123303Y0075842D01*
X0122138Y0075359D01*
X0121247Y0074468D01*
X0120765Y0073303D01*
X0120765Y0072043D01*
X0121247Y0070878D01*
X0122138Y0069987D01*
X0123303Y0069505D01*
X0133784Y0069505D01*
X0117138Y0052859D01*
X0116247Y0051968D01*
X0116016Y0051411D02*
X0113652Y0051411D01*
X0112653Y0050412D02*
X0115765Y0050412D01*
X0115765Y0049414D02*
X0112102Y0049414D01*
X0112678Y0048415D02*
X0115189Y0048415D01*
X0114515Y0047417D02*
X0113351Y0047417D01*
X0113765Y0046418D02*
X0114102Y0046418D01*
X0113993Y0045420D02*
X0113873Y0045420D01*
X0113873Y0044421D02*
X0113993Y0044421D01*
X0114311Y0043423D02*
X0113555Y0043423D01*
X0113142Y0042424D02*
X0114725Y0042424D01*
X0115694Y0041426D02*
X0112172Y0041426D01*
X0110384Y0040427D02*
X0117482Y0040427D01*
X0120384Y0040427D02*
X0127482Y0040427D01*
X0125694Y0041426D02*
X0122172Y0041426D01*
X0123142Y0042424D02*
X0124725Y0042424D01*
X0124311Y0043423D02*
X0123555Y0043423D01*
X0123873Y0044421D02*
X0123993Y0044421D01*
X0123993Y0045420D02*
X0123873Y0045420D01*
X0123765Y0046418D02*
X0124102Y0046418D01*
X0124515Y0047417D02*
X0123351Y0047417D01*
X0122678Y0048415D02*
X0125189Y0048415D01*
X0126261Y0049414D02*
X0122654Y0049414D01*
X0123653Y0050412D02*
X0129691Y0050412D01*
X0130690Y0051411D02*
X0124652Y0051411D01*
X0125650Y0052409D02*
X0131688Y0052409D01*
X0132687Y0053408D02*
X0126649Y0053408D01*
X0127647Y0054406D02*
X0133685Y0054406D01*
X0134684Y0055405D02*
X0128646Y0055405D01*
X0129644Y0056403D02*
X0135682Y0056403D01*
X0136681Y0057402D02*
X0130643Y0057402D01*
X0131641Y0058400D02*
X0137679Y0058400D01*
X0138678Y0059399D02*
X0132640Y0059399D01*
X0133638Y0060397D02*
X0139730Y0060397D01*
X0136634Y0063393D02*
X0148020Y0063393D01*
X0147932Y0064391D02*
X0137632Y0064391D01*
X0138631Y0065390D02*
X0147932Y0065390D01*
X0147932Y0066388D02*
X0139629Y0066388D01*
X0140628Y0067387D02*
X0147932Y0067387D01*
X0147932Y0068385D02*
X0141626Y0068385D01*
X0142625Y0069384D02*
X0147932Y0069384D01*
X0147932Y0070382D02*
X0143623Y0070382D01*
X0144622Y0071381D02*
X0147932Y0071381D01*
X0148446Y0072379D02*
X0145620Y0072379D01*
X0146619Y0073378D02*
X0154052Y0073378D01*
X0154052Y0074377D02*
X0147617Y0074377D01*
X0153835Y0075375D02*
X0154031Y0075375D01*
X0158835Y0075375D02*
X0159031Y0075375D01*
X0159052Y0074377D02*
X0158814Y0074377D01*
X0158814Y0073378D02*
X0159052Y0073378D01*
X0159052Y0072379D02*
X0158814Y0072379D01*
X0158814Y0071381D02*
X0159052Y0071381D01*
X0159705Y0070382D02*
X0158161Y0070382D01*
X0157163Y0069384D02*
X0160703Y0069384D01*
X0161629Y0068385D02*
X0156237Y0068385D01*
X0156237Y0067387D02*
X0161629Y0067387D01*
X0161629Y0066388D02*
X0156237Y0066388D01*
X0156237Y0065390D02*
X0161629Y0065390D01*
X0161629Y0064391D02*
X0156237Y0064391D01*
X0156149Y0063393D02*
X0161717Y0063393D01*
X0162158Y0062394D02*
X0155708Y0062394D01*
X0156237Y0061396D02*
X0161629Y0061396D01*
X0161629Y0060397D02*
X0156237Y0060397D01*
X0156237Y0059399D02*
X0161629Y0059399D01*
X0161629Y0058400D02*
X0156237Y0058400D01*
X0156237Y0057402D02*
X0161629Y0057402D01*
X0161629Y0056403D02*
X0156237Y0056403D01*
X0156237Y0055405D02*
X0161629Y0055405D01*
X0161629Y0054406D02*
X0156237Y0054406D01*
X0156164Y0053408D02*
X0161702Y0053408D01*
X0159916Y0050113D02*
X0157950Y0050113D01*
X0156135Y0049361D01*
X0154745Y0047972D01*
X0153993Y0046156D01*
X0153993Y0044191D01*
X0154745Y0042375D01*
X0156135Y0040985D01*
X0157950Y0040233D01*
X0159916Y0040233D01*
X0161731Y0040985D01*
X0163121Y0042375D01*
X0163693Y0043755D01*
X0163693Y0041236D01*
X0163795Y0040854D01*
X0163993Y0040512D01*
X0164272Y0040233D01*
X0164614Y0040035D01*
X0164995Y0039933D01*
X0168449Y0039933D01*
X0168449Y0044689D01*
X0169417Y0044689D01*
X0169417Y0039933D01*
X0172871Y0039933D01*
X0173252Y0040035D01*
X0173594Y0040233D01*
X0173874Y0040512D01*
X0174071Y0040854D01*
X0174173Y0041236D01*
X0174173Y0044689D01*
X0169417Y0044689D01*
X0169417Y0045657D01*
X0174173Y0045657D01*
X0174173Y0049111D01*
X0174071Y0049492D01*
X0173874Y0049834D01*
X0173594Y0050114D01*
X0173252Y0050311D01*
X0172871Y0050413D01*
X0169417Y0050413D01*
X0169417Y0045658D01*
X0168449Y0045658D01*
X0168449Y0050413D01*
X0164995Y0050413D01*
X0164614Y0050311D01*
X0164272Y0050114D01*
X0163993Y0049834D01*
X0163795Y0049492D01*
X0163693Y0049111D01*
X0163693Y0046591D01*
X0163121Y0047972D01*
X0161731Y0049361D01*
X0159916Y0050113D01*
X0161605Y0049414D02*
X0163774Y0049414D01*
X0163693Y0048415D02*
X0162678Y0048415D01*
X0163351Y0047417D02*
X0163693Y0047417D01*
X0164991Y0050412D02*
X0138653Y0050412D01*
X0137655Y0049414D02*
X0146261Y0049414D01*
X0146135Y0049361D02*
X0144745Y0047972D01*
X0143993Y0046156D01*
X0143993Y0044191D01*
X0144745Y0042375D01*
X0146135Y0040985D01*
X0147950Y0040233D01*
X0149916Y0040233D01*
X0151731Y0040985D01*
X0153121Y0042375D01*
X0153873Y0044191D01*
X0153873Y0046156D01*
X0153121Y0047972D01*
X0151731Y0049361D01*
X0149916Y0050113D01*
X0147950Y0050113D01*
X0146135Y0049361D01*
X0145189Y0048415D02*
X0136656Y0048415D01*
X0135657Y0047417D02*
X0144515Y0047417D01*
X0144102Y0046418D02*
X0134659Y0046418D01*
X0133873Y0045420D02*
X0143993Y0045420D01*
X0143993Y0044421D02*
X0133873Y0044421D01*
X0133555Y0043423D02*
X0144311Y0043423D01*
X0144725Y0042424D02*
X0133142Y0042424D01*
X0132172Y0041426D02*
X0145694Y0041426D01*
X0147482Y0040427D02*
X0130384Y0040427D01*
X0139652Y0051411D02*
X0197350Y0051411D01*
X0197350Y0052409D02*
X0140650Y0052409D01*
X0141649Y0053408D02*
X0148005Y0053408D01*
X0147932Y0054406D02*
X0142647Y0054406D01*
X0151605Y0049414D02*
X0156261Y0049414D01*
X0155189Y0048415D02*
X0152678Y0048415D01*
X0153351Y0047417D02*
X0154515Y0047417D01*
X0154102Y0046418D02*
X0153765Y0046418D01*
X0153873Y0045420D02*
X0153993Y0045420D01*
X0153993Y0044421D02*
X0153873Y0044421D01*
X0153555Y0043423D02*
X0154311Y0043423D01*
X0154725Y0042424D02*
X0153142Y0042424D01*
X0152172Y0041426D02*
X0155694Y0041426D01*
X0157482Y0040427D02*
X0150384Y0040427D01*
X0160384Y0040427D02*
X0164078Y0040427D01*
X0163693Y0041426D02*
X0162172Y0041426D01*
X0163142Y0042424D02*
X0163693Y0042424D01*
X0163693Y0043423D02*
X0163555Y0043423D01*
X0168449Y0043423D02*
X0169417Y0043423D01*
X0169417Y0044421D02*
X0168449Y0044421D01*
X0169417Y0045420D02*
X0175996Y0045420D01*
X0175996Y0045344D02*
X0175996Y0047636D01*
X0176126Y0048122D01*
X0176378Y0048559D01*
X0176735Y0048915D01*
X0177171Y0049167D01*
X0177658Y0049297D01*
X0180933Y0049297D01*
X0180933Y0045345D01*
X0181933Y0045345D01*
X0181933Y0049297D01*
X0185209Y0049297D01*
X0185695Y0049167D01*
X0186132Y0048915D01*
X0186443Y0048604D01*
X0186735Y0048895D01*
X0187171Y0049147D01*
X0187658Y0049278D01*
X0190933Y0049278D01*
X0190933Y0045325D01*
X0191933Y0045325D01*
X0191933Y0049278D01*
X0195209Y0049278D01*
X0195695Y0049147D01*
X0196132Y0048895D01*
X0196488Y0048539D01*
X0196740Y0048103D01*
X0196870Y0047616D01*
X0196870Y0045325D01*
X0191933Y0045325D01*
X0191933Y0044325D01*
X0196870Y0044325D01*
X0196870Y0042034D01*
X0196740Y0041547D01*
X0196488Y0041111D01*
X0196132Y0040754D01*
X0195695Y0040502D01*
X0195209Y0040372D01*
X0191933Y0040372D01*
X0191933Y0044325D01*
X0190933Y0044325D01*
X0186870Y0044325D01*
X0186870Y0044345D01*
X0181933Y0044345D01*
X0181933Y0045344D01*
X0185996Y0045344D01*
X0185996Y0045325D01*
X0190933Y0045325D01*
X0190933Y0044325D01*
X0190933Y0040372D01*
X0187658Y0040372D01*
X0187171Y0040502D01*
X0186735Y0040754D01*
X0186423Y0041066D01*
X0186132Y0040774D01*
X0185695Y0040522D01*
X0185209Y0040392D01*
X0181933Y0040392D01*
X0181933Y0044344D01*
X0180933Y0044344D01*
X0180933Y0040392D01*
X0177658Y0040392D01*
X0177171Y0040522D01*
X0176735Y0040774D01*
X0176378Y0041130D01*
X0176126Y0041567D01*
X0175996Y0042053D01*
X0175996Y0044345D01*
X0180933Y0044345D01*
X0180933Y0045344D01*
X0175996Y0045344D01*
X0175996Y0046418D02*
X0174173Y0046418D01*
X0174173Y0047417D02*
X0175996Y0047417D01*
X0176296Y0048415D02*
X0174173Y0048415D01*
X0174092Y0049414D02*
X0197350Y0049414D01*
X0197350Y0050412D02*
X0172875Y0050412D01*
X0169417Y0050412D02*
X0168449Y0050412D01*
X0168449Y0049414D02*
X0169417Y0049414D01*
X0169417Y0048415D02*
X0168449Y0048415D01*
X0168449Y0047417D02*
X0169417Y0047417D01*
X0169417Y0046418D02*
X0168449Y0046418D01*
X0174173Y0044421D02*
X0180933Y0044421D01*
X0180933Y0043423D02*
X0181933Y0043423D01*
X0181933Y0044421D02*
X0190933Y0044421D01*
X0190933Y0043423D02*
X0191933Y0043423D01*
X0191933Y0044421D02*
X0197350Y0044421D01*
X0197350Y0043423D02*
X0196870Y0043423D01*
X0196870Y0042424D02*
X0197350Y0042424D01*
X0197350Y0041426D02*
X0196670Y0041426D01*
X0197350Y0040427D02*
X0195414Y0040427D01*
X0197350Y0039429D02*
X0072366Y0039429D01*
X0072366Y0040427D02*
X0094078Y0040427D01*
X0093993Y0040512D02*
X0094272Y0040233D01*
X0094614Y0040035D01*
X0094995Y0039933D01*
X0098449Y0039933D01*
X0098449Y0044689D01*
X0093693Y0044689D01*
X0093693Y0041236D01*
X0093795Y0040854D01*
X0093993Y0040512D01*
X0093693Y0041426D02*
X0072366Y0041426D01*
X0072366Y0042424D02*
X0093693Y0042424D01*
X0093693Y0043423D02*
X0072366Y0043423D01*
X0072366Y0044421D02*
X0093693Y0044421D01*
X0093693Y0046418D02*
X0086570Y0046418D01*
X0086570Y0045420D02*
X0098449Y0045420D01*
X0098449Y0046418D02*
X0099417Y0046418D01*
X0099417Y0047417D02*
X0098449Y0047417D01*
X0098449Y0048415D02*
X0099417Y0048415D01*
X0099417Y0049414D02*
X0098449Y0049414D01*
X0098449Y0050412D02*
X0099417Y0050412D01*
X0094991Y0050412D02*
X0087742Y0050412D01*
X0088740Y0051411D02*
X0105765Y0051411D01*
X0105765Y0050412D02*
X0102875Y0050412D01*
X0104092Y0049414D02*
X0105765Y0049414D01*
X0105189Y0048415D02*
X0104173Y0048415D01*
X0104173Y0047417D02*
X0104515Y0047417D01*
X0099417Y0044421D02*
X0098449Y0044421D01*
X0098449Y0043423D02*
X0099417Y0043423D01*
X0099417Y0042424D02*
X0098449Y0042424D01*
X0098449Y0041426D02*
X0099417Y0041426D01*
X0099417Y0040427D02*
X0098449Y0040427D01*
X0103789Y0040427D02*
X0107482Y0040427D01*
X0105694Y0041426D02*
X0104173Y0041426D01*
X0104173Y0042424D02*
X0104725Y0042424D01*
X0104311Y0043423D02*
X0104173Y0043423D01*
X0093693Y0047417D02*
X0086570Y0047417D01*
X0086570Y0048415D02*
X0093693Y0048415D01*
X0093774Y0049414D02*
X0086743Y0049414D01*
X0081775Y0053408D02*
X0072366Y0053408D01*
X0072366Y0054406D02*
X0082774Y0054406D01*
X0083772Y0055405D02*
X0072366Y0055405D01*
X0072366Y0056403D02*
X0084771Y0056403D01*
X0085769Y0057402D02*
X0072366Y0057402D01*
X0072366Y0052409D02*
X0076913Y0052409D01*
X0076296Y0051411D02*
X0072366Y0051411D01*
X0072366Y0050412D02*
X0076296Y0050412D01*
X0076296Y0049414D02*
X0072366Y0049414D01*
X0072366Y0048415D02*
X0076296Y0048415D01*
X0076296Y0047417D02*
X0072366Y0047417D01*
X0072366Y0046418D02*
X0076296Y0046418D01*
X0076296Y0045420D02*
X0072366Y0045420D01*
X0072366Y0038430D02*
X0197350Y0038430D01*
X0191933Y0040427D02*
X0190933Y0040427D01*
X0190933Y0041426D02*
X0191933Y0041426D01*
X0191933Y0042424D02*
X0190933Y0042424D01*
X0187452Y0040427D02*
X0185341Y0040427D01*
X0181933Y0040427D02*
X0180933Y0040427D01*
X0180933Y0041426D02*
X0181933Y0041426D01*
X0181933Y0042424D02*
X0180933Y0042424D01*
X0180933Y0045420D02*
X0181933Y0045420D01*
X0181933Y0046418D02*
X0180933Y0046418D01*
X0180933Y0047417D02*
X0181933Y0047417D01*
X0181933Y0048415D02*
X0180933Y0048415D01*
X0175996Y0043423D02*
X0174173Y0043423D01*
X0174173Y0042424D02*
X0175996Y0042424D01*
X0176208Y0041426D02*
X0174173Y0041426D01*
X0173789Y0040427D02*
X0177525Y0040427D01*
X0169417Y0040427D02*
X0168449Y0040427D01*
X0168449Y0041426D02*
X0169417Y0041426D01*
X0169417Y0042424D02*
X0168449Y0042424D01*
X0169861Y0053408D02*
X0197350Y0053408D01*
X0197350Y0054406D02*
X0195662Y0054406D01*
X0196570Y0055405D02*
X0197350Y0055405D01*
X0197350Y0056403D02*
X0196570Y0056403D01*
X0196570Y0057402D02*
X0197350Y0057402D01*
X0197389Y0058400D02*
X0196570Y0058400D01*
X0196570Y0059399D02*
X0197656Y0059399D01*
X0197924Y0060397D02*
X0196570Y0060397D01*
X0196570Y0061396D02*
X0198191Y0061396D01*
X0198460Y0062394D02*
X0195905Y0062394D01*
X0194602Y0063393D02*
X0199037Y0063393D01*
X0199613Y0064391D02*
X0194602Y0064391D01*
X0194602Y0065390D02*
X0200190Y0065390D01*
X0200891Y0066388D02*
X0194602Y0066388D01*
X0194602Y0067387D02*
X0201889Y0067387D01*
X0202888Y0068385D02*
X0194602Y0068385D01*
X0194602Y0069384D02*
X0204079Y0069384D01*
X0205809Y0070382D02*
X0194602Y0070382D01*
X0194602Y0071381D02*
X0207783Y0071381D01*
X0210978Y0079369D02*
X0188736Y0079369D01*
X0187738Y0078371D02*
X0231883Y0078371D01*
X0231883Y0077372D02*
X0186739Y0077372D01*
X0185741Y0076374D02*
X0189393Y0076374D01*
X0188601Y0075375D02*
X0184265Y0075375D01*
X0184602Y0074377D02*
X0188265Y0074377D01*
X0188265Y0073378D02*
X0184602Y0073378D01*
X0184602Y0072379D02*
X0188265Y0072379D01*
X0188265Y0071381D02*
X0184602Y0071381D01*
X0184602Y0070382D02*
X0188265Y0070382D01*
X0188265Y0069384D02*
X0184602Y0069384D01*
X0184602Y0068385D02*
X0188265Y0068385D01*
X0188265Y0067387D02*
X0184602Y0067387D01*
X0184602Y0066388D02*
X0188265Y0066388D01*
X0188265Y0065390D02*
X0184602Y0065390D01*
X0184602Y0064391D02*
X0188265Y0064391D01*
X0188265Y0063393D02*
X0184602Y0063393D01*
X0185925Y0062394D02*
X0186961Y0062394D01*
X0178265Y0063393D02*
X0175260Y0063393D01*
X0174262Y0062394D02*
X0176941Y0062394D01*
X0176296Y0061396D02*
X0173263Y0061396D01*
X0172265Y0060397D02*
X0176296Y0060397D01*
X0176296Y0059399D02*
X0171266Y0059399D01*
X0170268Y0058400D02*
X0176296Y0058400D01*
X0176296Y0057402D02*
X0169934Y0057402D01*
X0169934Y0056403D02*
X0176296Y0056403D01*
X0176296Y0055405D02*
X0169934Y0055405D01*
X0169934Y0054406D02*
X0177223Y0054406D01*
X0185643Y0054406D02*
X0187204Y0054406D01*
X0190933Y0048415D02*
X0191933Y0048415D01*
X0191933Y0047417D02*
X0190933Y0047417D01*
X0190933Y0046418D02*
X0191933Y0046418D01*
X0191933Y0045420D02*
X0190933Y0045420D01*
X0196870Y0045420D02*
X0197350Y0045420D01*
X0197350Y0046418D02*
X0196870Y0046418D01*
X0196870Y0047417D02*
X0197350Y0047417D01*
X0197350Y0048415D02*
X0196559Y0048415D01*
X0178265Y0064391D02*
X0176259Y0064391D01*
X0177257Y0065390D02*
X0178265Y0065390D01*
X0178256Y0066388D02*
X0178265Y0066388D01*
X0174052Y0068919D02*
X0169934Y0064802D01*
X0169934Y0071865D01*
X0168989Y0072810D01*
X0164012Y0072810D01*
X0163814Y0073008D01*
X0163814Y0075256D01*
X0163935Y0075047D01*
X0164288Y0074694D01*
X0164721Y0074444D01*
X0165205Y0074314D01*
X0166244Y0074314D01*
X0166244Y0078184D01*
X0166622Y0078184D01*
X0166622Y0074314D01*
X0167662Y0074314D01*
X0168145Y0074444D01*
X0168578Y0074694D01*
X0168931Y0075047D01*
X0169182Y0075481D01*
X0169311Y0075964D01*
X0169311Y0078184D01*
X0166622Y0078184D01*
X0166622Y0078562D01*
X0169311Y0078562D01*
X0169311Y0080783D01*
X0169182Y0081266D01*
X0168931Y0081699D01*
X0168578Y0082053D01*
X0168145Y0082303D01*
X0167662Y0082432D01*
X0166622Y0082432D01*
X0166622Y0078562D01*
X0166244Y0078562D01*
X0166244Y0082432D01*
X0165205Y0082432D01*
X0165006Y0082379D01*
X0166089Y0083461D01*
X0175765Y0083461D01*
X0175765Y0082820D01*
X0176698Y0081887D01*
X0181168Y0081887D01*
X0182102Y0082820D01*
X0182102Y0088865D01*
X0181168Y0089798D01*
X0176698Y0089798D01*
X0175765Y0088865D01*
X0175765Y0088224D01*
X0172280Y0088224D01*
X0173243Y0089187D01*
X0174604Y0090548D01*
X0177428Y0090548D01*
X0178361Y0091482D01*
X0178361Y0097526D01*
X0177628Y0098260D01*
X0179419Y0100052D01*
X0185447Y0100052D01*
X0187552Y0097947D01*
X0187552Y0084919D01*
X0183447Y0080814D01*
X0178447Y0080814D01*
X0177052Y0079419D01*
X0174052Y0076419D01*
X0174052Y0068919D01*
X0174052Y0069384D02*
X0169934Y0069384D01*
X0169934Y0070382D02*
X0174052Y0070382D01*
X0174052Y0071381D02*
X0169934Y0071381D01*
X0169420Y0072379D02*
X0174052Y0072379D01*
X0174052Y0073378D02*
X0163814Y0073378D01*
X0163814Y0074377D02*
X0164972Y0074377D01*
X0166244Y0074377D02*
X0166622Y0074377D01*
X0166622Y0075375D02*
X0166244Y0075375D01*
X0166244Y0076374D02*
X0166622Y0076374D01*
X0166622Y0077372D02*
X0166244Y0077372D01*
X0166622Y0078371D02*
X0176003Y0078371D01*
X0177002Y0079369D02*
X0169311Y0079369D01*
X0169311Y0080368D02*
X0178000Y0080368D01*
X0176220Y0082365D02*
X0167914Y0082365D01*
X0166622Y0082365D02*
X0166244Y0082365D01*
X0166244Y0081366D02*
X0166622Y0081366D01*
X0166622Y0080368D02*
X0166244Y0080368D01*
X0166244Y0079369D02*
X0166622Y0079369D01*
X0169124Y0081366D02*
X0183999Y0081366D01*
X0184997Y0082365D02*
X0181646Y0082365D01*
X0182102Y0083363D02*
X0185996Y0083363D01*
X0186994Y0084362D02*
X0182102Y0084362D01*
X0182102Y0085360D02*
X0187552Y0085360D01*
X0187552Y0086359D02*
X0182102Y0086359D01*
X0182102Y0087357D02*
X0187552Y0087357D01*
X0187552Y0088356D02*
X0182102Y0088356D01*
X0181612Y0089354D02*
X0187552Y0089354D01*
X0187552Y0090353D02*
X0184888Y0090353D01*
X0184979Y0090377D02*
X0185411Y0090626D01*
X0185763Y0090979D01*
X0186013Y0091411D01*
X0186142Y0091892D01*
X0186142Y0094020D01*
X0183158Y0094020D01*
X0183158Y0094988D01*
X0186142Y0094988D01*
X0186142Y0097115D01*
X0186013Y0097597D01*
X0185763Y0098029D01*
X0185411Y0098381D01*
X0184979Y0098631D01*
X0184497Y0098760D01*
X0183157Y0098760D01*
X0183157Y0094988D01*
X0182189Y0094988D01*
X0182189Y0094020D01*
X0179205Y0094020D01*
X0179205Y0091892D01*
X0179334Y0091411D01*
X0179583Y0090979D01*
X0179936Y0090626D01*
X0180367Y0090377D01*
X0180849Y0090248D01*
X0182189Y0090248D01*
X0182189Y0094020D01*
X0183157Y0094020D01*
X0183157Y0090248D01*
X0184497Y0090248D01*
X0184979Y0090377D01*
X0185978Y0091351D02*
X0187552Y0091351D01*
X0187552Y0092350D02*
X0186142Y0092350D01*
X0186142Y0093348D02*
X0187552Y0093348D01*
X0187552Y0094347D02*
X0183158Y0094347D01*
X0182189Y0094347D02*
X0178361Y0094347D01*
X0178361Y0095345D02*
X0179205Y0095345D01*
X0179205Y0094988D02*
X0182189Y0094988D01*
X0182189Y0098760D01*
X0180849Y0098760D01*
X0180367Y0098631D01*
X0179936Y0098381D01*
X0179583Y0098029D01*
X0179334Y0097597D01*
X0179205Y0097115D01*
X0179205Y0094988D01*
X0179205Y0096344D02*
X0178361Y0096344D01*
X0178361Y0097342D02*
X0179266Y0097342D01*
X0179895Y0098341D02*
X0177708Y0098341D01*
X0178707Y0099339D02*
X0186159Y0099339D01*
X0185451Y0098341D02*
X0187158Y0098341D01*
X0187552Y0097342D02*
X0186081Y0097342D01*
X0186142Y0096344D02*
X0187552Y0096344D01*
X0187552Y0095345D02*
X0186142Y0095345D01*
X0183157Y0095345D02*
X0182189Y0095345D01*
X0182189Y0096344D02*
X0183157Y0096344D01*
X0183157Y0097342D02*
X0182189Y0097342D01*
X0182189Y0098341D02*
X0183157Y0098341D01*
X0183157Y0093348D02*
X0182189Y0093348D01*
X0182189Y0092350D02*
X0183157Y0092350D01*
X0183157Y0091351D02*
X0182189Y0091351D01*
X0182189Y0090353D02*
X0183157Y0090353D01*
X0180459Y0090353D02*
X0174409Y0090353D01*
X0173411Y0089354D02*
X0176254Y0089354D01*
X0175765Y0088356D02*
X0172412Y0088356D01*
X0170670Y0093348D02*
X0159975Y0093348D01*
X0160974Y0094347D02*
X0171668Y0094347D01*
X0172024Y0095345D02*
X0161972Y0095345D01*
X0162971Y0096344D02*
X0172024Y0096344D01*
X0172024Y0097342D02*
X0163814Y0097342D01*
X0163814Y0098341D02*
X0164666Y0098341D01*
X0168201Y0098341D02*
X0172812Y0098341D01*
X0172812Y0099339D02*
X0169011Y0099339D01*
X0169011Y0100338D02*
X0172970Y0100338D01*
X0173969Y0101336D02*
X0169011Y0101336D01*
X0169011Y0102335D02*
X0174967Y0102335D01*
X0175966Y0103333D02*
X0169011Y0103333D01*
X0169011Y0104332D02*
X0176964Y0104332D01*
X0168476Y0105330D02*
X0197350Y0105330D01*
X0197350Y0104332D02*
X0187902Y0104332D01*
X0188900Y0103333D02*
X0197350Y0103333D01*
X0197350Y0102335D02*
X0189899Y0102335D01*
X0190897Y0101336D02*
X0197350Y0101336D01*
X0197350Y0100338D02*
X0191896Y0100338D01*
X0192314Y0099339D02*
X0197350Y0099339D01*
X0197350Y0098341D02*
X0192314Y0098341D01*
X0192314Y0097342D02*
X0197350Y0097342D01*
X0197350Y0096344D02*
X0192314Y0096344D01*
X0192314Y0095345D02*
X0197350Y0095345D01*
X0197350Y0094347D02*
X0192314Y0094347D01*
X0192314Y0093348D02*
X0197351Y0093348D01*
X0197618Y0092350D02*
X0192314Y0092350D01*
X0192314Y0091351D02*
X0197886Y0091351D01*
X0198153Y0090353D02*
X0192314Y0090353D01*
X0192314Y0089354D02*
X0198421Y0089354D01*
X0198955Y0088356D02*
X0192314Y0088356D01*
X0192314Y0087357D02*
X0199531Y0087357D01*
X0200108Y0086359D02*
X0192314Y0086359D01*
X0192314Y0085360D02*
X0200748Y0085360D01*
X0201747Y0084362D02*
X0192314Y0084362D01*
X0192314Y0083363D02*
X0202745Y0083363D01*
X0203833Y0082365D02*
X0191732Y0082365D01*
X0190733Y0081366D02*
X0205563Y0081366D01*
X0207292Y0080368D02*
X0189735Y0080368D01*
X0193474Y0076374D02*
X0231883Y0076374D01*
X0231883Y0075375D02*
X0194265Y0075375D01*
X0194602Y0074377D02*
X0231883Y0074377D01*
X0231883Y0073378D02*
X0194602Y0073378D01*
X0194602Y0072379D02*
X0231883Y0072379D01*
X0179368Y0091351D02*
X0178231Y0091351D01*
X0178361Y0092350D02*
X0179205Y0092350D01*
X0179205Y0093348D02*
X0178361Y0093348D01*
X0175765Y0083363D02*
X0165990Y0083363D01*
X0169311Y0077372D02*
X0175005Y0077372D01*
X0174052Y0076374D02*
X0169311Y0076374D01*
X0169121Y0075375D02*
X0174052Y0075375D01*
X0174052Y0074377D02*
X0167894Y0074377D01*
X0169934Y0068385D02*
X0173518Y0068385D01*
X0172520Y0067387D02*
X0169934Y0067387D01*
X0169934Y0066388D02*
X0171521Y0066388D01*
X0170523Y0065390D02*
X0169934Y0065390D01*
X0148461Y0062394D02*
X0135635Y0062394D01*
X0134637Y0061396D02*
X0147932Y0061396D01*
X0133663Y0069384D02*
X0119934Y0069384D01*
X0119934Y0070382D02*
X0121743Y0070382D01*
X0121039Y0071381D02*
X0119934Y0071381D01*
X0119420Y0072379D02*
X0120765Y0072379D01*
X0120795Y0073378D02*
X0118814Y0073378D01*
X0118814Y0074377D02*
X0121209Y0074377D01*
X0122176Y0075375D02*
X0118846Y0075375D01*
X0119011Y0076374D02*
X0133152Y0076374D01*
X0134151Y0077372D02*
X0119011Y0077372D01*
X0119011Y0078371D02*
X0135149Y0078371D01*
X0136148Y0079369D02*
X0131246Y0079369D01*
X0131132Y0079254D02*
X0131488Y0079611D01*
X0131740Y0080047D01*
X0131870Y0080534D01*
X0131870Y0082825D01*
X0126933Y0082825D01*
X0126933Y0083825D01*
X0125933Y0083825D01*
X0125933Y0087778D01*
X0122658Y0087778D01*
X0122171Y0087647D01*
X0121735Y0087395D01*
X0121378Y0087039D01*
X0121126Y0086603D01*
X0120996Y0086116D01*
X0120996Y0083825D01*
X0125933Y0083825D01*
X0125933Y0082825D01*
X0120996Y0082825D01*
X0120996Y0080534D01*
X0121126Y0080047D01*
X0121378Y0079611D01*
X0121735Y0079254D01*
X0122171Y0079002D01*
X0122658Y0078872D01*
X0125933Y0078872D01*
X0125933Y0082825D01*
X0126933Y0082825D01*
X0126933Y0078872D01*
X0130209Y0078872D01*
X0130695Y0079002D01*
X0131132Y0079254D01*
X0131826Y0080368D02*
X0137146Y0080368D01*
X0138145Y0081366D02*
X0131870Y0081366D01*
X0131870Y0082365D02*
X0139144Y0082365D01*
X0140142Y0083363D02*
X0126933Y0083363D01*
X0126933Y0083825D02*
X0131870Y0083825D01*
X0131870Y0086116D01*
X0131740Y0086603D01*
X0131488Y0087039D01*
X0131132Y0087395D01*
X0130695Y0087647D01*
X0130209Y0087778D01*
X0126933Y0087778D01*
X0126933Y0083825D01*
X0126933Y0084362D02*
X0125933Y0084362D01*
X0125933Y0085360D02*
X0126933Y0085360D01*
X0126933Y0086359D02*
X0125933Y0086359D01*
X0125933Y0087357D02*
X0126933Y0087357D01*
X0129620Y0089354D02*
X0121917Y0089354D01*
X0122003Y0090353D02*
X0128621Y0090353D01*
X0127623Y0091351D02*
X0121768Y0091351D01*
X0121098Y0092350D02*
X0126624Y0092350D01*
X0126105Y0092869D02*
X0122241Y0092869D01*
X0121296Y0093814D01*
X0121296Y0097678D01*
X0120158Y0098816D01*
X0118665Y0098816D01*
X0118074Y0098225D01*
X0114792Y0098225D01*
X0113933Y0099084D01*
X0113074Y0098225D01*
X0109792Y0098225D01*
X0108933Y0099084D01*
X0108074Y0098225D01*
X0104792Y0098225D01*
X0103933Y0099084D01*
X0103074Y0098225D01*
X0099792Y0098225D01*
X0098855Y0099162D01*
X0098855Y0104806D01*
X0099792Y0105743D01*
X0103074Y0105743D01*
X0103933Y0104884D01*
X0104792Y0105743D01*
X0108074Y0105743D01*
X0108933Y0104884D01*
X0109792Y0105743D01*
X0113074Y0105743D01*
X0113933Y0104884D01*
X0114792Y0105743D01*
X0118074Y0105743D01*
X0118665Y0105153D01*
X0122101Y0105153D01*
X0123265Y0104670D01*
X0126761Y0101174D01*
X0130625Y0101174D01*
X0131570Y0100229D01*
X0131570Y0096366D01*
X0134594Y0093342D01*
X0136063Y0093342D01*
X0137228Y0092859D01*
X0138119Y0091968D01*
X0138602Y0090803D01*
X0138602Y0089543D01*
X0138119Y0088378D01*
X0137228Y0087487D01*
X0136063Y0087005D01*
X0133912Y0087005D01*
X0132651Y0087005D01*
X0131487Y0087487D01*
X0126105Y0092869D01*
X0121762Y0093348D02*
X0086438Y0093348D01*
X0086488Y0093299D02*
X0086132Y0093655D01*
X0085695Y0093907D01*
X0085209Y0094037D01*
X0081933Y0094037D01*
X0081933Y0090085D01*
X0080933Y0090085D01*
X0080933Y0094037D01*
X0077658Y0094037D01*
X0077171Y0093907D01*
X0076735Y0093655D01*
X0076378Y0093299D01*
X0076126Y0092863D01*
X0075996Y0092376D01*
X0075996Y0090085D01*
X0080933Y0090085D01*
X0080933Y0089085D01*
X0075996Y0089085D01*
X0075996Y0086793D01*
X0076126Y0086307D01*
X0076378Y0085870D01*
X0076735Y0085514D01*
X0077171Y0085262D01*
X0077658Y0085132D01*
X0080933Y0085132D01*
X0080933Y0089085D01*
X0081933Y0089085D01*
X0081933Y0090085D01*
X0086870Y0090085D01*
X0086870Y0092376D01*
X0086740Y0092863D01*
X0086488Y0093299D01*
X0086870Y0092350D02*
X0112982Y0092350D01*
X0111984Y0091351D02*
X0086870Y0091351D01*
X0086870Y0090353D02*
X0110985Y0090353D01*
X0109987Y0089354D02*
X0081933Y0089354D01*
X0081933Y0089085D02*
X0086870Y0089085D01*
X0086870Y0086793D01*
X0086740Y0086307D01*
X0086488Y0085870D01*
X0086132Y0085514D01*
X0085695Y0085262D01*
X0085209Y0085132D01*
X0081933Y0085132D01*
X0081933Y0089085D01*
X0081933Y0088356D02*
X0080933Y0088356D01*
X0080933Y0089354D02*
X0071296Y0089354D01*
X0071563Y0090353D02*
X0075996Y0090353D01*
X0075996Y0091351D02*
X0071831Y0091351D01*
X0072098Y0092350D02*
X0075996Y0092350D01*
X0076428Y0093348D02*
X0072366Y0093348D01*
X0072366Y0094347D02*
X0093477Y0094347D01*
X0092280Y0095345D02*
X0072366Y0095345D01*
X0072366Y0096344D02*
X0091847Y0096344D01*
X0091765Y0097342D02*
X0072366Y0097342D01*
X0072366Y0098341D02*
X0091765Y0098341D01*
X0091765Y0099339D02*
X0085836Y0099339D01*
X0085625Y0099129D02*
X0086570Y0100074D01*
X0086570Y0102329D01*
X0092619Y0108378D01*
X0093102Y0109543D01*
X0093102Y0110803D01*
X0092619Y0111968D01*
X0091728Y0112859D01*
X0090563Y0113342D01*
X0089303Y0113342D01*
X0088138Y0112859D01*
X0082713Y0107434D01*
X0077241Y0107434D01*
X0076296Y0106489D01*
X0076296Y0100074D01*
X0077241Y0099129D01*
X0085625Y0099129D01*
X0086570Y0100338D02*
X0091765Y0100338D01*
X0091765Y0101336D02*
X0086570Y0101336D01*
X0086576Y0102335D02*
X0091765Y0102335D01*
X0091765Y0103333D02*
X0087574Y0103333D01*
X0088573Y0104332D02*
X0091765Y0104332D01*
X0091765Y0105330D02*
X0089571Y0105330D01*
X0090570Y0106329D02*
X0091765Y0106329D01*
X0091568Y0107327D02*
X0091982Y0107327D01*
X0092567Y0108326D02*
X0092605Y0108326D01*
X0093011Y0109324D02*
X0093603Y0109324D01*
X0093102Y0110323D02*
X0094602Y0110323D01*
X0095600Y0111321D02*
X0092887Y0111321D01*
X0092267Y0112320D02*
X0096599Y0112320D01*
X0098247Y0113318D02*
X0090620Y0113318D01*
X0089247Y0113318D02*
X0072366Y0113318D01*
X0072366Y0112320D02*
X0087599Y0112320D01*
X0086600Y0111321D02*
X0072366Y0111321D01*
X0072366Y0110323D02*
X0085602Y0110323D01*
X0084603Y0109324D02*
X0072366Y0109324D01*
X0072366Y0108326D02*
X0083605Y0108326D01*
X0077134Y0107327D02*
X0072366Y0107327D01*
X0072366Y0106329D02*
X0076296Y0106329D01*
X0076296Y0105330D02*
X0072366Y0105330D01*
X0072366Y0104332D02*
X0076296Y0104332D01*
X0076296Y0103333D02*
X0072366Y0103333D01*
X0072366Y0102335D02*
X0076296Y0102335D01*
X0076296Y0101336D02*
X0072366Y0101336D01*
X0072366Y0100338D02*
X0076296Y0100338D01*
X0077031Y0099339D02*
X0072366Y0099339D01*
X0080933Y0093348D02*
X0081933Y0093348D01*
X0081933Y0092350D02*
X0080933Y0092350D01*
X0080933Y0091351D02*
X0081933Y0091351D01*
X0081933Y0090353D02*
X0080933Y0090353D01*
X0080933Y0087357D02*
X0081933Y0087357D01*
X0081933Y0086359D02*
X0080933Y0086359D01*
X0080933Y0085360D02*
X0081933Y0085360D01*
X0085865Y0085360D02*
X0105993Y0085360D01*
X0106991Y0086359D02*
X0086754Y0086359D01*
X0086870Y0087357D02*
X0107990Y0087357D01*
X0108988Y0088356D02*
X0086870Y0088356D01*
X0077001Y0085360D02*
X0068968Y0085360D01*
X0069609Y0086359D02*
X0076113Y0086359D01*
X0075996Y0087357D02*
X0070185Y0087357D01*
X0070762Y0088356D02*
X0075996Y0088356D01*
X0067970Y0084362D02*
X0104994Y0084362D01*
X0104052Y0083363D02*
X0066971Y0083363D01*
X0065883Y0082365D02*
X0099993Y0082365D01*
X0100205Y0082421D02*
X0099721Y0082292D01*
X0099288Y0082042D01*
X0098935Y0081688D01*
X0098685Y0081255D01*
X0098555Y0080772D01*
X0098555Y0078551D01*
X0101244Y0078551D01*
X0101244Y0082421D01*
X0100205Y0082421D01*
X0101244Y0082365D02*
X0101622Y0082365D01*
X0101622Y0081366D02*
X0101244Y0081366D01*
X0101244Y0080368D02*
X0101622Y0080368D01*
X0101622Y0079369D02*
X0101244Y0079369D01*
X0101244Y0078371D02*
X0085717Y0078371D01*
X0085621Y0078602D02*
X0084231Y0079991D01*
X0082416Y0080743D01*
X0080450Y0080743D01*
X0078635Y0079991D01*
X0077245Y0078602D01*
X0076493Y0076786D01*
X0076493Y0074820D01*
X0077245Y0073005D01*
X0078635Y0071615D01*
X0080450Y0070863D01*
X0082416Y0070863D01*
X0084231Y0071615D01*
X0085621Y0073005D01*
X0086373Y0074820D01*
X0086373Y0076786D01*
X0085621Y0078602D01*
X0084854Y0079369D02*
X0098555Y0079369D01*
X0098555Y0080368D02*
X0083323Y0080368D01*
X0079543Y0080368D02*
X0076046Y0080368D01*
X0076373Y0080040D02*
X0075670Y0080743D01*
X0067196Y0080743D01*
X0066493Y0080040D01*
X0066493Y0071566D01*
X0067196Y0070863D01*
X0075670Y0070863D01*
X0076373Y0071566D01*
X0076373Y0080040D01*
X0076373Y0079369D02*
X0078013Y0079369D01*
X0077149Y0078371D02*
X0076373Y0078371D01*
X0076373Y0077372D02*
X0076736Y0077372D01*
X0076493Y0076374D02*
X0076373Y0076374D01*
X0076373Y0075375D02*
X0076493Y0075375D01*
X0076373Y0074377D02*
X0076677Y0074377D01*
X0076373Y0073378D02*
X0077090Y0073378D01*
X0076373Y0072379D02*
X0077870Y0072379D01*
X0079200Y0071381D02*
X0076188Y0071381D01*
X0083666Y0071381D02*
X0097932Y0071381D01*
X0098446Y0072379D02*
X0084996Y0072379D01*
X0085776Y0073378D02*
X0105795Y0073378D01*
X0105765Y0072379D02*
X0105723Y0072379D01*
X0106209Y0074377D02*
X0102935Y0074377D01*
X0101622Y0074377D02*
X0101244Y0074377D01*
X0101244Y0074303D02*
X0101244Y0078173D01*
X0098555Y0078173D01*
X0098555Y0075953D01*
X0098685Y0075470D01*
X0098935Y0075036D01*
X0099288Y0074683D01*
X0099721Y0074433D01*
X0100205Y0074303D01*
X0101244Y0074303D01*
X0101244Y0075375D02*
X0101622Y0075375D01*
X0101622Y0076374D02*
X0101244Y0076374D01*
X0101244Y0077372D02*
X0101622Y0077372D01*
X0098555Y0077372D02*
X0086130Y0077372D01*
X0086373Y0076374D02*
X0098555Y0076374D01*
X0098739Y0075375D02*
X0086373Y0075375D01*
X0086189Y0074377D02*
X0099931Y0074377D01*
X0098749Y0081366D02*
X0064154Y0081366D01*
X0062424Y0080368D02*
X0066820Y0080368D01*
X0066493Y0079369D02*
X0058738Y0079369D01*
X0066493Y0078371D02*
X0037833Y0078371D01*
X0037833Y0077372D02*
X0066493Y0077372D01*
X0066493Y0076374D02*
X0037833Y0076374D01*
X0037833Y0075375D02*
X0066493Y0075375D01*
X0066493Y0074377D02*
X0037833Y0074377D01*
X0037833Y0073378D02*
X0066493Y0073378D01*
X0066493Y0072379D02*
X0037833Y0072379D01*
X0061934Y0071381D02*
X0066678Y0071381D01*
X0063908Y0070382D02*
X0089694Y0070382D01*
X0088712Y0069384D02*
X0065637Y0069384D01*
X0066829Y0068385D02*
X0088299Y0068385D01*
X0088265Y0067387D02*
X0067827Y0067387D01*
X0068826Y0066388D02*
X0076798Y0066388D01*
X0076081Y0065390D02*
X0069527Y0065390D01*
X0070103Y0064391D02*
X0075996Y0064391D01*
X0075996Y0063393D02*
X0070680Y0063393D01*
X0080933Y0063393D02*
X0081933Y0063393D01*
X0081933Y0064391D02*
X0080933Y0064391D01*
X0080933Y0065390D02*
X0081933Y0065390D01*
X0081933Y0066388D02*
X0080933Y0066388D01*
X0086068Y0066388D02*
X0088536Y0066388D01*
X0089235Y0065390D02*
X0086785Y0065390D01*
X0086870Y0064391D02*
X0097932Y0064391D01*
X0098020Y0063393D02*
X0086870Y0063393D01*
X0081933Y0060397D02*
X0080933Y0060397D01*
X0080933Y0059399D02*
X0081933Y0059399D01*
X0081933Y0058400D02*
X0080933Y0058400D01*
X0103040Y0052409D02*
X0106015Y0052409D01*
X0106687Y0053408D02*
X0104149Y0053408D01*
X0105147Y0054406D02*
X0107685Y0054406D01*
X0117138Y0052859D02*
X0117138Y0052859D01*
X0119846Y0063393D02*
X0127672Y0063393D01*
X0128670Y0064391D02*
X0119934Y0064391D01*
X0119934Y0065390D02*
X0129669Y0065390D01*
X0130667Y0066388D02*
X0119934Y0066388D01*
X0119934Y0067387D02*
X0131666Y0067387D01*
X0132664Y0068385D02*
X0119934Y0068385D01*
X0119011Y0079369D02*
X0121620Y0079369D01*
X0121041Y0080368D02*
X0119011Y0080368D01*
X0118829Y0081366D02*
X0120996Y0081366D01*
X0120996Y0082365D02*
X0109732Y0082365D01*
X0109037Y0081366D02*
X0108829Y0081366D01*
X0110730Y0083363D02*
X0125933Y0083363D01*
X0125933Y0082365D02*
X0126933Y0082365D01*
X0126933Y0081366D02*
X0125933Y0081366D01*
X0125933Y0080368D02*
X0126933Y0080368D01*
X0126933Y0079369D02*
X0125933Y0079369D01*
X0120996Y0084362D02*
X0111729Y0084362D01*
X0112728Y0085360D02*
X0120996Y0085360D01*
X0121061Y0086359D02*
X0113726Y0086359D01*
X0114725Y0087357D02*
X0117709Y0087357D01*
X0120157Y0087357D02*
X0121696Y0087357D01*
X0121457Y0088356D02*
X0130618Y0088356D01*
X0131170Y0087357D02*
X0131800Y0087357D01*
X0131805Y0086359D02*
X0143138Y0086359D01*
X0142709Y0087357D02*
X0136914Y0087357D01*
X0138096Y0088356D02*
X0141409Y0088356D01*
X0140949Y0089354D02*
X0138523Y0089354D01*
X0138602Y0090353D02*
X0140863Y0090353D01*
X0141098Y0091351D02*
X0138375Y0091351D01*
X0137738Y0092350D02*
X0141768Y0092350D01*
X0143741Y0093348D02*
X0134587Y0093348D01*
X0133589Y0094347D02*
X0144739Y0094347D01*
X0145738Y0095345D02*
X0132590Y0095345D01*
X0131592Y0096344D02*
X0146736Y0096344D01*
X0147735Y0097342D02*
X0131570Y0097342D01*
X0131570Y0098341D02*
X0149666Y0098341D01*
X0153201Y0098341D02*
X0154666Y0098341D01*
X0158201Y0098341D02*
X0158233Y0098341D01*
X0158242Y0092350D02*
X0154738Y0092350D01*
X0155375Y0091351D02*
X0157244Y0091351D01*
X0156245Y0090353D02*
X0155602Y0090353D01*
X0142139Y0085360D02*
X0131870Y0085360D01*
X0131870Y0084362D02*
X0141141Y0084362D01*
X0121296Y0094347D02*
X0096389Y0094347D01*
X0097586Y0095345D02*
X0121296Y0095345D01*
X0121296Y0096344D02*
X0098019Y0096344D01*
X0098102Y0097342D02*
X0121296Y0097342D01*
X0120633Y0098341D02*
X0118190Y0098341D01*
X0114677Y0098341D02*
X0113190Y0098341D01*
X0109677Y0098341D02*
X0108190Y0098341D01*
X0104677Y0098341D02*
X0103190Y0098341D01*
X0099677Y0098341D02*
X0098102Y0098341D01*
X0098102Y0099339D02*
X0098855Y0099339D01*
X0098855Y0100338D02*
X0098102Y0100338D01*
X0098102Y0101336D02*
X0098855Y0101336D01*
X0098855Y0102335D02*
X0098102Y0102335D01*
X0098102Y0103333D02*
X0098855Y0103333D01*
X0098855Y0104332D02*
X0098102Y0104332D01*
X0098571Y0105330D02*
X0099379Y0105330D01*
X0099570Y0106329D02*
X0125796Y0106329D01*
X0126795Y0105330D02*
X0118487Y0105330D01*
X0114379Y0105330D02*
X0113487Y0105330D01*
X0109379Y0105330D02*
X0108487Y0105330D01*
X0104379Y0105330D02*
X0103487Y0105330D01*
X0123604Y0104332D02*
X0127794Y0104332D01*
X0128792Y0103333D02*
X0124602Y0103333D01*
X0125601Y0102335D02*
X0129791Y0102335D01*
X0130789Y0101336D02*
X0126599Y0101336D01*
X0131462Y0100338D02*
X0131788Y0100338D01*
X0131570Y0099339D02*
X0132786Y0099339D01*
X0135757Y0105330D02*
X0149390Y0105330D01*
X0153476Y0105330D02*
X0154390Y0105330D01*
X0158476Y0105330D02*
X0159390Y0105330D01*
X0163476Y0105330D02*
X0164390Y0105330D01*
X0134758Y0106329D02*
X0197350Y0106329D01*
X0197350Y0107327D02*
X0133760Y0107327D01*
X0132761Y0108326D02*
X0197350Y0108326D01*
X0197350Y0109324D02*
X0131763Y0109324D01*
X0130764Y0110323D02*
X0197350Y0110323D01*
X0197350Y0111321D02*
X0129766Y0111321D01*
X0128767Y0112320D02*
X0197350Y0112320D01*
X0197350Y0113318D02*
X0127120Y0113318D01*
X0104052Y0082365D02*
X0102873Y0082365D01*
X0113829Y0081366D02*
X0114037Y0081366D01*
M02*
