%
M48
M72
T01C0.0197
T02C0.0394
T03C0.1575
%
T01
X9143Y6767
X10893Y7267
X12393Y7267
X11893Y9017
X13543Y9017
X14393Y9017
X15243Y9017
X17193Y8017
X17193Y7517
X18143Y7393
X19143Y7393
X9493Y9717
X8993Y11017
T02
X9893Y4517
X10893Y4517
X11893Y4517
X12893Y4517
X14893Y4517
X15893Y4517
X16893Y4517
X8143Y7580
X7143Y7580
T03
X5612Y5612
X5612Y9549
X21360Y9549
X21360Y5612
M30
